<svg xmlns="http://www.w3.org/2000/svg" xml:space="preserve" viewBox="0 0 123 96">
    <path
        d="M108 41c-4 19-20 35-38 45-10 5-19 8-29 10-9 1-18 0-25-4C8 88 2 81 0 71v-1l2-1c30 18 47 0 58-18l8-15 6-11-6-5a2 2 0 0 1 2-3l6 2 5-2 3-3c5-3 7-5 15-2 3-5 7-8 10-10 5-3 9-3 13 1a2 2 0 0 1-2 2c-3-2-6-2-9-1-3 2-6 5-9 10 6 3 7 8 8 13l2 6 1 1h2l2 1-1 2-8 4z" />
    <path fill="#84d10f"
        d="M78 23a21 21 0 0 0 11 0l2 2-1 7-2 2 4-1c2 0 4-2 6-4l1-1 2 1c1 5 3 8 5 8 2 1 4 0 5-1l-1-1c-2-2-3-5-3-7-1-5-2-9-7-12-8-4-10-2-13 1l-4 3-7 2 2 1z" />
    <path fill="#e62128"
        d="m77 26-6 11-8 16C52 71 34 90 4 74c3 7 7 12 13 15 7 4 15 5 24 3 9-1 18-4 27-9 18-9 33-25 37-43-2-1-5-3-6-7l-6 3H83a2 2 0 0 1 0-3l4-3 1-3-11-1z" />
</svg>