<!-- Generated by IcoMoon.io -->
<svg version="1.1" xmlns="http://www.w3.org/2000/svg" viewBox="0 0 32 32">
<title>1inch</title>
<path fill="#fff" d="M7.613 17.539l0.846-6.359-7.341-5.096 6.708 2.272 1.584-2.431 5.784-3.589 12.75 7.025 0.661 10.718-5.68 7.894-4.49 0.688 2.322-4.25v-4.092l-1.688-3.195-1.715-1.136-2.639 2.72v2.879l-2.059 1.928-2.616 0.317-1.159 0.656-1.901-0.607-0.792-2.852 1.426-2.005v-1.485z"></path>
<path fill="#94a6c3" d="M19.336 6.029c-1.399-0.29-2.928-0.213-2.928-0.213s-0.502 2.322-3.616 2.933c0.023 0 4.114 1.399 6.545-2.72z"></path>
<path fill="#94a6c3" d="M20.603 27.098c1.688-1.322 2.956-3.141 3.539-5.201 0.027-0.077 0.263-0.213 0.421-0.317 0.263-0.158 0.53-0.29 0.579-0.502 0.104-0.607 0.158-1.24 0.158-1.874 0-0.235-0.24-0.475-0.475-0.711-0.186-0.158-0.371-0.344-0.371-0.475-0.263-2.403-1.371-4.648-3.141-6.282l-0.186 0.186c1.715 1.611 2.824 3.802 3.064 6.124 0.027 0.213 0.235 0.421 0.448 0.634 0.186 0.158 0.398 0.398 0.398 0.502 0 0.607-0.054 1.213-0.158 1.82-0.027 0.104-0.263 0.213-0.448 0.317-0.263 0.131-0.502 0.263-0.552 0.475-0.634 2.245-2.087 4.2-4.015 5.468 0.344-0.738 1.426-3.141 2.005-4.359l-0.104-3.906-3.354-3.245-1.901 0.263-2.087 3.381c0 0 0.978 1.24-0.398 2.693-1.344 1.426-2.403 1.743-2.403 1.743l-0.978-0.53c0.29-0.371 0.874-0.923 1.322-1.294 0.765-0.634 1.53-0.688 1.53-1.371 0.032-1.43-1.503-1.037-1.503-1.037l-0.557 0.53-0.235 1.955-1.159 1.453-0.131-0.027-1.901-0.421c0 0 1.163-0.607 1.349-1.294 0.186-0.661-0.371-2.852-0.398-2.983 0.027 0.027 0.557 0.475 0.792 1.213 0.421-1.163 0.978-2.272 1.136-2.376s2.295-1.24 2.295-1.24l-0.711 1.874 0.53-0.29 1.267-3.114c0 0 1.24-0.607 2.163-0.607 1.661-0.027 4.119-2.059 3.010-5.703 0.317 0.131 5.807 2.879 6.758 8.265 0.711 4.141-1.638 8.020-5.599 10.265z"></path>
<path fill="#1b314f" d="M14.321 6.608c0.607-0.715 0.371-1.77 0.371-1.77l-1.77 2.616c-0.027 0 0.629 0.027 1.399-0.846z"></path>
<path fill="#1b314f" d="M8.378 20.893l0.213-1.055c0 0-0.874 1.53-0.95 1.743-0.081 0.24 0.054 0.661 0.394 0.634 0.344-0.027 0.765-0.53 0.765-0.896 0-0.475-0.421-0.425-0.421-0.425z"></path>
<path fill="#1b314f" d="M24.061 4.101c0 0 1.322 0.054 2.693 0.213-3.091-2.431-6.020-3.141-8.396-3.141-3.272 0-5.49 1.349-5.626 1.426l1.032-1.638c0 0-4.119-0.398-5.572 3.96-0.371-0.923-0.711-2.272-0.711-2.272s-2.141 1.878-1.136 4.992c-2.458-0.896-5.965-2.141-6.101-2.163-0.186-0.027-0.24 0.054-0.24 0.054s-0.054 0.077 0.104 0.213c0.294 0.231 5.839 4.327 7.056 5.119-0.263 0.95-0.263 1.399 0 1.847 0.371 0.607 0.394 0.923 0.344 1.371-0.054 0.448-0.53 4.332-0.634 4.807s-1.213 2.163-1.163 2.666c0.054 0.502 0.738 2.639 1.349 2.879 0.448 0.158 1.557 0.502 2.295 0.502 0.263 0 0.502-0.054 0.607-0.158 0.448-0.394 0.579-0.475 0.896-0.475 0.027 0 0.054 0 0.077 0 0.131 0 0.29 0.027 0.475 0.027 0.421 0 0.978-0.081 1.371-0.448 0.579-0.579 1.584-1.371 1.901-1.743 0.398-0.502 0.607-1.186 0.502-1.874-0.081-0.634 0.263-1.19 0.661-1.743 0.502-0.661 1.426-1.847 1.426-1.847 1.824 1.367 2.96 3.453 2.96 5.775 0 4.119-3.589 7.446-8.025 7.446-0.688 0-1.344-0.077-2.005-0.235 2.032 0.711 3.748 0.951 5.151 0.951 2.983 0 4.567-1.082 4.567-1.082s-0.552 0.715-1.453 1.53c0.027 0 0.027 0 0.027 0 4.938-0.688 7.341-4.752 7.341-4.752s-0.186 1.322-0.421 2.218c6.567-4.938 5.459-11.116 5.431-11.324 0.054 0.077 0.715 0.869 1.055 1.294 1.059-10.881-7.839-14.393-7.839-14.393zM13.95 21.477c-0.104 0.131-0.552 0.53-0.869 0.819s-0.661 0.579-0.923 0.846c-0.104 0.104-0.317 0.158-0.634 0.158-0.104 0-0.213 0-0.29 0-0.054 0-0.104 0-0.158 0s-0.081 0-0.104 0c-0.081 0-0.158 0-0.24 0 0.398-0.53 1.557-1.743 1.955-2.005 0.475-0.317 0.715-0.634 0.421-1.186-0.29-0.557-1.055-0.421-1.055-0.421s0.448-0.186 0.846-0.186c-0.502-0.131-1.136 0-1.426 0.29-0.317 0.29-0.263 1.322-0.394 1.978-0.131 0.688-0.579 1.032-1.267 1.666-0.371 0.344-0.634 0.448-0.846 0.448-0.448-0.077-0.978-0.213-1.349-0.344-0.263-0.344-0.661-1.48-0.765-1.955 0.077-0.263 0.394-0.819 0.552-1.136 0.317-0.607 0.502-0.951 0.557-1.267 0.104-0.448 0.448-3.223 0.579-4.381 0.344 0.448 0.819 1.19 0.711 1.666 0.765-1.082 0.213-2.141-0.054-2.562-0.235-0.421-0.552-1.267-0.29-2.164s1.213-3.381 1.213-3.381 0.317 0.557 0.765 0.448c0.448-0.104 4.065-5.545 4.065-5.545s0.978 2.136-0.054 3.698c-1.055 1.557-2.087 1.847-2.087 1.847s1.453 0.263 2.797-0.715c0.552 1.294 1.082 2.639 1.109 2.824-0.081 0.186-1.136 2.72-1.24 2.879-0.054 0.054-0.421 0.158-0.688 0.213-0.448 0.131-0.711 0.213-0.819 0.29-0.186 0.158-1.032 2.48-1.426 3.616-0.475 0.131-0.95 0.398-1.294 0.923 0.186-0.131 0.765-0.213 1.19-0.263 0.371-0.027 1.503 0.579 1.797 1.715 0 0.027 0 0.027 0 0.054 0.059 0.416-0.072 0.815-0.285 1.132zM11.469 21.794c0.24-0.344 0.213-0.923 0.24-1.109s0.077-0.53 0.29-0.579c0.213-0.054 0.715 0.027 0.715 0.394 0 0.344-0.371 0.421-0.634 0.661-0.19 0.181-0.561 0.579-0.611 0.634zM22.002 16.747c0.263-1.344 0.29-2.508 0.213-3.458 1.027 1.371 1.661 3.037 1.847 4.752 0.027 0.213 0.235 0.421 0.448 0.634 0.186 0.158 0.398 0.371 0.398 0.502 0 0.607-0.054 1.213-0.158 1.824-0.027 0.077-0.263 0.213-0.448 0.317-0.263 0.131-0.502 0.263-0.552 0.475-0.579 2.032-1.824 3.829-3.485 5.096 2.453-2.562 3.639-6.789 1.738-10.143zM20.341 27.125c1.715-1.322 3.037-3.168 3.616-5.255 0.027-0.077 0.263-0.213 0.421-0.317 0.263-0.131 0.53-0.29 0.579-0.502 0.104-0.607 0.158-1.24 0.158-1.874 0-0.235-0.24-0.475-0.475-0.711-0.131-0.158-0.344-0.344-0.344-0.475-0.213-1.928-0.978-3.748-2.163-5.255-0.53-3.168-2.639-4.146-2.693-4.173 0.054 0.081 1.426 2.059 0.475 4.381-0.978 2.349-3.485 1.982-3.698 2.005-0.213 0-1.027 1.055-2.059 3.010-0.131-0.054-0.688-0.186-1.322-0.077 0.475-1.322 1.19-3.195 1.322-3.354 0.054-0.054 0.448-0.158 0.715-0.235 0.502-0.131 0.738-0.213 0.819-0.317 0.054-0.081 0.317-0.688 0.579-1.322 0.24 0 0.846-0.054 0.896-0.081 0.054-0.054 0.557-1.344 0.557-1.503 0-0.131-1.032-2.693-1.426-3.671 0.186-0.213 0.371-0.475 0.552-0.765 5.413 0.584 9.641 5.178 9.641 10.745 0 4.277-2.508 8.002-6.151 9.745z"></path>
<path fill="#1b314f" d="M13.316 12.868c0.502-0.579 0.24-1.661-0.688-1.847 0.24-0.552 0.579-1.661 0.579-1.661s-2.693 4.223-2.928 4.304c-0.24 0.081-0.475-0.846-0.475-0.846-0.502 1.928 0.846 2.191 1.005 1.584 0.738-0.19 2.005-0.982 2.508-1.534z"></path>
<path fill="#ffd923" d="M11.017 13.895l1.371-2.349c0 0 0.792 0.398 0.394 1.032-0.498 0.738-1.765 1.317-1.765 1.317z"></path>
<path fill="#d82122" d="M27.994 24.776c-0.398 0.53-0.846 1.082-1.371 1.611 3.404-6.549 0.158-12.542 0.027-12.777 0.24 0.24 0.475 0.502 0.688 0.738 2.612 2.901 2.928 7.26 0.656 10.428z"></path>
<path fill="#d82122" d="M31.163 16.353c-1.19-3.195-2.879-5.916-6.599-8.369-3.589-2.376-7.446-2.191-7.658-2.163-0.027 0-0.054 0-0.054 0 0.131-0.054 0.263-0.081 0.394-0.104 0.819-0.263 1.874-0.475 2.933-0.607 2.802-0.403 5.626 0.548 7.554 2.584 0.027 0.027 0.027 0.027 0.054 0.054 2.191 2.322 3.327 5.223 3.377 8.604z"></path>
<path fill="#d82122" d="M23.717 3.281c-3.933-0.738-6.468-0.371-8.292 0.317-0.054-0.213-0.24-0.634-0.398-0.978-0.548 0.661-1.132 1.453-1.498 1.955-1.005 0.688-1.426 1.349-1.426 1.349 0.579-1.982 2.272-3.458 4.332-3.829 0.579-0.104 1.213-0.158 1.901-0.158 1.82 0.027 3.639 0.475 5.382 1.344z"></path>
<path fill="#d82122" d="M9.17 8.351c-3.087-0.104-2.059-3.698-2.005-3.906 0 0.027 0.208 2.824 2.005 3.906z"></path>
<path fill="#d82122" d="M12.207 1.883c-2.376 1.426-1.901 4.829-1.901 4.829-2.272-3.453 1.715-4.748 1.901-4.829z"></path>
<path fill="#fff" d="M8.301 9.301c0.158 0.131 0.317 0.371 0.131 0.715-0.104 0.186-0.263 0.158-0.502 0.054-0.317-0.158-2.218-1.267-3.933-2.403 1.955 0.688 3.933 1.426 4.25 1.584 0 0 0.027 0.027 0.054 0.050z"></path>
</svg>
