<!-- Generated by IcoMoon.io -->
<svg version="1.1" xmlns="http://www.w3.org/2000/svg" viewBox="0 0 32 32">
<title>network-2key</title>
<path fill="#000" d="M32.005 16.003c0 8.838-7.165 16.003-16.003 16.003s-16.003-7.165-16.003-16.003c0-8.838 7.165-16.003 16.003-16.003s16.003 7.165 16.003 16.003z"></path>
<path fill="#fff" d="M27.142 15.792c-0.184 0-0.335 0.151-0.335 0.335 0 0.249-0.005 0.482-0.022 0.703-0.049 0.465-0.2 0.876-0.406 1.087-0.184 0.206-0.503 0.222-0.709 0.032-0.016-0.016-0.038-0.032-0.049-0.054-0.319-0.357-0.417-1.147-0.346-1.737 0.016-0.184-0.124-0.346-0.308-0.357-0.173-0.016-0.33 0.108-0.357 0.281-0.032 0.308-0.032 0.617 0 0.92 0 0.027-0.005 0.054-0.011 0.081-0.146 1.163-0.644 1.407-1.033 1.407-0.124-0.005-0.249-0.027-0.362-0.070l0.022-0.022c0.373-0.422 0.601-0.974 0.601-1.466 0-0.319-0.092-0.595-0.27-0.795-0.141-0.162-0.395-0.352-0.839-0.352-0.368 0-0.703 0.189-0.893 0.503-0.298 0.465-0.325 1.152-0.070 1.715 0.070 0.146 0.157 0.287 0.265 0.406-0.141 0.049-0.287 0.076-0.438 0.081-0.471 0-1.147-0.573-1.536-0.99 0.427-0.341 0.806-0.736 1.12-1.185 0.108-0.151 0.070-0.357-0.081-0.465s-0.357-0.070-0.465 0.081v0c-0.314 0.454-0.709 0.849-1.158 1.174v-0.979c-0.005-0.184-0.162-0.33-0.346-0.319-0.173 0.005-0.314 0.146-0.319 0.319l-0.005 1.958c-0.005-0.005 0.032 0.936 0.081 0.979v0h0.005c0.049 0.049 0.114 0.076 0.179 0.087 0.022 0.005 0.049 0.005 0.070 0.005 0.184 0 0.335-0.151 0.335-0.335v0-0.985c0.368 0.411 1.271 1.32 2.121 1.32 0.362 0 0.725-0.092 1.039-0.27 0.292 0.168 0.617 0.26 0.952 0.27 0.638 0 1.131-0.352 1.428-0.985 0.038 0.059 0.081 0.114 0.13 0.168 0.222 0.26 0.546 0.406 0.887 0.406 0.059 0 0.206-0.022 0.27-0.087-0.054 0.054-0.087 0.227-0.119 0.303-0.049 0.103-0.097 0.206-0.146 0.308-0.103 0.206-0.216 0.4-0.346 0.59-0.254 0.384-0.557 0.741-0.898 1.050-0.752 0.676-1.655 1.055-2.64 1.233-0.514 0.092-1.039 0.119-1.558 0.087-0.536-0.032-1.066-0.108-1.591-0.222-1.060-0.222-2.11-0.579-3.149-0.985-0.601-0.233-1.201-0.487-1.802-0.747 0.314-0.292 0.622-0.595 0.914-0.909 0.417-0.449 0.812-0.914 1.174-1.407 0.373-0.498 0.709-1.023 1.006-1.569 0.308-0.563 0.563-1.152 0.757-1.758 0.206-0.638 0.325-1.298 0.357-1.969 0.011-0.346-0.005-0.698-0.049-1.044-0.049-0.352-0.124-0.692-0.238-1.028-0.216-0.66-0.536-1.282-0.952-1.839-0.433-0.584-0.985-1.071-1.618-1.428-0.638-0.357-1.342-0.573-2.072-0.633-0.179-0.016-0.352-0.027-0.525-0.027-0.087 0-0.173 0-0.26 0.005l-0.13 0.005c-0.043 0-0.087 0.005-0.135 0.011-0.357 0.027-0.714 0.092-1.060 0.189-0.682 0.2-1.32 0.519-1.888 0.952-0.536 0.411-1.012 0.887-1.417 1.428-0.2 0.26-0.379 0.53-0.546 0.812-0.087 0.141-0.162 0.281-0.238 0.427-0.038 0.070-0.076 0.146-0.114 0.222l-0.081 0.179-0.032 0.076c-0.238 0.563 0.032 1.212 0.595 1.45 0.546 0.227 1.174-0.011 1.428-0.546l0.092-0.184c0.027-0.054 0.054-0.103 0.081-0.157 0.054-0.108 0.119-0.211 0.184-0.314 0.13-0.206 0.265-0.411 0.417-0.601 0.287-0.373 0.617-0.709 0.99-0.995 0.346-0.265 0.736-0.46 1.152-0.584 0.2-0.059 0.411-0.092 0.617-0.108 0.027 0 0.054-0.005 0.081-0.005l0.087-0.005c0.054 0 0.114-0.005 0.168 0 0.114 0 0.222 0.005 0.33 0.016 0.417 0.032 0.817 0.151 1.179 0.352 0.362 0.206 0.682 0.482 0.931 0.812 0.271 0.362 0.476 0.763 0.617 1.19 0.070 0.206 0.119 0.422 0.151 0.638 0.032 0.222 0.043 0.444 0.038 0.665-0.016 0.471-0.097 0.941-0.238 1.39-0.151 0.482-0.341 0.941-0.579 1.385-0.498 0.925-1.109 1.785-1.818 2.564-0.454 0.509-0.947 0.985-1.466 1.423-0.265-0.114-0.536-0.227-0.812-0.335-0.563-0.233-1.136-0.427-1.72-0.59-0.325-0.087-0.649-0.146-0.985-0.184-0.189-0.016-0.373-0.022-0.563-0.016-0.216 0.011-0.427 0.049-0.638 0.108-0.238 0.070-0.465 0.184-0.665 0.335-0.206 0.157-0.379 0.346-0.514 0.563-0.119 0.189-0.211 0.4-0.276 0.617-0.054 0.189-0.097 0.379-0.119 0.579-0.022 0.179-0.032 0.352-0.038 0.53-0.005 0.195 0.011 0.39 0.038 0.584 0.032 0.227 0.097 0.444 0.189 0.655 0.103 0.243 0.254 0.465 0.444 0.649 0.195 0.189 0.422 0.335 0.671 0.438 0.216 0.087 0.449 0.146 0.682 0.168 0.384 0.032 0.774 0.011 1.152-0.076 0.692-0.146 1.288-0.395 1.85-0.676 0.552-0.281 1.082-0.601 1.591-0.952 0.135-0.092 0.271-0.189 0.406-0.292 0.882 0.352 1.774 0.703 2.694 1.017 1.104 0.379 2.24 0.709 3.424 0.903 0.601 0.103 1.206 0.157 1.812 0.162 0.622 0.005 1.239-0.059 1.845-0.2 1.239-0.281 2.353-0.952 3.186-1.91 0.4-0.46 0.741-0.968 1.023-1.509 0.243-0.471 0.465-0.952 0.611-1.477 0.141-0.509 0.195-1.066 0.249-1.591 0.016-0.135 0.022-0.276 0.022-0.411 0.005-0.108 0.005-0.216 0.005-0.33-0.016-0.168-0.162-0.319-0.352-0.325 0 0 0 0 0 0zM22.603 18.075c-0.103-0.097-0.189-0.211-0.249-0.341-0.162-0.352-0.151-0.806 0.027-1.077 0.065-0.119 0.195-0.195 0.33-0.195 0.151 0 0.265 0.043 0.335 0.119 0.087 0.103 0.103 0.249 0.103 0.357 0 0.476-0.233 0.866-0.546 1.136v0zM8.353 21.488c-0.146 0.027-0.298 0.043-0.449 0.043-0.433 0-0.584-0.487-0.541-0.779 0.027-0.216 0.124-0.422 0.271-0.584 0.2-0.2 0.492-0.157 0.741-0.124 0.362 0.054 0.725 0.141 1.071 0.26 0.168 0.054 0.757 0.254 0.828 0.287-0.595 0.379-1.217 0.774-1.921 0.898z"></path>
</svg>
