<!-- Generated by IcoMoon.io -->
<svg version="1.1" xmlns="http://www.w3.org/2000/svg" viewBox="0 0 32 32">
<title>aave</title>
<path fill="#000" d="M31.52 16c0 8.571-6.949 15.52-15.52 15.52s-15.52-6.949-15.52-15.52c0-8.571 6.949-15.52 15.52-15.52s15.52 6.949 15.52 15.52z"></path>
<path fill="#fff" d="M22.792 22.184l-5.248-12.688c-0.296-0.656-0.736-0.976-1.316-0.976h-0.464c-0.58 0-1.020 0.32-1.316 0.976l-2.284 5.528h-1.728c-0.516 0.004-0.936 0.42-0.94 0.94v0.012c0.004 0.516 0.424 0.936 0.94 0.94h0.928l-2.18 5.268c-0.040 0.116-0.064 0.236-0.064 0.36 0 0.296 0.092 0.528 0.256 0.708s0.4 0.268 0.696 0.268c0.196-0.004 0.384-0.064 0.54-0.18 0.168-0.116 0.284-0.284 0.376-0.476l2.4-5.952h1.664c0.516-0.004 0.936-0.42 0.94-0.94v-0.024c-0.004-0.516-0.424-0.936-0.94-0.94h-0.888l1.832-4.564 4.992 12.416c0.092 0.192 0.208 0.36 0.376 0.476 0.156 0.116 0.348 0.176 0.54 0.18 0.296 0 0.528-0.088 0.696-0.268s0.256-0.412 0.256-0.708c0.004-0.12-0.016-0.244-0.064-0.356z"></path>
</svg>
