<!-- Generated by IcoMoon.io -->
<svg version="1.1" xmlns="http://www.w3.org/2000/svg" viewBox="0 0 32 32">
<title>abbc</title>
<path fill="#fe9b00" d="M32 16.003c0.011 8.755-7.084 15.997-15.997 15.997s-16.008-7.248-16.003-16.008 7.090-15.992 16.008-15.992 16.008 7.254 15.992 16.003z"></path>
<path fill="#191c31" d="M28.299 17.989c-0.027-0.055-0.005-0.098-0.005-0.142 0.093-0.95-0.513-1.79-1.43-1.987-0.6-0.126-1.135 0.044-1.594 0.437-0.557 0.475-1.086 0.982-1.61 1.495q-0.958 0.942-1.878 1.916c-0.431 0.458-0.933 0.813-1.534 1.021-1.692 0.579-3.542-0.327-4.186-1.899-0.076-0.191-0.071-0.229 0.082-0.36 0.355-0.311 0.715-0.617 1.070-0.928 0.011-0.011 0.022-0.016 0.033-0.027 0.044-0.027 0.076-0.093 0.131-0.066s0.022 0.087 0.027 0.131c0.046 0.875 0.707 1.583 1.557 1.702l0.010 0.001c0.868 0.12 1.736-0.409 1.998-1.239 0.311-0.982-0.207-1.959-1.212-2.281-0.611-0.197-1.168-0.066-1.654 0.338-0.398 0.327-0.78 0.671-1.168 1.015-0.257 0.229-0.513 0.464-0.775 0.688-0.097 0.084-0.166 0.199-0.19 0.329l-0.001 0.004c-0.207 1.053-0.797 1.839-1.73 2.358-0.451 0.256-0.991 0.407-1.566 0.407-0.125 0-0.248-0.007-0.37-0.021l0.015 0.001c-0.755-0.066-1.428-0.374-1.952-0.843l0.003 0.003c-0.376-0.331-0.673-0.741-0.865-1.206l-0.008-0.022c-0.010-0.020-0.020-0.044-0.027-0.068l-0.001-0.003c-0.012-0.024-0.019-0.052-0.019-0.082 0-0.063 0.031-0.119 0.078-0.153l0.001-0c0.126-0.104 0.246-0.207 0.371-0.311 0.257-0.224 0.513-0.448 0.775-0.666 0.044-0.038 0.087-0.104 0.142-0.082s0.033 0.098 0.038 0.153c0.027 0.858 0.633 1.567 1.439 1.75l0.012 0.002c0.114 0.025 0.246 0.040 0.38 0.040 0.835 0 1.539-0.561 1.756-1.326l0.003-0.013c0.327-1.206-0.628-2.396-1.872-2.336-0.396 0.012-0.755 0.161-1.034 0.4l0.002-0.002c-0.355 0.295-0.704 0.6-1.048 0.906-0.355 0.311-0.704 0.628-1.059 0.939-0.090 0.074-0.148 0.186-0.148 0.311 0 0.004 0 0.008 0 0.012v-0.001 2.369c0 0.224-0.033 0.257-0.257 0.251-0.442-0-0.838-0.196-1.106-0.506l-0.002-0.002c-0.109-0.126-0.131-0.126-0.278-0.044-0.54 0.3-1.113 0.464-1.73 0.442-1.266-0.044-2.232-0.617-2.887-1.703-0.288-0.471-0.459-1.041-0.459-1.651 0-0.016 0-0.033 0-0.049l-0 0.002c0.001-0.819 0.296-1.569 0.785-2.15l-0.004 0.005c0.513-0.628 1.168-1.037 1.97-1.168 1.070-0.169 2.052 0.027 2.876 0.775 0.258 0.236 0.482 0.503 0.667 0.797l0.009 0.016c0.028 0.061 0.073 0.11 0.129 0.141l0.002 0.001c0.076-0.049 0.126-0.134 0.126-0.23 0-0.004-0-0.007-0-0.011l0 0.001c-0.005-0.54 0-1.081 0-1.626q0-1.842-0.005-3.679c0-0.24 0.027-0.267 0.273-0.267 0.755 0.001 1.378 0.57 1.462 1.303l0.001 0.007c0.010 0.079 0.016 0.17 0.016 0.262v2.865c0.005 0.131 0.033 0.147 0.153 0.087 0.325-0.176 0.704-0.304 1.106-0.363l0.019-0.002c0.977-0.136 1.85 0.109 2.625 0.72 0.259 0.209 0.481 0.45 0.664 0.72l0.007 0.012c0.012 0.021 0.024 0.039 0.039 0.055l-0-0c0.038 0.055 0.071 0.115 0.142 0.126 0.038 0.005 0.147-0.136 0.153-0.197 0.007-0.055 0.011-0.12 0.011-0.185 0-0.014-0-0.027-0.001-0.041l0 0.002v-3.837c0-0.791 0.491-1.386 1.272-1.534 0.072-0.018 0.154-0.028 0.238-0.028 0.008 0 0.017 0 0.025 0l-0.001-0c0.115 0.005 0.164 0.049 0.191 0.158 0.014 0.066 0.023 0.141 0.023 0.219 0 0.015-0 0.030-0.001 0.046l0-0.002v4.033c0.011 0.071 0.033 0.093 0.104 0.066 0.093-0.038 0.186-0.082 0.278-0.12 1.31-0.524 2.778-0.207 3.728 0.808 0.309 0.332 0.557 0.726 0.723 1.16l0.008 0.025 0.033 0.098c0.055 0.142 0.071 0.147 0.186 0.044l1.539-1.359c0.416-0.381 0.93-0.662 1.499-0.803l0.024-0.005c0.233-0.057 0.501-0.090 0.777-0.090 1.432 0 2.658 0.884 3.161 2.135l0.008 0.023c0.021 0.041 0.033 0.089 0.033 0.14 0 0.095-0.042 0.18-0.109 0.236l-0 0c-0.377 0.371-0.742 0.748-1.119 1.124-0.032 0.034-0.070 0.062-0.112 0.081l-0.002 0.001z"></path>
<path fill="#191c31" d="M26.82 19.469c-0.003 0.043-0.026 0.081-0.060 0.103l-0 0c-0.398 0.398-0.797 0.797-1.19 1.201-0.042 0.049-0.104 0.080-0.174 0.080-0.034 0-0.066-0.007-0.095-0.021l0.001 0.001q-1.408-0.524-1.992-1.905c-0.060-0.136-0.049-0.18 0.060-0.273 0.387-0.338 0.78-0.677 1.168-1.010 0.024-0.027 0.056-0.046 0.092-0.054l0.001-0c0.038 0.038 0.027 0.087 0.033 0.131 0.021 0.273 0.090 0.525 0.197 0.756l-0.006-0.014c0.257 0.535 0.693 0.841 1.255 0.977 0.091 0.022 0.196 0.034 0.303 0.034 0.022 0 0.044-0 0.065-0.002l-0.003 0c0.109-0.011 0.224-0.005 0.344-0.005z"></path>
<path fill="#ff9c00" d="M7.799 17.438c0.027 0.972-0.802 1.817-1.812 1.828-0.003 0-0.006 0-0.009 0-1.001 0-1.814-0.807-1.825-1.806v-0.001c-0.016-0.993 0.764-1.845 1.834-1.867 0.988-0.022 1.817 0.786 1.812 1.845z"></path>
</svg>
