<!-- Generated by IcoMoon.io -->
<svg version="1.1" xmlns="http://www.w3.org/2000/svg" viewBox="0 0 32 32">
<title>ada</title>
<path fill="#0033ad" d="M8.772 15.872c-0.068 1.186 0.845 2.202 2.031 2.27 0.043 0 0.085 0 0.128 0 1.195 0 2.159-0.964 2.15-2.159 0-1.195-0.964-2.159-2.159-2.15-1.143 0-2.091 0.896-2.15 2.039z"></path>
<path fill="#0033ad" d="M0.734 15.317c-0.384-0.026-0.717 0.273-0.734 0.657s0.273 0.717 0.657 0.734c0.384 0.026 0.708-0.273 0.734-0.657s-0.273-0.708-0.657-0.734c0 0 0 0 0 0z"></path>
<path fill="#0033ad" d="M8.636 3.362c0.341-0.171 0.478-0.597 0.307-0.939s-0.597-0.478-0.939-0.307c-0.341 0.171-0.478 0.589-0.307 0.93 0.171 0.35 0.589 0.495 0.939 0.316-0.009 0 0 0 0 0z"></path>
<path fill="#0033ad" d="M10.82 7.177c0.529-0.265 0.742-0.913 0.478-1.442s-0.913-0.742-1.442-0.478c-0.529 0.265-0.742 0.913-0.478 1.442s0.913 0.742 1.442 0.478z"></path>
<path fill="#0033ad" d="M3.465 9.796c0.41 0.265 0.956 0.154 1.229-0.256 0.265-0.41 0.154-0.956-0.256-1.229-0.41-0.265-0.956-0.154-1.229 0.256 0 0 0 0 0 0-0.273 0.41-0.154 0.964 0.256 1.229z"></path>
<path fill="#0033ad" d="M4.77 14.933c-0.597-0.034-1.101 0.418-1.135 1.015s0.418 1.101 1.015 1.135c0.597 0.034 1.101-0.418 1.135-1.015 0 0 0 0 0 0 0.034-0.589-0.418-1.101-1.015-1.135z"></path>
<path fill="#0033ad" d="M3.584 22.161c-0.435 0.222-0.614 0.751-0.393 1.195 0.222 0.435 0.751 0.614 1.195 0.393 0.435-0.222 0.614-0.751 0.393-1.195 0 0 0 0 0 0-0.222-0.435-0.759-0.614-1.195-0.393 0 0 0 0 0 0z"></path>
<path fill="#0033ad" d="M7.765 12.706c0.589 0.384 1.374 0.222 1.749-0.367 0.384-0.589 0.222-1.374-0.367-1.749-0.589-0.384-1.374-0.222-1.749 0.367-0.384 0.58-0.222 1.365 0.367 1.749 0 0 0 0 0 0z"></path>
<path fill="#0033ad" d="M21.035 7.091c0.495 0.324 1.169 0.188 1.493-0.307s0.188-1.169-0.307-1.493c-0.495-0.324-1.169-0.188-1.493 0.307 0 0 0 0 0 0-0.333 0.503-0.196 1.169 0.307 1.493 0 0 0 0 0 0z"></path>
<path fill="#0033ad" d="M23.236 3.294c0.324 0.213 0.751 0.119 0.964-0.205s0.119-0.751-0.205-0.964c-0.324-0.213-0.751-0.119-0.964 0.196-0.205 0.324-0.111 0.759 0.205 0.973 0 0 0 0 0 0z"></path>
<path fill="#0033ad" d="M21.197 13.815c-1.186-0.068-2.21 0.845-2.27 2.031-0.068 1.186 0.845 2.21 2.031 2.27 0.043 0 0.085 0 0.119 0 1.186 0 2.15-0.964 2.15-2.159 0.009-1.135-0.887-2.082-2.031-2.142v0z"></path>
<path fill="#0033ad" d="M11.529 12.553c0.367 0.725 1.109 1.186 1.929 1.186 1.186 0 2.15-0.964 2.15-2.159 0-0.333-0.077-0.666-0.23-0.973-0.538-1.067-1.835-1.493-2.893-0.956-1.067 0.546-1.493 1.843-0.956 2.901v0z"></path>
<path fill="#0033ad" d="M28.416 9.796c0.435-0.222 0.606-0.759 0.384-1.195s-0.759-0.606-1.195-0.384c-0.435 0.222-0.606 0.751-0.393 1.186 0.23 0.435 0.759 0.614 1.203 0.393 0 0 0 0 0 0z"></path>
<path fill="#0033ad" d="M22.955 10.479c-0.623 0.316-0.879 1.075-0.563 1.698s1.075 0.879 1.698 0.563c0.623-0.316 0.879-1.075 0.563-1.698s-1.075-0.87-1.698-0.563z"></path>
<path fill="#0033ad" d="M15.915 2.97c0.486 0.026 0.905-0.35 0.939-0.836s-0.35-0.905-0.836-0.939c-0.486-0.026-0.905 0.341-0.939 0.828-0.026 0.495 0.35 0.913 0.836 0.947 0 0 0 0 0 0z"></path>
<path fill="#0033ad" d="M15.906 8.542c0.7 0.043 1.297-0.495 1.331-1.195 0.043-0.7-0.495-1.297-1.195-1.331-0.7-0.043-1.297 0.495-1.331 1.195s0.495 1.297 1.195 1.331c0 0 0 0 0 0z"></path>
<path fill="#0033ad" d="M9.045 21.478c0.623-0.316 0.879-1.075 0.563-1.698s-1.075-0.879-1.698-0.563c-0.623 0.316-0.879 1.075-0.563 1.698s1.075 0.879 1.698 0.563z"></path>
<path fill="#0033ad" d="M16.725 10.394c-0.649 0.998-0.375 2.33 0.623 2.978s2.33 0.375 2.978-0.623c0.649-0.998 0.375-2.33-0.623-2.978-0.35-0.23-0.759-0.35-1.178-0.35-0.725 0-1.399 0.367-1.801 0.973z"></path>
<path fill="#0033ad" d="M20.471 19.405c-0.538-1.067-1.835-1.493-2.893-0.956-1.067 0.538-1.493 1.835-0.956 2.893 0.538 1.067 1.835 1.493 2.893 0.956 0 0 0 0 0 0 1.058-0.529 1.493-1.809 0.964-2.876 0-0.009 0-0.009-0.009-0.017z"></path>
<path fill="#0033ad" d="M24.235 19.251c-0.589-0.384-1.374-0.222-1.749 0.367-0.384 0.589-0.222 1.374 0.367 1.749 0.589 0.384 1.374 0.222 1.749-0.367 0.384-0.58 0.222-1.365-0.367-1.749 0 0 0 0 0 0z"></path>
<path fill="#0033ad" d="M28.365 16.017c0.034-0.597-0.418-1.101-1.015-1.135s-1.101 0.418-1.135 1.015c-0.034 0.597 0.418 1.101 1.015 1.135 0 0 0 0 0 0 0.589 0.034 1.101-0.427 1.135-1.015z"></path>
<path fill="#0033ad" d="M31.343 15.249c-0.384-0.026-0.717 0.273-0.734 0.657s0.273 0.717 0.657 0.734c0.384 0.026 0.708-0.273 0.734-0.657 0.017-0.384-0.273-0.708-0.657-0.734z"></path>
<path fill="#0033ad" d="M28.535 22.161c-0.41-0.265-0.956-0.154-1.229 0.256-0.265 0.41-0.154 0.956 0.256 1.229 0.41 0.265 0.956 0.154 1.229-0.256s0.154-0.964-0.256-1.229c0 0 0 0 0 0z"></path>
<path fill="#0033ad" d="M8.755 28.663c-0.324-0.213-0.751-0.119-0.964 0.196-0.213 0.324-0.119 0.751 0.196 0.964 0.324 0.213 0.751 0.119 0.964-0.196 0 0 0 0 0 0 0.222-0.316 0.128-0.751-0.196-0.964z"></path>
<path fill="#0033ad" d="M23.364 28.595c-0.341 0.171-0.478 0.597-0.307 0.939s0.597 0.478 0.939 0.307c0.341-0.171 0.478-0.589 0.307-0.93-0.171-0.35-0.589-0.495-0.939-0.316 0.009 0 0 0 0 0z"></path>
<path fill="#0033ad" d="M15.275 21.564c0.649-0.998 0.375-2.33-0.623-2.987-0.998-0.649-2.33-0.375-2.987 0.623s-0.375 2.33 0.623 2.987c0.35 0.23 0.759 0.35 1.178 0.35 0.734 0.009 1.408-0.358 1.809-0.973z"></path>
<path fill="#0033ad" d="M10.965 24.866c-0.495-0.324-1.169-0.188-1.493 0.307s-0.188 1.169 0.307 1.493 1.169 0.188 1.493-0.307c0 0 0 0 0 0 0.333-0.495 0.196-1.169-0.307-1.493z"></path>
<path fill="#0033ad" d="M15.991 28.988c-0.486-0.026-0.905 0.35-0.939 0.836s0.35 0.905 0.836 0.939c0.486 0.026 0.905-0.341 0.939-0.828 0.026-0.495-0.35-0.913-0.836-0.947 0 0 0 0 0 0z"></path>
<path fill="#0033ad" d="M16 23.415c-0.7-0.043-1.297 0.495-1.331 1.195-0.043 0.7 0.495 1.297 1.195 1.331s1.297-0.495 1.331-1.195c0.043-0.691-0.495-1.297-1.195-1.331 0 0 0 0 0 0z"></path>
<path fill="#0033ad" d="M21.18 24.781c-0.529 0.273-0.742 0.922-0.469 1.451s0.922 0.742 1.451 0.469c0.529-0.265 0.742-0.913 0.478-1.442-0.273-0.529-0.922-0.751-1.459-0.478 0 0 0 0 0 0z"></path>
</svg>
