<!-- Generated by IcoMoon.io -->
<svg version="1.1" xmlns="http://www.w3.org/2000/svg" viewBox="0 0 32 32">
<title>adk</title>
<path fill="#000" d="M17.562 6.575s0.033-0.12 0.131-0.12 0.36-0.055 0.437 0 0.044 0.218-0.044 0.218-0.568-0.022-0.524-0.098zM20.248 6.236c0.25 0.128 0.544 0.244 0.85 0.33l0.035 0.008c0.010 0.002 0.022 0.003 0.034 0.003 0.055 0 0.105-0.022 0.141-0.058l-0 0c0.087-0.098 0.207-0.284 0.087-0.339-0.175-0.087-0.459-0.284-0.907-0.164s-0.306 0.197-0.24 0.218zM6.203 13.139s-0.262 0.011-0.218-0.295 0.393-0.677 0.601-0.819 0.317-0.251 0.317-0.47 0.317-0.393 0.393-0.502 0.36-0.251 0.317-0.066-0.153 0.262-0.153 0.502 0.044 0.404 0.164 0.153 0.863-1.42 1.616-2.031 1.758-1.289 1.889-1.311 0.207 0.066 0.207 0.207-0.36 0.284-0.535 0.437-2.315 1.846-2.927 3.145c-0.13 0.179-0.27 0.336-0.424 0.479l-0.002 0.002c-0.207 0.175-0.24 0.426-0.524 0.71s-0.273 0.579-0.415 0.623-0.328-0.131-0.218-0.502 0.448-0.601 0.688-0.874 0.328-0.513 0.262-0.513-0.415 0.076-0.513 0.35-0.098 0.393-0.218 0.502c-0.142 0.131-0.229 0.284-0.306 0.273zM11.489 8.137c-0.052 0.025-0.089 0.073-0.098 0.13l-0 0.001c-0 0.005-0.001 0.010-0.001 0.016 0 0.030 0.008 0.059 0.023 0.083l-0-0.001c0.066 0.087 0.218 0.022 0.328-0.076 0.208-0.152 0.451-0.311 0.701-0.458l0.042-0.023s-0.71 0.175-0.994 0.328z"></path>
<path fill="#000" d="M6.881 14.395s-0.098 0.153-0.24 0 0.044-0.47 0.284-0.688 0.928-1.311 1.114-1.616c0.488-0.692 1.038-1.291 1.657-1.812l0.014-0.012c0.721-0.579 2.010-1.616 2.665-1.988s1.551-0.863 2.501-1.048 2.905-0.033 5.297 1.453c0.015 0.034 0.024 0.073 0.024 0.114 0 0.114-0.067 0.212-0.164 0.256l-0.002 0.001s-2.446-1.529-4.565-1.453-3.844 1.485-5.384 2.84-1.365 1.507-1.562 1.747-0.819 1.103-0.928 1.256-0.459 0.764-0.71 0.95zM20.784 7.438c-2.621-1.016-4.303-0.764-4.795-0.655-0.033 0.009-0.056 0.038-0.056 0.073 0 0.031 0.018 0.057 0.045 0.069l0 0c0.125 0.039 0.27 0.067 0.42 0.076l0.006 0c0.568 0.055 1.081 0.175 1.453 0.164s1.322 0.098 1.889 0.317 0.808 0.306 0.808 0.306c0.091-0.002 0.168-0.054 0.207-0.13l0.001-0.001c0.109-0.142 0.022-0.218 0.022-0.218z"></path>
<path fill="#000" d="M20.511 8.016s0.098 0.35-0.229 0.371-1.66-0.786-2.173-0.841-0.164-0.382 0.502-0.197 1.9 0.666 1.9 0.666zM18.719 6.356c-0.029 0.011-0.050 0.038-0.050 0.071s0.021 0.060 0.050 0.071l0.001 0c0.167 0.077 0.361 0.138 0.565 0.173l0.014 0.002c0.306 0.022 1.136 0.284 1.529 0.491 0.251 0.131 0.382-0.328 0.218-0.382-0.295-0.109-1.038-0.393-1.267-0.448-0.207-0.055-0.754-0.087-1.059 0.022zM14.187 8.399c3.528-0.481 5.362 1.245 5.592 1.201s0.164-0.295 0.164-0.295c-0.885-0.743-3.047-1.616-5.057-1.365s-3.091 1.573-3.495 1.813-0.732 0.754-1.048 1.059-0.775 0.404-0.906 0.513-1.977 2.84-2.217 3.134-0.306 0.568-0.098 0.677 0.339-0.24 0.339-0.24 0.972-1.595 1.19-1.846 0.928-1.354 1.070-1.529 0.306-0.142 0.251 0-1.18 1.769-1.387 2.020-1.114 1.496-1.169 1.944 0.273 0.524 0.524-0.066 0.633-1.42 0.786-1.584 0.71-0.786 0.852-1.070 0.764-1.42 1.256-1.966c0.489-0.517 1.022-0.983 1.594-1.397l0.033-0.023c0.264-0.188 0.565-0.366 0.88-0.519l0.037-0.016c0.164-0.076 0.448-0.404 0.808-0.448z"></path>
<path fill="#000" d="M10.31 11.948s0.852-1.289 1.758-1.911 1.431-1.059 1.715-1.169 1.256-0.612 3.462-0.109 2.468 1.223 2.37 1.365-0.448-0.076-0.95-0.35-1.453-0.699-2.217-0.677-2.272 0.546-2.37 0.633-0.109-0.175 0.153-0.229 0.426-0.262 0.59-0.284 0.404-0.076 0.404-0.207-0.546-0.109-0.819 0-1.332 0.71-1.529 0.819-0.459 0.186-0.502 0.35-0.371 0.546-0.535 0.633-0.983 0.732-1.070 0.885c-0.067 0.152-0.217 0.257-0.391 0.257-0.024 0-0.047-0.002-0.070-0.006l0.002 0z"></path>
<path fill="#000" d="M12.003 10.932s0.109 0.164 0.568-0.186 0.513-0.426 0.557-0.426-0.076-0.175-0.164-0.098-0.95 0.557-0.961 0.71zM13.27 10.648s-0.131-0.033 0.12-0.218 1.9-1.169 3.091-1.103 2.567 0.764 2.807 0.972 0.066 0.623 0 0.601-1.551-1.147-2.577-1.18-2.064 0.36-2.49 0.633-0.579 0.371-0.95 0.295z"></path>
<path fill="#000" d="M14.602 10.583c-0.029-0.008-0.050-0.034-0.050-0.065 0-0.022 0.011-0.042 0.028-0.055l0-0c0.494-0.337 1.104-0.538 1.761-0.538 0.231 0 0.457 0.025 0.674 0.072l-0.021-0.004c1.474 0.317 2.086 1.016 2.119 1.18s-0.022 0.546-0.24 0.47-0.928-1.158-2.075-1.256c-1.103-0.098-1.354 0.393-2.195 0.197z"></path>
<path fill="#000" d="M16.12 10.845l-0.131-0.044c-0.022-0.011-0.011-0.033 0-0.033 0.186-0.044 0.808-0.164 1.376 0.044 0.419 0.176 0.775 0.423 1.069 0.731l0.001 0.001c0.006 0.006 0.010 0.014 0.010 0.023 0 0.018-0.015 0.033-0.033 0.033-0.003 0-0.007-0.001-0.010-0.002l0 0-2.283-0.754zM8.169 16.415s-0.066 0.207-0.251 0.055-0.066-0.393 0-0.568 0.568-1.201 0.688-1.322 0.568-0.655 0.568-0.775 0.12 0.339-0.339 1.038c-0.437 0.699-0.262 0.885-0.666 1.573zM8.562 17.103s-0.066 0.142-0.186 0-0.011-0.481 0.131-0.819 0.339-1.103 0.437-1.256 0.109 0.186 0.109 0.284 0.033 0.633-0.153 1.092c-0.097 0.268-0.212 0.499-0.348 0.714l0.009-0.015zM9.13 17.769s-0.131 0.218-0.295-0.044c-0.053-0.084-0.085-0.186-0.085-0.295s0.032-0.211 0.087-0.297l-0.001 0.002c0.055-0.098 0.131-0.415 0.175-0.47s0.098 0.076 0.12 0.24 0.12 0.349 0.12 0.426-0.022 0.328-0.12 0.437zM9.447 18.031c-0.022-0.067-0.051-0.125-0.089-0.177l0.001 0.002c-0.033-0.022-0.142 0.12-0.153 0.229s0.109 0.153 0.12 0.251 0.098-0.022 0.12-0.131c0.006-0.026 0.010-0.056 0.010-0.087s-0.004-0.061-0.010-0.090l0.001 0.003zM9.786 14.755c0.117-0.643 0.386-1.209 0.77-1.678l-0.005 0.007c0.633-0.743 0.928-0.863 0.928-0.863s0.087-0.022 0.044 0.153-0.371 0.579-0.426 0.699-0.448 0.513-0.448 0.579 0.175 0.011 0.197 0.044 0.098 0.076 0 0.306-0.481 1.038-0.491 1.212-0.579 1.485-0.633 1.485-0.175-0.011-0.164-0.415 0.612-1.922 0.775-2.173 0.175-0.251 0.109-0.24-0.47 0.448-0.524 0.754-0.131 0.131-0.131 0.131zM11.315 14.657s-0.153 0.36-0.47 0.339 0.164-0.819 0.24-1.158 0.666-1.638 0.786-1.747 0.448-0.24 0.502-0.131-0.175 0.262-0.295 0.502-0.491 0.917-0.524 1.158-0.24 1.038-0.24 1.038z"></path>
<path fill="#000" d="M11.009 15.421c0.009-0.022 0.014-0.048 0.014-0.075 0-0.092-0.060-0.171-0.144-0.197l-0.001-0c-0.207-0.087-0.218-0.022-0.317 0.142s-0.732 1.693-0.732 1.922 0.066 0.655 0.142 0.721 0.153-0.055 0.153-0.218c0.028-0.211 0.114-0.397 0.242-0.548l-0.001 0.002c0.093-0.128 0.149-0.289 0.149-0.463 0-0.060-0.007-0.119-0.019-0.175l0.001 0.005c-0.044-0.262 0.371-0.688 0.371-0.688 0 0.015 0 0.032 0 0.050 0 0.306-0.016 0.607-0.047 0.905l0.003-0.037c-0.044 0.273-0.328 0.491-0.393 0.612s-0.098 0.59-0.153 0.732c-0.032 0.1-0.051 0.215-0.051 0.334 0 0.071 0.007 0.141 0.019 0.208l-0.001-0.007c0.033 0.142 0.12 0.491 0.175 0.24s0.251-0.994 0.306-0.983 0.044 0.819 0.011 0.983-0.076 0.961-0.076 1.059-0.295 0.546-0.35 0.71-0.382 0.764-0.382 0.797 0.328 0 0.535-0.164c0.154-0.134 0.253-0.328 0.262-0.545l0-0.002c0-0.131-0.022-0.448 0.055-0.633s0.273-0.623 0.306-0.797c0.013-0.201 0.021-0.435 0.021-0.672s-0.007-0.471-0.022-0.703l0.002 0.032c-0.022-0.251 0.033-1.311 0.109-1.529s0.087-0.328 0.142-0.328 0.022 0.666 0 0.874-0.076 0.885-0.076 0.983c-0.019 0.157-0.029 0.339-0.029 0.523 0 0.697 0.152 1.358 0.423 1.953l-0.012-0.029s0.055 0.24 0.317 0.076-0.12-0.896-0.186-1.103-0.284-1.289-0.207-1.442 0.513 1.507 0.524 1.671 0.066 0.677 0.153 0.688 0.448-0.207 0.448-0.251c-0-0.122-0.037-0.235-0.1-0.33l0.001 0.002c-0.098-0.164-0.623-1.507-0.721-2.621s0.076-3.014 0.164-3.211 0.491-1.092 0.59-1.234 0.382-0.732 0.437-0.754 0.109-0.022 0.109 0.044c-0.079 0.269-0.161 0.49-0.255 0.704l0.015-0.038c-0.066 0.186-0.415 0.743-0.481 0.928-0.188 0.535-0.32 1.155-0.37 1.798l-0.002 0.026c-0.098 0.983 0.131 2.643 0.197 2.971s0.481 1.442 0.71 1.54 0.426-0.197 0.393-0.251-0.513-0.928-0.623-1.289-0.306-1.223-0.273-1.42 0.284 1.638 1.147 2.599c0 0 0.109 0.066 0.306-0.066s0.186-0.24 0-0.448-0.819-1.431-0.906-1.747-0.47-1.365-0.491-1.398c-0.015-0.124-0.023-0.268-0.023-0.414 0-0.248 0.024-0.49 0.071-0.724l-0.004 0.024c0.098-0.459 0.24-1.103 0.251-1.278s0.295-0.568 0.36-0.655 0.218-0.502 0.295-0.797 0.229-0.491 0.098-0.513-0.612 0.055-0.699 0.153-0.437 0.306-1.18 1.999c0 0-0.207 0.393-0.207 0.623-0 0.311-0.098 0.599-0.265 0.835l0.003-0.005c-0.066 0.121-0.142 0.225-0.23 0.317l0.001-0.001z"></path>
<path fill="#000" d="M11.184 19.91c-0.010-0.002-0.021-0.003-0.033-0.003-0.098 0-0.18 0.072-0.196 0.165l-0 0.001c-0.016 0.136-0.025 0.294-0.025 0.454 0 0.055 0.001 0.11 0.003 0.165l-0-0.008c-0.011 0.109-0.142 0.382-0.109 0.404s0.284-0.044 0.404-0.186c0.13-0.142 0.215-0.327 0.229-0.532l0-0.003c0-0.186-0.066-0.459-0.273-0.459zM14.329 11.762s0.164-0.197 0.12-0.24-0.284-0.186-0.371-0.076c-0.211 0.295-0.389 0.635-0.516 0.998l-0.009 0.028c-0.087 0.328-0.568 1.256-0.612 1.453-0.055 0.29-0.087 0.624-0.087 0.965 0 0.295 0.024 0.585 0.069 0.868l-0.004-0.031c0.131 0.939 0.95 2.85 1.311 3.255s0.71 0 0.71 0l-0.273-0.317s-0.677-1.223-0.764-1.365-0.557-1.212-0.524-1.562 0.109-0.83-0.011-1.289 0.426-1.584 0.513-1.747c0.087-0.142 0.448-0.939 0.448-0.939z"></path>
<path fill="#000" d="M14.034 14.165c0.009-0.186 0.044-0.362 0.102-0.526l-0.004 0.013c0.076-0.218 0.164-0.579 0-0.666s-0.448-0.022-0.448 0.59-0.142 1.311 0 2.228 0.83 2.534 1.747 3.364 0.754 0.546 1.201 0.95 2.719 0.83 3.353 0.754 0.797-0.382 0.83-0.491-0.055-0.295-0.142-0.207-0.557 0.513-2.097 0.175-1.944-0.721-2.031-0.797-0.95-0.961-1.048-1.048-1.092-1.442-1.092-1.638 1.289 2.261 3.003 2.916 2.348 0.546 2.676 0.437 0.666-0.207 0.666-0.328-0.011-0.349-0.12-0.349-0.754 0.382-1.059 0.349-0.754-0.229-1.169-0.229-1.289-0.513-1.507-0.721-1.376-0.797-2.49-3.189c-0.011 0.011-0.426-1.223-0.371-1.584z"></path>
<path fill="#000" d="M17.048 20.554s-0.459-0.306-0.546-0.295-0.076 0.164-0.066 0.328 0.076 0.339 0.186 0.36 0.404-0.044 0.47 0c0.492 0.254 1.070 0.416 1.683 0.447l0.010 0c0.885 0.033 1.059 0.066 1.311 0.044s0.677-0.175 0.71-0.273 0.011-0.404-0.076-0.404-0.186 0.437-1.857 0.24c-1.649-0.218-1.824-0.448-1.824-0.448z"></path>
<path fill="#000" d="M17.267 21.231s-0.339-0.24-0.437-0.142-0.12 0.393 0.218 0.47 1.103 0.295 1.278 0.328c0.307 0.060 0.664 0.1 1.029 0.109l0.009 0c0.371 0 0.743-0.175 0.896-0.175s0.612 0 0.633-0.098c0-0.006 0-0.013 0-0.020 0-0.114-0.020-0.224-0.057-0.325l0.002 0.007c-0.011-0.044-0.142-0.033-0.229 0.011-0.251 0.103-0.544 0.186-0.849 0.237l-0.024 0.003c-0.1 0.006-0.218 0.010-0.336 0.010-0.411 0-0.812-0.043-1.198-0.126l0.037 0.007c-0.386-0.091-0.711-0.192-1.025-0.313l0.053 0.018z"></path>
<path fill="#000" d="M20.554 22.182s-0.699 0.481-2.643 0.175-1.442-1.070-1.398-1.038 0.207 0.262 0.328 0.306 1.573 0.524 1.977 0.535 0.928-0.011 1.158-0.087 0.535-0.273 0.655-0.109c0.12 0.142-0.076 0.218-0.076 0.218z"></path>
<path fill="#000" d="M16.765 22.203s-0.175-0.12-0.175 0c0.018 0.179 0.128 0.329 0.281 0.403l0.003 0.001c0.143 0.074 0.312 0.118 0.491 0.12h0.001c0.219 0.018 0.419 0.081 0.597 0.179l-0.008-0.004c0.164 0.076 0.743 0.306 1.747 0.12s1.256-0.426 1.3-0.491c0.016-0.046 0.025-0.098 0.025-0.153s-0.009-0.107-0.026-0.156l0.001 0.003c-0.022-0.109-0.098-0.153-0.186-0.066s-0.677 0.612-2.119 0.513-1.933-0.47-1.933-0.47z"></path>
<path fill="#000" d="M17.747 22.99s-0.12-0.175-0.448-0.087 0.841 0.71 0.907 0.764 0.142 0.087 0.426 0.055 1.092-0.076 1.376-0.142 0.852-0.229 1.027-0.448 0.109-0.36-0.055-0.339-1.169 0.644-2.173 0.557-1.059-0.36-1.059-0.36z"></path>
<path fill="#000" d="M19.145 23.874s-0.491 0.011-0.47 0.109c0.079 0.158 0.239 0.264 0.424 0.264 0.016 0 0.032-0.001 0.047-0.002l-0.002 0c0.218-0.044 1.442-0.24 1.693-0.371s0.459-0.164 0.459-0.317-0.044-0.328-0.153-0.295-1.169 0.71-1.999 0.612zM20.117 24.311s-0.535 0.175-0.535 0.229 0.218 0.306 0.393 0.295 0.557-0.262 0.754-0.328 0.666-0.131 0.688-0.262c0.003-0.024 0.005-0.052 0.005-0.080 0-0.115-0.030-0.223-0.083-0.317l0.002 0.003c-0.034-0.016-0.073-0.025-0.115-0.025s-0.081 0.009-0.116 0.026l0.002-0.001c-0.076 0.044-0.819 0.448-0.994 0.459zM20.631 25.141c-0.056 0.028-0.122 0.044-0.191 0.044s-0.135-0.016-0.194-0.045l0.003 0.001c-0.207-0.098-0.131-0.218 0.044-0.306s0.502-0.207 0.623-0.262 0.448-0.175 0.502-0.131c0.056 0.058 0.095 0.133 0.109 0.216l0 0.002c0 0.055-0.896 0.481-0.896 0.481zM20.926 25.633s-0.328-0.175-0.328-0.218c0.044-0.088 0.128-0.15 0.228-0.164l0.002-0c0.098 0 0.765-0.273 0.765-0.273s0.175 0.164 0.175 0.328-0.71 0.349-0.841 0.328zM21.767 25.993c-0.043 0.008-0.092 0.013-0.142 0.013s-0.099-0.005-0.147-0.014l0.005 0.001c-0.098-0.033-0.229-0.175-0.273-0.175s0.098-0.087 0.207-0.098 0.295-0.076 0.36-0.087 0.153 0.076 0.153 0.186-0.164 0.175-0.164 0.175zM15.17 11.872c0.069-0.065 0.13-0.136 0.183-0.214l0.003-0.004c0-0.033-0.339-0.24-0.502-0.207s-0.721 1.125-0.546 2.643 0.568 3.080 2.709 4.762c0.612 0.494 1.398 0.793 2.255 0.793 0.253 0 0.5-0.026 0.739-0.076l-0.023 0.004s0.153-0.142-0.066-0.153-1.365-0.218-1.747-0.393-1.212-0.972-1.343-1.027-1.114-1.070-1.136-1.19-0.404-0.808-0.491-1.136-0.306-1.704-0.371-1.966-0.131-0.688-0.109-0.841 0.262-0.775 0.448-0.994z"></path>
<path fill="#000" d="M15.924 12.036s0.197-0.055 0.207-0.12-0.022-0.218-0.284-0.262-0.513 0.142-0.688 0.612-0.098 1.463 0.131 2.075 0.098 1.103 0.524 1.922 0.415 0.819 0.579 0.95 0.95 0.896 1.070 1.016 0.819 0.579 0.95 0.579 0.197-0.218 0.186-0.328-0.022-0.164-0.207-0.175-0.448-0.317-0.448-0.317-0.994-0.939-1.070-0.983-0.885-0.961-0.885-1.070 0.011-0.262 0.076-0.175 0.535 0.764 0.841 1.048 1.278 1.103 1.507 1.201 0.339 0.109 0.36-0.076 0.131-0.273 0.229-0.218 0.83 0.481 1.059 0.448 0.568-0.371 0.677-0.349-0.197 0.36-0.295 0.415 0.076 0.175 0.109 0.197c0.046 0.026 0.101 0.041 0.16 0.041 0.085 0 0.163-0.032 0.223-0.085l-0 0c0.175-0.153 0.197-0.36 0.076-0.633s-0.153-0.732-0.186-0.819-0.076-0.218-0.164 0-0.251 0.666-0.819 0.688c-0.071 0.006-0.153 0.010-0.236 0.010-0.623 0-1.2-0.196-1.673-0.529l0.009 0.006c-0.699-0.459-1.54-1.092-2.195-2.96s0.175-2.108 0.175-2.108z"></path>
<path fill="#000" d="M20.576 16.011c-0.019-0.009-0.041-0.015-0.065-0.015-0.043 0-0.082 0.018-0.11 0.047l-0 0c-0.033 0.055-0.076-0.197-0.011-0.437s0.011-0.601-0.066-0.579-0.666 0.961-1.322 0.601-1.474-1.387-1.704-1.846-0.513-0.983-0.47-1.289c0 0 0.033-0.24 0.044-0.306s-0.131-0.328-0.306-0.262-0.601 0.306-0.655 0.481-0.229 0.339-0.142 0.841 0.35 1.147 0.448 1.442 0.404 0.961 0.732 1.256 0.972 0.874 1.256 1.005 0.885 0.579 1.66 0.404 0.786-0.95 0.786-1.027c-0.008-0.116-0.035-0.224-0.079-0.323l0.002 0.006zM17.169 15.782c-0.033-0.044-0.415-0.633-0.459-0.666 0.214 0.16 0.403 0.328 0.577 0.511l0.002 0.002c0.218 0.251 0.415 0.546 0.415 0.633 0 0-0.502-0.437-0.535-0.481zM19.462 16.699c-0.612-0.022-0.841-0.295-1.005-0.393s-0.59-0.644-0.95-1.016-0.644-0.688-0.764-0.917-0.437-1.354-0.47-1.485 0.175-0.24 0.175-0.175c0.006 0.127 0.021 0.247 0.046 0.364l-0.003-0.014c-0.022 0.546 0.633 1.507 0.721 1.693s0.841 1.005 1.507 1.453 1.103 0.207 1.212 0.164 0.229-0.044 0.262 0-0.12 0.349-0.732 0.328z"></path>
<path fill="#000" d="M20.248 14.504c-0.098 0-0.317 0.262-0.349 0.109s0.153-0.481 0.153-0.786-0.066-0.885-0.207-1.169-0.284-0.535-0.535-0.382-0.12 0.273-0.011 0.415 0.382 0.459 0.382 0.83-0.055 0.852-0.197 0.885-0.481-0.076-0.786-0.317c-0.336-0.253-0.632-0.521-0.902-0.815l-0.004-0.005c-0.098-0.142-0.295-0.47-0.24-0.524s0.142-0.076 0.229 0.076 0.513 0.601 0.623 0.71c0.178 0.178 0.367 0.346 0.565 0.503l0.014 0.010c0.131 0.087 0.295 0.24 0.415 0.044s0.142-0.666 0.044-0.841-0.262-0.481-0.317-0.557-0.142-0.207-0.328-0.131-0.175 0.229-0.109 0.284 0.36 0.262 0.382 0.404 0.087 0.393-0.022 0.273-0.393-0.513-0.47-0.557-0.601-0.371-0.601-0.371-0.633-0.262-0.677-0.328-0.175-0.076-0.076 0.295 0.164 0.819 0.437 1.158c0.148 0.17 0.261 0.375 0.325 0.6l0.003 0.011c0.055 0.164 0.601 0.972 1.3 1.147s0.95-0.633 0.983-0.699 0.076-0.273-0.022-0.273zM19.582 14.995c-0.022 0.164-0.328-0.011-0.459 0s-0.371-0.207-0.524-0.382-0.273-0.36-0.229-0.382 0.24 0.218 0.437 0.328 0.459 0.262 0.633 0.24 0.142 0.197 0.142 0.197zM21.078 18.446s-0.142 0.164-0.142 0.229 0.076 0.098 0.076 0.164 0.055 0.098 0.131 0.044 0.076-0.12 0.066-0.207 0.011-0.262-0.131-0.229zM21.22 19.025s-0.142 0.087-0.142 0.197c-0.003 0.041-0.004 0.088-0.004 0.137s0.002 0.096 0.004 0.143l-0-0.006c0.013 0.036 0.047 0.061 0.087 0.061s0.074-0.025 0.087-0.061l0-0.001c0.044-0.087 0.098-0.142 0.055-0.251-0.044-0.087 0-0.295-0.087-0.218zM21.33 20.085s-0.197 0.142-0.186 0.066 0.022-0.404 0.087-0.415 0.066-0.142 0.175 0.055 0.033 0.229-0.076 0.295zM21.494 20.336s0.055-0.207-0.098-0.076-0.197 0.087-0.186 0.175 0.044 0.24 0.131 0.218c0.066-0.022 0.218 0.011 0.153-0.317zM21.581 20.773s-0.251 0.12-0.229 0.262 0.142 0.284 0.197 0.284 0.142-0.153 0.109-0.273 0.011-0.328-0.076-0.273z"></path>
<path fill="#000" d="M16 2.261c-7.588 0-13.739 6.151-13.739 13.739s6.151 13.739 13.739 13.739c7.588 0 13.739-6.151 13.739-13.739v0c0-0.001 0-0.002 0-0.003 0-7.586-6.15-13.736-13.736-13.736-0.001 0-0.002 0-0.003 0h0zM16 28.822c-0.002 0-0.004 0-0.005 0-7.084 0-12.827-5.743-12.827-12.827s5.743-12.827 12.827-12.827c7.082 0 12.824 5.74 12.827 12.822v0c0 0.003 0 0.006 0 0.010 0 7.082-5.74 12.822-12.822 12.823h-0z"></path>
<path fill="#151515" d="M16 0c-8.837 0-16 7.163-16 16s7.163 16 16 16c8.837 0 16-7.163 16-16v0c-0.001-8.836-7.164-15.999-16-16h-0zM16 30.504c-8.010 0-14.504-6.494-14.504-14.504s6.494-14.504 14.504-14.504c8.010 0 14.504 6.494 14.504 14.504v0c-0.004 8.009-6.495 14.5-14.503 14.504h-0z"></path>
</svg>
