<!-- Generated by IcoMoon.io -->
<svg version="1.1" xmlns="http://www.w3.org/2000/svg" viewBox="0 0 32 32">
<title>ae</title>
<path fill="#de3f6b" d="M6.912 8.48h1.315c2.054 0.202 3.955 1.235 5.363 2.723 2.922 3.066 4.528 7.392 8.246 9.674 2.688 1.651 6.448 0.301 7.77-2.486 0.672-0.013 1.347-0.013 2.019-0.010-0.925 2.832-3.619 4.867-6.566 5.139h-1.085c-1.814-0.15-3.578-0.848-4.95-2.054-1.994-1.69-3.274-4.006-4.822-6.070-1.331-1.824-2.691-3.875-4.896-4.704-2.723-1.021-6.051 0.576-7.043 3.29-0.874 2.234-0.163 5.005 1.789 6.435 1.462 1.133 3.501 1.555 5.258 0.896 1.952-0.704 3.402-2.304 4.512-4 0.438 0.627 0.864 1.264 1.286 1.904-1.728 2.176-4.125 4.045-6.976 4.304h-1.168c-3.594-0.25-6.717-3.302-6.963-6.909v-1.181c0.234-3.6 3.315-6.688 6.912-6.95z"></path>
<path fill="#de3f6b" d="M23.901 8.48h1.091c3.626 0.237 6.71 3.35 7.008 6.957v1.85c-2.992 0.029-5.987 0.010-8.979 0.013 0.003-0.541 0.003-1.078 0-1.619 2.365-0.006 4.726 0.010 7.088-0.006-0.166-0.957-0.384-1.936-0.95-2.746-1.382-2.112-4.304-2.976-6.64-2.061-1.862 0.691-3.264 2.205-4.346 3.821-0.416-0.598-0.829-1.203-1.229-1.814 1.706-2.208 4.086-4.118 6.957-4.394z"></path>
</svg>
