<!-- Generated by IcoMoon.io -->
<svg version="1.1" xmlns="http://www.w3.org/2000/svg" viewBox="0 0 32 32">
<title>aeon</title>
<path fill="#5fbcd3" d="M20.61 0.856c3.999 1.4 4.865 9.32 1.934 17.69s-8.549 14.019-12.548 12.619c-3.999-1.4-4.865-9.32-1.934-17.69s8.549-14.019 12.548-12.619z"></path>
<path fill="#2c89a0" d="M28.119 6.353c2.55 3.384-1.124 10.453-8.206 15.79s-14.891 6.92-17.441 3.536c-2.55-3.384 1.124-10.453 8.206-15.79s14.891-6.92 17.441-3.536z"></path>
<path fill="#164450" d="M31.968 14.002c0.421 4.216-6.391 8.348-15.215 9.229s-16.318-1.823-16.739-6.039c-0.421-4.216 6.391-8.348 15.215-9.229s16.318 1.823 16.739 6.039z"></path>
<path fill="#fff" d="M17.126 16.316q0.194 1.928 2.763 1.92c0.020 0 0.043 0 0.067 0 1.037 0 2.015-0.252 2.877-0.697l-0.035 0.016v1.944q-1.531 0.672-3.702 0.672-2.633 0-3.889-1.539h-0.049q-1.377 1.539-3.54 1.539-1.628 0-2.544-0.713t-0.915-1.977q0-1.256 0.948-2.017t2.706-0.875l2.511-0.178q0-1.645-1.807-1.645-1.701 0-3.37 0.924v-2.033c1.069-0.457 2.312-0.728 3.618-0.737l0.004-0q2.293 0 3.176 1.15h0.040c0.836-0.742 1.894-1.251 3.064-1.414l0.031-0.004c1.329-0.219 3.006-0.203 3.808 0.559 0.438 0.425 0.74 0.989 0.833 1.621l0.002 0.015c0.015 0.104 0.023 0.225 0.023 0.348 0 1.39-1.073 2.529-2.436 2.633l-0.009 0.001zM14.315 16.389v-0.389l-1.523 0.113q-1.807 0.13-1.807 1.134c0.005 0.294 0.157 0.552 0.386 0.703l0.003 0.002q0.381 0.284 0.996 0.292 0.843 0 1.393-0.518t0.551-1.337zM17.402 14.501l-0.024 0.389 1.539-0.049q1.807-0.049 1.863-1.053c0.001-0.014 0.001-0.030 0.001-0.046 0-0.28-0.137-0.528-0.347-0.682l-0.002-0.002q-0.365-0.292-0.972-0.324-0.843-0.032-1.426 0.462t-0.632 1.304z"></path>
</svg>
