<!-- Generated by IcoMoon.io -->
<svg version="1.1" xmlns="http://www.w3.org/2000/svg" viewBox="0 0 32 32">
<title>akro</title>
<path d="M16.039 32.059c-0.78 0-1.561-0.215-2.244-0.605l-9.971-5.756c-1.405-0.82-2.263-2.302-2.263-3.922v-11.512c0-1.6 0.859-3.102 2.244-3.902l9.99-5.756c1.385-0.8 3.102-0.8 4.507 0l9.971 5.756c1.385 0.8 2.244 2.302 2.244 3.902v11.532c0 1.6-0.859 3.102-2.244 3.902l-9.971 5.756c-0.702 0.39-1.463 0.605-2.263 0.605zM16.039 1.561c-0.507 0-1.015 0.137-1.463 0.39l-9.99 5.776c-0.917 0.527-1.463 1.502-1.463 2.537v11.532c0 1.054 0.566 2.010 1.463 2.537l9.971 5.776c0.917 0.527 2.029 0.527 2.946 0l9.971-5.756c0.898-0.527 1.463-1.483 1.463-2.537v-11.551c0-1.054-0.566-2.029-1.463-2.537l-9.951-5.776c-0.449-0.254-0.956-0.39-1.483-0.39zM16.039 26.829c-0.429 0-0.839-0.117-1.21-0.332l-7.259-4.176c-0.741-0.429-1.21-1.229-1.21-2.107v-8.371c0-0.859 0.449-1.659 1.21-2.107l7.259-4.176c0.761-0.429 1.678-0.429 2.419 0l7.239 4.176c0.741 0.429 1.21 1.229 1.21 2.107v8.371c0 0.859-0.468 1.678-1.21 2.107l-7.259 4.176c-0.351 0.215-0.761 0.332-1.19 0.332v0zM16.039 6.4c-0.215 0-0.429 0.059-0.624 0.176l-7.259 4.176c-0.39 0.234-0.624 0.644-0.624 1.093v8.371c0 0.449 0.234 0.859 0.624 1.093l7.259 4.176c0.39 0.234 0.859 0.234 1.249 0l7.239-4.176c0.39-0.234 0.624-0.644 0.624-1.093v-8.371c0-0.449-0.234-0.859-0.624-1.093l-7.239-4.176c-0.176-0.117-0.39-0.176-0.624-0.176v0zM16.039 21.522c-0.215 0-0.429-0.059-0.624-0.156l-3.668-2.146c-0.39-0.215-0.624-0.644-0.624-1.073v-4.254c0-0.449 0.234-0.859 0.624-1.073l3.668-2.127c0.39-0.215 0.859-0.215 1.249 0l3.668 2.127c0.39 0.215 0.624 0.624 0.624 1.073v4.254c0 0.449-0.234 0.859-0.624 1.073l-3.668 2.127c-0.195 0.117-0.41 0.176-0.624 0.176v0zM16.039 11.317c-0.078 0-0.156 0.020-0.234 0.059l-3.668 2.127c-0.137 0.078-0.234 0.234-0.234 0.39v4.254c0 0.156 0.098 0.312 0.234 0.41l3.668 2.127c0.137 0.078 0.312 0.078 0.468 0l3.668-2.127c0.137-0.078 0.234-0.254 0.234-0.41v-4.254c0-0.156-0.098-0.312-0.234-0.39l-3.668-2.127c-0.078-0.039-0.156-0.059-0.234-0.059v0z"></path>
</svg>
