<!-- Generated by IcoMoon.io -->
<svg version="1.1" xmlns="http://www.w3.org/2000/svg" viewBox="0 0 32 32">
<title>alpha</title>
<path fill="#29b2ff" d="M16 0c-8.832 0-16 7.168-16 16s7.168 16 16 16 16-7.168 16-16-7.168-16-16-16z"></path>
<path fill="#fff" d="M11.424 11.072l-7.36 9.792h1.504l1.6-2.144h5.12v-1.216h-4.224l4.832-6.432z"></path>
<path fill="#fff" d="M27.936 20.864l-7.36-9.792h-1.472l4.832 6.432h-4.224v1.216h5.12l1.6 2.144z"></path>
<path fill="#fff" d="M15.392 20.864h1.216v-15.136h-1.216z"></path>
<path fill="#fff" d="M7.040 18.464h5.024v-0.704h-5.024z"></path>
<path fill="none" stroke="#fff" stroke-linejoin="miter" stroke-linecap="butt" stroke-miterlimit="4" stroke-width="0.4776" d="M7.040 18.464h5.024v-0.704h-5.024z"></path>
<path fill="#fff" d="M19.936 18.464h5.024v-0.704h-5.024z"></path>
<path fill="none" stroke="#fff" stroke-linejoin="miter" stroke-linecap="butt" stroke-miterlimit="4" stroke-width="0.4776" d="M19.936 18.464h5.024v-0.704h-5.024z"></path>
</svg>
