<!-- Generated by IcoMoon.io -->
<svg version="1.1" xmlns="http://www.w3.org/2000/svg" viewBox="0 0 32 32">
<title>amp</title>
<path fill="#f2e3ee" d="M31.459 15.987c0 8.545-6.927 15.471-15.471 15.471s-15.471-6.927-15.471-15.471c0-8.545 6.927-15.471 15.471-15.471s15.471 6.927 15.471 15.471z"></path>
<path fill="#d9327c" d="M31.974 15.987c0 8.829-7.158 15.987-15.987 15.987s-15.987-7.158-15.987-15.987c0-8.829 7.158-15.987 15.987-15.987s15.987 7.158 15.987 15.987z"></path>
<path fill="#fff" d="M15.368 8.432c-0.129 0.103-0.284 0.284-0.387 0.619s-0.67 1.986-1.392 4.048h4.822c-0.722-2.063-1.289-3.713-1.392-4.048s-0.258-0.516-0.387-0.619c-0.129-0.103-0.309-0.181-0.645-0.181s-0.49 0.077-0.619 0.181zM8.251 13.099h3.275c0.799-2.346 1.496-4.306 1.599-4.667 0.206-0.619 0.541-1.16 1.057-1.547s1.135-0.567 1.779-0.567c0.645 0 1.264 0.155 1.779 0.567 0.516 0.387 0.851 0.928 1.057 1.547 0.129 0.361 0.799 2.295 1.599 4.667h3.326c0.541 0 0.98 0.438 0.98 0.98s-0.438 0.98-0.98 0.98h-15.471c-0.542 0-0.954-0.438-0.954-0.98s0.438-0.98 0.954-0.98zM8.251 16.967c-0.542 0-0.954 0.438-0.954 0.98s0.438 0.98 0.954 0.98h1.289l-1.031 2.991-0.206 0.567c-0.181 0.516 0.103 1.057 0.593 1.238 0.516 0.18 1.057-0.103 1.238-0.593l0.206-0.567 0.516-1.496c0.206-0.619 0.464-1.341 0.748-2.14h8.819c0.258 0.774 0.516 1.521 0.748 2.14l0.516 1.496 0.206 0.567c0.18 0.516 0.722 0.774 1.238 0.593s0.774-0.722 0.593-1.238v0l-0.206-0.567-1.031-2.991h1.289c0.541 0 0.98-0.438 0.98-0.98s-0.438-0.98-0.98-0.98h-15.523zM22.769 22.769l0.902-0.309c0 0 0 0-0.902 0.309zM22.769 22.769c-0.902 0.309-0.902 0.309-0.902 0.309l0.902-0.309zM9.231 22.769l0.902 0.309c0 0 0 0-0.902-0.309zM9.231 22.769c-0.902-0.309-0.902-0.309-0.902-0.309l0.902 0.309z"></path>
</svg>
