<!-- Generated by IcoMoon.io -->
<svg version="1.1" xmlns="http://www.w3.org/2000/svg" viewBox="0 0 32 32">
<title>ampl</title>
<path d="M0.356 31.985c-0.022-0.444-0.030-0.889-0.007-1.333 0.148-0.044 0.296-0.074 0.452-0.096 0.444-0.074 0.889-0.185 1.319-0.311 0.119-0.037 0.237-0.081 0.356-0.126 0.57-0.222 1.074-0.593 1.459-1.067 0.267-0.333 0.496-0.696 0.696-1.074 0.281-0.519 0.526-1.059 0.748-1.607 0.444-1.111 0.889-2.215 1.326-3.326 1.511-3.822 3.022-7.644 4.533-11.467 1.43-3.637 2.837-7.274 4.215-10.933 0.030-0.074 0.059-0.148 0.089-0.222 0.511-0.141 1.007-0.289 1.526-0.43 0.030 0.074 0.059 0.141 0.081 0.207 0.585 1.63 1.17 3.259 1.748 4.896 1.993 5.563 3.985 11.119 6.030 16.659 0.563 1.511 1.126 3.030 1.696 4.541 0.222 0.615 0.489 1.222 0.793 1.8 0.133 0.252 0.274 0.489 0.43 0.726 0.474 0.741 1.207 1.267 2.059 1.489 0.459 0.119 0.919 0.215 1.393 0.274l0.333 0.052c0.044 0.148 0.022 0.289 0.022 0.43s0 0.304 0 0.452c0.007 0.148 0 0.289-0.007 0.437-0.044 0.007-0.081 0.015-0.126 0.022-0.052 0-0.104 0-0.156 0h-11.563c-0.015-0.022-0.022-0.052-0.030-0.081 0-0.4 0-0.8 0-1.2 0-0.015 0.007-0.037 0.015-0.052 0.096-0.030 0.193-0.044 0.296-0.059 0.481-0.067 0.956-0.156 1.43-0.281 0.185-0.052 0.378-0.119 0.556-0.193 0.089-0.037 0.178-0.081 0.267-0.133 0.467-0.259 0.652-0.667 0.607-1.185-0.022-0.237-0.059-0.467-0.126-0.696-0.096-0.356-0.222-0.704-0.341-1.044-2.43-6.778-4.83-13.563-7.207-20.363-0.022-0.074-0.037-0.156-0.111-0.222-0.022 0.015-0.059 0.030-0.074 0.044-0.022 0.037-0.037 0.074-0.044 0.111-1.163 3.341-2.4 6.659-3.63 9.97-0.911 2.452-1.822 4.911-2.667 7.385-0.341 0.993-0.667 1.993-0.985 2.993-0.126 0.385-0.215 0.778-0.274 1.17-0.044 0.267-0.052 0.533-0.022 0.807 0.037 0.348 0.222 0.667 0.511 0.874 0.185 0.133 0.393 0.237 0.615 0.311 0.348 0.126 0.704 0.215 1.067 0.274 0.4 0.074 0.8 0.133 1.207 0.193 0.030 0.007 0.052 0.007 0.089 0.015 0.007 0.030 0.015 0.059 0.022 0.089 0 0.385 0 0.778 0 1.163 0 0.022-0.007 0.044-0.015 0.067-0.037 0.007-0.074 0.015-0.111 0.015-0.052 0-0.104 0-0.156 0l-10.333 0.037z"></path>
</svg>
