<!-- Generated by IcoMoon.io -->
<svg version="1.1" xmlns="http://www.w3.org/2000/svg" viewBox="0 0 32 32">
<title>ankr</title>
<path fill="#245ae5" opacity="0.9" d="M17.92 0.48l10.48 5.36c1.52 0.8 2.48 2.32 2.48 4.080v2.48h-3.84v-2.48c0-0.24-0.16-0.48-0.4-0.64l-10.48-5.36c-0.16-0.080-0.4-0.080-0.64 0l-10.48 5.36c-0.24 0.080-0.4 0.32-0.4 0.64v2.48h-3.84v-2.48c0-1.68 0.96-3.28 2.48-4.080l10.48-5.36c1.28-0.64 2.8-0.64 4.16 0zM19.12 15.84c0-1.84-1.52-3.28-3.28-3.28-1.84 0-3.28 1.44-3.28 3.28s1.52 3.28 3.28 3.28c1.76 0 3.28-1.44 3.28-3.28zM26.56 22.72c0.24-0.080 0.4-0.32 0.4-0.64v-2.48h3.84v2.48c0 1.68-0.96 3.28-2.48 4.080l-10.48 5.36c-0.64 0.32-1.36 0.48-2.080 0.48s-1.44-0.16-2.080-0.48l-10.4-5.36c-1.52-0.8-2.48-2.32-2.48-4.080v-2.48h3.84v2.48c0 0.24 0.16 0.48 0.4 0.64l8.88 4.48v-4.48c-3.040-0.88-5.2-3.6-5.2-6.88 0-3.92 3.2-7.2 7.2-7.2 3.92 0 7.2 3.2 7.2 7.2 0 3.28-2.24 6.080-5.2 6.88v4.48l8.64-4.48z"></path>
</svg>
