<!-- Generated by IcoMoon.io -->
<svg version="1.1" xmlns="http://www.w3.org/2000/svg" viewBox="0 0 32 32">
<title>ant</title>
<path fill="#000" opacity="0.05" d="M32 16c0 8.837-7.163 16-16 16s-16-7.163-16-16c0-8.837 7.163-16 16-16s16 7.163 16 16z"></path>
<path fill="#000" d="M28.5 14.94c0.11-2.305-1.5-3.835-3.32-4.885l-1.18 6.945c0.071-0.010 0.152-0.016 0.235-0.016 0.434 0 0.83 0.162 1.131 0.428l-0.002-0.002c0.22 0.216 0.357 0.517 0.357 0.849 0 0.286-0.101 0.548-0.268 0.753l0.002-0.002c1.14-0.19 2.915-1.285 3.045-4.070z"></path>
<path fill="#000" d="M13 6.865l-1.4-1.415c2.12-0.26 7.715 0.070 13.13 3.465 0.024 0.138 0.037 0.296 0.037 0.457s-0.014 0.32-0.039 0.474l0.002-0.017 0.455 0.23c0.477 0.779 0.76 1.722 0.76 2.731 0 0.472-0.062 0.93-0.178 1.366l0.008-0.037c-0.47 1.88-1.275 2.71-1.635 2.88-0.725 0-1.96 0.42-2.36 2.28s-1.17 2.265-1.5 2.235l-8 0.095-5.28-3.11-0.76-6.435 1.5-2 2.68-2.19 1.91-0.78zM22.455 9.5c-0.222 0.235-0.479 0.433-0.764 0.587l-0.016 0.008c-2.055-0.44-2.8-1.5-2.8-1.5 0.086-0.003 0.186-0.004 0.287-0.004 1.732 0 3.357 0.458 4.76 1.259l-0.047-0.025c-0.398-0.131-0.877-0.244-1.369-0.319l-0.051-0.006z"></path>
<path fill="#000" d="M21.71 19.28c-1.405 0.691-3.057 1.095-4.804 1.095-0.027 0-0.053-0-0.080-0l0.004 0c-5.045 0-9.13-3.17-9.13-7.075 0-2.89 2.23-5.37 5.425-6.47-6.080 0.35-10.97 5.235-10.97 11.265 0 6.96 6.205 12.71 13.845 12.71 5.564-0.047 10.397-3.129 12.931-7.669l0.039-0.076c-3.425 0.77-7.47-0.695-7.26-3.78z"></path>
</svg>
