<!-- Generated by IcoMoon.io -->
<svg version="1.1" xmlns="http://www.w3.org/2000/svg" viewBox="0 0 32 32">
<title>aoa</title>
<path fill="#fff4fc" d="M31.784 19.848l-15.284 11.301c-0.203 0.149-0.5 0.162-0.702 0.014l-15.527-10.977c-0.297-0.216-0.365-0.648-0.122-0.932l15.271-18.309c0.216-0.27 0.621-0.27 0.851 0l15.595 18.201c0.176 0.216 0.149 0.54-0.081 0.702z"></path>
<path fill="#000" d="M30.96 19.47l-14.528 10.734-0.081-10.937-0.108-17.175 14.38 16.972z"></path>
<path fill="#000" d="M0.864 19.7l14.906 10.505-0.338-28.111z"></path>
<path fill="#000" d="M15.649 19.294l-14.677 0.284-0.108 0.122 14.906 10.505z"></path>
<path fill="#000" d="M16.351 19.267l14.272-0.203 0.338 0.405-14.528 10.734z"></path>
</svg>
