<!-- Generated by IcoMoon.io -->
<svg version="1.1" xmlns="http://www.w3.org/2000/svg" viewBox="0 0 32 32">
<title>appc</title>
<path fill="#000" d="M31.997 15.998c0 8.836-7.163 15.998-15.998 15.998s-15.998-7.163-15.998-15.998c0-8.836 7.163-15.998 15.998-15.998s15.998 7.163 15.998 15.998z"></path>
<path fill="#fefefe" d="M13.919 17.71l2.128-6.477 2.168 6.477zM22.942 21.805l-1.76-4.835h1.051c0.419-0.004 0.757-0.343 0.759-0.762v-0c0-0.399-0.323-0.723-0.723-0.723h-1.642l-0.263-0.752h1.869c0 0 0 0 0 0 0.41 0 0.744-0.327 0.755-0.735l0-0.001c0-0.001 0-0.002 0-0.003 0-0.417-0.338-0.755-0.755-0.755-0.001 0-0.002 0-0.003 0h-2.427l-1.314-3.613c-0.206-0.532-0.528-0.979-0.938-1.326l-0.005-0.004c-0.377-0.312-0.865-0.501-1.398-0.501-0.031 0-0.061 0.001-0.091 0.002l0.004-0c-0.021-0.001-0.047-0.001-0.072-0.001-0.539 0-1.035 0.189-1.424 0.504l0.004-0.003c-0.415 0.352-0.738 0.799-0.938 1.308l-0.008 0.022-1.376 3.646h-2.414c0 0 0 0 0 0-0.402 0-0.727 0.325-0.729 0.726v0c0 0.417 0.338 0.755 0.755 0.755h1.833l-0.282 0.732h-1.642c-0.403 0-0.729 0.326-0.729 0.729v0c0 0 0 0 0 0 0 0.412 0.333 0.747 0.745 0.749h1.054l-1.79 4.841c-0.105 0.253-0.17 0.546-0.181 0.853l-0 0.004c0.020 0.429 0.208 0.81 0.498 1.083l0.001 0.001c0.314 0.273 0.728 0.44 1.181 0.44 0.005 0 0.011-0 0.016-0h-0.001c0.026 0.002 0.057 0.002 0.088 0.002 0.74 0 1.364-0.5 1.551-1.18l0.003-0.011 0.693-2.066h6.375l0.693 2.115c0.213 0.662 0.824 1.133 1.544 1.133 0.034 0 0.069-0.001 0.102-0.003l-0.005 0c0.009 0 0.020 0 0.031 0 0.279 0 0.54-0.074 0.765-0.205l-0.007 0.004c0.21-0.157 0.391-0.337 0.544-0.538l0.005-0.007c0.126-0.213 0.201-0.47 0.201-0.743 0-0.009-0-0.018-0-0.026l0 0.001c-0.049-0.321-0.12-0.606-0.214-0.88l0.011 0.035z"></path>
</svg>
