<!-- Generated by IcoMoon.io -->
<svg version="1.1" xmlns="http://www.w3.org/2000/svg" viewBox="0 0 32 32">
<title>ar</title>
<path fill="none" stroke="#222326" stroke-linejoin="miter" stroke-linecap="butt" stroke-miterlimit="4" stroke-width="2.5157" d="M30.792 16c0 8.17-6.623 14.792-14.792 14.792s-14.792-6.623-14.792-14.792c0-8.17 6.623-14.792 14.792-14.792s14.792 6.623 14.792 14.792z"></path>
<path d="M18.818 21.333c-0.101-0.101-0.101-0.302-0.201-0.503 0-0.201-0.101-0.403-0.101-0.604-0.201 0.201-0.403 0.302-0.604 0.503s-0.503 0.302-0.704 0.403c-0.302 0.101-0.503 0.201-0.906 0.302-0.302 0.101-0.704 0.101-1.006 0.101-0.604 0-1.107-0.101-1.61-0.302s-0.906-0.403-1.308-0.704c-0.403-0.302-0.604-0.704-0.805-1.107s-0.302-0.906-0.302-1.409c0-1.208 0.503-2.214 1.409-2.818 0.906-0.704 2.314-1.006 4.126-1.006h1.711v-0.704c0-0.604-0.201-1.006-0.503-1.308-0.403-0.302-0.906-0.503-1.61-0.503-0.604 0-1.006 0.101-1.308 0.403s-0.403 0.604-0.403 1.006h-3.019c0-0.503 0.101-1.006 0.302-1.409s0.503-0.805 1.006-1.208c0.403-0.302 0.906-0.604 1.509-0.805s1.308-0.302 2.113-0.302c0.704 0 1.308 0.101 1.912 0.302s1.107 0.403 1.61 0.805c0.403 0.302 0.805 0.805 1.006 1.308s0.403 1.107 0.403 1.811v5.031c0 0.604 0 1.107 0.101 1.509s0.201 0.805 0.302 1.006v0.201h-3.119zM15.899 19.22c0.302 0 0.604 0 0.805-0.101 0.302-0.101 0.503-0.201 0.704-0.302s0.403-0.201 0.503-0.403c0.101-0.101 0.302-0.302 0.403-0.403v-2.013h-1.509c-0.503 0-0.906 0-1.208 0.101s-0.604 0.201-0.805 0.403c-0.201 0.201-0.403 0.302-0.503 0.604-0.101 0.201-0.101 0.503-0.101 0.704 0 0.403 0.101 0.704 0.403 1.006s0.805 0.403 1.308 0.403z"></path>
</svg>
