<!-- Generated by IcoMoon.io -->
<svg version="1.1" xmlns="http://www.w3.org/2000/svg" viewBox="0 0 32 32">
<title>arrr</title>
<path d="M16 0c-8.838 0-16 7.162-16 16s7.162 16 16 16 16-7.162 16-16-7.162-16-16-16zM8.778 11.864c0-1.978 1.603-3.57 3.594-3.57h8.198c0.938 0 1.838 0.368 2.507 1.026l-4.195 2.11h-5.776c-0.651 0-1.17 0.47-1.17 1.037v2.568l-3.147 1.64v-4.811h-0.011zM24.126 17.206c0 1.978-1.603 3.57-3.57 3.57h-8.632v3.051c0 0.518-0.386 0.941-0.845 1.050l-1.074 0.024h-1.23v-5.306l4.112-2.146h6.909c0.651 0 1.194-0.47 1.194-1.050v-3.138l3.134-1.579 0.002 5.523z"></path>
</svg>
