<!-- Generated by IcoMoon.io -->
<svg version="1.1" xmlns="http://www.w3.org/2000/svg" viewBox="0 0 32 32">
<title>ast</title>
<path fill="#2b71ff" d="M24.050 23.95l-8.050 8.050-3.993-3.993c4.306-0.255 8.464-1.655 12.044-4.057zM31.682 15.682l-0.986-0.981-14.695-14.701-15.963 15.963 0.456 0.392c0.514 0.43 1.045 0.838 1.591 1.22 5.812 4.094 13.020 5.33 19.675 3.702 2.715-0.658 5.293-1.787 7.621-3.336 0.578-0.382 1.14-0.796 1.692-1.23 0.302-0.244 0.599-0.493 0.891-0.748zM19.877 19.378c-4.386-2.694-9.435-4.11-14.579-4.089 6.703-2.922 14.929-3.32 22.47 1.018-2.402 1.527-5.086 2.572-7.891 3.071z"></path>
</svg>
