<!-- Generated by IcoMoon.io -->
<svg version="1.1" xmlns="http://www.w3.org/2000/svg" viewBox="0 0 32 32">
<title>avax</title>
<path fill="#e84142" d="M32 16c0 8.837-7.163 16-16 16s-16-7.163-16-16c0-8.837 7.163-16 16-16s16 7.163 16 16z"></path>
<path fill="#fff" d="M21.644 16.416c0.554-0.957 1.449-0.957 2.003 0l3.452 6.060c0.554 0.957 0.101 1.739-1.008 1.739h-6.954c-1.096 0-1.55-0.781-1.008-1.739l3.515-6.060zM14.967 4.75c0.554-0.957 1.436-0.957 1.991 0l0.768 1.386 1.814 3.187c0.441 0.907 0.441 1.978 0 2.885l-6.085 10.545c-0.554 0.857-1.474 1.398-2.495 1.461h-5.052c-1.109 0-1.562-0.768-1.008-1.739l10.066-17.726z"></path>
</svg>
