<!-- Generated by IcoMoon.io -->
<svg version="1.1" xmlns="http://www.w3.org/2000/svg" viewBox="0 0 32 32">
<title>axs</title>
<path fill="#0055d5" d="M16 0c8.835 0 16 7.165 16 16s-7.165 16-16 16-16-7.165-16-16 7.165-16 16-16v0z"></path>
<path fill="#fff" d="M8.704 10.586c0 0-1.722-1.376-1.84 2.022-0.118 2.634-0.115 7.747 1.104 10.163 0.515 0.909 1.203 0.63 2.483-0.275 1.114-0.822 5.142-4.534 6.848-6.163s5.165-6.301 5.885-3.126c0.285 1.334 0.637 2.467 0.368 5.427-0.083 0.912-0.474 1.603-2.253 0.368-1.344-0.864-2.621-1.792-2.621-1.792s-0.246-0.442-0.829 0.275c-0.458 0.573-0.688 0.714 0.045 1.149 0.736 0.435 4.458 3.002 5.885 3.402 1.178 0.342 1.85 0.336 1.885-1.978-0.006-1.837-0.112-7.094-0.781-9.334-0.506-1.395-1.248-2.029-2.851-0.461s-6.659 6.47-9.424 8.691c-1.834 1.376-2.618 2.618-3.309 0.323-0.486-1.738-1.117-7.146 0.874-6.115 1.245 0.595 1.866 0.592 1.379 0.966-0.486 0.371-1.885 1.654-1.885 1.654s-0.432 0.349-0.23 1.104c0.202 0.528 0.202 0.79 1.286-0.23s1.885-1.792 1.885-1.792 0.173-0.272 0.688 0.23 0.598 0.643 0.598 0.643 0.138 0.374 0.688-0.275c0.554-0.65 0.909-1.046-0.138-1.654-1.043-0.614-5.741-3.222-5.741-3.222v0z"></path>
</svg>
