<!-- Generated by IcoMoon.io -->
<svg version="1.1" xmlns="http://www.w3.org/2000/svg" viewBox="0 0 32 32">
<title>bake</title>
<path fill="#fff" d="M23.934 15.506c0.216-0.108 0.541 0.108 0.541 0.325l0.433 1.624c0.108 0.216-0.108 0.541-0.325 0.541-0.216 0.108-0.541-0.108-0.541-0.325l-0.433-1.624c-0.108-0.216 0-0.541 0.325-0.541zM11.485 3.382c-0.108-0.216-0.108-0.541 0.108-0.649l1.407-0.974c0.216-0.108 0.541-0.108 0.649 0.108 0.108 0.325 0.108 0.541-0.108 0.758l-1.407 0.974c-0.216 0-0.541 0-0.649-0.216z"></path>
<path fill="#ffae54" d="M18.738 9.119c-1.624-0.325-3.356-0.108-4.871 0.866 2.165-0.758 4.655-0.216 6.387 1.515 2.382 2.49 2.382 6.495 0 8.877-0.325 0.325-0.649 0.541-0.974 0.758 0.866-0.325 1.732-0.758 2.382-1.515 1.732-1.732 2.165-4.222 1.515-6.387-1.84-0.649-3.464-2.165-4.438-4.113z"></path>
<path fill="#000" stroke="#ac562a" stroke-linejoin="miter" stroke-linecap="butt" stroke-miterlimit="4" stroke-width="1.1907" d="M29.022 23.191v0c-3.897 7.253-12.99 9.959-20.135 5.954-7.253-3.897-9.851-13.098-5.954-20.351 2.598-4.763 7.361-7.577 12.449-7.794 0.649 0 1.191 0.325 1.515 0.974s0.541 1.515 0.433 2.382c0 0.325 0 0.649 0 0.974 0 1.515 0.433 3.031 1.082 4.33-3.139-1.191-6.712 0.108-8.335 3.139-1.84 3.356-0.541 7.469 2.706 9.31s7.469 0.541 9.201-2.706v0c0.974-1.84 1.082-4.005 0.325-5.846 1.299 0.649 2.706 0.974 4.222 0.974 0.866 0 1.624-0.108 2.49-0.325 0.433-0.108 0.974-0.108 1.299 0.108s0.541 0.433 0.541 0.758c0.108 2.706-0.541 5.521-1.84 8.119z"></path>
<path fill="#ac562a" stroke="#ac562a" stroke-linejoin="miter" stroke-linecap="butt" stroke-miterlimit="4" stroke-width="1.1907" d="M25.125 20.269l0.541-0.216c0 0 0 0 0 0 0.433 1.082-0.108 2.057-0.433 2.815 0 0 0 0 0 0.108-0.216 0.433-0.433 0.758-0.433 1.082-0.108 0.541-0.108 1.082 0 1.407s0.433 0.649 0.866 0.758c0.325 0.108 0.866 0 1.515-0.433 2.598-3.031 3.789-6.928 3.572-10.608 0-0.325-0.216-0.649-0.541-0.866s-0.866-0.216-1.299-0.108c-0.758 0.216-1.624 0.325-2.382 0.325-1.515 0-2.923-0.325-4.222-1.082 0.758 1.84 0.649 3.897-0.216 5.737-0.108 0.325-0.325 0.541-0.541 0.866 0.433-0.108 0.866-0.325 1.515-0.758 0.758-0.541 1.732 0 2.057 0.974zM25.125 20.269c0.325 0.866-0.108 1.624-0.433 2.382-0.216 0.433-0.433 0.866-0.541 1.299l0.974-3.68zM14.733 9.227v0 0c-1.515 0.433-2.706 0.216-3.572-0.216-0.866-0.541-1.624-1.299-1.949-2.165-0.433-0.974-0.541-1.949-0.325-2.815s0.649-1.515 1.299-1.84c1.84-0.758 3.789-1.191 5.629-1.191 0.541 0 0.974 0.325 1.299 0.866s0.433 1.299 0.325 1.949c-0.108 0.433-0.108 0.974-0.108 1.515 0 1.515 0.433 3.031 1.082 4.33-1.191-0.541-2.49-0.649-3.68-0.433z"></path>
<path fill="#ac562a" d="M5.423 12.583c0 0.419-0.339 0.758-0.758 0.758s-0.758-0.339-0.758-0.758c0-0.419 0.339-0.758 0.758-0.758s0.758 0.339 0.758 0.758z"></path>
<path fill="#ac562a" d="M16.681 26.114c0 0.419-0.339 0.758-0.758 0.758s-0.758-0.339-0.758-0.758c0-0.419 0.339-0.758 0.758-0.758s0.758 0.339 0.758 0.758z"></path>
<path fill="#ac562a" d="M12.459 26.764c0 0.717-0.582 1.299-1.299 1.299s-1.299-0.582-1.299-1.299c0-0.717 0.582-1.299 1.299-1.299s1.299 0.582 1.299 1.299z"></path>
</svg>
