<!-- Generated by IcoMoon.io -->
<svg version="1.1" xmlns="http://www.w3.org/2000/svg" viewBox="0 0 32 32">
<title>bal</title>
<path fill="#1e1e1e" d="M16 0c8.835 0 16 7.165 16 16s-7.165 16-16 16-16-7.165-16-16 7.165-16 16-16z"></path>
<path fill="#fff" d="M16.24 22.688c-5.117 0-9.264-1.478-9.264-3.459 0-1.034 1.13-1.965 2.938-2.621 1.411 0.906 3.779 1.37 6.464 1.37 2.621 0 4.938-0.566 6.362-1.434 1.706 0.65 2.765 1.555 2.765 2.554 0 1.984-4.147 3.59-9.264 3.59z"></path>
<path fill="#fff" d="M16.294 17.533c-3.878 0-7.024-1.216-7.024-2.717 0-0.832 0.97-1.578 2.49-2.074 1.085 0.566 2.71 0.928 4.534 0.928s3.45-0.362 4.534-0.928c1.523 0.499 2.49 1.242 2.49 2.074 0.003 1.501-3.142 2.717-7.024 2.717z"></path>
<path fill="#fff" d="M16.269 13.219c-2.998 0-5.43-1.005-5.43-2.24s2.432-2.24 5.43-2.24 5.43 1.005 5.43 2.24-2.432 2.24-5.43 2.24z"></path>
</svg>
