<!-- Generated by IcoMoon.io -->
<svg version="1.1" xmlns="http://www.w3.org/2000/svg" viewBox="0 0 32 32">
<title>ban</title>
<path fill="#fbdd11" d="M16 0c8.837 0 16 7.163 16 16s-7.163 16-16 16c-8.837 0-16-7.163-16-16s7.163-16 16-16z"></path>
<path fill="#e8c900" d="M32 16c0 8.837-7.163 16-16 16s-16-7.163-16-16c0-0.053 0-0.107 0.001-0.16 0.086 8.763 7.216 15.84 15.999 15.84s15.913-7.077 15.999-15.84c0.001 0.053 0.001 0.107 0.001 0.16z"></path>
<path fill="#ffef7f" d="M31.999 16.16c-0.086-8.763-7.216-15.84-15.999-15.84s-15.913 7.077-15.999 15.84c-0.001-0.053-0.001-0.107-0.001-0.16 0-8.837 7.163-16 16-16s16 7.163 16 16c0 0.053-0 0.107-0.001 0.16v0z"></path>
<path fill="#2a2a2e" d="M16 1.6c7.953 0 14.4 6.447 14.4 14.4s-6.447 14.4-14.4 14.4c-7.953 0-14.4-6.447-14.4-14.4s6.447-14.4 14.4-14.4z"></path>
<path fill="#000" d="M16 0c8.837 0 16 7.163 16 16s-7.163 16-16 16c-8.837 0-16-7.163-16-16s7.163-16 16-16z"></path>
<path fill="#000" d="M20.172 20.919c-5.95 0.749-8.689-4.489-8.203-5 0.321-0.337 0.82-0.358 1.252-0.369 1.989-0.054 4.805 2.269 5.376 2.257 1.106-0.023 2.77-1.78 3.86-3.229 0.456-0.606 3.307-1.519 2.991 0.073-1.025 5.165-4.518 6.173-5.276 6.269zM11.892 11.145c5.95-0.749 8.689 4.489 8.203 5-0.321 0.337-0.82 0.358-1.252 0.369-1.989 0.054-4.805-2.269-5.376-2.257-1.106 0.023-2.77 1.78-3.86 3.229-0.456 0.606-3.307 1.519-2.991-0.073 1.025-5.165 4.518-6.173 5.276-6.269z"></path>
<path fill="#fbdd11" d="M20.172 20.919c-5.95 0.749-8.689-4.489-8.203-5 0.321-0.337 0.82-0.358 1.252-0.369 1.989-0.054 4.805 2.269 5.376 2.257 1.106-0.023 2.77-1.78 3.86-3.229 0.456-0.606 3.307-1.519 2.991 0.073-1.025 5.165-4.518 6.173-5.276 6.269zM11.892 11.145c5.95-0.749 8.689 4.489 8.203 5-0.321 0.337-0.82 0.358-1.252 0.369-1.989 0.054-4.805-2.269-5.376-2.257-1.106 0.023-2.77 1.78-3.86 3.229-0.456 0.606-3.307 1.519-2.991-0.073 1.025-5.165 4.518-6.173 5.276-6.269z"></path>
<path fill="#ffef7f" d="M20.137 16.066c-0.211-1.276-2.963-5.33-8.245-4.665-0.758 0.095-4.251 1.104-5.276 6.269-0.007 0.033-0.012 0.065-0.016 0.096-0.015-0.101-0.011-0.217 0.016-0.352 1.025-5.165 4.518-6.173 5.276-6.269 5.72-0.72 8.473 4.095 8.245 4.921zM11.927 16.254c-0.027-0.161-0.013-0.278 0.042-0.335 0.321-0.337 0.82-0.358 1.252-0.369 1.989-0.054 4.805 2.269 5.376 2.257 1.106-0.023 2.77-1.78 3.86-3.229 0.447-0.594 3.19-1.482 3.006-0.023-0.164-1.088-2.589-0.276-3.006 0.279-1.090 1.449-2.754 3.207-3.86 3.229-0.571 0.011-3.387-2.311-5.376-2.257-0.432 0.012-0.931 0.032-1.252 0.369-0.019 0.020-0.033 0.046-0.042 0.079z"></path>
<path fill="#e8c900" d="M20.137 15.81c0.027 0.161 0.013 0.278-0.042 0.336-0.321 0.337-0.82 0.358-1.252 0.369-1.989 0.054-4.805-2.269-5.376-2.257-1.106 0.023-2.77 1.78-3.86 3.229-0.447 0.594-3.19 1.482-3.006 0.023 0.164 1.088 2.589 0.276 3.006-0.279 1.090-1.449 2.754-3.207 3.86-3.229 0.571-0.012 3.387 2.311 5.376 2.257 0.432-0.012 0.931-0.032 1.252-0.369 0.019-0.020 0.033-0.046 0.042-0.079zM11.927 15.998c0.211 1.276 2.963 5.33 8.245 4.665 0.758-0.095 4.251-1.104 5.276-6.269 0.007-0.033 0.012-0.065 0.016-0.096 0.015 0.101 0.011 0.217-0.016 0.352-1.025 5.165-4.518 6.173-5.276 6.269-5.721 0.72-8.474-4.095-8.245-4.921z"></path>
</svg>
