<!-- Generated by IcoMoon.io -->
<svg version="1.1" xmlns="http://www.w3.org/2000/svg" viewBox="0 0 32 32">
<title>band</title>
<path fill="#516aff" d="M32 16c0 8.837-7.163 16-16 16s-16-7.163-16-16c0-8.837 7.163-16 16-16s16 7.163 16 16z"></path>
<path fill="#fff" d="M18.8 11.6l2.8 1.6v-8l-5.6-2.8-8.7 4.9v17.4l8.7 5 8.6-5.1v-8.6l-8.3-5-2.8 1.4 8.3 4.9 0.1 5.9-5.9 3.3-6-3.4v-14.4l6-3.3 2.8 1.5c0 0 0 4.7 0 4.7z"></path>
<path fill="#fff" d="M15.7 16.4l1.9-1 2.1 1.3-6.2 3.5v-7.2l2.2 1.3z"></path>
</svg>
