<!-- Generated by IcoMoon.io -->
<svg version="1.1" xmlns="http://www.w3.org/2000/svg" viewBox="0 0 32 32">
<title>bcd</title>
<path fill="#000" d="M26.929 5.071l-4.972-2.609h-12.258l-4.726 2.658-4.972 6.548 15.902 18.068 15.902-18.068zM30.178 11.372l-6.203 3.151-2.018-6.154 4.578-2.215zM10.092 3.446h11.471l3.889 2.018-3.938 1.871h-11.471l-3.446-1.822zM5.317 6.154l4.037 2.215-1.428 6.154-6.548-3.298zM2.658 13.095l5.071 2.609 6.203 10.683zM15.852 27.717l-7.040-12.209 1.723-7.138h10.486l1.871 6.942zM17.625 26.338l6.302-10.585 5.268-2.658z"></path>
<path fill="#fcc339" d="M20.382 16.64c-0.276-0.688-0.777-1.238-1.411-1.567l-0.017-0.008c0.405-0.142 0.722-0.444 0.883-0.827l0.004-0.010c0.098-0.295 0.098-0.542 0.049-0.837 0 0-0.049-0.443-0.197-0.837-0.295-0.64-1.28-1.231-2.658-1.378v-1.575h-1.231v1.575h-0.935v-1.575h-1.28v1.575h-2.018v1.034c0.459 0.056 0.848 0.315 1.079 0.683l0.004 0.006c0.197 0.295 0.197 0.542 0.246 0.689l0.098 3.938c0 0.492-0.197 0.935-0.591 1.182-0.492 0.295-0.985 0.148-1.083 0.148v1.132h2.215v1.674h1.329v-1.477h0.935l0.049 1.477h1.231v-1.625h1.182c0.007 0 0.015 0 0.024 0 0.464 0 0.897-0.128 1.267-0.351l-0.011 0.006c0.935-0.64 1.231-2.018 0.837-3.052zM14.966 12.751h1.575c0.591 0 1.083 0.443 1.083 1.034s-0.443 1.083-1.034 1.083h-1.625zM16.935 18.56h-1.871v-2.314h1.871c0.591 0.049 1.083 0.542 1.132 1.083 0.049 0.64-0.443 1.182-1.132 1.231z"></path>
</svg>
