<!-- Generated by IcoMoon.io -->
<svg version="1.1" xmlns="http://www.w3.org/2000/svg" viewBox="0 0 32 32">
<title>bch</title>
<path fill="#0ac18e" d="M32 16c0 8.837-7.163 16-16 16s-16-7.163-16-16c0-8.837 7.163-16 16-16s16 7.163 16 16z"></path>
<path fill="#fff" d="M20.991 10.627c-0.804-1.823-2.652-2.213-4.914-1.836l-0.727-2.818-1.714 0.443 0.715 2.81c-0.451 0.114-0.914 0.211-1.373 0.341l-0.715-2.794-1.714 0.443 0.727 2.818c-0.37 0.106-3.46 0.897-3.46 0.897l0.471 1.836c0 0 1.259-0.353 1.247-0.325 0.698-0.183 1.027 0.166 1.182 0.495l1.998 7.724c0.024 0.223-0.016 0.605-0.495 0.735 0.028 0.016-1.247 0.321-1.247 0.321l0.187 2.14c0 0 3.062-0.784 3.464-0.885l0.735 2.851 1.714-0.443-0.735-2.871c0.471-0.11 0.93-0.223 1.377-0.341l0.731 2.855 1.714-0.443-0.735-2.847c2.64-0.642 4.504-2.307 4.122-4.853-0.244-1.535-1.921-2.794-3.314-2.936 0.857-0.759 1.291-1.868 0.759-3.318v0zM20.166 17.348c0.341 2.522-3.163 2.83-4.321 3.135l-1.007-3.773c1.161-0.305 4.751-1.584 5.328 0.638zM18.055 12.211c0.361 2.242-2.636 2.502-3.602 2.749l-0.918-3.423c0.971-0.24 3.785-1.401 4.52 0.674z"></path>
</svg>
