<!-- Generated by IcoMoon.io -->
<svg version="1.1" xmlns="http://www.w3.org/2000/svg" viewBox="0 0 32 32">
<title>beam</title>
<path fill="#000" d="M32 16c0 8.837-7.163 16-16 16s-16-7.163-16-16c0-8.837 7.163-16 16-16s16 7.163 16 16z"></path>
<path fill="#000" stroke="#fff" stroke-linejoin="miter" stroke-linecap="butt" stroke-miterlimit="4" stroke-width="0.6809" d="M30.597 16c0 8.062-6.535 14.597-14.597 14.597s-14.597-6.535-14.597-14.597c0-8.062 6.535-14.597 14.597-14.597s14.597 6.535 14.597 14.597z"></path>
<path fill="#0b76ff" d="M15.925 19.259h5.358l-5.357-9.281v-5.626l10.499 17.894h-10.5z"></path>
<path fill="#24c1ff" d="M15.924 19.259l0.001 2.987h-10.501l10.499-17.894 0.001 5.626-0.001-0.001-5.357 9.282z"></path>
<path fill="#39fff2" d="M15.925 12.281v5.887l-3.322 0.006z"></path>
<path fill="#00e2c2" d="M15.925 12.281l3.321 5.893-3.321-0.006z"></path>
<path fill="#000" d="M2.959 10.46l12.966 5.358v0.75l-12.966-3.214z"></path>
<path fill="#000" d="M28.89 8.213l-12.965 7.604v0.206l12.965-5.349z"></path>
<path fill="#000" d="M28.88 15.603l-12.955 0.963v-0.213l12.955-3.215z"></path>
<path fill="#000" d="M28.89 10.777l-12.965 5.258v0.318l12.965-3.322z"></path>
</svg>
