<!-- Generated by IcoMoon.io -->
<svg version="1.1" xmlns="http://www.w3.org/2000/svg" viewBox="0 0 32 32">
<title>bf</title>
<path fill="#265fac" d="M0 0h32v32h-32v-32z"></path>
<path fill="#fff" d="M26.467 10.63c-0.308 3.355-3.632 2.934-3.632 2.934v-2.934h-3.333v2.934h-7.195v-2.934h-3.264v2.925c-3.278 0.2-3.494-2.863-3.494-2.863h-3.277v0.135c0 0 0 0 0 0 0 3.234 2.576 5.866 5.787 5.957l0.008 0 0.946 0.026v4.179c0 3.531 2.863 6.394 6.394 6.394h1.041c3.527-0.011 6.384-2.868 6.395-6.394v-4.203h0.986c3.259 0 5.902-2.642 5.902-5.902v-0.255h-3.262zM19.517 20.63c0.001 0.027 0.001 0.060 0.001 0.092 0 1.983-1.608 3.591-3.591 3.591-1.975 0-3.577-1.594-3.591-3.566v-0.001q0-0.058 0-0.115v-3.913h7.18v3.913z"></path>
</svg>
