<!-- Generated by IcoMoon.io -->
<svg version="1.1" xmlns="http://www.w3.org/2000/svg" viewBox="0 0 32 32">
<title>bifi</title>
<path fill="#fff" d="M1.699 8.212c1.784 0 3.568 0 5.381 0 0 0.113 0 0.227 0 0.34 0 0.481-0.028 0.963 0 1.444 0.085 0.878 0.311 1.727 0.68 2.549 0.34 0.736 0.765 1.388 1.331 1.954 0.68 0.708 1.501 1.246 2.464 1.529 0.085 0.028 0.113 0.057 0.113 0.142-0.028 0.453 0.057 0.878-0.057 1.331-0.17 0.736-0.595 1.246-1.246 1.529-0.312 0.142-0.623 0.198-0.963 0.198-1.076 0-2.181 0-3.257 0-0.51 0-0.991-0.085-1.416-0.396-0.623-0.453-0.906-1.104-0.906-1.897 0-2.124 0-4.276 0-6.4 0-0.057 0-0.113 0-0.17 0-0.312-0.198-0.481-0.481-0.566-0.736-0.227-1.274-0.736-1.614-1.416 0-0.028-0.028-0.085-0.028-0.113 0 0 0-0.028 0-0.057zM4.842 12.998c0 0.396 0.283 0.708 0.68 0.708 0.368 0 0.708-0.312 0.708-0.708s-0.311-0.708-0.708-0.736c-0.34 0.028-0.708 0.312-0.68 0.736z"></path>
<path fill="#fff" d="M10.789 12.998c0 0.34-0.312 0.651-0.651 0.651s-0.651-0.312-0.651-0.68c0-0.34 0.312-0.651 0.651-0.651 0.368 0.028 0.708 0.368 0.651 0.68z"></path>
<path fill="#000" d="M4.842 12.998c-0.028-0.425 0.34-0.708 0.68-0.708 0.396 0 0.708 0.34 0.708 0.736s-0.34 0.708-0.708 0.708c-0.396-0.028-0.68-0.34-0.68-0.736z"></path>
<path fill="#000" d="M31.094 20.333c0 0 0 0 0 0 0.028 0 0.028 0 0 0 0.057 0 0.057 0 0.085 0s0.085-0.028 0.113-0.028c0.028-0.028 0.028-0.028 0.057-0.057 0 0 0 0 0 0 0.311-0.198 0.283-0.51 0.283-0.821 0-1.416 0-2.86 0-4.276 0-0.453-0.057-0.906-0.198-1.359-0.51-1.558-1.954-2.69-3.653-2.69-1.812-0.028-3.625-0.028-5.437-0.028-3.115 0-6.23 0-9.317-0.028-0.028 0-0.085 0-0.113 0-0.057 0-0.085-0.028-0.142-0.028-0.057-0.142 0-0.227 0.142-0.283 0.057-0.028 0.085-0.028 0.142-0.057 0.85-0.425 1.444-1.133 1.812-2.011 0.142-0.312 0.255-0.651 0.283-0.991 0-0.396-0.198-0.623-0.595-0.623-0.765 0-1.529 0-2.294-0.028-0.085 0-0.142 0-0.227 0 0-0.085 0-0.142 0-0.227 0-0.368 0-0.736 0-1.076 0-0.17-0.028-0.34-0.057-0.481-0.198-0.708-0.906-1.189-1.727-1.019-0.566 0.113-1.076 0.651-1.104 1.218-0.028 0.453-0.028 0.906-0.028 1.359 0 0.085 0 0.17 0 0.227h-2.69c0-0.085 0-0.17 0-0.255 0-0.396 0-0.793 0-1.189-0.028-0.963-0.963-1.671-1.954-1.331-0.595 0.198-0.991 0.793-0.991 1.444 0 0.368 0 0.736 0 1.104 0 0.085 0 0.142 0 0.227-0.085 0-0.17 0-0.255 0-0.765 0-1.529 0-2.294 0.028-0.368 0-0.595 0.227-0.566 0.595 0.028 0.227 0.085 0.453 0.142 0.651 0.34 1.048 0.991 1.869 1.982 2.379 0.198 0.113 0.255 0.198 0.255 0.425 0 2.011 0 3.993 0 6.004 0 0.283 0.028 0.566 0.113 0.821 0.396 1.303 1.246 2.124 2.549 2.379 0.028 0 0.057 0.028 0.085 0.028 0 0 0.028 0 0.028 0s0.028 0 0.057 0c0.028 0 0.057 0 0.057 0.028 0 0 0 0 0 0 0.028 0 0.057 0 0.085 0 0.113 0 0.198 0 0.311 0 0.028 0 0.057 0 0.085 0 0.17 0 0.34 0 0.51 0 0.057 0 0.085 0 0.142 0h2.067c0 0 0 0 0 0 0.028 0 0.057 0 0.085 0 0 0 0 0 0 0 0.283 0 0.453 0.142 0.595 0.368 0.057 0.142 0.142 0.311 0.142 0.481 0 0.028 0 0.028 0 0.057 0 0.113 0 0.255 0 0.368 0 0.028 0 0.028 0 0.057 0.028 0.453 0.028 0.934 0.057 1.388 0.028 0.708 0.057 1.416 0.085 2.124 0.028 0.538 0.028 1.076 0.028 1.614 0.028 0.538 0.396 0.934 0.878 0.963 1.133 0 2.237 0 3.37 0 0.396 0 0.736-0.283 0.821-0.68 0.113-0.481 0.227-0.991 0.312-1.473 0.113-0.51 0.227-0.991 0.34-1.501 0.057 0 0.057-0.028 0.085-0.028 2.322 0 4.616 0 6.938 0 0.142 0 0.17 0.057 0.198 0.17 0.057 0.311 0.142 0.623 0.198 0.963 0.142 0.595 0.255 1.218 0.396 1.812 0.085 0.396 0.453 0.736 0.85 0.765 1.133 0 2.237 0 3.37 0 0.453 0 0.85-0.396 0.878-0.878 0.028-0.566 0.057-1.133 0.085-1.727 0.028-0.708 0.085-1.416 0.113-2.152 0.028-0.425 0.028-0.821 0.057-1.246 0.028-0.736 0.085-1.444 0.113-2.181 0.057-0.793 0.085-1.614 0.113-2.407 0.028-0.68 0.085-1.359 0.085-2.039 0-0.991-0.34-1.869-0.934-2.605-0.028-0.028-0.057-0.085-0.085-0.142 0.057 0 0.085 0 0.113 0 1.218 0.17 2.181 1.303 2.181 2.549 0 1.501 0 2.973 0 4.474 0 0.283 0.028 0.566 0.255 0.765 0 0 0 0 0 0 0.227 0.085 0.368 0.113 0.538 0.113 0 0 0 0 0 0zM10.223 5.664c0-0.17 0.17-0.34 0.34-0.34 0.142 0 0.34 0.113 0.34 0.283 0 0.481 0 0.934 0 1.416h-0.68c0-0.481 0-0.934 0-1.359zM10.166 12.347c0.34 0 0.68 0.34 0.651 0.68 0 0.34-0.312 0.651-0.651 0.651s-0.651-0.312-0.651-0.68c0-0.34 0.312-0.651 0.651-0.651zM4.588 5.749c0-0.085 0-0.17 0.057-0.227 0.057-0.142 0.227-0.227 0.34-0.198 0.17 0.028 0.283 0.17 0.283 0.34 0 0.425 0 0.85 0 1.274 0 0.028 0 0.028-0.028 0.085h-0.623c0-0.057-0.028-0.085-0.028-0.142 0-0.368 0-0.765 0-1.133zM10.365 19.058c-0.312 0.142-0.623 0.198-0.963 0.198-1.076 0-2.181 0-3.257 0-0.51 0-0.991-0.085-1.416-0.396-0.623-0.453-0.906-1.104-0.906-1.897 0-2.124 0-4.276 0-6.4 0-0.057 0-0.113 0-0.17 0-0.312-0.198-0.481-0.481-0.566-0.736-0.227-1.274-0.736-1.614-1.416 0-0.057-0.028-0.113-0.028-0.142 0 0 0-0.028 0-0.057h5.381c0 0.113 0 0.227 0 0.34 0 0.481-0.028 0.963 0 1.444 0.085 0.878 0.311 1.727 0.68 2.549 0.34 0.736 0.765 1.388 1.331 1.954 0.68 0.708 1.501 1.246 2.464 1.529 0.085 0.028 0.113 0.057 0.113 0.142-0.028 0.453 0.057 0.878-0.057 1.331-0.142 0.736-0.566 1.246-1.246 1.558zM27.809 15.547c-0.057 0.708-0.085 1.416-0.113 2.124-0.057 0.906-0.085 1.812-0.142 2.719-0.057 1.019-0.113 2.067-0.17 3.087-0.028 0.623-0.085 1.246-0.113 1.869-0.028 0.396-0.057 0.765-0.085 1.189h-2.605c-0.311-1.218-0.538-2.435-0.85-3.681-0.085 0-0.142-0.028-0.198-0.028-2.945 0-5.89 0-8.807 0-0.227 0-0.227 0.028-0.283 0.227-0.113 0.538-0.255 1.104-0.368 1.642-0.113 0.51-0.227 1.048-0.34 1.558-0.057 0.255-0.057 0.255-0.283 0.255-0.736 0-1.444 0-2.152 0-0.227 0-0.227 0-0.227-0.255 0-1.416-0.028-2.832-0.028-4.219 0-0.623 0-1.246-0.028-1.869 0-0.142 0.028-0.227 0.17-0.283 0.708-0.425 1.218-1.048 1.473-1.869 0.085-0.255 0.113-0.51 0.113-0.765 0-1.529 0-3.058 0-4.588 0-0.057 0-0.113 0-0.17 0-0.113 0.057-0.142 0.142-0.142 0.057 0 0.113 0 0.17 0 0.934 0 1.841 0 2.775 0v0h8.835v0.028c0.453 0 0.878 0 1.331 0 0.142 0 0.255 0.057 0.34 0.17 0.198 0.227 0.368 0.425 0.566 0.623 0.623 0.651 0.963 1.444 0.878 2.379z"></path>
<path fill="#000" d="M31.122 20.701v0 0h-0.028c-0.17 0-0.396-0.028-0.623-0.142l-0.142-0.057-0.028-0.085c-0.255-0.283-0.283-0.651-0.283-0.963 0-1.331 0-2.662 0-3.993v-0.481c0-0.793-0.453-1.529-1.133-1.926 0.368 0.68 0.566 1.388 0.538 2.152 0 0.481-0.028 0.963-0.057 1.416 0 0.227-0.028 0.425-0.028 0.651l-0.028 0.85c-0.028 0.538-0.057 1.048-0.085 1.586-0.028 0.425-0.057 0.821-0.085 1.246-0.028 0.311-0.028 0.623-0.057 0.934 0 0.227-0.028 0.453-0.028 0.68 0 0.198-0.028 0.368-0.028 0.566-0.028 0.425-0.057 0.821-0.057 1.246l-0.085 1.303c-0.028 0.425-0.057 0.878-0.057 1.303-0.028 0.651-0.595 1.189-1.218 1.189-1.133 0-2.237 0-3.37 0-0.566 0-1.076-0.453-1.189-1.019-0.085-0.396-0.17-0.821-0.255-1.218l-0.17-0.765c-0.057-0.227-0.085-0.425-0.142-0.651-1.727 0-3.427 0-5.126 0h-1.501l-0.057 0.198c-0.085 0.34-0.17 0.68-0.227 1.048-0.028 0.198-0.085 0.368-0.113 0.566-0.057 0.311-0.142 0.595-0.198 0.906-0.142 0.566-0.623 0.963-1.161 0.963-0.595 0-1.161 0-1.727 0s-1.104 0-1.642 0c-0.68 0-1.218-0.566-1.218-1.303 0-0.255 0-0.538-0.028-0.793 0-0.283 0-0.538-0.028-0.821 0-0.481-0.028-0.963-0.057-1.444l-0.085-2.124v-0.028c0-0.113 0-0.227 0-0.34v-0.085c0-0.057-0.028-0.142-0.113-0.34-0.057-0.113-0.142-0.17-0.283-0.17h-0.028c-0.028 0-0.057 0-0.057 0h-2.067c-0.028 0-0.085 0-0.113 0h-0.142c-0.142 0-0.283 0-0.425 0v0 0c-0.028 0-0.028 0-0.057 0-0.113 0-0.227 0-0.311 0l-0.227-0.028-0.142-0.057c-1.416-0.283-2.379-1.161-2.804-2.605-0.085-0.255-0.113-0.566-0.113-0.934 0-1.926 0-3.936 0-6.004 0-0.057 0-0.085 0-0.085s-0.028 0-0.057-0.028c-1.048-0.538-1.756-1.388-2.152-2.577-0.085-0.227-0.142-0.481-0.17-0.736s0.057-0.51 0.227-0.68c0.17-0.17 0.425-0.283 0.68-0.283 0.566 0 1.133 0 1.699 0h0.51v-0.113c0-0.311 0-0.623 0-0.906 0-0.821 0.481-1.529 1.218-1.784 0.566-0.198 1.161-0.113 1.642 0.227 0.453 0.34 0.736 0.85 0.765 1.416 0 0.283 0 0.566 0 0.821 0 0.085 0 0.17 0 0.283h2.011c0-0.113 0-0.227 0-0.34 0-0.311 0-0.623 0.028-0.934 0.028-0.736 0.623-1.388 1.359-1.558 0.934-0.198 1.869 0.368 2.124 1.274 0.057 0.17 0.057 0.34 0.085 0.566 0 0.255 0 0.481 0 0.736 0 0.085 0 0.17 0 0.227h0.821c0.453 0 0.906 0 1.359 0 0.283 0 0.538 0.085 0.708 0.255s0.255 0.425 0.227 0.708c0 0.425-0.17 0.793-0.312 1.133-0.34 0.793-0.85 1.416-1.501 1.869h2.152c2.181 0 4.333 0 6.513 0 2.011 0 3.71 0 5.437 0.028 1.812 0.028 3.398 1.189 3.965 2.945 0.142 0.425 0.198 0.906 0.227 1.473 0 0.878 0 1.756 0 2.634 0 0.538 0 1.104 0 1.642 0 0.227 0 0.51-0.142 0.765l-0.736 0.595zM9.996 21.749l0.085 2.039c0.028 0.481 0.028 0.963 0.057 1.444 0 0.283 0 0.538 0.028 0.821 0 0.255 0 0.538 0.028 0.793 0 0.34 0.255 0.595 0.538 0.623 1.048 0 2.152 0 3.37 0 0.227 0 0.453-0.17 0.51-0.425 0.057-0.311 0.142-0.595 0.198-0.906 0.028-0.198 0.085-0.396 0.113-0.566 0.085-0.34 0.17-0.68 0.227-1.048l0.142-0.651 0.227-0.057c0.028 0 0.085-0.028 0.142-0.028h1.699c1.756 0 3.483 0 5.239 0 0 0 0 0 0 0 0.283 0 0.481 0.17 0.538 0.453 0.057 0.255 0.113 0.51 0.17 0.736l0.17 0.765c0.085 0.425 0.17 0.821 0.255 1.246 0.057 0.255 0.283 0.481 0.538 0.481 1.133 0 2.237 0 3.37 0 0.255 0 0.51-0.255 0.538-0.538 0.028-0.425 0.057-0.878 0.057-1.303l0.085-1.303c0.028-0.425 0.057-0.821 0.057-1.246 0-0.198 0.028-0.368 0.028-0.566 0-0.227 0.028-0.453 0.028-0.68 0.028-0.311 0.028-0.623 0.057-0.934 0.028-0.425 0.057-0.821 0.085-1.246 0.028-0.538 0.057-1.048 0.085-1.586l0.028-0.85c0-0.227 0.028-0.425 0.028-0.651 0.028-0.453 0.057-0.934 0.057-1.388 0-0.85-0.283-1.671-0.85-2.379-0.028-0.028-0.057-0.085-0.085-0.113l-0.368-0.538 0.623-0.057c0.028 0 0.085 0 0.142 0 1.359 0.198 2.492 1.473 2.492 2.889v0.481c0 1.331 0 2.662 0 3.993 0 0.227 0.028 0.368 0.113 0.481 0.057 0.028 0.113 0.028 0.17 0.028h0.113c0 0 0.028 0 0.028 0s0 0 0.028 0h0.028c0.142-0.085 0.142-0.198 0.142-0.51 0-0.566 0-1.104 0-1.671 0-0.878 0-1.756 0-2.634 0-0.481-0.057-0.878-0.17-1.246-0.481-1.444-1.812-2.435-3.313-2.464-1.727-0.028-3.427-0.028-5.437-0.028-2.181 0-4.333 0-6.513 0h-2.889c-0.057 0-0.085 0-0.142 0s-0.085-0.028-0.142-0.028l-0.227-0.057-0.057-0.198c-0.113-0.312 0.028-0.595 0.34-0.708 0.028-0.028 0.085-0.028 0.113-0.057 0.736-0.396 1.303-0.991 1.671-1.841 0.113-0.283 0.227-0.566 0.255-0.85 0-0.113 0-0.17-0.057-0.198-0.028-0.028-0.113-0.057-0.198-0.057-0.453 0-0.906 0-1.359 0h-0.934c-0.057 0-0.113 0-0.17 0l-0.396-0.028-0.028-0.396c0-0.057 0-0.113 0-0.17 0-0.113 0-0.255 0-0.368 0-0.227 0-0.481 0-0.708 0-0.113 0-0.283-0.057-0.396-0.142-0.481-0.651-0.906-1.331-0.793-0.425 0.085-0.821 0.51-0.85 0.906-0.028 0.283-0.028 0.595-0.028 0.906 0 0.142 0 0.283 0 0.425 0 0.057 0 0.113-0.028 0.17l-0.028 0.396h-3.313v-0.595c0-0.113 0-0.255 0-0.368 0-0.255 0-0.538 0-0.793 0-0.368-0.17-0.68-0.481-0.878-0.283-0.198-0.68-0.255-1.019-0.142-0.453 0.142-0.736 0.595-0.736 1.104 0 0.311 0 0.623 0 0.934v0.198c0 0.057 0 0.113 0 0.17l-0.028 0.396h-1.161c-0.566 0-1.133 0-1.699 0-0.085 0-0.142 0.028-0.198 0.057-0.028 0.028-0.028 0.113-0.028 0.17 0 0.198 0.085 0.396 0.142 0.566 0.311 0.991 0.934 1.727 1.784 2.152 0.312 0.17 0.453 0.396 0.453 0.736 0 2.067 0 4.078 0 6.004 0 0.283 0.028 0.538 0.085 0.736 0.368 1.189 1.104 1.897 2.294 2.124 0.057 0 0.113 0.028 0.142 0.057 0 0 0 0 0 0s0 0 0.028 0c0 0 0.028 0 0.028 0 0.028 0 0.028 0 0.057 0 0.085 0 0.17 0 0.283 0 0 0 0.028 0 0.057 0 0.142 0 0.283 0 0.453 0h0.057c0.057 0 0.113 0 0.17 0h2.407v0.028c0.283 0.057 0.51 0.255 0.651 0.538 0.057 0.142 0.17 0.368 0.17 0.595 0 0.028 0 0.057 0 0.113 0 0.113 0 0.227 0 0.34 0.028 0.085 0.028 0.113 0.028 0.142zM5.465 20.701c0 0 0.028 0 0 0v0zM11.299 26.903c-0.425 0-0.566-0.17-0.566-0.595l-0.028-4.474c0-0.538 0-1.104-0.028-1.642 0-0.255 0.113-0.453 0.34-0.595 0.651-0.396 1.104-0.963 1.331-1.671 0.057-0.198 0.085-0.425 0.085-0.68 0-1.161 0-2.294 0-3.455v-1.189c0-0.028 0-0.057 0-0.113 0-0.198 0.057-0.312 0.142-0.368 0.057-0.057 0.17-0.142 0.368-0.142h0.708c0.651 0 1.303 0 1.982 0h9.402v0.057c0.311 0 0.651 0 0.963 0 0 0 0 0 0 0 0.255 0 0.453 0.085 0.595 0.283 0.17 0.198 0.368 0.396 0.566 0.623 0.736 0.736 1.076 1.642 0.991 2.662-0.028 0.481-0.057 0.991-0.085 1.473l-0.17 3.342c-0.057 1.019-0.113 2.067-0.17 3.087-0.028 0.51-0.057 1.019-0.085 1.558l-0.113 1.841h-3.172l-0.057-0.255c-0.17-0.651-0.311-1.331-0.453-1.982-0.113-0.481-0.227-0.963-0.34-1.444-2.889 0-5.777 0-8.694 0-0.085 0.34-0.142 0.68-0.227 1.019l-0.17 0.708c-0.113 0.481-0.227 0.963-0.34 1.473-0.085 0.396-0.227 0.51-0.623 0.51l-2.152-0.028zM11.384 20.191c0 0.566 0 1.104 0.028 1.642v4.361h2.011c0.113-0.481 0.227-0.963 0.312-1.444l0.17-0.708c0.085-0.34 0.17-0.68 0.227-1.048 0.085-0.34 0.198-0.51 0.595-0.51 2.945 0 5.89 0 8.807 0 0.057 0 0.113 0 0.17 0l0.311 0.028 0.057 0.255c0.142 0.566 0.255 1.133 0.396 1.699 0.113 0.566 0.255 1.133 0.396 1.699h2.039l0.085-1.189c0.028-0.51 0.057-1.019 0.085-1.529 0.057-1.019 0.113-2.067 0.17-3.087l0.17-3.342c0.028-0.51 0.057-0.991 0.085-1.501 0.057-0.821-0.198-1.501-0.793-2.124-0.198-0.227-0.425-0.425-0.595-0.651-0.028-0.028-0.028-0.028-0.085-0.028-0.453 0-0.878 0-1.331 0h-0.34v-0.028h-8.467c-0.736 0-1.473 0-2.209 0h-0.51v1.133c0 1.161 0 2.294 0 3.455 0 0.311-0.057 0.623-0.142 0.878-0.312 0.878-0.85 1.558-1.642 2.039zM12.913 12.687c0 0 0 0 0 0v0zM6.145 19.596c-0.651 0-1.161-0.142-1.614-0.481-0.708-0.51-1.048-1.246-1.076-2.181 0-1.501 0-3.002 0-4.474v-1.982c0-0.028 0-0.085 0-0.113 0-0.085-0.028-0.17-0.227-0.227-0.793-0.255-1.388-0.793-1.812-1.586-0.028-0.057-0.057-0.113-0.057-0.17-0.028-0.085-0.028-0.17 0-0.198l0.057-0.283 0.283-0.028h5.72v0.68c0 0.142 0 0.312 0 0.453 0 0.34 0 0.651 0.028 0.963 0.057 0.793 0.283 1.614 0.651 2.407 0.312 0.708 0.736 1.359 1.246 1.869 0.708 0.736 1.444 1.189 2.294 1.444 0.368 0.113 0.368 0.396 0.368 0.481 0 0.142 0 0.283 0 0.425 0 0.311 0.028 0.623-0.057 0.963-0.17 0.821-0.68 1.416-1.444 1.784-0.312 0.142-0.651 0.227-1.104 0.227h-1.189c-0.68 0-1.359 0-2.067 0.028 0 0 0 0 0 0zM2.237 8.552c0.312 0.453 0.708 0.765 1.218 0.906 0.595 0.198 0.708 0.623 0.708 0.878 0 0.057 0 0.113 0 0.142v1.954c0 1.501 0 2.973 0 4.474 0 0.68 0.255 1.218 0.765 1.614 0.311 0.227 0.708 0.34 1.218 0.34 0.68 0 1.388 0 2.067 0h1.189c0.34 0 0.595-0.057 0.821-0.142 0.566-0.255 0.934-0.68 1.048-1.303 0.057-0.255 0.057-0.51 0.028-0.793 0-0.085 0-0.198 0-0.283-0.906-0.283-1.727-0.821-2.464-1.586-0.566-0.566-1.019-1.274-1.388-2.067-0.396-0.878-0.623-1.756-0.708-2.662-0.028-0.34-0.028-0.708-0.028-1.019 0-0.142 0-0.283 0-0.425h-4.474zM10.166 14.018v0c-0.255 0-0.51-0.113-0.708-0.312s-0.283-0.453-0.283-0.708c0-0.538 0.453-0.991 0.991-0.991 0 0 0 0 0 0 0.283 0 0.566 0.142 0.736 0.368 0.17 0.198 0.255 0.453 0.227 0.68 0 0.51-0.453 0.963-0.963 0.963zM10.138 12.687c-0.142 0-0.283 0.142-0.283 0.312 0 0.057 0.028 0.142 0.085 0.198s0.142 0.113 0.227 0.113c0.142 0 0.283-0.142 0.283-0.312v-0.028c0-0.057-0.028-0.113-0.057-0.17-0.057-0.057-0.17-0.113-0.255-0.113 0 0 0 0 0 0zM5.522 7.391h-1.189l-0.057-0.311c0-0.028-0.028-0.085-0.028-0.17 0-0.396 0-0.765 0-1.161 0-0.142 0.028-0.283 0.085-0.368 0.113-0.283 0.453-0.453 0.736-0.396 0.34 0.057 0.566 0.34 0.566 0.68s0 0.68 0 0.991v0.283c0 0.085-0.028 0.142-0.028 0.17l-0.085 0.283zM4.956 5.664c0 0 0 0 0 0s0 0 0 0 0 0 0 0zM11.242 7.363h-1.359v-0.736c0-0.34 0-0.651 0-0.963 0-0.368 0.283-0.651 0.651-0.68 0.17 0 0.368 0.057 0.51 0.17s0.198 0.283 0.227 0.453c0 0.34 0 0.68 0 1.019l-0.028 0.736z"></path>
<path fill="#fff" d="M26.931 13.168c-0.198-0.198-0.396-0.425-0.566-0.623-0.085-0.113-0.198-0.17-0.34-0.17-0.311 0-0.623 0-0.906 0v-0.028h-8.524c-0.085 0-0.142 0-0.227 0-1.104 0-2.209 0-3.313 0-0.057 0-0.113 0-0.17 0-0.113 0-0.142 0.057-0.142 0.142 0 0.057 0 0.113 0 0.17 0 1.529 0 3.058 0 4.588 0 0.255-0.028 0.538-0.113 0.765-0.255 0.793-0.736 1.416-1.473 1.869-0.113 0.085-0.17 0.142-0.17 0.283 0 0.623 0 1.246 0.028 1.869 0 1.416 0.028 2.832 0.028 4.219 0 0.227 0 0.255 0.227 0.255 0.736 0 1.444 0 2.152 0 0.227 0 0.227 0 0.283-0.255 0.113-0.51 0.227-1.048 0.34-1.558 0.113-0.538 0.255-1.104 0.368-1.642 0.057-0.227 0.057-0.227 0.283-0.227 2.945 0 5.89 0 8.807 0 0.057 0 0.142 0 0.198 0.028 0.283 1.246 0.538 2.464 0.85 3.681 0.878 0 1.727 0 2.605 0 0.028-0.425 0.057-0.793 0.085-1.189 0.028-0.623 0.085-1.246 0.113-1.869 0.057-1.019 0.113-2.067 0.17-3.087 0.057-0.906 0.085-1.812 0.142-2.719 0.028-0.708 0.057-1.416 0.113-2.124 0.113-0.934-0.227-1.727-0.85-2.379z"></path>
<path fill="#000" d="M17.388 16.198c1.274 0 2.322-1.048 2.322-2.35s-1.019-2.379-2.322-2.379c-1.274 0-2.322 1.048-2.322 2.35s1.048 2.379 2.322 2.379z"></path>
<path fill="#000" d="M24.042 20.871c1.076 0 1.954-0.878 1.954-1.982s-0.878-1.982-1.954-1.982c-1.076 0-1.954 0.878-1.954 1.982s0.878 1.982 1.954 1.982z"></path>
<path fill="#000" d="M17.444 23.589c1.076-0.028 2.152 0.113 3.2 0.255 0.028 0 0.057 0 0.085 0 0.028-0.17 0.028-0.311 0.028-0.481 0-1.756-1.388-3.172-3.115-3.172s-3.115 1.416-3.115 3.172c0 0.311 0.057 0.595 0.113 0.878 0.736-0.708 1.869-0.623 2.804-0.651z"></path>
<path fill="#000" d="M18.917 11.327c-0.085 0-0.142 0-0.198-0.028-0.283 0.312-0.425 0.651-0.425 1.048 0 1.048 1.161 1.897 2.605 1.897s2.605-0.85 2.605-1.897c0-0.368-0.142-0.736-0.396-1.019h-4.191z"></path>
<path fill="#fff" d="M9.515 12.998c-0.028-0.425 0.34-0.708 0.68-0.708 0.396 0 0.708 0.34 0.708 0.736s-0.34 0.708-0.708 0.708c-0.396-0.028-0.68-0.34-0.68-0.736z"></path>
<path fill="#fff" d="M5.324 6.712c-0.311 0-0.623 0-0.934 0 0-0.057-0.028-0.113-0.028-0.17 0-0.481 0-0.34 0-0.85 0-0.113 0.028-0.227 0.057-0.311 0.085-0.17 0.34-0.283 0.51-0.255 0.255 0.057 0.453 0.227 0.453 0.481 0 0.538 0 0.453 0 1.019 0 0-0.028 0.028-0.057 0.085z"></path>
<path fill="#fff" d="M11.044 6.712c-0.312 0-0.623 0-0.934 0 0-0.057-0.028-0.113-0.028-0.17 0-0.481 0-0.34 0-0.85 0-0.113 0.028-0.227 0.057-0.311 0.085-0.17 0.34-0.283 0.51-0.255 0.255 0.028 0.425 0.227 0.425 0.453 0 0.538 0 0.453 0 1.019 0 0.028-0.028 0.057-0.028 0.113z"></path>
</svg>
