<!-- Generated by IcoMoon.io -->
<svg version="1.1" xmlns="http://www.w3.org/2000/svg" viewBox="0 0 32 32">
<title>bitb</title>
<path fill="#000" d="M4.012 15.178s-1.74-1.45-2.804 0.483c0 0-0.193 0.387 0.29 0.58 0 0-0.483 1.547 1.934 1.837"></path>
<path fill="#000" d="M24.991 13.245s1.16 1.934-0.967 3.287c-0.332 0.242-0.717 0.439-1.131 0.572l-0.029 0.008c-0.58 0.097-1.643 0.483-1.934 1.74 0 0-0.483 1.45-1.74 2.224-0.44 0.301-0.983 0.48-1.569 0.48-0.45 0-0.875-0.106-1.251-0.294l0.016 0.007c-0.31-0.17-0.569-0.397-0.769-0.67l-0.005-0.006-0.097-0.097c1.934-4.060 1.353-8.798 0.773-11.601h0.097s3.094 5.511 8.604 4.35z"></path>
<path fill="#000" d="M18.997 28.713c0.038 0.027 0.070 0.059 0.096 0.095l0.001 0.001c0.001 0.011 0.002 0.023 0.002 0.036 0 0.214-0.173 0.387-0.387 0.387-0.116 0-0.22-0.051-0.291-0.132l-0-0c-1.934-1.547-1.547-3.674-1.547-3.674l-1.16 0.773-0.097-0.677v-0.87l-0.097-1.257 0.967 0.677 0.58 0.193c0.189 0.101 0.329 0.272 0.385 0.478l0.001 0.005z"></path>
<path fill="#000" d="M13.39 23.202h-0.097s-2.804 1.353-5.414 0.483c0 0-0.097 1.16 1.547 1.063h0.097l-0.097 1.547h-0.097c-2.514-0.677-2.514-2.9-2.514-2.9s-4.544-1.74-3.094-7.347c0 0 0.483-1.74 1.837-2.61 0.387-0.483-0.097-0.967-0.097-0.967-1.74-0.58-4.254-2.224-3.577-7.541 0.156-0.943 0.46-1.788 0.89-2.552l-0.020 0.039c0.383-0.583 0.907-1.045 1.524-1.344l0.023-0.010c2.030-1.063 7.154-2.707 11.214 5.317 0.27 0.677 0.536 1.516 0.745 2.377l0.028 0.137c0.58 2.804 1.16 7.541-0.773 11.601-0.401 0.848-0.853 1.578-1.374 2.251l0.020-0.027c0.097 0.773 0.483 1.547 1.353 1.934h0.097v0.87h-0.387c-0.52 0-0.966-0.315-1.157-0.765l-0.003-0.008zM14.26 15.178l-2.030-2.127c0.193 2.127-0.677 2.127-0.677 2.127-1.837-0.58-1.934 1.063-1.934 1.063s-0.967 1.353 0.773 1.257c0.002 0.015 0.003 0.031 0.003 0.048s-0.001 0.034-0.003 0.050l0-0.002 0.58 0.58c0.042 0.024 0.092 0.039 0.145 0.039s0.103-0.014 0.146-0.040l-0.001 0.001c1.353-0.387 1.16-2.32 1.16-2.32zM12.906 13.728c1.063-1.16-0.387-2.32-0.387-2.32z"></path>
<path fill="#000" d="M10.393 17.498c0-0.097 0-0.773-0.773-1.257s0.097-1.643 1.934-1.063c0 0 0.87 0 0.677-2.127l2.030 2.127-1.837 0.677s0.193 1.934-1.16 2.32c-0.042 0.024-0.092 0.039-0.145 0.039s-0.103-0.014-0.146-0.040l0.001 0.001-0.58-0.58c0.002-0.015 0.003-0.031 0.003-0.048s-0.001-0.034-0.003-0.050l0 0.002z"></path>
<path fill="#000" d="M12.52 11.408s1.45 1.16 0.387 2.32z"></path>
<path fill="#000" d="M12.23 28.423c0 0.193-0.097 0.483-0.29 0.483-0.055 0.033-0.122 0.052-0.193 0.052s-0.138-0.019-0.195-0.053l0.002 0.001c-1.063-0.677-1.837-2.417-1.837-2.417l-0.387 0.58 0.097-0.773 0.097-1.547v-0.193l0.773-0.097z"></path>
<path fill="#000" d="M9.619 16.242c0.773 0.483 0.773 1.16 0.773 1.257-1.74 0.097-0.773-1.257-0.773-1.257z"></path>
<path fill="#fff" d="M9.426 4.834c0 1.388-1.125 2.514-2.514 2.514s-2.514-1.125-2.514-2.514c0-1.388 1.125-2.514 2.514-2.514s2.514 1.125 2.514 2.514z"></path>
<path fill="#fff" d="M5.656 7.154c0 0.854-0.693 1.547-1.547 1.547s-1.547-0.693-1.547-1.547c0-0.854 0.693-1.547 1.547-1.547s1.547 0.693 1.547 1.547z"></path>
<path fill="#000" d="M7.299 4.834c0 0.748-0.606 1.353-1.353 1.353s-1.353-0.606-1.353-1.353c0-0.748 0.606-1.353 1.353-1.353s1.353 0.606 1.353 1.353z"></path>
<path fill="#000" d="M4.785 6.961c0 0.534-0.433 0.967-0.967 0.967s-0.967-0.433-0.967-0.967c0-0.534 0.433-0.967 0.967-0.967s0.967 0.433 0.967 0.967z"></path>
<path fill="#000" d="M24.604 18.079l4.931 5.317"></path>
<path fill="#000" d="M20.834 22.042l3.287 3.48"></path>
<path fill="#000" d="M25.958 25.813l4.93 5.124"></path>
<path fill="#000" d="M19.964 26.296l5.027 5.414"></path>
<path fill="#000" d="M13.583 28.036l3.674 3.867"></path>
<path fill="#000" d="M2.369 16.242s-0.483-0.29-0.387-1.353"></path>
<path fill="#c1272d" d="M8.203 10.469c0.278 0.25 0.358 0.614 0.179 0.812s-0.549 0.156-0.826-0.094c-0.278-0.25-0.358-0.614-0.179-0.812s0.549-0.156 0.826 0.094z"></path>
<path fill="none" stroke="#000" stroke-linejoin="miter" stroke-linecap="butt" stroke-miterlimit="10" stroke-width="0.3867" d="M6.429 10.634s2.030 0.387 2.224-1.837"></path>
</svg>
