<!-- Generated by IcoMoon.io -->
<svg version="1.1" xmlns="http://www.w3.org/2000/svg" viewBox="0 0 32 32">
<title>blz</title>
<path fill="#fdba4d" d="M4.967 22.939c0.5-0.497 1.189-0.805 1.95-0.805 1.527 0 2.766 1.238 2.766 2.766s-1.238 2.766-2.766 2.766c-1.527 0-2.766-1.238-2.766-2.766 0-0.761 0.308-1.451 0.805-1.951l0.010-0.010z"></path>
<path fill="#fdba4d" d="M23.901 4.964c0.501-0.501 1.193-0.811 1.958-0.811 1.529 0 2.768 1.239 2.768 2.768s-1.239 2.768-2.768 2.768c-0.764 0-1.457-0.31-1.958-0.811v0c-0.501-0.501-0.811-1.192-0.811-1.956 0-0.762 0.308-1.452 0.807-1.953l-0 0h0.003z"></path>
<path fill="#fdba4d" d="M8.517 20.81l2.921 2.921 2.676-2.676c-1.339-0.547-2.38-1.589-2.915-2.893l-0.013-0.035z"></path>
<path fill="#fdba4d" d="M21.651 13.663l2.676-2.676-2.921-2.921-2.676 2.676c0.687 0.28 1.273 0.674 1.763 1.164v0c0.49 0.487 0.882 1.072 1.145 1.722l0.012 0.035z"></path>
<path fill="#5da9dd" d="M23.807 26.716c-0.501-0.501-0.811-1.193-0.811-1.958 0-1.529 1.239-2.768 2.768-2.768s2.768 1.239 2.768 2.768c0 0.765-0.31 1.457-0.811 1.958v0c-0.501 0.502-1.193 0.812-1.957 0.812-0.763 0-1.454-0.309-1.954-0.809l-0.003-0.003z"></path>
<path fill="#5da9dd" d="M5.245 8.633c-0.501-0.501-0.811-1.193-0.811-1.958 0-1.529 1.239-2.768 2.768-2.768s2.768 1.239 2.768 2.768c0 0.764-0.31 1.457-0.811 1.958v0c-0.501 0.501-1.192 0.81-1.956 0.81s-1.455-0.31-1.956-0.81v0z"></path>
<path fill="#5da9dd" d="M21.185 23.614l2.921-2.921-2.676-2.676c-0.547 1.339-1.589 2.38-2.893 2.915l-0.035 0.013z"></path>
<path fill="#5da9dd" d="M14.337 10.59l-2.676-2.676-2.921 2.921 2.676 2.676c0.28-0.687 0.674-1.273 1.164-1.763v0c0.487-0.49 1.072-0.882 1.722-1.145l0.035-0.012z"></path>
<path fill="#18568c" d="M19.229 2.771c-0.001 1.528-1.24 2.767-2.769 2.767s-2.769-1.24-2.769-2.769 1.24-2.769 2.769-2.769c1.529 0 2.768 1.239 2.769 2.767v0.004z"></path>
<path fill="#18568c" d="M19.229 29.238c-0.001 1.528-1.24 2.767-2.769 2.767s-2.769-1.24-2.769-2.769 1.24-2.769 2.769-2.769c1.529 0 2.768 1.239 2.769 2.767v0z"></path>
<path fill="#18568c" d="M17.464 6.992h-1.743v3.431c0.262-0.048 0.564-0.075 0.872-0.075s0.609 0.027 0.902 0.080l-0.031-0.005z"></path>
<path fill="#18568c" d="M17.464 21.737c-0.262 0.048-0.564 0.075-0.872 0.075s-0.609-0.027-0.902-0.080l0.031 0.005v3.431h1.743z"></path>
<path fill="#18578c" d="M28.718 18.017c-1.528-0.001-2.767-1.24-2.767-2.769s1.24-2.769 2.769-2.769 2.769 1.24 2.769 2.769c0 1.529-1.239 2.768-2.767 2.769h-0.004z"></path>
<path fill="#18578c" d="M3.282 18.488c-1.53 0-2.771-1.241-2.771-2.771s1.241-2.771 2.771-2.771c1.53 0 2.771 1.24 2.771 2.77v0c0 0 0 0 0 0.001 0 1.53-1.241 2.771-2.771 2.771v0z"></path>
<path fill="#18578c" d="M21.672 16.588h3.431v-1.746h-3.431c0.048 0.262 0.075 0.564 0.075 0.871s-0.027 0.609-0.080 0.902l0.005-0.031z"></path>
<path fill="#18578c" d="M11.010 16.588c-0.048-0.262-0.075-0.564-0.075-0.871s0.027-0.609 0.080-0.902l-0.005 0.031h-3.431v1.743z"></path>
<path fill="#18568b" d="M20.303 15.921c0 2.17-1.759 3.929-3.928 3.929s-3.928-1.759-3.928-3.928c0-2.17 1.759-3.928 3.928-3.928v0 0c2.169 0.001 3.928 1.759 3.928 3.928v0z"></path>
</svg>
