<!-- Generated by IcoMoon.io -->
<svg version="1.1" xmlns="http://www.w3.org/2000/svg" viewBox="0 0 32 32">
<title>bnana</title>
<path d="M31.852 14.915c0-1.309-1.455-2.036-1.964-2.255-1.745-6.255-7.491-10.545-13.964-10.473-6.473-0.073-12.218 4.218-13.964 10.473-0.436 0.218-1.964 0.873-1.964 2.255 0 1.6-0.218 3.127 0 3.855 0.291 0.945 1.164 1.6 2.109 1.673 0.582 2.036 1.673 3.927 3.127 5.455 2.618 2.691 6.255 4.073 10.618 4.073s8-1.382 10.618-4.073c1.455-1.527 2.545-3.418 3.127-5.455 1.018-0.073 1.818-0.727 2.109-1.673 0.364-0.727 0.145-2.255 0.145-3.855zM29.307 16.006c0 7.709-5.382 12.873-13.309 12.873s-13.309-5.164-13.309-12.873c0-7.055 5.964-12.8 13.309-12.8s13.309 5.745 13.309 12.8v0z"></path>
<path d="M13.901 13.94c0-1.091-0.873-1.964-1.964-1.964s-1.964 0.873-1.964 1.964c0 1.091 0.873 1.964 1.964 1.964v0c1.091 0 1.964-0.873 1.964-1.964 0 0 0 0 0 0z"></path>
<path d="M16.737 19.249c0.218 0 0.436-0.218 0.436-0.436 0 0 0 0 0 0 0-0.218-0.218-0.436-0.436-0.436v0c-0.218 0-0.436 0.218-0.436 0.436 0 0 0 0 0 0 0 0.218 0.145 0.436 0.436 0.436v0z"></path>
<path d="M12.956 21.14c0 1.6 1.309 2.836 2.836 2.836 0 0 0.073 0 0.073 0 1.6 0.073 2.909-1.164 2.982-2.764 0 0 0-0.073 0-0.073-0.945 0.364-1.964 0.582-2.982 0.655-1.018 0-1.964-0.218-2.909-0.655z"></path>
<path d="M15.137 19.249c0.218 0 0.436-0.218 0.436-0.436 0 0 0 0 0 0 0-0.218-0.218-0.436-0.436-0.436v0c-0.218 0-0.436 0.218-0.436 0.436 0 0 0 0 0 0 0 0.218 0.218 0.436 0.436 0.436v0z"></path>
<path d="M20.156 11.904c-1.091 0-1.964 0.873-1.964 1.964s0.873 1.964 1.964 1.964v0c1.091 0 1.964-0.873 1.964-1.964 0 0 0 0 0 0 0-1.018-0.873-1.891-1.964-1.964z"></path>
<path d="M21.901 8.849c-1.964-0.364-4-0.509-5.964-0.364-2.036-0.073-4.073 0-6.109 0.436-4.655 1.236-4.873 4.509-4.873 8s1.527 7.2 5.673 8.873c1.455 0.582 3.2 0.655 5.382 0.655s3.927-0.073 5.309-0.655c4.145-1.673 5.455-5.382 5.455-8.873 0.145-3.564-0.073-6.836-4.873-8.073zM20.010 18.377c-0.073 0-0.218 0-0.291 0 0.364 0.945 0.509 1.964 0.582 2.909 0 2.473-1.964 4.436-4.436 4.436 0 0 0 0 0 0-2.473 0-4.436-2.036-4.436-4.436 0 0 0 0 0 0 0.073-1.018 0.218-1.964 0.582-2.909-0.073 0-0.073 0-0.145 0-2.473 0-4.436-2.036-4.436-4.436 0 0 0 0 0 0 0-2.473 1.964-4.436 4.436-4.436 0 0 0 0 0 0 1.745 0 3.418 1.091 4.073 2.691 0.655-1.673 2.255-2.691 4.073-2.691 2.473 0 4.436 2.036 4.436 4.436s-1.964 4.436-4.436 4.436c0 0 0 0 0 0z"></path>
</svg>
