<!-- Generated by IcoMoon.io -->
<svg version="1.1" xmlns="http://www.w3.org/2000/svg" viewBox="0 0 32 32">
<title>bnb</title>
<path fill="#f3ba2f" d="M9.785 13.447l6.215-6.215 6.218 6.217 3.616-3.616-9.834-9.833-9.83 9.83 3.616 3.616zM0 16l3.616-3.617 3.616 3.616-3.616 3.616zM9.785 18.554l6.215 6.214 6.217-6.217 3.618 3.614-0.002 0.002-9.834 9.833-9.836-9.836 3.621-3.611zM24.768 16.002l3.616-3.616 3.616 3.616-3.616 3.616z"></path>
<path fill="#f3ba2f" d="M19.667 15.998h0.002l-3.669-3.669-3.671 3.671 0.005 0.005 3.666 3.667 3.671-3.671-0.003-0.002z"></path>
</svg>
