<!-- Generated by IcoMoon.io -->
<svg version="1.1" xmlns="http://www.w3.org/2000/svg" viewBox="0 0 32 32">
<title>bnk</title>
<path d="M5.44 12.8l1.493-3.307c0-0.107 0-0.107 0.107-0.107v0.107l1.173 1.707c0 0.107 0 0.107-0.107 0.107l-2.56 1.6h-0.107s0 0 0-0.107zM11.307 24.853l-1.067-3.307s0 0 0-0.107h0.107l1.067 0.213v3.307c-0.107 0-0.107 0-0.107-0.107zM11.307 21.333l-0.96-0.107s0-0.107-0.107-0.107l1.067-2.347c0-0.107 0-0.107 0.107-0.107v2.667s0 0-0.107 0zM5.44 31.467l2.88-1.493h0.107l2.667 1.813v0.107s0 0.107-0.107 0.107l-5.44-0.32c-0.107 0-0.107-0.107-0.107-0.107zM5.333 30.613v-3.733s0 0 0-0.107h0.107l2.56 0.747c0.107 0 0.107 0 0.107 0.107l-2.667 3.093c-0.107 0-0.107 0-0.107-0.107zM5.333 26.453v-0.32l1.28-2.88c0-0.107 0-0.107 0.107-0.107v0.107l1.387 3.84v0.107s0 0.107-0.107 0l-2.56-0.64c-0.107-0.107-0.107-0.107-0.107-0.107zM5.333 25.067v-2.88h0.107l0.96 0.64v0.107l-0.853 2.133c-0.107 0-0.107 0-0.107 0-0.107 0-0.107 0-0.107 0zM5.333 21.76v-0.427c0-0.107 0-0.107 0-0.107l2.56-2.027h0.107v0.107l-1.387 3.2s0 0.107-0.107 0.107l-1.173-0.747c0-0.107 0-0.107 0-0.107zM5.333 20.693v-0.213l1.387-3.413h0.107l1.387 1.387v0.107l-2.773 2.24s0 0-0.107 0c0 0 0 0 0-0.107zM5.333 19.307v-4.587s0-0.107 0.107-0.107c0 0 0 0 0.107 0.107l0.96 2.027v0.107l-0.96 2.453c-0.107 0.107-0.107 0.107-0.107 0.107-0.107 0-0.107-0.107-0.107-0.107zM5.44 13.76l3.307 0.96 0.107 0.107s0 0-0.107 0.107l-1.92 1.6s0 0-0.107 0v-0.107l-1.387-2.56s0-0.107 0.107-0.107zM5.333 11.947v-2.88h0.107l1.28 0.107v0.107l-1.173 2.667c-0.107 0.107-0.107 0.107-0.107 0.107-0.107 0-0.107-0.107-0.107-0.107zM5.333 8.64v-0.32s0 0 0-0.107l1.493-1.813h0.107v0.107l-0.107 2.24v0.107l-1.387-0.107c-0.107 0-0.107 0-0.107-0.107zM5.333 7.573v-1.813c0-0.107 0-0.107 0-0.107h0.107l1.28 0.213c0 0.107 0.107 0.107 0.107 0.107s0 0.107-0.107 0.107l-1.28 1.6c-0.107 0-0.107 0-0.107-0.107zM5.333 5.227v-0.64l0.853-0.96 0.107-0.107c0 0.107 0.107 0.107 0.107 0.107l0.533 1.92s0 0.107-0.107 0.107l-1.387-0.32c-0.107 0-0.107 0-0.107-0.107zM5.333 3.947v-2.133s0 0 0.107-0.107c0 0 0 0.107 0.107 0.107l0.64 1.28v0.107l-0.747 0.747v0.107c-0.107 0-0.107-0.107-0.107-0.107zM5.333 0.96v-0.96h4.48s0.107 0 0.107 0.107v0.107l-3.413 2.667s0 0-0.107 0zM10.453 0.213l0.533 2.667v0.107s0 0-0.107 0h-3.84c-0.107 0-0.107 0-0.107 0 0-0.107 0-0.107 0-0.107l3.307-2.667h0.107zM10.773 0h2.88v0.107l-2.24 2.56c0 0.107-0.107 0.107-0.107 0.107l-0.107-0.107-0.533-2.56c0-0.107 0-0.107 0.107-0.107zM10.56 3.413l-3.307 2.133c0 0.107 0 0.107-0.107 0l-0.533-2.133v-0.107h3.947zM18.133 0.533l-3.2 1.813h-0.107l-0.533-2.24v-0.107h0.107l3.627 0.427h0.107zM21.44 2.24l-3.733 0.64c0 0.107 0 0-0.107 0 0 0 0 0 0-0.107l1.067-2.133c0-0.107 0.107-0.107 0.107-0.107s0 0 0.107 0l2.56 1.493v0.107zM23.573 5.333l-2.24 2.24c-0.107 0-0.107 0-0.107 0-0.107 0-0.107-0.107-0.107-0.107l0.96-4.693h0.107l1.387 2.453zM24 8.747l-0.747 2.453c0 0.107-0.107 0.107-0.107 0.107h-0.107l-1.92-2.987c-0.107-0.107-0.107-0.107 0-0.213l2.453-2.347c0-0.107 0-0.107 0-0.107 0.107 0 0.107 0.107 0.107 0.107zM20.907 13.867l-0.747-2.24s0 0 0-0.107h0.107l2.453 0.213c0.107 0 0.107 0.107 0.107 0.107v0.107l-1.813 1.92s0 0.107-0.107 0zM20.373 13.76l-3.2-2.56s0 0 0-0.107h0.107l2.56 0.427 0.747 2.133s0 0.107-0.107 0.107c0 0 0 0-0.107 0zM20.16 11.093l0.747-2.453h0.107l1.813 2.773v0.107s0 0-0.107 0l-2.453-0.213c0-0.107-0.107-0.107-0.107-0.107s0 0 0-0.107zM19.84 10.667l-1.28-3.413v-0.107h0.107l2.027 1.067v0.107l-0.64 2.347-0.107 0.107s-0.107 0-0.107-0.107zM20.693 7.893l-2.24-1.173c0-0.107 0-0.107 0-0.107l3.093-3.627h0.107s0.107 0 0.107 0.107l-0.96 4.8c-0.107 0-0.107 0-0.107 0zM17.28 8.107l-0.32-1.173c0.107-0.107 0.107-0.107 0.107-0.107h0.747c0.107 0 0.107 0 0.107 0.107v0.107l-0.533 1.067v0.107c-0.107 0-0.107-0.107-0.107-0.107zM18.24 7.253l1.493 3.84c-0.107 0.107-0.107 0.107-0.107 0.107l-2.88-0.427-0.107-0.107s0 0 0-0.107l0.747-1.707 0.747-1.6zM18.24 6.293l-0.747-2.987c0-0.107 0-0.107 0.107-0.107l3.84-0.747s0.107 0 0.107 0.107v0.107l-3.2 3.627c-0.107 0-0.107 0-0.107 0zM17.92 6.613h-0.96c0-0.107 0-0.107 0-0.107l0.32-2.24h0.213l0.533 2.24v0.107zM15.573 5.12l-0.533-2.24c0-0.107 0-0.107 0.107-0.107l1.813 0.427v0.107l-1.28 1.813c0 0.107 0 0.107-0.107 0.107zM17.067 3.947l-0.32 2.347s0 0.107-0.107 0.107c0 0 0 0-0.107 0l-0.747-0.747c-0.107 0-0.107-0.107 0-0.107l1.067-1.6c0.107 0 0.107-0.107 0.107 0zM17.173 2.987l-1.813-0.427c0-0.107 0-0.107 0-0.107l2.773-1.707s0.107 0 0.107 0.107v0.107l-0.96 2.027zM14.080 0.32l0.533 2.133s-0.107 0-0.107 0.107l-2.667 0.32c-0.107 0-0.107 0-0.107 0v-0.107l2.133-2.56h0.107s0 0 0.107 0.107zM11.413 5.013l-3.413 0.533s0 0-0.107 0c0-0.107 0-0.107 0.107-0.107l2.987-2.027h0.107s0 0.107 0.107 0.107l0.213 1.387zM11.627 3.627l1.707 1.28h0.107c0 0.107-0.107 0.107-0.107 0.107h-1.493c-0.107 0-0.107 0-0.107-0.107l-0.32-1.173c0-0.107 0.107-0.107 0.107-0.107s0 0 0.107 0zM11.52 6.187v4.907h-0.213l-1.067-2.56h0.107l0.96-2.347s0.107-0.107 0.107 0zM14.293 5.013l0.427-1.6h0.107l0.533 1.92s0 0-0.107 0v0.107l-0.96-0.32s-0.107-0.107 0-0.107zM11.733 3.2l2.773-0.427c0.107 0.107 0.107 0.107 0.107 0.107l-0.64 1.92v0.107c-0.107 0-0.107 0-0.107 0l-2.133-1.493c0-0.107-0.107-0.107-0.107-0.107 0.107-0.107 0.107-0.107 0.107-0.107zM16.533 10.987l3.2 2.56v0.107c0 0.107 0 0.107-0.107 0.107l-4.48-1.6c0-0.107 0-0.107 0-0.107l1.173-1.067zM14.72 12.373l0.64 2.24s0 0.107-0.107 0.107c0 0 0 0-0.107 0l-2.987-2.24c0-0.107 0-0.107 0-0.107 0-0.107 0.107-0.107 0.107-0.107h2.347s0.107 0 0.107 0.107zM15.147 12.373l4.8 1.707c0.107 0.107 0.107 0.107 0.107 0.107 0 0.107 0 0.107-0.107 0.107l-4.16 0.747c-0.107 0-0.107-0.107-0.107-0.107l-0.64-2.453c0-0.107 0.107-0.107 0.107-0.107zM20.8 14.507l0.533 2.347s0 0.107-0.107 0.107l-4.8-1.6-0.107-0.107c0-0.107 0.107-0.107 0.107-0.107l4.267-0.747zM23.253 15.573l-1.493 1.28c-0.107 0-0.107 0-0.107 0-0.107 0-0.107 0-0.107-0.107l-0.427-2.027c0-0.107 0-0.107 0-0.107h0.107l2.027 0.747c0.107 0.107 0.107 0.107 0.107 0.107s0 0.107-0.107 0.107zM25.28 17.813l-3.307-0.64c0-0.107 0-0.107 0-0.107v-0.107l1.6-1.28h0.107l1.6 2.027c0.107 0 0.107 0 0.107 0.107-0.107 0-0.107 0-0.107 0zM26.667 21.44l-1.6 0.533h-0.107v-0.107l0.747-2.987 0.107-0.107 0.107 0.107 0.747 2.453zM26.133 25.707l-1.813-0.213s0-0.107-0.107-0.107c0 0 0 0 0.107-0.107l2.133-2.987h0.107c0.107 0 0.107 0 0.107 0.107l-0.427 3.307c-0.107 0-0.107 0-0.107 0zM24.213 28.48l-0.107-2.667v-0.107h0.107l1.813 0.32v0.107l-1.6 2.347c-0.107 0-0.107 0.107-0.107 0.107-0.107-0.107-0.107-0.107-0.107-0.107zM20.48 30.827l-0.213-2.987v-0.107h0.107l3.307 1.28v0.213l-3.093 1.6zM17.28 31.573l-2.773-1.813c-0.107 0-0.107 0-0.107-0.107h0.107l5.013 1.387v0.107l-2.133 0.427s0 0-0.107 0zM11.947 31.787l1.28-2.347v-0.107h0.107l3.307 2.133c0.107 0 0.107 0.107 0.107 0.107 0 0.107-0.107 0.107-0.107 0.107l-4.587 0.32c-0.107 0-0.107 0-0.107-0.107 0 0 0 0 0-0.107zM14.827 14.933l-5.12-0.32c-0.107 0-0.107 0-0.107 0 0-0.107 0-0.107 0-0.107l1.92-2.133h0.213l3.2 2.453v0.107zM9.28 14.293l-0.64-2.56c0-0.107 0-0.107 0-0.107s0.107-0.107 0.107 0l2.453 0.533c0.107 0 0.107 0.107 0.107 0.107s0 0 0 0.107l-1.92 1.92c0 0.107 0 0.107-0.107 0.107zM11.307 17.493l-2.453 0.853c-0.107 0-0.107 0-0.107-0.107l0.533-2.987c0-0.107 0-0.107 0-0.107h0.107l1.92 2.24zM9.707 14.933l5.227 0.32s0.107 0 0.107 0.107c0 0 0 0-0.107 0l-3.2 2.027c-0.107 0-0.107 0-0.107 0l-2.027-2.347v-0.107zM15.573 15.467l0.64 1.813v0.107c-0.107 0-0.107 0.107-0.107 0.107h-3.627c-0.107 0-0.107-0.107-0.107-0.107v-0.107l3.093-1.813c0-0.107 0-0.107 0.107-0.107zM16 15.467l4.373 1.493c0.107 0 0.107 0 0.107 0.107 0 0 0 0-0.107 0l-3.84 0.32-0.64-1.813c0-0.107 0-0.107 0-0.107s0 0 0.107 0zM20.907 17.493l-2.027 1.6h-0.107l-1.813-1.28v-0.107h0.107l3.733-0.32h0.107zM19.307 19.627l4.16 2.133v0.107s0 0-0.107 0l-3.307-0.427s-0.107 0-0.107-0.107l-0.747-1.6s0 0 0-0.107zM20.16 21.973l3.093 3.093v0.107h-0.107l-3.52-0.853s-0.107 0-0.107-0.107l0.533-2.24s0 0 0-0.107c0 0 0.107 0 0.107 0.107zM19.307 24.747l0.533 2.347c0.107 0 0 0 0 0.107 0 0 0 0-0.107 0l-2.133-1.28c0-0.107 0-0.107 0-0.107l1.6-1.067zM17.28 26.027l1.6 0.96c0.107 0 0.107 0.107 0.107 0.107-0.107 0-0.107 0.107-0.107 0l-3.307-0.533c0-0.107 0-0.107 0-0.107l1.6-0.427zM14.187 26.773l-0.96 1.92c-0.107 0-0.107 0-0.107 0l-1.173-2.027c0-0.107 0-0.107 0-0.107 0-0.107 0-0.107 0.107-0.107l2.027 0.213h0.107zM21.547 17.493l2.667 4.16v0.107c-0.107 0-0.107 0-0.107 0l-4.907-2.453s0 0-0.107-0.107h0.107l2.24-1.813s0.107 0 0.107 0.107zM21.973 17.387l3.627 0.747v0.107l-0.853 3.52s0 0-0.107 0l-2.773-4.267s0 0 0-0.107zM24.533 22.4l-0.64 2.667c0 0.107 0 0.107-0.107 0.107l-3.307-3.307s0 0 0-0.107h0.107l3.84 0.533c0.107 0 0.107 0.107 0.107 0.107zM26.347 21.973l-1.92 2.667s0 0-0.107 0c0 0 0 0 0-0.107l0.533-2.133s0 0 0-0.107l1.493-0.427c0.107 0.107 0.107 0.107 0 0.107zM19.733 24.64l3.627 0.853c0.107 0.107 0.107 0.107 0.107 0.107s0 0.107-0.107 0.107l-2.987 1.6c-0.107 0-0.107 0-0.107 0l-0.107-0.107-0.533-2.453v-0.107zM23.787 25.92l0.213 2.88v0.107c-0.107 0-0.107 0-0.107 0l-3.2-1.387c-0.107 0-0.107 0-0.107 0 0-0.107 0-0.107 0.107-0.107l2.987-1.6h0.107zM19.093 27.627l-5.44 1.28c-0.107 0-0.107 0-0.107 0v-0.107l0.96-2.027c0-0.107 0.107-0.107 0.107-0.107l4.48 0.747v0.107zM5.547 13.333l2.667-1.707h0.107v0.107l0.64 2.667v0.107s0 0-0.107 0l-3.307-1.067h-0.107c0-0.107 0-0.107 0.107-0.107zM8.32 18.133l-1.387-1.28v-0.107l1.92-1.6h0.107v0.107l-0.533 2.88c-0.107 0-0.107 0-0.107 0zM11.307 17.92l-1.173 2.88-0.107 0.107s0 0-0.107-0.107l-1.173-2.133c0-0.107 0-0.107 0.107-0.107l2.347-0.747h0.107zM8.64 18.987l1.173 2.133v0.107l-2.88 1.493s0 0-0.107 0c0 0 0 0 0-0.107l1.6-3.627s0.107 0 0.107-0.107zM8.64 27.093l1.387-5.12h0.107l1.28 4.16c0 0.107 0 0.107-0.107 0.107l-2.56 0.96s0 0-0.107 0zM10.987 26.88l-2.24 2.453c-0.107 0-0.107 0-0.107 0-0.107 0-0.107-0.107-0.107-0.107v-1.6s0 0 0.107-0.107l2.24-0.747c0.107-0.107 0.107 0 0.107 0 0.107 0 0.107 0.107 0 0.107zM13.013 29.227l-1.067 2.027s-0.107 0.107-0.107 0c-0.107 0-0.107 0-0.107 0v-4.16s0-0.107 0.107-0.107v0.107l1.173 2.027zM11.307 31.68l-2.56-1.813c-0.107 0-0.107-0.107-0.107-0.107l2.667-2.88h0.107v0.107l0.107 4.587c0 0.107 0 0.107-0.107 0.107 0 0 0 0-0.107 0zM8.32 28.053v1.6c0 0.107 0 0.107-0.107 0.107l-2.56 1.28c0 0.107 0 0-0.107 0v-0.107l2.56-2.88c0-0.107 0.107-0.107 0.107-0.107zM20.053 30.933l-6.080-1.707s0 0 0-0.107l5.973-1.387h0.107l0.107 3.093v0.107s0 0-0.107 0zM7.040 23.040l2.667-1.387h0.107v0.107l-1.387 5.013v0.107c-0.107 0-0.107-0.107-0.107-0.107l-1.28-3.627c-0.107-0.107 0-0.107 0-0.107zM11.307 5.44l-1.173 2.773c-0.107 0-0.107 0-0.107 0l-2.453-2.133v-0.213l3.627-0.533h0.107zM7.787 8.213l-0.533 0.427c-0.107 0-0.107-0.107-0.107-0.107l0.107-1.493c0-0.107 0-0.107 0-0.107 0.107 0 0.107 0 0.107 0.107l0.427 1.067zM7.68 6.507l1.813 1.707v0.107s0 0-0.107 0l-1.28-0.213-0.533-1.493c-0.107 0 0-0.107 0-0.107zM9.813 8.747l-1.173 2.027h-0.213l-0.32-2.24v-0.107h0.107l1.6 0.213v0.107c0.107 0 0.107 0 0 0zM11.2 11.947l-2.453-0.64c-0.107-0.107-0.107-0.107 0-0.107l1.28-2.24h0.213l1.067 2.88c0 0.107 0 0.107-0.107 0.107zM8 10.347l-0.853-1.173c0-0.107 0-0.107 0.107-0.107l0.533-0.533c0.107 0 0.107 0.107 0.107 0.107l0.213 1.707v0.107c-0.107 0-0.107 0-0.107-0.107z"></path>
</svg>
