<!-- Generated by IcoMoon.io -->
<svg version="1.1" xmlns="http://www.w3.org/2000/svg" viewBox="0 0 32 32">
<title>bst</title>
<path fill="#ffbc00" d="M16 32c8.837 0 16-7.163 16-16s-7.163-16-16-16v0 1.947c7.761 0 14.053 6.292 14.053 14.053s-6.292 14.053-14.053 14.053v0z"></path>
<path fill="#ffbc00" opacity="0.3" d="M1.947 16h-1.947c0 8.837 7.163 16 16 16v0-1.947c-7.759-0.005-14.048-6.294-14.053-14.053v-0z"></path>
<path fill="#ffbc00" d="M5.707 16c0 5.685 4.608 10.293 10.293 10.293s10.293-4.608 10.293-10.293v0h1.947c0 6.76-5.48 12.24-12.24 12.24s-12.24-5.48-12.24-12.24v0z"></path>
<path fill="#ffbc00" opacity="0.3" d="M16 5.707v-1.947c-6.756 0.010-12.23 5.484-12.24 12.239v0.001h1.947c0.005-5.683 4.611-10.288 10.293-10.293h0z"></path>
<path fill="#ffbc00" d="M16 9.458c-3.613 0-6.542 2.929-6.542 6.542s2.929 6.542 6.542 6.542v0 1.947c-4.688 0-8.489-3.801-8.489-8.489s3.801-8.489 8.489-8.489v0z"></path>
<path fill="#ffbc00" opacity="0.3" d="M16 7.511v1.947c3.611 0.005 6.537 2.931 6.542 6.542v0h1.947c-0.010-4.684-3.805-8.479-8.488-8.489h-0.001z"></path>
<path fill="#ffbc00" d="M16 11.271c2.612 0 4.729 2.117 4.729 4.729s-2.117 4.729-4.729 4.729v0-1.947c1.537 0 2.782-1.246 2.782-2.782s-1.246-2.782-2.782-2.782v0z"></path>
<path fill="#ffbc00" opacity="0.3" d="M16 11.271c-2.61 0.005-4.724 2.119-4.729 4.728v0h1.947c0-1.537 1.246-2.782 2.782-2.782v0z"></path>
<path fill="#ffbc00" d="M21.964 22.018l-1.378-1.378c-0.541 0.536-1.177 0.978-1.879 1.299l-0.041 0.017 0.818 1.778c0.948-0.446 1.759-1.018 2.454-1.707l-0.001 0.001z"></path>
<path fill="#ffbc00" d="M9.262 1.484c-1.786 0.832-3.313 1.912-4.613 3.217l-0 0 1.333 1.422c1.152-1.17 2.509-2.134 4.013-2.836l0.085-0.036z"></path>
<path fill="#ffbc00" d="M27.076 10.889c-0.632-1.377-1.459-2.554-2.462-3.555l-0-0-1.404 1.378c0.858 0.84 1.563 1.833 2.072 2.934l0.026 0.062z"></path>
</svg>
