<!-- Generated by IcoMoon.io -->
<svg version="1.1" xmlns="http://www.w3.org/2000/svg" viewBox="0 0 32 32">
<title>bsv</title>
<path fill="#eab300" d="M31.995 16c0 8.835-7.163 15.997-16.001 15.999-8.832 0-15.995-7.164-15.994-16-0.003-8.836 7.16-15.999 15.996-15.999s15.999 7.164 15.999 16z"></path>
<path fill="#fff" d="M22.291 12.081c-0.206-2.143-2.056-2.861-4.393-3.066v-2.973h-1.809v2.894c-0.475 0-0.961 0.009-1.444 0.019v-2.913h-1.809l-0.001 2.971c-0.392 0.008-0.777 0.015-1.152 0.015v-0.009l-2.495-0.001v1.933s1.336-0.026 1.313-0.001c0.733 0 0.972 0.425 1.041 0.792v3.387c0.051 0 0.116 0.003 0.191 0.013h-0.191l-0.001 4.745c-0.032 0.23-0.168 0.598-0.68 0.599 0.023 0.020-1.315 0-1.315 0l-0.36 2.161h2.355c0.438 0 0.869 0.008 1.292 0.010l0.001 3.007h1.807v-2.975c0.495 0.010 0.975 0.014 1.445 0.014l-0.001 2.961h1.809v-3c3.041-0.174 5.172-0.941 5.436-3.798 0.214-2.3-0.868-3.328-2.595-3.743 1.051-0.532 1.708-1.473 1.554-3.041zM19.759 18.509c0 2.246-3.846 1.992-5.074 1.992v-3.985c1.228 0.003 5.074-0.349 5.074 1.993zM18.917 12.888c0 2.044-3.21 1.805-4.232 1.806v-3.612c1.023 0 4.233-0.325 4.232 1.806z"></path>
<path fill="#fff" d="M11.546 15.049h0.269v0.198h-0.269z"></path>
</svg>
