<!-- Generated by IcoMoon.io -->
<svg version="1.1" xmlns="http://www.w3.org/2000/svg" viewBox="0 0 32 32">
<title>btc</title>
<path fill="#f7931a" d="M31.52 19.869c-2.137 8.571-10.818 13.787-19.39 11.65-8.568-2.137-13.784-10.818-11.647-19.389 2.136-8.572 10.817-13.788 19.386-11.652 8.571 2.137 13.787 10.819 11.65 19.391l0-0z"></path>
<path fill="#fff" d="M23.056 13.72c0.318-2.129-1.303-3.274-3.519-4.037l0.719-2.884-1.756-0.437-0.7 2.808c-0.462-0.115-0.936-0.224-1.407-0.331l0.705-2.827-1.755-0.437-0.719 2.883c-0.382-0.087-0.757-0.173-1.121-0.263l0.002-0.009-2.421-0.605-0.467 1.875c0 0 1.303 0.299 1.275 0.317 0.711 0.177 0.839 0.648 0.818 1.021l-0.819 3.286c0.049 0.012 0.112 0.030 0.183 0.059-0.059-0.015-0.121-0.030-0.186-0.046l-1.148 4.603c-0.087 0.216-0.307 0.54-0.804 0.417 0.018 0.026-1.276-0.318-1.276-0.318l-0.872 2.010 2.285 0.57c0.425 0.107 0.842 0.218 1.252 0.323l-0.726 2.917 1.754 0.437 0.719-2.886c0.479 0.13 0.944 0.25 1.399 0.363l-0.717 2.873 1.756 0.437 0.726-2.912c2.994 0.567 5.245 0.338 6.192-2.37 0.763-2.18-0.038-3.438-1.613-4.258 1.147-0.265 2.011-1.019 2.242-2.578l-0.001-0zM19.045 19.344c-0.543 2.18-4.213 1.002-5.403 0.706l0.964-3.865c1.19 0.297 5.006 0.885 4.439 3.159zM19.588 13.688c-0.495 1.983-3.55 0.976-4.541 0.729l0.874-3.505c0.991 0.247 4.183 0.708 3.667 2.777h-0z"></path>
</svg>
