<!-- Generated by IcoMoon.io -->
<svg version="1.1" xmlns="http://www.w3.org/2000/svg" viewBox="0 0 32 32">
<title>btg</title>
<path fill="#00206b" d="M15.152 0h1.667c1.739 0.115 3.469 0.462 5.085 1.115 4 1.573 7.301 4.835 8.912 8.822 2.218 5.309 1.266 11.784-2.437 16.202-2.506 3.075-6.19 5.17-10.123 5.702-3.691 0.526-7.565-0.269-10.723-2.264-2.435-1.517-4.451-3.699-5.757-6.256-1.675-3.211-2.184-7.006-1.448-10.549 0.787-3.926 3.131-7.509 6.4-9.818 2.448-1.771 5.416-2.768 8.424-2.955zM14.16 0.725c-4.867 0.558-9.341 3.624-11.661 7.934-1.57 2.866-2.197 6.245-1.723 9.482 0.536 3.898 2.656 7.544 5.76 9.957 2.363 1.864 5.286 3.008 8.288 3.232 3.4 0.27 6.882-0.637 9.704-2.552 3.461-2.291 5.917-6.038 6.622-10.13 0.406-2.411 0.269-4.923-0.477-7.254-1.064-3.39-3.344-6.387-6.336-8.307-2.974-1.952-6.646-2.798-10.178-2.362z"></path>
<path fill="#00206b" d="M14.546 7.026c2.782-0.466 5.766 0.446 7.768 2.443 1.776 1.677 2.813 4.114 2.762 6.557 0.035 2.43-1.006 4.848-2.774 6.51-1.925 1.914-4.755 2.827-7.438 2.474-2.528-0.304-4.894-1.741-6.331-3.845-1.59-2.253-2.029-5.251-1.203-7.877 0.966-3.232 3.885-5.758 7.218-6.262zM15.101 7.579c0.002 0.795 0.003 1.59 0.002 2.386 0.397 0 0.794 0 1.19 0.002 0.002-0.816 0.003-1.632 0-2.446-0.397 0.013-0.795 0.032-1.192 0.059zM17.963 10.003c1.045 0.141 2.168 0.301 3.002 1.006 1.272 1.142 1.107 3.541-0.45 4.37 0.933 0.218 1.856 0.84 2.086 1.819 0.299 1.285 0.061 2.827-0.971 3.733-1.022 0.842-2.406 0.952-3.67 1.072 0.006 0.744 0.003 1.488 0.002 2.234 2.661-0.651 4.957-2.632 5.933-5.195 0.926-2.365 0.707-5.147-0.6-7.325-1.155-1.965-3.12-3.408-5.326-3.962-0.006 0.749-0.006 1.498-0.005 2.248zM10.022 9.971c1.152 0.056 2.306 0.043 3.459 0.042 0-0.702 0.002-1.403-0.003-2.106-1.291 0.419-2.442 1.171-3.456 2.064zM9.885 10.064c-0.306 0.376-0.872 1.086-1.208 1.715-1.355 2.309-1.509 5.272-0.378 7.701 0.976 2.178 2.912 3.872 5.179 4.602 0.003-0.701 0.002-1.402 0.002-2.101-1.157-0.011-2.317 0.030-3.472-0.032 0.013-0.645 0.165-1.275 0.384-1.883 0.566-0.011 1.157 0.088 1.704-0.098 0.32-0.269 0.229-0.714 0.246-1.082-0.018-2.104 0.008-4.208-0.011-6.31 0.021-0.339-0.192-0.706-0.544-0.773-0.581-0.117-1.179-0.070-1.766-0.075-0.069-0.474-0.077-0.952-0.083-1.43 0 0 0.008-0.15-0.043-0.248l-0.010 0.014zM15.15 11.872v3.101c1.035-0.019 2.184 0.096 3.090-0.506 0.752-0.493 0.704-1.739-0.072-2.182-0.907-0.536-2.013-0.384-3.018-0.413zM15.15 16.642v3.44c1.278-0.102 2.712 0.112 3.824-0.659 0.795-0.528 0.699-1.835-0.12-2.293-1.114-0.666-2.467-0.454-3.704-0.488zM15.104 22.027c0 0.795-0.002 1.592-0.003 2.387 0.414 0.027 0.827 0.043 1.242 0.056 0.003-0.814 0.002-1.629 0.002-2.443h-1.24z"></path>
<path fill="#eba809" d="M14.253 1.555c2.803-0.301 5.706 0.126 8.224 1.419 3.24 1.589 5.83 4.445 7.107 7.819 1.302 3.379 1.274 7.245-0.075 10.608-2.051 5.301-7.467 9.112-13.17 9.12-3.349 0.122-6.718-1.005-9.341-3.088-2.797-2.174-4.731-5.424-5.328-8.917-0.61-3.459 0.074-7.134 1.923-10.125 2.261-3.75 6.31-6.342 10.659-6.837zM13.765 6.25c-2.278 0.514-4.362 1.859-5.758 3.733-1.542 2.029-2.25 4.667-1.934 7.194 0.296 2.704 1.773 5.254 3.97 6.856 2.056 1.546 4.728 2.224 7.272 1.875 3.144-0.384 6.035-2.386 7.502-5.194 1.099-2.003 1.4-4.384 0.997-6.619-0.514-2.71-2.206-5.173-4.562-6.61-2.205-1.373-4.957-1.813-7.486-1.235z"></path>
</svg>
