<!-- Generated by IcoMoon.io -->
<svg version="1.1" xmlns="http://www.w3.org/2000/svg" viewBox="0 0 32 32">
<title>btm</title>
<path fill="#040000" opacity="0.8" d="M11.081 4.932l8.708 8.708-7.386-13.639-6.176 6.231 4.854-1.299zM20.919 27.068l-8.708-8.708 7.386 13.639 6.172-6.231-4.851 1.299zM4.932 20.919l5.583-11.836-10.515 10.515 6.231 6.172-1.299-4.851zM27.072 11.078l-8.711 8.711 13.639-7.386-6.231-6.176 1.303 4.851z"></path>
<path fill="#323333" opacity="0.8" d="M22.913 10.511l-10.511-10.511 7.386 13.639 3.125-3.128zM9.087 21.485l10.511 10.515-7.386-13.639-3.125 3.124zM13.639 12.211l-3.124-3.128-5.583 11.836 8.708-8.708zM21.485 22.913l10.515-10.511-13.639 7.386 3.124 3.125z"></path>
<path fill="#555" opacity="0.8" d="M2.624 2.62l-2.624 9.782 5.344-2.871-2.72-6.912zM29.38 29.38l2.62-9.782-5.344 2.867 2.723 6.915zM2.624 29.376l9.779 2.624-2.867-5.347-6.912 2.723zM29.38 2.62l-9.782-2.62 2.867 5.344 6.915-2.724z"></path>
<path fill="#323333" opacity="0.8" d="M6.227 6.231l6.176-6.231-9.779 2.62 2.72 6.912 0.883-3.301zM25.769 25.769l-6.172 6.231 9.782-2.62-2.723-6.915-0.887 3.305zM6.231 25.769l-6.231-6.172 2.624 9.779 6.912-2.723-3.305-0.883zM25.769 6.227l6.231 6.176-2.62-9.782-6.915 2.724 3.305 0.883z"></path>
<path fill="#040000" opacity="0.8" d="M5.344 9.532l-5.344 2.871 1.24 1.236 4.104-4.107zM26.656 22.464l5.344-2.867-1.24-1.236-4.103 4.104zM12.403 32l1.236-1.24-4.103-4.107 2.867 5.347zM19.597 0l-1.236 1.24 4.104 4.104-2.867-5.344z"></path>
</svg>
