<!-- Generated by IcoMoon.io -->
<svg version="1.1" xmlns="http://www.w3.org/2000/svg" viewBox="0 0 32 32">
<title>bts</title>
<path fill="#35baeb" d="M13.005 20.055l-6.892-6.892v8.283h6.352c0.074-0.497 0.258-0.972 0.54-1.391zM12.464 22.806h-6.352c0.147 2.157 0.992 4.209 2.407 5.846l4.485-4.535c-0.285-0.387-0.471-0.837-0.54-1.311zM22.483 14.637c-1.619-1.441-3.679-2.289-5.844-2.409v6.345c0.487 0.079 0.95 0.26 1.359 0.534l4.485-4.471zM19.045 24.050l4.485 4.485c1.39-1.614 2.217-3.637 2.357-5.764h-6.384c-0.076 0.45-0.231 0.882-0.458 1.278zM19.505 21.448h6.352c-0.147-2.157-0.991-4.209-2.407-5.846l-4.487 4.501c0.282 0.4 0.468 0.861 0.542 1.345zM9.477 29.593c1.62 1.441 3.681 2.289 5.846 2.407v-6.36c-0.487-0.079-0.95-0.26-1.359-0.534l-4.487 4.487zM16.638 25.638v6.352c2.165-0.145 4.221-1.003 5.846-2.441l-4.454-4.454c-0.422 0.272-0.895 0.456-1.391 0.543zM6.113 11.109c1.702 1.702 7.040 7.089 7.94 7.972 0.384-0.237 0.804-0.41 1.245-0.508v-10.371l-9.168-8.203c-0.016 0-0.016 10.806-0.016 11.109z"></path>
</svg>
