<!-- Generated by IcoMoon.io -->
<svg version="1.1" xmlns="http://www.w3.org/2000/svg" viewBox="0 0 32 32">
<title>bzrx</title>
<path fill="#000" d="M0 6.4c0-3.52 2.88-6.4 6.4-6.4h19.2c3.52 0 6.4 2.88 6.4 6.4v19.2c0 3.52-2.88 6.4-6.4 6.4h-19.2c-3.52 0-6.4-2.88-6.4-6.4v-19.2z"></path>
<path fill="#fff" d="M12.8 0h-3.2v7.36h3.2v-7.36z"></path>
<path fill="#fff" d="M18.2 22.68h-4.24c-2.4 0-4.36-1.96-4.36-4.36v-3.12h3.2v3.080c0 0.64 0.52 1.16 1.16 1.16h4.24c0.64 0 1.16-0.52 1.16-1.16v-4.2c0-0.64-0.52-1.16-1.16-1.16h-18.2v-3.2h18.2c2.4 0 4.36 1.96 4.36 4.36v4.24c0 2.4-1.96 4.36-4.36 4.36z"></path>
</svg>
