<!-- Generated by IcoMoon.io -->
<svg version="1.1" xmlns="http://www.w3.org/2000/svg" viewBox="0 0 32 32">
<title>cce</title>
<path fill="#338fff" d="M14.152 0.451c1.833 0.030 3.606 0.406 5.288 0.977 1.638 0.571 3.185 1.367 4.612 2.344 1.367 0.977 2.674 2.178 3.786 3.515 1.097 1.337 2.073 2.869 2.779 4.582 0.736 1.743 1.172 3.515 1.277 5.258 0 0.165 0.030 0.3 0.030 0.466-0.090 4.492-0.811 7.377-3.365 9.72-3.41 3.14-6.13 4.192-11.192 4.192-4.071 0-7.992-2.193-9.976-3.666-1.638-1.217-4.041-3.365-5.348-6.024-1.983-3.996-2.103-6.415-2.028-9.074 0.075-2.614 1.457-5.514 3.395-7.722 1.577-1.803 3.606-3.065 5.333-3.696 1.668-0.616 3.47-0.916 5.408-0.871v0zM23.977 4.056c-1.337-0.901-2.809-1.668-4.342-2.208-1.577-0.541-3.275-0.841-5.018-0.841-1.773-0.030-3.485 0.27-5.018 0.841-1.638 0.601-3.11 1.532-4.312 2.749-1.307 1.277-2.314 2.839-2.945 4.642-0.676 1.908-0.931 4.041-0.601 6.355 0.331 2.404 1.232 4.687 2.614 6.685 1.412 2.073 3.215 3.816 5.318 5.153 2.073 1.307 4.342 2.178 6.685 2.509 2.269 0.331 4.552 0.135 6.685-0.601 2.013-0.676 3.681-1.803 4.988-3.185 1.232-1.307 2.103-2.839 2.674-4.522 0.496-1.577 0.736-3.245 0.631-4.958-0.105-1.638-0.466-3.305-1.172-4.988-0.676-1.607-1.532-3.050-2.614-4.342-1.037-1.217-2.239-2.344-3.576-3.29v0z"></path>
<path fill="#338fff" d="M14.753 1.683c0.361 0 0.706 0 1.037 0.030 0.27 0.796 0.496 1.608 0.766 2.449-0.361-0.030-0.706-0.030-1.067-0.030s-0.706 0.030-1.067 0.105c-0.24-0.841-0.466-1.668-0.706-2.479 0.346-0.045 0.706-0.075 1.037-0.075v0zM18.509 2.193c2.238 0.631 4.342 1.773 6.085 3.305 1.773 1.577 3.215 3.485 4.146 5.814 0.931 2.344 1.202 4.823 0.796 7.061-0.436 2.404-1.638 4.612-3.576 6.25-0.406-1.277-0.796-2.479-1.202-3.711 0.736-0.706 1.307-1.577 1.713-2.539 0.541-1.307 0.736-2.749 0.571-4.252-0.841 0.135-1.713 0.3-2.614 0.436-0.030 0.736-0.195 1.442-0.496 2.103-0.706 1.442-2.013 2.569-3.816 2.975-1.878 0.406-3.876-0.060-5.559-1.172-1.713-1.097-3.005-2.809-3.44-4.823-0.466-1.908-0.030-3.681 0.977-4.958 0.931-1.202 2.404-1.968 4.177-2.103 1.668-0.105 3.35 0.436 4.717 1.412 0.631 0.436 1.202 0.931 1.713 1.532 0.871-0.105 1.713-0.165 2.539-0.27-0.841-1.232-1.908-2.314-3.11-3.11-0.871-0.601-1.773-1.067-2.749-1.412-0.3-0.841-0.616-1.713-0.871-2.539v0zM23.346 26.276c-0.406 0.165-0.766 0.3-1.172 0.436s-0.841 0.24-1.232 0.331c-0.361-1.307-0.706-2.569-1.067-3.816 0.436-0.030 0.841-0.105 1.232-0.24 0.406-0.105 0.766-0.24 1.142-0.361 0.376 1.172 0.706 2.404 1.097 3.651v0zM17.427 27.238c-3.245-0.27-6.385-1.668-8.924-3.951-2.509-2.269-4.282-5.348-4.777-8.593-0.541-3.215 0.165-5.949 1.607-8.158 1.337-2.013 3.35-3.515 5.679-4.282 0.27 0.931 0.496 1.833 0.736 2.809-0.901 0.466-1.713 1.067-2.374 1.833-1.577 1.803-2.344 4.387-1.773 7.256 0.601 3.005 2.539 5.649 5.123 7.331 1.142 0.736 2.374 1.277 3.681 1.577 0.331 1.337 0.661 2.734 1.022 4.177v0z"></path>
</svg>
