<!-- Generated by IcoMoon.io -->
<svg version="1.1" xmlns="http://www.w3.org/2000/svg" viewBox="0 0 32 32">
<title>cdai</title>
<path fill="#edf0f2" d="M32 16.025c0 8.83-7.158 15.988-15.988 15.988s-15.988-7.158-15.988-15.988c0-8.83 7.158-15.988 15.988-15.988s15.988 7.158 15.988 15.988z"></path>
<path fill="#000" d="M26.163 28.363c-2.438 2.012-5.425 3.25-8.575 3.55-4.213 0.413-8.425-0.863-11.713-3.55-3.275-2.688-5.35-6.563-5.775-10.787-0.313-3.15 0.313-6.313 1.8-9.1s3.775-5.075 6.563-6.563c2.787-1.488 5.95-2.125 9.1-1.813s6.125 1.538 8.575 3.55l-3.225 3.938c-1.663-1.362-3.7-2.212-5.85-2.413-2.15-0.213-4.3 0.225-6.2 1.237s-3.45 2.575-4.475 4.475c-1.013 1.9-1.438 4.063-1.225 6.2 0.287 2.875 1.7 5.525 3.938 7.35 2.238 1.837 5.113 2.7 7.988 2.413 2.15-0.212 4.175-1.063 5.838-2.425l3.238 3.938z"></path>
<path fill="#fff" d="M16.063 29.113c7.212 0 13.050-5.85 13.050-13.050 0-7.213-5.838-13.063-13.050-13.063s-13.063 5.85-13.063 13.063c0 7.212 5.85 13.050 13.063 13.050z"></path>
<path fill="#000" d="M21.75 14.375h-1.212c-0.663-1.85-2.45-3.113-4.813-3.113h-3.875v3.113h-1.35v1.113h1.35v1.175h-1.35v1.113h1.35v3.075h3.875c2.325 0 4.1-1.25 4.788-3.075h1.238v-1.113h-0.962c0.025-0.2 0.038-0.4 0.038-0.6v-0.025c0-0.188-0.012-0.363-0.025-0.537h0.95v-1.125zM12.938 12.262h2.787c1.725 0 3.013 0.85 3.612 2.113h-6.4v-2.113zM15.725 19.85h-2.787v-2.075h6.4c-0.6 1.25-1.887 2.075-3.613 2.075zM19.7 16.087c0 0.2-0.012 0.387-0.038 0.575h-6.725v-1.175h6.725c0.025 0.188 0.038 0.375 0.038 0.563v0.038z"></path>
</svg>
