<!-- Generated by IcoMoon.io -->
<svg version="1.1" xmlns="http://www.w3.org/2000/svg" viewBox="0 0 32 32">
<title>cel</title>
<path fill="#262761" d="M24.79 12.478c0 0.429-0.348 0.776-0.776 0.776s-0.776-0.348-0.776-0.776c0-0.429 0.348-0.776 0.776-0.776s0.776 0.348 0.776 0.776z"></path>
<path fill="#262761" d="M16.028 0c-8.873 0-16.028 7.154-16.028 16.028s7.154 16.028 16.028 16.028 16.028-7.154 16.028-16.028-7.21-16.028-16.028-16.028zM23.293 22.683c-1.886 2.107-4.603 3.272-7.376 3.272v0c-2.828 0-5.546-1.22-7.432-3.328-1.941-2.163-2.773-4.88-2.496-7.764 0.499-4.603 4.159-8.263 8.763-8.818 0.388-0.055 0.776-0.055 1.165-0.055 2.218 0 4.326 0.721 6.101 2.107 0.111 0.055 0.166 0.222 0.166 0.333 0 0.166-0.055 0.277-0.166 0.388l-1.054 0.943c-0.111 0.111-0.277 0.166-0.444 0.166-0.111 0-0.277-0.055-0.333-0.111-1.276-0.887-2.773-1.331-4.27-1.331-2.163 0-4.215 0.943-5.601 2.551-1.442 1.608-2.107 3.716-1.83 5.879 0.388 3.438 3.161 6.211 6.6 6.6 0.277 0.055 0.555 0.055 0.887 0.055 1.997 0 3.882-0.776 5.324-2.218 0.111-0.111 0.277-0.166 0.444-0.166 0.111 0 0.222 0.055 0.333 0.111l1.165 0.776c0.111 0.055 0.166 0.166 0.222 0.333-0.055 0.055-0.111 0.166-0.166 0.277zM24.014 14.919c-1.331 0-2.44-1.109-2.44-2.44s1.109-2.44 2.44-2.44c1.331 0 2.44 1.109 2.44 2.44s-1.109 2.44-2.44 2.44z"></path>
</svg>
