<!-- Generated by IcoMoon.io -->
<svg version="1.1" xmlns="http://www.w3.org/2000/svg" viewBox="0 0 32 32">
<title>celo</title>
<path fill="#fbcc5c" d="M12.632 28.632c5.117 0 9.263-4.147 9.263-9.263s-4.147-9.263-9.263-9.263-9.263 4.147-9.263 9.263 4.147 9.263 9.263 9.263zM12.632 32c-6.976 0-12.632-5.656-12.632-12.632s5.656-12.632 12.632-12.632 12.632 5.656 12.632 12.632-5.656 12.632-12.632 12.632z"></path>
<path fill="#35d07f" d="M19.368 21.895c5.117 0 9.263-4.147 9.263-9.263s-4.147-9.263-9.263-9.263-9.263 4.147-9.263 9.263 4.147 9.263 9.263 9.263zM19.368 25.263c-6.976 0-12.632-5.656-12.632-12.632s5.656-12.632 12.632-12.632 12.632 5.656 12.632 12.632-5.656 12.632-12.632 12.632z"></path>
<path fill="#5ea33b" d="M19.786 25.263c0.876-1.061 1.502-2.304 1.836-3.641 1.334-0.333 2.577-0.96 3.641-1.836-0.047 1.546-0.381 3.069-0.984 4.497-1.425 0.6-2.947 0.933-4.493 0.98zM10.378 10.378c-1.334 0.333-2.577 0.96-3.641 1.836 0.047-1.546 0.381-3.069 0.984-4.493 1.425-0.6 2.951-0.933 4.493-0.984-0.876 1.061-1.502 2.304-1.836 3.641z"></path>
</svg>
