<!-- Generated by IcoMoon.io -->
<svg version="1.1" xmlns="http://www.w3.org/2000/svg" viewBox="0 0 32 32">
<title>cennz</title>
<path fill="#0886fb" d="M0 0h32v32h-32v-32z"></path>
<path fill="#fffdfc" d="M26.521 16.576c0.003-0.027 0.005-0.059 0.005-0.092 0-0.161-0.043-0.312-0.117-0.442l0.002 0.004c-0.254-0.452-0.882-0.639-1.301-0.441-0.095 0.048-0.176 0.111-0.242 0.187l-0.001 0.001-4.323 3.827v4.415s-4.257-0.651-5.205-0.904c-1.213-0.32-2.075-0.552-2.867-1.29-0.276-0.254-1.058-0.981-1.103-2.008v-0.419l-0.022-11.282 5.592 0.848c0.441 0.077 1.566 0.331 2.448 1.138 0.28 0.263 0.523 0.56 0.726 0.886l0.011 0.019c0.342 0.54 0.397 0.849 0.408 1.048v3.548c0.021 0.225 0.109 0.426 0.244 0.586l-0.001-0.002c0.139 0.175 0.34 0.297 0.569 0.33l0.005 0.001c0.22 0.022 0.397-0.067 0.574-0.143 0.114-0.055 0.211-0.118 0.301-0.19l-0.003 0.002 4.401-3.694v-3.803c-0.044-1.114-0.618-1.919-0.993-2.448-0.21-0.287-1.29-1.731-3.254-2.404-0.177-0.055-0.32-0.099-0.419-0.134l-4.828-0.882c-0.326-0.071-0.712-0.122-1.106-0.143l-0.019-0.001c-0.22-0.011-1.125-0.067-1.985 0.088-1.611 0.299-3.773 1.455-4.081 3.165-0.018 0.097-0.029 0.211-0.033 0.327l-0 0.003h-0.518c-0.539 0.198-1.005 0.44-1.435 0.732l0.023-0.015c-0.441 0.298-1.324 0.904-1.952 2.075-0.392 0.736-0.627 1.607-0.639 2.533l-0 0.004v10.696c-0 0.016-0 0.036-0 0.055 0 0.175 0.008 0.348 0.024 0.518l-0.002-0.022s0.067 0.904 0.309 1.674c0.276 0.849 1.125 2.25 2.625 3.143 0.441 0.268 1.433 0.496 3.419 0.959 1.034 0.262 2.29 0.483 3.573 0.618l0.12 0.010c0.783 0.077 1.158 0.077 1.489 0.055 0.639-0.033 1.511-0.088 2.481-0.552 1.665-0.803 2.426-2.25 2.611-2.625 0.055-0.11 0.099-0.21 0.134-0.276h0.22c1.13-0.354 2.083-0.997 2.805-1.844l0.007-0.008c0.287-0.331 1.257-1.522 1.356-3.232 0.005-0.087 0.008-0.189 0.008-0.292s-0.003-0.205-0.009-0.306l0.001 0.014c-0.033-1.224-0.033-2.416-0.033-3.615v0zM12.504 5.812c0.314-0.273 0.669-0.511 1.051-0.704l0.029-0.013c0.364-0.177 1.301-0.617 2.371-0.364 0.134 0.033 0.242 0.067 0.309 0.088l4.985 0.938c0.919 0.122 1.721 0.551 2.315 1.178l0.002 0.002c0.187 0.201 0.927 1.015 1.015 2.206 0.005 0.064 0.008 0.139 0.008 0.215s-0.003 0.151-0.009 0.225l0.001-0.010v1.974l-2.019 1.566v-0.982c-0.018-0.232-0.045-0.44-0.083-0.644l0.006 0.037c-0.158-0.813-0.486-1.53-0.947-2.141l0.009 0.013c-0.177-0.254-1.191-1.654-3.033-2.261-0.099-0.033-0.177-0.055-0.242-0.077l-5.867-1.026 0.099-0.22zM19.353 26.281c-0.507 0.783-1.665 0.904-2.239 0.959-0.165 0.017-0.357 0.027-0.552 0.027-0.085 0-0.17-0.002-0.254-0.006l0.012 0-6.033-1.048-0.165-0.077c-0.448-0.091-0.844-0.264-1.191-0.504l0.011 0.007c-0.379-0.264-0.692-0.595-0.929-0.979l-0.008-0.014c-0.21-0.323-0.373-0.698-0.469-1.1l-0.005-0.024c-0.058-0.245-0.092-0.527-0.092-0.817 0-0.054 0.001-0.108 0.003-0.162l-0 0.008-0.011-11.050v-0.165c0.044-1.147 0.904-2.029 1.577-2.559l0.276-0.143c0.011 3.573 0.011 7.147 0.022 10.72 0 0.099-0.011 0.242 0 0.419 0.077 1.643 1.048 2.823 1.346 3.165 1.225 1.433 2.823 1.875 3.86 2.15 0.661 0.177 4.996 0.904 4.996 0.904-0.049 0.111-0.1 0.205-0.159 0.294l0.005-0.007zM24.58 20.536c-0.073 0.732-0.357 1.386-0.788 1.914l0.005-0.006c-0.308 0.369-0.682 0.673-1.105 0.895l-0.020 0.010v-2.978c0.639-0.53 1.279-1.058 1.908-1.577 0.011 0.574 0.011 1.158 0 1.741v0z"></path>
</svg>
