<!-- Generated by IcoMoon.io -->
<svg version="1.1" xmlns="http://www.w3.org/2000/svg" viewBox="0 0 32 32">
<title>clam</title>
<path d="M18.298 14.411c0.555-5.112 0.599-10.182 0.599-11.614v-0.146c0.284-0.123 0.846-0.236 1.812 0.027 1.106 0.302 1.956 1.422 2.352 2.036v0.391c-0.020 2.173-0.7 7.544-1.881 11.573-1.031 3.519-3.284 8.202-3.734 9.135-0.19-0.045-0.422-0.083-0.659-0.107l-0.023-0.002c0.18-1.188 1.010-6.475 1.534-11.294zM17.907 25.938c0.269 0.086 0.493 0.178 0.71 0.284l-0.031-0.014c0.583-0.763 3.263-4.324 4.937-7.544 1.975-3.798 3.814-8.836 4.063-9.814l0.101-0.4c-0.219-0.679-0.743-1.943-1.762-2.607-0.668-0.468-1.495-0.75-2.387-0.759l-0.002-0v0.020c-0.020 2.199-0.711 7.633-1.901 11.703-1.015 3.462-3.186 8.013-3.73 9.132h0.002zM19.011 26.441c0.294 0.181 0.549 0.374 0.784 0.588l-0.004-0.003c0.711-0.711 3.709-3.68 5.698-6.187 2.297-2.895 4.582-6.959 4.955-7.839l0.194-0.459c-0.053-0.583-0.215-1.509-0.711-2.196-0.481-0.613-1.119-1.082-1.854-1.349l-0.029-0.009c-0.313 1.208-2.215 6.285-4.089 9.901-1.661 3.174-4.272 6.667-4.946 7.552h0.002zM10.523 16.285c1.332 4.361 3.312 8.712 3.757 9.672 0.193-0.065 0.432-0.127 0.677-0.172l0.034-0.005c-0.178-1.038-1.083-6.5-1.645-11.637-0.613-5.613-0.864-10.371-0.889-11.336v-0.096c-0.437-0.116-1.367-0.274-2.571 0.281-0.868 0.439-1.543 1.152-1.924 2.024l-0.010 0.026c0.018 0.132 0.036 0.279 0.057 0.444 0.177 1.424 1.029 5.938 2.514 10.799zM13.817 14.089c0.564 5.145 1.474 10.622 1.643 11.621 0.205-0.023 0.443-0.036 0.684-0.036 0.001 0 0.003 0 0.004 0h0.124c0.178-1.079 1.019-6.442 1.549-11.319 0.553-5.087 0.596-10.134 0.596-11.557v-0.231c-0.45-0.4-1.492-1.184-2.768-1.184s-2.295 0.784-2.74 1.184v0.222c0.046 0.962 0.295 5.702 0.908 11.301v-0.002zM16.148 26.151c-2.605 0-3.794 1.554-4.146 2.134 2.203 1.616 3.604 2.331 4.166 2.331s2.158-0.866 4.12-2.262c-0.361-0.608-1.552-2.201-4.139-2.201v-0.002zM30.866 13.213c-0.412 0.946-2.706 5.021-5.008 7.923-2.004 2.525-5.005 5.512-5.736 6.223 0.195 0.212 0.374 0.444 0.532 0.691l0.012 0.020c1.655-1.217 3.112-2.435 4.489-3.735l-0.023 0.021c3.762-3.556 6.755-7.067 6.859-8.84 0.005-0.061 0.008-0.132 0.008-0.204 0-0.874-0.447-1.643-1.124-2.093l-0.009-0.006zM6.179 20.536c1.943 2.371 3.991 4.492 6.197 6.438l0.059 0.051c0.153-0.14 0.32-0.274 0.494-0.397l0.016-0.011c-1.934-2.341-3.68-4.97-5.137-7.774l-0.117-0.248c-2.46-4.789-3.395-8.104-3.795-9.519l-0.055-0.212v-0.010c-0.551 0.148-1.94 0.608-2.489 1.616-0.233 0.434-0.37 0.951-0.37 1.499 0 0.003 0 0.006 0 0.010v-0.001c0.155 0.456 0.268 0.75 0.385 1.042l-0.055-0.153c0.857 2.172 2.495 4.759 4.866 7.667zM5.809 20.838c-2.311-2.845-3.944-5.384-4.843-7.555-0.338 0.297-1.038 1.088-0.96 2.489 0.101 1.838 2.742 4.745 7.569 8.927 1.55 1.344 2.902 2.436 4.052 3.296 0.152-0.237 0.31-0.443 0.484-0.635l-0.004 0.004c-2.28-2.010-4.342-4.143-6.223-6.431l-0.076-0.096h0.002zM4.357 8.948c0.395 1.401 1.321 4.683 3.76 9.424 1.564 3.037 3.304 5.654 5.295 8.056l-0.059-0.073c0.127-0.073 0.284-0.152 0.446-0.222l0.033-0.013c-0.48-1.036-2.441-5.364-3.766-9.701-1.493-4.891-2.35-9.444-2.532-10.882v-0.055c-0.051-0.003-0.112-0.004-0.172-0.004-0.769 0-1.478 0.253-2.050 0.679l0.009-0.006c-0.745 0.549-1.047 1.44-1.172 2.034 0.037 0.149 0.085 0.327 0.146 0.544z"></path>
</svg>
