<!-- Generated by IcoMoon.io -->
<svg version="1.1" xmlns="http://www.w3.org/2000/svg" viewBox="0 0 32 32">
<title>cnd</title>
<path d="M15.998 32c-8.834-0.002-15.995-7.164-15.995-15.998 0-8.836 7.163-15.998 15.998-15.998 8.835 0 15.997 7.161 15.998 15.995v0c0 0.001 0 0.002 0 0.003 0 8.836-7.163 15.998-15.998 15.998-0.001 0-0.002 0-0.003 0h0zM15.998 30.751c8.146 0 14.75-6.604 14.75-14.75s-6.604-14.75-14.75-14.75c-8.145 0-14.748 6.602-14.75 14.746v0c0.009 8.14 6.609 14.735 14.749 14.737h0z"></path>
<path d="M17.406 16.031c0 0.759-0.616 1.375-1.375 1.375s-1.375-0.616-1.375-1.375c0-0.759 0.616-1.375 1.375-1.375s1.375 0.616 1.375 1.375z"></path>
</svg>
