<!-- Generated by IcoMoon.io -->
<svg version="1.1" xmlns="http://www.w3.org/2000/svg" viewBox="0 0 32 32">
<title>comp</title>
<path fill="#070a0e" d="M16 32c8.837 0 16-7.163 16-16s-7.163-16-16-16-16 7.163-16 16 7.163 16 16 16z"></path>
<path fill="#00d395" d="M9.243 21.365c-0.478-0.293-0.771-0.813-0.771-1.373v-3.126c0-0.371 0.302-0.672 0.674-0.67 0.118 0 0.235 0.032 0.338 0.091l7.054 4.114c0.413 0.24 0.667 0.682 0.667 1.16v3.238c0.002 0.445-0.358 0.806-0.803 0.806-0.149 0-0.296-0.042-0.422-0.118l-6.736-4.122zM19.758 15.43c0.413 0.24 0.666 0.683 0.667 1.16v6.573c0 0.194-0.104 0.373-0.274 0.467l-1.544 0.869c-0.019 0.011-0.040 0.019-0.062 0.026v-3.65c0-0.472-0.248-0.91-0.654-1.154l-6.195-3.706v-4.12c0-0.371 0.302-0.672 0.674-0.67 0.118 0 0.235 0.032 0.338 0.091l7.051 4.114zM22.846 10.576c0.414 0.24 0.669 0.683 0.669 1.162v9.6c-0.002 0.197-0.11 0.378-0.283 0.472l-1.464 0.79v-6.683c0-0.472-0.248-0.909-0.651-1.152l-6.333-3.798v-3.907c0-0.118 0.032-0.235 0.090-0.338 0.187-0.32 0.598-0.429 0.918-0.243l7.054 4.098z"></path>
</svg>
