<!-- Generated by IcoMoon.io -->
<svg version="1.1" xmlns="http://www.w3.org/2000/svg" viewBox="0 0 32 32">
<title>coti</title>
<path fill="#00467a" d="M16 0c8.837 0 16 7.163 16 16s-7.163 16-16 16-16-7.163-16-16 7.163-16 16-16v0z"></path>
<path fill="#000" d="M6.972 13.912c-0.321 0-0.464 0.143-0.464 0.428 0 0 0 6.421 0 7.348 0 0.321 0.143 0.428 0.464 0.428 3.532 0.036 7.847-3.103 11.415-5.564v-8.49c-3.531 2.426-7.954 5.886-11.415 5.851z"></path>
<path fill="#000" d="M25.557 17.229c0.321 0 0.464-0.143 0.464-0.428 0 0 0-6.421 0-7.348 0-0.321-0.143-0.428-0.464-0.428-3.568-0.036-7.847 3.103-11.415 5.564v8.454c3.532-2.426 7.955-5.886 11.415-5.815z"></path>
<path fill="#194aad" d="M18.387 16.551v-4.851c-1.463 0.927-2.925 1.926-4.281 2.854v4.851c1.498-0.927 2.926-1.926 4.281-2.854z"></path>
</svg>
