<!-- Generated by IcoMoon.io -->
<svg version="1.1" xmlns="http://www.w3.org/2000/svg" viewBox="0 0 32 32">
<title>cream</title>
<path fill="#69e2dc" d="M17.289 16.755l5.611 5.611c0.193 0.194 0.312 0.46 0.312 0.755 0 0.345-0.163 0.651-0.416 0.847l-0.002 0.002c-1.706 1.35-3.889 2.165-6.262 2.165-5.599 0-10.138-4.539-10.138-10.138s4.539-10.138 10.138-10.138c2.39 0 4.587 0.827 6.321 2.211l-0.020-0.016c0.237 0.196 0.387 0.489 0.387 0.818 0 0.296-0.122 0.564-0.318 0.756l-5.615 5.615c-0.096 0.096-0.174 0.211-0.228 0.339l-0.003 0.007c-0.051 0.124-0.081 0.269-0.081 0.42 0 0.002 0 0.004 0 0.007v-0c-0 0.004-0 0.008-0 0.012 0 0.15 0.031 0.292 0.088 0.421l-0.003-0.007c0.055 0.135 0.133 0.25 0.23 0.346l0 0zM16 0c-8.837 0-16 7.163-16 16s7.163 16 16 16c8.837 0 16-7.163 16-16v0c0-8.837-7.163-16-16-16v0z"></path>
</svg>
