<!-- Generated by IcoMoon.io -->
<svg version="1.1" xmlns="http://www.w3.org/2000/svg" viewBox="0 0 32 32">
<title>crpt</title>
<path fill="#2992fb" d="M0 0h32v32h-32v-32z"></path>
<path fill="#fff" d="M22.14 9.285l-0.575 0.575c-1.352-1.126-3.108-1.81-5.023-1.81-0.015 0-0.029 0-0.044 0h0.002c-4.206 0-7.651 3.259-7.948 7.389l-0.002 0.026h-0.825c0.285-4.61 4.093-8.24 8.749-8.24 0.009 0 0.018 0 0.027 0h-0.001c2.155 0.011 4.127 0.788 5.659 2.071l-0.014-0.011zM16.5 10.15c0 0 0 0 0.001 0 1.956 0 3.691 0.95 4.768 2.414l0.012 0.016 0.575-0.58c-1.234-1.633-3.173-2.678-5.356-2.678-3.698 0-6.695 2.997-6.695 6.695s2.997 6.695 6.695 6.695c2.183 0 4.121-1.044 5.343-2.661l0.012-0.017-0.575-0.575c-1.081 1.497-2.821 2.46-4.786 2.46-3.25 0-5.885-2.635-5.885-5.885s2.635-5.885 5.885-5.885c0.002 0 0.004 0 0.006 0h-0zM22.805 9.905l-0.58 0.595c0.184 0.19 0.359 0.392 0.523 0.603l0.012 0.017 0.575-0.62c-0.176-0.228-0.351-0.43-0.537-0.622l0.002 0.002zM7.68 16.575c0.296 4.611 4.108 8.24 8.768 8.24 2.159 0 4.136-0.779 5.665-2.070l-0.013 0.011-0.6-0.575c-1.354 1.132-3.114 1.82-5.035 1.82-0.003 0-0.007 0-0.010 0h0.001c-0.001 0-0.002 0-0.004 0-4.21 0-7.657-3.264-7.95-7.4l-0.001-0.025h-0.82zM22.22 21.575l0.575 0.575c0.185-0.197 0.362-0.409 0.526-0.631l0.014-0.019-0.575-0.575c-0.176 0.228-0.351 0.43-0.537 0.622l0.002-0.002zM16.5 25.97c-5.506 0-9.97-4.464-9.97-9.97s4.464-9.97 9.97-9.97v0c0.002 0 0.003 0 0.005 0 3.077 0 5.827 1.405 7.641 3.608l0.014 0.017 0.575-0.575c-1.991-2.358-4.948-3.845-8.253-3.845-5.954 0-10.78 4.826-10.78 10.78s4.826 10.78 10.78 10.78c0.006 0 0.013 0 0.019-0h-0.001c0.009 0 0.019 0 0.030 0 3.298 0 6.245-1.501 8.196-3.857l0.014-0.018-0.575-0.575c-1.805 2.219-4.535 3.625-7.593 3.625-0.025 0-0.050-0-0.076-0l0.004 0z"></path>
</svg>
