<!-- Generated by IcoMoon.io -->
<svg version="1.1" xmlns="http://www.w3.org/2000/svg" viewBox="0 0 32 32">
<title>crv</title>
<path fill="#ff6f00" d="M3.353 13.596l0.077 0.811 0.681-0.811-0.023-0.88-0.735 0.88z"></path>
<path fill="#ffb600" d="M13.856 15.12l-0.245 0.995 0.513 1.753 0.268-0.919-0.536-1.83z"></path>
<path fill="#ff9800" d="M7.166 15.081l1.187 0.291 0.574-0.069-1.125-0.299-0.635 0.077z"></path>
<path fill="#ff9400" d="M3.598 15.089l0.352 0.536 0.589-0.689-0.306-0.605-0.635 0.758z"></path>
<path fill="#b7ff40" d="M14.033 20.387l-0.544 0.513 0.153 1.654 0.559-0.421-0.168-1.745z"></path>
<path fill="#a40000" d="M8.023 6.89l0.092 1.309 1.133 0.49-0.054-1.294-1.171-0.505z"></path>
<path fill="#a7ff50" d="M12.034 21.466l-0.069-0.092 0.115 1.21 0.084 0.199-0.13-1.317z"></path>
<path fill="#c7ff30" d="M11.736 20.188l0.314-0.084 0.207 1.087-0.291 0.184-0.23-1.187z"></path>
<path fill="#ff8200" d="M3.43 14.408l0.168 0.681 0.635-0.758-0.122-0.735-0.681 0.811z"></path>
<path fill="#f1fc06" d="M14.124 17.868l-0.421 0.781 0.329 1.73 0.436-0.689-0.345-1.822z"></path>
<path fill="#fbf100" d="M11.345 18.090l0.804 0.015 0.36 0.888-0.766 0.069-0.398-0.972z"></path>
<path fill="#ff1300" d="M11.407 9.309l-0.015 1.248 0.949 1.324 0.038-1.202-0.972-1.37z"></path>
<path fill="#c40000" d="M5.872 8.168l0.061 1.263 1.064-0.13-0.023-1.278-1.102 0.145z"></path>
<path fill="#b60000" d="M9.194 7.395l0.054 1.294 1.102 0.796-0.015-1.278-1.141-0.811z"></path>
<path fill="#ff9400" d="M7.801 15.005l1.125 0.299 0.597 0.1-1.072-0.291-0.651-0.107z"></path>
<path fill="#ff8d00" d="M5.711 14.944l0.857 0.383 0.597-0.245-0.796-0.413-0.658 0.276z"></path>
<path fill="#ff8d00" d="M4.54 14.936l0.567 0.467 0.605-0.459-0.513-0.513-0.658 0.505z"></path>
<path fill="#d10000" d="M10.335 8.207l0.015 1.278 1.041 1.072 0.015-1.248-1.072-1.102z"></path>
<path fill="#ff3800" d="M4.073 11.713l0.015 1.003 0.827-0.643 0.031-1.049-0.873 0.689z"></path>
<path fill="#adff49" d="M12.387 21.428l-0.352 0.038 0.13 1.317 0.36 0.077-0.138-1.432z"></path>
<path fill="#b4ff43" d="M13.489 20.9l-0.582 0.345 0.145 1.546 0.589-0.237-0.153-1.654z"></path>
<path fill="#ffd300" d="M10.871 17.217l0.85 0.1 0.429 0.789-0.804-0.015-0.475-0.873z"></path>
<path fill="#f10800" d="M4.93 9.868l0.015 1.156 0.957-0.406 0.031-1.187-1.003 0.436z"></path>
<path fill="#ff9400" d="M8.452 15.112l1.072 0.291 0.589 0.26-1.011-0.268-0.651-0.283z"></path>
<path fill="#b1ff46" d="M12.907 21.252l-0.521 0.176 0.138 1.432 0.528-0.069-0.145-1.539z"></path>
<path fill="#ebff0c" d="M11.399 19.039l0.345 0.023 0.306 1.041-0.314 0.084-0.337-1.148z"></path>
<path fill="#ff7e00" d="M13.167 13.412l-0.214 1.064 0.658 1.638 0.245-0.995-0.689-1.707z"></path>
<path fill="#ffb900" d="M10.327 16.467l0.896 0.161 0.498 0.689-0.85-0.1-0.544-0.75z"></path>
<path fill="#ff9c00" d="M9.102 15.395l1.011 0.268 0.574 0.413-0.957-0.222-0.628-0.459z"></path>
<path fill="#ceff29" d="M11.782 20.165l-0.046 0.023 0.23 1.187 0.069 0.092-0.253-1.301z"></path>
<path fill="#ffa700" d="M9.73 15.855l0.957 0.222 0.536 0.551-0.896-0.161-0.597-0.612z"></path>
<path fill="#f70" d="M4.234 14.331l0.306 0.605 0.658-0.505-0.245-0.651-0.72 0.551z"></path>
<path fill="#ff8200" d="M6.369 14.668l0.796 0.413 0.635-0.077-0.735-0.421-0.697 0.084z"></path>
<path fill="#ff4a00" d="M4.088 12.716l0.023 0.88 0.773-0.597 0.031-0.926-0.827 0.643z"></path>
<path fill="#b60000" d="M6.974 8.023l0.023 1.278 1.095 0.168 0.023-1.271-1.141-0.176z"></path>
<path fill="#ebff0c" d="M13.703 18.649l-0.528 0.62 0.314 1.631 0.544-0.513-0.329-1.738z"></path>
<path fill="#ff6000" d="M4.111 13.596l0.122 0.735 0.72-0.551-0.069-0.781-0.773 0.597z"></path>
<path fill="#f70" d="M5.198 14.431l0.513 0.513 0.658-0.276-0.452-0.544-0.72 0.306z"></path>
<path fill="#ffc100" d="M13.611 16.115l-0.398 0.865 0.49 1.669 0.421-0.781-0.513-1.753z"></path>
<path fill="#ffe200" d="M10.963 17.975l0.383 0.115 0.398 0.972-0.345-0.023-0.436-1.064z"></path>
<path fill="#d7ff1f" d="M12.111 20.011l-0.329 0.153 0.253 1.301 0.352-0.038-0.276-1.416z"></path>
<path fill="#ff4a00" d="M12.341 11.881l-0.191 1.125 0.804 1.47 0.214-1.064-0.827-1.531z"></path>
<path fill="#ff7a00" d="M7.066 14.584l0.735 0.421 0.651 0.107-0.674-0.406-0.712-0.123z"></path>
<path fill="#ff1a00" d="M4.945 11.024l-0.031 1.049 0.896-0.383 0.092-1.072-0.957 0.406z"></path>
<path fill="#da0000" d="M5.933 9.432l-0.031 1.187 1.011-0.13 0.084-1.187-1.064 0.13z"></path>
<path fill="#f4f802" d="M11.414 18.909l-0.015 0.13 0.337 1.148 0.046-0.023-0.367-1.256z"></path>
<path fill="#e4ff13" d="M13.175 19.269l-0.566 0.452 0.291 1.531 0.589-0.352-0.314-1.631z"></path>
<path fill="#b00" d="M8.115 8.199l-0.023 1.271 1.087 0.467 0.069-1.248-1.133-0.49z"></path>
<path fill="#ffc100" d="M10.434 17.018l0.436 0.199 0.475 0.873-0.383-0.115-0.528-0.957z"></path>
<path fill="#deff19" d="M12.609 19.721l-0.498 0.291 0.276 1.416 0.513-0.176-0.291-1.531z"></path>
<path fill="#ff6000" d="M4.953 13.78l0.245 0.651 0.72-0.306-0.184-0.674-0.781 0.329z"></path>
<path fill="#ff7e00" d="M7.778 14.706l0.674 0.406 0.651 0.283-0.612-0.383-0.712-0.306z"></path>
<path fill="#ff6c00" d="M5.918 14.124l0.452 0.544 0.697-0.084-0.39-0.544-0.758 0.084z"></path>
<path fill="#ff1e00" d="M11.391 10.557l-0.153 1.179 0.911 1.271 0.191-1.125-0.949-1.324z"></path>
<path fill="#ffa700" d="M9.837 16.184l0.49 0.283 0.544 0.75-0.436-0.199-0.597-0.834z"></path>
<path fill="#c80000" d="M9.248 8.689l-0.069 1.248 1.064 0.766 0.107-1.217-1.102-0.796z"></path>
<path fill="#ff8600" d="M8.49 15.012l0.612 0.383 0.628 0.459-0.544-0.345-0.697-0.498z"></path>
<path fill="#ff3000" d="M4.915 12.073l-0.031 0.926 0.842-0.36 0.084-0.949-0.896 0.383z"></path>
<path fill="#ff8900" d="M12.953 14.477l-0.367 0.949 0.628 1.554 0.398-0.865-0.658-1.638z"></path>
<path fill="#ff9400" d="M9.187 15.51l0.544 0.345 0.597 0.612-0.49-0.283-0.651-0.674z"></path>
<path fill="#e40000" d="M10.35 9.485l-0.107 1.217 0.995 1.034 0.153-1.179-1.041-1.072z"></path>
<path fill="#ffc800" d="M13.213 16.98l-0.505 0.712 0.467 1.577 0.528-0.62-0.49-1.669z"></path>
<path fill="#ff4a00" d="M4.884 12.999l0.069 0.781 0.781-0.329-0.008-0.811-0.842 0.36z"></path>
<path fill="#ffd300" d="M10.94 17.745l0.023 0.23 0.436 1.064 0.015-0.13-0.475-1.164z"></path>
<path fill="#feed00" d="M11.705 18.656l-0.291 0.253 0.367 1.256 0.329-0.153-0.406-1.355z"></path>
<path fill="#cd0000" d="M6.997 9.301l-0.084 1.187 1.041 0.168 0.138-1.187-1.095-0.168z"></path>
<path fill="#ff6400" d="M6.676 14.040l0.39 0.544 0.712 0.123-0.322-0.544-0.781-0.123z"></path>
<path fill="#f10800" d="M5.902 10.618l-0.092 1.072 0.957-0.115 0.145-1.087-1.011 0.13z"></path>
<path fill="#ffd300" d="M12.708 17.692l-0.528 0.559 0.429 1.47 0.566-0.452-0.467-1.577z"></path>
<path fill="#ff5200" d="M5.734 13.451l0.184 0.674 0.758-0.084-0.115-0.689-0.827 0.1z"></path>
<path fill="#ffe200" d="M12.18 18.251l-0.475 0.406 0.406 1.363 0.498-0.299-0.429-1.47z"></path>
<path fill="#ffb200" d="M10.366 16.697l0.069 0.322 0.528 0.957-0.023-0.23-0.574-1.049z"></path>
<path fill="#ff5900" d="M12.149 13.007l-0.329 1.011 0.766 1.409 0.367-0.949-0.804-1.47z"></path>
<path fill="#ff6400" d="M7.456 14.163l0.322 0.544 0.712 0.306-0.253-0.505-0.781-0.345z"></path>
<path fill="#f20" d="M5.811 11.69l-0.084 0.949 0.896-0.107 0.145-0.957-0.957 0.115z"></path>
<path fill="#ffc400" d="M11.192 17.386l-0.253 0.36 0.475 1.164 0.291-0.253-0.513-1.271z"></path>
<path fill="#ff3800" d="M5.726 12.639l0.008 0.811 0.827-0.1 0.061-0.819-0.896 0.107z"></path>
<path fill="#ff9400" d="M12.586 15.426l-0.475 0.804 0.597 1.462 0.505-0.712-0.628-1.554z"></path>
<path fill="#d10000" d="M8.092 9.47l-0.138 1.187 1.041 0.444 0.184-1.164-1.087-0.467z"></path>
<path fill="#ff9400" d="M9.715 15.786l0.123 0.398 0.597 0.834-0.069-0.322-0.651-0.911z"></path>
<path fill="#ff6c00" d="M8.237 14.507l0.253 0.505 0.697 0.498-0.191-0.459-0.758-0.544z"></path>
<path fill="#ff7e00" d="M8.995 15.051l0.191 0.459 0.651 0.674-0.123-0.398-0.72-0.735z"></path>
<path fill="#ff3000" d="M11.238 11.736l-0.283 1.072 0.865 1.21 0.329-1.011-0.911-1.271z"></path>
<path fill="#ff4a00" d="M6.561 13.351l0.115 0.689 0.781 0.123-0.046-0.674-0.85-0.138z"></path>
<path fill="#e80000" d="M6.913 10.488l-0.145 1.087 0.98 0.153 0.207-1.072-1.041-0.168z"></path>
<path fill="#df0000" d="M9.179 9.937l-0.184 1.171 1.011 0.72 0.237-1.125-1.064-0.766z"></path>
<path fill="#ffb200" d="M11.621 16.88l-0.429 0.505 0.521 1.271 0.467-0.406-0.559-1.37z"></path>
<path fill="#fa0f00" d="M10.243 10.702l-0.237 1.125 0.949 0.98 0.283-1.079-0.995-1.026z"></path>
<path fill="#ffa300" d="M12.119 16.23l-0.498 0.651 0.559 1.37 0.536-0.559-0.597-1.462z"></path>
<path fill="#ff9f00" d="M10.565 16.237l-0.199 0.459 0.574 1.049 0.253-0.36-0.628-1.148z"></path>
<path fill="#ff6800" d="M11.82 14.017l-0.421 0.888 0.712 1.324 0.475-0.804-0.766-1.409z"></path>
<path fill="#ff3000" d="M6.622 12.532l-0.061 0.819 0.85 0.138 0.13-0.811-0.919-0.145z"></path>
<path fill="#ff4a00" d="M7.411 13.489l0.046 0.674 0.781 0.345 0.023-0.643-0.85-0.375z"></path>
<path fill="#ff1a00" d="M6.767 11.575l-0.145 0.957 0.919 0.145 0.207-0.949-0.98-0.153z"></path>
<path fill="#ff7e00" d="M9.86 15.257l-0.145 0.528 0.651 0.911 0.207-0.459-0.712-0.98z"></path>
<path fill="#ed0400" d="M7.954 10.656l-0.207 1.072 0.98 0.429 0.268-1.056-1.041-0.444z"></path>
<path fill="#f50" d="M8.26 13.864l-0.023 0.643 0.758 0.544 0.084-0.597-0.819-0.589z"></path>
<path fill="#ff8d00" d="M10.947 15.648l-0.383 0.589 0.628 1.148 0.429-0.505-0.674-1.233z"></path>
<path fill="#ff6800" d="M9.079 14.454l-0.084 0.597 0.72 0.735 0.145-0.528-0.781-0.804z"></path>
<path fill="#ff7a00" d="M11.399 14.905l-0.452 0.743 0.674 1.233 0.498-0.651-0.72-1.324z"></path>
<path fill="#ff4300" d="M10.955 12.808l-0.375 0.957 0.819 1.141 0.421-0.888-0.865-1.21z"></path>
<path fill="#ff3400" d="M7.541 12.678l-0.13 0.811 0.85 0.375 0.191-0.789-0.911-0.398z"></path>
<path fill="#fa0f00" d="M8.995 11.1l-0.268 1.056 0.957 0.681 0.322-1.011-1.011-0.727z"></path>
<path fill="#ff1a00" d="M7.747 11.728l-0.207 0.949 0.911 0.398 0.276-0.919-0.98-0.429z"></path>
<path fill="#f20" d="M10.006 11.828l-0.322 1.011 0.896 0.926 0.375-0.957-0.949-0.98z"></path>
<path fill="#ff6800" d="M10.182 14.584l-0.322 0.674 0.704 0.98 0.383-0.589-0.766-1.064z"></path>
<path fill="#f50" d="M10.58 13.765l-0.398 0.819 0.766 1.064 0.452-0.743-0.819-1.141z"></path>
<path fill="#ff3b00" d="M8.452 13.076l-0.191 0.789 0.819 0.589 0.26-0.735-0.888-0.643z"></path>
<path fill="#ff4e00" d="M9.34 13.719l-0.26 0.735 0.781 0.804 0.322-0.674-0.842-0.865z"></path>
<path fill="#ff2500" d="M8.727 12.157l-0.276 0.919 0.888 0.643 0.345-0.88-0.957-0.681z"></path>
<path fill="#ff3800" d="M9.677 12.838l-0.337 0.88 0.842 0.865 0.398-0.819-0.903-0.926z"></path>
</svg>
