<!-- Generated by IcoMoon.io -->
<svg version="1.1" xmlns="http://www.w3.org/2000/svg" viewBox="0 0 32 32">
<title>cs</title>
<path fill="#fff" d="M30.672 16c0 8.103-6.569 14.672-14.672 14.672s-14.672-6.569-14.672-14.672c0-8.103 6.569-14.672 14.672-14.672s14.672 6.569 14.672 14.672z"></path>
<path fill="#000" d="M14.637 10.086c-1.127 0.562-1.982 1.531-2.381 2.709l-0.010 0.033c-0.349 0.935-0.551 2.015-0.551 3.143 0 0.841 0.112 1.655 0.322 2.429l-0.015-0.065c0.246 1.090 0.786 2.029 1.532 2.757l0.001 0.001c0.539 0.541 1.226 0.936 1.994 1.118l0.028 0.006-0.131-12.41c-0.298 0.112-0.557 0.17-0.79 0.278z"></path>
<path fill="#000" d="M16 0c-8.837 0-16 7.163-16 16s7.163 16 16 16c8.837 0 16-7.163 16-16v0c0-8.837-7.163-16-16-16v0zM22.688 20.72c-0.102 0.238-0.239 0.441-0.407 0.615l0.001-0.001c-1.066 1.148-2.504 1.938-4.122 2.178l-0.038 0.005-0.419 0.070c-0.032 0-0.064 0.029-0.038 0.016-0.218 0.771-0.371 1.523-0.64 2.24-0.496 1.28-1.325 2.304-2.662 2.816-0.31 0.133-0.67 0.211-1.049 0.211-0.951 0-1.789-0.49-2.273-1.231l-0.006-0.010c-0.171-0.274-0.285-0.601-0.319-0.951l-0.001-0.009c-0.003-0.028-0.004-0.060-0.004-0.092 0-0.475 0.314-0.877 0.745-1.010l0.007-0.002c0.109-0.038 0.235-0.060 0.366-0.060 0.631 0 1.142 0.511 1.142 1.142 0 0.223-0.064 0.43-0.174 0.606l0.003-0.005c-0.074 0.118-0.166 0.227-0.25 0.339 0.64 0.48 1.382 0.445 1.846-0.157 0.265-0.367 0.482-0.792 0.631-1.247l0.009-0.033c0.258-0.78 0.423-1.68 0.457-2.613l0.001-0.018c-0.070-0.041-0.15-0.077-0.235-0.103l-0.008-0.002c-2.771-0.554-4.573-2.208-5.482-4.854-0.31-0.81-0.49-1.746-0.49-2.725 0-1.497 0.42-2.895 1.149-4.084l-0.019 0.034c0.939-1.601 2.496-2.754 4.335-3.138l0.043-0.007 0.522-0.115c0.032 0 0.058-0.038 0.112-0.074 0.062-1.044 0.328-2.013 0.759-2.886l-0.020 0.044c0.512-1.155 1.459-2.038 2.628-2.454l0.032-0.010c0.263-0.094 0.567-0.149 0.883-0.149 0.9 0 1.698 0.442 2.187 1.12l0.005 0.008c0.186 0.273 0.321 0.596 0.385 0.945l0.002 0.015c0.008 0.050 0.013 0.108 0.013 0.167 0 0.448-0.278 0.831-0.672 0.986l-0.007 0.003c-0.135 0.062-0.293 0.098-0.459 0.098-0.34 0-0.645-0.15-0.852-0.387l-0.001-0.001c-0.179-0.197-0.289-0.461-0.289-0.75 0-0.218 0.062-0.421 0.17-0.593l-0.003 0.005c0.080-0.134 0.176-0.256 0.262-0.384-0.704-0.483-1.395-0.4-1.898 0.218-0.431 0.592-0.728 1.308-0.833 2.085l-0.003 0.024c-0.118 0.589-0.173 1.19-0.269 1.859l0.739 0.128c1.119 0.166 2.12 0.563 2.99 1.143l-0.027-0.017c0.476 0.268 0.792 0.77 0.792 1.346 0 0.090-0.008 0.178-0.022 0.263l0.001-0.009c-0.005 0.071-0.008 0.155-0.008 0.239 0 0.269 0.028 0.531 0.082 0.784l-0.004-0.024c0.051 0.406-0.022 0.621-0.282 0.72-0.060 0.023-0.13 0.036-0.203 0.036-0.248 0-0.461-0.154-0.547-0.371l-0.001-0.004c-0.246-0.432-0.451-0.886-0.694-1.318-0.471-0.826-1.273-1.417-2.22-1.597l-0.020-0.003c-0.198-0.032-0.397-0.054-0.598-0.067l0.125 12.646c0.947-0.138 1.801-0.439 2.568-0.873l-0.036 0.019c0.528-0.32 1.005-0.726 1.507-1.091 0.135-0.134 0.295-0.242 0.473-0.316l0.010-0.004c0.031-0.005 0.068-0.008 0.105-0.008 0.157 0 0.301 0.054 0.415 0.144l-0.001-0.001c0.085 0.093 0.137 0.218 0.137 0.355 0 0.068-0.013 0.133-0.036 0.192l0.001-0.004z"></path>
</svg>
