<!-- Generated by IcoMoon.io -->
<svg version="1.1" xmlns="http://www.w3.org/2000/svg" viewBox="0 0 32 32">
<title>cspr</title>
<path fill="#ff473e" d="M28.359 24.788c-0.765 0-1.415 0.533-1.577 1.275l-6.087-0.29c0.023-0.116 0.035-0.232 0.035-0.348 0-0.209-0.035-0.417-0.093-0.626l2.215-1.275c0.545 0.672 1.53 0.812 2.238 0.301s0.893-1.484 0.417-2.215-1.438-0.962-2.191-0.533-1.043 1.38-0.649 2.157l-2.145 1.241c-0.51-1.078-1.774-1.565-2.875-1.113s-1.658 1.693-1.264 2.817l-3.988 0.962c-0.023-0.545-0.255-1.055-0.638-1.449l0.719-0.997c0.812 0.278 1.704-0.128 2.029-0.928s-0.035-1.716-0.812-2.075c-0.777-0.371-1.716-0.058-2.122 0.696s-0.151 1.704 0.58 2.157l-0.661 0.916c-0.464-0.348-1.055-0.499-1.635-0.429l-0.684-3.907c0.858-0.186 1.519-0.858 1.704-1.704 0.185-0.858-0.139-1.739-0.835-2.261-0.696-0.533-1.635-0.603-2.4-0.197l-1.728-3.374c0.371-0.185 0.672-0.475 0.893-0.823l1.438 0.383c-0.012 0.081-0.023 0.151-0.023 0.232 0 0.835 0.638 1.542 1.472 1.623s1.6-0.487 1.751-1.322-0.348-1.635-1.159-1.855c-0.812-0.232-1.658 0.197-1.959 0.986l-1.357-0.359c0.186-0.441 0.22-0.928 0.104-1.391l4-1.843c0.742 0.928 2.087 1.125 3.061 0.429s1.229-2.029 0.58-3.026l2.551-2.493c0.313 0.197 0.672 0.325 1.032 0.348v1.101c-0.846 0.093-1.484 0.835-1.438 1.693s0.754 1.53 1.612 1.53 1.565-0.672 1.612-1.53-0.58-1.6-1.438-1.693v-1.101c0.325-0.023 0.626-0.116 0.904-0.267l2.794 3.188c-0.649 0.858-0.603 2.052 0.104 2.852 0.719 0.8 1.901 0.986 2.829 0.429s1.322-1.681 0.962-2.69l0.87-0.487c0.557 0.649 1.519 0.765 2.203 0.243 0.684-0.51 0.846-1.472 0.371-2.18s-1.426-0.928-2.157-0.487-0.997 1.368-0.603 2.133l-0.823 0.464c-0.336-0.615-0.939-1.032-1.623-1.136s-1.391 0.116-1.89 0.603l-2.736-3.119c0.267-0.209 0.487-0.487 0.638-0.788l2.4 0.394c0.186 0.835 0.997 1.38 1.832 1.229 0.846-0.139 1.426-0.916 1.333-1.762s-0.835-1.484-1.681-1.438c-0.858 0.046-1.519 0.742-1.53 1.6l-2.226-0.371c0.313-1.067-0.197-2.203-1.206-2.678s-2.203-0.128-2.817 0.8-0.452 2.168 0.383 2.91l-2.481 2.423c-0.383-0.441-0.928-0.719-1.507-0.765v-1.693c0.846-0.093 1.484-0.835 1.438-1.693s-0.742-1.519-1.6-1.519-1.565 0.672-1.612 1.53 0.58 1.6 1.438 1.693v1.681c-0.765 0.058-1.449 0.51-1.809 1.183-0.359 0.684-0.348 1.496 0.035 2.168l-3.896 1.786c-0.139-0.336-0.359-0.626-0.638-0.858l1.519-2.736c0.139 0.035 0.267 0.058 0.406 0.058 0.823 0 1.507-0.614 1.612-1.426s-0.429-1.565-1.217-1.762c-0.8-0.197-1.612 0.232-1.901 0.997s0.046 1.623 0.765 2.006l-1.472 2.667c-0.893-0.533-2.017-0.383-2.748 0.359-0.719 0.742-0.846 1.867-0.301 2.748s1.612 1.275 2.597 0.962l1.751 3.42c-0.441 0.325-0.754 0.812-0.858 1.345l-1.275-0.371c0.035-0.128 0.046-0.267 0.046-0.394 0-0.823-0.615-1.507-1.426-1.6s-1.565 0.429-1.762 1.229 0.243 1.612 1.020 1.89c0.765 0.278 1.623-0.058 1.994-0.788l1.357 0.394c0 0.035 0 0.070 0 0.104 0 0.765 0.383 1.472 1.032 1.878l-0.87 1.136c-0.638-0.568-1.612-0.533-2.215 0.081s-0.626 1.577-0.046 2.215 1.542 0.707 2.215 0.162 0.788-1.507 0.29-2.203l0.939-1.229c0.278 0.128 0.591 0.186 0.904 0.186 0.046 0 0.093 0 0.139-0.012l0.696 3.93c-0.928 0.278-1.577 1.125-1.612 2.087-0.023 0.974 0.58 1.843 1.496 2.168s1.936 0.023 2.528-0.754l3.246 1.449c-0.023 0.116-0.046 0.243-0.046 0.359 0 0.823 0.614 1.519 1.438 1.612s1.577-0.441 1.762-1.241c0.186-0.8-0.267-1.612-1.043-1.89s-1.635 0.081-1.994 0.823l-3.165-1.415c0.139-0.255 0.232-0.533 0.255-0.823l4.128-1.009c0.313 0.58 0.87 0.985 1.519 1.125 0.649 0.128 1.322-0.035 1.832-0.441l1.542 1.333c-0.359 0.788-0.046 1.716 0.719 2.11 0.765 0.406 1.704 0.139 2.145-0.603s0.232-1.693-0.475-2.18c-0.719-0.487-1.681-0.325-2.203 0.359l-1.472-1.264c0.22-0.232 0.383-0.522 0.487-0.823l6.133 0.301c0.012 0.893 0.73 1.6 1.623 1.6s1.612-0.73 1.6-1.612c0-0.87-0.719-1.588-1.612-1.588v0z"></path>
</svg>
