<!-- Generated by IcoMoon.io -->
<svg version="1.1" xmlns="http://www.w3.org/2000/svg" viewBox="0 0 32 32">
<title>cusdc</title>
<path fill="#edf0f2" d="M32 16.025c0 8.83-7.158 15.988-15.988 15.988s-15.988-7.158-15.988-15.988c0-8.83 7.158-15.988 15.988-15.988s15.988 7.158 15.988 15.988z"></path>
<path fill="#000" d="M26.163 28.363c-2.438 2.012-5.425 3.25-8.575 3.55-4.213 0.413-8.425-0.863-11.713-3.55-3.275-2.688-5.35-6.563-5.775-10.787-0.313-3.15 0.313-6.313 1.8-9.1s3.775-5.075 6.563-6.563c2.787-1.488 5.95-2.125 9.1-1.813s6.125 1.538 8.575 3.55l-3.225 3.938c-1.663-1.362-3.7-2.212-5.85-2.413-2.15-0.213-4.3 0.225-6.2 1.237s-3.45 2.575-4.475 4.475c-1.013 1.9-1.438 4.063-1.225 6.2 0.287 2.875 1.7 5.525 3.938 7.35 2.238 1.837 5.113 2.7 7.988 2.413 2.15-0.212 4.175-1.063 5.838-2.425l3.238 3.938z"></path>
<path fill="#fff" d="M16.063 29.113c7.212 0 13.050-5.85 13.050-13.050 0-7.213-5.838-13.063-13.050-13.063s-13.063 5.85-13.063 13.063c0 7.212 5.85 13.050 13.063 13.050z"></path>
<path fill="#283947" d="M18.238 17.1c0-1.225-0.75-1.637-2.212-1.825-1.075-0.15-1.287-0.4-1.287-0.9s0.363-0.8 1.063-0.8c0.638 0 1 0.213 1.15 0.725 0.012 0.050 0.050 0.1 0.1 0.137s0.1 0.050 0.163 0.050h0.563c0.038 0 0.075-0.012 0.1-0.025 0.038-0.012 0.063-0.037 0.087-0.063s0.038-0.063 0.050-0.088c0.012-0.037 0.012-0.075 0-0.113-0.175-0.8-0.725-1.275-1.575-1.425v-0.838c0-0.075-0.025-0.137-0.075-0.188s-0.113-0.075-0.188-0.075h-0.537c-0.075 0-0.137 0.025-0.188 0.075s-0.075 0.113-0.075 0.188v0.813c-1.063 0.15-1.738 0.838-1.738 1.725 0 1.15 0.713 1.587 2.188 1.788 1.013 0.163 1.3 0.375 1.3 0.938s-0.488 0.938-1.175 0.938c-0.925 0-1.238-0.4-1.35-0.913-0.012-0.063-0.050-0.113-0.088-0.15-0.050-0.038-0.113-0.063-0.162-0.063h-0.613c-0.037 0-0.075 0.012-0.1 0.025-0.037 0.012-0.063 0.038-0.088 0.063s-0.037 0.063-0.050 0.087c-0.012 0.038-0.012 0.075 0 0.1 0.15 0.875 0.725 1.512 1.887 1.663v0.825c0 0.075 0.025 0.137 0.075 0.188s0.113 0.075 0.188 0.075h0.537c0.075 0 0.137-0.025 0.188-0.075s0.075-0.113 0.075-0.188v-0.825c1.087-0.175 1.788-0.913 1.788-1.85z"></path>
<path fill="#657786" d="M14.2 20.85c-1.012-0.363-1.887-1.038-2.512-1.913s-0.95-1.925-0.95-2.988 0.338-2.113 0.95-2.988c0.625-0.875 1.5-1.55 2.512-1.912 0.063-0.025 0.125-0.075 0.162-0.137s0.063-0.125 0.063-0.2v-0.488c0-0.037 0-0.088-0.025-0.125-0.012-0.037-0.050-0.075-0.088-0.1s-0.075-0.037-0.125-0.050-0.088 0-0.125 0.025c-1.275 0.4-2.388 1.2-3.188 2.275-0.787 1.075-1.213 2.363-1.213 3.7 0 1.325 0.425 2.625 1.213 3.7s1.9 1.863 3.188 2.275c0.037 0.012 0.088 0.025 0.125 0.025s0.088-0.025 0.125-0.050c0.037-0.025 0.063-0.063 0.088-0.1 0.012-0.038 0.025-0.087 0.025-0.125v-0.488c0-0.075-0.025-0.137-0.063-0.2s-0.088-0.113-0.162-0.137v0z"></path>
<path fill="#657786" d="M17.825 9.988c-0.038-0.012-0.087-0.025-0.125-0.025s-0.087 0.025-0.125 0.050c-0.038 0.025-0.063 0.063-0.087 0.1-0.012 0.037-0.025 0.088-0.025 0.125v0.488c0 0.075 0.025 0.137 0.063 0.2s0.1 0.1 0.163 0.137c1.012 0.363 1.887 1.037 2.512 1.912s0.95 1.925 0.95 2.987-0.337 2.113-0.95 2.988c-0.625 0.875-1.5 1.55-2.512 1.913-0.063 0.025-0.125 0.075-0.163 0.125-0.038 0.063-0.063 0.125-0.063 0.2v0.488c0 0.038 0 0.087 0.025 0.125 0.012 0.038 0.050 0.075 0.087 0.1s0.075 0.038 0.125 0.050c0.038 0 0.087 0 0.125-0.025 1.275-0.4 2.387-1.2 3.188-2.275 0.788-1.075 1.212-2.363 1.212-3.7 0-1.325-0.425-2.625-1.212-3.7-0.8-1.063-1.913-1.863-3.188-2.262v0z"></path>
</svg>
