<!-- Generated by IcoMoon.io -->
<svg version="1.1" xmlns="http://www.w3.org/2000/svg" viewBox="0 0 32 32">
<title>cusdt</title>
<path fill="#edf0f2" d="M32 16.025c0 8.83-7.158 15.988-15.988 15.988s-15.988-7.158-15.988-15.988c0-8.83 7.158-15.988 15.988-15.988s15.988 7.158 15.988 15.988z"></path>
<path fill="#000" d="M26.163 28.363c-2.438 2.012-5.425 3.25-8.575 3.55-4.213 0.413-8.425-0.863-11.713-3.55-3.275-2.688-5.35-6.563-5.775-10.787-0.313-3.15 0.313-6.313 1.8-9.1s3.775-5.075 6.563-6.563c2.787-1.488 5.95-2.125 9.1-1.813s6.125 1.538 8.575 3.55l-3.225 3.938c-1.663-1.362-3.7-2.212-5.85-2.413-2.15-0.213-4.3 0.225-6.2 1.237s-3.45 2.575-4.475 4.475c-1.013 1.9-1.438 4.063-1.225 6.2 0.287 2.875 1.7 5.525 3.938 7.35 2.238 1.837 5.113 2.7 7.988 2.413 2.15-0.212 4.175-1.063 5.838-2.425l3.238 3.938z"></path>
<path fill="#fff" d="M16.063 29.113c7.212 0 13.050-5.85 13.050-13.050 0-7.213-5.838-13.063-13.050-13.063s-13.063 5.85-13.063 13.063c0 7.212 5.85 13.050 13.063 13.050z"></path>
<path fill="#283947" d="M17.238 16.413v0c-0.075 0-0.425 0.025-1.225 0.025-0.637 0-1.088-0.025-1.25-0.025v0c-2.463-0.113-4.287-0.525-4.287-1.037s1.838-0.925 4.287-1.037v1.663c0.162 0.012 0.625 0.038 1.262 0.038 0.762 0 1.15-0.038 1.212-0.038v-1.65c2.45 0.113 4.288 0.525 4.288 1.037 0 0.5-1.825 0.925-4.288 1.025v0 0zM17.238 14.175v-1.475h3.425v-2.25h-9.313v2.25h3.425v1.475c-2.787 0.125-4.875 0.675-4.875 1.325s2.088 1.2 4.875 1.325v4.738h2.475v-4.738c2.775-0.125 4.863-0.675 4.863-1.325s-2.087-1.2-4.875-1.325v0 0zM17.238 14.175v0z"></path>
</svg>
