<!-- Generated by IcoMoon.io -->
<svg version="1.1" xmlns="http://www.w3.org/2000/svg" viewBox="0 0 32 32">
<title>cvc</title>
<path fill="#3ab03e" d="M17.833 17.246c1.252-0.625 2.097-1.898 2.097-3.367 0-0.001 0-0.003 0-0.004v0c0-2.071-1.674-3.749-3.737-3.749s-3.738 1.678-3.738 3.748c0 0.001 0 0.003 0 0.004 0 1.47 0.846 2.742 2.077 3.356l0.022 0.010v4.63h3.28v-4.63zM16.192 28c-6.596 0-11.962-5.383-11.962-12s5.367-11.999 11.962-11.999c5.383 0 9.945 3.584 11.442 8.499h4.123c-1.591-7.153-7.956-12.5-15.565-12.5-8.809 0-15.95 7.163-15.95 16s7.141 16 15.95 16c7.609 0 13.974-5.347 15.565-12.5h-4.123c-1.498 4.916-6.060 8.5-11.442 8.5z"></path>
</svg>
