<!-- Generated by IcoMoon.io -->
<svg version="1.1" xmlns="http://www.w3.org/2000/svg" viewBox="0 0 32 32">
<title>cvt</title>
<path fill="#1e0b49" d="M16 0c8.835 0 16 7.165 16 16s-7.165 16-16 16-16-7.165-16-16 7.165-16 16-16v0z"></path>
<path fill="#1e90ff" d="M10.387 12.8c0.707-1.203 1.84-1.917 2.835-1.898l0.403-0.682c0.694-1.181 0.454-2.621-0.538-3.203s-2.365-0.090-3.062 1.085l-0.4 0.682c0.499 0.861 0.422 2.192-0.285 3.402s-1.84 1.917-2.835 1.898l-0.403 0.682c-0.694 1.181-0.454 2.621 0.538 3.203 0.989 0.582 2.365 0.093 3.062-1.085l0.4-0.682c-0.499-0.861-0.422-2.198 0.285-3.402z"></path>
<path fill="#000" d="M9.344 19.709c-0.707-1.203-1.84-1.917-2.835-1.898l-0.403-0.682c-0.694-1.181-0.454-2.621 0.538-3.203s2.365-0.096 3.062 1.085l0.4 0.682c-0.499 0.861-0.422 2.192 0.285 3.402 0.71 1.21 1.84 1.917 2.835 1.898l0.403 0.682c0.694 1.181 0.454 2.621-0.538 3.203-0.989 0.582-2.365 0.096-3.062-1.085l-0.4-0.682c0.496-0.861 0.419-2.198-0.285-3.402z"></path>
<path fill="#000" d="M17.398 19.709c-0.707-1.203-1.84-1.917-2.835-1.898l-0.403-0.682c-0.694-1.181-0.454-2.621 0.538-3.203s2.365-0.096 3.059 1.085l0.403 0.682c-0.499 0.861-0.422 2.192 0.285 3.402 0.71 1.21 1.84 1.917 2.835 1.898l0.403 0.682c0.694 1.181 0.454 2.621-0.538 3.203-0.989 0.582-2.365 0.096-3.062-1.085l-0.4-0.682c0.502-0.861 0.429-2.198-0.285-3.402z"></path>
<path fill="#000" d="M22.435 19.827c0.707-1.2 1.84-1.917 2.835-1.898l0.403-0.682c0.694-1.181 0.454-2.621-0.538-3.203s-2.365-0.093-3.062 1.085l-0.4 0.682c0.499 0.861 0.422 2.192-0.285 3.402-0.71 1.21-1.84 1.917-2.835 1.898l-0.403 0.682c-0.694 1.181-0.454 2.621 0.538 3.203s2.365 0.093 3.062-1.085l0.4-0.682c-0.506-0.864-0.422-2.202 0.285-3.402z"></path>
<path fill="#1e90ff" d="M11.901 6.56c-1.341 0-2.426 1.104-2.394 2.451 0.029 1.27 1.066 2.304 2.336 2.336 1.347 0.032 2.451-1.053 2.451-2.394v0c0-1.322-1.072-2.394-2.394-2.394z"></path>
<path fill="#4b0082" d="M11.901 20.608c-1.341 0-2.422 1.104-2.39 2.454 0.032 1.296 1.107 2.339 2.403 2.333 1.315-0.006 2.381-1.072 2.384-2.39 0-1.322-1.072-2.397-2.397-2.397z"></path>
<path fill="#1e90ff" d="M19.923 6.56c-1.341 0-2.426 1.104-2.394 2.451 0.029 1.27 1.066 2.304 2.336 2.336 1.347 0.032 2.451-1.053 2.451-2.394v0c0-1.322-1.072-2.394-2.394-2.394z"></path>
<path fill="#4b0082" d="M19.923 20.608c-1.341 0-2.426 1.104-2.394 2.451 0.029 1.296 1.107 2.342 2.403 2.336 1.315-0.006 2.381-1.072 2.384-2.39 0-1.322-1.069-2.394-2.394-2.397z"></path>
<path fill="#8b008b" d="M15.856 13.584c-1.341 0-2.426 1.104-2.394 2.451 0.029 1.27 1.066 2.304 2.336 2.336 1.347 0.032 2.451-1.053 2.451-2.394v0c0-1.322-1.072-2.394-2.394-2.394z"></path>
<path fill="#8b008b" d="M23.968 13.584c-1.341 0-2.426 1.101-2.394 2.451 0.029 1.27 1.066 2.307 2.333 2.336 1.347 0.032 2.451-1.050 2.451-2.39v0c0-1.325-1.069-2.394-2.39-2.397z"></path>
<path fill="#1e90ff" d="M7.744 13.584c-1.341 0-2.426 1.104-2.394 2.451 0.029 1.27 1.066 2.304 2.336 2.336 1.347 0.032 2.451-1.053 2.451-2.394v0c0-1.322-1.072-2.394-2.394-2.394z"></path>
</svg>
