<!-- Generated by IcoMoon.io -->
<svg version="1.1" xmlns="http://www.w3.org/2000/svg" viewBox="0 0 32 32">
<title>dai</title>
<path fill="#f5ac37" d="M16 0c8.837 0 16 7.164 16 16 0 8.837-7.163 16-16 16-8.836 0-16-7.163-16-16s7.164-16 16-16z"></path>
<path fill="#fefefd" d="M16.59 17.13h6.080c0.13 0 0.191 0 0.2-0.17 0.050-0.619 0.050-1.241 0-1.86 0-0.12-0.060-0.17-0.19-0.17h-12.1c-0.15 0-0.19 0.050-0.19 0.19v1.78c0 0.23 0 0.23 0.24 0.23h5.96zM22.191 12.85c0.017-0.045 0.017-0.095 0-0.14-0.102-0.221-0.222-0.432-0.361-0.63-0.21-0.338-0.458-0.65-0.74-0.93-0.133-0.169-0.287-0.321-0.46-0.45-0.865-0.737-1.894-1.258-3-1.52-0.558-0.125-1.128-0.185-1.7-0.18h-5.37c-0.15 0-0.17 0.060-0.17 0.19v3.55c0 0.15 0 0.19 0.19 0.19h11.54c0 0 0.1-0.020 0.12-0.080h-0.049zM22.191 19.21c-0.17-0.019-0.341-0.019-0.511 0h-11.090c-0.15 0-0.2 0-0.2 0.2v3.47c0 0.16 0 0.2 0.2 0.2h5.12c0.245 0.019 0.49 0.001 0.729-0.050 0.743-0.053 1.474-0.215 2.171-0.48 0.253-0.088 0.498-0.202 0.729-0.34h0.070c1.2-0.624 2.175-1.605 2.79-2.809 0 0 0.070-0.151-0.009-0.191zM8.38 24.88v-5.53c0-0.13 0-0.15-0.16-0.15h-2.17c-0.12 0-0.17 0-0.17-0.16v-1.9h2.32c0.13 0 0.18 0 0.18-0.17v-1.88c0-0.12 0-0.15-0.16-0.15h-2.17c-0.12 0-0.17 0-0.17-0.16v-1.76c0-0.11 0-0.14 0.16-0.14h2.15c0.15 0 0.19 0 0.19-0.19v-5.39c0-0.16 0-0.2 0.2-0.2h7.5c0.544 0.022 1.085 0.081 1.62 0.18 1.102 0.204 2.161 0.598 3.13 1.16 0.642 0.378 1.233 0.835 1.76 1.36 0.396 0.411 0.753 0.856 1.070 1.33 0.315 0.48 0.576 0.994 0.781 1.53 0.025 0.14 0.159 0.234 0.299 0.21h1.79c0.23 0 0.23 0 0.24 0.22v1.64c0 0.16-0.060 0.2-0.22 0.2h-1.38c-0.14 0-0.18 0-0.17 0.18 0.055 0.609 0.055 1.22 0 1.83 0 0.17 0 0.19 0.191 0.19h1.579c0.070 0.090 0 0.18 0 0.271 0.010 0.116 0.010 0.233 0 0.349v1.21c0 0.17-0.050 0.22-0.2 0.22h-1.89c-0.132-0.025-0.26 0.059-0.29 0.19-0.45 1.17-1.17 2.219-2.1 3.060-0.34 0.306-0.697 0.594-1.070 0.86-0.4 0.23-0.79 0.47-1.2 0.66-0.755 0.34-1.547 0.59-2.36 0.75-0.772 0.138-1.555 0.201-2.34 0.19h-6.94v-0.010z"></path>
</svg>
