<!-- Generated by IcoMoon.io -->
<svg version="1.1" xmlns="http://www.w3.org/2000/svg" viewBox="0 0 32 32">
<title>dash</title>
<path fill="#008de4" d="M20.975 2.994h-11.658l-0.967 5.402 10.523 0.012c5.184 0 6.712 1.884 6.668 5.003-0.025 1.597-0.717 4.304-1.017 5.184-0.798 2.339-2.439 5.003-8.589 4.997l-10.23-0.006-0.964 5.408h11.634c4.104 0 5.845-0.48 7.697-1.329 4.098-1.903 6.537-5.945 7.517-11.222 1.45-7.86-0.359-13.449-10.614-13.449z"></path>
<path fill="#008de4" d="M4.285 13.28c-3.057 0-3.493 1.99-3.78 3.194-0.381 1.572-0.505 2.214-0.505 2.214h11.939c3.057 0 3.493-1.99 3.78-3.194 0.38-1.572 0.505-2.214 0.505-2.214z"></path>
</svg>
