<!-- Generated by IcoMoon.io -->
<svg version="1.1" xmlns="http://www.w3.org/2000/svg" viewBox="0 0 32 32">
<title>data</title>
<path fill="#ff5c00" d="M20.008 1.479v-0.923c0-0 0-0 0-0.001 0-0.306-0.248-0.555-0.554-0.556h-0.022c-6.209 0.309-11.16 5.288-11.423 11.481l-0.001 0.024c0.014 0.39 0.329 0.492 0.514 0.492h0.937c0.297-0.001 0.54-0.234 0.555-0.528l0-0.001c0.279-5.116 4.361-9.194 9.454-9.466l0.025-0.001c0.391-0.050 0.515-0.263 0.515-0.523zM11.575 12.001h0.893c0.292-0.002 0.53-0.229 0.55-0.516l0-0.002c0.266-3.478 3.035-6.232 6.495-6.472l0.022-0.001c0.264-0.018 0.471-0.236 0.471-0.503 0-0.009-0-0.018-0.001-0.028l0 0.001v-0.917c-0.001-0.307-0.25-0.556-0.558-0.556-0 0-0 0-0.001 0h0c-0.006-0-0.012-0.001-0.018-0.001s-0.013 0-0.019 0.001l0.001-0c-4.507 0.308-8.086 3.888-8.392 8.367l-0.002 0.028c-0.001 0.011-0.001 0.024-0.001 0.037 0 0.295 0.229 0.536 0.518 0.556l0.002 0h0.037zM20.006 6.575v0.92c0 0.375-0.326 0.51-0.484 0.529-1.824 0.229-3.255 1.657-3.487 3.46l-0.002 0.020c-0.034 0.279-0.268 0.493-0.553 0.495h-0.893c-0.001 0-0.001 0-0.002 0-0.305 0-0.553-0.247-0.555-0.552v-0c-0.001-0.008-0.001-0.017-0.001-0.027s0-0.019 0.001-0.028l-0 0.001c0.296-2.839 2.532-5.075 5.345-5.369l0.026-0.002c0.015-0.002 0.033-0.002 0.051-0.002 0.288 0 0.524 0.22 0.551 0.5l0 0.002c0 0.008 0.001 0.018 0.001 0.027s-0 0.019-0.001 0.028l0-0.001zM30.52 19.981c-0.259 0-0.473-0.125-0.523-0.515-0.272-5.118-4.35-9.201-9.441-9.481l-0.026-0.001c-0.295-0.015-0.528-0.258-0.528-0.555v0-0.937c0-0.185 0.102-0.5 0.491-0.514 6.217 0.263 11.197 5.213 11.507 11.394l0.001 0.028c0 0.006 0 0.014 0 0.021 0 0.299-0.236 0.543-0.533 0.555l-0.001 0h-0.022zM19.997 11.548c0 0 0 0 0 0 0-0.307 0.249-0.556 0.556-0.556 0 0 0.001 0 0.002 0h-0c0.006-0 0.012-0.001 0.019-0.001s0.013 0 0.020 0.001l-0.001-0c4.509 0.305 8.092 3.887 8.397 8.368l0.002 0.028c0.001 0.011 0.001 0.024 0.001 0.037 0 0.295-0.228 0.536-0.518 0.557l-0.002 0h-0.95c-0.008 0-0.017 0.001-0.026 0.001-0.267 0-0.485-0.207-0.503-0.47l-0-0.002c-0.242-3.483-2.996-6.252-6.451-6.515l-0.024-0.001c-0.289-0.019-0.516-0.258-0.517-0.55v-0zM25.419 19.981h-0.915c-0.375 0-0.51-0.326-0.53-0.485-0.23-1.824-1.657-3.254-3.46-3.486l-0.020-0.002c-0.279-0.033-0.494-0.268-0.495-0.553v-0.896c0-0.001 0-0.002 0-0.003 0-0.305 0.247-0.553 0.551-0.554h0c0.008-0.001 0.017-0.001 0.027-0.001s0.019 0 0.028 0.001l-0.001-0c2.839 0.296 5.074 2.531 5.369 5.344l0.002 0.026c0.001 0.015 0.002 0.033 0.002 0.051 0 0.288-0.22 0.524-0.5 0.551l-0.002 0c-0.008 0-0.017 0.001-0.026 0.001s-0.018-0-0.028-0.001l0.001 0zM1.48 11.996c0.259 0 0.473 0.125 0.523 0.515 0.273 5.119 4.351 9.201 9.443 9.479l0.026 0.001c0.295 0.016 0.527 0.258 0.528 0.555v0.937c0 0.186-0.102 0.501-0.491 0.514-6.218-0.262-11.199-5.212-11.508-11.393l-0.001-0.028c-0-0.007-0-0.014-0-0.022 0-0.299 0.236-0.542 0.532-0.555l0.001-0h0.023zM12.002 20.428c-0.001 0.307-0.25 0.556-0.557 0.556-0.001 0-0.001 0-0.002 0h-0.037c-4.507-0.306-8.088-3.886-8.395-8.365l-0.002-0.028c-0.001-0.012-0.001-0.026-0.001-0.040 0-0.294 0.227-0.534 0.516-0.555l0.002-0h0.952c0.008-0 0.017-0.001 0.026-0.001 0.267 0 0.486 0.208 0.503 0.471l0 0.002c0.242 3.483 2.997 6.252 6.451 6.515l0.024 0.001c0.289 0.019 0.516 0.258 0.517 0.55v0zM6.58 11.996h0.915c0.375 0 0.51 0.326 0.53 0.484 0.23 1.824 1.657 3.254 3.46 3.487l0.020 0.002c0.279 0.032 0.494 0.267 0.495 0.552v0.896c0 0 0 0 0 0.001 0 0.306-0.247 0.554-0.552 0.556h-0c-0.018 0-0.035 0-0.053 0-2.839-0.296-5.075-2.532-5.369-5.345l-0.002-0.026c-0.002-0.015-0.002-0.033-0.002-0.051 0-0.289 0.222-0.527 0.505-0.551l0.002-0c0.017 0 0.035 0 0.053 0zM12.005 30.518c0-0.259 0.125-0.473 0.515-0.523 5.117-0.273 9.198-4.349 9.479-9.439l0.001-0.026c0.015-0.295 0.258-0.529 0.555-0.529h0.937c0.185 0 0.5 0.102 0.514 0.492-0.263 6.217-5.214 11.197-11.394 11.505l-0.028 0.001c-0.006 0-0.013 0-0.021 0-0.299 0-0.543-0.236-0.556-0.533l-0-0.001v-0.948zM20.437 19.996c0 0 0 0 0 0 0.307 0 0.556 0.249 0.556 0.556 0 0.001 0 0.002 0 0.002v-0c0 0.012 0 0.024 0 0.037-0.305 4.51-3.886 8.093-8.367 8.398l-0.028 0.002c-0.011 0.001-0.024 0.001-0.037 0.001-0.295 0-0.536-0.228-0.557-0.518l-0-0.002c0-0.012 0-0.024 0-0.037v-0.913c-0-0.008-0.001-0.017-0.001-0.026 0-0.267 0.207-0.485 0.47-0.503l0.002-0c3.483-0.242 6.251-2.995 6.516-6.45l0.001-0.024c0.019-0.289 0.258-0.517 0.55-0.517h0zM12.005 25.417v-0.912c0-0.375 0.326-0.51 0.485-0.529 1.824-0.23 3.254-1.657 3.487-3.46l0.002-0.020c0.033-0.279 0.268-0.494 0.553-0.495h0.896c0.001 0 0.001 0 0.002 0 0.305 0 0.553 0.247 0.554 0.551v0q0 0.027 0 0.054c-0.297 2.839-2.533 5.073-5.346 5.368l-0.026 0.002c-0.015 0.001-0.033 0.002-0.050 0.002-0.289 0-0.527-0.222-0.552-0.505l-0-0.002c-0.001-0.008-0.001-0.017-0.001-0.026s0-0.018 0.001-0.028l-0 0.001z"></path>
</svg>
