<!-- Generated by IcoMoon.io -->
<svg version="1.1" xmlns="http://www.w3.org/2000/svg" viewBox="0 0 32 32">
<title>dcr</title>
<path fill="#000" d="M14.012 18.983h7.86c2.92 0 5.313-2.361 5.313-5.313s-2.361-5.282-5.282-5.282h-2.517l-5.375-4.66h7.86c5.499-0.031 9.973 4.412 9.973 9.911 0.031 4.070-2.454 7.736-6.245 9.258l6.214 5.375h-7.084l-10.718-9.289z"></path>
<path fill="#4971fa" d="M17.864 13.049h-7.86c-2.92 0-5.313 2.361-5.313 5.313s2.361 5.313 5.313 5.313h2.517l5.344 4.66h-7.86c-5.499 0-9.973-4.443-10.004-9.911-0.031-4.101 2.454-7.767 6.245-9.289l-6.214-5.406h7.115l10.718 9.32z"></path>
<path fill="#000" d="M17.864 13.049h-7.86c-2.92 0-5.313 2.361-5.313 5.313s2.361 5.313 5.313 5.313h2.517l5.344 4.66h-7.86c-5.499 0-9.973-4.443-10.004-9.911-0.031-4.101 2.454-7.767 6.245-9.289l-6.214-5.406h7.115l10.718 9.32z"></path>
</svg>
