<!-- Generated by IcoMoon.io -->
<svg version="1.1" xmlns="http://www.w3.org/2000/svg" viewBox="0 0 32 32">
<title>ddx</title>
<path fill="#2d1680" d="M0 10.305h4.881c2.847 0 5.153 2.305 5.153 5.153v0h-10.034v-5.153z"></path>
<path fill="#2d1680" d="M11.051 10.305h4.881c2.847 0 5.153 2.305 5.153 5.153v0h-10.034v-5.153z"></path>
<path fill="#2d1680" d="M0 21.695h4.881c2.847 0 5.153-2.305 5.153-5.153v0h-10.034v5.153z"></path>
<path fill="#2d1680" d="M11.051 21.695h4.881c2.847 0 5.153-2.305 5.153-5.153v0h-10.034v5.153z"></path>
<path fill="#2d1680" d="M20.678 10.305h3.614l7.708 11.39h-3.817l-7.505-11.39z"></path>
<path fill="#ef88aa" opacity="0.9329" stroke="#ef88aa" stroke-linejoin="miter" stroke-linecap="butt" stroke-miterlimit="4" stroke-width="0.2034" d="M28.78 14.78l-2.983-4.373h6.034l-3.051 4.373z"></path>
<path fill="#ef88aa" opacity="0.9329" stroke="#ef88aa" stroke-linejoin="miter" stroke-linecap="butt" stroke-miterlimit="4" stroke-width="0.339" d="M23.729 17.288l-2.949 4.237h5.763l-2.814-4.237z"></path>
</svg>
