<!-- Generated by IcoMoon.io -->
<svg version="1.1" xmlns="http://www.w3.org/2000/svg" viewBox="0 0 32 32">
<title>dfi</title>
<path fill="#ff00af" d="M16 0c8.844 0 16 7.156 16 16 0 8.756-7.022 15.867-15.733 16h-0.267v-13.467l-2.044 2.044-0.267 5.067 2.133 6.356c-1.244 0-2.444-0.178-3.644-0.489l-0.311-0.089-1.022-3.067-2.889 1.467c-1.067-0.622-2.044-1.333-2.933-2.178l-0.222-0.222 5.378-2.711 0.178-3.067-3.067 0.178-2.711 5.378c-0.844-0.889-1.6-1.867-2.222-2.889l-0.178-0.267 1.467-2.889-3.067-1.022c-0.311-1.2-0.489-2.4-0.533-3.6v-0.311l6.4 2.133 5.067-0.267 2.044-2.044-2.044-2.044-5.067-0.267-6.444 2.089c0-1.244 0.178-2.489 0.444-3.644l0.089-0.311 3.067-1.022-1.467-2.889c0.622-1.067 1.333-2.044 2.178-2.933l0.222-0.222 2.711 5.378 3.067 0.178-0.178-3.067-5.378-2.711c0.889-0.844 1.867-1.6 2.889-2.222l0.267-0.178 2.889 1.467 1.022-3.067c1.2-0.311 2.4-0.489 3.6-0.533h0.311l-2.133 6.356 0.267 5.067 2.044 2.044c0.089-0.044 0.089-13.511 0.089-13.511zM19.556 4.089v23.867c5.111-1.556 8.889-6.311 8.889-11.956 0-5.556-3.689-10.267-8.711-11.867 0 0-0.178-0.044-0.178-0.044z"></path>
</svg>
