<!-- Generated by IcoMoon.io -->
<svg version="1.1" xmlns="http://www.w3.org/2000/svg" viewBox="0 0 32 32">
<title>dgb</title>
<path fill="#002352" stroke="#06c" stroke-linejoin="miter" stroke-linecap="butt" stroke-miterlimit="10" stroke-width="2.7211" d="M30.639 16c0 8.085-6.554 14.639-14.639 14.639s-14.639-6.554-14.639-14.639c0-8.085 6.554-14.639 14.639-14.639s14.639 6.554 14.639 14.639z"></path>
<path fill="#fff" d="M7.797 12.198h10.338s3.568-0.033 1.1 4.569c0 0-1.801 3.602-6.269 3.535l2.408-6.149c0.022-0.053 0.035-0.115 0.035-0.18 0-0.265-0.211-0.48-0.474-0.487h-0.001l-3.168-0.053-4.002 9.737s1.334 0.133 2.068 0.067l-0.4 1h1.887c0.001 0 0.001 0 0.002 0 0.109 0 0.202-0.069 0.238-0.165l0.001-0.002 0.34-0.9 0.8-0.067-0.467 1.134h1.841c0.001 0 0.002 0 0.002 0 0.141 0 0.262-0.087 0.31-0.211l0.001-0.002 0.514-1.321s5.602-0.934 8.137-5.469c0 0 3.401-5.269-0.6-7.136-0.72-0.339-1.556-0.575-2.435-0.664l-0.033-0.003 0.467-1.154c0.011-0.026 0.017-0.055 0.017-0.087 0-0.124-0.1-0.225-0.224-0.227h-1.728l-0.534 1.401h-0.734l0.413-1.087c0.009-0.024 0.014-0.051 0.014-0.080 0-0.127-0.101-0.23-0.227-0.233h-1.734l-0.534 1.401h-5.389c-0.001 0-0.002 0-0.003 0-0.303 0-0.566 0.168-0.702 0.416l-0.002 0.004z"></path>
</svg>
