<!-- Generated by IcoMoon.io -->
<svg version="1.1" xmlns="http://www.w3.org/2000/svg" viewBox="0 0 32 32">
<title>divi</title>
<path fill="#000" d="M15.96 0v0c8.867 0 15.96 7.174 15.96 15.96v0c0 8.867-7.174 15.96-15.96 15.96v0c-8.786 0.081-15.96-7.093-15.96-15.96v0c0-8.786 7.174-15.96 15.96-15.96z"></path>
<path fill="#fff" d="M7.254 7.577h9.511c3.869 0 7.819 2.741 7.819 8.302s-3.95 8.302-7.819 8.302h-7.013v-8.947h4.111v4.917h2.741c1.773 0 3.869-2.015 3.869-4.272s-2.015-4.272-3.869-4.272h-4.514c-2.015 0-3.627-1.37-4.836-4.030z"></path>
</svg>
