<!-- Generated by IcoMoon.io -->
<svg version="1.1" xmlns="http://www.w3.org/2000/svg" viewBox="0 0 32 32">
<title>dlt</title>
<path fill="#322a3f" d="M0.449 0h31.102c0.248 0 0.449 0.201 0.449 0.449v31.102c0 0.248-0.201 0.449-0.449 0.449h-31.102c-0.248 0-0.449-0.201-0.449-0.449v-31.102c0-0.248 0.201-0.449 0.449-0.449z"></path>
<path fill="#f4ae95" d="M15.805 8.523l-6.152 12.828h10.214c0 0 0 0 0 0 0.303 0 0.564 0.182 0.678 0.443l0.002 0.005 0.011 0.025c0.032 0.072 0.050 0.156 0.050 0.244 0 0.113-0.030 0.219-0.083 0.31l0.002-0.003c-0.171 0.294-0.484 0.488-0.843 0.489h-10.855c-0.175-0-0.338-0.053-0.473-0.144l0.003 0.002-0.057-0.038c-0.229-0.155-0.377-0.413-0.377-0.707 0-0.134 0.031-0.261 0.087-0.374l-0.002 0.005 7.26-14.939c0.079-0.16 0.186-0.295 0.315-0.404l0.002-0.002c0.122-0.103 0.282-0.165 0.456-0.165 0.169 0 0.324 0.059 0.446 0.157l-0.001-0.001c0.057 0.045 0.103 0.101 0.135 0.166l0.001 0.003 7.363 15.042c0.059 0.118 0.094 0.258 0.094 0.405 0 0.090-0.013 0.177-0.037 0.259l0.002-0.007c-0.071 0.243-0.291 0.417-0.552 0.417-0 0-0.001 0-0.001 0h-0.084c-0 0-0 0-0 0-0.352 0-0.657-0.206-0.8-0.504l-0.002-0.005-6.35-13.506c-0.040-0.085-0.125-0.143-0.224-0.143s-0.182 0.057-0.222 0.139l-0.001 0.001z"></path>
</svg>
