<!-- Generated by IcoMoon.io -->
<svg version="1.1" xmlns="http://www.w3.org/2000/svg" viewBox="0 0 32 32">
<title>dmd</title>
<path fill="#3e6492" d="M6.157 12.056l-5.912 1.142c-0.163 0.925-0.245 1.862-0.245 2.802 0 1 0.093 1.979 0.267 2.928l5.89 1.029v-7.901zM16 14.68l3.698-7.333h-7.395l3.698 7.333zM7.346 12.302v7.397l7.334-3.699-7.334-3.698zM24.246 11.176l-3.422-3.422-3.482 6.904 6.904-3.482zM10.278 6.97l-5.517-2.206 2.198 5.525 3.318-3.318zM27.237 4.762l-5.525 2.198 3.318 3.318 2.206-5.517zM24.653 19.699v-7.397l-7.333 3.698 7.333 3.699zM27.238 27.237l-2.198-5.525-3.318 3.318 5.517 2.206zM21.109 5.92l5.27-2.096c-1.803-1.538-3.952-2.683-6.314-3.302l1.043 5.398zM32 16c0-1-0.093-1.979-0.267-2.928l-5.89-1.029v7.899l5.912-1.142c0.163-0.923 0.245-1.861 0.245-2.8zM26.072 10.877l5.374 0.939c-0.626-2.317-1.758-4.424-3.272-6.197l-2.102 5.258zM10.286 25.040l-3.318-3.318-2.205 5.515 5.523-2.197zM26.080 21.109l2.096 5.27c1.538-1.803 2.683-3.952 3.302-6.314l-5.398 1.043zM26.381 28.174l-5.258-2.102-0.939 5.374c2.317-0.626 4.424-1.758 6.197-3.272v0zM24.246 20.824l-6.904-3.48 3.482 6.904 3.422-3.424zM12.043 6.157h7.899l-1.142-5.912c-0.923-0.163-1.861-0.245-2.8-0.245-1 0-1.979 0.093-2.928 0.269l-1.029 5.888zM19.957 25.843h-7.901l1.142 5.912c0.925 0.163 1.862 0.245 2.802 0.245 1 0 1.978-0.093 2.928-0.267l1.029-5.89zM16 17.32l-3.698 7.333h7.397l-3.699-7.333zM5.619 3.826l5.258 2.102 0.939-5.374c-2.317 0.627-4.424 1.758-6.197 3.272zM7.754 11.176l6.902 3.482-3.48-6.904-3.422 3.422zM5.92 10.891l-2.096-5.27c-1.539 1.803-2.683 3.952-3.302 6.314l5.398-1.043zM7.754 20.826l3.422 3.422 3.48-6.904-6.902 3.482zM10.891 26.080l-5.27 2.096c1.803 1.538 3.952 2.683 6.314 3.302l-1.043-5.398zM5.928 21.123l-5.374-0.939c0.626 2.315 1.758 4.424 3.272 6.197l2.102-5.258z"></path>
</svg>
