<!-- Generated by IcoMoon.io -->
<svg version="1.1" xmlns="http://www.w3.org/2000/svg" viewBox="0 0 32 32">
<title>dmt</title>
<path fill="#000" opacity="0.25" d="M13.712 14.66l-3.711-6.42-3.773-6.484c-0.22-0.369-0.514-0.672-0.862-0.897l-0.011-0.006h-0.031c-0.384 0.225-0.691 0.542-0.898 0.923l-0.006 0.012-2.806 4.862c-0.191 0.321-0.304 0.709-0.304 1.122s0.113 0.801 0.31 1.132l-0.006-0.010 3.368 5.828c0.249 0.405 0.343 0.873 0.343 1.34v0c-0.003 0.491-0.13 0.953-0.351 1.355l0.007-0.015-3.336 5.766c-0.191 0.321-0.304 0.709-0.304 1.122s0.113 0.801 0.31 1.132l-0.006-0.010 2.806 4.862c0.218 0.374 0.53 0.717 0.904 0.935h0.032c0.374-0.218 0.655-0.53 0.873-0.904l3.742-6.483 3.71-6.483c0.221-0.386 0.351-0.848 0.351-1.34s-0.13-0.954-0.358-1.354l0.007 0.013z"></path>
<path fill="#000" opacity="0.25" d="M31.61 14.473l-3.742-6.452-3.835-6.639c-0.182-0.307-0.411-0.565-0.68-0.775l-0.006-0.005c-0.156-0.125-0.312-0.187-0.499-0.187-1.964 0-3.305 0.062-4.303 0.062-0.156 0-0.249 0.187-0.218 0.343l0.967 5.424c0 0.062 0 0.125-0.031 0.187-0.374 0.686-0.343 1.527 0.062 2.213l3.43 5.984c0.249 0.436 0.374 0.904 0.374 1.371s-0.125 0.935-0.374 1.371l-3.461 5.984c-0.405 0.686-0.405 1.527-0.062 2.213 0.032 0.062 0.032 0.125 0.032 0.187l-0.967 5.392c-0.032 0.156 0.062 0.343 0.218 0.343 0.904 0-0.374 0.093 4.428 0.093 0.094 0 0.218-0.032 0.312-0.062 0.343-0.125 0.561-0.53 0.748-0.873l7.546-13.122c0.592-0.936 0.592-2.088 0.062-3.055z"></path>
<path fill="#000" d="M30.082 14.66l-7.452-12.904c-0.468-0.81-1.341-1.34-2.307-1.34h-14.905c-0.499 0-0.967 0.156-1.403 0.405v0.031c0.359 0.231 0.653 0.535 0.866 0.892l0.007 0.012 3.742 6.484c0.343-0.156 0.748-0.249 1.123-0.249h6.174c0.967 0 1.84 0.499 2.307 1.34l3.087 5.329c0.468 0.81 0.468 1.839 0 2.68l-3.087 5.33c-0.468 0.81-1.372 1.34-2.307 1.34h-6.143c-0.408-0.001-0.793-0.093-1.139-0.256l0.016 0.007-3.742 6.483c-0.22 0.369-0.514 0.672-0.862 0.897l-0.011 0.006v0.032c0.405 0.249 0.904 0.405 1.403 0.405h14.935c0.967 0 1.84-0.499 2.307-1.34l7.453-12.904c0.437-0.841 0.437-1.839-0.062-2.68z"></path>
<path fill="#000" d="M12.34 14.66l-3.711-6.42-3.742-6.484c-0.22-0.369-0.514-0.672-0.862-0.897l-0.011-0.006h-0.031c-0.384 0.225-0.691 0.542-0.898 0.923l-0.006 0.012-2.776 4.831c-0.191 0.321-0.304 0.709-0.304 1.122s0.113 0.801 0.31 1.132l-0.006-0.010 3.368 5.828c0.249 0.405 0.343 0.873 0.343 1.34v0c-0.003 0.491-0.13 0.953-0.35 1.355l0.007-0.015-3.368 5.797c-0.191 0.321-0.304 0.709-0.304 1.122s0.113 0.801 0.31 1.132l-0.006-0.010 2.806 4.863c0.218 0.374 0.53 0.717 0.904 0.935h0.032c0.374-0.218 0.655-0.53 0.873-0.904l3.741-6.482 3.71-6.421c0.468-0.905 0.468-1.902-0.031-2.744z"></path>
</svg>
