<!-- Generated by IcoMoon.io -->
<svg version="1.1" xmlns="http://www.w3.org/2000/svg" viewBox="0 0 32 32">
<title>dnt</title>
<path fill="#04ffcc" d="M31.289 13.026c-0.239-1.131-0.635-2.134-1.171-3.045l0.026 0.047c-1.112-1.853-3.537-4.547-6.568-6.669 0 0-2.291-1.482-3.368-1.987-3.941-1.819-8.354-2.189-12.126 1.145-6.333 5.625-9.499 13.474-6.333 21.288 0.067 0.168 1.819 4.952 12.328 8.152 4.615 0.135 7.309-0.135 10.274-1.853 3.874-2.223 6.131-6.265 6.939-10.375 0.236-1.246 0.269-5.457 0-6.703z"></path>
<path fill="#7df8fb" d="M19.032 1.944v7.512l-8.691-0.539-3.571 4.514-0.438 8.522 2.964 3.166 4.446 2.223 5.827 0.64 6.333-1.617v-15.663l-1.213-6.501s-3.402-2.661-5.625-3.301z"></path>
<path fill="#2c398f" d="M29.201 20.571c-1.213-0.067-0.539-1.987-1.078-4.177-0.64-2.425 0.303-4.109 1.549-4.042 0.616 0.099 1.163 0.337 1.627 0.681l-0.010-0.007c-0.239-1.131-0.635-2.134-1.171-3.045l0.026 0.047c-1.112-1.853-3.537-4.547-6.568-6.669v20.312c0 0.001 0 0.001 0 0.002 0 1.133-0.918 2.051-2.051 2.051-0.816 0-1.52-0.476-1.851-1.165l-0.005-0.012c-1.197 0.753-2.652 1.199-4.211 1.199-4.415 0-7.993-3.579-7.993-7.993s3.579-7.993 7.993-7.993c1.476 0 2.859 0.4 4.046 1.098l-0.038-0.020v-7.882c-0-0.011-0-0.025-0-0.038 0-0.623 0.288-1.179 0.738-1.542l0.004-0.003c-3.941-1.819-8.354-2.189-12.126 1.145-6.333 5.625-9.499 13.474-6.333 21.288 0.067 0.168 0.135 0.337 0.202 0.472 0.096-0.197 0.22-0.364 0.37-0.504l0.001-0.001c1.651-1.684 3.469 1.752 7.343 3.739 2.459 1.246 3.874 2.897 4.413 4.446 3.604 0.438 7.309-0.135 10.274-1.853 3.874-2.223 6.131-6.265 6.939-10.375-0.558 0.49-1.283 0.802-2.080 0.842l-0.008 0zM16 4.605c0.909-0.034 1.752 1.044 1.785 1.549s-0.775 0.303-1.651 0.606c-0.977 0.337-1.684 0.034-1.718-0.472s0.637-1.651 1.583-1.684z"></path>
<path fill="#2c398f" d="M14.009 20.706c1.954 1.112 4.312 0.674 4.749-1.819 0.236-1.448 0.101-3.705-1.179-4.413-4.244-2.425-7.815 3.806-3.571 6.232z"></path>
</svg>
