<!-- Generated by IcoMoon.io -->
<svg version="1.1" xmlns="http://www.w3.org/2000/svg" viewBox="0 0 32 32">
<title>dogecoin-doge-logo</title>
<path fill="#988430" d="M32 16c0 8.837-7.163 16-16 16s-16-7.163-16-16c0-8.837 7.163-16 16-16s16 7.163 16 16z"></path>
<path fill="#7a6a2a" d="M31.488 16c0 8.553-6.934 15.488-15.488 15.488s-15.488-6.934-15.488-15.488c0-8.553 6.934-15.488 15.488-15.488s15.488 6.934 15.488 15.488z"></path>
<path fill="#ba9f33" d="M31.161 16c0 8.373-6.788 15.161-15.161 15.161s-15.161-6.788-15.161-15.161c0-8.373 6.788-15.161 15.161-15.161s15.161 6.788 15.161 15.161z"></path>
<path fill="#cfb66c" d="M6.995 14.291c-0.091-0.083-0.186-0.166-0.274-0.248s-0.179-0.166-0.269-0.248l-0.269-0.256c-0.044-0.044-0.091-0.083-0.135-0.127-0.044-0.039-0.096-0.083-0.14-0.122-0.357-0.339-0.717-0.678-1.069-1.018 0.365 0.334 0.722 0.666 1.088 1.005l0.127 0.127c0.044 0.044 0.091 0.083 0.135 0.127l0.269 0.248c0.091 0.083 0.179 0.166 0.269 0.256s0.179 0.173 0.269 0.256zM2.252 14.24s1.3 0.134 1.934 0.225c0.588 0.083 2.426 0.365 2.426 0.365zM2.252 14.24c0.365 0.031 0.73 0.070 1.095 0.109 0.186 0.018 0.365 0.039 0.544 0.057l0.274 0.031c0.091 0.013 0.179 0.026 0.269 0.039l1.088 0.173 0.544 0.091c0.179 0.031 0.357 0.065 0.544 0.096-0.179-0.018-0.365-0.044-0.544-0.070l-0.544-0.078-1.088-0.16c-0.091-0.013-0.179-0.031-0.269-0.044l-0.274-0.032c-0.179-0.018-0.365-0.044-0.544-0.065-0.365-0.044-0.73-0.091-1.095-0.147zM6.483 15.169s-1.388 0.352-1.856 0.487c-0.461 0.127-1.856 0.551-1.856 0.551l3.713-1.038z"></path>
<path fill="#cfb66c" d="M6.483 15.169c-0.308 0.091-0.614 0.179-0.927 0.262l-0.927 0.248c-0.308 0.091-0.614 0.179-0.922 0.269l-0.461 0.127c-0.153 0.044-0.308 0.083-0.466 0.127 0.153-0.051 0.308-0.104 0.461-0.148l0.461-0.147c0.308-0.096 0.614-0.187 0.922-0.282 0.313-0.078 0.621-0.161 0.935-0.236 0.298-0.075 0.611-0.15 0.924-0.22v0zM2.964 17.062c0.153-0.057 1.913-0.878 2.322-1.069 0.205-0.096 0.8-0.307 0.8-0.307l-3.122 1.376z"></path>
<path fill="#cfb66c" d="M2.964 17.062c0.135-0.051 0.261-0.114 0.391-0.173l0.383-0.179 0.769-0.37c0.256-0.122 0.505-0.256 0.769-0.37 0.135-0.057 0.269-0.103 0.404-0.147l0.205-0.065c0.070-0.018 0.135-0.039 0.205-0.057-0.256 0.122-0.525 0.225-0.782 0.344-0.256 0.127-0.518 0.231-0.782 0.344l-0.782 0.344c-0.263 0.106-0.518 0.22-0.78 0.329v0zM3.135 17.778s1.595-0.935 2.144-1.235c0.287-0.16 1.217-0.621 1.217-0.621z"></path>
<path fill="#cfb66c" d="M3.135 17.779c0.269-0.166 0.544-0.334 0.818-0.505l0.41-0.249c0.14-0.083 0.274-0.16 0.417-0.243 0.14-0.083 0.274-0.166 0.417-0.243 0.060-0.038 0.13-0.074 0.202-0.105l0.010-0.004 0.217-0.109c0.287-0.14 0.575-0.282 0.878-0.404-0.274 0.174-0.557 0.321-0.839 0.474-0.14 0.078-0.282 0.148-0.422 0.225s-0.274 0.161-0.417 0.236c-0.14 0.083-0.274 0.16-0.417 0.236l-0.422 0.23-0.852 0.461zM6.483 16.127s-0.992 0.761-1.313 1.005-1.266 0.927-1.266 0.927l2.579-1.931z"></path>
<path fill="#e2cc85" d="M12.173 22.265l-0.507-0.96 0.295-1.201 2.105-0.813-0.896-1.838 0.443-1.856 0.831-1.662 2.568-0.404 1.887-1.799 4.075 0.308 0.8 4.357-1.54 5.486-0.878 2.84-3.557 0.135-1.652-1.144-1.934-0.808-2.040-0.639z"></path>
<path fill="#f1d789" d="M18.413 22.234s-0.492 0.225-1.331 0.173c-0.243-0.326-1.944-0.479-1.944-0.479s-0.212-0.065-0.588 0.091c-0.378 0.154-0.735 0.135-1.069 0.217s-0.666-0.352-0.922-0.443c-0.256-0.096-0.595-0.326-0.595-0.326l-0.717-0.070-1.439-0.608-2.287-2.278-0.621 0.973-0.192 1.204 0.691 1.427 1.861 1.696 3.63 0.922 2.151-0.634 2.695-1.139 0.676-0.725z"></path>
<path fill="#f4ecb4" d="M5.517 14.183l0.461-1.395 0.549-0.901 1.768-0.148-0.531 1.548-1.478 2.63 0.614 2.348-1.087 0.544-0.334-0.512-0.269-1.175-0.018-1.32 0.326-1.618z"></path>
<path fill="#f3e19d" d="M7.5 22.139l-0.339-0.474s-0.091-0.225-0.039-0.422c0.051-0.199 0.044-0.212 0.018-0.287s-0.243-0.334-0.23-0.557c0.013-0.225-0.018-0.3 0.147-0.479 0.173-0.173 0.122-0.474 0.122-0.474l0.225 0.14 0.051-0.078s0.083 0.065 0.083 0.166c0.018-0.14-0.057-0.787 0.114-0.935s0.474 0.691 0.474 0.691l-0.186-1.217-0.479-1.248-0.852-1.139-0.051-1.256v-0.109s-0.391 0.601-0.5 1.075c-0.078 0.326 0.109 0.722 0.070 1.191-0.031 0.466-0.070 0.43 0.044 0.614s0.391 0.564 0.282 0.839c-0.096 0.236-0.422 0.070-0.422 0.070s-0.065 0.192-0.153 0.261c-0.031-0.114-0.065-0.186-0.127-0.256-0.005 0.044-0.018 0.104-0.018 0.104s-0.057-0.179-0.114-0.404c-0.077-0.3-0.16-0.696-0.236-0.909-0.031 0.122-0.109 0.492-0.109 0.492l0.044 0.57 0.212 0.782 0.205 0.512 0.199 0.627 0.173 0.421 0.14 0.321 0.122 0.722 0.588 0.621 0.313 0.14 0.228-0.117z"></path>
<path fill="#f2e8b0" d="M5.825 13.043s-0.422 0.717-0.544 1.439-0.23 1.486-0.154 2.47c0.078 0.992 0.225 1.6 0.344 2.035 0.205 0.722 0.735 1.727 0.735 1.727l0.018-0.039c-0.082-0.151-0.154-0.327-0.208-0.512l-0.005-0.019c-0.070-0.274-0.096-0.601-0.161-0.748-0.057-0.147-0.153-0.274-0.199-0.456-0.044-0.173-0.051-0.448-0.186-0.652-0.057-0.083-0.127-0.3-0.148-0.518-0.026-0.326 0.013-0.691-0.018-0.992-0.057-0.5-0.096-0.839-0.044-1.1s0.321-1.004 0.487-1.595c0.109-0.378 0.044-0.697 0.243-1.025 0.199-0.326 0.321-0.614 0.365-0.813 0.051-0.181-0.528 0.797-0.528 0.797v0z"></path>
<path fill="#f5eec0" d="M7.827 12.756s-0.217 0.065-0.321 0.179c-0.104 0.109-0.148 0.199-0.287 0.383s-0.148 0.334-0.262 0.564c-0.114 0.225-0.365 0.564-0.396 0.686s-0.083 0.691-0.147 0.96c-0.057 0.269 0.065 0.601 0.065 0.601l0.147-0.031s0 0.192 0.148 0.321c0.147 0.127 0.173-0.43 0.173-0.43l0.551-1.861 0.831-0.564 0.091-0.456-0.593-0.352z"></path>
<path fill="#e6db9d" d="M8.23 13.6s-0.391 0.026-0.582 0.166c-0.078 0.057-0.109 0.103-0.191 0.173-0.153 0.127-0.308 0.243-0.383 0.41-0.083 0.166-0.174 0.417-0.236 0.891-0.026 0.199-0.026 0.383-0.044 0.544-0.026 0.217-0.065 0.391-0.044 0.512 0.026 0.248 0.282 0.378 0.307 0.66l0.531-0.269 0.5-1.97 1.062-0.666-0.601-0.673-0.318 0.222z"></path>
<path fill="#e5cb7a" d="M5.43 26.868c0.002-0.019 0.004-0.039 0.007-0.059 0.077-0.666 0.091-1.17 0.147-1.486 0.083-0.448 0.14-0.614 0.127-0.782-0.018-0.269-0.039-0.466-0.013-0.673 0.039-0.274 0.308-0.601 0.3-0.826-0.005-0.179-0.096-0.295-0.174-0.404s-0.14-0.199-0.14-0.199 0.531-0.365 0.526-1.836c0.012 0.003 0.022 0.008 0.032 0.013l-0.001-0 0.261 0.743 0.179 0.217 0.686 1.279 0.883 0.857 1.305 0.878 0.818 0.89 0.083 2.374-1.069 1.388-0.175 0.317c-1.452-0.738-2.698-1.635-3.786-2.695l0.003 0.003z"></path>
<path fill="#d8c173" d="M8.697 29.139s0.018-0.295 0.261-0.487c0.039 0.065 0.065 0.127 0.057 0.173 0.044-0.077 0.352-0.575 1.049-0.704 0.697-0.127 0.865-0.634 0.865-0.634l1.478-1.344 1.691-1.556 2.056-0.722 0.961-0.236s0.018 0.070-0.018 0.225c0.179-0.013 0.575-0.103 0.986-0.248 0.166-0.065 0.321-0.091 0.404-0.005 0.122 0.114 0.14 0.383 0.147 0.544 0.199-0.044 0.43-0.236 0.614-0.217 0.295 0.031 0.557 0.378 0.857 0.378 0.396 0 0.575-0.243 0.852-0.435 0.166-0.114 0.404-0.256 0.538-0.352 0.321-0.236 3.718-1.274 3.718-1.274l1.191 0.078 0.192 1.279-0.102 3.343c-0.013 0.012-0.025 0.025-0.038 0.037l-5.415 2.828-7.506 1.151c-1.799-0.3-3.412-0.877-4.875-1.69l0.077 0.039-0.038-0.171z"></path>
<path fill="#f1d789" d="M5.885 27.293c0.107-0.223 0.203-0.41 0.219-0.476 0.013 0.134 0.038 0.43 0.087 0.743q-0.155-0.132-0.306-0.267z"></path>
<path fill="#e0cd81" d="M11.368 30.44l0.971-0.27 0.083 0.026s0.044 0.026 0.044 0.114c0.122-0.070 0.225-0.057 0.3-0.103 0.039 0.083 0.077 0.357 0.248 0.391 0.179 0.039 0.37-0.078 0.564-0.225 0.191-0.153 0.41-0.344 0.575-0.422 0.052 0.093 0.106 0.207 0.153 0.323l0.007 0.021c0.217-0.173 0.595-0.878 1.134-0.865 0.161-0.374 0.418-0.681 0.741-0.899l0.007-0.005c0.5-0.339 0.813-0.365 1.204-0.334 0.156-0.201 0.343-0.369 0.555-0.5l0.009-0.005c0.065 0.026 0.243 0.135 0.466 0.031 0.225-0.103 0.479-0.505 0.813-0.557 0.032-0.005 0.069-0.007 0.107-0.007 0.152 0 0.294 0.043 0.414 0.118l-0.003-0.002s0.973-0.966 1.644-1.287c-0.026-0.078-0.078-0.37 0.709-1.018 0.044 0.039 0.013 0.148 0.044 0.154 0.013 0 0.205-0.083 0.448-0.269 0.3-0.225 0.66-0.461 0.878-0.525 0.41-0.122 0.844 0.127 0.844 0.127 0.035-0.025 0.075-0.044 0.119-0.056l0.003-0.001c0.103-0.018 0.179-0.031 0.236-0.051-0.005 0.135 0.070 0.365 0 0.564 0.073 0.042 0.158 0.079 0.247 0.106l0.009 0.002c-0.044 0.096-0.14 0.339-0.3 0.456 0.134 0.065 0.153 0.14 0.344 0.205-0.078 0.109-0.205 0.295-0.261 0.41-0.057 0.122-0.262 0.627-0.352 0.818-0.096 0.192-0.225 0.544-0.287 0.614s-0.287 0.37-0.461 0.518c0.154-0.057 0.782-0.248 1.049-0.321-0.079 0.116-0.482 0.713-0.868 1.287-2.23 1.358-4.926 2.161-7.81 2.161-1.653 0-3.244-0.264-4.734-0.752l0.107 0.030z"></path>
<path fill="#dfc57c" d="M8.294 13.53s-0.225 0-0.269 0.031 0.225 0.096 0.308 0.127 0.261 0.173 0.308 0.287c0.044 0.109 1.618 0.743 1.618 0.743l1.113-0.057 0.384-0.53-0.73-0.639 0.512-1.509-0.678 0.109-1.631 0.973-0.818 0.313-0.117 0.153z"></path>
<path fill="#e5cc7c" d="M10.739 14.030c0.031 0.050 0.086 0.083 0.149 0.083 0.002 0 0.004-0 0.005-0h-0c0.23 0 0.443 0.057 0.531 0.173 0.148 0.187 0.557 0.782 0.557 0.782l0.979 0.352 0.063-1.152-1.069-0.743-1.217 0.448v0.057h0.003z"></path>
<path fill="#d2c281" d="M10.547 14.457s0.179 0.013 0.404-0.070 0.595-0.261 0.756-0.191c0.225 0.096 0.179 0.396 0.422 0.666 0.147 0.166 0.417 0.161 0.569 0.339s0.678 0.096 0.678 0.096l0.199 1.075-0.8 1.025-0.262 1.274h-1.082l-0.988-0.392-0.487-1.178 0.243-1.191 0.346-1.453z"></path>
<path fill="#e2c270" d="M12.64 14.509c0.025 0.008 0.053 0.013 0.083 0.013h0c-0.031 0.026-0.096 0.083-0.070 0.23s0.109 0.334 0.039 0.448c0.054 0.059 0.096 0.13 0.121 0.208l0.001 0.004c0.044 0.127 0.057 0.243 0.344 0.262-0.043 0.027-0.080 0.057-0.114 0.091l-0 0s0.199 0.173 0.3 0.334c0.103-0.004 0.378-0.090 0.378-0.090l0.057 0.039 0.122-0.051s-0.114-0.044-0.031-0.321c0.078-0.243 0.148-0.23 0.154-0.248s0.057-0.274 0.057-0.378c0.039-0.134 0.070-0.544 0.070-0.544l-0.083-0.903-0.466-0.282-0.379-0.366-0.357 0.673-0.235 0.235-0.018 0.582 0.028 0.065z"></path>
<path fill="#ccb360" d="M13.761 13.753s0.083 0.236 0.114 0.417c0.010-0.032 0.017-0.070 0.018-0.108v-0.001s0.065 0.357 0.077 0.505c0.026-0.005 0.051-0.013 0.057 0.013s0.065 0.313 0.051 0.474c0.11-0.179 0.256-0.325 0.429-0.432l0.006-0.003c0.104-0.065 0.225-0.135 0.352-0.14 0.199-0.005 0.344 0.127 0.582 0.127 0.575 0 1.095-0.422 1.478-0.551 0.282-0.096 0.525-0.166 0.696-0.321 0.083-0.070 0.231-0.225 0.365-0.456 0.179-0.307 0.365-0.575 0.552-0.608-0.063 0.012-0.135 0.019-0.209 0.019-0.017 0-0.033-0-0.049-0.001l0.002 0s0.057-0.057 0.154-0.135 0.212-0.173 0.378-0.173c0.295 0 0.443 0.044 0.608 0.044 0.166-0.005 0.261-0.044 0.261-0.044s0.174 0.122 0.564 0.122c0.391 0.005 0.652 0.039 0.857 0.057s0.891-0.057 1.087-0.051c0.136 0.005 0.262 0.038 0.376 0.093l-0.006-0.002-0.634-1.843-2.279-1.992-1.357 0.96-2.087 2.087-2.019 0.748-0.422 0.474v0.722z"></path>
<path fill="#d5b457" d="M18.291 12.696s0.057-0.057 0.153-0.134 0.212-0.174 0.378-0.174c0.295 0 0.443 0.044 0.608 0.044 0.166-0.005 0.261-0.044 0.261-0.044s0.174 0.121 0.564 0.121c0.391 0.005 0.652 0.039 0.857 0.057s0.891-0.057 1.087-0.051c0.135 0.005 0.262 0.038 0.376 0.093l-0.006-0.002-0.287-0.831-0.334-0.634-0.953-1.043s-1.143-0.673-1.152-0.678c-0.005-0.005-0.396-0.109-0.396-0.109l-1.036 0.627-0.94 2.431-0.018 0.512 0.608 0.287c0.153-0.256 0.321-0.461 0.479-0.487-0.142 0.016-0.251 0.016-0.251 0.016v0z"></path>
<path fill="#d2b257" d="M18.278 12.87c-0.091 0.005-0.166-0.013-0.186-0.078-0.078-0.217-0.14-0.248-0.205-0.248s-0.153 0.14-0.205 0.153-0.114-0.16-0.114-0.16l-0.057-0.026s-0.334 0.217-0.57 0.474-0.621 0.691-0.795 0.769-0.769 0.104-0.973 0.148-0.43 0.192-0.461 0.225 0.091 0.070 0.109 0.103c0.018 0.031-0.2 0.018-0.218 0.051-0.013 0.026 0.051 0.173 0.083 0.248 0.052-0.026 0.113-0.043 0.178-0.044h0.001c0.199-0.005 0.344 0.127 0.582 0.127 0.575 0 1.095-0.422 1.478-0.552 0.282-0.096 0.526-0.166 0.697-0.321 0.083-0.070 0.23-0.225 0.365-0.456 0.098-0.158 0.194-0.306 0.29-0.414v0z"></path>
<path fill="#d2b159" d="M10.035 25.683s-0.051-0.192-0.526-0.686c-0.135-0.14-0.217-0.256-0.308-0.339-0.225-0.212-0.357-0.269-0.518-0.391-0.352-0.261-0.735-0.261-1.030-0.582s-0.639-0.934-0.878-1.561c-0.236-0.627-0.3-0.826-0.3-0.844s0.065-0.14 0.148-0.122 0.083 0.179 0.104 0.217c0.044 0.067 0.090 0.125 0.14 0.179l-0.001-0.001c0.122 0.14 0.295 0.307 0.383 0.557-0.018-0.212-0.091-0.448-0.091-0.448s0.456 0.287 0.844 0.588c0.391 0.3 0.551 0.404 0.666 0.595s0.383 0.697 0.512 0.844 1.894 0.704 1.894 0.704l0.84 0.626 0.417 0.914-0.326 0.512-0.627 0.135-1.018-0.456-0.326-0.442z"></path>
<path fill="#c2a44d" d="M7.775 22.535s0.212 0.339 0.73 0.66c0.466 0.282 1.204 0.539 1.862 0.691 0.378 0.091 0.756 0.16 1.095 0.166 0.914 0.013 1.543-0.248 2.322-0.334 0.422-0.044 0.94-0.078 1.478-0.205 0.691-0.166 1.1-0.352 1.657-0.614 0.404-0.186 0.774-0.326 1.074-0.505 0.422-0.248 0.73-0.525 1.087-0.608-0.044 0.122-0.091 0.339-0.443 0.564 0.186-0.005 0.443-0.018 0.443-0.018s-0.248 0.147-0.686 0.479c-0.269 0.205-0.627 0.551-0.992 0.782-0.236 0.148-0.492 0.256-0.66 0.344-0.41 0.225-0.575 0.339-0.844 0.614 0.096-0.005 0.104 0 0.104 0s-0.339 0.044-0.582 0.173c-0.051 0-0.14-0.018-0.295 0.026-0.122 0.039-0.282 0.127-0.448 0.173-0.236 0.070-0.313 0.039-0.313 0.039l0.039 0.078s-0.307-0.005-0.41 0.005c0.018 0.005 0.013 0.013 0.013 0.013-0.019 0.003-0.036 0.010-0.052 0.018l0.001-0c-0.046 0.030-0.1 0.054-0.157 0.069l-0.004 0.001c-0.031 0.005-0.057 0.005-0.096 0.013 0.013 0.031 0.114 0.205 0.161 0.307-0.039 0.026-0.621 0.466-0.621 0.466 0.017 0.026 0.032 0.056 0.043 0.088l0.001 0.003c0.018 0.057 0.026 0.14 0.044 0.179 0.044 0.078 0.070 0.091 0.070 0.091s-0.070 0.013-0.192 0.044c-0.103 0.026-0.23 0.070-0.41 0.096-0.048 0.007-0.105 0.011-0.163 0.013l-0.002 0c0.026 0.057 0.14 0.274-0.070 0.525s-0.274 0.288-0.339 0.448c-0.030-0.023-0.064-0.044-0.1-0.063l-0.004-0.002c-0.070-0.031-0.166-0.077-0.199-0.14-0.023 0.095-0.049 0.176-0.082 0.254l0.004-0.011c-0.065 0.173-0.16 0.344-0.179 0.474-0.070-0.078-0.199-0.23-0.378-0.199s-0.321 0.274-0.352 0.344c0-0.044-0.031-0.078-0.039-0.026-0.005 0.057-0.104 0.652-0.652 1.134-0.005-0.122-0.005-0.391-0.018-0.479-0.051 0.051-0.114 0.127-0.487 0.287-0.365 0.16-0.307 0.321-0.307 0.321s-0.031-0.256 0.166-0.526c0.199-0.269 0.321-0.396 0.321-0.417-0.003-0.022-0.013-0.041-0.026-0.057l0 0c-0.026-0.026-0.078-0.057-0.078-0.078 0.031-0.013 0.339-0.16 0.321-0.466-0.018-0.274-0.134-0.417-0.217-0.518-0.013-0.013 0.122-0.109 0.104-0.14-0.013-0.018-0.179-0.14-0.199-0.205 0.005-0.043 0.015-0.081 0.027-0.118l-0.001 0.004c0.018-0.057 0.031-0.096 0.026-0.135-0.013-0.065-0.083-0.243-0.104-0.261 0.018 0.005 0.147 0 0.147 0s-0.103-0.166-0.122-0.243-0.057-0.282-0.078-0.321c0.044 0.005 0.153 0.013 0.153 0 0.005-0.039-0.096-0.104-0.051-0.154 0.031 0.005 0.091 0.031 0.147 0.104-0.031-0.083-0.083-0.243-0.192-0.308 0.051-0.018 0.225-0.065 0.378 0.026s0.205 0.217 0.205 0.217 0.091 0.070 0.231 0.174c0.16 0.127 0.365 0.307 0.691 0.435 0.070 0.039 0.248 0.039 0.378 0.013 0.061-0.015 0.114-0.037 0.163-0.066l-0.003 0.001c0.016-0.010 0.035-0.019 0.055-0.025l0.002-0.001c-0.031-0.062-0.063-0.115-0.098-0.164l0.003 0.004c0.044 0 0.096 0.005 0.096 0.005s0.031-0.070-0.109-0.205c0.031-0.031 0.070-0.051 0.070-0.104-0.044-0.005-0.122-0.070-0.14-0.096 0.026-0.018 0.065-0.078 0.109-0.096-0.039-0.031-0.135-0.161-0.179-0.173 0.047-0.018 0.087-0.037 0.126-0.059l-0.004 0.002s-0.217-0.057-0.287-0.104c-0.070-0.051-0.173-0.14-0.236-0.166-0.065-0.026-0.179-0.039-0.225-0.091 0.044 0.013 0.114 0 0.166 0 0.039 0 0.057 0.005 0.070 0.005-0.005-0.018-0.005-0.057 0.096-0.070 0.052-0.008 0.099-0.023 0.142-0.045l-0.003 0.001s-0.096-0.005-0.205-0.109-0.199-0.186-0.261-0.199c-0.065-0.013-0.186 0.044-0.261 0.039-0.104-0.013-0.148-0.065-0.148-0.065s-0.344 0.031-1.108-0.435c-0.66-0.404-0.948-0.761-0.948-0.761-0.069-0.025-0.128-0.053-0.184-0.086l0.005 0.003c-0.248-0.129-0.593-0.399-0.582-0.751v0z"></path>
<path fill="#caa13e" d="M17.3 6.995c0.062 0.020 0.114 0.056 0.153 0.103l0 0c0.122 0.14 0.199 0.404-0.078 0.686 0.109 0.039 0.154 0.051 0.248 0.039-0.096 0.114-0.313 0.357-0.326 0.57-0.013 0.173 0.096 0.225 0.096 0.225s-0.166 0.191-0.173 0.512c0.078-0.088 0.162-0.168 0.252-0.24l0.004-0.003c0.192-0.153 0.456-0.326 0.634-0.435-0 0.006-0.001 0.013-0.001 0.019 0 0.041 0.007 0.081 0.019 0.118l-0.001-0.003s0.334-0.274 0.614-0.153c0.127 0.057 0.070 0.236 0.070 0.236s0.174-0.065 0.295 0.057 0.294 0.436 0.382 0.557c0.039 0.057 0.14 0.166 0.243 0.334 0.13 0.212 0.248 0.457 0.343 0.714l0.009 0.029c0.005-0.135 0.039-0.344 0.422-0.212 0.383 0.135 0.818 0.417 1.183 0.973s0.456 1.183 0.639 1.422c0.186 0.23 0.378 0.614 0.391 0.774s-0.057 0.678 0.326 2.079c0.109-0.435 0.274-1.401 0.274-1.401l0.091-0.852 0.104-2.636-2.752-2.286-2.151-1.561-1.401 0.135 0.088 0.199z"></path>
<path fill="#b59544" d="M22.413 10.918s-0.039-0.256-0.686-0.691c-0.647-0.43-1.152-0.43-1.618-0.795-0.357-0.287-0.73-0.948-0.973-1.165-0.236-0.215-0.274-0.836-0.274-0.836l0.795-0.666 1.182-1.709 0.999-1.1 0.479 0.666 0.666 0.782 0.37 1.569 0.135 2.296-1.075 1.649z"></path>
<path fill="#c89d3a" d="M23.213 13.67c0.003-0.049 0.005-0.106 0.005-0.164 0-0.309-0.048-0.607-0.137-0.887l0.006 0.021c-0.171-0.531-0.544-1.473-0.717-1.826-0.070-0.391-0.018-0.422 0.057-0.466s0.357-0.205 0.512-0.769 0.634-0.582 0.634-0.582l0.295-0.217 0.448 1.121 0.391 1.012 0.122 0.774 0.091 0.66-0.212 1.396-1.048 0.948-0.445-1.019z"></path>
<path fill="#ceb052" d="M8.583 29.225v-0.029c0.022-0.014 0.041-0.031 0.056-0.051l0-0c0.018-0.026 0.031-0.057 0.044-0.065 0.026-0.013 0.148-0.051 0.212-0.039s0.236 0.083 0.326 0.078c0.186-0.005 0.404-0.148 0.748-0.083 0.518 0.096 0.639 0.448 0.94 0.647 0.205 0.14 0.417 0.078 0.448 0.078h0.070c0.013 0 0.109-0.109 0.161-0.103 0.104 0.005 0.114 0.091 0.179 0.096 0.153 0.018 0.448-0.078 0.596-0.039 0.089 0.029 0.158 0.097 0.186 0.184l0.001 0.002c0.031 0.096 0.005 0.217-0.070 0.287-0.16 0.147-0.313 0.287-0.344 0.41 0.042 0.032 0.079 0.064 0.114 0.097l-0.001-0.001c-1.392-0.36-2.611-0.863-3.74-1.507l0.074 0.039z"></path>
<path fill="#cca847" d="M22.369 24.052s0.404-0.538 0.544-0.805c0.14-0.275-0.443-3.757-0.443-3.757l1.17-3.834-0.031-1.248s0.057-1.152 0.192-1.652c0.161 0.287 0.66 0.634 0.769 0.818 0.051-0.352 0.225-1.095 0.199-1.887 0.096 0.147 0.326 1.631 0.326 1.631l0.23 0.999 0.3 1.062 0.334 1.121 0.199 0.774 0.114 0.186 0.096 0.326 0.091 0.352 0.261 0.826 0.154 0.678 0.122 1.23c0.024 0.081 0.044 0.179 0.056 0.278l0.001 0.009c0.005 0.135-0.018 0.212-0.018 0.236s0.044 0.295 0.026 0.5c-0.026 0.205-0.026 0.365-0.187 0.512s-0.261 1.025-0.261 1.025l-0.287-0.192s0.057-0.262-0.078-0.5-0.396-0.287-0.544-0.248c-0.147 0.031-0.443 0.077-0.538 0.16-0.091 0.083-0.313 0.339-0.518 0.456-0.256 0.154-0.673 0.166-0.896 0.217-0.225 0.051-0.474 0.205-0.735 0.383-0.185 0.122-0.398 0.236-0.62 0.331l-0.027 0.010z"></path>
<path fill="#c39d3c" d="M22.369 29.709s0.017 0.011 0.050 0.029c1.898-0.902 3.508-2.11 4.835-3.579l0.012-0.013c-0.015-0.524-0.034-1.061-0.055-1.26-0.044-0.422-0.013-0.852-0.026-1.1s-0.153-1.261-0.217-1.522c-0.070-0.261-0.205-0.391-0.225-0.391-0.018 0.005-0.127 0.492-0.127 0.614s-0.026 0.417-0.026 0.492c-0.018-0.005-0.026-0.051-0.026-0.070-0.026 0.065-0.057 0.179-0.070 0.192s0.018-0.109 0-0.135-0.051-0.013-0.044-0.078c0.003-0.042 0.010-0.081 0.019-0.119l-0.001 0.005s-0.078 0.114-0.134 0.404c-0.057 0.287-0.057 0.295-0.078 0.321-0.018 0.031-0.122 0.135-0.127 0.174-0.005 0.070 0.096 0.14 0.104 0.179 0.005 0.065-0.091 0.365-0.122 0.512s-0.018 0.435-0.051 0.582c-0.026 0.135-0.051 0.212-0.14 0.269 0.065 0.013 0.127 0.031 0.127 0.031s0.091 0.383-0.14 0.709c-0.083 0.114-0.103 0.166-0.192 0.269-0.174 0.192-0.308 0.41-0.321 0.551-0.008-0.036-0.015-0.080-0.018-0.124l-0-0.003s-0.269 0.313-0.383 0.492c-0.147 0.23-0.352 0.217-0.41 0.274s-0.070 0.16-0.051 0.243c-0.051 0.013-0.147 0.031-0.212 0.23-0.031 0.103-0.109 0.205-0.23 0.274s-0.269 0.091-0.344 0.109c0.065 0.018 0.091 0.018 0.122 0.039-0.039 0.065-0.217 0.166-0.417 0.295-0.199 0.122-0.295 0.3-0.344 0.417-0.051 0.109-0.127 0.179-0.248 0.192 0.051 0.031 0.127 0.103 0.166 0.127-0.057 0.013-0.154 0.013-0.326 0.161-0.181 0.15-0.243 0.194-0.326 0.207v0z"></path>
<path fill="#d2ba6b" d="M18.767 30.909c0.092-0.065 0.198-0.122 0.31-0.166l0.010-0.003c0.404-0.16 0.831-0.192 0.999-0.243 0.161-0.051 0.287-0.122 0.487-0.161-0.005 0.045-0.010 0.088-0.015 0.128-0.48 0.159-1.082 0.313-1.698 0.43l-0.094 0.015z"></path>
<path fill="#c0993a" d="M26.214 20.288s-0.083 0.448-0.23 0.73-0.307 0.673-0.307 0.673c0.001-0.093 0.012-0.183 0.033-0.27l-0.002 0.008c-0.186 0.109-0.64 0.37-0.768 0.487-0.122 0.109-0.326 0.3-0.378 0.391 0.122-0.357 0.248-0.678 0.269-0.826-0.186 0.135-1.056 0.852-1.509 1.326l-1.411 1.142c-0.134 0.075-0.3 0.154-0.47 0.223l-0.033 0.012c-0.243 0.103-0.531 0.192-0.743 0.274 0.057-0.153 0.147-0.288 0.274-0.417 0.135-0.127 0.538-0.564 0.601-0.768 0.057-0.212 0.070-0.339-0.005-0.518-0.070 0.018-0.23 0.026-0.339 0.057s-0.225 0.147-0.225 0.147 0.083-0.474 0.261-0.922c-0.135 0.005-0.365 0.044-0.365 0.044s0.321-0.538 0.87-0.914c-0.189 0.041-0.353 0.093-0.51 0.16l0.019-0.007c-0.321 0.135-0.673 0.334-0.935 0.443 0.147-0.205 1.183-1.683 1.799-3.060 0.614-1.375 0.844-1.727 0.979-2.465 0.070-0.365 0.051-0.905 0.070-1.388 0.018-0.479 0.078-0.909 0.039-1.196 0.16 0.199 0.761 0.761 0.782 2.017 0.018 1.256-0.575 2.951-1.204 3.865 0.154 0.044 0.552 0.096 0.96-0.614s0.404-0.909 0.552-1.204c0.018 0.148 0.013 0.199 0.013 0.199s0.596-0.722 0.878-1.631c0.057 0.391 0.225 0.735-0.039 1.453-0.236 0.647-0.544 0.805-0.544 0.805s0.153-0.026 0.378-0.161c0.039 0.096 0.031 0.205 0.096 0.243s0.153 0.104 0.166 0.166c0.070-0.104 0.179-0.236 0.212-0.334-0.026 0.205-0.044 1.1 0.051 1.556 0.2-0.018 0.404-0.031 0.544-0.391-0.096 0.352-0.096 0.564-0.031 0.865 0.106-0.072 0.202-0.202 0.202-0.202v0z"></path>
<path fill="#a88f33" d="M19.487 6.017s-0.199 0.083-0.538 0.083c-0.295 0-0.212-0.114-0.673-0.114-0.709 0-3.187 0.41-3.622 0.404-0.282-0.005 0.953 0.122 0.953 0.122l3.156 0.044 0.634-0.051 0.236-0.48-0.145-0.008z"></path>
<path fill="#e3c571" d="M11.304 12.186s-0.404 0.308-0.575 0.544-0.261 0.391-0.456 0.582c0.005 0 0.010 0 0.015 0 0.043 0 0.084-0.007 0.122-0.019l-0.003 0.001s0 0.051-0.031 0.065c0.006-0.001 0.013-0.001 0.020-0.001 0.050 0 0.095 0.020 0.127 0.052l-0-0c-0.057 0.031-0.212 0.187-0.091 0.37 0.091 0.14 0.282 0.153 0.282 0.153s-0.044 0.127 0.14 0.114c0.396-0.018 0.839-0.192 1.043-0.148 0.205 0.051 0.321 0.070 0.466 0.321 0.154 0.248 0.287 0.287 0.287 0.287s0.091-0.231 0.070-0.575c0.071-0.172 0.115-0.371 0.122-0.58l0-0.003-0.135-0.992-0.588-0.743-0.761 0.422-0.057 0.147z"></path>
<path fill="#d8b65b" d="M12.026 12.039s0.057 0.135 0.295 0.147c-0.026 0.057-0.026 0.065-0.018 0.109 0.005 0.044 0.013 0.109 0.013 0.109 0.027-0.013 0.050-0.030 0.070-0.051l0-0c0.013 0.057-0.013 0.147 0 0.212 0.009 0.043 0.022 0.081 0.040 0.117l-0.001-0.003c0.004-0.010 0.009-0.019 0.014-0.027l-0.001 0.001c0.005-0.013 0.051 0.14 0.179 0.256 0-0 0-0 0-0.001 0-0.019 0.005-0.036 0.013-0.051l-0 0.001c0.002 0.034 0.013 0.065 0.031 0.091l-0-0.001c-0.010-0.005-0.018-0.011-0.026-0.018v0s0.013 0.41 0.083 0.621c0.011-0.013 0.021-0.027 0.030-0.043l0.001-0.001c0-0.013-0.005 0.114-0.018 0.205-0.018 0.091-0.005 0.217-0.005 0.217 0.044-0.035 0.094-0.065 0.148-0.089l0.004-0.002c0.078-0.031 0.205-0.127 0.282-0.339 0.040-0.104 0.076-0.228 0.101-0.356l0.002-0.014c0.024 0.044 0.041 0.096 0.051 0.151l0 0.003c0.005 0.065 0.127 0.031 0.127 0.031l0.026-0.282 0.154-0.639 0.14-0.396 0.673-1.048 1.216-0.937 1.062 0.243 0.896-1.217-1.543-0.927-1.46 0.153-1.325 1.836-1.061 1.665-0.192 0.274z"></path>
<path fill="#d3ae4d" d="M19.674 9.383s-0.091 0.018-0.352 0.154-0.443 0.179-0.544 0.378-0.109 0.357-0.109 0.357 0.179-0.078 0.282-0.104c0.109-0.026 0.23-0.018 0.217 0.026-0.013 0.032-0.031 0.059-0.052 0.083l0-0s0.205-0.005 0.199 0.096-0.039 0.212-0.077 0.261c-0.039 0.051-0.199 0.127-0.217 0.187-0.044 0.122 0.018 0.127-0.005 0.225-0.018 0.096-0.103 0.282-0.383 0.608-0.287 0.326-0.41 0.557-0.41 0.557s-0.14-0.261-0.212-0.487c-0.051 0.026-0.326 0.179-0.326 0.179l-0.637-2.219 0.013-0.148s0.057-0.070 0.070-0.199c-0.096-0.031-0.109-0.057-0.236-0.179s-0.23-0.269-0.443-0.37c-0.031-0.057-0.070-0.134-0.225-0.166s-0.248-0.057-0.248-0.057 0.083-0.031 0.122-0.096c-0.096 0.013-0.173 0.044-0.383 0.039-0.212-0.005-0.236-0.013-0.352 0.005s-0.256 0.070-0.308-0.109c-0.057-0.044-0.179-0.005-0.282 0.147s-0.14 0.274-0.339 0.334c-0.015 0.093-0.047 0.177-0.092 0.252l0.002-0.003c-0.057 0.096-0.148 0.192-0.269 0.334-0.192 0.225-0.161 0.595-0.466 0.878-0.308 0.282 0.051-0.782 0.051-0.782l0.492-1.178 1.401-1.37 2.175-0.147 0.212 1.126 1.062 0.365 0.671 1.023z"></path>
<path fill="#caa13e" d="M20.018 9.631l-0.914-1.318-0.639-0.492s-0.456-0.839-0.487-0.865c-0.026-0.018-0.456-0.065-0.73-0.083l0.051 0.127c0.062 0.020 0.114 0.056 0.153 0.103l0 0c0.122 0.14 0.199 0.404-0.078 0.686 0.109 0.039 0.154 0.051 0.248 0.039-0.096 0.114-0.313 0.357-0.326 0.57-0.013 0.173 0.096 0.225 0.096 0.225s-0.166 0.192-0.173 0.512c0.078-0.088 0.162-0.168 0.252-0.24l0.004-0.003c0.192-0.154 0.456-0.326 0.634-0.435-0 0.006-0.001 0.013-0.001 0.020 0 0.041 0.007 0.081 0.019 0.118l-0.001-0.003s0.334-0.274 0.614-0.153c0.127 0.057 0.070 0.236 0.070 0.236s0.174-0.065 0.295 0.057 0.295 0.435 0.383 0.557c0.039 0.057 0.14 0.166 0.243 0.334 0.13 0.212 0.248 0.457 0.343 0.714l0.009 0.029c0.005-0.104 0.026-0.248 0.205-0.248l-0.272-0.487z"></path>
<path fill="#f4efc8" d="M6.317 13.375s-0.065-0.161 0-0.474 0.166-0.461 0.199-0.922 0.334-1.036 0.334-1.036l0.831-0.378 0.588 0.16 0.173 0.787-0.743 0.41s-0.039 0.173-0.248 0.313-0.5 0.248-0.569 0.391c-0.039 0.079-0.070 0.171-0.089 0.267l-0.001 0.007s-0.212-0.044-0.339 0.096c-0.135 0.143-0.13 0.269-0.135 0.378z"></path>
<path fill="#ebcc73" d="M7.995 13.165s-0.070 0.044-0.122 0.154c-0.051-0.083-0.174-0.575-0.179-1.018s-0.032-0.552 0.071-0.705 0.504-0.313 0.447-0.588c-0.057-0.261-0.295-0.37-0.588-0.295-0.205 0.051-0.357 0.487-0.569 0.704-0.161 0.166-0.352 0.14-0.404 0.23-0.070 0.122-0.005 0.243-0.026 0.321-0.005 0.026-0.070 0.166-0.187 0.334-0.236 0.339-0.634 0.818-0.686 1.248 0.018-0.243 0.005-0.248 0.070-0.518l-0.039-0.065 0.256-0.839 0.166-0.691 0.37-1.157 0.652-1.183 0.634-0.709 0.66 0.044 0.078 0.992 0.378 1.862 0.795 0.979-1.274 0.857-0.505 0.044z"></path>
<path fill="#e5c66b" d="M8.391 13.517s-0.109 0.026-0.148 0.005-0.077-0.044-0.065-0.070 0.083-0.070 0.083-0.091c0-0.002 0-0.004 0-0.006 0-0.037-0.028-0.068-0.065-0.072l-0-0c-0.060-0.008-0.078 0.031-0.078 0.031s-0.057-0.044-0.103-0.051c0.025-0.003 0.053-0.005 0.083-0.005h0c-0.065-0.030-0.141-0.053-0.221-0.064l-0.004-0c0.065-0.039 0.192-0.153 0.274-0.153s0.135-0.013 0.122-0.057-0.078-0.109-0.147-0.135c0.026-0.031 0.044-0.078-0.018-0.205-0.065-0.127-0.039-0.212-0.018-0.243 0.018-0.039 0.083-0.109 0.114-0.153s0.057-0.104 0.109-0.135c0.026-0.018 0.109-0.051 0.192-0.083 0.091-0.031 0.166-0.070 0.217-0.031 0.057 0.039 0.031 0.091 0.031 0.091s0.179-0.065 0.339 0.018c0.161 0.077 0.552 0.127 0.552 0.127l0.14 0.282-0.927 0.795-0.383 0.192-0.078 0.013z"></path>
<path fill="#e6bd62" d="M9.678 12.217s-0.287 0.192-0.352 0.261c0.039 0.005 0.103 0.031 0.077 0.070-0.031 0.039-0.217 0.173-0.321 0.3-0.109 0.127-0.212 0.287-0.248 0.365-0.039 0.070-0.334 0.274-0.435 0.3 0.212 0 0.639-0.261 0.8-0.261-0.005 0.078 0.044 0.166 0.135 0.173s0.352 0.057 0.704-0.16c0.352-0.212 0.236-0.37 0.383-0.474 0.282-0.187 0.396-0.352 0.551-0.456s0.236-0.127 0.236-0.127 0.005-0.078 0.051-0.070c0.026 0.003 0.048 0.020 0.057 0.044l0 0s0.269-0.192 0.614-0.243c-0.008-0.004-0.014-0.010-0.018-0.018l-0-0s0.026-0.013 0.031-0.026c0 0 0.018-0.026 0.031-0.013s0.031 0.109 0.057 0.148c0.057-0.026 0.166-0.269 0.166-0.269l0.262-0.748v-0.684l-0.205 0.039-1.536 0.652-0.932 0.966-0.109 0.23z"></path>
<path fill="#b6933f" d="M14.1 8.865c0.090-0.022 0.168-0.055 0.24-0.098l-0.004 0.002c-0.031 0.083-0.031 0.174-0.166 0.37s-0.14 0.225-0.248 0.43c-0.109 0.212-0.122 0.518-0.225 0.652 0.043-0.021 0.093-0.037 0.145-0.044l0.002-0s-0.103 0.091-0.147 0.186-0.122 0.295-0.313 0.417-0.435 0.199-0.697 0.487c-0.262 0.282-0.531 0.639-0.666 0.768 0.070-0.122 0.166-0.365 0.192-0.525s-0.005-0.352 0.039-0.564 0.044-0.365 0.256-0.735 0.575-1.657 0.575-1.657l0.782-0.248 0.236 0.559z"></path>
<path fill="#c49937" d="M13.535 8.391s-0.236 0.339-0.3 0.639-0.005 0.274-0.044 0.422c-0.011 0.041-0.017 0.088-0.017 0.137s0.006 0.096 0.018 0.141l-0.001-0.004c0.083-0.132 0.192-0.24 0.322-0.319l0.004-0.002c0.223-0.134 0.404-0.23 0.512-0.344 0.109-0.122 0.199-0.321 0.435-0.474-0.096-0.013-0.23-0.057-0.256-0.051 0.096-0.109 0.383-0.274 0.673-0.474 0.287-0.205 0.269-0.287 0.735-0.492-0.153 0.026-0.225-0.013-0.352 0 0.051-0.109 0.23-0.161 0.41-0.339s-0.114-0.443-0.114-0.443l-1.365 0.826-0.66 0.777z"></path>
<path fill="#dfc068" d="M9.83 7.775l0.031-0.248 0.391-0.627 0.409-1.1v-1.504l-0.031-0.87 0.065-0.57 0.049-0.181 0.052-0.070 0.334 0.173 0.461 0.627 0.044 1.209-0.448 1.908-1.279 1.396-0.078-0.143z"></path>
<path fill="#a88f33" d="M10.848 2.535s-0.205 0.005-0.248 0.857-0.065 1.3-0.096 1.722-0.103 0.678-0.14 0.927-0.057 0.588-0.173 0.795c-0.051 0.096-0.161 0.396-0.417 0.621-0.287 0.248-0.717 0.422-0.782 0.435-0.114 0.026-0.691 0.083-0.927 0.212-0.083 0.044-0.225 0.096-0.383 0.243-0.313 0.282-0.73 0.787-1.030 1.395-0.461 0.909-0.922 3.474-0.922 3.474l0.104-0.173s0.013-0.23 0.243-0.634c0.225-0.404 0.161-0.857 0.474-1.631 0.122-0.295 0.274-0.678 0.461-1.005 0.295-0.531 0.652-0.986 1.012-1.235 0.588-0.404 1.235-0.492 1.235-0.492l0.697-0.461s0.122-0.236 0.282-0.505c0.225-0.378 0.512-0.8 0.575-1.413 0.096-0.909-0.135-1.504-0.122-2.043s0.018-0.935 0.127-1.030 0.031-0.060 0.031-0.060v0z"></path>
<path fill="#c99e3d" d="M10.848 6.599s0.307-0.756 0.448-1.427c0.026-0.135 0.078-0.269 0.091-0.378 0.065-0.634 0.083-0.896 0-1.243-0.065-0.256-0.313-0.487-0.443-0.666-0.127-0.187-0.186-0.256-0.16-0.295s0.127-0.103 0.225-0.096c0.219 0.007 0.415 0.104 0.551 0.255l0.001 0.001c0.199 0.23 0.357 1.012 0.357 1.012l0.166 1.032 0.422 1.3-1.657 0.505z"></path>
<path fill="#b58634" d="M13.735 5.812s-0.057 0.026-0.16 0c0.001 0.007 0.001 0.016 0.001 0.024 0 0.081-0.041 0.152-0.104 0.193l-0.001 0.001c-0.109-0.044-1.126 0.044-1.126 0.044s-0.474-0.083-0.621-0.709c-0.103-0.417 0.078-0.992 0.018-1.37-0.091-0.557-0.217-0.666-0.23-0.839s-0.026-0.217-0.026-0.326c-0.057-0.013-0.091-0.031-0.147-0.031-0.013-0.051 0.013-0.096-0.044-0.187 0.031 0.013 0.243 0.039 0.492 0.274 0.205 0.192 0.205 0.261 0.236 0.3 0.039 0.039 0.352 0.307 0.487 0.575s0.396 1.121 0.456 1.261c0.018 0.057 0.057 0.114 0.154 0.243 0.15 0.187 0.37 0.495 0.619 0.546v0z"></path>
<path fill="#a88f33" d="M12.057 3.2c0.138 0.218 0.279 0.476 0.403 0.743l0.018 0.044c0.153 0.344 0.243 0.627 0.435 0.857-0.104-0.3-0.287-0.891-0.396-1.1-0.122-0.222-0.37-0.461-0.461-0.544v0z"></path>
<path fill="#e6c367" d="M10.296 7.456s-0.261 0.065-0.748 0.321c-0.161 0.083-0.313 0.153-0.461 0.217-0.383 0.173-0.795 0.334-1.121 0.422 0.026 0.031 0.039 0.044 0.039 0.044s0 0.127 0.070 0.199c-0.039 0.039-0.557 0.391-0.404 1.569 0.103-0.039 0.225-0.091 0.243-0.091 0.031 0.005 0.039 0.091 0.078 0.091s0.166-0.051 0.3-0.225c-0.005 0.070-0.083 0.774 0.334 1.248 0.078-0.091 0.274-0.391 0.274-0.391l0.005-0.096s0.018-0.334 0.127-0.639 0.321-0.531 0.321-0.531l1.108-1.582-0.166-0.557z"></path>
<path fill="#dcba5a" d="M9.261 9.779c-0.048 0.034-0.102 0.062-0.161 0.082l-0.004 0.001c-0.018-0.065-0.044-0.287 0.109-0.505 0.179-0.262 0.569-0.601 0.678-0.87 0.070-0.174 0.039-0.608 0.66-1.165s0.865-0.748 0.865-0.748l1.005-0.505 1.235 0.487-0.614 2.405-0.476 1.126-1.894-0.357-1.402 0.050z"></path>
<path fill="#e9ce77" d="M9.984 9.126l0.236-0.295v-0.21s0.261-0.070 0.544-0.357 0.673-0.839 1.018-0.805c0.344 0.039 0.378 0.748 0.391 0.948s0.057 0.652 0.127 0.896c0.078 0.243-0.839 1.165-0.839 1.165l-0.622 0.474-0.853-1.815z"></path>
<path fill="#cdae50" d="M10.713 11.583s0.192-0.3 0.051-0.365c0.083-0.186 0.236-0.383 0.236-0.383s0.109-0.269 0.461-0.601 0.57-0.552 0.627-0.774c0.033-0.132 0.054-0.284 0.057-0.441l0-0.002c0.036 0.029 0.075 0.057 0.118 0.081l0.004 0.002c0.057 0.026 0.326 0.248 0.287 0.697s-0.205 0.634-0.205 0.634-0.16 0.16-0.274 0.243c-0.122 0.083-0.166 0.179-0.37 0.186 0.020-0.016 0.043-0.029 0.068-0.038l0.002-0.001s-0.212-0.026-0.326 0.078-0.356 0.422-0.478 0.518c-0.122 0.078-0.256 0.166-0.256 0.166v0z"></path>
<path fill="#d2a83e" d="M19.322 6.547c-0.282-0.106-0.607-0.173-0.947-0.186l-0.006-0c-0.544-0.018-1.339 0.013-2.118 0.018-0.839 0.005-1.6-0.287-2.656-0.339-0.173-0.104-0.614-0.557-1.991 0.404 0.083-0.005 0.999-0.212 1.318 0.187 0.321 0.396 0.23 1.069 0.187 1.23-0.083 0.357-0.352 0.878-0.461 1.243s-0.083 0.557-0.161 0.813-0.248 0.383-0.148 0.678c0.135-0.083 0.205-0.083 0.43-0.588s0.179-0.865 0.552-1.292c0.365-0.43 0.973-1.018 1.204-1.165s2.066-1.1 3.987-0.192c0.463-0.049 0.81-0.811 0.81-0.811v0z"></path>
<path fill="#c29637" d="M12.378 6.195c-0.002-0.021-0.007-0.040-0.013-0.059l0.001 0.002c-0.019-0.040-0.042-0.074-0.070-0.104l0 0s-0.456-0.083-0.686-0.057c-0.404 0.044-0.769 0.544-0.94 0.8s-0.383 0.652-0.614 0.857c0-0.003 0.001-0.007 0.001-0.011 0-0.017-0.005-0.033-0.014-0.047l0 0s0.013 0.018-0.013 0.044-0.026 0.039-0.013 0.051l0.039 0.039c0.013 0 0.37-0.161 0.857-0.614 0.518-0.474 0.914-0.717 1.121-0.8 0.099-0.043 0.214-0.079 0.335-0.1l0.010-0.001z"></path>
<path fill="#ac8132" d="M21.217 4.249s-0.083 0.103-0.187 0.217c-0.23 0.243-0.531 0.518-0.787 0.8-0.243 0.269-0.518 0.479-0.826 0.831s-0.666 0.743-0.756 0.857c-0.083 0.114-0.147 0.3-0.147 0.396-0.044-0.031-0.096-0.065-0.096-0.065 0.023 0.043 0.049 0.081 0.078 0.115l-0.001-0.001c0.065 0.091 0.166 0.205 0.217 0.274 0.061 0.084 0.107 0.183 0.133 0.289l0.001 0.006c0.031 0.005 0.23 0.044 0.479-0.365s0.575-0.857 0.575-0.857l0.518-0.769 0.326-0.652 0.41-0.73 0.062-0.347z"></path>
<path fill="#a88f33" d="M21.748 3.726s-0.313 0.256-0.435 0.41-0.41 0.557-0.41 0.557l0.104-0.013 0.526-0.466 0.205-0.365 0.010-0.122z"></path>
<path fill="#a67a2e" d="M21.652 24.3s-0.005-0.212 0.114-0.339c0.122-0.127 0.43-0.313 0.73-1.012s0.334-0.857 0.334-0.857-0.538 0.461-0.87 0.57c0.078-0.161 0.122-0.274 0.161-0.357-0.044-0.039-0.23-0.083-0.248-0.103 0.103-0.104 0.16-0.357 0.37-0.526 0.269-0.205 0.761-0.557 1.143-0.87s1.134-1.043 1.23-1.256c0.057 0.083 0.070 0.134 0.070 0.134s-0.378 0.492-0.575 0.805c-0.174 0.269-0.161 0.422-0.161 0.422l0.357-0.154s0.103 0.383-0.365 0.966c0.205-0.078 0.287-0.031 0.404-0.096-0.192 0.122-0.456 0.288-0.704 0.743-0.243 0.456-0.575 0.986-1.134 1.318-0.544 0.35-0.857 0.611-0.857 0.611v0z"></path>
<path fill="#8c6228" d="M20.249 6.817s-0.212 0.443-0.243 0.787c-0.005 0.083-0.026 0.148-0.026 0.243-0.005 0.308 0.018 0.652-0.051 0.813-0.026-0.065-0.039-0.109-0.065-0.134-0.039 0.109-0.109 0.448-0.166 0.575-0.026-0.083-0.083-0.37-0.077-0.709s0.013-0.404 0.013-0.474c-0.013 0.103-0.083 0.243-0.109 0.326-0.039-0.070-0.083-0.16-0.135-0.236-0.031 0.051-0.070 0.127-0.103 0.166-0.005-0.031-0.018-0.114-0.026-0.23-0.005-0.135-0.013-0.308-0.005-0.344 0.013-0.070 0.122-0.344 0.352-0.595 0.274-0.3 0.557-0.878 0.64-1.056s0.435-0.922 0.435-0.922h0.269l-0.391 0.891s-0.236 0.487-0.357 0.666-0.378 0.691-0.492 0.891c0.083-0.109 0.153-0.166 0.236-0.269 0.080-0.073 0.303-0.386 0.303-0.386v0z"></path>
<path fill="#cba94c" d="M21.753 3.692c-0.047 0.143-0.117 0.266-0.206 0.372l0.001-0.002c-0.161 0.192-0.505 0.448-0.673 0.652-0.154 0.199-0.461 0.743-0.321 1.388 0.051-0.14 0.148-0.417 0.404-0.73s0.531-0.673 0.666-0.953c0.134-0.282 0.153-0.505 0.153-0.505l0.051-0.065-0.031-0.148-0.044-0.010z"></path>
<path fill="#a88f33" d="M26.996 20.865s-0.104-0.282-0.135-0.538 0.051-0.307-0.044-0.601c-0.057-0.179-0.16-0.154-0.186-0.179s-0.044-0.295-0.039-0.443-0.005-0.339-0.031-0.422c-0.039-0.031-0.065-0.057-0.122-0.248-0.065-0.192-0.096-0.287-0.127-0.344s-0.122-0.109-0.122-0.166c0-0.114 0.104-0.173 0.104-0.205-0.005-0.065-0.083-0.013-0.104-0.031-0.026-0.031 0.065-0.217 0.031-0.243-0.013-0.013-0.104 0.096-0.127 0.065-0.026-0.031-0.057-0.339-0.104-0.544-0.044-0.199-0.091-0.344-0.096-0.404-0.005-0.057-0.357-1.062-0.443-1.305-0.057-0.161-0.117-0.371-0.166-0.585l-0.008-0.041c-0.026-0.122-0.044-0.37-0.057-0.344s-0.005 0.153-0.026 0.148c-0.018-0.005-0.083-0.448-0.103-0.518-0.018-0.070-0.127-0.307-0.154-0.479-0.026-0.174-0.083-0.627-0.122-0.935s-0.057-0.435-0.057-0.512c0.001-0.032 0.002-0.070 0.002-0.108 0-0.161-0.012-0.32-0.035-0.474l0.002 0.017c-0.051-0.326-0.154-0.722-0.243-0.953-0.173-0.435-0.634-1.548-0.717-1.825 0-0.070 0.091-0.031 0.091-0.031s0.225 0.564 0.391 0.999c0.161 0.435 0.313 0.818 0.352 0.857 0.031 0.039 0.274 0.466 0.383 1.165s0.147 1.344 0.212 1.773c0.031 0.205 0.057 0.422 0.122 0.639 0.070 0.236 0.179 0.479 0.321 0.852 0.122 0.313 0.212 0.575 0.261 0.8 0.057 0.287 0.057 0.505 0.091 0.647 0.031 0.122 0.078 0.365 0.187 0.717s0.269 0.805 0.378 1.087c0.212 0.564 0.307 1.036 0.339 1.287 0.028 0.259 0.124 1.155 0.098 1.424v0z"></path>
<path fill="#be9c44" d="M21.766 3.661l-0.013 0.031s0.039 0.013 0.031 0.065c0 0.004 0 0.008 0 0.012 0 0.071-0.005 0.14-0.014 0.208l0.001-0.008c-0.013 0.091-0.039 0.16-0.044 0.217 0 0.122 0.018 0.261-0.154 0.608-0.051 0.096-0.083 0.179-0.109 0.236-0.065 0.14-0.078 0.161-0.135 0.225 0.091-0.051 0.417-0.256 0.582-0.225-0.114 0.065-0.287 0.192-0.396 0.357 0.026 0.005 0.135 0.026 0.307 0 0.287-0.044 0.608-0.148 0.891-0.127 0.308 0.018 0.187-0.37 0.187-0.37l-0.356-0.782-0.673-0.474-0.106 0.026z"></path>
<path fill="#a17c34" d="M23.521 9.517s-0.3-0.3-0.422-1.331c-0.122-1.036-0.096-2.56-0.096-2.56l-0.243-0.595s-0.051-0.396-0.179-0.544-0.378-0.396-0.492-0.518-0.243-0.287-0.321-0.313c0.039-0.065 0.212-0.43 0.878-0.435s0.87 0.365 0.94 0.5 0.383 0.717 0.5 1.826c0.109 1.108 0.114 1.191 0.096 1.574-0.013 0.212-0.083 0.704-0.205 1.23-0.111 0.445-0.233 0.943-0.456 1.168z"></path>
<path fill="#8c6228" d="M22.579 10.4c0.011 0.001 0.024 0.001 0.037 0.001 0.092 0 0.179-0.025 0.253-0.067l-0.002 0.001c0.096-0.005 0.443 0.039 0.709-0.3 0.018 0.077 0.065 0.287-0.057 0.474 0.065-0.065 0.161-0.091 0.174-0.109 0.005 0.096 0.096 0.391-0.287 1.108 0.103-0.114 0.225-0.109 0.334-0.122 0.005 0.135 0.078 0.588-0.114 0.831-0.127 0.166-0.334 0.114-0.334 0.114 0.001-0.016 0.002-0.035 0.002-0.054s-0.001-0.038-0.002-0.057l0 0.002c-0.005-0.070-0.031-0.14-0.013-0.186-0.104-0.048-0.193-0.111-0.269-0.187l0 0c-0.225-0.212-0.518-0.575-0.538-0.844-0.026-0.3 0.243-0.365 0.243-0.365-0.022-0.020-0.041-0.043-0.056-0.069l-0.001-0.001c-0.013-0.044-0.026-0.114-0.078-0.171v0z"></path>
<path fill="#92723a" d="M20.582 7.143s-0.013-0.018-0.083 0.065c0.013-0.083 0.026-0.161 0.031-0.236 0.035-0.073 0.078-0.136 0.128-0.192l-0.001 0.001c-0.039 0.077-0.065 0.147-0.065 0.147s0.096-0.179 0.236-0.287c0.096-0.078 0.217-0.114 0.269-0.186 0.057-0.078 0.044-0.091 0.057-0.104 0 0 0.127-0.083 0.321-0.326 0.026-0.031 0.065-0.065 0.091-0.096 0.044-0.018 0.147-0.065 0.269-0.127 0.127-0.070 0.269-0.166 0.357-0.205 0.173-0.078 0.357-0.070 0.443-0.192 0.065-0.018 0.134-0.212 0.122-0.378 0.096 0.039 0.588 0.344 0.756 1.012 0.122 0.474-0.096 1.204-0.187 1.556s-0.103 0.614-0.23 0.774c-0.161 0.212-0.678 0.512-0.805 0.66-0.109 0.122-0.435 0.43-0.422 0.652 0.013 0.166 0.217 0.256 0.262 0.287s0.044 0.070 0.127 0.051 0.114-0.057 0.148-0.057c0.039 0.005 0.039 0.013 0.057 0.013 0.014-0 0.027-0.002 0.040-0.006l-0.001 0s-0.013 0.236-0.564 0.307c-0.039 0.005-0.078 0.018-0.127 0.026 0.065-0.031 0.104-0.031 0.174-0.127-0.078-0.013-0.3-0.026-0.357-0.044 0.018-0.031 0.078-0.114 0.127-0.153 0.044-0.039-0.005-0.051-0.044-0.031-0.072 0.049-0.135 0.098-0.194 0.15l0.003-0.002c-0.065 0.057-0.122 0.135-0.225 0.205-0.031-0.104-0.026-0.3 0.096-0.443-0.031 0.005-0.091 0.096-0.148 0.078-0.003-0.027-0.005-0.058-0.005-0.089 0-0.069 0.008-0.135 0.024-0.199l-0.001 0.006c0.031-0.117 0.199-0.321 0.199-0.321l0.813-1.453 0.173-1.1-1.861 0.362z"></path>
<path fill="#b18e3e" d="M20.539 7.205s-0.044 0.031 0.044 0.091c-0.013 0.018-0.044 0.083-0.083 0.127-0.044 0.051-0.091 0.083-0.109 0.127-0.039 0.091-0.070 0.153-0.070 0.192s-0.013 0.287-0.122 0.448c-0.039 0.057-0.083 0.153-0.114 0.217-0.065 0.114-0.122 0.205-0.135 0.256-0.026 0.091-0.044 0.339-0.044 0.339s0.057-0.070 0.078-0.096c-0.031 0.065-0.065 0.134-0.114 0.186 0.031-0.026 0.122-0.091 0.274-0.225 0.212-0.179 0.544-0.479 0.948-0.717-0.122 0.044-0.225 0.044-0.308 0.057 0.065-0.065 0.647-0.748 0.953-0.813 0.016-0.021 0.026-0.047 0.026-0.075 0-0.003-0-0.005-0-0.008l0 0-0.262-0.026-0.531 0.114-0.077-0.41-0.355 0.215z"></path>
<path fill="#543e26" d="M21.383 9.535s-0.070 0.070-0.135 0.243c-0.048-0.050-0.091-0.107-0.125-0.169l-0.002-0.004c-0.096-0.16-0.243-0.365-0.588-0.248-0.005-0.109-0.013-0.166 0-0.243 0.057-0.013 0.23-0.153 0.404-0.357 0.122-0.14 0.236-0.3 0.313-0.505 0.051-0.039 0.14-0.104 0.256-0.179 0.166-0.114 0.365-0.269 0.396-0.443-0.078 0.031-0.243 0.109-0.492 0.096 0.096-0.044 0.243-0.091 0.225-0.282 0.039-0.026 0.070-0.044 0.070-0.044-0.024-0.008-0.052-0.013-0.081-0.013-0.003 0-0.007 0-0.010 0h0c-0.005-0.018-0.013-0.044-0.057-0.031s-0.051 0.013-0.057 0.031c-0.018 0.005-0.078 0-0.122 0.031s-0.166 0.135-0.212 0.153c0.018-0.031 0.044-0.077 0.044-0.077s-0.127 0.013-0.217 0.051c-0.166 0.057-0.357 0.161-0.551 0.261 0.018-0.031 0.026-0.051 0.039-0.057s0.044-0.013 0.044-0.018-0.013-0.051-0.005-0.070c0.064-0.135 0.133-0.251 0.21-0.359l-0.005 0.007c0.091-0.122 0.109-0.295 0.109-0.295l0.396-0.199 1.113-0.256 0.722 0.044-0.091 0.5-0.427 0.872-0.365 0.795-0.417 0.487-0.383 0.28z"></path>
<path fill="#806031" d="M23.187 7.373s-0.435 0.538-0.557 0.621c0.078-0.166 0.557-1.152 0.73-1.427-0.039-0.031-0.091-0.031 0.031-0.512-0.103 0.243-0.14 0.37-0.225 0.435s-0.096 0.044-0.154 0.044c0.009-0.015 0.014-0.033 0.014-0.052 0-0.004-0-0.009-0.001-0.013l0 0s-0.365-0.044-0.614-0.044-0.743 0.135-1.017 0.243c-0.217 0.091-0.339 0.091-0.417 0.147-0.078 0.065-0.122 0.135-0.161 0.153-0.031 0.018-0.179 0.065-0.212 0.114-0.031 0.051-0.083 0.109-0.083 0.122s-0.013 0.031 0.026 0.018c0.013-0.005 0.109-0.057 0.217-0.122 0.147-0.083 0.326-0.179 0.456-0.236 0.37-0.148 0.487-0.122 0.652-0.153 0.173-0.031 0.422-0.104 0.588-0.104 0.166-0.005 0.479 0 0.552 0.013-0.031 0.026-0.057 0.057-0.044 0.166 0 0.031-0.026 0.065-0.051 0.14-0.077 0.212-0.225 0.564-0.307 0.743-0.114 0.243-0.243 0.448-0.307 0.575s-0.205 0.461-0.344 0.639-0.212 0.287-0.256 0.326-0.357 0.269-0.334 0.352c0.057-0.018 0.417-0.154 0.678-0.448s0.313-0.474 0.518-0.634 0.365-0.43 0.461-0.652c0.080-0.207 0.062-0.272 0.163-0.456v0z"></path>
<path fill="#b6903c" d="M13.812 11.392s-0.057 0.236-0.187 0.352c-0.127 0.114-0.352 0.212-0.378 0.404-0.031 0.191 0.225 0.287 0.225 0.287s-0.14 0.23-0.14 0.404c0 0.179-0.005 0.212 0.013 0.383-0.021 0.013-0.038 0.031-0.051 0.051l-0 0.001s0.013 0.166 0.14 0.269 0.236 0.166 0.3 0.14c0.008 0.017 0.017 0.039 0.025 0.061l0.001 0.004s0.096-0.243 0.161-0.456c0.065-0.217 0.122-0.187 0.147-0.479s0.307-0.795 0.307-0.795l0.192-0.429-0.313-0.243-0.443 0.047z"></path>
<path fill="#685026" d="M14.395 11.814c-0.063 0.064-0.121 0.134-0.175 0.207l-0.004 0.005c-0.083 0.114-0.147 0.217-0.269 0.262s-0.199 0.044-0.192 0.166 0.122 0.173 0.186 0.236c0.070 0.065 0.127 0.173 0.096 0.295 0.039-0.018 0.109-0.039 0.173-0.179s0.517-0.992 0.517-0.992h-0.334z"></path>
<path fill="#d4b968" d="M16.179 9.848s0.039-0.103 0-0.179c-0.039-0.078-0.274-0.104-0.391-0.192-0.122-0.091-0.269-0.154-0.391-0.114 0.018-0.044 0.091-0.14 0.031-0.161-0.057-0.018-0.269 0.078-0.326 0.122s-0.187 0.096-0.212 0.127-0.070 0.091-0.096 0.065c-0.026-0.018-0.039-0.065-0.083-0.039s-0.256 0.199-0.295 0.3-0.127 0.326-0.391 0.582-0.378 0.422-0.3 0.518 0.114 0.026 0.127 0.109c0.003 0.026 0.005 0.055 0.005 0.085 0 0.056-0.007 0.111-0.019 0.163l0.001-0.005c-0.031 0.135-0.083 0.261-0.013 0.287 0.179 0.057 0.352-0.051 0.391-0.018 0.078 0.070-0.044 0.321 0.14 0.37 0.187 0.051 0.37-0.044 0.37-0.044l0.678-0.365 0.652-0.344 0.334-0.66-0.179-0.551-0.034-0.057z"></path>
<path fill="#cca849" d="M15.539 11.425s-0.114-0.173 0.026-0.326 0.339-0.217 0.417-0.313c-0.015-0.018-0.034-0.031-0.056-0.039l-0.001-0c0.052-0.092 0.129-0.165 0.222-0.211l0.003-0.001c-0.039-0.039-0.091-0.070-0.147-0.070-0.127 0-0.205 0.078-0.321 0.078-0.114 0-0.127-0.057-0.127-0.057s0.192-0.018 0.173-0.104c-0.018-0.091-0.051-0.091-0.051-0.091s0.37-0.154 0.435-0.236 0.057-0.179 0.070-0.217c0.044 0 0.3-0.135 0.404-0.078s0.031 0.212 0.031 0.212 0.314-0.236 0.473-0.467c0.14 0.013 0.205-0.096 0.307-0.096 0.127 0 0.326 0.173 0.365 0.544 0.026 0.212 0.065 0.334 0.026 0.709-0.018 0.212-0.013 0.666 0.051 0.891 0.044 0.179 0.147 0.161 0.147 0.161-0.017 0.056-0.048 0.104-0.090 0.139l-0 0c-0.070 0.065-0.078 0.236-0.070 0.3 0.012 0.056 0.026 0.103 0.042 0.149l-0.003-0.009s-0.083 0.096-0.104 0.161c-0.018 0.065-0.103 0.109-0.166 0.109s-0.031-0.005-0.114 0-0.109 0.018-0.161 0-0.091-0.039-0.070-0.205c0.018-0.166-0.639-0.551-0.639-0.551l-1.075-0.383z"></path>
<path fill="#585136" d="M14.304 13.061s0.236 0.313 1.204 0.313c0.461 0 0.621-0.044 0.717-0.070 0.104-0.026 0.492-0.179 0.883-0.639 0.352-0.417 0.274-0.588 0.274-0.588l-0.205-0.031-0.666 0.091-1.97 0.839-0.239 0.085z"></path>
<path fill="#252211" d="M15.027 13.139s-0.839 0.187-0.839-0.344c0-0.518 0.518-1.062 0.647-1.157 0.135-0.096 0.456-0.205 0.456-0.205h0.774l0.147 0.391-0.065 0.844-1.121 0.471z"></path>
<path fill="#c3b378" d="M15.801 11.591s-0.16-0.148-0.525 0.051-0.66 0.614-0.678 0.992c-0.018 0.334 0.274 0.582 0.73 0.595 0.339 0.013 0.544-0.026 0.647-0.051-0.026-0.031-0.161-0.199-0.161-0.199l-0.013-1.388z"></path>
<path fill="#e6d89c" d="M15.643 11.674s-0.039-0.031-0.154 0.031c-0.096 0.051-0.236 0.187-0.344 0.282-0.070 0.057-0.114 0.083-0.154 0.127-0.161 0.192-0.295 0.505-0.217 0.66s0.334 0.334 0.986 0.212l-0.119-1.313z"></path>
<path fill="#252211" d="M15.431 11.995s-0.104 0.161-0.104 0.417c0 0.261 0.148 0.678 0.691 0.709 0.417 0.026 0.696-0.601 0.999-0.844 0.23-0.186 0.37-0.192 0.37-0.192s-0.236-0.256-0.865-0.588c-0.621-0.334-1.318-0.378-1.696 0.135 0.179-0.013 0.756-0.161 0.756-0.161l0.282 0.091-0.435 0.432z"></path>
<path fill="#6f674d" d="M16.243 12.334c-0.018-0.039-0.031-0.091 0.044-0.103s0.109-0.005 0.135 0.051 0.051 0.104 0.013 0.127c-0.039 0.021-0.14 0-0.192-0.075zM16.122 11.969s-0.026 0.018-0.013-0.018c0.005-0.044 0.039-0.122 0.122-0.103s0.065 0.109 0.051 0.135-0.083 0.070-0.135 0.051c-0.019-0.005-0.032-0.022-0.032-0.042 0-0.008 0.002-0.016 0.007-0.023l-0 0z"></path>
<path fill="#ac924c" d="M9.114 12.134s0.205 0.154 0.443 0.148c0.236-0.005 0.538-0.248 0.678-0.404 0.083-0.091 0.154-0.186 0.23-0.261 0.065-0.065 0.109-0.096 0.14-0.14 0.044-0.051 0.091-0.147 0.114-0.179-0.057 0.044-0.14 0.122-0.225 0.174-0.083 0.051-0.261 0.147-0.334 0.173-0.070 0.026-0.795 0.41-0.795 0.41l-0.251 0.080z"></path>
<path fill="#9f8e57" d="M9.427 10.221s0.114-0.078 0.334-0.127c0.212-0.051 0.639-0.091 0.639-0.091l0.352 0.154 0.14 0.531-0.256 0.552-0.326 0.205-0.37-0.595-0.512-0.627z"></path>
<path fill="#eac970" d="M8.966 10.695l-0.122 0.091s0.031-0.057 0.057-0.23 0.161-0.595 0.357-0.839 0.192-0.23 0.192-0.23c-0.007-0.001-0.015-0.002-0.023-0.002-0.030 0-0.058 0.011-0.081 0.028l0-0c0.026-0.057 0.192-0.262 0.357-0.365s0.23-0.135 0.404-0.051 0.217 0.127 0.344 0.122 0.236-0.14 0.236-0.14 0.026 0.083-0.070 0.274-0.474 0.582-0.474 0.582l-0.787 0.538-0.391 0.222z"></path>
<path fill="#d7bc6b" d="M9.548 10.157s0.57 0.078 0.743-0.083c0.005 0.018 0.026 0.018 0.026 0.031-0.002 0.010-0.006 0.019-0.013 0.026v0c0.017-0.003 0.037-0.005 0.057-0.005h0c0.020 0.006 0.044 0.011 0.069 0.013l0.001 0c0.021-0 0.040-0.002 0.059-0.006l-0.002 0c-0.004 0.027-0.018 0.050-0.039 0.065l-0 0c0.026 0 0.051 0.005 0.051 0.026s0.005 0.083-0.026 0.096c-0.009 0.003-0.020 0.004-0.031 0.004-0.017 0-0.033-0.004-0.047-0.010l0.001 0c0.002 0.052 0.016 0.1 0.040 0.142l-0.001-0.002c0.051 0.096 0.16 0.205 0.307 0.173 0 0 0.077 0.186-0.249 0.601-0.044 0.057-0.091 0.135-0.147 0.199-0.021 0.044-0.038 0.095-0.050 0.148l-0.001 0.005s0.552-0.212 0.709-0.697c0.161-0.487 0.192-0.966 0.161-1.413-0.005-0.127-0.026-0.217-0.057-0.282-0.078-0.161-0.295-0.135-0.383-0.044-0.127 0.127-0.339 0.443-0.634 0.66-0.3 0.217-0.313 0.256-0.544 0.352v0z"></path>
<path fill="#585136" d="M8.865 10.856s-0.109 0.065-0.166 0.307c-0.057 0.248 0.051 0.551 0.114 0.647s0.205 0.357 0.5 0.37c0.077-0 0.15-0.017 0.216-0.045l-0.004 0.001c0.11-0.051 0.204-0.111 0.29-0.181l-0.002 0.002c0.127-0.096 0.23-0.179 0.217-0.186-0.031-0.013-0.782-0.634-0.782-0.634l-0.282-0.315-0.101 0.034z"></path>
<path fill="#453a25" d="M9.574 11.886s0.153-0.013 0.243-0.070-0.531-0.673-0.531-0.673l0.044 0.666 0.243 0.077z"></path>
<path fill="#84754b" d="M8.914 10.809s-0.078 0.148-0.078 0.187c-0.013 0.127 0.026 0.525 0.057 0.652 0.031 0.135 0.199 0.339 0.417 0.339 0.134 0 0.321-0.083 0.321-0.103 0-0.026-0.192-0.051-0.243-0.148-0.031-0.051-0.044-0.179-0.051-0.307-0.005-0.083-0.005-0.173 0.026-0.205 0.070-0.078 0.083-0.3 0.083-0.3l0.248-0.462h-0.327l-0.391 0.243z"></path>
<path fill="#252211" d="M8.818 10.951s0.256-0.339 0.487-0.417 0.334-0.031 0.334-0.031l-0.135 0.344-0.192 0.212 0.013 0.109s-0.031 0.287 0.16 0.487 0.334 0.192 0.417 0.192 0.321-0.070 0.443-0.357c0.109-0.269 0.199-0.614-0.018-0.96-0.212-0.344-0.588-0.358-0.66-0.358s-0.642 0.028-0.849 0.779v0z"></path>
<path fill="#f7f7e7" d="M15.392 12.104c-0.096-0.044-0.005-0.313 0.091-0.396s0.217-0.179 0.43-0.192c0.077-0.005 0.153 0.044 0.14 0.096-0.018 0.096-0.153 0.23-0.274 0.326-0.168 0.132-0.277 0.215-0.386 0.166z"></path>
<path fill="#f8f6de" d="M10.214 10.636c0.070-0.005 0.161 0.051 0.179 0.127 0.018 0.083-0.044 0.248-0.179 0.248-0.109 0-0.166-0.135-0.166-0.173 0.001-0.034 0.011-0.065 0.026-0.092l-0.001 0.001c0.005-0.008 0.018-0.098 0.14-0.111z"></path>
<path fill="#d4c38b" d="M9.204 10.695s-0.179 0.083-0.261 0.256c-0.040 0.084-0.063 0.182-0.063 0.285 0 0.044 0.004 0.087 0.012 0.129l-0.001-0.004c0.013 0.065 0.078 0.225 0.122 0.282s0.104 0.096 0.148 0.091 0.134-0.122 0.134-0.191 0.005-0.365 0.091-0.526c0.075-0.16-0.181-0.321-0.181-0.321v0z"></path>
<path fill="#e2d59d" d="M9.23 10.682c-0.031 0.018-0.083 0.044-0.070 0.078 0.013 0.031 0.122 0.051 0.161 0.127 0.044 0.078 0.044 0.16 0.031 0.199 0.035-0.017 0.065-0.039 0.091-0.065l0-0c0.057-0.065 0.127-0.153 0.186-0.153 0.039 0 0.078 0.018 0.114 0.018 0.057 0 0.114-0.018 0.122-0.078 0.013-0.078-0.109-0.148-0.179-0.135 0.013-0.051 0.031-0.127-0.026-0.179s-0.236 0.039-0.274 0.065-0.155 0.122-0.155 0.122v0z"></path>
<path fill="#cbac5a" d="M13.344 16.122l0.383-0.113 0.109 0.078s0.077 0.166 0.199 0.186c-0.039 0.083-0.14 0.154-0.135 0.212s0.057 0.104 0.057 0.104-0.344 0.57 0.334 1.143c-0.161 0.065-0.365 0.154-0.474 0.205 0.077 0.018 0.243 0.051 0.313 0.114s0.070 0.083 0.135 0.122 0.103 0.091 0.091 0.114c-0.044-0.026-0.192-0.103-0.217-0.031s-0.639 0.044-0.639 0.044l-1.036 0.199s0.039-0.104-0.070-0.199c-0.127-0.114-0.282 0.005-0.448-0.122-0.217-0.166-0.225-0.357-0.295-0.43 0.070-0.044 0.212-0.109 0.551-0.154-0.013-0.026-0.057-0.104-0.031-0.173 0.031-0.091 0.16-0.148 0.122-0.256 0.057-0.013 0.083-0.013 0.225-0.192 0.135-0.179 0.217-0.217 0.321-0.23s0.166 0 0.357-0.179c0.134-0.127 0.091-0.236 0.091-0.236s0.088-0.029 0.057-0.207v0z"></path>
<path fill="#d6bc6f" d="M12.212 16.179c0.005-0.026 0.026-0.039 0.166-0.026s1.025-0.083 1.266-0.096c0.243-0.018 1.1-0.005 1.517 0.083s0.839 0.192 1.043 0.243c0.205 0.057 0.269 0.077 0.261 0.103-0.005 0.026-0.051 0.051-0.078 0.044-0.026-0.005-0.704-0.212-0.914-0.256s-0.935-0.161-1.331-0.154c-0.37 0.005-0.518-0.005-0.831 0.031-0.313 0.039-0.831 0.091-0.986 0.070-0.154-0.018-0.122-0.018-0.114-0.044v0z"></path>
<path fill="#dfc677" d="M14.296 18.208s0.531 0.287 0.722 0.64c0.14 0.261-0.083 0.391-0.083 0.391s0.3 0 0.261 0.166c-0.018 0.103-0.518 0.383-0.852 0.531-0.339 0.148-0.326 0.14-0.492 0.166-0.161 0.026-0.601-0.051-0.691 0.078s-0.051 0.262-0.026 0.282c0.026 0.018 0.236 0.044 0.236 0.044s-0.044 0.122-0.479 0.135-0.544 0.044-0.57 0.091c-0.026 0.044 0.083 0.018 0.282 0.051 0.199 0.031 0.479 0.051 0.479 0.051s-0.091 0.078-0.326 0.14c-0.269 0.070-0.691 0.135-0.818 0.212 0.065 0.044 0.161 0.109 0.205 0.114-0.109 0.026-0.262 0.083-0.287 0.104 0.039 0.026 0.091 0.057 0.091 0.057s-0.218 0.261-0.344 0.326-0.857 0.404-1.108 0.339c-0.627-0.166-0.704-0.852-0.857-0.904-0.23-0.078-0.339 0.077-0.544-0.031 0.091-0.065 0.14-0.103 0.236-0.147-0.104-0.051-0.639-0.391-0.639-0.391-0.067-0.145-0.129-0.262-0.196-0.375l0.010 0.018c-0.104-0.179-0.256-0.417-0.37-0.627-0.248-0.461-0.261-0.673-0.487-0.935 0.039-0.051 0.173-0.044 0.173-0.044l1.888 0.621 3.347 0.097 0.87-1.243 0.37 0.044z"></path>
<path fill="#c4a859" d="M9.339 20.104c0.020 0.022 0.043 0.041 0.068 0.056l0.001 0.001c0.065 0.044 0.161 0.096 0.225 0.173 0.026-0.039 0.091-0.109 0.205 0s0.256 0.031 0.344 0.057c0.091 0.031 0.096 0.044 0.096 0.044s0.051-0.044 0.166-0.091c0.070-0.026 0.153-0.044 0.243-0.070 0.083-0.018 0.173-0.044 0.236-0.044 0.057 0.039 0.261 0.256 1.082-0.065 0.774-0.3 0.953-0.334 1.082-0.288 0.013-0.031 0.026-0.091 0.225-0.083 0-0.083-0.166-0.365-0.166-0.365l-0.914-0.313h-0.5l-1.499 0.274-0.831 0.474-0.065 0.239z"></path>
<path fill="#927d49" d="M8.839 19.578s0.018 0.14 0.225 0.287c0.205 0.147 0.269 0.236 0.269 0.236s0.039-0.051 0.070-0.103c0.031-0.057 0.057-0.122 0.109-0.14 0.104-0.044 0.339 0.039 0.391 0.026 0.044-0.013 0.031-0.103 0.078-0.103 0.109-0.005 0.179 0.070 0.217 0.070s0.134-0.005 0.147-0.026 0.018-0.236 0.166-0.339c0.161-0.114 0.357-0.065 0.41-0.039 0 0.039 0.005 0.135 0.109 0.14s0.114-0.013 0.205 0.018 0.199-0.005 0.248 0.147c0.044-0.013 0.148-0.026 0.122-0.173 0.051-0.039 0.096-0.065 0.205-0.217 0.026-0.039 0.070-0.083 0.104-0.14 0.091 0 0.199-0.018 0.344 0.109-0.044 0.031-0.070 0.051-0.083 0.083 0.037 0.037 0.071 0.076 0.102 0.119l0.002 0.003c0.039 0.051 0.065 0.114 0.114 0.127 0.109 0.031 0.287-0.013 0.487 0 0.192 0.013 0.352 0.083 0.422 0.127 0.026-0.013 0.026-0.018 0.091-0.005s0.114 0.018 0.044-0.065c0.039 0.018 0.083 0.057 0.122 0.018s0.070-0.096 0.179-0.109 0.148 0.005 0.192-0.109c0.057-0.14-0.14-0.14-0.14-0.14s0.091-0.083 0.192-0.192c0.122-0.114 0.261-0.261 0.295-0.443 0.057-0.334-0.269-0.378-0.269-0.378l-1.582 0.487-1.934-0.096-1.649 0.821z"></path>
<path fill="#6e6342" d="M7.418 15.008s-0.051 0.065-0.083 0.217-0.018 0.135-0.044 0.243-0.345 1.191-0.225 1.556 0.326 0.5 0.456 0.795c0.026 0.065 0.051 0.104 0.065 0.161 0.044 0.192 0.005 0.339 0.057 0.531 0.018 0.065 0.065 0.14 0.135 0.217 0.154 0.16 0.404 0.313 0.512 0.422 0.153 0.161 0.37 0.487 0.647 0.518 0.148 0.018 0.357-0.044 0.531-0.147 0.154-0.096 0.248-0.23 0.41-0.307 0.114-0.057 0.236-0.078 0.344-0.104 0.225-0.044 0.43-0.051 0.552-0.026 0.186 0.039 0.627 0.174 0.87 0.174 0.202-0.003 0.396-0.031 0.581-0.081l-0.017 0.004c0.37-0.109 0.818-0.295 1.113-0.378 0.173-0.051 0.313-0.065 0.456-0.096 0.243-0.057 0.448-0.135 0.564-0.282-0.078-0.091-0.173-0.23-0.691-0.225-0.588 0.013-1.266 0.339-1.6 0.391s-0.479 0.096-0.852-0.039c-0.366-0.136-0.378-0.226-0.378-0.226s-0.384-0.268-0.544-0.953 0-1.183 0.417-1.657c0.109-0.122 0.083-0.23 0.083-0.23s0.274-0.37 0.199-0.717c-0.083-0.344-0.614-0.274-0.614-0.274l-2.944 0.515z"></path>
<path fill="#39331f" d="M7.86 16.161c-0.020 0.036-0.031 0.080-0.031 0.126 0 0.005 0 0.010 0 0.014l-0-0.001c0.005 0.070 0.026 0.16 0.236 0.365 0.179 0.179 0.14 0.378 0.14 0.378s0.090 0.018 0.334-0.096c0.192-0.091 0.256 0.070 0.256 0.070 0.052-0.028 0.112-0.048 0.176-0.057l0.003-0c0.060-0.006 0.114-0.024 0.162-0.052l-0.002 0.001s0.225 0.23 0.422 0.339c0.179 0.096 0.282 0.161 0.37 0.096 0.083-0.057 0.083-0.174 0.077-0.225-0.022-0.051-0.048-0.096-0.079-0.136l0.001 0.002c-0.057-0.083-0.148-0.179-0.154-0.256-0.013-0.179 0.135-0.391 0.103-0.443s-0.147-0.065-0.435 0.039c-0.298 0.098-1.582-0.163-1.582-0.163v0z"></path>
<path fill="#292311" d="M8.538 17.318s-0.147-0.14-0.096-0.818c0.004-0 0.008-0 0.012-0 0.062 0 0.122 0.007 0.18 0.019l-0.006-0.001s0.080 0.526-0.091 0.8z"></path>
<path fill="#252211" d="M7.487 14.491c0.021-0.016 0.040-0.033 0.057-0.051l0-0c-0.051 0.096-0.288 0.479-0.096 1.082 0.192 0.601 0.673 1.048 1.266 1.069s0.905-0.269 1.261-0.704c0.14-0.173 0.3-0.391 0.443-0.538 0.212-0.231 0.378-0.295 0.378-0.518 0-0.456-0.466-0.66-1.152-0.865s-1.305-0.179-1.626-0.039c-0.313 0.153-0.448 0.313-0.531 0.564v0z"></path>
<path fill="#3f3824" d="M9.691 17.522l0.051-0.026s0.013-0.205 0.096-0.199c0.083 0.013 0.122 0.122 0.114 0.161-0.005 0.039-0.026 0.104-0.109 0.096-0.109 0.003-0.153-0.031-0.153-0.031z"></path>
<path fill="#2d2815" d="M9.46 16.652s0.051-0.018 0.114 0.044c0.051 0 0.274-0.026 0.344 0.018s0.091 0.083 0.091 0.083-0.261 0.057-0.404 0c-0.145-0.049-0.145-0.145-0.145-0.145z"></path>
<path fill="#82764f" d="M10.612 16.691c0-0.013-0.14-0.109-0.287-0.14-0.026-0.005-0.031 0.013-0.051 0.013-0.013-0.005-0.018-0.044-0.018-0.044l-0.084 0.044s-0.013 0.018 0.031 0.051c0.039 0.031 0.104 0.057 0.122 0.109s0.018 0.070 0.026 0.078c0.005 0.005 0.096 0 0.14-0.026s0.127-0.068 0.122-0.085v0z"></path>
<path fill="#2d2816" d="M9.305 17.217s0.026-0.179 0.199-0.186c0.179-0.013 0.212 0.16 0.212 0.16l-0.104 0.104c0-0.003-0.078-0.111-0.307-0.078z"></path>
<path fill="#574f35" d="M10.431 16.448s-0.096 0.104-0.308 0.135c-0.018-0.026-0.057-0.078 0-0.16s0.122-0.109 0.186-0.083c0.059 0.010 0.105 0.052 0.121 0.108l0 0.001z"></path>
<path fill="#82764f" d="M10.822 16.575c0.005-0.026-0.013-0.031 0-0.044s0.083-0.039 0.096-0.026c0.005 0.005 0 0.026 0 0.051s0 0.051-0.013 0.070c-0.018 0.026-0.070 0.039-0.096 0.031s-0.031-0.044-0.031-0.051c0.013-0.005 0.044-0.018 0.044-0.031zM11.264 16.295c0-0.013 0.044-0.039 0.070-0.039 0.039 0 0.039 0.031 0.044 0.039 0.013 0.005 0.013-0.005 0.026 0.018s0.031 0.065 0.018 0.091-0.065 0.044-0.077 0.039c-0.018-0.013-0.075-0.129-0.080-0.147z"></path>
<path fill="#6e6342" d="M10.374 16.634s0.057 0.013 0.135 0.078c-0.026 0.018-0.065 0.039-0.065 0.039s-0.005-0.060-0.070-0.117z"></path>
<path fill="#585136" d="M10.247 16.065c-0.013-0.013 0.039-0.044 0.070-0.039s0.044 0.026 0.078 0.031 0.039-0.013 0.051-0.026 0.057-0.005 0.065 0c0.005 0.005 0.009 0.011 0.013 0.017l0 0.001c0.001-0.021 0.011-0.039 0.026-0.051l0-0c0.013-0.010 0.030-0.016 0.048-0.016 0.008 0 0.015 0.001 0.022 0.003l-0.001-0c0.005 0.018 0.031 0.083 0.026 0.096s-0.083 0.031-0.096 0.018c0.013 0.031 0.070 0.096 0.078 0.109s-0.057 0.044-0.083 0.039c-0.036-0.003-0.259-0.132-0.298-0.181zM10.586 15.635c-0.005-0.013-0.014-0.024-0.026-0.031l-0-0c-0.018-0.005-0.078 0-0.078 0.031s0.051 0.205 0.109 0.295c0.065 0.091 0.109 0.166 0.153 0.186 0.007 0.003 0.016 0.005 0.025 0.005 0.023 0 0.042-0.013 0.053-0.031l0-0c0.005-0.013 0.018-0.109 0.013-0.334s-0.013-0.443-0.026-0.456-0.065-0.013-0.083 0.013-0.135 0.282-0.14 0.321v0z"></path>
<path fill="#574f35" d="M10.356 16.96s-0.091-0.057-0.179-0.018c-0.083 0.039-0.078 0.192-0.078 0.192 0.013 0.005 0.029 0.008 0.045 0.008 0.026 0 0.050-0.008 0.070-0.022l-0 0c0.057-0.039 0.129-0.103 0.142-0.16z"></path>
<path fill="#82764f" d="M10.527 17.165c-0.005-0.051-0.051-0.051-0.051-0.078 0.007-0.026 0.029-0.044 0.056-0.044 0 0 0 0 0 0h-0c0.026 0 0.051 0.031 0.083 0.051 0.031 0.018 0.078 0.051 0.083 0.091s-0.051 0.147-0.114 0.147-0.044-0.117-0.057-0.168zM11.027 17.095s-0.104 0.031-0.096 0 0.031-0.039 0.065-0.039c0.017-0.017 0.039-0.029 0.064-0.031l0-0c0.001-0 0.002-0 0.003-0 0.014 0 0.026 0.005 0.036 0.013l-0-0s0.070-0.031 0.091-0.013 0.005 0.018 0.018 0.039c0.016 0.022 0.027 0.048 0.031 0.077l0 0.001c0 0.021-0.078 0.065-0.14 0.057-0.072-0.016-0.060-0.091-0.072-0.104zM11.63 16.979s0.031 0.018 0.005 0.039c-0.018 0.018-0.109 0.051-0.187 0.057-0.078 0-0.147 0.013-0.147-0.013s0.065-0.078 0.103-0.091c0.015-0.019 0.039-0.031 0.065-0.031 0 0 0 0 0 0h-0c0.031 0 0.153-0.013 0.186-0.018 0.031-0.005 0.057 0.013 0.039 0.039-0.008 0.018-0.065 0.018-0.065 0.018zM11.808 16.179s-0.039 0.083-0.083 0.083c-0.044-0.005-0.044-0.018-0.044-0.031 0-0.018 0.044-0.065 0.039-0.078-0.013 0-0.044 0-0.039-0.031 0-0.026 0.044-0.057 0.083-0.051 0.028-0.023 0.064-0.038 0.103-0.039h0c0.044 0 0.083 0.013 0.083 0.039s-0.051 0.083-0.070 0.096c-0.021 0.021-0.047 0.034-0.072 0.013zM11.218 17.709s-0.051 0.005-0.051 0.031c0 0.013 0.013 0.013 0.031 0.005 0.011-0.001 0.022-0.003 0.032-0.006l-0.001 0c0.005 0.005 0.005 0.031 0.044 0.031 0.034-0.005 0.065-0.016 0.092-0.032l-0.001 0.001c0.031-0.013 0.057-0.026 0.057-0.051-0.013-0.044-0.039-0.065-0.078-0.065-0.002-0-0.004-0-0.007-0-0.019 0-0.036 0.005-0.051 0.013l0.001-0s-0.013-0.026-0.057 0-0.039 0.026-0.026 0.039c0.023 0.021 0.016 0.034 0.016 0.034zM10.926 17.979c0-0.013 0.065-0.039 0.083-0.031 0.018 0.005 0.070 0.103 0.070 0.114 0 0.013-0.065 0.044-0.091 0.044s-0.070-0.044-0.070-0.051c0-0.005 0.031-0.013 0.031-0.018 0.008-0.013-0.023-0.044-0.023-0.057zM10.721 17.601c0.013-0.005 0.013-0.018 0.031-0.031 0.007-0.005 0.015-0.007 0.025-0.007 0.005 0 0.010 0.001 0.015 0.002l-0-0c0.009-0.016 0.025-0.028 0.044-0.031l0-0c0.031-0.005 0.057 0 0.051 0.013 0 0.039 0.026 0.065 0.026 0.096s-0.018 0.070-0.083 0.096c-0.065 0.018-0.153 0.018-0.166 0.013s-0.026-0.057-0.013-0.083 0.049-0.054 0.070-0.067v0z"></path>
<path fill="#6e6342" d="M10.803 17.618s-0.044 0.026-0.044 0.039c-0.003 0.010-0.005 0.022-0.005 0.034 0 0.002 0 0.003 0 0.005v-0c0 0.008 0.057-0.005 0.065-0.013 0.003-0.005-0.016-0.051-0.016-0.065z"></path>
<path fill="#585136" d="M10.418 17.496c0.026 0.005 0.070 0 0.103 0.013 0.026 0.013 0.044 0.039 0.018 0.070s-0.051 0.078-0.109 0.070c-0.065-0.005-0.127-0.039-0.127-0.065-0-0.002-0-0.005-0-0.008 0-0.032 0.012-0.061 0.031-0.083l-0 0c0.026-0.021 0.039-0.008 0.083 0.003v0z"></path>
<path fill="#574f35" d="M10.387 17.522s-0.083 0.065-0.104 0.096c-0.026 0.031-0.153 0.192-0.191 0.225 0.014-0.025 0.029-0.046 0.045-0.066l-0.001 0.001c-0.051 0.033-0.089 0.081-0.108 0.138l-0.001 0.002c-0.031 0.096 0.174 0.148 0.308 0.187s0.187 0.051 0.187 0.051c-0.046-0.068-0.088-0.145-0.123-0.226l-0.004-0.009c-0.051-0.122-0.078-0.135-0.044-0.192 0.026-0.057 0.065-0.096 0.065-0.14-0.016-0.041-0.028-0.067-0.028-0.067z"></path>
<path fill="#252211" d="M7.436 17.727c0.009 0.002 0.018 0.003 0.029 0.003s0.020-0.001 0.029-0.003l-0.001 0c0.039-0.005 0.443-0.154 0.865-0.127 0.342 0.021 0.661 0.076 0.967 0.161l-0.033-0.008c0.531 0.14 1.191 0.417 1.618 0.575 0.114 0.044 0.225 0.122 0.307 0.153 0.326 0.127 0.339 0.127 0.531 0.161 0.225 0.031 0.456-0.044 0.697-0.096 0.295-0.065 0.8-0.096 1.243-0.161 0.16-0.023 0.303-0.056 0.44-0.101l-0.018 0.005s-0.352 0.352-1.196 0.479c-0.169 0.027-0.364 0.042-0.562 0.042-0.165 0-0.328-0.011-0.487-0.031l0.019 0.002c-0.269-0.026-0.448-0.065-0.582-0.104-0.153-0.044-0.466-0.161-0.852-0.256-0.269-0.070-0.57-0.122-0.914-0.186-0.849-0.155-1.771-0.334-2.099-0.507z"></path>
<path fill="#cfb66c" d="M6.483 16.127c-0.205 0.173-0.422 0.339-0.634 0.5l-0.639 0.491c-0.217 0.16-0.43 0.326-0.647 0.487s-0.435 0.313-0.666 0.461c0.205-0.173 0.422-0.334 0.639-0.492s0.443-0.313 0.653-0.473l0.639-0.492c0.22-0.16 0.432-0.326 0.655-0.481zM5.351 17.939s0.23-0.192 0.518-0.461c0.357-0.334 0.795-0.761 0.935-0.839l-1.453 1.3z"></path>
<path fill="#cfb66c" d="M5.351 17.939c0.114-0.114 0.236-0.225 0.357-0.334l0.186-0.16c0.057-0.051 0.122-0.109 0.179-0.166 0.114-0.114 0.225-0.236 0.339-0.352 0.056-0.058 0.114-0.112 0.175-0.163l0.004-0.003c0.030-0.027 0.064-0.050 0.101-0.069l0.003-0.001c0.031-0.018 0.065-0.051 0.109-0.057-0.026 0.039-0.057 0.057-0.083 0.091-0.031 0.026-0.057 0.057-0.083 0.083-0.057 0.057-0.122 0.109-0.179 0.161-0.122 0.104-0.248 0.205-0.37 0.313s-0.236 0.225-0.357 0.334c-0.132 0.111-0.254 0.22-0.381 0.324zM6.9 16.904s-0.844 0.826-1.018 0.96z"></path>
<path fill="#cfb66c" d="M6.9 16.904c-0.077 0.089-0.157 0.17-0.241 0.246l-0.002 0.002-0.256 0.243c-0.083 0.083-0.161 0.166-0.248 0.248-0.091 0.078-0.173 0.154-0.269 0.225l0.248-0.243c0.083-0.083 0.174-0.153 0.262-0.236l0.248-0.243c0.085-0.085 0.168-0.168 0.259-0.243zM6.938 17.351c-0.091 0.253-0.184 0.462-0.289 0.664l0.014-0.030c-0.217 0.435-0.544 0.979-0.686 1.256l0.96-1.89z"></path>
<path fill="#cfb66c" d="M6.938 17.352c0 0.096-0.026 0.179-0.057 0.261-0.037 0.1-0.071 0.18-0.11 0.258l0.007-0.015c-0.039 0.078-0.083 0.161-0.127 0.236s-0.096 0.153-0.135 0.23l-0.261 0.461c-0.091 0.154-0.179 0.308-0.274 0.456 0.065-0.166 0.153-0.321 0.236-0.474 0.091-0.154 0.173-0.307 0.256-0.466 0.033-0.063 0.070-0.143 0.103-0.225l0.006-0.018c0.039-0.083 0.077-0.161 0.109-0.236 0.039-0.083 0.070-0.161 0.109-0.236 0.044-0.080 0.080-0.158 0.14-0.233z"></path>
<path fill="#dec270" d="M7.86 19.474s-0.256 0.339-0.23 0.769c0.070-0.225 0.158-0.57 0.23-0.769zM8.104 19.814s-0.091 0.922-0.166 1.375c0.106-0.524 0.127-0.48 0.166-1.375zM9.799 21.244s-0.383 1.126-0.391 1.439c0.083-0.322 0.243-0.979 0.391-1.44z"></path>
<path fill="#cbaf59" d="M10.695 19.405s0.621 1.025 1.088 1.9c-0.126-0.44-0.416-1.248-1.088-1.9z"></path>
<path fill="#e3c677" d="M12.365 20.914c0.291 0.499 0.599 1.111 0.874 1.74l0.047 0.121c-0.052-0.44-0.192-1.193-0.922-1.861z"></path>
<path fill="#ecd592" d="M17.274 22.426c0.103-0.065 0.308-0.417 0.487-0.505 0.179-0.091 0.313-0.109 0.474-0.287 0.16-0.187 0.205-0.3 0.557-0.448 0.492-0.212 0.154-0.487 0.154-0.487 0.053-0.052 0.109-0.1 0.169-0.144l0.004-0.003c0.127-0.096 0.274-0.212 0.262-0.417-0.018-0.344-0.083-0.844-0.365-1.134 0.274-0.057 0.8-0.096 1.126-0.179 0.378-0.096 0.551-0.231 0.551-0.231s-0.217-0.37 0.135-0.743 0.639-0.595 0.852-1.012c-0.243-0.031-0.614-0.16-1.561 0.199 0.058 0.027 0.106 0.055 0.152 0.085l-0.004-0.003s-0.582 0.161-0.795 0.339c-0.37 0.313-0.417 0.57-0.818 0.761s-0.805 0.14-1.139 0.295-0.383 0.287-0.505 0.344c0.026 0.031-0.005 0.083 0.044 0.127-0.031 0.044-0.212 0.339-0.396 0.339 0.018 0.070 0.173 0.122 0.173 0.122s-0.114 0.083-0.404 0.104c0.147 0.154 0.287 0.321 0.673 0.564-0.031 0.065-0.161 0.161-0.109 0.282 0.057 0.122 0.205 0.287 0.795 0.422-0.3 0.013-0.652 0.083-1.126 0.018-0.474-0.057-0.551-0.091-0.844-0.018 0.031 0.031 0.114 0.031 0.186 0.114-0.078 0.005-0.564-0.057-0.73 0.161-0.173 0.225-0.248 0.595-0.236 0.844-0.091 0.044-0.179 0.122-0.135 0.282s0.274 0.212 0.422 0.313c0.147 0.109 0.16 0.147 0.3 0.122 0.147-0.031 0.365-0.179 0.492-0.179s0.217 0.096 0.217 0.096 0.344-0.166 0.378-0.135c0.031 0.031 0.005 0.23 0.039 0.261 0.034 0.023 0.422-0.207 0.526-0.272z"></path>
<path fill="#fff" opacity="0.8" d="M24.8 12.065c-1.618-4.179-5.618-4.953-5.618-4.953h-11.412l0.044 4.256h2.273v9.504h-2.317v4.249h11.097c2.674 0 4.818-2.688 4.818-2.688 3.433-4.872 1.116-10.369 1.116-10.369zM18.926 19.57s-0.87 1.256-1.817 1.256h-1.894l-0.045-9.447h2.431s1.126 0.236 1.913 2.465c0 0 1.043 3.191-0.588 5.727z"></path>
</svg>
