<!-- Generated by IcoMoon.io -->
<svg version="1.1" xmlns="http://www.w3.org/2000/svg" viewBox="0 0 32 32">
<title>dot</title>
<path fill="#1e1e1e" d="M16.162 0c-6.684 0.027-12.096 5.439-12.122 12.122 0 1.339 0.216 2.668 0.639 3.938 0.316 0.864 1.253 1.33 2.132 1.062 0.85-0.326 1.301-1.255 1.030-2.125-0.359-0.99-0.519-2.039-0.472-3.090 0.146-4.827 4.177-8.623 9.004-8.477s8.623 4.177 8.477 9.004c-0.137 4.519-3.696 8.19-8.21 8.465 0 0-1.702 0.104-2.548 0.207-0.312 0.045-0.621 0.106-0.927 0.184-0.043 0.045-0.114 0.045-0.159 0.001 0 0-0.001-0.001-0.001-0.001-0.031-0.040-0.031-0.096 0-0.136l0.263-1.437 1.598-7.188c0.192-0.897-0.38-1.781-1.277-1.973s-1.781 0.38-1.973 1.277c0 0-3.801 17.593-3.801 17.753-0.217 0.855 0.299 1.725 1.154 1.942 0.009 0.003 0.019 0.005 0.028 0.006h0.088c0.854 0.221 1.726-0.293 1.946-1.147 0.004-0.014 0.008-0.028 0.010-0.043-0.003-0.027-0.003-0.054 0-0.079 0.047-0.207 0.527-2.548 0.527-2.548 0.363-1.767 1.787-3.121 3.569-3.394 0.367-0.056 1.909-0.16 1.909-0.16 6.658-0.664 11.518-6.599 10.853-13.258-0.606-6.073-5.637-10.748-11.74-10.907z"></path>
<path fill="#e6007a" d="M16.897 27.951c-1.093-0.228-2.162 0.474-2.389 1.566-0.003 0.010-0.004 0.020-0.006 0.031-0.237 1.085 0.451 2.158 1.538 2.395 0.001 0 0.003 0 0.004 0.001h0.056c1.064 0.257 2.134-0.398 2.389-1.46 0.003-0.008 0.004-0.017 0.006-0.024v-0.111c0.188-1.097-0.513-2.149-1.598-2.397z"></path>
</svg>
