<!-- Generated by IcoMoon.io -->
<svg version="1.1" xmlns="http://www.w3.org/2000/svg" viewBox="0 0 32 32">
<title>drc</title>
<path fill="#fff" d="M32 16c0 8.837-7.163 16-16 16s-16-7.163-16-16c0-8.837 7.163-16 16-16s16 7.163 16 16z"></path>
<path fill="#000" d="M10.881 5.994l0.931-1.119 4.181 5.031 4.175-5.031 0.931 1.119-8.363 10.069 3.256 3.919 3.256-3.919-2.469-2.969 0.931-1.119 2.925 3.525c0.019 0.025 0.038 0.044 0.050 0.069l0.413 0.5-4.181 5.031 4.181 5.031-0.931 1.119-9.287-11.181 0.169-0.206c0.012-0.019 0.019-0.031 0.031-0.050l3.975-4.787-4.175-5.031z"></path>
<path fill="#000" d="M10.887 26.131l3.494-4.206 0.931 1.119-3.5 4.206-0.925-1.119z"></path>
</svg>
