<!-- Generated by IcoMoon.io -->
<svg version="1.1" xmlns="http://www.w3.org/2000/svg" viewBox="0 0 32 32">
<title>drgn</title>
<path fill="#1797e5" stroke="#122a44" stroke-linejoin="miter" stroke-linecap="butt" stroke-miterlimit="10" stroke-width="0.4588" d="M21.885 7.869s0.505-0.505 0.734-1.009c0 0-0.551-0.642 0-1.285 0 0 0.138-0.825-0.459-1.285 0 0 1.055-0.825 2.248 0.596 0 0 0.367-0.275 0.688 0.184 0 0 3.533 0.918 2.386 7.295z"></path>
<path fill="#000" d="M23.835 7.158s0.412 0.138 0.642-0.092c0 0 0.811 1.544 0.222 3.066l-1.827-1.231s0.963-0.459 0.963-1.743z"></path>
<path fill="#000" d="M24.809 6.833s0.412 0.002 0.644-0.318c0 0 1.965 1.554 1.007 5.059l-1.347-1.345s0.788-1.602-0.304-3.396z"></path>
<path fill="#1797e5" stroke="#122a44" stroke-linejoin="miter" stroke-linecap="butt" stroke-miterlimit="10" stroke-width="0.5047" d="M4.258 10.708s-2.835 1.061-2.422 2.575c0 0 0.087 0.498 0.984 0.364 0 0 1.976-2.807 1.438-2.939z"></path>
<path fill="#1797e5" stroke="#122a44" stroke-linejoin="miter" stroke-linecap="butt" stroke-miterlimit="10" stroke-width="0.5307" d="M3.2 20.991s-1.194 1.42-0.142 2.969c0.048 0.071 0.129 0.117 0.22 0.117 0.030 0 0.058-0.005 0.085-0.014l-0.002 0.001c0.347-0.116 1.1-0.509 1.779-1.834zM5.079 24.816c-0.097 0.494-0.208 1.616 0.62 2.262 0.033 0.026 0.075 0.042 0.121 0.042 0.024 0 0.046-0.004 0.067-0.012l-0.001 0c0.228-0.081 0.789-0.368 1.275-1.304 0.014-0.026 0.022-0.058 0.022-0.091 0-0.076-0.044-0.143-0.107-0.175l-0.001-0.001-1.716-0.858c-0.026-0.013-0.056-0.021-0.088-0.021-0.094 0-0.173 0.067-0.192 0.156l-0 0.001z"></path>
<path fill="#7da4b7" d="M23.903 7.227s-0.034 1.153-0.728 1.471l0.375 0.039s0.445-0.547 0.445-1.464zM24.913 6.906s0.872 1.376 0.367 2.753l0.275 0.138s0.597-1.376-0.459-2.936z"></path>
<path fill="#1797e5" stroke="#122a44" stroke-linejoin="miter" stroke-linecap="butt" stroke-miterlimit="10" stroke-width="0.5307" d="M2.857 15.403s-2.283 2.235-1.237 3.503c0 0 0.297 0.438 1.105-0.077-0.001 0 0.709-3.533 0.132-3.426z"></path>
<path fill="#122a44" d="M8.273 28.611s0.323 1.157 1.123 1.521c0 0 1.298 0.277 0.496-2.043z"></path>
<path fill="#5dc5f9" d="M3.717 11.448s-1.652 0.688-1.468 1.927c0 0-0.321-0.046-0.183-0.596 0 0 0.092-0.78 1.56-1.514l0.367-0.183-0.229 0.367zM2.57 16.128s-1.606 1.743-0.688 2.661c0 0-0.046-1.743 0.963-2.386zM3.441 21.404s-0.642 1.147-0.046 2.248c0 0 0.275-0.092 0.321-0.184 0 0-0.046 0.23-0.412 0.367 0 0-0.963-0.963-0.046-2.523zM5.414 25.395s0.046 1.009 0.505 1.33c0 0 0.046 0 0.138-0.046 0 0-0.046 0.138-0.229 0.183 0 0-0.688-0.505-0.551-1.468z"></path>
<path fill="#000" stroke="#122a44" stroke-linejoin="miter" stroke-linecap="butt" stroke-miterlimit="10" stroke-width="0.4588" d="M27.711 20.211s2.248-4.175-0.321-7.708l-0.734-1.376s-0.092-0.229-0.321-0.184c0 0-0.642-1.101-1.422-1.285 0 0-0.597-0.918-1.698-0.963 0 0-0.275-1.286-1.743-1.055 0 0-0.321-1.285-1.652-0.734 0 0-0.229-0.688-1.055-0.459 0 0-0.046-1.239-3.212-0.275 0 0-9.497-1.33-11.378 4.404 0 0-0.086 0.214 0.157 0.27 0.007 0.001 0.012 0.007 0.012 0.014 0 0.004-0.001 0.007-0.004 0.010v-0c-0.305 0.352-0.502 0.805-0.532 1.304l-0 0.006s-1.606 1.101-0.825 2.89c0 0-0.55 1.286 0.092 2.156 0 0-0.918 1.193 0.092 2.34 0 0-0.642 1.33 0.734 2.065 0 0-0.55 1.376 0.688 1.835 0 0-0.046 1.652 1.468 2.111 0 0 0.046 0.918 1.010 1.055 0 0-0.459 1.286 1.193 1.743 0 0 0.78 1.56 1.927 0.78 0 0 0.734 1.009 2.431 0.78 0 0 1.055 0.918 2.753 0.459 0 0 1.147 0.551 2.615-0.275 0 0 0.872 0.412 1.652-0.275 0 0 1.33 0.046 1.789-0.459 0 0 0.78 0.275 1.422-0.184 0 0 1.468-0.321 1.881 0.321 0 0 0.551 1.055-0.505 2.202 0 0 2.569 0.551 2.753-2.661 0 0 0.138-1.743-1.927-2.202z"></path>
<path fill="#000" d="M27.207 18.743c0 5.828-4.806 10.552-10.736 10.552s-10.736-4.724-10.736-10.552c0-5.828 4.806-10.552 10.736-10.552s10.736 4.724 10.736 10.552z"></path>
<path fill="#000" stroke="#122a44" stroke-linejoin="round" stroke-linecap="butt" stroke-miterlimit="4" stroke-width="0.3211" d="M18.585 12.297l0.73 0.849s0.55-1.927-0.734 5.643l-0.734 2.156-9.153-0.849s-1.239-0.23-1.079-1.623l10.97-6.176"></path>
<path fill="#c91111" stroke="#122a44" stroke-linejoin="miter" stroke-linecap="butt" stroke-miterlimit="10" stroke-width="0.4588" d="M8.259 13.558l0.459-2.844 9.91 1.285-0.413 2.936-0.734 4.771-9.91-1.239 0.688-4.909z"></path>
<path fill="#750606" d="M8.167 15.807l-0.138 0.872 3.028 0.367 4.588 1.009v-0.505l2.234 0.439 0.106-0.944-9.818-1.239z"></path>
<path fill="#3d0000" d="M16.97 12.456l-6.693-0.962c-0.337 0.962-1.285 1.055-1.285 1.055l-0.732 4.528c1.059 0.289 1.1 1.345 1.1 1.345l6.745 0.918c0.337-1.059 1.237-0.872 1.237-0.872l0.688-4.68c-1.252-0.433-1.061-1.331-1.061-1.331zM17.204 18.284s-0.918-0.138-1.239 0.872l-6.422-0.872s-0.045-1.010-1.055-1.285l0.598-3.441 0.138-0.825s0.918-0.138 1.239-1.055l6.332 0.918s-0.185 0.917 1.007 1.33z"></path>
<path fill="#000" stroke="#4f1a00" stroke-linejoin="miter" stroke-linecap="butt" stroke-miterlimit="10" stroke-width="0.4588" d="M15.324 14.66l3.028 0.505 1.56 2.248-1.376 0.78-0.413-0.918-2.982-0.55 0.184-2.065z"></path>
<path fill="#000" stroke="#4f1a00" stroke-linejoin="round" stroke-linecap="butt" stroke-miterlimit="4" stroke-width="0.3211" d="M7.777 13.719l3.303 0.412-0.321 2.065-3.074-0.367-0.092 0.459s-0.046-2.11 0.183-2.569z"></path>
<path fill="#f7ae2d" stroke="#4f1a00" stroke-linejoin="miter" stroke-linecap="butt" stroke-miterlimit="10" stroke-width="0.4588" d="M10.828 13.1l-0.505 3.9 4.863 0.688 0.551-3.946-4.909-0.642z"></path>
<path fill="#fff" opacity="0.63" d="M15.416 14.43l-0.138 0.918-1.606 1.743-0.184-0.665 1.927-1.996zM13.030 13.604l-2.368 2.512-0.082 0.688 0.111 0.011 3.074-3.12-0.734-0.092zM13.994 13.742l-3.166 3.12 0.367-0.229 2.936-2.89h-0.138z"></path>
<path fill="#4f1a00" d="M12.801 15.394l-0.505 1.009 1.165 0.113-0.202-1.076s0.367-0.046 0.412-0.459c0 0 0.092-0.597-0.505-0.688 0 0-0.505-0.046-0.642 0.459 0.001-0.001-0.090 0.459 0.277 0.642z"></path>
<path fill="#4f1a00" d="M13.259 14.201s0.596 0.092 0.596 0.688c0 0 0.046 0.505-0.367 0.688l0.093 1.284h0.183l-0.183-1.193s0.513-0.276 0.331-0.938c-0.038-0.141-0.116-0.26-0.221-0.348l-0.001-0.001c-0.118-0.098-0.265-0.163-0.428-0.18l-0.004-0z"></path>
<path fill="#fff" d="M13.168 14.247s0.552 0.091 0.552 0.688c0 0 0 0.367-0.412 0.55l0.183 1.422h0.184l-0.229-1.376s0.299-0.117 0.353-0.506c0.004-0.029 0.007-0.063 0.007-0.098 0-0.348-0.261-0.636-0.598-0.677l-0.003-0z"></path>
<path fill="#3d0000" d="M17.022 18.651s-0.546-0.062-0.892 0.887l1.076-0.107zM17.251 12.045s-0.367 1.193 0.918 1.606l0.23-1.468zM8.901 10.943l-0.229 1.377s1.147-0.046 1.285-1.239zM7.938 17.229l-0.138 1.055 1.33 0.184s-0.183-1.009-1.193-1.239z"></path>
<path fill="#5dc5f9" d="M16.012 6.677s0.963-0.78 2.432 0l-0.090 0.184s0.918-0.138 1.56 1.193c0 0 0.275-1.835 1.33 0 0 0 1.377-0.184 1.56 0.78 0 0-0.23 0.459 0.046 0.78 0 0-0.183-0.688 0.275-0.642 0 0 0.78 0.046 1.33 0.78l0.183 0.138s0.597 0.092 1.376 1.193c0.229 0.297 0.451 0.631 0.648 0.98l0.022 0.042c0.129 0.235 0.25 0.429 0.38 0.616l-0.015-0.022c0.448 0.651 1.434 2.312 1.075 3.889 0 0-0.138 2.477-0.688 3.166 0 0 0.825-1.422 0.963-3.166 0 0 0.183-2.248-1.239-4.037l-0.78-1.468-0.275-0.138s-0.597-0.963-1.47-1.193v-0.092s-0.505-0.78-1.606-0.825l-0.046-0.183s-0.321-1.101-1.698-0.78c0 0-0.138-1.285-1.468-0.734 0 0-0.825-0.459-1.33-0.367 0 0 0.55-0.964-1.56-0.688 0 0-0.846 0.146-1.088 0.256z"></path>
<path fill="#000" d="M5.323 8.938s3.302-3.867 7.249-2.399c2.994 1.114 2.799 2.111 2.799 2.111s-2.032 0.318-2.975 1.606c0 0-1.839-2.009-4.197-0.309 0 0.001-0.046-2.687-2.876-1.009z"></path>
<path fill="#5dc5f9" d="M18.903 29.616s-0.302 0.388-1.137-0.105c0 0-0.744 0.609-2.441 0.243 0 0-1.147 0.734-2.523-0.412 0 0-1.881 0.412-2.34-1.101 0 0-1.147 1.101-1.698-0.459 0 0-1.147 0.138-1.286-1.33 0 0 0.275-0.459 0-0.688 0 0-0.918 0.963-0.918-0.642 0 0-2.386-0.734-0.825-1.881 0 0-2.248 0-1.193-1.789 0 0-1.56-0.688-0.734-2.065 0 0-0.963-0.459-0.459-2.019l0.321-0.138s-0.872-1.009-0.138-1.973l0.046-0.183s-0.734-2.019 0.459-2.202l0.459-0.046s-0.412-1.101 0.412-1.835c0 0-0.367-1.789 3.074-3.624h-0.641s-2.386 1.055-2.982 3.395l0.184 0.229s-0.388 0.233-0.522 1.129c-0.023 0.152-0.097 0.297-0.224 0.385-0.401 0.275-1.225 1.18-0.584 2.569 0 0-0.551 1.193 0.092 2.156 0 0-0.963 1.239 0.138 2.294 0 0-0.825 1.239 0.734 2.019 0 0-0.688 1.376 0.642 1.789 0 0-0.183 1.698 1.422 2.065 0 0-0.046 0.918 0.963 1.055l0.092 0.23s-0.505 1.101 1.101 1.514c0 0 0.734 1.606 1.835 0.688 0 0 0.642 1.101 2.386 0.825l0.229 0.138s1.055 0.78 2.523 0.321c0 0 1.147 0.55 2.615-0.275 0 0 0.78 0.412 1.468-0.183z"></path>
<path fill="#1797e5" stroke="#122a44" stroke-linejoin="miter" stroke-linecap="butt" stroke-miterlimit="10" stroke-width="0.4129" d="M12.892 23.101s-2.569-0.688-2.248-2.936c0 0-0.78-1.055-0.459-2.111 0 0 0.183-0.734 0.412-0.688 0 0 0.688-0.918 1.33-0.825 0 0-0.046 0.459 0.138 0.551 0 0 0.78-1.147 1.514-1.055 0 0-0.321 0.872 0 1.285 0 0 0.596-1.009 1.239-1.009 0 0-0.092 0.596 0.046 0.872 0 0 0.734-0.23 0.734 2.111 0 0 0.551 0.183 0.825 0.688l-0.092 2.569z"></path>
<path fill="#000" d="M14.231 17.622s1.553 3.507-0.467 4.608l2.156-0.322 0.092-2.156s-0.279-0.245-0.621-0.306c0 0 0.117-1.437-0.342-1.988z"></path>
<path fill="#5dc5f9" d="M10.69 17.55s-0.642 1.238 0.321 2.569c0 0-0.321 1.973 2.018 2.615l-0.596 0.047s-1.973-0.873-1.606-2.662c0 0-1.055-1.147-0.183-2.661zM21.798 29.013l1.096-0.269s1.101-0.275 1.973 0.138c0 0 1.101 0.688 0.138 2.661h-0.368s0.505-0.55 0.459-1.422c0 0 0-0.412-0.183-0.734 0 0-0.321-0.642-1.789-0.459l-0.367 0.092c-0.214 0.157-0.483 0.252-0.774 0.252-0.15 0-0.294-0.025-0.428-0.071l0.009 0.003z"></path>
<path fill="#1797e5" stroke="#122a44" stroke-linejoin="round" stroke-linecap="butt" stroke-miterlimit="4" stroke-width="0.4588" d="M19.178 17.458s-1.606-0.092-1.927 1.881l-0.963 0.183s-0.505 0.642-0.092 1.376c0 0-0.184 0.597 0.046 0.964 0 0-3.762-0.275-4.588 2.523 0 0-0.505 4.909 7.019 5.184 0 0 4.496 0.23 7.845-3.946l0.734-0.229 1.009 1.973s0.367-2.798 2.431-3.67c0 0-2.294-2.248-1.147-5.046l-2.294 1.376s-0.459-1.468-0.872-1.468c0 0-0.046-0.321-0.321-0.412 0 0-0.275-0.55 0.046-1.468 0 0-0.918-0.459-2.156 0.963 0 0-0.459-0.184-0.597 0.321l-0.55-0.184s-0.183-0.642-0.642-0.596c0 0-0.183-0.184 0.321-1.743 0 0-1.33-0.184-2.202 1.239 0 0-0.505-0.184-0.642 0.321 0-0.001-0.321 0.045-0.459 0.458z"></path>
<path fill="#000" d="M18.903 20.486l-2.019-0.412 0.696-0.173c0.050-0.006 0.090-0.042 0.103-0.089l0-0.001c0.091-0.35 0.528-1.745 1.771-1.985l-0.138-0.138s-1.376-0.046-1.835 1.881l-1.055 0.23v0.779l2.202 0.55z"></path>
<path fill="#000" d="M15.737 28.744s-1.789-2.707 0.275-2.523c0 0 0.459 0 2.202 0.505 0 0 0.551 0.092-0.092-0.642 0 0-0.918-0.78-1.606-1.009 0 0-0.596-0.734 0.78-0.412l0.78 0.138s0.734 0.184 0.918-0.642c0 0 0.138-0.825-1.009-0.734 0 0-0.138 0-0.321 0.138 0 0 0.642-0.918 1.743-0.321 0.175 0.077 0.326 0.169 0.463 0.278l-0.004-0.003 0.549-0.505 0.505-0.092-0.412-1.33s-0.505 0.138-0.184-0.367l1.147-0.229s0.734-0.23 1.009-0.505c0 0 1.286-1.055 2.845-1.009 0 0 0.918-0.046 0.963-0.825 0 0 0.367 0.321 0.734 1.376 0 0 0.046 0.23 0.275 0.23l1.439-0.877 0.283 0.438s-0.528 1.492 0.94 3.694c0 0-1.33 1.468-1.835 2.982l-0.663-1.49-1.218 0.435s-2.799 5.138-10.507 3.303z"></path>
<path fill="#1797e5" stroke="#122a44" stroke-linejoin="miter" stroke-linecap="butt" stroke-miterlimit="10" stroke-width="0.4588" d="M16.838 8.007s-0.092-1.422-0.688-0.688c0 0-1.101-1.743 0.688-4.129 0 0 0.825-0.412 0.55-1.193 0 0 0.138-0.459 1.101-0.688 0 0-0.55-1.193-2.156-0.78 0 0-0.412-0.642-1.239-0.046 0 0-7.753-1.652-11.057 7.432 0 0 3.211-1.101 4.45-0.505 0 0 0.55 0.229 0.367 1.193 0 0 2.431-1.33 3.624 0.412 0 0 1.468-1.56 2.478-1.193 0 0 0.412 0.184 0.642 0.78"></path>
<path fill="#1797e5" d="M17.343 10.485s-1.698-2.064-3.624-0.642c0 0-1.262-0.023-1.812 1.124 0 0-0.092 0.138-0.092 0.229 0 0 0.734 0.184 0.734 1.101 0 0 0.183 0 0.642-1.193 0 0 0.734 0.138 0.825 1.147 0 0 0.184 0.046 0.597-0.275 0 0 0.138-0.78 0.367-0.872 0 0 0.597 0 0.734 1.010 0 0 0.092 0.183 0.918-0.551l1.239 0.138s0.23-0.367-0.527-1.216z"></path>
<path fill="#5dc5f9" d="M18.903 20.211s-0.137 0.688-0.321 0.734l-2.065-0.505s-0.046-0.367 0.138-0.596l0.871-0.124c0.052-0.007 0.093-0.050 0.097-0.102l0-0c0.027-0.359 0.228-1.679 1.693-1.837l-0.097-0.092s-1.417-0.138-1.738 1.606c0 0-0.046 0.229-0.23 0.275l-0.825 0.138s-0.321 0.459-0.092 0.963l2.248 0.596s0.411 0.092 0.319-1.055zM20.738 20.716s-0.412 0.412-0.412 0.78c0 0 2.799-0.092 4.267 0.78l-4.497-0.596s-0.321-0.321 0.642-0.963zM17.526 23.973s0.16-0.561 0.706-0.522c0.095 0.007 0.179 0.050 0.239 0.114l0 0c0.107 0.115 0.248 0.348 0.248 0.774-0 0-0.276-0.963-1.193-0.367zM15.003 23.147s0.16-0.56 0.706-0.522c0.095 0.007 0.179 0.049 0.239 0.114l0 0c0.107 0.115 0.248 0.348 0.248 0.774-0 0-0.276-0.963-1.193-0.367z"></path>
<path fill="#f3f5f7" d="M20.638 21.848s-0.231 0.993 0.839 1.477c0.258 0.118 0.56 0.187 0.878 0.187 0.127 0 0.251-0.011 0.372-0.032l-0.013 0.002c0.514-0.085 1.201-0.356 1.404-1.176z"></path>
<path fill="#f3f5f7" d="M18.306 21.358s0.367 0.551-0.092 1.055c0 0-0.918-0.459-2.156-0.459l0.185-1.147z"></path>
<path fill="#122a44" d="M27.317 12.366s-1.418-0.526-1.234 1.583c0 0 0.161-1.95 1.466-1.218z"></path>
<path fill="#000" d="M14.682 1.125s-0.115 0.619 0.115 0.985c0 0-3.12 1.055-5.505 5.184 0 0-0.55-1.651-3.946-0.321 0 0.001 1.376-5.734 9.336-5.849z"></path>
<path fill="#000" d="M14.888 2.433l0.412 0.412s-2.43 2.57-2.982 4.955c0 0-0.963-0.688-2.523-0.138-0 0 1.606-3.624 5.092-5.23z"></path>
<path fill="#000" d="M15.622 3.213s-1.56 2.019 0 4.45c0 0-1.239-1.101-2.753 0.184 0.001 0 0.918-3.303 2.753-4.634z"></path>
<path fill="#122a44" d="M22.842 22.137s-0.52 0.888 0.432 1.178c0 0 0.705-0.447 0.782-1.019zM17.441 21.127s-0.511 0.644-0.097 0.919l0.872 0.229s0.38-0.623-0.131-0.977z"></path>
<path fill="#fff" d="M23.032 22.918c0 0.127-0.103 0.23-0.23 0.23s-0.23-0.103-0.23-0.23c0-0.127 0.103-0.23 0.23-0.23s0.23 0.103 0.23 0.23z"></path>
<path fill="#fff" d="M17.48 21.587c0 0.127-0.103 0.23-0.23 0.23s-0.23-0.103-0.23-0.23c0-0.127 0.103-0.23 0.23-0.23s0.23 0.103 0.23 0.23z"></path>
<path fill="#122a44" d="M28.621 16.437s-0.635-0.585-1.461 1.204c0 0 1.079-1.124 1.457-1.021zM28.511 15.125s-0.801-1.154-1.305 0.452c0 0 0.248-0.434 0.515-0.614 0.044-0.030 0.099-0.048 0.158-0.048 0.069 0 0.131 0.025 0.18 0.065l-0-0c0.154 0.13 0.386 0.443 0.56 1.198zM26.287 10.866s-1.053 0.17-0.686 1.224c0 0-0.069-1.013 1.067-0.942zM25.033 9.695s-0.699 0.058-0.232 1.151c0.010 0.022 0.015 0.048 0.015 0.075 0 0.066-0.033 0.124-0.084 0.158l-0.001 0c-0.030 0.020-0.066 0.032-0.106 0.032-0.056 0-0.106-0.024-0.141-0.062l-0-0c-0.1-0.11-0.291-0.332-0.472-0.456-0.024-0.017-0.053-0.027-0.085-0.027-0.070 0-0.128 0.048-0.145 0.113l-0 0.001c-0.041 0.176-0.043 0.554 0.119 1.364 0 0-0.602-0.903-0.34-1.55 0.094-0.234 0.379-0.335 0.593-0.201 0.080 0.053 0.149 0.117 0.206 0.19l0.001 0.002s-0.311-1.213 0.67-0.79zM23.497 8.727s-1.092 0.080-0.649 0.868c0.016 0.028 0.036 0.052 0.058 0.073l0 0 0.18 0.165c0.026 0.032 0.042 0.073 0.042 0.118 0 0.035-0.010 0.069-0.027 0.097l0-0.001c-0.033 0.055-0.092 0.090-0.159 0.090-0.012 0-0.024-0.001-0.036-0.003l0.001 0c-0.23-0.045-0.747-0.245-1.056 0.241-0.029 0.044-0.047 0.099-0.047 0.157 0 0.031 0.005 0.061 0.014 0.089l-0.001-0.002c0.046 0.136 0.133 0.248 0.248 0.323l0.002 0.001s-0.734-0.367-0.183-0.918c0 0 0.183-0.229 0.688-0.229 0 0-0.682-1.2 0.622-1.174zM17.892 7.181s1.052-1.009 1.828 0.232c0.031 0.049 0.058 0.105 0.078 0.164l0.002 0.006 0.111 0.333s-0.55-0.046-0.825 0.459l-0.183-0.183s0.092 0.55 0.872 1.33c0 0 0.046-0.367-0.459-0.918 0 0 0.55-0.825 1.147-0.275 0 0 0.275 0.138 0.78 0.964 0 0-0.138-0.78-1.009-1.331 0 0-0.275-1.193-1.147-1.422 0-0.001-0.826-0.184-1.194 0.641zM16.009 0.277s-0.364 0.298-0.043 1.308c0 0-0.412-0.642-0.275-1.33zM16.196 1.905s0.613 0.644 1.247 0.345l-0.035 0.305s-0.982-0.008-1.211-0.65z"></path>
<path fill="#122a44" d="M14.957 1.171s0.183-0.505 0.78-0.825l-0.688 0.046s-0.137 0.182-0.092 0.779zM15.92 2.502s0.321 0.642 1.33-0.092l-0.092 0.642s-1.009 0.184-1.239-0.55z"></path>
<path fill="#000" d="M18.306 1.263s-0.918 0.275-1.055 0.872c0 0-1.285-0.412-1.009-1.514 0.001-0 1.651-0.413 2.065 0.642z"></path>
<path fill="#000" d="M22.343 4.383s0.582 0.65 0.412 1.239c0 0 1.286 0.275 1.56-0.642 0 0-1.099-1.319-1.972-0.597z"></path>
<path fill="#000" d="M25.91 16.799s-0.355 0.918-0.034 1.439c0 0-1.286 0.367-1.881-0.367 0 0 1.009-1.422 1.915-1.072z"></path>
<path fill="#000" d="M22.252 15.669s-0.459 0.872-0.275 1.698c0 0-1.151 0.337-1.66-0.475 0-0.001 0.926-1.636 1.936-1.223z"></path>
<path fill="#000" d="M14.769 16.364s-0.188 0.544 0.097 1.048c0 0-0.607 0.43-1.101 0-0.001 0 0.274-0.826 1.004-1.048z"></path>
<path fill="#000" d="M13.376 16.215s-0.249 0.519-0.024 1.052c0 0-0.651 0.358-1.094-0.125 0 0 0.368-0.789 1.118-0.926z"></path>
<path fill="#000" d="M11.723 12.847s0.261-0.471 0.825-0.596c0 0-0.082-0.853-0.732-0.934 0.001 0-0.416 0.839-0.093 1.53z"></path>
<path fill="#000" d="M13.178 12.674s0.228-0.343 0.793-0.469c0 0-0.115-0.941-0.711-1.032-0.001 0-0.459 0.826-0.082 1.501z"></path>
<path fill="#000" d="M14.829 12.674s0.278-0.504 0.843-0.63c0 0-0.065-0.791-0.715-0.871-0 0-0.451 0.81-0.128 1.501z"></path>
<path fill="#000" d="M11.883 16.678s-0.317 0.422-0.091 0.955c0 0-0.607 0.267-1.048-0.218 0 0.001 0.405-0.783 1.14-0.737z"></path>
<path fill="#122a44" d="M16.304 0.491s-0.247 1.002 1.038 1.644l-0.092 0.138s-1.376-0.412-1.101-1.743zM24.683 4.841s0.138 0.641-0.642 1.102c0 0 0.78-0.229 0.825-0.963z"></path>
<path fill="#000" d="M11.057 28.469s-6.653-3.946-5.001-12.938l-1.789 1.742s-0.321 7.618 6.79 11.195z"></path>
<path fill="#5dc5f9" d="M6.332 13.88s0.412 0.596 0.963 0c0 0-0.482 0.78-0.963 0z"></path>
<path fill="#122a44" d="M24.909 5.137s0.206 0.41 0.056 0.989c0 0 0.229-0.239 0.289-0.834zM22.573 5.944s0.367 0.55 1.193 0.138c0 0-0.825 0.184-1.147-0.275z"></path>
<path fill="#122a44" d="M22.573 6.034s0.138 0.825 1.009 0.734c0 0-0.476 0.284-0.995 0.050zM24.316 4.887s-0.275 1.055-1.651 0.642l-0.046 0.229s1.56 0.459 2.018-0.918zM14.36 29.203s1.363-0.037 1.393 1.312l-0.536-0.081s0.337-0.909-0.856-1.231zM12.204 28.24s1.023 0.5 0.603 1.833l-0.327-0.12s0.366-1.346-0.276-1.714zM7.708 25.304s0.596 1.193-0.734 1.514l-0.275-0.412s1.055 0.274 1.009-1.102zM5.46 23.055s-0.046 0.597-0.918 0.459l0.043-0.258c0.001-0.006 0.006-0.011 0.013-0.011 0.002 0 0.004 0 0.006 0.001l-0-0c0.086 0.041 0.528 0.221 0.857-0.191zM4.452 15.898s-0.368 1.652-1.286 1.239l-0.184 0.367s1.469 0.597 1.469-1.606zM2.937 14.66s0.642 1.33 1.239-0.78c0 0 0.092 1.881-1.193 1.468zM4.038 12.045s-0.092 1.009 1.101 0.596c0 0-1.055 0.995-1.537-0.168zM4.405 10.485s0.321 0.963 1.743-0.459c0 0-1.376 2.019-0.092 2.111 0 0-1.147 0.184-0.642-1.147 0 0-0.533 0.513-1.138-0.042zM5.552 14.43s0.505 0.138 0.734-0.459c0 0 0.275 0.505 0.78 0.229 0 0 0.183-0.092 0.321-0.505 0 0-0.321 0.734-0.825 0.412 0 0-0.275-0.138-0.275-0.551-0.001 0.001-0.139 0.872-0.735 0.872z"></path>
<path fill="#5dc5f9" d="M15.462 1.125s0.321 0.825 0.642 1.193c0 0-0.826-0.275-0.642-1.193zM4.818 7.227s1.698-4.175 4.955-5.368c0 0 2.523-1.055 5.046-0.963 0 0-4.267-0.505-6.836 1.698 0-0.001-2.248 1.697-3.165 4.633zM16.104 3.282s-1.422 1.56-0.275 4.175c0 0-1.652-2.156 0.275-4.175zM23.313 6.383s0.97 0.081 1.544-0.58c0 0-0.375 1.059-1.544 0.58zM25.693 6.126s1.514 1.422 1.286 4.909c-0.001 0 0.779-3.395-1.286-4.909z"></path>
<path fill="#000" d="M19.591 18.101s0.092 0.321 0.505 0.55c0 0-0.642-1.147 0.734-1.193l-0.826-0.597s-0.596 0.551-0.412 1.239z"></path>
<path fill="#7da4b7" d="M5.781 6.769l-0.367 0.138s0.687-2.524 3.21-4.083c0 0 2.248-1.698 6.010-1.652-0.026 0.054-0.043 0.116-0.046 0.182l-0 0.001s-6.881 0-8.808 5.414zM9.911 7.548s1.652-3.533 4.955-5.046l0.091 0.091s-2.523 0.825-4.863 4.909z"></path>
<path fill="#5dc5f9" d="M20.003 16.861c-0.004 0.024-0.007 0.052-0.007 0.080 0 0.109 0.037 0.209 0.1 0.288l-0.001-0.001s-0.551 0.412-0.412 1.055c0 0-0.504-1.055 0.32-1.422z"></path>
<path fill="#7da4b7" d="M15.369 3.511s-1.514 1.239-2.386 4.175l0.184-0.138s0.414-1.835 2.202-4.037z"></path>
<path fill="#122a44" d="M20.233 16.77s0.55 0.825 1.881 0.505l0.184 0.092s-1.33 0.734-2.34-0.55z"></path>
<path fill="#122a44" d="M19.866 16.908s0.321 0.825 1.055 0.918c0 0-0.688 0.046-1.239-0.78z"></path>
<path fill="#000" d="M23.637 17.86s-0.651 1.020-0.376 1.387c0 0 0.046 0.229 0.412 0.321 0 0-0.183-0.642 0.229-1.009 0.195 0.126 0.421 0.249 0.656 0.354l0.032 0.013 0.23-0.367s-0.534-0.022-1.184-0.699z"></path>
<path fill="#122a44" d="M21.289 17.917s1.009 0.046 1.009-0.642l0.183 0.229s-0.092 0.551-1.193 0.413zM19.683 17.091s-0.321 0.459 0 1.193c0 0-0.597-0.55-0.551-0.872z"></path>
<path fill="#122a44" d="M21.564 18.651s1.009 0.367 1.193-0.918l-0.275-0.367s0 1.193-0.918 1.285zM23.536 18.055s-0.459 0.642-0.23 1.285c0 0-0.505-0.275-0.046-1.422zM24.454 19.798s1.737 0.96 2.015-1.217l-0.226-0.297s0 2.019-1.789 1.514z"></path>
<path fill="#000" d="M11.103 17.688s-0.412 1.789 1.698 2.89c0 0-0.734-1.553-0.918-2.918z"></path>
<path fill="#000" d="M12.64 17.32s-0.344 2.111 1.445 3.211l-0.092-0.642s-0.597-1.606-0.505-2.616z"></path>
<path fill="#122a44" d="M24.959 18.972s1.135 0.196 1.279-0.567l-0.086-0.167s-0.092 0.689-1.193 0.734zM23.536 17.825s-0.092 0.412 0.688 0.918c0 0-0.505-0.046-0.825-0.734z"></path>
<path fill="#122a44" d="M23.949 17.735s0.596 0.918 2.018 0.367l0.184 0.321s-1.652 0.78-2.569-0.642z"></path>
<path fill="#5dc5f9" d="M23.766 19.248s0.642 0.321 1.927 0.138c0-0.001-1.239 0.826-1.927-0.138zM20.233 18.101s0.596 0.275 1.881 0.092c-0 0-1.009 0.872-1.881-0.092z"></path>
<path fill="#122a44" d="M10.553 17.55s0.459 0.459 1.376 0.229l0.138-0.688-0.315-0.132s-0.146 0.315-0.098 0.637c0 0-0.55 0.138-0.963-0.23z"></path>
<path fill="#122a44" d="M10.576 17.573s0.046 0.321 0.55 0.367c0 0-0.437 0.069-0.665-0.298zM11.379 17.963s0.459 0.046 0.55-0.275l0.046 0.275c-0.088 0.039-0.19 0.061-0.298 0.061s-0.21-0.023-0.303-0.063l0.005 0.002z"></path>
<path fill="#122a44" d="M12.204 17.183s-0.275 1.147 0.046 1.881c0 0-0.597-0.872-0.275-1.927zM12.296 16.999s0.459 0.412 1.193 0.138v0.137s-0.78 0.412-1.239-0.138z"></path>
<path fill="#122a44" d="M12.158 17.137c0.136 0.206 0.346 0.355 0.59 0.411l0.006 0.001s-0.459 0-0.688-0.275zM13.076 17.55s0.412-0.092 0.412-0.321l0.046 0.229s-0.137 0.138-0.459 0.092z"></path>
<path fill="#122a44" d="M13.489 17.412s-0.459 0.825 0.367 2.065c0 0-0.505-1.376-0.183-2.065z"></path>
<path fill="#122a44" d="M13.72 17.32s0.642 0.412 1.193 0l0.183 0.138s-0.642 0.551-1.468 0.046z"></path>
<path fill="#122a44" d="M13.581 17.504s0.138 0.275 0.734 0.367c0 0-0.459 0.046-0.78-0.138zM14.544 17.825s0.367 0 0.55-0.412l0.138 0.23c-0.159 0.118-0.36 0.189-0.577 0.189-0.039 0-0.078-0.002-0.116-0.007l0.005 0zM14.728 18.192s0.459-0.046 0.597-0.412l0.045 0.229s-0.183 0.229-0.642 0.183zM15.003 11.035s0-0.872 1.376-0.825c0 0-1.743-0.367-1.56 1.055zM15.737 11.403s0.183 0.275 0.092 0.688l0.203-0.062s-0.019-0.489-0.295-0.627zM13.288 11.134s0.247-0.97 1.853-1.108c0 0-1.927-0.046-2.018 1.101z"></path>
<path fill="#000" d="M16.746 10.026s1.147 0.872 1.101 1.606l-1.237-0.138s0.641-0.413 0.136-1.468z"></path>
<path fill="#122a44" d="M13.259 25.808s0.963-1.468 4.175 0.321c0.001-0-2.706-2.431-4.175-0.321z"></path>
<path fill="#5dc5f9" d="M13.259 26.083s0.872-1.376 4.221 0.275c0 0-2.89-2.248-4.221-0.275z"></path>
<path fill="#5dc5f9" d="M18.627 23.055s-3.767-2-5.989 0.55c-0.283 0.325-0.456 0.753-0.456 1.221 0 0.22 0.038 0.431 0.108 0.627l-0.004-0.013c0.402 1.159 1.538 2.971 4.736 3.488 0 0 5.368 1.147 9.084-3.487l0.688-0.642s-3.716 6.468-11.562 3.991c0 0-3.551-1.047-3.396-4.32 0.002-0.031 0.006-0.061 0.014-0.089l-0.001 0.003c0.081-0.319 0.669-2.167 3.476-2.293 0 0 2.477-0.229 3.348 0.872l0.093 0.184c-0.040-0.036-0.085-0.067-0.135-0.090l-0.003-0.001z"></path>
<path fill="#5dc5f9" d="M29.019 19.82s-0.325 1.765 1.145 3.602l-0.159 0.414s-1.193 0.642-1.835 2.845l-0.734-1.422s-0.092-0.138-0.367-0.046l-0.505 0.184 0.046-0.184 0.55-0.229s0.321-0.092 0.459 0.183l0.505 1.055s0.321-1.56 1.743-2.569c0 0-1.285-2.019-1.055-3.533l0.207-0.3z"></path>
<path fill="#122a44" d="M25.784 26.129s1.147-1.376 1.239-1.789c0 0-0.321 1.147-0.825 1.789z"></path>
<path fill="#5dc5f9" d="M27.023 21.45s1.101-0.642 1.698-2.065l0.367-0.092s0.091 1.789-2.065 2.156z"></path>
<path fill="#122a44" d="M28.904 18.972s-0.367 1.652-1.881 2.477c0 0 1.56-0.688 2.248-2.248zM27.528 22.734s1.196 0.939 2.892 0.653v0.442s-1.699 0.052-2.892-1.095z"></path>
<path fill="#fff" opacity="0.63" d="M8.488 15.761l1.514-1.606h-0.092l-1.514 1.606h0.092zM8.121 15.715l1.652-1.606-0.413-0.046-1.606 1.606 0.367 0.046z"></path>
<path fill="#4f1a00" d="M9.084 14.247l1.376 0.275v-0.138l-1.376-0.138zM8.809 15.531l1.514 0.138-0.046 0.138-1.468-0.275zM13.076 13.88l2.064 0.321-0.321 2.615 0.183-0.092 0.321-2.615-2.248-0.229zM15.737 15.027l1.33 0.275-1.377-0.092 0.046-0.183zM15.508 16.357l1.33 0.275-1.33-0.138v-0.138z"></path>
<path fill="#fff" d="M16.058 15.072l2.156 0.321 0.964 1.422-0.872-1.101-0.138 1.285h-0.092l0.092-1.468-2.11-0.459z"></path>
<path fill="#4f1a00" d="M17.801 16.77s0.597 0 0.734 0.642c0 0 0-0.688-0.734-0.642z"></path>
<path fill="#fff" d="M11.332 13.834s-0.183 1.973-0.367 2.707c0 0 0.138-2.065 0.367-2.707z"></path>
<path fill="#fff" d="M12.663 13.696l-1.514-0.138s-0.229 2.202-0.412 3.12c0 0 0.138-2.432 0.321-3.303zM7.8 15.623l0.275-1.56 2.248 0.275-2.386-0.413-0.138 1.698z"></path>
<path fill="#fff" opacity="0.63" d="M15.095 13.421l-0.413 0.413-0.367-0.046 0.413-0.413 0.367 0.046z"></path>
</svg>
