<!-- Generated by IcoMoon.io -->
<svg version="1.1" xmlns="http://www.w3.org/2000/svg" viewBox="0 0 32 32">
<title>drt</title>
<path d="M16.175 13.662h-0.064c-0.080 0-0.128-0.016-0.184 0h-0.056c-0.66 0.029-1.28 0.317-1.727 0.803v0.016c-0.231 0.239-0.405 0.526-0.511 0.84-0.101 0.271-0.154 0.558-0.16 0.848 0.006 1.152 0.788 2.154 1.904 2.439l0.12 0.024c0.168 0.040 0.34 0.058 0.511 0.056 0.16 0 0.32-0.016 0.479-0.048 0.213-0.046 0.42-0.119 0.615-0.216l0.080-0.048c0.024 0 0.040-0.016 0.064-0.032l0.053-0.032 0.048-0.040h0.024l0.064-0.053c0.877-0.601 1.276-1.691 0.997-2.716s-1.176-1.761-2.237-1.835l-0.019-0.005zM25.315 21.557c-1.439 2.511-3.71 4.326-6.501 5.078-0.070 0.018-0.143 0.029-0.216 0.032-0.42-0.002-0.774-0.311-0.83-0.726s0.202-0.809 0.606-0.921l0.048-0.014c0.418-0.143 0.655-0.583 0.545-1.009-0.080-0.361-0.417-0.607-0.798-0.607-0.053-0.002-0.107 0.003-0.16 0.016l-0.056 0.016c-0.069 0.016-0.138 0.024-0.208 0.024-0.381 0.008-0.719-0.247-0.816-0.615-0.054-0.215-0.026-0.442 0.080-0.638 0.119-0.192 0.304-0.335 0.521-0.401 1.067-0.28 2.030-0.864 2.772-1.681 0.719-0.79 1.216-1.756 1.441-2.799v-0.112c0.064-0.433-0.226-0.84-0.655-0.92l-0.16-0.016c-0.361 0.005-0.678 0.24-0.784 0.585l-0.024 0.080v0.048l-0.016 0.024c0.003 0.037-0.002 0.072-0.016 0.106 0 0.018-0.006 0.034-0.016 0.048v0.022c0 0.010-0.006 0.019-0.016 0.024v0.048l-0.016 0.016c-0.508 1.811-2.158 3.062-4.040 3.064-0.37 0-0.737-0.046-1.096-0.136l-0.136-0.032h-0.080c-0.373-0.002-0.7 0.248-0.8 0.607-0.104 0.42 0.128 0.849 0.535 0.992 0.021 0.008 0.042 0.013 0.064 0.016 0.41 0.107 0.678 0.503 0.622 0.923-0.054 0.421-0.415 0.734-0.838 0.732-0.072 0.005-0.146-0.003-0.216-0.024-1.604-0.425-3.021-1.373-4.024-2.695-0.976-1.292-1.516-2.86-1.541-4.479v-0.072c-0.016-0.452-0.391-0.808-0.843-0.798-0.452 0.008-0.814 0.378-0.812 0.83 0.021 4.12 2.811 7.741 6.794 8.797 0.213 0.064 0.394 0.207 0.503 0.401 0.114 0.192 0.143 0.423 0.080 0.638-0.093 0.365-0.423 0.622-0.8 0.623-0.077 0.006-0.152-0.005-0.224-0.032-2.783-0.734-5.155-2.554-6.583-5.052-1.441-2.511-1.84-5.439-1.088-8.224 0.090-0.367 0.418-0.627 0.798-0.623 0.075-0.005 0.152 0.003 0.224 0.024 0.445 0.12 0.713 0.575 0.599 1.024l-0.016 0.056c-0.083 0.429 0.179 0.849 0.603 0.961 0.071 0.022 0.143 0.034 0.216 0.032 0.357 0.005 0.675-0.224 0.784-0.564l0.016-0.064c0.101-0.357 0.428-0.606 0.8-0.607 0.080-0.003 0.162 0.005 0.24 0.024 0.445 0.128 0.707 0.591 0.585 1.040-0.29 1.064-0.263 2.191 0.080 3.24 0.314 1.022 0.907 1.936 1.711 2.639v0.016l0.048 0.032 0.016 0.016c0.144 0.114 0.322 0.175 0.505 0.176 0.244-0.002 0.476-0.106 0.638-0.288 0.256-0.303 0.263-0.745 0.016-1.056l-0.048-0.048c-0.918-0.748-1.476-1.851-1.537-3.033s0.381-2.336 1.218-3.174l0.128-0.128c0.207-0.332 0.16-0.76-0.112-1.040-0.157-0.155-0.37-0.242-0.591-0.239-0.197 0.002-0.386 0.072-0.537 0.2h-0.024c0 0.016-0.024 0.024-0.032 0.032-0.239 0.239-0.599 0.311-0.912 0.181s-0.516-0.436-0.516-0.774c-0.005-0.224 0.082-0.441 0.237-0.601 2.383-2.372 6.049-2.875 8.981-1.231l0.032 0.024h0.016l0.024 0.016c0.115 0.072 0.248 0.109 0.385 0.106 0.298-0.003 0.572-0.165 0.719-0.425 0.107-0.191 0.135-0.417 0.074-0.627-0.059-0.21-0.202-0.388-0.393-0.494-1.359-0.798-2.936-1.2-4.527-1.2-2.465 0-4.759 0.944-6.479 2.671-0.163 0.157-0.381 0.244-0.607 0.24-0.221 0.003-0.434-0.083-0.591-0.24-0.157-0.16-0.244-0.377-0.24-0.599-0.003-0.221 0.083-0.434 0.24-0.591 4.238-4.227 11.1-4.224 15.333 0.008 0.157 0.16 0.244 0.377 0.24 0.599 0.005 0.221-0.082 0.436-0.24 0.591-0.33 0.32-0.854 0.32-1.184 0l-0.048-0.040c-0.155-0.136-0.354-0.21-0.561-0.208-0.216 0-0.423 0.087-0.575 0.24-0.319 0.304-0.319 0.8-0.024 1.136l0.024 0.032c0.32 0.33 0.32 0.854 0 1.184-0.16 0.157-0.377 0.245-0.601 0.242-0.221 0.003-0.436-0.083-0.591-0.24-1.572-1.574-3.905-2.11-6.006-1.381h-0.024l-0.064 0.032c-0.405 0.168-0.611 0.622-0.468 1.035 0.123 0.325 0.436 0.542 0.784 0.543h0.136l0.016-0.016h0.024c0.47-0.181 0.969-0.274 1.473-0.271 0.917 0.002 1.808 0.304 2.535 0.864 0.716 0.551 1.237 1.316 1.489 2.184l0.016 0.032v0.040l0.032 0.080c0.117 0.319 0.42 0.532 0.76 0.535 0.074 0.006 0.147-0.005 0.216-0.032 0.421-0.114 0.683-0.532 0.602-0.961l-0.016-0.048c-0.119-0.45 0.144-0.912 0.591-1.040l0.216-0.024c0.375 0 0.719 0.24 0.8 0.615 0.441 1.615 0.319 3.279-0.319 4.831-0.619 1.49-1.699 2.745-3.083 3.577l-0.040 0.024h-0.013c0 0.016-0.016 0.016-0.016 0.024h-0.016c-0.308 0.202-0.445 0.582-0.338 0.934s0.434 0.591 0.803 0.586c0.141 0.003 0.28-0.037 0.399-0.112 3.561-2.080 5.304-6.318 4.24-10.286-0.063-0.215-0.034-0.445 0.080-0.638 0.114-0.194 0.296-0.336 0.513-0.401 0.080 0 0.144-0.024 0.216-0.024 0.381 0.005 0.71 0.268 0.798 0.638 0.753 2.775 0.364 5.738-1.082 8.224v0 0zM4.677 4.685c-6.237 6.241-6.237 16.377 0 22.623 6.254 6.24 16.381 6.24 22.637 0 6.241-6.24 6.241-16.373 0.005-22.623-6.257-6.237-16.385-6.237-22.642 0v0z"></path>
</svg>
