<!-- Generated by IcoMoon.io -->
<svg version="1.1" xmlns="http://www.w3.org/2000/svg" viewBox="0 0 32 32">
<title>egld</title>
<path d="M25.575 6.35c-0.125-0.125-0.2-0.25-0.2-0.425s0.075-0.3 0.2-0.425c0.25-0.225 0.65-0.225 0.925 0 0.125 0.125 0.2 0.25 0.2 0.425s-0.075 0.3-0.2 0.425c-0.125 0.1-0.3 0.175-0.45 0.175-0.175 0.025-0.35-0.025-0.475-0.175z"></path>
<path d="M23.975 8.075c-0.1-0.125-0.175-0.25-0.175-0.425s0.075-0.3 0.175-0.425c0.225-0.225 0.625-0.225 0.85 0 0.1 0.125 0.175 0.25 0.175 0.425s-0.075 0.3-0.175 0.425c-0.125 0.1-0.25 0.175-0.425 0.175s-0.3-0.075-0.425-0.175z"></path>
<path d="M22.225 9.725c-0.1-0.1-0.175-0.25-0.175-0.425s0.075-0.3 0.175-0.425c0.225-0.225 0.625-0.225 0.85 0 0.1 0.1 0.175 0.25 0.175 0.425s-0.075 0.3-0.175 0.425c-0.125 0.125-0.25 0.175-0.425 0.175s-0.325-0.075-0.425-0.175z"></path>
<path d="M20.55 11.4c-0.125-0.1-0.2-0.25-0.2-0.425s0.075-0.3 0.2-0.425c0.25-0.225 0.65-0.225 0.925 0 0.125 0.1 0.2 0.25 0.2 0.425s-0.075 0.325-0.2 0.425c-0.125 0.125-0.3 0.175-0.45 0.175-0.175 0-0.325-0.025-0.475-0.175z"></path>
<path d="M18.95 13.075c-0.125-0.1-0.175-0.25-0.175-0.425s0.075-0.3 0.175-0.425c0.225-0.225 0.625-0.225 0.85 0 0.125 0.1 0.175 0.25 0.175 0.425s-0.075 0.325-0.175 0.425c-0.1 0.125-0.25 0.175-0.425 0.175-0.15 0.025-0.325-0.025-0.425-0.175z"></path>
<path d="M17.025 14.325c0-0.175 0.075-0.3 0.175-0.425 0.225-0.225 0.625-0.225 0.85 0 0.125 0.125 0.175 0.25 0.175 0.425s-0.075 0.3-0.175 0.425c-0.1 0.1-0.25 0.175-0.425 0.175s-0.3-0.075-0.425-0.175c-0.125-0.1-0.175-0.25-0.175-0.425z"></path>
<path d="M13.9 18.025c-0.1-0.1-0.175-0.25-0.175-0.425s0.075-0.3 0.175-0.425c0.225-0.225 0.625-0.225 0.85 0 0.125 0.125 0.175 0.25 0.175 0.425s-0.075 0.3-0.175 0.425c-0.1 0.125-0.25 0.175-0.425 0.175-0.15 0.025-0.3-0.025-0.425-0.175z"></path>
<path d="M12.175 19.7c-0.125-0.1-0.2-0.25-0.2-0.425s0.075-0.3 0.2-0.425c0.25-0.225 0.65-0.225 0.925 0 0.125 0.125 0.2 0.25 0.2 0.425s-0.075 0.3-0.2 0.425c-0.125 0.125-0.3 0.175-0.45 0.175-0.2 0.025-0.35-0.050-0.475-0.175z"></path>
<path d="M10.55 21.4c-0.1-0.1-0.175-0.25-0.175-0.425s0.075-0.325 0.175-0.425c0.225-0.225 0.625-0.225 0.85 0 0.1 0.1 0.175 0.25 0.175 0.425s-0.075 0.3-0.175 0.425c-0.125 0.125-0.25 0.175-0.425 0.175s-0.275-0.075-0.425-0.175z"></path>
<path d="M8.875 23.075c-0.125-0.1-0.175-0.25-0.175-0.425s0.075-0.3 0.175-0.425c0.225-0.225 0.625-0.225 0.85 0 0.1 0.125 0.175 0.25 0.175 0.425s-0.075 0.325-0.175 0.425c-0.125 0.125-0.25 0.175-0.425 0.175-0.15 0-0.325-0.050-0.425-0.175z"></path>
<path d="M7.15 24.75c-0.125-0.1-0.2-0.25-0.2-0.425s0.075-0.3 0.2-0.425c0.25-0.225 0.65-0.225 0.875 0 0.125 0.125 0.2 0.25 0.2 0.425s-0.075 0.325-0.2 0.425c-0.125 0.1-0.3 0.175-0.45 0.175-0.175 0-0.325-0.050-0.425-0.175z"></path>
<path d="M5.5 26.425c-0.125-0.125-0.175-0.25-0.175-0.425s0.075-0.3 0.175-0.425c0.225-0.225 0.625-0.225 0.85 0 0.125 0.125 0.175 0.25 0.175 0.425s-0.075 0.3-0.175 0.425c-0.1 0.1-0.25 0.175-0.425 0.175-0.125 0.025-0.275-0.050-0.425-0.175z"></path>
<path d="M6.35 6.35c0.1-0.125 0.175-0.25 0.175-0.425s-0.075-0.3-0.175-0.425c-0.225-0.225-0.625-0.225-0.85 0-0.125 0.125-0.175 0.25-0.175 0.425s0.075 0.3 0.175 0.425c0.1 0.1 0.25 0.175 0.425 0.175 0.175 0.025 0.325-0.025 0.425-0.175z"></path>
<path d="M8.025 8.075c0.125-0.125 0.2-0.25 0.2-0.425s-0.075-0.3-0.2-0.425c-0.25-0.225-0.65-0.225-0.925 0-0.125 0.125-0.2 0.25-0.2 0.425s0.075 0.3 0.2 0.425c0.125 0.1 0.3 0.175 0.45 0.175 0.175-0.025 0.35-0.075 0.475-0.175z"></path>
<path d="M9.725 9.725c0.1-0.1 0.175-0.25 0.175-0.425s-0.075-0.3-0.175-0.425c-0.225-0.225-0.625-0.225-0.85 0-0.1 0.1-0.175 0.25-0.175 0.425s0.075 0.3 0.175 0.425c0.125 0.125 0.25 0.175 0.425 0.175 0.15 0 0.3-0.075 0.425-0.175z"></path>
<path d="M11.4 11.4c0.1-0.1 0.175-0.25 0.175-0.425s-0.075-0.3-0.175-0.425c-0.225-0.225-0.625-0.225-0.85 0-0.1 0.1-0.175 0.25-0.175 0.425s0.075 0.325 0.175 0.425c0.125 0.125 0.25 0.175 0.425 0.175 0.15 0 0.3-0.025 0.425-0.175z"></path>
<path d="M13.050 13.075c0.125-0.1 0.2-0.25 0.2-0.425s-0.075-0.3-0.2-0.425c-0.225-0.225-0.65-0.225-0.875 0-0.125 0.1-0.2 0.25-0.2 0.425s0.075 0.325 0.2 0.425c0.125 0.125 0.3 0.175 0.45 0.175 0.15 0.025 0.325-0.025 0.425-0.175z"></path>
<path d="M14.925 14.325c0-0.175-0.075-0.3-0.175-0.425-0.225-0.225-0.625-0.225-0.85 0-0.125 0.125-0.175 0.25-0.175 0.425s0.075 0.3 0.175 0.425c0.1 0.1 0.25 0.175 0.425 0.175s0.3-0.075 0.425-0.175c0.125-0.1 0.175-0.25 0.175-0.425z"></path>
<path d="M16.425 16.45c0.125-0.125 0.175-0.25 0.175-0.425s-0.075-0.3-0.175-0.425c-0.225-0.225-0.625-0.225-0.85 0-0.125 0.125-0.175 0.25-0.175 0.425s0.075 0.3 0.175 0.425c0.1 0.1 0.25 0.175 0.425 0.175s0.325-0.075 0.425-0.175z"></path>
<path d="M18.1 18.025c0.125-0.1 0.2-0.25 0.2-0.425s-0.075-0.3-0.2-0.425c-0.25-0.225-0.65-0.225-0.875 0-0.125 0.125-0.2 0.25-0.2 0.425s0.075 0.3 0.2 0.425c0.125 0.125 0.3 0.175 0.45 0.175 0.125 0.025 0.3-0.025 0.425-0.175z"></path>
<path d="M19.8 19.7c0.1-0.1 0.175-0.25 0.175-0.425s-0.075-0.3-0.175-0.425c-0.225-0.225-0.625-0.225-0.85 0-0.1 0.125-0.175 0.25-0.175 0.425s0.075 0.3 0.175 0.425c0.125 0.125 0.25 0.175 0.425 0.175 0.125 0.025 0.3-0.050 0.425-0.175z"></path>
<path d="M21.475 21.4c0.1-0.1 0.175-0.25 0.175-0.425s-0.075-0.325-0.175-0.425c-0.225-0.225-0.625-0.225-0.85 0-0.1 0.1-0.175 0.25-0.175 0.425s0.075 0.3 0.175 0.425c0.125 0.125 0.25 0.175 0.425 0.175s0.3-0.075 0.425-0.175z"></path>
<path d="M23.050 23.075c0.125-0.1 0.175-0.25 0.175-0.425s-0.075-0.3-0.175-0.425c-0.225-0.225-0.625-0.225-0.85 0-0.1 0.125-0.175 0.25-0.175 0.425s0.075 0.325 0.175 0.425c0.125 0.125 0.25 0.175 0.425 0.175 0.15 0 0.325-0.050 0.425-0.175z"></path>
<path d="M24.825 24.75c0.125-0.1 0.175-0.25 0.175-0.425s-0.075-0.3-0.175-0.425c-0.225-0.225-0.625-0.225-0.85 0-0.125 0.125-0.175 0.25-0.175 0.425s0.075 0.325 0.175 0.425c0.1 0.1 0.25 0.175 0.425 0.175s0.325-0.050 0.425-0.175z"></path>
<path d="M26.5 26.425c0.125-0.125 0.2-0.25 0.2-0.425s-0.075-0.3-0.2-0.425c-0.25-0.225-0.65-0.225-0.875 0-0.125 0.125-0.2 0.25-0.2 0.425s0.075 0.3 0.2 0.425c0.125 0.1 0.3 0.175 0.45 0.175 0.125 0.025 0.275-0.050 0.425-0.175z"></path>
<path d="M10.325 6.825c1.7-1.125 3.575-1.65 5.65-1.675 2.025 0 3.9 0.55 5.65 1.675l3.6-3.6c-2.825-2.15-5.875-3.225-9.25-3.225s-6.475 1.075-9.225 3.225l3.575 3.6z"></path>
<path d="M6.725 21.6c-1.15-1.75-1.7-3.6-1.7-5.6 0-2.025 0.55-3.9 1.7-5.6l-3.575-3.575c-2.1 2.75-3.15 5.8-3.15 9.2 0 3.35 1.050 6.425 3.175 9.225l3.55-3.65z"></path>
<path d="M21.6 25.175c-1.7 1.15-3.575 1.75-5.6 1.775-2.075 0-3.975-0.55-5.675-1.75l-3.6 3.575c2.775 2.175 5.875 3.25 9.275 3.225 3.375-0.025 6.425-1.125 9.175-3.225l-3.575-3.6z"></path>
<path d="M25.125 10.35c1.15 1.75 1.75 3.65 1.7 5.7-0.025 2-0.6 3.825-1.7 5.5l3.6 3.575c2.125-2.75 3.225-5.8 3.225-9.15 0.025-3.4-1.050-6.5-3.225-9.275l-3.6 3.65z"></path>
<path d="M28.875 26.3c1.375 0 2.525 1.125 2.525 2.525 0 1.375-1.125 2.525-2.525 2.525-1.375 0-2.525-1.125-2.525-2.525s1.125-2.525 2.525-2.525z"></path>
<path d="M3.125 26.3c1.375 0 2.5 1.125 2.5 2.525 0 1.375-1.125 2.525-2.5 2.525s-2.5-1.125-2.5-2.525 1.125-2.525 2.5-2.525z"></path>
<path d="M28.925 0.55c1.375 0 2.5 1.125 2.5 2.525s-1.125 2.525-2.5 2.525c-1.375 0-2.5-1.125-2.5-2.525s1.125-2.525 2.5-2.525z"></path>
<path d="M3.075 0.55c1.375 0 2.525 1.125 2.525 2.5s-1.125 2.5-2.525 2.5c-1.375 0-2.525-1.125-2.525-2.5s1.125-2.5 2.525-2.5z"></path>
</svg>
