<!-- Generated by IcoMoon.io -->
<svg version="1.1" xmlns="http://www.w3.org/2000/svg" viewBox="0 0 32 32">
<title>egt</title>
<path fill="#fff" d="M31.761 16.031c0 8.073-7.033 14.618-15.709 14.618s-15.709-6.545-15.709-14.618c0-8.073 7.033-14.618 15.709-14.618s15.709 6.545 15.709 14.618z"></path>
<path fill="#f6be1d" d="M16 0c-8.842 0-16 7.158-16 16s7.158 16 16 16 16-7.158 16-16-7.158-16-16-16zM16.322 29.787c-7.491 0-13.569-6.078-13.569-13.569s6.078-13.569 13.569-13.569 13.569 6.078 13.569 13.569-6.078 13.569-13.569 13.569z"></path>
<path fill="#f6be1d" d="M29.091 16.229c0 7.046-5.712 12.758-12.758 12.758s-12.758-5.712-12.758-12.758c0-7.046 5.712-12.758 12.758-12.758s12.758 5.712 12.758 12.758z"></path>
<path fill="#fdfffa" d="M7.325 23.616c-0.374-2.265 0.26-4.021 0.571-4.852 1.039-2.774 2.992-4.364 3.969-5.039 1.486-1.029 2.94-1.486 3.896-1.694 0.187-0.042 0.384-0.094 0.571-0.145 0.706-0.208 1.61-0.499 2.649-0.883 1.257-0.468 1.932-0.717 2.784-1.195 1.153-0.644 1.922-1.299 2.649-1.922 0.748-0.644 1.704-1.558 2.681-2.774-0.135 0.914-0.426 2.234-1.070 3.709-0.405 0.904-0.769 1.735-1.527 2.618-1.538 1.797-3.574 2.514-4.468 2.826-0.052 0.021-0.010 0-2.213 0.727-0.27 0.083-1.434 0.468-1.694 0.561-0.997 0.322-3.325 1.226-5.195 3.543-2.587 3.21-2.452 6.816-2.39 7.709-0.426-0.655-0.977-1.745-1.216-3.19zM16.052 18.909c1.247-0.125 2.39-0.125 3.377-0.073 0.603-0.052 1.725-0.249 2.732-1.070 1.018-0.831 1.403-1.86 1.714-2.681 0.416-1.112 0.509-2.088 0.519-2.732-0.332 0.322-0.842 0.758-1.527 1.174-0.634 0.395-1.153 0.603-1.943 0.914-0.561 0.229-1.319 0.509-2.255 0.779-1.849 0.571-3.304 1.226-4.343 1.766-1.143 0.582-2.026 1.153-2.597 2.192-0.145 0.27-0.239 0.499-0.291 0.665 1.247-0.395 2.805-0.758 4.613-0.935zM11.46 22.338c0.374-0.062 0.831-0.104 2.649 0.083 0.478 0.052 0.925 0.104 1.319 0.156 1.205 0.156 2.431-0.062 3.491-0.675 0.384-0.218 0.769-0.499 1.132-0.873 0.665-0.665 1.018-1.371 1.216-1.87-0.603 0.104-1.288 0.197-2.047 0.229-0.457 0.021-0.893 0.021-1.299 0-1.662-0.062-2.992 0.187-3.875 0.416-1.486 0.384-3.273 0.842-4.156 2.369-0.208 0.364-0.322 0.706-0.384 0.935 0.779-0.478 1.465-0.686 1.953-0.769zM9.953 25.143c0.145-0.021 0.291-0.031 0.416-0.042 0.405-0.010 0.81 0.042 1.205 0.156 0.436 0.125 0.914 0.239 1.434 0.332 0.312 0.052 0.613 0.093 0.904 0.125 0.468 0.052 0.935 0.021 1.392-0.083 0.301-0.073 0.623-0.187 0.956-0.364 1.33-0.727 1.808-1.974 1.922-2.306-0.208 0.166-0.53 0.384-0.956 0.551-0.603 0.239-1.112 0.249-1.642 0.26-0.374 0.010-0.862-0.010-1.444-0.125-0.177-0.031-0.343-0.083-0.509-0.125-1.6-0.447-3.169-0.187-4.083 0.769-0.218 0.229-0.499 0.592-0.675 1.164 0.27-0.114 0.634-0.249 1.081-0.312z"></path>
</svg>
