<!-- Generated by IcoMoon.io -->
<svg version="1.1" xmlns="http://www.w3.org/2000/svg" viewBox="0 0 32 32">
<title>ela</title>
<path fill="#2a3d58" d="M16.005 16.612l8.002-4.62-8.002-4.648v9.268z"></path>
<path fill="#0f2631" d="M16.005 16.612l-8.003-4.62 8.003-4.648v9.268z"></path>
<path fill="#0f2631" d="M24.008 2.723l-8.002 4.62 8.002 4.648v-9.268z"></path>
<path fill="#2a3d58" d="M24.008 2.723l8.003 4.62-8.003 4.648v-9.268z"></path>
<path fill="#0f2631" d="M8.002 2.723l-8.002 4.62 8.002 4.648v-9.268z"></path>
<path fill="#2a3d58" d="M8.002 2.723l8.003 4.62-8.003 4.648v-9.268z"></path>
<path fill="#2a3d58" d="M16.005 29.355l8.002-4.62-8.002-4.648v9.268z"></path>
<path fill="#0f2631" d="M16.005 29.355l-8.003-4.62 8.003-4.648v9.268z"></path>
<path fill="#0f2631" d="M24.008 15.467l-8.002 4.62 8.002 4.648v-9.268z"></path>
<path fill="#2a3d58" d="M24.008 15.467l8.003 4.62-8.003 4.648v-9.268z"></path>
<path fill="#0f2631" d="M8.002 15.467l-8.002 4.62 8.002 4.648v-9.268z"></path>
<path fill="#2a3d58" d="M8.002 15.467l8.003 4.62-8.003 4.648v-9.268z"></path>
</svg>
