<!-- Generated by IcoMoon.io -->
<svg version="1.1" xmlns="http://www.w3.org/2000/svg" viewBox="0 0 32 32">
<title>elf</title>
<path fill="#2b5eba" d="M32 15.992c0 3.702-3.001 6.703-6.703 6.703s-6.703-3.001-6.703-6.703c0-3.702 3.001-6.703 6.703-6.703s6.703 3.001 6.703 6.703z"></path>
<path fill="#2b5eba" d="M20.060 3.542c0 1.785-1.447 3.232-3.232 3.232s-3.232-1.447-3.232-3.232c0-1.785 1.447-3.232 3.232-3.232s3.232 1.447 3.232 3.232z"></path>
<path fill="#2b5eba" d="M20.060 28.458c0 1.785-1.447 3.232-3.232 3.232s-3.232-1.447-3.232-3.232c0-1.785 1.447-3.232 3.232-3.232s3.232 1.447 3.232 3.232z"></path>
<path fill="#2b5eba" d="M15.347 20.832c0.191 0.064 0.398 0.096 0.605 0.096 1.114 0 2.022-0.907 2.022-2.022s-0.907-2.022-2.022-2.022c-0.716 0-1.337 0.366-1.703 0.923v0.016c-0.064 0.080-0.111 0.175-0.143 0.271-2.229 3.932-6.702 1.305-6.702 1.305-0.732-0.43-1.576-0.685-2.5-0.685-2.691 0-4.872 2.181-4.872 4.872s2.181 4.872 4.872 4.872c1.879 0 3.518-1.067 4.314-2.627v-0.016c0.143-0.271 0.255-0.557 0.35-0.86 2.324-5.333 5.779-4.123 5.779-4.123zM14.201 13.684c0.096 0.175 0.223 0.35 0.366 0.494 0.796 0.796 2.070 0.796 2.85 0 0.796-0.796 0.796-2.070 0-2.85-0.509-0.509-1.21-0.685-1.847-0.541h-0.016c-0.096 0.016-0.207 0.048-0.303 0.096-4.362 1.21-5.668-3.821-5.668-3.821-0.207-0.828-0.637-1.608-1.274-2.245-1.91-1.91-4.983-1.91-6.878-0.016s-1.91 4.983 0 6.878c1.337 1.337 3.232 1.735 4.919 1.194h0.016c0.287-0.096 0.573-0.223 0.86-0.366 5.397-2.133 6.973 1.178 6.973 1.178z"></path>
</svg>
