<!-- Generated by IcoMoon.io -->
<svg version="1.1" xmlns="http://www.w3.org/2000/svg" viewBox="0 0 32 32">
<title>emc2</title>
<path fill="#0175b0" d="M3.024 20.928l-3.024 5.968h7.040l3.024-5.968h-7.040zM7.040 13.008l-3.024 5.968h7.040l3.024-5.968h-7.040zM11.056 5.104l-3.024 5.968h7.024l3.024-5.968h-7.024z"></path>
<path fill="#00a2d0" d="M10.048 20.912l-3.040 5.984h7.040l3.024-5.984h-7.024zM14.048 13.008l-3.024 5.968h7.040l3.024-5.968h-7.040zM18.064 5.104l-3.024 5.952h7.040l3.024-5.952h-7.040z"></path>
<path fill="#0cf" d="M16.944 20.912l-3.024 5.984h7.024l3.040-5.984h-7.040zM20.96 13.008l-3.024 5.968h7.040l3.008-5.968h-7.024zM24.96 5.104l-3.024 5.952h7.040l3.024-5.952h-7.040z"></path>
</svg>
