<!-- Generated by IcoMoon.io -->
<svg version="1.1" xmlns="http://www.w3.org/2000/svg" viewBox="0 0 28 32">
<title>eng</title>
<path fill="#ea259e" d="M14.016 8.218l6.515 3.93-6.515 3.725-6.81-3.725z"></path>
<path fill="#014c99" d="M7.206 12.288l6.81 3.712-0.038 7.578-6.771-3.584z"></path>
<path fill="#08b0f9" d="M14.016 16l6.592-3.712 0.192 7.706-6.694 3.725z"></path>
<path fill="#2f2f2f" d="M27.558 7.744l-0.102-0.064-13.402-7.68-0.077 0.038c-0.145 0.052-0.268 0.108-0.384 0.173l0.013-0.007-13.286 7.77c-0.307 0.141-0.294 0.461-0.294 0.653v0.141l-0.013 10.906-0.013 4.045c-0.013 0.243 0.090 0.461 0.269 0.538l13.44 7.642c0.102 0.064 0.218 0.102 0.32 0.102 0.005 0 0.011 0 0.017 0 0.086 0 0.165-0.029 0.227-0.078l-0.001 0.001 13.363-7.693c0.23-0.102 0.371-0.333 0.333-0.55l0.026-15.322c0.038-0.358-0.256-0.525-0.435-0.614zM14.003 8.717l5.952 3.456-5.939 3.418-2.022-1.139-3.994-2.266 6.003-3.469zM20.762 11.699l-6.451-3.75c-0.084-0.062-0.189-0.1-0.303-0.1-0.106 0-0.205 0.032-0.287 0.088l0.002-0.001-6.528 3.789-5.939-3.366 12.762-7.45 12.762 7.322-6.016 3.469zM0.845 9.062l5.914 3.354 0.115 7.373c-0.013 0.23 0.102 0.435 0.282 0.525l6.451 3.699v6.899l-12.787-7.27zM7.578 12.877l6.042 3.418-0.013 6.784-5.914-3.392zM14.426 24.026l2.522-1.459 3.93-2.253c0.077-0.038 0.166-0.102 0.23-0.192l0.038-0.051v-0.064l-0.013-4.89v-2.688l6.042-3.494v5.952l-0.013 8.678-12.749 7.334 0.013-6.874zM14.426 23.091v-6.797l5.952-3.43v6.81l-5.952 3.418z"></path>
<path fill="#2f2f2f" d="M13.837 1.702c-0.179 0.026-0.333 0.141-0.41 0.294-0.077 0.179-0.064 0.371 0.026 0.499 0.102 0.154 0.269 0.243 0.461 0.243 0.039-0.003 0.074-0.007 0.108-0.014l-0.006 0.001c0.218-0.026 0.384-0.179 0.422-0.371 0.014-0.044 0.023-0.095 0.023-0.147 0-0.132-0.053-0.252-0.138-0.339l0 0c-0.097-0.108-0.236-0.175-0.391-0.175-0.034 0-0.066 0.003-0.098 0.009l0.003-0.001zM14.182 3.942c-0.192-0.102-0.41-0.090-0.563 0.013-0.141 0.077-0.23 0.23-0.256 0.397-0.013 0.179 0.064 0.333 0.166 0.422 0.092 0.087 0.216 0.141 0.353 0.141 0.006 0 0.013-0 0.019-0l-0.001 0c0.084-0.001 0.163-0.020 0.234-0.053l-0.004 0.002c0.205-0.077 0.32-0.269 0.32-0.461 0.013-0.179-0.102-0.358-0.269-0.461zM14.195 6.144c-0.179-0.115-0.397-0.115-0.563-0.026-0.154 0.077-0.256 0.23-0.269 0.41s0.064 0.371 0.205 0.461c0.086 0.064 0.195 0.103 0.312 0.103 0.007 0 0.015-0 0.022-0l-0.001 0c0.084-0.001 0.163-0.020 0.234-0.053l-0.004 0.002c0.185-0.076 0.314-0.255 0.314-0.464 0-0.184-0.099-0.345-0.248-0.431l-0.002-0.001zM5.504 20.493c-0.192 0.051-0.333 0.205-0.371 0.397-0.038 0.205 0.026 0.397 0.166 0.512 0.083 0.072 0.191 0.115 0.31 0.115 0.004 0 0.007-0 0.011-0h-0.001c0.001 0 0.002 0 0.003 0 0.040 0 0.079-0.005 0.116-0.014l-0.003 0.001c0.166-0.038 0.307-0.154 0.358-0.294 0.090-0.179 0.064-0.397-0.090-0.563-0.088-0.106-0.219-0.173-0.366-0.173-0.048 0-0.093 0.007-0.137 0.020l0.003-0.001zM22.042 21.53c0.047-0.002 0.090-0.012 0.131-0.027l-0.003 0.001c0.166-0.038 0.307-0.154 0.346-0.282 0.090-0.192 0.051-0.422-0.090-0.589-0.092-0.102-0.224-0.165-0.371-0.165-0.055 0-0.108 0.009-0.157 0.025l0.004-0.001c-0.179 0.051-0.32 0.205-0.358 0.397-0.038 0.205 0.038 0.397 0.179 0.512 0.077 0.090 0.192 0.128 0.32 0.128zM3.635 21.594c-0.192 0.064-0.32 0.243-0.333 0.448-0.026 0.218 0.077 0.422 0.243 0.512 0.072 0.047 0.161 0.076 0.256 0.077h0c0.079-0.002 0.154-0.020 0.221-0.053l-0.003 0.001c0.166-0.077 0.282-0.23 0.294-0.371 0.038-0.192-0.038-0.397-0.192-0.525-0.082-0.076-0.192-0.123-0.314-0.123-0.062 0-0.122 0.012-0.176 0.035l0.003-0.001zM23.859 22.618c0.006 0 0.013 0 0.020 0 0.057 0 0.112-0.010 0.163-0.027l-0.003 0.001c0.179-0.064 0.307-0.218 0.32-0.371 0.051-0.192 0-0.384-0.154-0.525-0.087-0.084-0.206-0.135-0.337-0.135-0.063 0-0.123 0.012-0.179 0.034l0.003-0.001c-0.201 0.085-0.34 0.281-0.34 0.509 0 0.164 0.072 0.312 0.186 0.412l0.001 0c0.085 0.064 0.191 0.103 0.307 0.103 0.004 0 0.009-0 0.013-0h-0.001zM2.227 22.733c-0.154-0.090-0.346-0.090-0.486 0-0.166 0.090-0.269 0.256-0.269 0.461s0.102 0.384 0.269 0.461c0.066 0.040 0.145 0.064 0.23 0.064h0c0.002 0 0.005 0 0.008 0 0.101 0 0.196-0.029 0.276-0.078l-0.002 0.001c0.166-0.115 0.256-0.307 0.243-0.474 0-0.179-0.102-0.346-0.269-0.448zM25.382 23.603c0.081 0.072 0.188 0.115 0.305 0.115 0.001 0 0.002 0 0.003 0h-0c0.069 0 0.135-0.014 0.195-0.040l-0.003 0.001c0.179-0.077 0.307-0.256 0.32-0.41 0.038-0.205-0.051-0.41-0.23-0.525-0.166-0.115-0.371-0.115-0.525-0.013-0.148 0.092-0.248 0.251-0.256 0.434l-0 0.001c-0.013 0.179 0.064 0.346 0.192 0.435z"></path>
</svg>
