<!-- Generated by IcoMoon.io -->
<svg version="1.1" xmlns="http://www.w3.org/2000/svg" viewBox="0 0 32 32">
<title>enj</title>
<path fill="#7866d5" d="M32.023 16.011c0 8.843-7.169 16.011-16.011 16.011s-16.011-7.169-16.011-16.011c0-8.843 7.168-16.011 16.011-16.011s16.011 7.168 16.011 16.011z"></path>
<path fill="#fff" d="M22.493 8.22c0.542 0.068 1.107 0.113 1.649 0.203 1.061 0.203 1.423 0.745 1.242 1.829-0.045 0.406-0.361 0.723-0.768 0.79-0.248 0.045-0.519 0.068-0.768 0.045-3.523 0-7.023 0.023-10.546 0.023-0.519 0-1.061 0.045-1.581 0.136-1.739 0.271-2.416 0.994-2.552 2.755-0.068 0.813-0.068 0.813 0.768 0.813h14.001c0.136 0 0.271 0 0.407 0 0.226 0 0.429 0.068 0.632 0.181 0.632 0.406 0.474 1.061 0.452 1.649-0.023 0.474-0.316 0.745-0.813 0.836-0.203 0.045-0.407 0.045-0.632 0.045-4.788 0-9.575 0-14.363 0-0.519 0-0.519 0-0.474 0.519 0.023 0.474 0.068 0.948 0.181 1.423 0.226 0.858 0.745 1.4 1.626 1.649 0.948 0.271 1.942 0.316 2.913 0.339 3.41 0 6.843 0 10.275 0 0.429 0 0.836 0.045 1.107 0.452 0.429 0.677 0.203 1.558-0.474 1.987-0.090 0.068-0.181 0.113-0.294 0.136-0.745 0.248-1.513 0.294-2.303 0.316-3.229 0.068-6.436 0.068-9.643 0-0.994-0.023-1.987-0.136-2.958-0.339-2.281-0.474-3.433-1.649-3.816-3.952-0.090-0.519-0.136-1.061-0.203-1.603v-4.2c0.045-0.406 0.090-0.836 0.136-1.242 0.294-2.597 1.468-3.884 4.020-4.471 0.903-0.203 1.852-0.248 2.755-0.339l10.027 0.023z"></path>
<path fill="#fff" d="M17.344 24.796c-1.626 0-3.229-0.023-4.833-0.045-1.016-0.023-2.032-0.136-3.026-0.361-2.462-0.519-3.726-1.829-4.133-4.268-0.068-0.384-0.113-0.768-0.136-1.129-0.023-0.158-0.045-0.316-0.068-0.497v-4.291l0.045-0.406c0.023-0.294 0.068-0.565 0.090-0.836 0.316-2.778 1.626-4.2 4.359-4.81 0.723-0.158 1.423-0.226 2.123-0.294 0.226-0.023 0.452-0.045 0.678-0.068h10.117c0.158 0.023 0.339 0.045 0.497 0.045 0.384 0.045 0.768 0.068 1.174 0.158 1.287 0.248 1.784 0.971 1.558 2.281-0.068 0.565-0.519 1.039-1.129 1.129-0.271 0.045-0.542 0.068-0.836 0.068-3.5 0.023-7.023 0.045-10.524 0.045-0.497 0-1.016 0.045-1.513 0.136-1.558 0.248-2.078 0.813-2.213 2.394 0 0.136-0.023 0.271-0.023 0.384 0.090 0 0.248 0 0.384 0h14.408c0.294 0 0.587 0.090 0.836 0.226 0.768 0.497 0.7 1.242 0.655 1.784 0 0.068-0.023 0.158-0.023 0.226-0.045 0.632-0.429 1.061-1.129 1.197-0.248 0.045-0.474 0.045-0.7 0.045h-14.34c-0.023 0-0.068 0-0.090 0 0 0.023 0 0.045 0 0.068v0.023c0.023 0.474 0.068 0.926 0.181 1.378 0.181 0.7 0.61 1.129 1.332 1.332 0.971 0.271 1.965 0.316 2.823 0.316 2.665 0.023 5.375 0.023 8.017 0.023h2.258c0.339 0 1.039 0 1.445 0.655 0.271 0.429 0.339 0.926 0.226 1.4s-0.407 0.881-0.836 1.152c-0.113 0.068-0.248 0.136-0.384 0.181-0.836 0.271-1.694 0.316-2.416 0.339-1.603 0-3.229 0.023-4.855 0.023zM5.962 18.428c0.023 0.158 0.045 0.316 0.045 0.474 0.045 0.361 0.090 0.723 0.136 1.084 0.361 2.123 1.378 3.162 3.5 3.613 0.948 0.203 1.92 0.316 2.891 0.339 3.184 0.068 6.436 0.068 9.643 0 0.655-0.023 1.445-0.068 2.168-0.294 0.068-0.023 0.136-0.068 0.203-0.090 0.226-0.158 0.407-0.384 0.474-0.655s0.023-0.542-0.136-0.79c-0.136-0.203-0.316-0.271-0.745-0.271h-2.258c-2.62 0-5.352 0-8.017-0.023-0.903 0-1.965-0.045-3.026-0.361-1.016-0.271-1.649-0.926-1.897-1.942-0.113-0.497-0.181-1.016-0.181-1.513v-0.023c-0.023-0.316-0.045-0.542 0.136-0.745s0.429-0.203 0.745-0.203h14.363c0.181 0 0.384 0 0.565-0.045 0.361-0.068 0.452-0.226 0.474-0.452 0-0.090 0.023-0.158 0.023-0.248 0.045-0.565 0.045-0.836-0.271-1.039-0.113-0.068-0.271-0.113-0.407-0.113v0h-14.453c-0.497 0-0.79 0-1.016-0.226s-0.181-0.542-0.158-1.016c0.158-1.942 0.971-2.823 2.891-3.116 0.542-0.090 1.084-0.136 1.649-0.158 3.523 0 7.023-0.023 10.546-0.023 0.248 0 0.474 0 0.7-0.045 0.226-0.023 0.407-0.203 0.429-0.429 0.158-0.903-0.068-1.197-0.926-1.378-0.361-0.068-0.723-0.113-1.084-0.136-0.158-0.023-0.339-0.045-0.497-0.045h-9.982c-0.226 0.023-0.452 0.045-0.678 0.068-0.7 0.068-1.355 0.113-2.032 0.271-2.371 0.587-3.41 1.739-3.681 4.178-0.023 0.271-0.068 0.542-0.090 0.836l-0.045 0.384v4.133z"></path>
</svg>
