<!-- Generated by IcoMoon.io -->
<svg version="1.1" xmlns="http://www.w3.org/2000/svg" viewBox="0 0 32 32">
<title>erg</title>
<path d="M6.137 26.099l10.027 4.055 9.973-4.274 4-10.027-4.274-9.973-10.027-4-9.973 4.274-4 10.027 4.274 9.918zM16.164 32.017c-0.11 0-0.219 0-0.329-0.055l-10.74-4.329c-0.219-0.11-0.384-0.274-0.493-0.493l-4.548-10.63c-0.11-0.219-0.11-0.438 0-0.712l4.329-10.685c0.11-0.219 0.274-0.384 0.493-0.493l10.63-4.548c0.219-0.11 0.438-0.11 0.712 0l10.74 4.329c0.164 0.055 0.329 0.219 0.438 0.438l4.548 10.63c0.11 0.219 0.11 0.438 0 0.712l-4.329 10.74c-0.11 0.219-0.274 0.384-0.493 0.493l-10.63 4.548c-0.055 0.055-0.219 0.055-0.329 0.055z"></path>
<path d="M18.301 15.852l-4.274 4.712h6.795v2.082h-9.589v-2.082l4.274-4.712-4.274-4.438v-2.027h9.589v2.027h-6.685z"></path>
</svg>
