<!-- Generated by IcoMoon.io -->
<svg version="1.1" xmlns="http://www.w3.org/2000/svg" viewBox="0 0 32 32">
<title>esbc</title>
<path d="M23.672 11.808c-1.312 0-2.376 1.064-2.376 2.376s1.064 2.376 2.376 2.376v0c1.312 0 2.376-1.064 2.376-2.376s-1.064-2.376-2.376-2.376v0zM23.672 15.357c-0.642-0.008-1.16-0.53-1.16-1.174 0-0 0-0 0-0v0c0-0.643 0.517-1.174 1.16-1.174s1.16 0.531 1.16 1.174c0 0.643-0.517 1.174-1.16 1.174zM8.412 11.808c-1.312 0-2.376 1.064-2.376 2.376s1.064 2.376 2.376 2.376v0c1.312 0 2.376-1.064 2.376-2.376s-1.064-2.376-2.376-2.376v0zM8.412 15.357c-0.642-0.008-1.16-0.53-1.16-1.174 0-0 0-0 0-0v0c0-0.643 0.517-1.174 1.16-1.174s1.16 0.531 1.16 1.174c0 0.643-0.517 1.174-1.16 1.174zM15.259 17.831h-1.621v-1.635h1.635v1.635zM18.236 17.831h-1.635v-1.635h1.635v1.635zM31.008 24.328l-1.048-8.161-0.182-1.411-0.056-0.517c-0.366-3.23-3.055-5.725-6.338-5.785l-0.006-0v-5.925l-2.99 1.719v-0.908l-1.244 0.741-1.411 0.81v-1.090l-2.627 1.481v-2.040l-2.934 1.705v-1.202l-3.871 2.264v2.473c-3.124 0.25-5.611 2.671-5.964 5.741l-0.003 0.030-0.056 0.503c-0.056 0.461-0.098 0.95-0.182 1.439l-1.048 8.147c-0.031 0.199-0.049 0.429-0.049 0.662 0 2.485 2.015 4.5 4.5 4.5 1.653 0 3.098-0.892 3.88-2.22l0.011-0.021 2.543-4.304c0.321-0.545 0.908-0.894 1.537-0.894h5.114c0.629 0 1.216 0.335 1.537 0.894l2.543 4.304c0.793 1.352 2.239 2.246 3.895 2.246 2.485 0 4.5-2.015 4.5-4.5 0-0.24-0.019-0.476-0.055-0.707l0.003 0.025zM29.010 27.151c-0.605 0.682-1.483 1.11-2.461 1.11-1.203 0-2.255-0.647-2.827-1.611l-0.008-0.015-2.543-4.304c-0.529-0.887-1.481-1.474-2.57-1.481h-5.129c-1.048 0-2.040 0.573-2.571 1.481l-2.543 4.304c-0.571 0.991-1.624 1.647-2.83 1.647-0.984 0-1.865-0.436-2.462-1.125l-0.003-0.004c-0.521-0.592-0.839-1.374-0.839-2.23 0-0.155 0.010-0.307 0.031-0.457l-0.002 0.017 1.048-8.133c0.084-0.489 0.126-0.992 0.182-1.467l0.056-0.489c0.313-2.654 2.549-4.693 5.262-4.693 1.255 0 2.407 0.436 3.315 1.165l-0.010-0.008c1.005 0.852 2.313 1.373 3.743 1.383h0.407c1.328 0 2.655-0.489 3.745-1.383 0.893-0.738 2.050-1.186 3.311-1.188h0c2.713 0.013 4.942 2.064 5.238 4.699l0.002 0.024 0.056 0.503 0.182 1.439 1.048 8.147c0.112 0.964-0.182 1.942-0.824 2.669z"></path>
<path fill="none" stroke="#000" stroke-linejoin="miter" stroke-linecap="butt" stroke-miterlimit="10" stroke-width="1.1179" d="M12.884 25.628c1.565 1.537 4.779 1.523 6.316-0.042"></path>
</svg>
