<!-- Generated by IcoMoon.io -->
<svg version="1.1" xmlns="http://www.w3.org/2000/svg" viewBox="0 0 32 32">
<title>etc</title>
<path fill="#3ab83a" d="M6.121 17.428c3.481 1.849 7.114 3.784 9.92 5.281l9.839-5.281c-3.562 5.292-6.531 9.698-9.839 14.574-3.314-4.865-6.974-10.234-9.92-14.574zM6.499 15.969l9.552-5.097 9.428 5.060-9.422 5.103zM16.041 9.239l-9.92 5.222 9.876-14.461 9.882 14.493-9.839-5.254z"></path>
<path fill="#0b8311" d="M16.041 22.71l9.839-5.281c-3.562 5.292-9.839 14.574-9.839 14.574zM16.051 10.872l9.428 5.060-9.422 5.103-0.005-10.163zM16.041 9.239l-0.043-9.239 9.882 14.493z"></path>
<path fill="#0b8311" d="M6.499 15.969l9.553 0.784 9.428-0.816-9.423 5.103z"></path>
<path fill="#146714" d="M16.051 16.753l9.428-0.816-9.422 5.103-0.005-4.287z"></path>
</svg>
