<!-- Generated by IcoMoon.io -->
<svg version="1.1" xmlns="http://www.w3.org/2000/svg" viewBox="0 0 32 32">
<title>etn</title>
<path fill="#091b26" d="M22.018 12.743l4.262 3.224-1.844 0.938-3.704 1.891 1.271 0.876 1.775 1.232-13.702 7.068c1.845 1.034 4.048 1.643 6.394 1.643v0c7.324 0 13.261-5.936 13.261-13.261 0-0.009 0-0.019 0-0.029 0-3.232-1.163-6.192-3.093-8.485l0.016 0.020-4.635 4.883z"></path>
<path fill="#091b26" d="M10.379 20.288l-2.611-1.984-1.651-1.248 1.844-0.938 3.704-1.891-3.046-2.116 14.33-7.394c-1.979-1.26-4.39-2.007-6.977-2.007-0.013 0-0.027 0-0.040 0h0.002c-7.324 0-13.261 5.936-13.261 13.261 0 3.402 1.287 6.51 3.395 8.858l4.31-4.542z"></path>
<path fill="#091b26" d="M5.061 25.495c-2.34-2.565-3.767-5.975-3.767-9.711 0-7.959 6.479-14.438 14.438-14.438 2.937 0 5.797 0.891 8.207 2.573l1.287-0.667c-2.634-2.007-5.929-3.2-9.494-3.2-8.672 0-15.733 7.060-15.733 15.733 0 4.107 1.581 7.843 4.162 10.648l0.899-0.938z"></path>
<path fill="#091b26" d="M27.257 6.866c2.147 2.519 3.449 5.789 3.449 9.347 0 7.959-6.479 14.438-14.438 14.438-2.697 0-5.34-0.752-7.618-2.178l-1.325 0.682c2.627 1.821 5.751 2.79 8.944 2.79 8.672 0 15.733-7.060 15.733-15.733 0-3.93-1.449-7.533-3.844-10.292l-0.899 0.946z"></path>
<path fill="#23bee2" d="M8.639 17.339l3.767 2.852-8.51 8.967 16.918-8.727-3.054-2.116 5.634-2.883-3.767-2.852 8.51-8.959-16.918 8.727 3.053 2.116-5.634 2.875z"></path>
</svg>
