<!-- Generated by IcoMoon.io -->
<svg version="1.1" xmlns="http://www.w3.org/2000/svg" viewBox="0 0 32 32">
<title>etp</title>
<path fill="#de2813" d="M8.342 24.653c0.036 1.796-1.391 3.281-3.186 3.317s-3.281-1.391-3.317-3.186c-0.036-1.796 1.391-3.281 3.186-3.317s3.281 1.391 3.316 3.186z"></path>
<path fill="#e71619" d="M4.42 18.139c0 1.22-0.989 2.208-2.208 2.208s-2.208-0.989-2.208-2.208c0-1.22 0.989-2.208 2.208-2.208s2.208 0.989 2.208 2.208z"></path>
<path fill="#ec6816" d="M9.247 5.121c0 0.926-0.751 1.677-1.677 1.677s-1.677-0.751-1.677-1.677c0-0.926 0.751-1.677 1.677-1.677s1.677 0.751 1.677 1.677z"></path>
<path fill="#f2961b" d="M15.723 2.354c0 0.705-0.572 1.277-1.277 1.277s-1.277-0.572-1.277-1.277c0-0.705 0.572-1.277 1.277-1.277s1.277 0.572 1.277 1.277z"></path>
<path fill="#f1c621" d="M22.665 3.36c0 0.587-0.476 1.062-1.062 1.062s-1.062-0.476-1.062-1.062c0-0.587 0.476-1.062 1.062-1.062s1.062 0.476 1.062 1.062z"></path>
<path fill="#f3c620" d="M28.172 7.954c0 0.437-0.355 0.792-0.792 0.792s-0.792-0.355-0.792-0.792c0-0.437 0.355-0.792 0.792-0.792s0.792 0.355 0.792 0.792z"></path>
<path fill="#156192" d="M31.984 14.691c0 1.019-0.826 1.845-1.845 1.845s-1.845-0.826-1.845-1.845c0-1.019 0.826-1.845 1.845-1.845s1.845 0.826 1.845 1.845z"></path>
<path fill="#2090c0" d="M30.791 21.801c0 0.911-0.738 1.649-1.649 1.649s-1.649-0.738-1.649-1.649c0-0.911 0.738-1.649 1.649-1.649s1.649 0.738 1.649 1.649z"></path>
<path fill="#338dcc" d="M26.039 27.467c0 0.71-0.576 1.286-1.286 1.286s-1.286-0.576-1.286-1.286c0-0.71 0.576-1.286 1.286-1.286s1.286 0.576 1.286 1.286z"></path>
<path fill="#38bae8" d="M18.742 30.076c0 0.468-0.38 0.848-0.848 0.848s-0.848-0.38-0.848-0.848c0-0.468 0.38-0.848 0.848-0.848s0.848 0.38 0.848 0.848z"></path>
<path fill="#36bbe6" d="M11.651 29.079c0 0.324-0.263 0.587-0.587 0.587s-0.587-0.263-0.587-0.587c0-0.324 0.263-0.587 0.587-0.587s0.587 0.263 0.587 0.587z"></path>
<path fill="#eb6617" d="M6.624 10.829c0.096 1.727-1.227 3.204-2.953 3.299s-3.204-1.227-3.299-2.953c-0.096-1.727 1.227-3.204 2.953-3.299s3.204 1.227 3.299 2.953z"></path>
<path fill="#3f3f3f" d="M10.579 13.666l2.6-1.482-0.009 8.62-2.591 1.463v-8.601z"></path>
<path fill="#3f3f3f" d="M20.941 13.666l2.6-1.482-0.009 8.62-2.59 1.463v-8.601z"></path>
<path fill="#3f3f3f" d="M15.751 13.666l2.6-1.482-0.009 8.62-2.591 1.463v-8.601z"></path>
<path fill="#686a69" d="M8.063 12.129l2.544-1.5 2.572 1.556-2.6 1.482-2.516-1.538z"></path>
<path fill="#686a69" d="M13.226 12.129l2.544-1.5 2.572 1.556-2.591 1.482-2.525-1.538z"></path>
<path fill="#686a69" d="M18.425 12.138l2.544-1.5 2.572 1.556-2.6 1.482-2.516-1.538z"></path>
</svg>
