<!-- Generated by IcoMoon.io -->
<svg version="1.1" xmlns="http://www.w3.org/2000/svg" viewBox="0 0 32 32">
<title>ewt</title>
<path fill="#a566ff" d="M15.987 0c-8.828 0-15.987 7.16-15.987 15.987s7.16 15.987 15.987 15.987 15.987-7.16 15.987-15.987v0c0.026-8.828-7.134-15.987-15.987-15.987zM15.269 23.865c-0.873 0.616-1.925 0.975-2.977 0.975-1.848 0-3.541-1.001-4.824-2.848-1.155-1.771-1.796-3.824-1.848-5.928 0-0.077 0.051-0.154 0.128-0.18l1.257-0.565c0.103-0.051 0.205 0 0.257 0.103 0 0.026 0.026 0.051 0.026 0.077v0c0 2.104 0.565 4.080 1.565 5.543 0.949 1.386 2.181 2.13 3.464 2.13 0.693 0 1.386-0.205 1.95-0.59 0.077-0.051 0.205-0.026 0.257 0.051 0.257 0.334 0.513 0.642 0.796 0.949 0.026 0.077 0.026 0.205-0.051 0.282 0 0 0 0 0 0zM24.532 21.992c-1.257 1.822-2.977 2.848-4.824 2.848s-3.541-1.026-4.824-2.848c-1.206-1.745-1.873-4.055-1.873-6.492 0-2.258 1.309-4.029 2.951-4.029s2.951 1.771 2.951 4.029c0.026 1.976-0.436 3.901-1.36 5.646-0.051 0.103-0.18 0.128-0.257 0.077-0.026 0-0.026-0.026-0.051-0.051-0.154-0.18-0.308-0.359-0.436-0.539-0.154-0.231-0.282-0.436-0.411-0.693-0.026-0.051-0.026-0.128 0-0.18 0.59-1.36 0.872-2.823 0.872-4.285 0-1.103-0.565-2.361-1.309-2.361s-1.309 1.257-1.309 2.361c0 2.104 0.565 4.080 1.565 5.543 0.949 1.386 2.181 2.13 3.464 2.13s2.515-0.77 3.464-2.13c1.001-1.463 1.565-3.439 1.565-5.543s-0.565-4.080-1.565-5.543c-0.282-0.436-0.642-0.821-1.026-1.155-0.077-0.077-0.077-0.205-0.026-0.282 0.026-0.026 0.051-0.051 0.077-0.051l1.257-0.565c0.077-0.026 0.154-0.026 0.205 0.051 0.334 0.334 0.616 0.693 0.872 1.052 1.206 1.745 1.873 4.055 1.873 6.492s-0.642 4.773-1.848 6.518z"></path>
</svg>
