<!-- Generated by IcoMoon.io -->
<svg version="1.1" xmlns="http://www.w3.org/2000/svg" viewBox="0 0 32 32">
<title>face</title>
<path d="M30.467 2.333h-14c-0.933 0-1.667 0.733-1.667 1.667v14.4h-5.067c-0.933 0-1.733 0.667-1.733 1.533s0.8 1.533 1.733 1.533h6.8c0.933 0 1.667-0.733 1.667-1.667v-7.4h8.267c0.867 0 1.533-0.667 1.533-1.533s-0.667-1.533-1.533-1.533h-8.333v-3.933h12.333c0.867 0 1.533-0.667 1.533-1.533s-0.667-1.533-1.533-1.533zM16.6 26.6h-7.133c-0.867 0-1.533 0.667-1.533 1.533s0.667 1.533 1.533 1.533h7.133c0.867 0 1.533-0.667 1.533-1.533s-0.667-1.533-1.533-1.533v0zM8.667 9.333h-7.133c-0.867 0-1.533 0.667-1.533 1.533s0.667 1.533 1.533 1.533h7.133c0.867 0 1.533-0.667 1.533-1.533 0-0.8-0.667-1.533-1.533-1.533z"></path>
</svg>
