<!-- Generated by IcoMoon.io -->
<svg version="1.1" xmlns="http://www.w3.org/2000/svg" viewBox="0 0 32 32">
<title>fct</title>
<path fill="#1d1d1d" d="M16.066 5.186c-0.27 0.937-1.542 2.213-3.215 3.285l-0.066 0.066c-0.066 0.2 0.27 0.736 0.671 0.536 1.928-1.272 3.416-2.749 3.686-3.821 0.2-0.871-0.335-1.272-1.473-1.342-0.055-0.002-0.121-0.003-0.186-0.003-0.313 0-0.62 0.025-0.919 0.073l0.033-0.004h-0.27c1.272-0.066 2.009 0.335 1.743 1.207v0z"></path>
<path fill="#1d1d1d" d="M20.958 6.462c-0.601 2.279-5.093 5.829-10.051 7.973-0.724 0.337-1.594 0.657-2.493 0.907l-0.125 0.030c-0.083 0.021-0.152 0.069-0.2 0.134l-0.001 0.001c-0.2 0.27-0.135 0.937 0.335 0.871q1.307-0.386 2.814-1.006c5.228-2.209 10.055-6.030 10.656-8.432 0.052-0.136 0.082-0.292 0.082-0.456 0-0.547-0.334-1.016-0.809-1.214l-0.009-0.003c-0.335-0.135-0.736-0.335-1.072-0.47 0.549 0.162 0.943 0.661 0.943 1.252 0 0.152-0.026 0.298-0.074 0.434l0.003-0.009z"></path>
<path fill="#1d1d1d" d="M27.123 11.69v0c0-0.011 0-0.024 0-0.037 0-0.252-0.050-0.493-0.14-0.712l0.005 0.012-0.135-0.27-0.47-0.736c0.127 0.21 0.202 0.463 0.202 0.734 0 0.025-0.001 0.050-0.002 0.075l0-0.003c0.114 0.364 0.298 0.677 0.538 0.939l-0.002-0.002z"></path>
<path fill="#1d1d1d" d="M27.659 13.629c-0.671 2.413-4.823 6.034-9.851 8.648-0.202 0.066-0.345 0.253-0.345 0.473 0 0.275 0.223 0.497 0.497 0.497 0.121 0 0.232-0.043 0.319-0.115l-0.001 0.001c4.958-2.614 9.045-6.099 9.639-8.513 0.069-0.183 0.109-0.394 0.109-0.614 0-0.139-0.016-0.274-0.046-0.404l0.002 0.012c-0.066-0.335-0.27-0.806-0.335-1.157 0.067 0.172 0.106 0.37 0.106 0.578s-0.039 0.407-0.11 0.589l0.004-0.011z"></path>
<path fill="#1d1d1d" d="M23.437 21.336c-0.116 0.104-0.208 0.233-0.267 0.379l-0.003 0.007c-0.066 0.27 0.135 0.671 0.536 0.386 2.479-1.808 4.287-3.751 4.627-5.228 0.043-0.157 0.067-0.338 0.067-0.524 0-0.029-0.001-0.057-0.002-0.085l0 0.004v-0.386l-0.058-0.783c0.001 0.035 0.002 0.076 0.002 0.118 0 0.243-0.025 0.481-0.071 0.711l0.004-0.023c-0.386 1.542-2.279 3.551-4.823 5.428v0z"></path>
<path fill="#1d1d1d" d="M9.635 9.076c0.684-0.288 1.256-0.579 1.803-0.907l-0.064 0.036c0.048-0.041 0.078-0.101 0.078-0.168s-0.030-0.127-0.077-0.167l-0-0c-0.087-0.121-0.227-0.199-0.385-0.2h-0c-0.382 0.234-0.844 0.48-1.319 0.7l-0.088 0.036c-1.542 0.671-2.749 0.736-3.015 0.335-0.057-0.085-0.092-0.19-0.092-0.303 0-0.060 0.010-0.117 0.027-0.171l-0.001 0.004c0.1-0.257 0.23-0.478 0.389-0.676l-0.004 0.005 0.937-0.937c0.832-0.599 1.779-1.137 2.782-1.57l0.098-0.038c0.151-0.14 0.329-0.253 0.524-0.331l0.011-0.004c1.542-0.47 2.548-0.335 2.344 0.386-0.083 0.318-0.247 0.59-0.47 0.801l-0.001 0.001c0.175 0.113 0.389 0.179 0.619 0.179 0.113 0 0.223-0.016 0.326-0.047l-0.008 0.002c0.275-0.272 0.482-0.61 0.597-0.99l0.004-0.017c0.27-0.871-0.806-1.157-2.413-0.671-0.152 0.042-0.28 0.088-0.404 0.142l0.018-0.007-0.386 0.135c-0.111 0.060-0.24 0.106-0.377 0.133l-0.009 0.001c-0.148 0.060-0.275 0.127-0.394 0.206l0.008-0.005c-0.135 0.066-0.2 0.066-0.335 0.135s-0.2 0.066-0.335 0.135c-0.097 0.072-0.207 0.138-0.323 0.195l-0.013 0.006-0.27 0.135c-0.101 0.034-0.19 0.080-0.269 0.137l0.003-0.002c-0.106 0.047-0.195 0.115-0.265 0.199l-0.001 0.001c-0.105 0.052-0.194 0.119-0.269 0.2l-0.001 0.001c-0.135 0.066-0.135 0.135-0.27 0.2-0.105 0.052-0.194 0.119-0.269 0.2l-0.001 0.001c-0.105 0.052-0.194 0.119-0.269 0.2l-0 0.001c-0.135 0.135-0.2 0.135-0.335 0.27s-0.2 0.135-0.335 0.27c-0.34 0.221-0.628 0.489-0.865 0.798l-0.006 0.008c-0.168 0.165-0.3 0.366-0.382 0.59l-0.004 0.011c0 0.066-0.066 0.135-0.066 0.2v0.135c-0.003 0.031-0.005 0.066-0.005 0.102 0 0.133 0.026 0.259 0.073 0.375l-0.002-0.007c0.386 0.536 1.928 0.386 3.821-0.386v0z"></path>
<path fill="#1d1d1d" d="M4.337 11.285v0.135c0.007 0.053 0.031 0.1 0.066 0.135l-0-0c0.386 0.47 1.342 0.536 2.009 0.386 2.344-0.266 2.414-0.671 2.414-0.937 0 0 0-0.47-0.27-0.47-1.878 0.601-3.215 0.601-3.62 0.066-0.061-0.138-0.096-0.3-0.096-0.469 0-0.095 0.011-0.187 0.032-0.276l-0.002 0.008c0.089-0.241 0.179-0.439 0.28-0.63l-0.014 0.029c0.066-0.135 0.2-0.266 0.335-0.47l-0.2 0.2c-0.096 0.147-0.207 0.274-0.333 0.384l-0.002 0.002c-0.089 0.112-0.178 0.238-0.26 0.368l-0.010 0.017c-0.066 0.135-0.2 0.335-0.27 0.47s-0.066 0.2-0.135 0.335c0.001 0.009 0.002 0.020 0.002 0.031 0 0.066-0.026 0.125-0.068 0.17l0-0c0.043 0.189 0.089 0.347 0.144 0.5l-0.009-0.030z"></path>
<path fill="#1d1d1d" d="M10.506 13.108c4.488-1.889 8.578-5.108 9.11-7.183 0.2-0.736-0.066-1.272-0.806-1.473-0.123-0.046-0.281-0.092-0.441-0.129l-0.029-0.006c-0.121-0.038-0.261-0.066-0.406-0.077l-0.006-0c0.434 0.106 0.752 0.492 0.752 0.952 0 0.141-0.030 0.275-0.083 0.396l0.002-0.006c-0.536 1.878-4.222 4.827-8.308 6.554-3.215 1.342-5.694 1.542-6.365 0.671-0.116-0.171-0.185-0.383-0.185-0.61 0-0.117 0.018-0.229 0.052-0.335l-0.002 0.008c0.066-0.135 0.066-0.27 0.135-0.386-0.135 0.335-0.335 0.806-0.47 1.157 0 0.066-0.066 0.135-0.066 0.2s-0.066 0.2-0.066 0.27c-0.020 0.068-0.032 0.146-0.032 0.228 0 0.224 0.088 0.428 0.232 0.579l-0-0c0.682 0.918 3.427 0.733 6.982-0.81v0z"></path>
<path fill="#1d1d1d" d="M2.799 15.306v0z"></path>
<path fill="#1d1d1d" d="M2.799 18.12v0 0c-0.001 0.009-0.002 0.020-0.002 0.031 0 0.066 0.026 0.125 0.068 0.17l-0-0v0.135c0 0.050 0.066 0.050 0.066 0.135l-0.066-0.085c0.066 0.066 0.066 0.2 0.135 0.266 0.937 1.276 4.488 1.026 9.045-0.921 5.829-2.479 11.127-6.631 11.863-9.369 0.058-0.159 0.092-0.343 0.092-0.535 0-0.447-0.183-0.851-0.477-1.142l-0-0-0.536-0.47-0.386-0.266c0.366 0.237 0.605 0.643 0.605 1.105 0 0.036-0.001 0.071-0.004 0.107l0-0.005c-0.2 4.222-16.551 14.265-20.237 10.386-0.163-0.224-0.263-0.503-0.27-0.804l-0-0.002c-0.002 0.055-0.003 0.121-0.003 0.186 0 0.313 0.025 0.619 0.073 0.919l-0.004-0.033v0.066c0.037 0.034 0.061 0.081 0.066 0.134l0 0.001z"></path>
<path fill="#1d1d1d" d="M3.266 20.133v0z"></path>
<path fill="#1d1d1d" d="M13.116 20.048c6.169-2.614 11.794-7.036 12.6-9.92 0.064-0.172 0.102-0.37 0.102-0.577 0-0.361-0.113-0.696-0.306-0.97l0.004 0.005c-0.259-0.316-0.522-0.601-0.802-0.868l-0.004-0.003c0.386 0.386 0.47 0.937 0.335 1.608-0.736 2.814-6.3 7.171-12.337 9.716-4.75 2.032-8.37 2.367-9.373 1.010v0c-0.118-0.123-0.192-0.287-0.2-0.469l-0-0.002c0.092 0.447 0.207 0.834 0.353 1.207l-0.017-0.050v0.2c0.066 0.066 0.066 0.135 0.135 0.2 0.871 1.342 4.627 1.006 9.515-1.072v0z"></path>
<path fill="#1d1d1d" d="M4.542 23.414c0-0.066-0.066-0.066-0.066-0.135-0.001 0.006-0.001 0.012-0.001 0.018 0 0.049 0.027 0.093 0.066 0.116l0.001 0z"></path>
<path fill="#1d1d1d" d="M14.323 22.408c3.686-1.608 7.237-3.821 9.639-5.964 0.106-0.12 0.17-0.278 0.17-0.451 0-0.077-0.013-0.152-0.037-0.221l0.001 0.005c-0.063-0.191-0.239-0.326-0.448-0.326-0.082 0-0.159 0.021-0.226 0.058l0.002-0.001c-2.765 2.377-5.945 4.379-9.398 5.872l-0.24 0.092c-4.958 2.013-8.779 2.348-9.781 0.937 0.111 0.173 0.202 0.373 0.266 0.585l0.004 0.017c0.007 0.053 0.031 0.099 0.066 0.135l-0-0c0 0.066 0.066 0.066 0.066 0.135 0-0.066-0.066-0.066-0.066-0.135 0 0.066 0.066 0.066 0.066 0.135 0.937 1.542 4.823 1.272 9.916-0.871v0z"></path>
<path fill="#1d1d1d" d="M10.171 26.093c0.27-0.066 0.2-0.27 0.135-0.386-0.157-0.234-0.42-0.386-0.719-0.386-0.006 0-0.012 0-0.018 0h0.001c-2.078 0.335-3.551 0.135-4.156-0.605v-0.096c0.142 0.14 0.269 0.294 0.379 0.46l0.007 0.011c0.135 0.135 0.27 0.335 0.386 0.47 0.536 0.671 1.928 0.871 3.956 0.536v0z"></path>
<path fill="#1d1d1d" d="M16 26.363c0.164-0.047 0.283-0.195 0.283-0.372 0-0.035-0.005-0.069-0.014-0.101l0.001 0.003c-0.11-0.168-0.298-0.277-0.511-0.277-0.108 0-0.21 0.028-0.298 0.078l0.003-0.002c-4.021 1.608-7.102 1.874-8.243 0.937 0.35 0.243 0.656 0.487 0.944 0.75l-0.007-0.006c1.157 0.802 4.087 0.47 7.842-1.002v0z"></path>
<path fill="#1d1d1d" d="M9.5 28.172c0.419 0.172 0.771 0.352 1.107 0.556l-0.035-0.020c1.272 0.536 3.952 0.135 7.306-1.272 5.089-2.144 9.716-5.845 10.317-8.158-0.001-0.009-0.002-0.020-0.002-0.031 0-0.066 0.026-0.125 0.068-0.17l-0 0c0.066-0.27 0.066-0.671 0.135-1.006v-0.216c-0.671 4.627-14.408 12.195-18.892 10.321v0z"></path>
<path fill="#1d1d1d" d="M18.479 27.971c-2.814 1.207-5.159 1.608-6.435 1.272 0.335 0.066 0.871 0.2 1.207 0.266 3.47 0.536 12.337-3.821 14.207-7.773 0.135-0.335 0.27-0.802 0.386-1.157-0.663 2.167-4.808 5.448-9.365 7.391v0z"></path>
<path fill="#1d1d1d" d="M24.578 25.558c-1.487 1.185-3.187 2.197-5.018 2.963l-0.141 0.052c-1.878 0.806-3.47 1.157-4.557 1.072h1.342c1.344-0.165 2.566-0.52 3.698-1.038l-0.078 0.032c1.739-0.768 3.238-1.671 4.605-2.735l-0.048 0.036c0.2-0.135 0.266-0.335 0.335-0.335 0-0.066 0.066-0.066 0.066-0.135v-0.042c-0.135 0.066-0.2 0.066-0.2 0.135v0z"></path>
<path fill="#1d1d1d" d="M2.799 15.572v0 0.335c-0.001 0.006-0.001 0.012-0.001 0.018 0 0.049 0.027 0.093 0.066 0.116l0.001 0v0.066c0 0.085 0.066 0.085 0.066 0.135v0.066c0.125 0.161 0.283 0.291 0.463 0.382l0.008 0.004c0.12-0.044 0.204-0.157 0.204-0.29 0-0.016-0.001-0.032-0.004-0.047l0 0.002c0.011-0.071 0.018-0.152 0.018-0.235 0-0.179-0.031-0.352-0.087-0.512l0.003 0.011c-0.2-0.073-0.362-0.208-0.468-0.382l-0.002-0.004c-0.127-0.209-0.202-0.463-0.202-0.733 0-0.025 0.001-0.051 0.002-0.076l-0 0.004c0.018-0.131 0.041-0.245 0.070-0.356l-0.005 0.020v0.135l-0.066 0.47-0.135 0.671c0.066 0 0.066 0.135 0.066 0.2v0z"></path>
<path fill="#407ba4" d="M28.060 24.555c-0.104-0.078-0.236-0.125-0.378-0.125-0.203 0-0.383 0.095-0.5 0.243l-0.001 0.001c-1.2 1.729-2.718 3.149-4.48 4.205l-0.066 0.036c-2.001 1.17-4.403 1.866-6.967 1.878h-0.053c-0.006 0-0.013 0-0.021 0-4.623 0-8.726-2.226-11.296-5.665l-0.026-0.037h-0.066c0-0.036-0.029-0.066-0.066-0.066v0l-0.066-0.066c-0.006 0.001-0.012 0.001-0.018 0.001-0.049 0-0.093-0.027-0.116-0.066l-0-0.001h-0.386c-0.006-0.001-0.012-0.001-0.018-0.001-0.049 0-0.093 0.027-0.116 0.066l-0 0.001h-0.085v0.062c-0.036 0-0.066 0.029-0.066 0.066v0l-0.066 0.066c0.001 0.006 0.001 0.012 0.001 0.018 0 0.049-0.027 0.093-0.066 0.116l-0.001 0v2.749c0 0.37 0.3 0.671 0.671 0.671v0c0.012 0.001 0.026 0.001 0.040 0.001 0.349 0 0.632-0.283 0.632-0.632 0-0.014-0-0.028-0.001-0.042l0 0.002v-0.736c2.813 2.975 6.788 4.827 11.195 4.827 0.022 0 0.044-0 0.066-0h0.062c2.794-0.007 5.406-0.778 7.64-2.116l-0.068 0.038c2.024-1.147 3.69-2.704 4.929-4.57l0.033-0.053c0.040-0.084 0.064-0.183 0.064-0.287 0-0.247-0.133-0.464-0.33-0.583l-0.003-0.002z"></path>
<path fill="#d37d41" d="M14.994 2.040v0-0.135c0.001-0.006 0.001-0.012 0.001-0.018 0-0.049-0.027-0.093-0.066-0.116l-0.001-0c0-0.003 0-0.006 0-0.010 0-0.057-0.035-0.105-0.084-0.125l-0.001-0-0.066-0.066c0-0.066-0.066-0.066-0.135-0.066l-0.066-0.066-2.329-1.342c-0.091-0.058-0.203-0.093-0.322-0.093-0.245 0-0.456 0.146-0.551 0.355l-0.002 0.004c-0.057 0.090-0.090 0.2-0.090 0.318 0 0.246 0.146 0.457 0.356 0.552l0.004 0.002 0.736 0.386c-1.722 0.39-3.244 0.996-4.636 1.8l0.079-0.042c-2.285 1.381-4.139 3.258-5.454 5.49l-0.040 0.073c-1.343 2.229-2.138 4.92-2.138 7.796 0 2.482 0.592 4.827 1.642 6.899l-0.040-0.087c0.125 0.203 0.346 0.335 0.599 0.335 0.001 0 0.002 0 0.003 0h-0c0.013 0.001 0.027 0.002 0.042 0.002 0.084 0 0.161-0.025 0.226-0.069l-0.001 0.001c0.216-0.092 0.366-0.303 0.366-0.548 0-0.12-0.036-0.232-0.097-0.325l0.001 0.002c-0.924-1.829-1.465-3.988-1.465-6.273 0-5.193 2.795-9.733 6.963-12.197l0.066-0.036c1.691-1.013 3.706-1.665 5.861-1.799l0.038-0.002c0.009 0.001 0.020 0.002 0.031 0.002 0.066 0 0.125-0.026 0.17-0.068l-0 0c0.066-0.066 0.135-0.066 0.2-0.135l0.050-0.066 0.085-0.062v-0.073c-0.001-0.006-0.001-0.012-0.001-0.018 0-0.049 0.027-0.093 0.066-0.116l0.001-0v-0.066z"></path>
<path fill="#e9b520" d="M31.746 21.336c-0.12-0.201-0.337-0.334-0.584-0.334-0.104 0-0.203 0.023-0.291 0.065l0.004-0.002-0.609 0.339c0.474-1.405 0.747-3.024 0.747-4.706 0-2.835-0.776-5.488-2.127-7.759l0.039 0.070c-2.532-4.212-6.872-7.114-11.919-7.636l-0.068-0.006c-0.016-0.002-0.035-0.002-0.054-0.002-0.337 0-0.612 0.271-0.617 0.607v0c-0.002 0.016-0.002 0.035-0.002 0.054 0 0.336 0.269 0.609 0.603 0.617h0.001c4.694 0.442 8.685 3.099 10.956 6.902l0.036 0.065c1.179 2.038 1.874 4.484 1.874 7.091 0 2.141-0.469 4.173-1.309 5.998l0.037-0.089v0.47c-0.001 0.006-0.002 0.013-0.002 0.020 0 0.049 0.027 0.092 0.067 0.114l0.001 0v0.066l0.066 0.066v0.066c0.066 0.066 0.135 0.066 0.2 0.135h0.47c0.036 0 0.066-0.029 0.066-0.066v0l2.213-1.272c0.164-0.135 0.268-0.338 0.268-0.565 0-0.111-0.025-0.217-0.070-0.311l0.002 0.004z"></path>
</svg>
