<!-- Generated by IcoMoon.io -->
<svg version="1.1" xmlns="http://www.w3.org/2000/svg" viewBox="0 0 32 32">
<title>fei</title>
<path fill="#22996e" d="M32 16c0 8.837-7.163 16-16 16s-16-7.163-16-16c0-8.837 7.163-16 16-16s16 7.163 16 16z"></path>
<path fill="#fff" d="M16 23.111h-8.711c-1.244 0-1.956-1.244-1.244-2.311l4.978-7.822c0.356-0.533 0.889-0.889 1.6-0.889h6.756c0.711 0 1.244 0.356 1.6 0.889l4.978 7.822c0.711 1.067 0 2.311-1.244 2.311h-8.711z"></path>
<path fill="#fff" d="M16.889 5.333l2.133 3.2c0.356 0.711 0 1.6-0.889 1.6h-4.267c-0.889 0-1.244-0.889-0.889-1.6l2.133-3.2c0.533-0.711 1.422-0.711 1.778 0z"></path>
</svg>
