<!-- Generated by IcoMoon.io -->
<svg version="1.1" xmlns="http://www.w3.org/2000/svg" viewBox="0 0 32 32">
<title>fet</title>
<path d="M0 0v32h31.488v-32zM11.008 3.712h2.944v3.072h-2.944zM3.584 3.712h3.072v3.072h-3.072zM6.528 11.136v3.072h-3.072v-3.072zM5.76 28.032h-1.28v-1.152h1.152v1.152zM6.656 21.888h-3.072v-2.944h3.072zM13.184 28.032h-1.152v-1.152h1.152zM13.184 20.864h-1.152v-1.152h1.152zM14.080 14.336h-3.072v-3.072h3.072zM20.608 28.032h-1.152v-1.152h1.152zM20.608 20.864h-1.152v-1.152h1.152zM20.608 13.312h-1.152v-1.152h1.152zM21.632 6.784h-3.072v-3.072h3.072zM28.16 28.032h-1.152v-1.152h1.152zM28.16 20.864h-1.152v-1.152h1.152zM28.16 13.312h-1.152v-1.152h1.152zM28.16 5.888h-1.152v-1.152h1.152z"></path>
</svg>
