<!-- Generated by IcoMoon.io -->
<svg version="1.1" xmlns="http://www.w3.org/2000/svg" viewBox="0 0 32 32">
<title>fil</title>
<path fill="#0090ff" d="M16 32c-8.8 0-16-7.2-16-16.080 0.080-8.8 7.2-16 16.080-15.92 8.8 0.080 15.92 7.2 15.92 16.16-0.080 8.72-7.2 15.84-16 15.84z"></path>
<path fill="#fff" d="M17.52 14.080l-0.48 2.56 4.56 0.64-0.32 1.2-4.48-0.64c-0.32 1.040-0.48 2.16-0.88 3.12-0.4 1.12-0.8 2.24-1.28 3.28-0.64 1.36-1.76 2.32-3.28 2.56-0.88 0.16-1.84 0.080-2.56-0.48-0.24-0.16-0.48-0.48-0.48-0.72 0-0.32 0.16-0.72 0.4-0.88 0.16-0.080 0.56 0 0.8 0.080 0.24 0.24 0.48 0.56 0.64 0.88 0.48 0.64 1.12 0.72 1.76 0.24 0.72-0.64 1.12-1.52 1.36-2.4 0.48-1.92 0.96-3.76 1.36-5.68v-0.32l-4.24-0.64 0.16-1.2 4.4 0.64 0.56-2.48-4.56-0.72 0.16-1.28 4.72 0.64c0.16-0.48 0.24-0.88 0.4-1.28 0.4-1.44 0.8-2.88 1.76-4.16s2.080-2.080 3.76-2c0.72 0 1.44 0.24 1.92 0.8 0.080 0.080 0.24 0.24 0.24 0.4 0 0.32 0 0.72-0.24 0.96-0.32 0.24-0.72 0.16-1.040-0.16-0.24-0.24-0.4-0.48-0.64-0.72-0.48-0.64-1.2-0.72-1.76-0.16-0.4 0.4-0.8 0.96-1.040 1.52-0.56 1.68-0.96 3.44-1.52 5.2l4.4 0.64-0.32 1.2-4.24-0.64z"></path>
</svg>
