<!-- Generated by IcoMoon.io -->
<svg version="1.1" xmlns="http://www.w3.org/2000/svg" viewBox="0 0 32 32">
<title>flow</title>
<path fill="#00ef8b" d="M32 16c0 8.837-7.163 16-16 16s-16-7.163-16-16c0-8.837 7.163-16 16-16s16 7.163 16 16z"></path>
<path fill="#fff" d="M18.496 13.504h4.512v4.512h-4.512v-4.512z"></path>
<path fill="#fff" d="M13.984 19.712c0 0.928-0.768 1.696-1.696 1.696s-1.696-0.768-1.696-1.696c0-0.928 0.768-1.696 1.696-1.696 0 0 0 0 0 0h1.696v-4.512h-1.696c-3.424 0-6.208 2.784-6.208 6.208s2.784 6.208 6.208 6.208 6.208-2.784 6.208-6.208v0-1.696h-4.512v1.696z"></path>
<path fill="#fff" d="M20.192 11.232h5.088v-4.512h-5.088c-3.424 0-6.208 2.784-6.208 6.208v0.576h4.512v-0.576c0-0.928 0.768-1.696 1.696-1.696z"></path>
<path fill="#16ff99" d="M18.496 13.504v0h-4.512v4.512h4.512z"></path>
</svg>
