<!-- Generated by IcoMoon.io -->
<svg version="1.1" xmlns="http://www.w3.org/2000/svg" viewBox="0 0 32 32">
<title>flux</title>
<path fill="#2b61d1" d="M16.109 0c8.794 0.059 15.901 7.202 15.901 16.005 0 8.839-7.166 16.005-16.005 16.005s-16.005-7.166-16.005-16.005v0c0-0 0-0 0-0 0-8.839 7.166-16.005 16.005-16.005 0.037 0 0.073 0 0.11 0l-0.006-0z"></path>
<path fill="#fff" d="M18.016 25.289l-1.834 1.042-3.939-2.272 1.792-1.042h0.073z"></path>
<path fill="#fff" d="M25.060 10.972v2.136l-4.918-2.845-1.042 0.604-5.981 3.459v1.303l-1.928-1.146-1.042-0.604-1.042 0.604-1.813 1.032v-4.543l8.878-5.116z"></path>
<path fill="#fff" d="M25.060 15.536v5.7l-4.929 2.845-4.929-2.845v-5.7l4.939-2.845z"></path>
<path fill="#fff" d="M12.983 17.943v3.282l-2.845 1.636-2.845-1.636v-3.282l2.834-1.636z"></path>
</svg>
