<!-- Generated by IcoMoon.io -->
<svg version="1.1" xmlns="http://www.w3.org/2000/svg" viewBox="0 0 32 32">
<title>frax</title>
<path fill="#000" d="M31.964 15.999c0 8.818-7.148 15.966-15.966 15.966s-15.966-7.148-15.966-15.966c0-8.818 7.148-15.966 15.966-15.966s15.966 7.148 15.966 15.966z"></path>
<path fill="#fff" d="M7.19 7.118c-0.673 0.707-1.229 1.302-1.234 1.313-0.006 0.017 0.6 0.611 1.346 1.318 0.746 0.712 1.397 1.335 1.442 1.374l0.084 0.079-0.151 0.252c-1.33 2.199-1.604 4.847-0.769 7.282 0.157 0.46 0.426 1.049 0.656 1.436 0.112 0.191 0.163 0.314 0.151 0.337s-0.69 0.741-1.509 1.599c-0.819 0.853-1.487 1.565-1.498 1.576-0.006 0.017 2.289 2.233 2.508 2.412l0.084 0.073 1.296-1.352c0.712-0.746 1.38-1.447 1.481-1.554l0.191-0.191 0.18 0.112c0.914 0.583 1.986 0.987 3.17 1.201 0.595 0.107 1.728 0.135 2.362 0.056 1.223-0.14 2.435-0.55 3.428-1.15l0.258-0.157 0.275 0.269c0.6 0.583 2.844 2.715 2.867 2.727s2.485-2.564 2.48-2.597c-0.006-0.017-1.694-1.638-2.727-2.609l-0.342-0.325 0.157-0.258c1.318-2.194 1.593-4.853 0.741-7.304-0.123-0.359-0.499-1.167-0.718-1.537l-0.107-0.185 1.442-1.509c0.791-0.825 1.436-1.515 1.431-1.532-0.022-0.056-2.547-2.44-2.581-2.44-0.022 0-0.656 0.645-1.414 1.442-0.757 0.791-1.386 1.442-1.403 1.447-0.011 0.006-0.084-0.028-0.151-0.079-0.191-0.129-0.673-0.393-0.942-0.516-0.819-0.376-1.582-0.606-2.468-0.735-0.46-0.067-1.84-0.079-2.266-0.017-1.021 0.146-1.857 0.398-2.71 0.825-0.247 0.118-0.533 0.275-0.645 0.342l-0.202 0.123-0.23-0.224c-0.123-0.123-0.684-0.651-1.24-1.184-0.555-0.527-1.122-1.066-1.257-1.201l-0.247-0.241-1.217 1.302zM16.609 10.776c0.892 0.107 1.689 0.41 2.424 0.926 0.376 0.264 0.937 0.825 1.201 1.201 1.498 2.121 1.212 5.004-0.673 6.771-1.61 1.503-3.938 1.84-5.896 0.841-1.414-0.724-2.412-2.048-2.732-3.635-0.101-0.505-0.101-1.447 0-1.947 0.095-0.494 0.224-0.847 0.466-1.341 0.965-1.941 3.058-3.074 5.212-2.816v0z"></path>
</svg>
