<!-- Generated by IcoMoon.io -->
<svg version="1.1" xmlns="http://www.w3.org/2000/svg" viewBox="0 0 32 32">
<title>fsn</title>
<path fill="#1e9ada" d="M16 0c8.837 0 16 7.163 16 16s-7.163 16-16 16c-8.837 0-16-7.163-16-16v0c0-8.837 7.163-16 16-16v0 0z"></path>
<path fill="#fefefe" d="M12.428 8.936c-3.969 6.087-6.406 14.539-7.357 17.411-0.535-5.42 2.288-12.798 4.355-17.159-0.951 0.044-6.019 0.401-8.828 3.303 0 0 1.516-4.659 10.271-6.072l0.029-0.060c6.851-10.016 11.993-4.033 11.993-4.033-3.122-0.522-5.841 1.042-8.16 3.586 1.129-0.044 8.442-0.133 10.548 5.655 0 0-4.237-3.035-12.856-2.637v0zM17.378 15.915c-0.001 0-0.003 0-0.004 0-1.759 0-3.185 1.426-3.185 3.185s1.426 3.185 3.185 3.185c1.759 0 3.185-1.426 3.185-3.185v0c0-0.002 0-0.005 0-0.007 0-1.755-1.423-3.177-3.177-3.177-0.001 0-0.002 0-0.003 0h0z"></path>
</svg>
