<!-- Generated by IcoMoon.io -->
<svg version="1.1" xmlns="http://www.w3.org/2000/svg" viewBox="0 0 32 32">
<title>ftc</title>
<path fill="#384a53" d="M7.695 26.338s2.18-2.18 1.060-2.859c-0.28-0.58-0.56-0.1-0.84 0.94-0.16 0.68-0.3-1.28 0.12-1.42 0.4-0.16-1.4-1.76-1.76-1.9-0.38-0.16 0.4-0.52 1.4 0.42 0.98 0.94 0.96 1.2 1.080 1.060s0.040-0.64-0.14-0.86c-0.18-0.22-1-1.98-0.88-1.94s1.26 1.3 1.58 2.14c0.34 0.82 0.32-1.56 0.32-1.56s0.26-0.96 0.38-1.24 0.36 0.64 0.36 0.64 0.18 1.12 0.72 1.52 0.4-0.54 0.4-0.54l-0.2-4.499 0.94-0.84s-0.1 3.539 0.46 3.339 0.66-1.76 0.66-1.76 0.38-2.54 0.36-2.68 0.48-0.42 0.48-0.42l1.26-1.14s-0.040 1.26 0.48 1.52c0.52 0.28 0.54-1.3 0.54-1.3l0.18-1.54s6.839-5.499 8.218-5.819c1.2 1.22 1.18 3.239 0.68 3.839-0.48 0.6-4.919 6.579-4.919 6.579s-1.96-0.14-2.2 0.42c-0.24 0.56 1.64 0.42 1.64 0.42l-3.099 4.119c-2.16-0.86-5.139 0.64-5.479 1.18 0 0-0.24 0.34 0.48 0.38s5.839 0.080 5.839 0.080l-2.1 0.56s-4.079-0.040-4.439-0.24-0.14 0.34-0.14 0.34 0.72 1.26 2.16 1.58c1.44 0.32-1.44-0.16-1.44-0.16s-1.14-0.28-1.46-1.16c-0.32-0.86-0.38 0.24-0.38 0.24s0.58 1.34 1.58 1.62c0.98 0.28-0.58 0.020-0.58 0.020s-1.34-0.52-1.46-0.86c-0.12-0.34-0.34 0.38-0.34 0.38s-1.18 1.44-1.5 1.48c-0.32 0.040-0.020-0.080-0.020-0.080z"></path>
<path fill="#fff" d="M14.434 18.18s6.659-8.079 8.998-9.718c0.1-0.060 0.080 0.060 0.080 0.060s-4.419 5.739-8.838 9.718c-0.5 0.46-0.24-0.060-0.24-0.060z"></path>
</svg>
