<!-- Generated by IcoMoon.io -->
<svg version="1.1" xmlns="http://www.w3.org/2000/svg" viewBox="0 0 32 32">
<title>ftm</title>
<path fill="#13b5ec" d="M32 16c0 8.837-7.163 16-16 16s-16-7.163-16-16c0-8.837 7.163-16 16-16s16 7.163 16 16z"></path>
<path fill="#fff" d="M17.2 12.9l3.6-2.1v4.2zM20.8 21.9l-4.8 2.8-4.8-2.8v-4.9l4.8 2.8 4.8-2.8zM11.2 10.8l3.6 2.1-3.6 2.1zM16.6 13.9l3.6 2.1-3.6 2.1zM15.4 18.1l-3.6-2.1 3.6-2.1zM20.2 9.8l-4.2 2.4-4.2-2.4 4.2-2.5zM10 9.4v13.1l6 3.4 6-3.4v-13.1l-6-3.4z"></path>
</svg>
