<!-- Generated by IcoMoon.io -->
<svg version="1.1" xmlns="http://www.w3.org/2000/svg" viewBox="0 0 32 32">
<title>ftt</title>
<path fill="#02a6c2" d="M9.047 2.090q11.475-0.004 22.952 0 0.004 3.709 0 7.417-11.476 0.004-22.952 0-0.004-3.709 0-7.417z"></path>
<path fill="#5fcade" d="M0.010 12.298q3.702-0.019 7.406 0 0.019 3.702 0 7.406-3.703 0.019-7.406 0.001-0.019-3.703 0-7.406z"></path>
<path fill="#5fcade" d="M9.052 12.298q8.283-0.018 16.564 0 0.018 3.702 0 7.406-8.283 0.017-16.564 0-0.017-3.702 0-7.406z"></path>
<path fill="#abebf4" d="M9.059 22.508q3.696-0.040 7.391 0 0.038 3.694 0.001 7.391-3.696 0.036-7.391-0.001-0.038-3.693-0.001-7.389z"></path>
</svg>
