<!-- Generated by IcoMoon.io -->
<svg version="1.1" xmlns="http://www.w3.org/2000/svg" viewBox="0 0 32 32">
<title>fxs</title>
<path fill="#000" d="M31.965 16c0 8.817-7.148 15.965-15.965 15.965s-15.965-7.148-15.965-15.965c0-8.817 7.148-15.965 15.965-15.965s15.965 7.148 15.965 15.965z"></path>
<path fill="#fff" d="M8.924 6.902l-1.070 1.070 1.354 1.354 1.357 1.354-0.112 0.331c-0.145 0.435-0.204 0.798-0.204 1.28 0 1.57 0.822 2.907 2.277 3.702 0.585 0.319 1.591 0.68 2.706 0.967 2.176 0.559 2.51 0.656 2.939 0.858 0.585 0.278 0.875 0.58 0.996 1.035 0.053 0.198 0.050 0.642-0.003 0.855-0.136 0.517-0.577 1.038-1.124 1.322-0.739 0.387-2.025 0.494-2.995 0.245-0.361-0.089-0.872-0.34-1.13-0.55-0.523-0.432-0.931-1.177-1.112-2.037-0.030-0.136-0.053-0.251-0.056-0.257-0.009-0.012-3.037 0.284-3.051 0.302-0.012 0.009-0.003 0.133 0.018 0.275 0.095 0.683 0.334 1.496 0.609 2.061l0.16 0.328-1.316 1.316-1.313 1.316 2.144 2.144 2.711-2.711 0.234 0.098c1.236 0.52 3.090 0.683 4.888 0.423 0.432-0.062 1.056-0.21 1.384-0.331l0.195-0.071 2.593 2.593 2.144-2.144-2.404-2.404 0.151-0.308c0.313-0.63 0.444-1.165 0.47-1.901 0.047-1.404-0.316-2.463-1.144-3.335-0.863-0.908-1.836-1.339-4.583-2.031-1.937-0.485-2.771-0.819-3.102-1.239-0.328-0.414-0.358-0.993-0.071-1.416 0.166-0.245 0.574-0.509 1.017-0.656 0.5-0.169 1.339-0.245 1.963-0.18 1.316 0.139 1.978 0.701 2.268 1.931 0.035 0.151 0.068 0.278 0.071 0.284 0.006 0.009 2.147-0.068 2.788-0.101l0.367-0.018-0.021-0.257c-0.041-0.523-0.145-0.991-0.334-1.478l-0.104-0.275 1.334-1.337 1.334-1.334-1.070-1.073-1.073-1.070-2.7 2.7-0.328-0.124c-0.807-0.302-1.588-0.435-2.738-0.467-1.257-0.033-2.36 0.13-3.205 0.473l-0.313 0.127-2.72-2.708z"></path>
</svg>
