<!-- Generated by IcoMoon.io -->
<svg version="1.1" xmlns="http://www.w3.org/2000/svg" viewBox="0 0 32 32">
<title>gbx</title>
<path fill="#1666ae" d="M32 16c0 8.837-7.163 16-16 16s-16-7.163-16-16c0-8.837 7.163-16 16-16s16 7.163 16 16z"></path>
<path fill="#7290c9" d="M9.638 27.619c0.233 0.096 0.499-0.015 0.594-0.248 0.096-0.233-0.015-0.499-0.248-0.594-0.233-0.096-0.499 0.015-0.594 0.248-0.058 0.141-0.041 0.301 0.044 0.426l-1.133 1.133h-2.171c0.116 0.091 0.233 0.18 0.352 0.269h1.921l1.235-1.234zM2.738 21.745c0.232-0.097 0.342-0.364 0.244-0.595s-0.364-0.342-0.595-0.244-0.342 0.364-0.244 0.595c0.059 0.14 0.183 0.242 0.333 0.271l-0.020 1.147-0.573 0.582c0.044 0.083 0.088 0.165 0.134 0.248l0.701-0.713 0.020-1.292zM8.865 4.087c-0.141 0.209-0.084 0.492 0.124 0.632s0.492 0.084 0.632-0.124c0.141-0.209 0.084-0.492-0.124-0.632-0.127-0.084-0.287-0.101-0.428-0.044l-0.927-0.899-1.476-0.010c-0.12 0.087-0.241 0.177-0.358 0.266l1.732 0.013 0.824 0.797zM9.181 6.225c-0.059 0-0.118 0.012-0.173 0.033l-0.927-0.899-3.683-0.015v0.269l3.579 0.015 0.826 0.796c-0.141 0.209-0.084 0.492 0.124 0.632s0.492 0.084 0.632-0.124c0.141-0.209 0.084-0.492-0.124-0.632-0.076-0.049-0.164-0.076-0.255-0.076v0zM8.954 23.498c-0.251 0-0.456 0.205-0.454 0.456 0 0.090 0.027 0.178 0.077 0.252l-0.826 0.797-3.58 0.015v0.269l3.683-0.015 0.927-0.897c0.233 0.095 0.499-0.017 0.594-0.248 0.095-0.233-0.017-0.499-0.248-0.594-0.054-0.023-0.111-0.035-0.172-0.035zM22.849 10.815l0.191-0.191-0.193-0.193 0.001 0.381 0.001 0.003zM21.481 9.066l-2.533-0.020c-0.097-0.232-0.364-0.342-0.595-0.244s-0.342 0.364-0.244 0.595c0.097 0.232 0.364 0.342 0.595 0.244 0.14-0.059 0.242-0.183 0.271-0.332l2.388 0.020 1.178 1.178v-0.38l-1.060-1.061zM15.517 10.085c0.060 0 0.119-0.012 0.174-0.035l0.8 0.791h3.044v-0.27h-2.94l-0.698-0.69c0.141-0.21 0.084-0.494-0.125-0.635s-0.494-0.084-0.635 0.125c-0.141 0.21-0.084 0.494 0.125 0.635 0.074 0.051 0.164 0.078 0.255 0.078v0z"></path>
<path fill="#7290c9" d="M21.444 3.433l0.020 2.822 1.076 1.092v6.189h0.31l-0.004-2.724v-0.38l-0.005-3.18-1.114-1.114-0.020-2.679c0.247-0.049 0.407-0.288 0.358-0.534-0.049-0.247-0.288-0.407-0.534-0.358-0.247 0.049-0.407 0.288-0.358 0.534 0.028 0.148 0.131 0.273 0.27 0.332v0zM26.034 9.388c0.141-0.209 0.084-0.492-0.124-0.632s-0.492-0.084-0.632 0.124c-0.141 0.209-0.084 0.492 0.124 0.632 0.127 0.084 0.287 0.101 0.428 0.044l1.382 1.147 3.876 0.015c-0.032-0.090-0.064-0.18-0.097-0.269l-3.675-0.014-1.281-1.047z"></path>
<path fill="#7290c9" d="M30.866 11.502l-4.192-0.015-1.467-1.211c0.141-0.209 0.084-0.492-0.124-0.632s-0.492-0.084-0.632 0.124c-0.141 0.209-0.084 0.492 0.124 0.632 0.127 0.084 0.287 0.101 0.428 0.044l1.569 1.312 4.285 0.015c-0.023-0.088-0.020-0.182 0.009-0.269v0zM26.168 7.043c0.14-0.209 0.084-0.492-0.124-0.631s-0.492-0.084-0.631 0.124c-0.14 0.209-0.084 0.492 0.124 0.631 0.125 0.084 0.285 0.101 0.426 0.044l1.254 1.132 2.826 0.019c-0.049-0.091-0.1-0.18-0.151-0.27l-2.572-0.019-1.153-1.029zM2.833 9.080c-0.247 0.049-0.408 0.287-0.36 0.534s0.287 0.408 0.534 0.36c0.247-0.049 0.408-0.287 0.36-0.534-0.029-0.15-0.131-0.274-0.271-0.333l-0.088-1.687-0.3-0.303c-0.051 0.077-0.101 0.154-0.151 0.23l0.189 0.189 0.087 1.544zM19.146 26.267c-0.252 0-0.456 0.204-0.456 0.456 0 0.091 0.027 0.179 0.077 0.253l-0.471 0.553h-3.932l-0.965 1.069c-0.233-0.096-0.499 0.015-0.594 0.248-0.096 0.233 0.015 0.499 0.248 0.594s0.499-0.015 0.594-0.248c0.058-0.141 0.041-0.301-0.044-0.426l0.864-0.968h3.932l0.572-0.655c0.233 0.096 0.499-0.015 0.594-0.248 0.096-0.233-0.015-0.499-0.248-0.594-0.052-0.022-0.113-0.033-0.172-0.033v0zM18.36 2.939l0.864 0.968c-0.141 0.209-0.084 0.492 0.124 0.632s0.492 0.084 0.632-0.124c0.141-0.209 0.084-0.492-0.124-0.632-0.127-0.084-0.287-0.101-0.428-0.044l-0.965-1.069h-3.933l-0.471-0.553c0.141-0.209 0.084-0.492-0.124-0.632s-0.492-0.084-0.632 0.124-0.084 0.492 0.124 0.632c0.127 0.084 0.287 0.101 0.428 0.044l0.572 0.655 3.933-0.001zM29.192 18.083c-0.178 0.178-0.178 0.466 0 0.644 0.064 0.064 0.145 0.108 0.234 0.124l0.017 1.655-1.332 1.125-0.051 1.522c-0.232 0.097-0.342 0.364-0.244 0.595s0.364 0.342 0.595 0.244c0.232-0.097 0.342-0.364 0.244-0.595-0.059-0.14-0.183-0.242-0.332-0.271l0.051-1.377 1.332-1.125-0.017-1.8c0.232-0.097 0.342-0.364 0.244-0.595s-0.364-0.342-0.595-0.244c-0.055 0.023-0.105 0.056-0.147 0.099v0zM8.873 26.749c0.233 0.095 0.498-0.017 0.593-0.25s-0.017-0.498-0.25-0.593c-0.233-0.095-0.498 0.017-0.593 0.25-0.058 0.141-0.041 0.301 0.044 0.426l-1.133 1.133h-2.418c0.097 0.091 0.196 0.18 0.296 0.269h2.225l1.236-1.235z"></path>
<path fill="#7290c9" d="M15.672 26.38c0.049 0.247 0.288 0.407 0.534 0.358 0.247-0.049 0.407-0.288 0.358-0.534-0.049-0.247-0.288-0.407-0.534-0.358-0.148 0.029-0.274 0.131-0.332 0.271h-2.408l-1.12 1.12v-2.854l0.947-0.936-0.018-2.947c0.233-0.097 0.342-0.364 0.246-0.596-0.097-0.233-0.364-0.342-0.596-0.246-0.233 0.097-0.342 0.364-0.246 0.596 0.059 0.141 0.183 0.243 0.333 0.271l0.018 2.802-0.987 0.946-0.004 3.269-0.001 0.001 0.001 0.001-0.004 2.839h0.31v-2.769l1.238-1.238 2.264 0.001zM12.173 3.113l0.001 0.001 0.004 3.269 0.987 0.945-0.018 2.802c-0.247 0.049-0.407 0.288-0.358 0.535s0.288 0.407 0.535 0.358c0.247-0.049 0.407-0.288 0.358-0.535-0.029-0.148-0.131-0.274-0.271-0.332l0.018-2.947-0.947-0.936v-2.854l1.12 1.12h2.409c0.097 0.232 0.364 0.342 0.595 0.244s0.342-0.364 0.244-0.595c-0.097-0.232-0.364-0.342-0.595-0.244-0.14 0.059-0.242 0.183-0.271 0.333h-2.264l-1.238-1.236v-2.652c-0.104 0.023-0.207 0.047-0.31 0.073l0.004 2.648-0.003 0.003zM22.538 26.574c-0.104-0.229-0.374-0.33-0.603-0.225-0.229 0.104-0.33 0.374-0.225 0.603 0.104 0.229 0.374 0.33 0.603 0.225 0.138-0.063 0.236-0.191 0.261-0.34l2.575 0.001 1.277 1.288c0.068-0.059 0.136-0.118 0.202-0.177l-1.371-1.377-2.72 0.003zM25.106 28.232c-0.183-0.172-0.471-0.163-0.644 0.020-0.172 0.183-0.163 0.471 0.020 0.644 0.183 0.172 0.471 0.163 0.644-0.020 0.061-0.065 0.102-0.148 0.118-0.238h0.557c0.111-0.087 0.221-0.175 0.332-0.265l-0.923 0.001c-0.026-0.054-0.060-0.101-0.104-0.142v0zM18.048 25.038c0.172-0.183 0.163-0.471-0.020-0.644-0.067-0.061-0.148-0.102-0.238-0.118l0.001-2.7-0.268-0.005 0.004 2.739c-0.229 0.105-0.33 0.375-0.225 0.603 0.105 0.229 0.375 0.33 0.603 0.225 0.054-0.023 0.102-0.059 0.143-0.101v0zM4.047 23.804c0.172-0.183 0.163-0.471-0.020-0.644-0.183-0.172-0.471-0.163-0.644 0.020-0.172 0.183-0.163 0.471 0.020 0.644 0.065 0.061 0.148 0.102 0.238 0.118l-0.049 2.141c0.084 0.105 0.172 0.209 0.26 0.311l0.051-2.488c0.054-0.024 0.102-0.059 0.143-0.102zM27.88 6.063c-0.183-0.173-0.471-0.163-0.644 0.020s-0.163 0.471 0.020 0.644c0.183 0.173 0.471 0.163 0.644-0.020 0.061-0.067 0.102-0.148 0.118-0.238h0.819c-0.067-0.088-0.133-0.177-0.201-0.265l-0.654 0.001c-0.024-0.054-0.059-0.101-0.102-0.142zM25.975 4.428c-0.183-0.172-0.471-0.163-0.643 0.020s-0.163 0.471 0.020 0.643 0.471 0.163 0.643-0.020c0.061-0.065 0.102-0.148 0.116-0.237l1.332 0.001c-0.087-0.090-0.175-0.178-0.265-0.266l-1.103 0.003c-0.023-0.054-0.058-0.102-0.101-0.143v0zM9.66 3.546c0.008 0.251 0.218 0.449 0.47 0.442 0.251-0.008 0.449-0.218 0.442-0.47-0.008-0.251-0.218-0.449-0.47-0.442-0.091 0.003-0.178 0.032-0.252 0.086l-1.312-1.313c-0.082 0.044-0.163 0.087-0.244 0.133l1.395 1.391c-0.020 0.055-0.031 0.114-0.028 0.173zM3.732 6.872c-0.173 0.183-0.163 0.471 0.020 0.644s0.471 0.163 0.644-0.020c0.173-0.183 0.163-0.471-0.020-0.644-0.067-0.061-0.148-0.102-0.238-0.118l0.001-1.457c-0.090 0.1-0.178 0.201-0.266 0.302l0.003 1.189c-0.054 0.026-0.102 0.060-0.143 0.104v0zM24.803 22.907l-2.719 0.004c-0.104-0.229-0.374-0.33-0.603-0.225-0.229 0.104-0.33 0.374-0.225 0.603 0.104 0.229 0.374 0.33 0.603 0.225 0.138-0.063 0.236-0.191 0.261-0.34h2.575l1.318 1.329-2.769 0.001c-0.104-0.229-0.374-0.33-0.603-0.225-0.229 0.104-0.33 0.374-0.225 0.603s0.374 0.33 0.603 0.225c0.138-0.063 0.236-0.191 0.261-0.34l6.092 0.001c0.058-0.088 0.115-0.178 0.172-0.266l-3.15 0.001-1.591-1.595zM7.891 10.743c0.172 0.183 0.461 0.193 0.644 0.020 0.183-0.172 0.193-0.461 0.020-0.644-0.172-0.183-0.461-0.193-0.644-0.020-0.044 0.041-0.078 0.090-0.104 0.145l-2.769-0.001 1.318-1.329 2.575-0.001c0.041 0.248 0.275 0.416 0.524 0.375s0.416-0.275 0.375-0.524-0.275-0.416-0.524-0.375c-0.15 0.024-0.276 0.122-0.34 0.26l-2.719-0.004-1.587 1.595h-3.574c-0.035 0.088-0.068 0.178-0.1 0.266l6.787-0.001c0.013 0.090 0.054 0.173 0.116 0.238v0zM5.504 23.845c0.061-0.065 0.102-0.148 0.118-0.238l1.126 0.001c0.076 0.239 0.33 0.374 0.571 0.298 0.239-0.076 0.374-0.33 0.298-0.571-0.076-0.239-0.33-0.374-0.571-0.298-0.145 0.045-0.256 0.159-0.3 0.303l-1.16 0.004c-0.104-0.229-0.374-0.33-0.603-0.225-0.229 0.104-0.33 0.374-0.225 0.603 0.104 0.229 0.374 0.33 0.603 0.225 0.052-0.024 0.101-0.059 0.142-0.102v0zM7.534 6.748c-0.201 0-0.379 0.132-0.436 0.325l-1.16 0.004c-0.104-0.229-0.374-0.33-0.603-0.225s-0.33 0.374-0.225 0.603c0.104 0.229 0.374 0.33 0.603 0.225 0.138-0.063 0.236-0.191 0.261-0.34l1.126 0.001c0.076 0.239 0.332 0.374 0.571 0.298s0.374-0.332 0.298-0.571c-0.060-0.192-0.236-0.32-0.435-0.32v0zM21.917 18.161c-0.233-0.096-0.499 0.015-0.594 0.248-0.096 0.233 0.015 0.499 0.248 0.594 0.233 0.096 0.499-0.015 0.594-0.248 0.058-0.141 0.041-0.301-0.044-0.426l1.219-1.189 7.512-0.015v-0.269l-7.616 0.015-1.32 1.29zM21.733 18.939c-0.195 0-0.352-0.157-0.352-0.352s0.157-0.352 0.352-0.352c0.195 0 0.352 0.157 0.352 0.352 0 0 0 0 0 0 0 0.195-0.157 0.352-0.352 0.352zM6.015 22.118l2.757 0.020c0.097 0.232 0.364 0.342 0.595 0.244s0.342-0.364 0.244-0.595c-0.097-0.232-0.364-0.342-0.595-0.244-0.14 0.059-0.242 0.183-0.271 0.332l-2.532-0.020-1.492-1.7h-4.156c0.028 0.106 0.058 0.211 0.088 0.316h3.963l1.399 1.647zM8.955 21.718c0.137-0.137 0.36-0.137 0.498 0 0.137 0.137 0.137 0.36 0 0.498-0.137 0.137-0.36 0.137-0.498 0-0.137-0.138-0.138-0.36 0-0.498 0 0 0 0 0 0z"></path>
<path fill="#7290c9" d="M21.211 17.458l1.219-1.189 3.579-0.015v-0.269l-3.683 0.015-1.321 1.292c-0.233-0.096-0.499 0.015-0.594 0.248-0.096 0.233 0.015 0.499 0.248 0.594 0.233 0.096 0.499-0.015 0.594-0.248 0.059-0.141 0.044-0.301-0.042-0.428v0zM20.844 18.070c-0.195 0-0.352-0.157-0.352-0.352s0.157-0.352 0.352-0.352c0.195 0 0.352 0.157 0.352 0.352 0 0 0 0 0 0 0 0.195-0.157 0.352-0.352 0.352 0 0 0 0 0 0zM11.896 17.852l0.701-0.652 3.558 0.006 1.251-1.206-0.104-0.248-1.263 1.201h-3.566l-0.782 0.732c-0.233-0.096-0.499 0.015-0.595 0.248s0.015 0.499 0.248 0.595c0.233 0.096 0.499-0.015 0.595-0.248 0.058-0.142 0.042-0.303-0.044-0.429v0zM11.529 18.463c-0.195 0-0.352-0.157-0.352-0.352s0.157-0.352 0.352-0.352c0.195 0 0.351 0.157 0.352 0.351 0 0.196-0.157 0.353-0.352 0.353 0 0 0 0 0 0v0zM9.111 12.015c-0.292-0.119-0.625 0.019-0.744 0.311s0.019 0.625 0.311 0.744 0.625-0.019 0.744-0.311c0.072-0.177 0.052-0.376-0.054-0.535l0.506-0.381-0.156-0.31-0.607 0.483zM8.908 12.936c-0.214 0-0.387-0.173-0.387-0.387s0.173-0.387 0.387-0.387 0.387 0.173 0.387 0.387c0 0.214-0.173 0.387-0.387 0.387 0 0.001 0 0.001 0 0v0zM2.607 18.339h1.036v-0.31h-0.849l-1.51-1.512h0.684v-0.372h-1.947c0.001 0.132 0.004 0.262 0.008 0.393h0.84l1.74 1.801zM3.27 14.862l0.041-0.31-1.903-1.905h-1.037c-0.018 0.083-0.035 0.165-0.051 0.248h0.983l1.967 1.966zM30.866 11.502c-0.083 0.25 0.051 0.52 0.301 0.603 0.109 0.036 0.228 0.032 0.333-0.012-0.077-0.307-0.163-0.611-0.257-0.91-0.174 0.027-0.32 0.15-0.376 0.319zM15.007 18.401h2.257v0.289h-2.257v-0.289z"></path>
<path fill="#fffffa" d="M18.953 9.935v2.381h-1.98v9.748h11.116v-12.129h-9.135zM25.508 19.25h-5.956v-6.5h5.956v6.5z"></path>
<path fill="#fff" d="M11.82 19.704v2.359h-3.085c0 0-3.116 0.041-4.938-2.764-0.968-1.491-1.262-3.322-0.81-5.042 0.444-1.69 1.679-3.692 4.961-4.324h7.224v2.258h-6.374c0 0-3.361 1.155-3.318 3.942 0.019 1.226 0.709 2.337 1.772 2.95 0.479 0.275 1.002 0.463 1.546 0.558l3.022 0.061z"></path>
<path fill="#fff" d="M8.797 14.862v2.214h4.015v4.988h2.36v-7.203h-6.376z"></path>
</svg>
