<!-- Generated by IcoMoon.io -->
<svg version="1.1" xmlns="http://www.w3.org/2000/svg" viewBox="0 0 32 32">
<title>gls</title>
<path fill="#367ec7" d="M20.608 3.83c0 0.915-0.104 1.81-0.258 2.579-0.078 0.39-0.174 0.784-0.275 1.142l-0.342 1.075c-0.264 0.797-0.736 1.651-1.23 2.314-0.403 0.539-0.808 1.074-1.304 1.533l-0.779 0.638c-0.613 0.459-1.267 0.89-1.965 1.213-0.426 0.197-0.862 0.314-1.323 0.464-0.794 0.259-1.563 0.344-2.386 0.451-0.885 0.115-1.88 0.074-2.787 0.078l-1.621-0.082c-0.909-0.101-0.89-0.022-1.952-0.288-0.558-0.139-1.181-0.347-1.654-0.586-0.138-0.069-0.218-0.118-0.349-0.189-0.224-0.122-0.712-0.542-0.84-0.581-0.072-0.022-0.19-0.050-0.19 0.024 0 0.661 0.901 2.13 1.411 2.701l0.75 0.781c0.062 0.061 0.077 0.066 0.139 0.115l0.714 0.563c0.403 0.302 0.848 0.531 1.28 0.79 0.114 0.067 0.218 0.112 0.338 0.173l0.25 0.12c1.31 0.605 2.57 0.998 3.989 1.286 0.261 0.053 0.622 0.141 0.886 0.163 0.011 0.514-0.056 1.019-0.142 1.531-0.122 0.736-0.318 1.368-0.523 2.059-0.269 0.904-0.95 2.144-1.515 2.853-0.275 0.344-0.525 0.608-0.864 0.894-0.082 0.069-0.152 0.123-0.238 0.187-1.043 0.781-1.411 0.899-2.731 0.899-0.666 0-1.366-0.144-1.998-0.328-0.282-0.082-0.565-0.23-0.794-0.368-0.173-0.104-0.566-0.402-0.725-0.438l-0.234 0.218c0.048 0.451 0.509 1.397 0.734 1.803 1.098 1.973 3.272 2.373 5.426 2.373 0.138 0 0.283 0.011 0.418-0.008 0.365-0.050 0.808-0.048 1.176-0.101 0.53-0.077 0.955-0.146 1.435-0.266 1.338-0.336 2.413-0.918 3.589-1.517l0.546-0.306c0.189-0.112 0.355-0.197 0.542-0.309l1.070-0.63c0.189-0.114 0.347-0.208 0.531-0.318l2.371-1.486c0.093-0.059 0.162-0.112 0.254-0.17l2.621-1.662c0.616-0.389 1.274-0.747 1.944-1.035 0.114-0.048 0.186-0.080 0.299-0.125 0.677-0.269 1.251-0.518 2.062-0.518 1.149 0 1.784 0.379 2.342 1.288 0.347 0.566 0.542 1.363 0.685 2.037 0.086 0.408 0.050 0.36 0.347 0.56l0.174-0.365c0.045-0.134 0.102-0.27 0.149-0.419 0.091-0.291 0.176-0.547 0.261-0.845 0.403-1.405 0.501-3.046-0.093-4.421-0.213-0.494-0.506-0.954-0.915-1.296l-0.046-0.038c-0.022-0.019-0.026-0.022-0.045-0.040-0.416-0.379-0.914-0.64-1.514-0.84-0.094-0.032-0.122-0.032-0.226-0.058-2.008-0.498-3.902-0.174-5.798 0.579-0.189 0.075-1.005 0.443-1.134 0.454 0.022-0.085 0.24-0.459 0.301-0.55 0.118-0.179 0.219-0.35 0.322-0.528 0.453-0.787 0.771-1.52 1.096-2.365 0.165-0.432 0.299-0.834 0.448-1.282 0.288-0.866 0.534-1.776 0.686-2.774 0.416-2.726 0.528-6.699-0.957-9.144-0.386-0.635-0.715-1.014-1.179-1.544-0.158-0.181-0.358-0.323-0.525-0.498-0.080-0.085-0.074-0.117-0.221-0.12-0.062 0.266-0.080 0.275-0.040 0.55 0.093 0.656 0.126 1.285 0.126 1.946v0 0z"></path>
<path fill="#f72222" d="M9.462 2.864c-0.083-0.080-0.206-0.299-0.258-0.424-0.085-0.206 0.12-0.242 0.294-0.333 0.286-0.15 0.61-0.291 0.939-0.395 1.613-0.504 3.446-0.16 4.714 0.882 0.422 0.347 0.651 0.45 0.459 0.691-0.387 0.485-0.309 0.336-0.872-0.136-0.166-0.139-0.374-0.286-0.581-0.411-1.125-0.68-2.83-0.746-4.034-0.174-0.157 0.074-0.539 0.296-0.662 0.301v0 0zM5.718 6.44c0 1.33 0.53 2.886 1.346 3.93 0.123 0.158 0.232 0.262 0.352 0.413 0.283 0.35 0.352 0.448-0.178 0.864l-1.341 0.901c-0.267 0.158-0.936 0.546-1.15 0.722-0.085 0.070-0.152 0.104-0.163 0.234 0.323 0.171 0.958 0.114 1.39 0.114 0.698 0 1.299-0.027 1.986-0.027l1.928-0.114c0.531-0.026 1.302-0.118 1.806-0.206 1.16-0.203 2.419-0.542 3.43-1.136 0.389-0.227 0.994-0.646 1.296-0.973 0.051-0.054 0.072-0.080 0.123-0.131 0.085-0.085 0.179-0.166 0.254-0.256 0.234-0.278 0.459-0.565 0.65-0.883 1.003-1.675 1.314-3.317 0.798-5.256-0.181-0.682-0.581-1.453-1.002-2.034l-0.97-1.072c-0.253-0.226-0.917-0.661-1.227-0.816-1.448-0.723-2.851-0.899-4.451-0.512-0.6 0.146-1.173 0.378-1.701 0.682-0.565 0.325-1.334 0.939-1.72 1.456-0.898 1.203-1.458 2.563-1.458 4.102v0 0z"></path>
<path fill="#fff" d="M9.462 2.864c0.123-0.005 0.506-0.227 0.662-0.302 1.202-0.571 2.907-0.506 4.034 0.174 0.208 0.125 0.414 0.272 0.581 0.411 0.563 0.472 0.485 0.621 0.872 0.136 0.192-0.24-0.037-0.344-0.459-0.691-1.269-1.040-3.102-1.384-4.715-0.88-0.33 0.102-0.653 0.245-0.939 0.395-0.173 0.091-0.379 0.125-0.294 0.333 0.053 0.125 0.176 0.344 0.259 0.424v0 0z"></path>
</svg>
