<!-- Generated by IcoMoon.io -->
<svg version="1.1" xmlns="http://www.w3.org/2000/svg" viewBox="0 0 32 32">
<title>gno</title>
<path fill="#00a6c4" d="M21.126 12.832l-0.463 0.463c0.229 0.348 0.366 0.774 0.366 1.233 0 0.275-0.049 0.539-0.139 0.783l0.005-0.016c-0.327 0.889-1.166 1.511-2.151 1.511-0.274 0-0.537-0.048-0.781-0.137l0.016 0.005c-0.177-0.064-0.33-0.142-0.471-0.236l0.008 0.005-1.484 1.484-1.295-1.305c-0.368 0.249-0.822 0.397-1.311 0.397-0.281 0-0.55-0.049-0.8-0.139l0.017 0.005c-0.911-0.331-1.55-1.189-1.55-2.197 0-0.284 0.051-0.557 0.144-0.809l-0.005 0.016c0.070-0.197 0.159-0.367 0.268-0.523l-0.005 0.007-0.558-0.558-0.105 0.179c-0.562 0.905-0.895 2.003-0.895 3.179 0 3.362 2.723 6.089 6.084 6.095h0.011c0.001 0 0.002 0 0.003 0 3.364 0 6.092-2.727 6.092-6.092 0-1.169-0.329-2.26-0.899-3.187l0.015 0.026z"></path>
<path fill="#00a6c4" d="M12.179 14.063c-0.158 0.208-0.253 0.472-0.253 0.758v0c0.001 0.685 0.557 1.241 1.242 1.242h0c0.002 0 0.004 0 0.006 0 0.285 0 0.548-0.099 0.754-0.265l-0.002 0.002z"></path>
<path fill="#00a6c4" d="M18.274 15.695c0.19 0.132 0.426 0.211 0.68 0.211 0.005 0 0.010-0 0.015-0h-0.001c0.686-0.001 1.241-0.557 1.242-1.242v-0c0-0.002 0-0.005 0-0.007 0-0.257-0.079-0.495-0.213-0.692l0.003 0.004z"></path>
<path fill="#00a6c4" d="M16.053 17l-5.032-5.053 0.2-0.211c1.188-1.265 2.871-2.053 4.739-2.053 0.007 0 0.014 0 0.020 0h0.009c1.919 0.003 3.644 0.833 4.837 2.152l0.005 0.006 0.189 0.211zM11.842 11.947l4.211 4.221 4.158-4.137c-1.077-1.081-2.565-1.752-4.209-1.758h-0.012c-0.010-0-0.021-0-0.033-0-1.601 0-3.054 0.639-4.116 1.675l0.001-0.001z"></path>
<path fill="#00a6c4" d="M10.505 20.253l-0.589-0.042c-2.505-0.158-5.958-0.779-8.189-2.789-1.379-1.232-1.642-2.4-1.653-2.453l-0.074-0.358h9.116l-0.053 0.337c-0.040 0.278-0.063 0.6-0.063 0.926v0c-0 0.007-0 0.016-0 0.024 0 1.439 0.436 2.775 1.184 3.884l-0.016-0.025z"></path>
<path fill="#00a6c4" d="M21.537 20.253l0.326-0.495c0.732-1.080 1.168-2.412 1.168-3.847 0-0.006 0-0.012-0-0.018v0.001c0-0.002 0-0.004 0-0.006 0-0.332-0.023-0.658-0.067-0.978l0.004 0.037-0.042-0.337h9.116l-0.074 0.358c-0.011 0.053-0.274 1.221-1.642 2.453-2.232 2.011-5.695 2.632-8.2 2.789z"></path>
</svg>
