<!-- Generated by IcoMoon.io -->
<svg version="1.1" xmlns="http://www.w3.org/2000/svg" viewBox="0 0 32 32">
<title>grin</title>
<path fill="#000" d="M32 16c0 8.837-7.163 16-16 16s-16-7.163-16-16c0-8.837 7.163-16 16-16s16 7.163 16 16z"></path>
<path fill="#fef102" d="M30.258 16c0 7.893-6.398 14.291-14.291 14.291s-14.291-6.398-14.291-14.291c0-7.893 6.398-14.291 14.291-14.291s14.291 6.398 14.291 14.291z"></path>
<path fill="#000" d="M22.735 10.639c-0.335-0.771-0.653-2.279-1.525-2.614-1.122-0.436-1.826 2.396-1.994 3.116h-0.168c-0.285-1.223-0.67-2.965-2.010-3.351-0.62 2.614 0.653 5.445 1.843 7.707 1.273-0.603 1.893-2.513 2.010-3.853h0.168l1.34 4.021c1.072-0.302 1.458-1.374 1.843-2.346 0.838-2.078 1.541-4.641 1.005-6.869-1.608 0.452-2.094 2.764-2.513 4.188zM6.651 16c1.441-0.687 2.128-2.865 2.346-4.356h0.168c0.168 0.72 0.62 2.58 1.525 2.697 1.139 0.151 1.742-2.396 1.826-3.2h0.168c0.369 1.257 0.754 2.898 2.010 3.518 0.469-1.96-0.084-4.038-0.804-5.864-0.184-0.469-0.553-1.742-1.206-1.742-1.056 0-1.659 2.798-1.843 3.585h-0.168l-1.34-4.021c-2.362 1.122-3.636 7.12-2.681 9.382zM4.138 18.010c1.742 7.64 9.818 11.962 17.089 8.729 2.647-1.173 4.741-3.267 5.948-5.881 0.318-0.67 0.921-1.91 0.57-2.798s-3.82 0.57-4.674 0.938c-0.117 0.050-0.201 0.168-0.235 0.302-0.050 0.369 0.201 0.72 0.57 0.771 0.017 0 0.034 0 0.050 0l1.458 0.117c-2.63 5.093-9.734 7.338-14.743 3.267-1.123-0.905-2.128-1.977-2.798-3.267-0.318-0.62-0.62-1.407-1.173-1.843-0.536-0.402-1.34-0.536-2.061-0.335v0z"></path>
</svg>
