<!-- Generated by IcoMoon.io -->
<svg version="1.1" xmlns="http://www.w3.org/2000/svg" viewBox="0 0 32 32">
<title>grt</title>
<path fill="#6747ed" d="M32 16c0 8.837-7.163 16-16 16s-16-7.163-16-16c0-8.837 7.163-16 16-16s16 7.163 16 16z"></path>
<path fill="#fff" d="M15.767 18.067c2.367 0 4.267-1.9 4.267-4.267s-1.9-4.267-4.267-4.267c-2.367 0-4.267 1.9-4.267 4.267s1.9 4.267 4.267 4.267zM15.767 7.4c3.533 0 6.4 2.867 6.4 6.4s-2.867 6.4-6.4 6.4c-3.533 0-6.4-2.867-6.4-6.4s2.867-6.4 6.4-6.4zM21.867 20.533c-0.4-0.433-1.1-0.433-1.5 0l-4.267 4.267c-0.433 0.4-0.433 1.067 0 1.5 0.4 0.433 1.067 0.433 1.5 0l4.267-4.267c0.433-0.4 0.433-1.067 0-1.5zM24.333 8.467c0-0.6-0.5-1.067-1.067-1.067-0.6 0-1.067 0.467-1.067 1.067s0.467 1.067 1.067 1.067c0.6 0 1.067-0.467 1.067-1.067z"></path>
</svg>
