<!-- Generated by IcoMoon.io -->
<svg version="1.1" xmlns="http://www.w3.org/2000/svg" viewBox="0 0 32 32">
<title>gxc</title>
<path fill="#b3b3b3" d="M32 16c0 8.837-7.163 16-16 16s-16-7.163-16-16c0-8.837 7.163-16 16-16s16 7.163 16 16z"></path>
<path fill="#000" d="M6.747 6.991c1.31-1.371 3.704-1.425 5.059-0.093q2.122 2.074 4.199 4.187c1.475-1.401 2.853-2.895 4.333-4.29 1.409-1.272 3.799-1.118 5.053 0.307 1.282 1.343 1.262 3.688-0.072 4.993-1.37 1.395-2.757 2.768-4.138 4.151 1.411 1.455 2.883 2.852 4.282 4.325 1.256 1.377 1.135 3.721-0.224 4.987-1.34 1.352-3.74 1.356-5.077 0-1.391-1.362-2.751-2.763-4.133-4.133-1.475 1.419-2.88 2.907-4.373 4.31-1.427 1.266-3.833 1.075-5.062-0.376-1.237-1.34-1.208-3.625 0.084-4.924 1.213-1.244 2.447-2.468 3.685-3.682 0.518 0.517 1.037 1.037 1.556 1.554-1.214 1.254-2.49 2.453-3.686 3.728-0.806 0.827-0.096 2.366 1.037 2.348 0.686 0.060 1.16-0.508 1.606-0.938 1.184-1.206 2.386-2.39 3.569-3.595-2.581-2.603-5.203-5.171-7.771-7.786-1.34-1.35-1.298-3.758 0.072-5.068zM8.245 10.498c1.366 1.425 2.784 2.796 4.174 4.2q1.004-1.019 2.026-2.026c-1.346-1.356-2.685-2.724-4.049-4.058-0.434-0.469-1.178-0.645-1.745-0.307-0.789 0.382-1.037 1.554-0.408 2.191zM21.601 8.649c-2.566 2.519-5.080 5.090-7.633 7.623 0.69 0.667 1.376 1.338 2.047 2.023 0.515-0.508 1.028-1.022 1.541-1.536 0.518 0.517 1.034 1.037 1.556 1.551-0.506 0.517-1.016 1.028-1.531 1.539 1.384 1.392 2.742 2.811 4.172 4.158 0.725 0.764 2.134 0.3 2.343-0.706 0.224-0.713-0.287-1.328-0.77-1.776q-3.412-3.396-6.81-6.806 0.778-0.776 1.549-1.557c0.515 0.514 1.031 1.028 1.558 1.533 1.358-1.406 2.796-2.735 4.133-4.163 0.675-0.655 0.404-1.909-0.455-2.264-0.579-0.298-1.283-0.087-1.7 0.381v0z"></path>
</svg>
