<!-- Generated by IcoMoon.io -->
<svg version="1.1" xmlns="http://www.w3.org/2000/svg" viewBox="0 0 32 32">
<title>hai</title>
<path fill="#4adda5" d="M4.966 28.916v3.084h-0.988v-1.103h-1.357v1.103h-0.966v-3.079h0.966v1.048h1.357v-1.054zM15.31 28.916v0.877h-2.577v1.33h2.56v0.877h-3.526v-3.079h3.526zM28.039 28.916v0l1.346 1.33v-1.33h0.96v3.084h-0.971l-1.352-1.368v1.368h-0.988v-3.084zM20.248 28.916v1.054l-0.938 0.927h0.938v1.103h-1.026v-1.103h-1.506v1.103h-1.010v-3.079h1.010v1.048h1.506v-1.054zM9.931 28.916h0.166v3.084h-0.938v-0.668h-1.368v0.668h-0.96v-3.079h3.101zM25.148 28.916v0.877h-2.306v0.232h2.323v0.872h-2.323v0.232h2.323v0.872h-3.31v-3.079h3.31zM9.159 29.793h-1.368v0.629h1.368zM3.31 0v12.75h1.655v-12.75h1.655v12.75h22.069v-1.848h-20.215v-10.902h1.655v9.219h18.56v-1.655h-17.159v-7.564h1.655v5.887h5.39v-5.887h1.655v5.887h1.655v-5.887h1.655v5.887h1.881v-5.887h1.655v5.887h1.655v-5.887h1.655v27.034h-1.699v-12.574h-1.87v12.574h-1.655v-12.574h-21.854v1.655h20.215v10.919h-1.655v-9.23h-18.56v1.655h17.159v7.575h-1.655v-5.898h-5.401v5.898h-1.655v-5.898h-1.655v5.898h-1.655v-5.898h-1.826v5.898h-1.655v-5.898h-1.655v5.898h-1.655v-27.034z"></path>
</svg>
