<!-- Generated by IcoMoon.io -->
<svg version="1.1" xmlns="http://www.w3.org/2000/svg" viewBox="0 0 32 32">
<title>hakka</title>
<path fill="#06803f" d="M31.855 11.636c0 0 0 0.145-0.145 0.145-0.291 1.164-3.636 7.564-4.8 8.727l-1.309 1.309 6.4 3.055c-3.636 4.218-9.309 6.982-15.855 6.982s-12.218-2.764-15.855-6.982l-0.291-0.291 6.109-2.764-0.582-0.582-0.727-0.582c-0.873-0.727-4.073-6.982-4.509-8.582 0 0-0.145-0.145-0.145-0.145 1.891 1.309 7.127 2.618 13.382 2.909h4.218c6.255-0.291 11.2-1.455 13.382-2.764l0.145-0.145 0.582-0.291zM7.273 16l0.436 1.455c0.291 0.873 0.582 1.745 0.873 2.473l0.291 0.582 0.727 1.309c0.145 0.145 0.145 0.291 0.291 0.436l0.145 0.145 0.582 0.436c1.018 0.582 2.036 1.164 3.345 1.455l0.436 0.145 1.309 0.291h0.727l1.309-0.291c1.309-0.291 2.327-0.727 3.345-1.309l0.436-0.291 0.582-0.436c0.145-0.145 0.291-0.291 0.291-0.436l0.145-0.145 0.727-1.309c0.436-0.873 0.727-1.6 1.018-2.473l0.145-0.727 0.291-1.309c-0.873 1.6-2.473 2.618-4.364 2.909h-0.582c-1.455-0.145-2.764-1.018-3.491-2.182l-0.145-0.291h-0.145l-0.145 0.291c-0.727 1.164-2.036 1.891-3.491 2.182h-0.873c-1.891-0.145-3.491-1.309-4.218-2.909zM16 0c1.164 0 2.764 0.873 5.091 2.764l0.291 0.291 1.018 0.873 2.764 2.327 1.891 0.582c0.291 0.145 0.582 0.145 0.873 0.291l0.582 0.145h0.436l0.582 0.145 0.582 0.291c1.309 0.436 1.891 1.018 1.891 1.745v0.291l-0.291 0.291c-2.036 1.455-7.273 2.764-13.673 3.055h-3.782c-6.691-0.291-12.073-1.6-14.109-3.055-0.145-0.145-0.145-0.436-0.145-0.582 0-0.873 0.727-1.455 2.182-2.036-0.291-0.291-0.291-0.436-0.582-0.727 0.436-0.436 1.164-0.873 1.745-1.018 1.164-0.145 1.891 0.145 2.618 0.291-0.582-0.291-1.745-1.455-2.036-1.891-0.582-1.164-0.145-2.036 0.145-2.473v-0.145l0.291-0.291h0.145c0.291 0 1.455 0 1.891 0.436 0.873 1.309 0.727 2.764 1.164 3.491 0.291-0.727 0.145-1.455 0.727-2.327 0.436-1.018 2.182-2.182 3.491-1.891 0 0.436 0.291 0.727 0.145 1.309 1.745-1.455 3.055-2.182 4.073-2.182z"></path>
</svg>
