<!-- Generated by IcoMoon.io -->
<svg version="1.1" xmlns="http://www.w3.org/2000/svg" viewBox="0 0 32 32">
<title>hex</title>
<path d="M7.51 29.401l-2.164-3.747c-0.032-0.064-0.051-0.14-0.051-0.219s0.019-0.155 0.052-0.222l-0.001 0.003 2.402-4.16c0.084-0.127 0.223-0.212 0.382-0.222l0.001-0h4.804c0.161 0.010 0.299 0.095 0.383 0.22l0.001 0.002 2.402 4.16c0.033 0.065 0.052 0.141 0.052 0.222s-0.019 0.157-0.053 0.225l0.001-0.003-2.402 4.16c-0.084 0.124-0.22 0.208-0.376 0.221l-0.002 0h-4.319c-0.464-0.031-0.866-0.274-1.111-0.633l-0.003-0.005zM23.111 20.841l-4.786-8.286c-0.116-0.173-0.306-0.289-0.523-0.303l-0.002-0h-9.572c-0.219 0.014-0.409 0.13-0.523 0.301l-0.002 0.002-4.786 8.29c-0.045 0.088-0.071 0.193-0.071 0.303s0.026 0.215 0.073 0.307l-0.002-0.004 1.403 2.432 2.454-4.248c0.133-0.202 0.353-0.337 0.605-0.351l0.002-0h6.306c0.254 0.015 0.474 0.149 0.605 0.348l0.002 0.003 3.154 5.462c0.053 0.102 0.084 0.223 0.084 0.351s-0.031 0.249-0.086 0.355l0.002-0.004-2.454 4.248h2.804c0.22-0.014 0.409-0.13 0.523-0.301l0.002-0.002 4.786-8.289c0.047-0.090 0.074-0.196 0.074-0.309 0-0.11-0.026-0.215-0.073-0.307l0.002 0.004zM31.795 15.357l-7.341-12.721c-0.248-0.376-0.659-0.627-1.129-0.654l-0.004-0h-14.689c-0.474 0.027-0.884 0.279-1.129 0.649l-0.003 0.005-7.344 12.721c-0.098 0.19-0.156 0.415-0.156 0.654s0.058 0.463 0.16 0.662l-0.004-0.008 1.683 2.915 4.88-8.454c0.164-0.249 0.436-0.415 0.747-0.432l0.003-0h11.083c0.314 0.018 0.585 0.184 0.747 0.429l0.002 0.004 5.542 9.599c0.065 0.126 0.103 0.275 0.103 0.432s-0.038 0.307-0.106 0.438l0.003-0.005-4.879 8.45h3.358c0.474-0.027 0.884-0.279 1.129-0.649l0.003-0.005 7.344-12.721c0.098-0.19 0.156-0.415 0.156-0.654s-0.058-0.463-0.16-0.662l0.004 0.008z"></path>
</svg>
