<!-- Generated by IcoMoon.io -->
<svg version="1.1" xmlns="http://www.w3.org/2000/svg" viewBox="0 0 32 32">
<title>hive</title>
<path fill="#e31337" d="M22.876 17.783c0.075 0.007 0.133 0.069 0.133 0.145 0 0.022-0.005 0.044-0.014 0.063l0-0.001-6.8 11.76c-0.025 0.040-0.069 0.067-0.119 0.068h-4.157c-0 0-0 0-0 0-0.075 0-0.137-0.061-0.137-0.137 0-0.026 0.007-0.050 0.020-0.070l-0 0.001 6.8-11.76c0.024-0.041 0.068-0.068 0.118-0.068h0zM18.833 14.413c-0.050-0.001-0.094-0.028-0.119-0.068l-0-0.001-6.913-11.956c-0.012-0.020-0.019-0.044-0.019-0.070 0-0.075 0.061-0.137 0.137-0.137 0 0 0 0 0 0v0h4.157c0.050 0.001 0.094 0.028 0.119 0.068l0 0.001 6.913 11.956c0.012 0.020 0.019 0.044 0.019 0.070 0 0.075-0.061 0.137-0.137 0.137-0 0-0 0-0 0v0z"></path>
<path fill="#e31337" d="M19.655 2.388c-0.012-0.020-0.019-0.044-0.019-0.070 0-0.075 0.061-0.137 0.137-0.137 0.003 0 0.006 0 0.010 0l-0-0h4.163c0 0 0 0 0 0 0.050 0 0.094 0.027 0.117 0.068l0 0.001 7.926 13.681c0.012 0.020 0.019 0.043 0.019 0.068s-0.007 0.049-0.019 0.069l0-0.001-7.926 13.681c-0.024 0.041-0.067 0.068-0.118 0.068-0 0-0 0-0 0v0h-4.163c-0 0-0.001 0-0.002 0-0.076 0-0.137-0.061-0.137-0.137 0-0.026 0.007-0.050 0.020-0.070l-0 0.001 7.878-13.612zM16.272 15.93c0.012 0.021 0.020 0.046 0.020 0.073s-0.007 0.052-0.020 0.073l0-0.001-7.962 13.674c-0.027 0.038-0.070 0.063-0.12 0.063s-0.093-0.025-0.12-0.063l-0-0-8.051-13.68c-0.012-0.021-0.019-0.046-0.019-0.073s0.007-0.052 0.020-0.073l-0 0.001 7.962-13.674c0.027-0.038 0.070-0.063 0.12-0.063s0.093 0.025 0.12 0.063l0 0z"></path>
</svg>
