<!-- Generated by IcoMoon.io -->
<svg version="1.1" xmlns="http://www.w3.org/2000/svg" viewBox="0 0 32 32">
<title>hns</title>
<path d="M27.13 10.438l-1.988-3.532 3.853 0.002c0.103 0 0.224 0.069 0.279 0.161 0.061 0.101 0.374 0.617 0.751 1.236 0.45 0.741 0.988 1.628 1.296 2.134h-4.19zM20.004 31.831c-0.093 0.167-0.214 0.167-0.254 0.167h-1.575c-0.833 0-1.794-0.002-2.367-0.002l6.121-10.989c0.159-0.283 0.057-0.643-0.227-0.801-0.087-0.049-0.185-0.075-0.285-0.075v0l-10.432 0.014-2.076-3.592h15.196c0.002 0 0.003 0 0.005 0s0.003 0 0.005 0c0.009 0 0.017-0.003 0.024-0.003 0.034-0.002 0.067-0.006 0.101-0.014 0.024-0.006 0.051-0.014 0.074-0.023 0.012-0.005 0.026-0.011 0.038-0.015 0.118-0.051 0.216-0.139 0.279-0.253l2.505-4.631h4.136l-11.268 20.217zM14.791 31.413c-0.133-0.219-0.306-0.504-0.495-0.813-0.633-1.045-1.443-2.382-1.535-2.529-0.031-0.049-0.044-0.17 0.020-0.286 0.147-0.263 2.917-5.254 3.592-6.47l4.046-0.005-5.628 10.104zM7.894 24.537l-2.011-3.572 2.027-3.799 2.033 3.519c-0.631 1.19-1.618 3.045-2.048 3.853zM5.194 25.093c-1.023 0-2.042 0-2.191 0v0c-0.1 0-0.221-0.070-0.276-0.161l-0.654-1.078c-0.467-0.769-1.063-1.751-1.392-2.293h4.188l1.988 3.532c-0.434 0-1.048 0-1.664 0v0zM11.996 0.169c0.093-0.169 0.214-0.169 0.253-0.169h3.957l-6.138 10.989c-0.005 0.009-0.008 0.018-0.012 0.029-0.009 0.018-0.017 0.037-0.024 0.057-0.006 0.018-0.012 0.037-0.017 0.057s-0.009 0.035-0.012 0.054c-0.003 0.021-0.006 0.043-0.006 0.066 0 0.009-0.003 0.018-0.003 0.029 0 0.008 0.002 0.014 0.003 0.021 0 0.021 0.003 0.043 0.006 0.064 0.002 0.018 0.005 0.035 0.009 0.054s0.011 0.037 0.017 0.055c0.006 0.018 0.012 0.035 0.020 0.054s0.017 0.034 0.026 0.049 0.018 0.032 0.031 0.047c0.011 0.015 0.023 0.031 0.037 0.044 0.012 0.014 0.024 0.028 0.038 0.041s0.028 0.023 0.043 0.035c0.017 0.012 0.034 0.024 0.051 0.035 0.006 0.005 0.012 0.009 0.018 0.014s0.014 0.005 0.021 0.009c0.031 0.015 0.063 0.029 0.095 0.038 0.012 0.003 0.023 0.008 0.035 0.011 0.043 0.011 0.087 0.017 0.133 0.017 0 0 0 0 0.002 0h0.262c0.002 0 0.003 0 0.003 0v0l10.17-0.014c0.27 0.467 0.772 1.348 1.199 2.097 0.328 0.576 0.6 1.051 0.815 1.425h-15.134c-0.006 0-0.012 0.002-0.020 0.003-0.213 0.002-0.407 0.121-0.509 0.308l-2.506 4.697h-4.128c1.803-3.24 11.146-20.003 11.267-20.217zM17.216 0.599l0.368 0.605c0.645 1.065 1.556 2.567 1.653 2.724 0.031 0.049 0.044 0.17-0.020 0.286l-3.591 6.467-4.044 0.005 5.634-10.087zM24.105 7.458l2.011 3.574-2.051 3.791c-0.245-0.426-0.548-0.959-0.833-1.458-0.564-0.986-0.974-1.705-1.206-2.106 0.44-0.8 1.595-2.918 2.079-3.8z"></path>
</svg>
