<!-- Generated by IcoMoon.io -->
<svg version="1.1" xmlns="http://www.w3.org/2000/svg" viewBox="0 0 32 32">
<title>hnt</title>
<path fill="#38a2ff" d="M20.261 8.323c0.928-0.928 2.454-0.928 3.382 0s0.928 2.454 0 3.382c-0.547 0.547-1.277 0.779-2.023 0.68-0.033 0-0.066 0-0.116 0-0.216-0.033-0.448 0-0.68 0.099-0.315 0.149-0.531 0.398-0.647 0.696s-0.099 0.63 0.033 0.928c0.796 1.724 0.431 3.813-0.928 5.156-1.36 1.36-3.432 1.724-5.156 0.928-0.315-0.149-0.647-0.149-0.945-0.033s-0.547 0.332-0.68 0.63c-0.083 0.199-0.133 0.398-0.116 0.613 0 0.033 0 0.083 0 0.116 0.133 0.763-0.133 1.542-0.663 2.089-0.928 0.928-2.454 0.928-3.382 0-0.448-0.448-0.696-1.045-0.696-1.691 0-0.63 0.249-1.244 0.696-1.691 0.547-0.547 1.277-0.779 2.023-0.68 0.017 0 0.017 0 0.033 0 0.083 0.017 0.166 0.033 0.249 0.033 0.182 0 0.348-0.033 0.514-0.116 0.315-0.149 0.531-0.398 0.63-0.68 0.116-0.298 0.116-0.647-0.033-0.962-0.796-1.741-0.431-3.813 0.928-5.156 1.36-1.36 3.432-1.724 5.156-0.928 0.298 0.149 0.647 0.149 0.945 0.033s0.547-0.332 0.696-0.63c0.116-0.232 0.133-0.497 0.099-0.746v0c-0.116-0.746 0.133-1.525 0.68-2.073zM17.89 17.874c1.028-1.028 1.028-2.703 0-3.747-1.028-1.028-2.703-1.028-3.747 0-1.028 1.028-1.028 2.703 0 3.747 1.045 1.028 2.719 1.028 3.747 0zM16 0c8.837 0 16 7.163 16 16s-7.163 16-16 16-16-7.163-16-16c0-8.837 7.163-16 16-16zM24.522 12.601c1.409-1.409 1.409-3.697 0-5.123-1.409-1.409-3.697-1.409-5.123 0-0.531 0.531-0.846 1.177-0.995 1.84-2.57-0.962-5.505-0.348-7.461 1.608s-2.57 4.908-1.592 7.478c-0.68 0.133-1.326 0.464-1.857 0.995-1.409 1.409-1.409 3.697 0 5.123 1.409 1.409 3.697 1.409 5.123 0 0.531-0.531 0.862-1.194 0.995-1.874 0.796 0.298 1.625 0.448 2.454 0.448 1.84 0 3.648-0.713 4.991-2.056 1.956-1.956 2.57-4.875 1.625-7.428 0.663-0.166 1.31-0.497 1.84-1.011z"></path>
</svg>
