<!-- Generated by IcoMoon.io -->
<svg version="1.1" xmlns="http://www.w3.org/2000/svg" viewBox="0 0 32 32">
<title>hord</title>
<path fill="#27282d" d="M0 0h32v32h-32v-32z"></path>
<path fill="#fff" d="M19.244 16.088c1.365-0.396 4.007-0.69 4.095 0.191 0 0.895-2.628-0.191-4.095-0.191zM19.831 18.143c2.143-2.158 4.785 0 4.301 2.055-0.103 0.294-0.983-0.484-1.468-0.103-1.072 0.778-1.072-0.69-0.396-0.69-0.484-0.191-0.778 0.294-0.983 0.69s-0.587 0.484-0.881 0c-0.191-0.396 0.191-1.571 0.881-1.761-1.072-0.103-1.761 1.174-1.761 2.055-0.881-0.778-0.881-1.365-0.778-1.952-0.587 0.294-0.587 1.761-0.396 2.349-0.587-0.103-1.072-0.983-1.072-1.864-0.103-1.952 1.761-3.039 3.611-1.952-0.572 0.206-0.954 0.793-1.057 1.174zM22.855 24.117c0.294 0.103 0.484 0.103 0.69 0.191 0.191 1.761 0.881 3.127 2.055 4.007-1.952 0.103-3.215-0.69-3.802-2.158-0.396 0.294-0.69 0.69-0.881 1.365-2.642 0.191-4.301-1.277-5.167-4.213-0.103 1.468-0.103 2.642 0.191 3.42-3.508-1.468-3.317-5.284-3.317-7.046 1.85 1.761 4.198 3.039 5.666 3.42 0.294 1.365 0.484 1.952 0.484 1.952 0.587-0.484 0.778-0.778 0.778-0.778 0.778 0.191 1.556 0.191 2.349 0.103 0.191 0.484 0.484 0.881 0.778 1.174-0.015-0.558 0.088-1.042 0.176-1.439zM18.363 22.547c0.778-0.778 2.407-2.099 3.508-1.864-0.294 0-0.587 0.103-0.587 0.294 0.881-0.191 1.556-0.191 1.952 0.103 0.294 0.191 0.294 0.587 0 0.983 0.103-0.191 0-0.294 0-0.484-0.103 0.587-0.69 0.69-1.952 0.396 0.191-0.294 0.396-0.294 0.69-0.191-0.294-0.396-0.969-0.191-2.055 0.69 0.103-0.191 0.191-0.396 0.294-0.484-0.484 0.367-1.072 0.558-1.85 0.558zM20.903 22.84c0-0.103-0.191-0.191-0.484-0.294 0.396 0 0.881 0 1.262 0.103-0.294 0.294-0.778 0.484-1.365 0.69 0.206-0.206 0.396-0.396 0.587-0.499zM20.521 24.015c0.881-0.396 1.85-0.587 2.921-0.294 0.983 0.191 0.983-0.983 0.191-0.983-0.778-0.088-1.952 0.206-3.112 1.277zM19.64 7.383c0.69 0.396 1.072 0.881 0.881 1.072 1.659 1.277 2.921 3.42 2.921 6.855-5.96-0.881-7.706-0.587-12.301-0.191 4.976-1.072 8.983-1.174 11.024-0.881 0-0.294 0-0.587 0-0.778-1.85-0.191-3.127-0.191-4.595 0.103 1.556-0.69 3.215-0.881 4.492-0.881-0.294-1.864-0.881-3.127-1.85-4.007-0.294 0.103-0.778-0.103-1.262-0.294-0.69-0.396-1.072-0.881-0.881-1.072 0.206-0.411 0.881-0.308 1.571 0.073zM17.776 10.422c0.484 2.862-3.127 3.332-4.785 3.229 0.587-0.191 1.072-0.396 1.468-0.587-0.294 0-0.484 0-0.778 0-2.143-0.294-4.007-1.952-5.27-3.714-0.69-0.983-1.174-2.158-1.468-3.42-0.294-1.174-0.294-2.055-0.103-3.127 0.396 1.072 0.69 1.952 1.365 2.833 1.174 1.556 3.039 2.539 5.182 2.73 1.615 0.147 3.905-0.367 4.389 2.055zM22.371 9.145c1.468-0.587 2.642-1.468 3.611-2.936-0.103 1.659-0.778 3.229-2.143 4.301-0.103 0.103-0.294 0.191-0.396 0.294-0.396-0.675-0.587-1.16-1.072-1.659zM10.261 18.833c-1.659 0.778-2.833 3.229-4.095 4.506 1.468 1.365 3.611 1.761 5.563 1.659-0.294-1.952-0.294-4.007 0-5.872-1.072 0.983-2.143 2.745-2.055 4.301-0.572-1.365-0.191-3.317 0.587-4.595zM13.681 19.611c1.761 1.952 2.642 1.365 2.642-1.864-0.69 0.983-1.556 1.571-2.73 1.864h0.088zM11.141 18.246c2.143 0.587 4.301-0.191 6.547-2.158-2.055-1.174-4.683-0.69-8 1.468 1.556 0.191 3.215-0.191 4.785-1.174-1.086 1.086-2.158 1.673-3.332 1.864z"></path>
</svg>
