<!-- Generated by IcoMoon.io -->
<svg version="1.1" xmlns="http://www.w3.org/2000/svg" viewBox="0 0 32 32">
<title>hot</title>
<path fill="#007f88" d="M0.837 4.478c-0.485 0.038-0.858 0.114-0.837 0.172 0.193 0.46 1.389 3.17 1.405 3.186s0.294 0.035 0.621 0.049c1.449 0.054 2.595 0.338 3.835 0.95 0.891 0.438 1.55 0.91 2.236 1.593 1.010 1.008 1.669 2.127 2.056 3.497 0.044 0.158 0.079 0.3 0.079 0.321 0 0.030-0.221 0.035-1.196 0.035-0.659 0-1.226 0.011-1.261 0.024-0.052 0.019-0.188 0.313-0.754 1.612-0.381 0.874-0.697 1.61-0.703 1.634-0.019 0.071 0.21 0.133 0.782 0.218 0.117 0.019 0.82 0.038 1.65 0.049l1.446 0.016-0.087 0.3c-0.975 3.306-4.001 5.618-7.707 5.896-0.21 0.014-0.485 0.027-0.613 0.027h-0.232l-0.714 1.642c-0.613 1.403-0.708 1.642-0.667 1.656 0.185 0.068 0.599 0.093 1.558 0.093 1.226 0 1.822-0.054 2.832-0.261 4.126-0.847 7.555-3.472 9.107-6.98 0.3-0.675 0.651-1.787 0.714-2.252l0.019-0.133h3.096l0.011 0.060c0.223 1.095 0.466 1.833 0.885 2.704 1.261 2.625 3.625 4.769 6.553 5.945 1.55 0.639 3.35 1.010 5.236 1.010 0.127 0 0.253-0.002 0.379-0.005l-0.019 0c0.801-0.024 1.438-0.114 1.405-0.199-0.027-0.071-1.384-3.184-1.392-3.192s-0.289-0.019-0.629-0.033c-0.956-0.038-1.675-0.15-2.486-0.381-1.25-0.36-2.486-1.010-3.434-1.806-1.193-1.005-2.056-2.255-2.514-3.641-0.052-0.158-0.104-0.324-0.112-0.373l-0.019-0.087 1.166-0.008c0.64-0.005 1.185-0.019 1.206-0.030 0.035-0.019 1.43-3.181 1.43-3.244 0-0.041-0.351-0.144-0.67-0.196-0.234-0.038-0.531-0.049-1.716-0.057l-1.435-0.014 0.054-0.193c0.795-2.816 3.235-5.052 6.381-5.844 0.694-0.174 1.37-0.264 2.247-0.3 0.523-0.022 0.588-0.030 0.621-0.074 0.022-0.030 0.343-0.752 0.714-1.604 0.455-1.043 0.665-1.558 0.645-1.571-0.060-0.033-0.441-0.101-0.741-0.131-0.436-0.046-1.708-0.038-2.269 0.011-3.208 0.286-6.1 1.58-8.268 3.693-1.324 1.291-2.252 2.74-2.824 4.412-0.147 0.422-0.324 1.087-0.379 1.408l-0.033 0.199h-3.044l-0.011-0.063c-0.008-0.033-0.038-0.188-0.071-0.346-0.449-2.233-1.718-4.404-3.51-6.002-2.040-1.822-4.583-2.963-7.383-3.31-0.842-0.103-1.926-0.138-2.642-0.084z"></path>
</svg>
