<!-- Generated by IcoMoon.io -->
<svg version="1.1" xmlns="http://www.w3.org/2000/svg" viewBox="0 0 32 32">
<title>ht</title>
<path fill="#282e5b" d="M19.247 9.835c0-4.588-2.212-8.541-3.906-9.835 0 0-0.118-0.071-0.118 0.118-0.141 8.871-4.635 11.294-7.129 14.518-5.718 7.482-0.4 15.671 5.012 17.176 3.035 0.847-0.706-1.506-1.176-6.447-0.565-6 7.318-10.565 7.318-15.529z"></path>
<path fill="#059bdc" d="M22.212 12.871c-0.024-0.024-0.071-0.024-0.118 0 0 0 0 0-0.024 0.024-0.094 1.106-1.318 3.506-2.847 5.694-5.2 7.435-2.235 11.012-0.565 12.941 0.965 1.129 0 0 2.424-1.153 0.188-0.094 4.706-2.494 5.2-7.929 0.494-5.294-2.871-8.612-4.071-9.576z"></path>
</svg>
