<!-- Generated by IcoMoon.io -->
<svg version="1.1" xmlns="http://www.w3.org/2000/svg" viewBox="0 0 32 32">
<title>husd</title>
<path fill="#f9f9f9" d="M4.493 14.776l4.918-11.691 13.971 1.61 2.861 8.629-1.43 11.936c-2.056 2.206-3.368 3.309-3.934 3.309s-4.858-0.782-12.875-2.347l-3.509-8.674-0.002-2.771z"></path>
<path fill="#005ffa" d="M22.704 25.27h-3.406v-5.864c0-0.939-0.76-1.702-1.699-1.702 0 0-0.002 0-0.002 0h-4.896c-1.88 0-3.405-1.525-3.405-3.405v-7.568h3.405v5.866c0 0.939 0.762 1.702 1.701 1.702 0 0 0 0 0 0h4.896c1.88 0.002 3.403 1.525 3.405 3.405l0.002 7.566zM12.819 25.27h-3.406v-5.718c1.88 0 3.405 1.523 3.405 3.405l0.002 2.314zM19.181 6.73h3.405v5.722c-1.882 0-3.405-1.525-3.405-3.405v-2.317zM16 0c-8.837 0-16 7.165-16 16s7.163 16 16 16 16-7.163 16-16-7.163-16-16-16v0z"></path>
</svg>
