<!-- Generated by IcoMoon.io -->
<svg version="1.1" xmlns="http://www.w3.org/2000/svg" viewBox="0 0 32 32">
<title>hydro</title>
<path fill="#fff" d="M30.689 15.892c0 8.030-6.509 14.539-14.539 14.539s-14.539-6.509-14.539-14.539c0-8.030 6.509-14.539 14.539-14.539s14.539 6.51 14.539 14.539z"></path>
<path fill="#168dff" d="M16.955 0c-0.255-0.015-0.553-0.023-0.854-0.023-8.774 0-15.886 7.113-15.886 15.886s7.113 15.886 15.886 15.886c8.544 0 15.513-6.745 15.872-15.201l0.001-0.032c0.008-0.184 0.012-0.401 0.012-0.619 0-8.48-6.63-15.412-14.989-15.896l-0.043-0.002zM16.077 26.271c-5.11 0-9.032-5.161-7.742-10.116 0.474-1.631 1.162-3.055 2.045-4.333l-0.032 0.049c1.605-2.415 3.286-4.523 5.131-6.474l-0.021 0.022c0.465-0.516 0.826-0.516 1.29-0.052 2.154 2.229 4.065 4.715 5.677 7.402l0.103 0.186c0.929 1.703 1.652 3.458 1.6 5.419-0.184 4.343-3.696 7.809-8.041 7.917l-0.010 0z"></path>
</svg>
