<!-- Generated by IcoMoon.io -->
<svg version="1.1" xmlns="http://www.w3.org/2000/svg" viewBox="0 0 32 32">
<title>icp</title>
<path fill="#000" d="M24.209 7.978c-1.783 0-3.735 0.972-5.794 2.888-0.972 0.9-1.827 1.881-2.451 2.656 0 0 0.998 1.15 2.095 2.389 0.597-0.749 1.444-1.765 2.433-2.683 1.827-1.711 3.022-2.059 3.708-2.059 2.567 0 4.653 2.157 4.653 4.822 0 2.638-2.086 4.796-4.653 4.822-0.125 0-0.267-0.018-0.446-0.053 0.749 0.348 1.56 0.597 2.318 0.597 4.706 0 5.633-3.253 5.687-3.485 0.134-0.597 0.214-1.221 0.214-1.863-0.009-4.43-3.485-8.031-7.764-8.031z"></path>
<path fill="#000" d="M7.764 24.004c1.783 0 3.735-0.972 5.794-2.888 0.972-0.9 1.827-1.881 2.451-2.656 0 0-0.998-1.15-2.095-2.389-0.597 0.749-1.444 1.765-2.433 2.683-1.827 1.694-3.031 2.059-3.708 2.059-2.567 0-4.653-2.157-4.653-4.822 0-2.638 2.086-4.796 4.653-4.822 0.125 0 0.267 0.018 0.446 0.053-0.749-0.348-1.56-0.597-2.318-0.597-4.706-0.009-5.633 3.245-5.687 3.485-0.134 0.597-0.214 1.221-0.214 1.863 0 4.43 3.476 8.031 7.764 8.031z"></path>
<path fill="#29abe2" d="M11.347 13.299c-0.517-0.499-3.031-2.54-5.437-2.612-4.296-0.107-5.553 3.013-5.669 3.414 0.829-3.494 3.895-6.106 7.532-6.124 2.968 0 5.972 2.915 8.192 5.544 0 0 0.009-0.009 0.009-0.009s0.998 1.15 2.095 2.389c0 0 1.248 1.471 2.567 2.763 0.517 0.499 3.022 2.514 5.428 2.585 4.412 0.125 5.633-3.173 5.696-3.423-0.811 3.521-3.886 6.142-7.541 6.159-2.968 0-5.972-2.915-8.201-5.544 0 0.009-0.009 0.009-0.009 0.018 0 0-0.998-1.15-2.095-2.389 0.009 0-1.239-1.48-2.567-2.772zM0.241 14.137c0-0.009 0-0.018 0.009-0.027-0.009 0.009-0.009 0.018-0.009 0.027z"></path>
</svg>
