<!-- Generated by IcoMoon.io -->
<svg version="1.1" xmlns="http://www.w3.org/2000/svg" viewBox="0 0 32 32">
<title>icx</title>
<path fill="#18a0b1" d="M32 2.759c0 1.524-1.235 2.759-2.759 2.759s-2.759-1.235-2.759-2.759c0-1.524 1.235-2.759 2.759-2.759s2.759 1.235 2.759 2.759z"></path>
<path fill="#18a0b1" d="M8.033 20.734c-0.803-1.341-1.278-2.959-1.278-4.688 0-5.101 4.135-9.236 9.236-9.236 1.729 0 3.346 0.475 4.73 1.301l-0.042-0.023 2.207-2.207-0.11-0.088c-1.905-1.271-4.246-2.029-6.765-2.029-6.789 0-12.292 5.503-12.292 12.292 0 2.569 0.788 4.954 2.136 6.927l-0.027-0.042z"></path>
<path fill="#18a0b1" d="M23.967 11.388c0.803 1.341 1.278 2.959 1.278 4.688 0 5.101-4.135 9.236-9.236 9.236-1.729 0-3.346-0.475-4.73-1.301l0.042 0.023-2.207 2.207c1.933 1.328 4.323 2.12 6.898 2.12 6.783 0 12.281-5.499 12.281-12.281 0-2.575-0.793-4.966-2.148-6.94l0.027 0.042z"></path>
<path fill="#18a0b1" d="M5.517 29.241c0 1.524-1.235 2.759-2.759 2.759s-2.759-1.235-2.759-2.759c0-1.524 1.235-2.759 2.759-2.759s2.759 1.235 2.759 2.759z"></path>
</svg>
