<!-- Generated by IcoMoon.io -->
<svg version="1.1" xmlns="http://www.w3.org/2000/svg" viewBox="0 0 32 32">
<title>idex</title>
<path fill="#fff" d="M31.563 16c0 8.595-6.968 15.563-15.563 15.563s-15.563-6.968-15.563-15.563c0-8.595 6.968-15.563 15.563-15.563s15.563 6.968 15.563 15.563z"></path>
<path fill="#333" d="M16 0c8.837 0 16 7.163 16 16s-7.163 16-16 16c-8.837 0-16-7.163-16-16v0-0.17c0.086-8.724 7.216-15.852 16-15.83zM16.34 1.161c-8.496 0.002-15.134 6.634-15.169 14.747-0.037 8.193 6.624 14.933 14.829 14.905 4.064-0.014 7.573-1.452 10.445-4.318 3.268-3.259 4.7-7.257 4.326-11.836-0.28-3.597-1.86-6.779-4.265-9.117l-0.003-0.003c-2.894-2.872-6.414-4.324-10.166-4.377z"></path>
<path fill="#004b6a" d="M30.375 14.429c-0.327-3.393-1.834-6.384-4.1-8.603l-0.002-0.002c-2.833-2.843-6.285-4.287-10.31-4.293-7.862 0.164-14.173 6.577-14.173 14.463 0 7.852 6.256 14.243 14.056 14.46l0.020 0c4.008 0.029 7.485-1.374 10.316-4.209 3.251-3.253 4.654-7.227 4.193-11.815zM22.246 4.745c0.24 0.005 0.433 0.2 0.433 0.441 0 0.244-0.197 0.441-0.441 0.441s-0.441-0.197-0.441-0.441c0-0.003 0-0.006 0-0.009v0c0.006-0.24 0.202-0.433 0.443-0.433 0.002 0 0.004 0 0.007 0h-0zM20.267 3.824c0.25 0.001 0.451 0.204 0.451 0.453 0 0 0 0 0 0v0c-0.007 0.237-0.201 0.427-0.439 0.427-0.004 0-0.009-0-0.013-0h0.001c-0.002 0-0.004 0-0.006 0-0.233 0-0.423-0.188-0.427-0.42v-0.021c0.002-0.239 0.194-0.433 0.432-0.439h0.001zM18.183 3.257c0.234 0.023 0.419 0.203 0.449 0.432l0 0.003c-0.017 0.249-0.223 0.445-0.475 0.445-0.003 0-0.006-0-0.010-0h0c-0.238-0.009-0.427-0.204-0.427-0.443 0-0.001 0-0.002 0-0.002v0c0.011-0.243 0.211-0.435 0.455-0.435 0.002 0 0.005 0 0.007 0h-0zM16 3.077c0.001 0 0.001 0 0.002 0 0.242 0 0.439 0.197 0.439 0.439s-0.197 0.439-0.439 0.439c-0.241 0-0.437-0.194-0.439-0.435v-0c0 0 0-0 0-0 0-0.243 0.195-0.44 0.437-0.443h0zM13.844 3.26c0.234 0.013 0.42 0.199 0.433 0.432l0 0.001c0 0 0 0 0 0 0 0.242-0.197 0.439-0.439 0.439-0.001 0-0.001 0-0.002 0h-0.016c-0.238-0.002-0.431-0.196-0.431-0.435 0-0.001 0-0.003 0-0.004v0c0.011-0.24 0.206-0.431 0.447-0.435h0zM11.735 3.824c0.241 0.003 0.435 0.2 0.435 0.441 0 0.001 0 0.001 0 0.002v-0c0 0.003 0 0.007 0 0.011 0 0.23-0.182 0.417-0.41 0.426l-0.001 0h-0.021c-0.005 0-0.011 0-0.017 0-0.239 0-0.434-0.191-0.441-0.428v-0.001c-0-0.003-0.001-0.006-0.001-0.009s0-0.006 0.001-0.010l-0 0c0.012-0.241 0.21-0.432 0.453-0.433h0zM9.754 4.745c0.009-0.001 0.020-0.001 0.031-0.001 0.244 0 0.441 0.197 0.441 0.441 0 0.233-0.18 0.423-0.409 0.44l-0.001 0h-0.062c-0.23-0.016-0.411-0.207-0.411-0.44s0.181-0.424 0.41-0.44l0.001-0zM7.984 5.99c0.242 0.006 0.436 0.201 0.439 0.443v0c-0.001 0.242-0.197 0.438-0.439 0.439h-0c-0.005 0-0.011 0-0.017 0-0.23 0-0.417-0.182-0.424-0.41l-0-0.001c-0.001-0.003-0.001-0.007-0.001-0.011s0-0.008 0.001-0.012l-0 0c-0-0.004-0-0.010-0-0.015 0-0.236 0.186-0.429 0.42-0.439l0.001-0zM6.453 7.526c0.238 0.009 0.427 0.204 0.427 0.443 0 0.004-0 0.007-0 0.011v-0.001c-0.005 0.239-0.199 0.431-0.439 0.431-0.002 0-0.004-0-0.007-0h0c-0.241-0.008-0.434-0.202-0.441-0.442v-0.001c0.010-0.245 0.211-0.44 0.457-0.441h0zM5.196 9.315c0.003-0 0.006-0 0.009-0 0.23 0 0.417 0.182 0.426 0.41l0 0.001c0.001 0.003 0.002 0.006 0.002 0.009s-0.001 0.006-0.002 0.009l0-0c0 0.002 0 0.004 0 0.006 0 0.241-0.193 0.436-0.432 0.441h-0c-0.248-0.005-0.448-0.205-0.451-0.453v-0c0.009-0.24 0.206-0.431 0.447-0.431 0 0 0 0 0 0h-0zM4.277 11.282c0.244 0.003 0.441 0.202 0.441 0.447 0 0.001 0 0.001 0 0.002v-0 0.010c-0.021 0.228-0.212 0.405-0.443 0.405-0.241 0-0.437-0.192-0.445-0.431l-0-0.001c0.010-0.24 0.206-0.431 0.447-0.433h0zM3.703 13.38c0.248 0.001 0.45 0.201 0.453 0.449v0c-0.007 0.239-0.203 0.431-0.443 0.431-0.002 0-0.003 0-0.005-0h0c-0.001 0-0.001 0-0.002 0-0.234 0-0.423-0.189-0.425-0.422v-0c0-0.001-0-0.003-0-0.005 0-0.237 0.187-0.43 0.422-0.441l0.001-0zM3.077 16c0.006-0.242 0.198-0.436 0.438-0.447l0.001-0c0.001 0 0.003-0 0.004-0 0.241 0 0.437 0.194 0.439 0.435v0c0 0.006 0.001 0.014 0.001 0.021 0 0.231-0.181 0.42-0.41 0.432l-0.001 0h-0.045c-0.234-0.015-0.419-0.205-0.427-0.44l-0-0.001zM3.282 18.164c0-0 0-0 0-0 0-0.242 0.194-0.438 0.434-0.443h0c0.248 0.005 0.447 0.205 0.449 0.453v0c-0.007 0.237-0.201 0.427-0.439 0.427-0.004 0-0.009-0-0.013-0h0.001c-0.003 0-0.007 0-0.010 0-0.229 0-0.416-0.182-0.422-0.41v-0.025zM4.287 20.704c-0.003 0-0.005 0-0.008 0-0.24 0-0.435-0.19-0.443-0.428l-0-0.001c0.002-0.248 0.201-0.45 0.449-0.455h0.001c0.237 0.011 0.426 0.203 0.433 0.44v0.001c-0.001 0.242-0.197 0.438-0.439 0.439h-0zM5.204 22.679c-0.241-0.003-0.437-0.195-0.447-0.434l-0-0.001c0 0 0 0 0-0 0-0.244 0.197-0.443 0.441-0.445h0.010c0.003-0 0.006-0 0.009-0 0.23 0 0.417 0.182 0.426 0.41l0 0.001c0 0.003 0.001 0.007 0.001 0.011s-0 0.008-0.001 0.012l0-0c0 0.001 0 0.001 0 0.002 0 0.24-0.195 0.435-0.435 0.435 0 0 0 0 0 0h-0.012zM5.204 19.233l0.023-0.080h4.677c1.214 0 1.214 0 1.214-1.231 0-1.026 0-2.051 0-3.077 0-0.334 0.045-0.49 0.445-0.474 0.88 0.037 1.764 0.025 2.644 0 0.308 0 0.41 0.094 0.41 0.396q-0.012 2.581 0 5.167c0 0.328-0.103 0.494-0.449 0.462-0.046-0.005-0.098-0.008-0.152-0.008s-0.106 0.003-0.158 0.008l0.007-0.001c-0.396 0.043-0.531-0.111-0.531-0.498 0.018-1.245 0-2.488 0-3.733 0-0.343-0.107-0.501-0.474-0.501s-0.488 0.115-0.482 0.48c0.016 1.245 0 2.49 0.014 3.733 0 0.41-0.125 0.525-0.521 0.519-1.259-0.020-2.523 0.057-3.774-0.035-0.591-0.043-1.163-0.375-1.735-0.601-0.388-0.152-0.773-0.351-1.165-0.531zM6.498 24.468c-0.016 0.002-0.034 0.003-0.052 0.003-0.231 0-0.422-0.174-0.448-0.399l-0-0.002c-0.001-0.010-0.002-0.023-0.002-0.035s0.001-0.024 0.002-0.036l-0 0.002c0.015-0.247 0.215-0.442 0.463-0.449l0.001-0c0.246 0.033 0.435 0.236 0.447 0.485l0 0.001c-0.035 0.215-0.198 0.384-0.407 0.428l-0.003 0.001zM7.975 25.992c-0.234 0-0.425-0.19-0.425-0.425v0-0.020c0.003-0.242 0.2-0.437 0.443-0.437 0.002 0 0.004 0 0.007 0h-0c0.241 0.008 0.435 0.203 0.439 0.445v0c-0.001 0.24-0.196 0.435-0.437 0.435-0.001 0-0.001 0-0.002 0h-0.016zM9.776 27.241c-0.005 0-0.011 0-0.017 0-0.23 0-0.417-0.182-0.426-0.41l-0-0.001c-0-0.002-0.001-0.005-0.001-0.008s0-0.006 0.001-0.009l-0 0c-0-0.004-0-0.008-0-0.013 0-0.24 0.19-0.436 0.428-0.445l0.001-0h0.012c0.242 0.006 0.436 0.201 0.439 0.443v0c0 0.002 0 0.004 0 0.006 0 0.239-0.194 0.434-0.433 0.435h-0zM11.75 28.158c-0.008 0-0.017 0.001-0.026 0.001-0.233 0-0.424-0.181-0.44-0.41l-0-0.001s0-0.016 0-0.025c0.011-0.241 0.204-0.432 0.444-0.441l0.001-0c0.242 0.001 0.439 0.197 0.441 0.439v0c0 0.003 0 0.007 0 0.011 0 0.23-0.182 0.416-0.41 0.424l-0.001 0zM10.080 21.493c-0.39-0.156-0.763-0.353-1.145-0.531l0.047-0.125h5.992c0.927 0 0.808 0.082 0.82-0.82 0-2.667 0-5.356 0-8.033 0-0.441 0.121-0.574 0.562-0.558 0.853 0.033 1.707 0.021 2.562 0 0.308 0 0.445 0.080 0.445 0.41q0 4.972 0 9.943c0 0.357-0.152 0.468-0.48 0.41-0.101-0.028-0.217-0.046-0.337-0.051l-0.003-0c-0.544 0.018-0.546 0.023-0.546-0.548v-8.205c0-0.226 0.086-0.517-0.289-0.576-0.439-0.070-0.57 0.033-0.57 0.492v8.336c0 0.566 0 0.568-0.583 0.568-1.448 0-2.894-0.020-4.343 0-0.82 0.033-1.436-0.437-2.129-0.712zM13.844 28.718c-0.004 0-0.009 0-0.015 0-0.237 0-0.43-0.187-0.439-0.422l-0-0.001c-0-0.002-0.001-0.005-0.001-0.008s0-0.006 0.001-0.009l-0 0c-0-0.002-0-0.004-0-0.006 0-0.246 0.199-0.445 0.445-0.445s0.445 0.199 0.445 0.445c0 0.243-0.195 0.44-0.436 0.445h-0zM16 28.923c-0.246-0.005-0.443-0.205-0.443-0.451 0-0.002 0-0.004 0-0.007v0c0.007-0.24 0.203-0.433 0.445-0.433 0.246 0 0.445 0.199 0.445 0.445s-0.199 0.445-0.445 0.445c-0.001 0-0.001 0-0.002 0h0zM18.133 28.718c-0.23-0.017-0.41-0.207-0.41-0.44 0-0.003 0-0.006 0-0.010v0c0.009-0.239 0.205-0.429 0.445-0.429 0.246 0 0.445 0.199 0.445 0.445 0 0.006-0 0.012-0 0.017l0-0.001c-0.015 0.23-0.206 0.411-0.438 0.411-0.007 0-0.014-0-0.020-0l0.001 0zM20.265 28.156c-0.002 0-0.004 0-0.007 0-0.23 0-0.418-0.182-0.428-0.409l-0-0.001v-0.020c0.001-0.241 0.194-0.437 0.434-0.443h0.001c0.248 0.005 0.447 0.205 0.449 0.453v0c-0.011 0.235-0.204 0.421-0.441 0.421-0.003 0-0.006-0-0.009-0h0zM22.244 27.237c-0.003 0-0.007 0-0.010 0-0.237 0-0.429-0.189-0.435-0.424v-0.001c0-0.001 0-0.001 0-0.002 0-0.248 0.2-0.449 0.447-0.451h0c0.24 0.005 0.433 0.2 0.433 0.441 0 0.002-0 0.004-0 0.007v-0c0 0.003 0 0.007 0 0.011 0 0.23-0.182 0.418-0.409 0.428l-0.001 0h-0.018zM22.615 23.005c0.066-0.652-0.029-9.819-0.027-12.599 0-0.269 0.029-0.519-0.384-0.513-0.332 0-0.41 0.121-0.41 0.435 0.012 1.436-0.023 12.242-0.023 12.242v1.358c-0.154 0.016-0.279 0.039-0.41 0.041-1.879 0-3.76 0.037-5.637-0.020-0.472-0.014-0.942-0.314-1.401-0.507-0.586-0.237-1.089-0.502-1.559-0.812l0.033 0.020c0.123 0 0.246-0.023 0.369-0.023l6.293 0.027c0.964 0 0.95 0 0.95-0.927v-12.679c0-0.355 0.080-0.519 0.482-0.507 0.911 0.029 1.824 0.018 2.734 0 0.306 0 0.41 0.105 0.41 0.41v14.433c0 0.585 0 0.585-0.603 0.587-0.931 0-0.917-0.016-0.82-0.962zM24.020 25.988c-0.001 0-0.001 0-0.002 0-0.241 0-0.436-0.193-0.441-0.432v-0c0.005-0.248 0.205-0.447 0.453-0.449h0c0.238 0.006 0.429 0.2 0.429 0.439 0 0.004-0 0.007-0 0.011v-0.001c0 0.007 0.001 0.016 0.001 0.025 0 0.227-0.184 0.41-0.41 0.41-0 0-0.001 0-0.001 0h-0.031zM24.035 6.87c-0.001 0-0.003 0-0.004 0-0.238 0-0.432-0.188-0.441-0.424l-0-0.001c-0-0.002-0.001-0.005-0.001-0.007s0-0.005 0.001-0.007l-0 0c0.006-0.241 0.198-0.435 0.438-0.443l0.001-0c0.001 0 0.003-0 0.004-0 0.241 0 0.436 0.194 0.437 0.435v0c0 0.008 0.001 0.016 0.001 0.025 0 0.225-0.176 0.41-0.397 0.424l-0.001 0h-0.025zM25.553 24.453c-0.23-0.016-0.411-0.207-0.411-0.44s0.181-0.424 0.41-0.44l0.001-0c0.009-0.001 0.019-0.001 0.030-0.001 0.244 0 0.441 0.197 0.441 0.441s-0.197 0.441-0.441 0.441c-0.011 0-0.021-0-0.031-0.001l0.001 0zM25.553 8.416c-0.246 0-0.445-0.199-0.445-0.445s0.199-0.445 0.445-0.445c0.246 0 0.445 0.199 0.445 0.445v0c-0.003 0.243-0.201 0.439-0.445 0.439 0 0-0 0-0 0v0zM28.718 13.832c0 0.003 0 0.007 0 0.010 0 0.229-0.182 0.416-0.41 0.422h-0.025c-0.001 0-0.001 0-0.002 0-0.242 0-0.438-0.194-0.443-0.434v-0c0.006-0.249 0.209-0.449 0.459-0.449 0.004 0 0.007 0 0.011 0h-0.001c0.23 0.017 0.41 0.207 0.41 0.44 0 0.004-0 0.008-0 0.012v-0.001zM26.802 9.319c0.242 0.001 0.438 0.195 0.443 0.437v0c-0.006 0.248-0.207 0.446-0.455 0.447h-0c-0.238-0.009-0.427-0.204-0.427-0.443 0-0.003 0-0.006 0-0.009v0c-0-0.003-0-0.006-0-0.009 0-0.23 0.182-0.418 0.409-0.428l0.001-0h0.031zM26.802 22.679c-0.241 0-0.437-0.196-0.437-0.437v0c-0-0.004-0-0.009-0-0.015 0-0.23 0.182-0.417 0.41-0.426l0.001-0h0.023c0.004-0 0.008-0 0.012-0 0.241 0 0.436 0.193 0.441 0.433v0.011c-0.009 0.239-0.203 0.43-0.443 0.433h-0zM27.721 11.282c0.242 0 0.439 0.197 0.439 0.439s-0.197 0.439-0.439 0.439c-0.242 0-0.439-0.197-0.439-0.439 0-0.002 0-0.004 0-0.006v0c0.009-0.238 0.201-0.427 0.438-0.433h0.001zM27.735 20.7c-0.003 0-0.007 0-0.011 0-0.238 0-0.433-0.188-0.443-0.424l-0-0.001c-0.001-0.011-0.002-0.025-0.002-0.038 0-0.246 0.2-0.446 0.446-0.446 0.233 0 0.424 0.178 0.444 0.406l0 0.002c0.001 0.009 0.002 0.019 0.002 0.029s-0.001 0.020-0.002 0.030l0-0.001c0 0 0 0 0 0 0 0.242-0.194 0.438-0.434 0.443h-0zM28.279 18.597c-0.24-0.006-0.434-0.2-0.437-0.441v-0c0.010-0.245 0.211-0.439 0.457-0.439 0.003 0 0.006 0 0.009 0h-0c0.23 0.016 0.411 0.207 0.411 0.44 0 0.005-0 0.011-0 0.016l0-0.001c0 0.001 0 0.001 0 0.002 0 0.233-0.189 0.423-0.423 0.423 0 0 0 0 0 0v0zM28.484 16.431c-0.005 0-0.011 0-0.017 0-0.23 0-0.417-0.182-0.424-0.41l-0-0.001c-0-0.004-0.001-0.008-0.001-0.012s0-0.009 0.001-0.013l-0 0.001c-0.001-0.012-0.002-0.027-0.002-0.041 0-0.212 0.161-0.387 0.367-0.408l0.002-0h0.029c0.010-0.001 0.022-0.001 0.034-0.001 0.248 0 0.45 0.192 0.468 0.435l0 0.002v0.018c0 0.001 0 0.003 0 0.004 0 0.236-0.191 0.427-0.427 0.427-0.001 0-0.001 0-0.002 0h-0.027z"></path>
</svg>
