<!-- Generated by IcoMoon.io -->
<svg version="1.1" xmlns="http://www.w3.org/2000/svg" viewBox="0 0 32 32">
<title>inb</title>
<path fill="#fff" d="M6.598 4.649c2.651-2.21 6.103-3.454 9.558-3.38 4.216-0.011 8.361 1.964 11.077 5.178 5.278 6.202 4.527 15.509-1.674 20.787-2.556 2.185-5.9 3.514-9.555 3.514-1.928 0-3.77-0.37-5.459-1.043l0.1 0.035c-1.346-0.537-2.509-1.198-3.564-1.995l0.038 0.028c0.257-1.935 1.213-3.762 2.608-5.121 1.482-1.451 3.468-2.392 5.672-2.535l0.027-0.001c0.566-0.053 1.132-0.006 1.702-0.033 0.094-0.003 0.204-0.004 0.315-0.004 2.188 0 4.245 0.558 6.038 1.539l-0.066-0.033c0.259 0.137 0.602 0.282 0.618 0.624 0.044 0.438-0.42 0.627-0.689 0.876 0.703-0.026 1.359-0.348 1.954-0.701 0.566-0.323 0.734-1.188 0.276-1.673-0.778-0.867-1.617-1.673-2.407-2.53-0.217-0.243-0.519-0.454-0.58-0.799-0.725-2.659-2.388-4.848-4.603-6.239l-0.044-0.026c-1.396-0.897-3.023-1.411-4.671-1.565-3.538-0.432-7.129-0.303-10.642 0.281 0.883-2.009 2.292-3.77 3.972-5.184z"></path>
<path fill="#fff" d="M17.506 13.638c0.244 0.177 0.458 0.37 0.65 0.583l0.003 0.004c0.715 0.713 1.433 1.423 2.141 2.142 0.15 0.138 0.283 0.291 0.398 0.457l0.006 0.009c-0.558 0.019-1.116 0.013-1.673 0-0.336-0.728-0.719-1.436-1.068-2.158-0.161-0.342-0.365-0.668-0.458-1.037z"></path>
<path fill="#333" d="M15.219 0.019c0.234-0.012 0.508-0.019 0.784-0.019 4.754 0 9.024 2.074 11.954 5.368l0.014 0.016c5.866 6.602 5.268 16.71-1.335 22.576-0.928 0.827-1.971 1.558-3.095 2.159l-0.086 0.042c-3.998 2.137-8.914 2.425-13.141 0.799-5.311-2.065-9.193-6.733-10.108-12.394l-0.012-0.092c-0.614-3.859 0.247-7.935 2.4-11.197 1.975-2.997 4.851-5.259 8.239-6.42l0.113-0.034c1.261-0.433 2.72-0.72 4.233-0.801l0.041-0.002zM6.598 4.649c-1.68 1.414-3.089 3.175-3.972 5.188 3.513-0.584 7.104-0.713 10.642-0.281 1.648 0.154 3.275 0.669 4.671 1.565 2.26 1.416 3.923 3.606 4.63 6.19l0.017 0.074c0.061 0.345 0.363 0.553 0.58 0.799 0.788 0.857 1.629 1.664 2.407 2.53 0.458 0.485 0.293 1.348-0.276 1.673-0.595 0.352-1.251 0.675-1.954 0.701 0.269-0.25 0.732-0.438 0.689-0.876-0.016-0.342-0.359-0.485-0.618-0.624-1.728-0.95-3.787-1.509-5.977-1.509-0.109 0-0.219 0.001-0.327 0.004l0.016-0c-0.566 0.027-1.132-0.019-1.698 0.033-2.23 0.144-4.217 1.085-5.7 2.538l0.002-0.002c-1.395 1.358-2.351 3.186-2.608 5.121 1.017 0.769 2.179 1.431 3.424 1.932l0.102 0.036c7.589 2.956 16.139-0.8 19.095-8.39 0.637-1.587 1.006-3.427 1.006-5.353 0-3.653-1.329-6.996-3.529-9.572l0.017 0.020c-2.715-3.214-6.862-5.189-11.075-5.174-3.454-0.074-6.907 1.17-9.558 3.38zM17.509 13.642c0.094 0.369 0.297 0.695 0.46 1.036 0.349 0.723 0.728 1.429 1.068 2.158 0.557 0.014 1.115 0.020 1.673 0-0.121-0.175-0.254-0.328-0.402-0.465l-0.002-0.002c-0.709-0.719-1.427-1.429-2.141-2.142-0.196-0.218-0.411-0.412-0.645-0.582l-0.012-0.008z"></path>
</svg>
