<!-- Generated by IcoMoon.io -->
<svg version="1.1" xmlns="http://www.w3.org/2000/svg" viewBox="0 0 32 32">
<title>inj</title>
<path d="M20.215 30.751c-0.078-0.078-0.156-0.156-0.234-0.156-1.795-0.39-3.59-1.015-5.151-1.951-3.278-1.951-5.463-4.839-5.541-8.195 0-1.249 0.234-2.498 0.78-3.668 0.312-0.78 2.185-3.434 2.42-3.902 1.249-1.951 0.859-1.795-0.937-4.215l-2.498-3.668-1.639-2.498c-0.937 0.624-1.873 1.405-2.732 2.185-1.717 1.717-3.044 3.902-3.824 6.244s-1.015 4.839-0.702 7.259 1.249 4.761 2.654 6.79c1.405 2.029 3.278 3.746 5.385 4.917-5.541-4.059-8.117-10.224-6.010-16.39 0.546-1.639 1.405-3.2 2.498-4.605l1.795 2.654c0.078 0.156 0.156 0.312 0.156 0.546 0 0.156-0.078 0.39-0.156 0.546-0.859 1.093-1.561 2.263-2.029 3.59-2.341 6.79 3.98 13.815 10.615 14.985 1.249 0.234 3.59 0.468 4.839 0.156 0.078 0 0.156-0.078 0.156-0.078 0.078-0.078 0.078-0.078 0.078-0.156s0-0.156 0-0.234c0.156 0 0.156-0.078 0.078-0.156z"></path>
<path d="M11.785 1.249c0.078 0.078 0.156 0.156 0.234 0.156 1.795 0.39 3.59 1.015 5.151 1.951 3.278 1.951 5.463 4.839 5.541 8.195 0 1.249-0.234 2.498-0.78 3.668-0.312 0.78-2.185 3.434-2.419 3.902-1.249 1.951-0.859 1.795 0.937 4.215l2.498 3.668 1.717 2.498c0.937-0.624 1.873-1.405 2.732-2.185 1.717-1.717 3.044-3.902 3.824-6.244s1.015-4.839 0.702-7.259c-0.312-2.419-1.249-4.761-2.654-6.79s-3.278-3.746-5.385-4.917c5.541 4.059 8.117 10.224 5.932 16.39-0.546 1.639-1.405 3.2-2.498 4.605l-1.795-2.654c-0.078-0.156-0.156-0.312-0.156-0.546 0-0.156 0.078-0.39 0.156-0.546 0.859-1.093 1.561-2.263 2.029-3.59 2.341-6.79-3.98-13.815-10.615-14.985-1.249-0.234-3.59-0.468-4.839-0.156-0.078 0-0.156 0.078-0.156 0.078-0.156 0-0.234 0.078-0.234 0.156s0 0.156 0 0.234c0 0 0 0.078 0.078 0.156z"></path>
</svg>
