<!-- Generated by IcoMoon.io -->
<svg version="1.1" xmlns="http://www.w3.org/2000/svg" viewBox="0 0 32 32">
<title>iop</title>
<path fill="#4cb8d1" d="M32 16c0 8.837-7.163 16-16 16s-16-7.163-16-16c0-8.837 7.163-16 16-16s16 7.163 16 16z"></path>
<path fill="#fff" d="M10.123 8.283l0.398-0.717c0.188-0.339 0.544-0.565 0.952-0.566h8.955c0.371 0 0.716 0.192 0.917 0.508h4.058v7.14l0.449 0.79c0.093 0.162 0.148 0.355 0.148 0.562s-0.055 0.4-0.151 0.568l0.003-0.006-0.449 0.79v3.072l-3.437 2.978-0.592 1.041c-0.19 0.333-0.542 0.555-0.946 0.557h-8.955c-0.408-0.001-0.764-0.227-0.949-0.56l-0.003-0.006-0.025-0.044h-3.998v-7.2l-0.355-0.639c-0.090-0.159-0.143-0.349-0.143-0.552s0.053-0.393 0.146-0.558l-0.003 0.006 0.355-0.639v-3.233zM11.473 8.119l-4.378 7.881 4.378 7.881h8.955l4.477-7.881-4.477-7.881zM11.878 8.831h8.149l4.073 7.169-4.073 7.17h-8.149l-3.983-7.17zM13.761 11.881l-2.189 4.068 2.19 4.068h4.676l2.189-4.068-2.19-4.068z"></path>
</svg>
