<!-- Generated by IcoMoon.io -->
<svg version="1.1" xmlns="http://www.w3.org/2000/svg" viewBox="0 0 32 32">
<title>iost</title>
<path d="M16 0l-13.846 7.994v15.988l13.846 7.994 13.846-7.994v-15.988l-13.846-7.994zM16.283 25.895l-10.628-6.062 0.043-2.948 10.578 6.055 5.102-2.942-3.422-1.975-1.28 0.738-2.4-1.378 1.286-0.745-1.68-0.972-1.015 0.591-2.406-1.378 1.022-0.591-5.422-3.132 10.215-5.895 9.637 5.495-2.585 1.502-7.052-4.043-5.102 2.942 2.855 1.649 1.458-0.849 2.406 1.378-1.471 0.849 1.68 0.972 1.194-0.695 2.406 1.378-1.206 0.702 5.982 3.452-10.197 5.902z"></path>
</svg>
