<!-- Generated by IcoMoon.io -->
<svg version="1.1" xmlns="http://www.w3.org/2000/svg" viewBox="0 0 32 32">
<title>iqn</title>
<path d="M1.665 9.976c0.509-0.52 1.219-0.842 2.003-0.842 0.499 0 0.968 0.13 1.374 0.359l-0.014-0.007 11.494 6.531-11.527 6.531c-0.392 0.22-0.86 0.35-1.359 0.35-0.785 0-1.494-0.321-2.004-0.84l-0-0c0.033 0 0.033-12.865 0.033-12.082z"></path>
<path d="M29.029 6.645c0.057 0.206 0.090 0.442 0.090 0.686 0 0.992-0.544 1.856-1.351 2.311l-0.013 0.007-11.233 6.367-11.527-6.531c-0.392-0.22-0.86-0.35-1.359-0.35-0.785 0-1.494 0.321-2.004 0.84l-0 0c0.016-1.472 0.834-2.75 2.037-3.418l0.020-0.010 10.58-6.008c0.587-0.339 1.29-0.539 2.041-0.539s1.454 0.2 2.061 0.55l-0.020-0.011z"></path>
<path d="M4.996 22.547l22.759-12.898c1.078-0.62 1.339-1.861 1.045-3.004 1.208 0.718 1.698 2.025 1.698 3.396v11.984c0 1.437-0.555 2.743-1.796 3.461l-10.449 5.976c-0.576 0.339-1.269 0.539-2.008 0.539s-1.432-0.2-2.027-0.549l0.019 0.010-10.58-5.976c-1.195-0.702-1.992-1.969-2.024-3.424l-0-0.005c0.51 0.519 1.22 0.84 2.004 0.84 0.499 0 0.967-0.13 1.373-0.358l-0.014 0.007z"></path>
</svg>
