<!-- Generated by IcoMoon.io -->
<svg version="1.1" xmlns="http://www.w3.org/2000/svg" viewBox="0 0 32 32">
<title>iris</title>
<path d="M9.712 23.19l-7.341 0.826 4.31-9.946-4.413-6.016 10.73-1.222 2.915-6.704 6.387 8.682 7.341-0.826-4.291 9.898 4.381 5.974-10.675 1.216-2.96 6.8-6.384-8.682zM12.762 22.531c-0.282 0.138-0.582 0.253-0.893 0.339l-0.282 0.077 4.138 5.626 1.469-3.379-0.266-0.035c-1.446-0.182-2.762-0.963-3.61-2.134l-0.413-0.57-0.144 0.077zM11.322 17.43l3.338 4.618c0.678 0.938 1.776 1.498 2.934 1.498 0.134 0 0.269-0.006 0.4-0.022l8.71-0.992-3.469-4.733c-0.173-0.234-0.371-0.445-0.592-0.63l-0.205-0.17-2.483 5.61-4.32-5.718-4.314 0.541zM11.466 11.808c-1.293 0.138-2.419 0.966-2.938 2.163l-3.498 8.074 5.811-0.653c0.288-0.032 0.57-0.099 0.842-0.198l0.25-0.093-3.597-4.966 7.091-0.899 1.686-4.029-5.648 0.602zM16.954 15.882l2.627 3.478 1.603-3.619 0.704-1.594c0.528-1.194 0.378-2.586-0.397-3.635l-5.206-7.085-2.342 5.382c-0.115 0.266-0.198 0.544-0.25 0.832l-0.045 0.262 6.077-0.643-2.771 6.621zM23.338 10.365l0.102 0.246c0.563 1.347 0.55 2.883-0.038 4.211l-0.285 0.64 0.138 0.093c0.262 0.176 0.509 0.381 0.736 0.608l0.208 0.205 2.781-6.416-3.642 0.413zM5.296 9.379l2.214 3.021 0.163-0.211c0.88-1.142 2.202-1.885 3.619-2.035l0.694-0.074 0.013-0.17c0.022-0.349 0.083-0.698 0.176-1.037l0.080-0.288-6.96 0.794z"></path>
<path d="M14.451 32c-4.608-0.445-8.749-2.842-11.459-6.64l1.856-0.208c0.307 0.378 0.634 0.739 0.97 1.078 2.013 2.022 4.531 3.386 7.293 3.949l1.341 1.821z"></path>
<path d="M18.317 30.282c2.989-0.483 5.706-1.882 7.866-4.051 0.192-0.195 0.387-0.403 0.582-0.621l2.25-0.256c-2.701 3.795-6.835 6.195-11.443 6.646l0.746-1.718z"></path>
<path d="M29.472 21.13c0.614-1.635 0.928-3.36 0.928-5.13 0-1.562-0.246-3.098-0.73-4.563l0.902-2.080c0.947 2.090 1.427 4.323 1.427 6.643 0 2.317-0.48 4.547-1.424 6.637l-1.104-1.507z"></path>
<path d="M1.434 22.659c-0.95-2.096-1.434-4.333-1.434-6.659 0-2.339 0.486-4.589 1.45-6.691l1.101 1.504c-0.63 1.651-0.95 3.395-0.95 5.187 0 1.568 0.246 3.107 0.733 4.579l-0.899 2.080z"></path>
<path d="M3.059 6.547c2.707-3.738 6.816-6.106 11.382-6.547l-0.746 1.715c-2.992 0.48-5.715 1.882-7.878 4.054-0.163 0.163-0.326 0.339-0.49 0.518l-2.269 0.259z"></path>
<path d="M27.155 6.848c-0.307-0.378-0.634-0.739-0.973-1.078-2.010-2.019-4.525-3.382-7.28-3.946l-1.341-1.824c4.605 0.448 8.739 2.845 11.446 6.64l-1.853 0.208z"></path>
</svg>
