<!-- Generated by IcoMoon.io -->
<svg version="1.1" xmlns="http://www.w3.org/2000/svg" viewBox="0 0 32 32">
<title>jst</title>
<path fill="#b41514" d="M16 0c8.835 0 16 7.165 16 16s-7.165 16-16 16-16-7.165-16-16 7.165-16 16-16z"></path>
<path fill="#fff" d="M15.872 26.4c-1.184 0-2.144-0.96-2.144-2.144s0.96-2.144 2.144-2.144c1.184 0 2.144 0.96 2.144 2.144v0c0 1.184-0.96 2.144-2.144 2.144v0z"></path>
<path fill="#fff" d="M15.872 11.616c-1.184 0-2.144-0.96-2.144-2.144s0.96-2.144 2.144-2.144c1.184 0 2.144 0.96 2.144 2.144v0c0 1.184-0.96 2.144-2.144 2.144v0z"></path>
<path fill="#fff" d="M7.104 20.672v-2.976h17.536v2.976h-17.536z"></path>
<path fill="#fff" d="M15.872 16.224c-5.002 0-9.072-3.968-9.242-8.928h3.171c0.166 3.21 2.822 5.76 6.070 5.76s5.904-2.55 6.070-5.76h3.171c-0.17 4.96-4.24 8.928-9.242 8.928z"></path>
</svg>
