<!-- Generated by IcoMoon.io -->
<svg version="1.1" xmlns="http://www.w3.org/2000/svg" viewBox="0 0 32 32">
<title>karma</title>
<path d="M16.349 3.716s3.273 1.309 6.109 7.782c0.323 1.020 0.555 2.208 0.651 3.435l0.003 0.056s0.145 4.291-2.982 5.6c-0.729 0.215-1.251 0.878-1.251 1.663 0 0.080 0.005 0.159 0.016 0.237l-0.001-0.009c0.145 1.527 0.436 3.927 0.436 4.436-0.094 0.853-0.804 1.513-1.671 1.527l-0.001 0c-0.492 0.074-1.059 0.116-1.636 0.116s-1.145-0.042-1.699-0.124l0.063 0.008c-1.091-0.291-1.236-0.873-1.236-0.873s-0.509-0.727-0.145-3.927c0 0 0.727-2.255-1.382-3.127s-2.836-4.727-2.836-4.727-0.655-3.782 3.418-9.091c0 0 2.545-3.2 4.073-3.055z"></path>
<path d="M12.567 5.818l-0.218 0.218z"></path>
<path d="M10.822 8.080c-1.056-0.756-2.297-1.334-3.636-1.658l-0.073-0.015c-1.222-0.272-2.627-0.431-4.069-0.436h-0.949c-0.023-0.001-0.051-0.001-0.078-0.001-0.636 0-1.206 0.281-1.592 0.726l-0.002 0.003c-0.261 0.31-0.42 0.713-0.42 1.154 0 0.158 0.021 0.312 0.059 0.458l-0.003-0.013c0.468 3.137 1.821 5.896 3.794 8.087l-0.012-0.014c1.004 1.064 2.125 2 3.348 2.793l0.071 0.043c1.195 0.702 2.58 1.254 4.050 1.582l0.096 0.018c-2.182-0.945-2.909-4.873-2.909-4.873-2.109-1.309-3.491-3.273-4.509-6.182h0.073c1.936 0.044 3.719 0.664 5.194 1.693l-0.031-0.020c0.382-1.274 0.928-2.386 1.625-3.383l-0.025 0.038z"></path>
<path d="M22.676 11.425c1.441-1.018 3.227-1.639 5.155-1.673l0.008-0h0.073c-1.018 2.909-2.473 4.873-4.582 6.182v-0.436c-0.073 1.164-0.509 4.291-3.055 5.382 1.648-0.358 3.106-0.936 4.435-1.711l-0.072 0.039c1.341-0.744 2.475-1.692 3.402-2.816l0.016-0.020c1.905-2.206 3.245-4.95 3.768-7.974l0.014-0.099c0.036-0.134 0.056-0.287 0.056-0.446 0-0.441-0.159-0.844-0.422-1.157l0.002 0.003c-0.424-0.44-1.015-0.717-1.671-0.727l-0.002-0h-0.945c-0.010-0-0.022-0-0.034-0-1.431 0-2.825 0.159-4.165 0.46l0.126-0.024c-1.445 0.334-2.713 0.939-3.807 1.764l0.025-0.018c0.615 0.938 1.176 2.016 1.629 3.148l0.044 0.124z"></path>
</svg>
