<!-- Generated by IcoMoon.io -->
<svg version="1.1" xmlns="http://www.w3.org/2000/svg" viewBox="0 0 32 32">
<title>kat</title>
<path fill="#1aeec2" d="M31.412 15.559l-4.524 0.11-0.074 0.037h-0.037c-0.037 0-0.037 0.037-0.074 0.037l-4.083 3.384-6.106-3.494v-3.31l6.069 0.552h0.074c0.037 0 0.037 0 0.074 0h0.037c0.037 0 0.074 0 0.11-0.037h0.037l0.037-0.037 2.906-1.692 4.782 2.097c0.294 0.11 0.625 0 0.772-0.294s0-0.625-0.294-0.772l-4.009-1.729 2.464-1.398c0.294-0.147 0.368-0.515 0.221-0.809s-0.515-0.368-0.809-0.221l-5.922 3.384-0.772-4.267 4.782-0.956c0.221-0.037 0.405-0.184 0.441-0.368 0.074-0.221 0.037-0.441-0.11-0.588s-0.368-0.221-0.552-0.184l-4.083 0.846 1.582-2.722c0.11-0.184 0.11-0.405 0-0.589s-0.294-0.294-0.515-0.294-0.405 0.11-0.515 0.294l-2.133 3.605c-0.037 0.037-0.037 0.074-0.037 0.11-0.11 0.147-0.184 0.294-0.147 0.478l0.883 4.892-5.407-0.478v-6.253l3.862-3.163c0.257-0.221 0.294-0.589 0.11-0.809s-0.552-0.294-0.772-0.11l-3.126 2.575v-2.648c0-0.294-0.257-0.552-0.588-0.552s-0.552 0.257-0.588 0.552v0 6.584l-3.972-1.287 1.287-4.634c0.074-0.294-0.074-0.625-0.405-0.736s-0.625 0.074-0.736 0.405l-1.103 3.972-1.729-2.575c-0.184-0.257-0.552-0.331-0.809-0.147s-0.331 0.552-0.147 0.809l2.428 3.605 0.147 0.147c0.037 0 0.037 0.037 0.074 0.037h0.037c0.037 0 0.037 0.037 0.074 0.037l4.892 1.582v7.099l-2.979 1.729-2.611-5.407c0 0 0 0 0 0-0.037-0.037-0.037-0.074-0.074-0.11v0c0 0 0 0-0.037-0.037s-0.074-0.074-0.11-0.074v0l-2.906-1.692-0.662-5.223c-0.037-0.221-0.147-0.368-0.368-0.478-0.184-0.074-0.405-0.037-0.588 0.074s-0.257 0.331-0.221 0.552l0.552 4.34-2.464-1.434c-0.294-0.147-0.625-0.037-0.772 0.221s-0.074 0.625 0.184 0.772l5.959 3.457-3.274 2.832-3.274-3.678c-0.221-0.257-0.589-0.257-0.809-0.037s-0.257 0.588-0.037 0.809l2.795 3.090h-3.126c-0.331 0.037-0.589 0.294-0.589 0.625s0.257 0.588 0.589 0.588h4.193c0.037 0 0.074 0 0.11 0 0.184 0.037 0.368 0 0.478-0.147l3.752-3.274 2.244 4.818-5.591 3.237-4.193-1.986c-0.294-0.11-0.625 0-0.736 0.294s-0.037 0.625 0.257 0.772l3.457 1.655-2.17 1.251c-0.294 0.147-0.368 0.515-0.221 0.809s0.515 0.368 0.809 0.221l3.126-1.802 2.722-1.582 0.588 4.267-4.708 0.809c-0.294 0.074-0.515 0.368-0.441 0.662 0.037 0.294 0.331 0.515 0.625 0.478l4.009-0.736-1.582 2.685c-0.147 0.294-0.074 0.625 0.221 0.809 0.294 0.147 0.625 0.074 0.809-0.221l2.207-3.752v-0.037l0.037-0.037c0-0.037 0-0.037 0.037-0.074 0 0 0-0.037 0-0.037 0-0.037 0-0.037 0-0.074 0 0 0-0.037 0-0.037 0-0.037 0-0.074 0-0.11l-0.699-5.297 6.069-3.494 2.501 1.471-3.31 5.149c0 0 0 0 0 0.037v0.037c0 0.037-0.037 0.037-0.037 0.074 0 0 0 0 0 0s0 0 0 0c0 0.037 0 0.074-0.037 0.11 0 0 0 0 0 0.037s0 0.037 0 0.074l0.074 3.384-4.083 3.274c-0.257 0.184-0.294 0.552-0.074 0.809 0.184 0.257 0.552 0.294 0.809 0.074l3.384-2.722 0.074 2.869c0.037 0.294 0.294 0.552 0.588 0.552s0.552-0.257 0.552-0.588l-0.221-6.878 4.12 1.324-1.398 4.708c-0.074 0.221-0.037 0.441 0.11 0.588s0.368 0.221 0.552 0.184 0.368-0.221 0.405-0.441l1.177-4.009 1.618 2.648c0.11 0.184 0.294 0.294 0.515 0.294s0.405-0.11 0.478-0.294c0.11-0.184 0.074-0.405 0-0.588l-2.097-3.605c-0.037-0.037-0.037-0.074-0.074-0.11-0.074-0.184-0.184-0.294-0.368-0.368l-4.708-1.508 2.943-4.561 6.032 3.531 0.368 4.892c0.037 0.294 0.294 0.515 0.625 0.515s0.552-0.294 0.552-0.588l-0.294-4.083 2.17 1.251c0.184 0.11 0.405 0.11 0.588 0s0.294-0.294 0.294-0.515-0.11-0.405-0.294-0.515l-3.126-1.802-2.648-1.545 3.31-2.759 3.163 3.605c0.221 0.257 0.588 0.257 0.809 0.037 0.257-0.221 0.257-0.588 0.037-0.809l-2.759-3.053 3.090-0.074c0.331 0 0.589-0.294 0.589-0.588 0-0.368-0.294-0.625-0.588-0.588v0z"></path>
</svg>
