<!-- Generated by IcoMoon.io -->
<svg version="1.1" xmlns="http://www.w3.org/2000/svg" viewBox="0 0 32 32">
<title>kcs</title>
<path fill="#0093dd" d="M32 16c0 8.837-7.163 16-16 16s-16-7.163-16-16c0-8.837 7.163-16 16-16s16 7.163 16 16z"></path>
<path fill="#fff" d="M13.5 16l5.2 5.3 3.3-3.3c0.6-0.6 1.5-0.6 2 0 0 0 0 0 0 0 0.6 0.6 0.6 1.6 0 2.2l-4.3 4.4c-0.6 0.6-1.5 0.6-2.1 0 0 0 0 0 0 0l-6.2-6.4v3.8c0 0.8-0.7 1.5-1.5 1.5s-1.5-0.7-1.5-1.5v-12c0-0.8 0.7-1.5 1.5-1.5s1.5 0.7 1.5 1.5v3.8l6.2-6.4c0.6-0.6 1.5-0.6 2.1 0 0 0 0 0 0 0l4.3 4.4c0.6 0.6 0.6 1.6 0 2.2s-1.5 0.6-2 0c0 0 0 0 0 0l-3.3-3.4-5.2 5.4zM18.7 14.5c0.8 0 1.5 0.7 1.5 1.5s-0.7 1.5-1.5 1.5-1.5-0.7-1.5-1.5c0-0.8 0.7-1.5 1.5-1.5z"></path>
</svg>
