<!-- Generated by IcoMoon.io -->
<svg version="1.1" xmlns="http://www.w3.org/2000/svg" viewBox="0 0 32 32">
<title>keep</title>
<path d="M16 0c-8.812 0-16 7.188-16 16s7.188 16 16 16 16-7.188 16-16c0-8.812-7.188-16-16-16zM22.695 12.406h-0.985l-3.052 3.545 3.052 3.545h0.985v2.855h-6.449v-2.855h0.985l-2.018-2.265h-0.837v2.363h1.132v2.855h-6.252v-2.855h1.378v-7.138h-1.378v-2.855h1.575v1.083h0.837v-1.083h1.526v1.083h0.837v-1.083h1.526v2.806h-1.132v2.363h0.837l2.018-2.363h-0.985v-2.806h6.498l-0.098 2.806z"></path>
</svg>
