<!-- Generated by IcoMoon.io -->
<svg version="1.1" xmlns="http://www.w3.org/2000/svg" viewBox="0 0 32 32">
<title>kim</title>
<path fill="#ff7e00" d="M31.856 16.011c0 8.752-7.095 15.846-15.846 15.846s-15.846-7.095-15.846-15.846c0-8.752 7.095-15.846 15.846-15.846s15.846 7.095 15.846 15.846z"></path>
<path fill="#fff" d="M9.177 22.771l-1.606-6.483 2.557 1.784 0.714-1.963-4.996-3.509c0 0-2.855-2.022-1.427 1.963l3.39 9.338c0.476 1.249 0.476 1.249 2.617 1.249l3.866-10.586c0.714-1.963 2.736-2.022 3.45 0l3.866 10.586c2.141 0 2.141 0 3.033-2.438 1.011-2.795 1.784-4.877 2.974-8.148 1.427-3.985-1.427-1.963-1.427-1.963l-4.996 3.509 0.714 2.022 2.557-1.784-1.665 6.364-5.115-13.977c-0.952-2.736-2.498-2.736-3.509-0.059l-4.996 14.095z"></path>
<path fill="#fff" d="M11.735 25.209l1.19-3.271 4.877-3.39 0.476 1.249c0.119 0.416-0.119 0.892-0.535 1.189l-1.725 1.249 0.714 2.974h-1.487l-0.535-2.082-0.833 0.595-0.535 1.487h-1.606z"></path>
<path fill="#fff" d="M20.239 25.209h-1.606l-0.714-2.795 1.011-0.714 1.308 3.509z"></path>
<path fill="#fff" d="M13.757 19.797l1.13-3.152c0.238-0.714 0.357-0.714 0.357 0v2.082l-1.487 1.071z"></path>
<path fill="#fff" d="M16.73 17.715l0.595-0.476-0.238-0.654c-0.238-0.714-0.357-0.714-0.357 0v1.13z"></path>
</svg>
