<!-- Generated by IcoMoon.io -->
<svg version="1.1" xmlns="http://www.w3.org/2000/svg" viewBox="0 0 32 32">
<title>kin</title>
<path fill="#005fff" d="M22.915 11.636h-2.067v-2.067c0-0.733 0.595-1.328 1.328-1.328v0h0.739c0.733 0 1.328 0.595 1.328 1.328v0 0.739c-0 0.733-0.595 1.328-1.328 1.328v0zM11.152 11.636h-2.067c-0.733 0-1.328-0.595-1.328-1.328v0-0.739c0-0 0-0.001 0-0.001 0-0.733 0.594-1.327 1.327-1.327 0 0 0.001 0 0.001 0h0.739c0.733 0 1.328 0.595 1.328 1.328v0zM9.824 24.242h-0.739c-0.733 0-1.328-0.595-1.328-1.328v0-0.738c0-0.733 0.595-1.328 1.328-1.328v0h2.067v2.066c0 0.733-0.595 1.328-1.328 1.328v0zM22.915 24.242h-0.739c-0.733 0-1.328-0.595-1.328-1.328v0-2.066h2.067c0.733 0 1.328 0.595 1.328 1.328v0 0.739c0 0.733-0.595 1.328-1.328 1.328v0z"></path>
<path fill="#0ce" d="M16.612 8.242h-0.739c-0.733 0-1.328-0.595-1.328-1.328v0-0.738c0-0.733 0.595-1.328 1.328-1.328v0h0.739c0.733 0 1.328 0.595 1.328 1.328v0 0.739c0 0.733-0.595 1.328-1.328 1.328v0zM16.612 27.636h-0.739c-0.733 0-1.328-0.595-1.328-1.328v0-0.739c0-0.733 0.595-1.328 1.328-1.328v0h0.739c0.733 0 1.328 0.595 1.328 1.328v0 0.739c0 0.733-0.595 1.328-1.328 1.328v0zM26.309 17.939h-0.739c-0.733 0-1.328-0.595-1.328-1.328v0-0.739c0-0.733 0.595-1.328 1.328-1.328v0h0.739c0.733 0 1.328 0.595 1.328 1.328v0 0.739c0 0.733-0.595 1.328-1.328 1.328v0zM6.915 17.939h-0.739c-0.733 0-1.328-0.595-1.328-1.328v0-0.739c0-0.733 0.595-1.328 1.328-1.328v0h0.739c0.733 0 1.328 0.595 1.328 1.328v0 0.739c0 0.733-0.595 1.328-1.328 1.328v0z"></path>
<path fill="#005fff" d="M19.952 28.977c-0.047-0.11-0.074-0.237-0.074-0.371 0-0.535 0.434-0.969 0.969-0.969s0.969 0.434 0.969 0.969c0 0.401-0.244 0.746-0.592 0.893l-0.006 0.002c-0.11 0.047-0.237 0.074-0.371 0.074-0.402 0-0.746-0.244-0.893-0.592l-0.002-0.006zM9.771 4.25c-0.047-0.11-0.074-0.237-0.074-0.371 0-0.535 0.434-0.969 0.969-0.969s0.969 0.434 0.969 0.969c0 0.402-0.244 0.746-0.592 0.893l-0.006 0.002c-0.11 0.047-0.237 0.074-0.371 0.074-0.402 0-0.746-0.244-0.893-0.592l-0.002-0.006zM28.492 12.048c-0.11 0.047-0.237 0.074-0.371 0.074-0.535 0-0.969-0.434-0.969-0.969s0.434-0.969 0.969-0.969c0.401 0 0.746 0.244 0.893 0.592l0.002 0.006c0.047 0.11 0.074 0.237 0.074 0.371 0 0.402-0.244 0.746-0.592 0.893l-0.006 0.002zM4.25 22.229c-0.11 0.047-0.237 0.074-0.371 0.074-0.535 0-0.969-0.434-0.969-0.969s0.434-0.969 0.969-0.969c0.402 0 0.746 0.244 0.893 0.592l0.002 0.006c0.047 0.11 0.074 0.237 0.074 0.371 0 0.402-0.244 0.746-0.592 0.893l-0.006 0.002z"></path>
<path fill="#002dae" d="M27.75 22.229c-0.354-0.15-0.598-0.494-0.598-0.896 0-0.535 0.434-0.969 0.969-0.969s0.969 0.434 0.969 0.969c0 0.134-0.027 0.261-0.076 0.377l0.002-0.006c-0.149 0.354-0.494 0.599-0.896 0.599-0.134 0-0.262-0.027-0.378-0.076l0.006 0.002zM3.508 12.048c-0.354-0.15-0.598-0.494-0.598-0.896 0-0.535 0.434-0.969 0.969-0.969s0.969 0.434 0.969 0.969c0 0.134-0.027 0.261-0.076 0.377l0.002-0.006c-0.149 0.354-0.494 0.599-0.896 0.599-0.134 0-0.261-0.027-0.377-0.076l0.006 0.002zM21.744 4.25c-0.15 0.354-0.494 0.598-0.896 0.598-0.535 0-0.969-0.434-0.969-0.969s0.434-0.969 0.969-0.969c0.134 0 0.261 0.027 0.377 0.076l-0.006-0.002c0.354 0.15 0.599 0.494 0.599 0.896 0 0.134-0.027 0.261-0.076 0.378l0.002-0.006zM11.562 28.977c-0.15 0.354-0.494 0.598-0.896 0.598-0.535 0-0.969-0.434-0.969-0.969s0.434-0.969 0.969-0.969c0.134 0 0.261 0.027 0.377 0.076l-0.006-0.002c0.354 0.149 0.599 0.494 0.599 0.896 0 0.134-0.027 0.262-0.076 0.378l0.002-0.006z"></path>
<path fill="#0099c0" d="M26.324 27.494c-0.088-0.088-0.142-0.209-0.142-0.343 0-0.268 0.217-0.485 0.485-0.485s0.485 0.217 0.485 0.485c0 0.134-0.054 0.255-0.142 0.343v0c-0.088 0.088-0.209 0.142-0.343 0.142s-0.255-0.054-0.343-0.142v0zM4.506 5.676c-0.088-0.088-0.142-0.209-0.142-0.343 0-0.268 0.217-0.485 0.485-0.485s0.485 0.217 0.485 0.485c0 0.134-0.054 0.255-0.142 0.343v0c-0.088 0.088-0.209 0.142-0.343 0.142s-0.255-0.054-0.343-0.142v0zM27.009 5.676c-0.088 0.088-0.209 0.142-0.343 0.142-0.268 0-0.485-0.217-0.485-0.485s0.217-0.485 0.485-0.485c0.134 0 0.255 0.054 0.343 0.142v0c0.088 0.088 0.142 0.209 0.142 0.343s-0.054 0.255-0.142 0.343v0zM5.191 27.494c-0.088 0.088-0.209 0.142-0.343 0.142-0.268 0-0.485-0.217-0.485-0.485s0.217-0.485 0.485-0.485c0.134 0 0.255 0.054 0.343 0.142v0c0.088 0.088 0.142 0.209 0.142 0.343s-0.054 0.255-0.142 0.343v0z"></path>
<path fill="#0029c0" d="M31.515 16.485c-0.268 0-0.485-0.217-0.485-0.485s0.217-0.485 0.485-0.485c0.268 0 0.485 0.217 0.485 0.485v0c-0 0.268-0.217 0.485-0.485 0.485v0z"></path>
<path fill="#0029c0" d="M0.485 16.485c-0.268 0-0.485-0.217-0.485-0.485s0.217-0.485 0.485-0.485c0.268 0 0.485 0.217 0.485 0.485v0c-0 0.268-0.217 0.485-0.485 0.485v0z"></path>
<path fill="#0029c0" d="M16.485 0.485c0 0.268-0.217 0.485-0.485 0.485s-0.485-0.217-0.485-0.485c0-0.268 0.217-0.485 0.485-0.485v0c0.268 0 0.485 0.217 0.485 0.485v0z"></path>
<path fill="#0029c0" d="M16.485 31.515c0 0.268-0.217 0.485-0.485 0.485s-0.485-0.217-0.485-0.485c0-0.268 0.217-0.485 0.485-0.485v0c0.268 0 0.485 0.217 0.485 0.485v0z"></path>
<path fill="#003ec5" d="M19.236 14.384h0.724c0.491-0 0.889-0.398 0.889-0.889v0-2.343h-2.343c-0.491 0-0.889 0.398-0.889 0.889v0.727c0 0.893-0.724 1.616-1.616 1.616s-1.616-0.723-1.616-1.616v0-0.759c-0-0.473-0.384-0.857-0.857-0.857h-2.375v9.696h2.357c0.483-0 0.875-0.392 0.875-0.875v-0.741c0-0.892 0.723-1.616 1.616-1.616v0 0.003c0.892 0 1.616 0.724 1.616 1.616v0 0.731c0 0.487 0.395 0.882 0.882 0.882v0h2.35v-2.35c0-0.487-0.395-0.882-0.882-0.882v0h-0.734c-0.892 0-1.616-0.724-1.616-1.616v0h0.003c0-0.893 0.724-1.616 1.616-1.616v0z"></path>
</svg>
