<!-- Generated by IcoMoon.io -->
<svg version="1.1" xmlns="http://www.w3.org/2000/svg" viewBox="0 0 32 32">
<title>kmd</title>
<path d="M0 15.985c0 0.008-0 0.018-0 0.027 0 8.837 7.163 16 16 16 8.827 0 15.985-7.148 16-15.972v-0.123c-0.001-1.297-0.158-2.557-0.455-3.762l0.022 0.108c-0.205-0.736-0.87-1.268-1.659-1.268-0.949 0-1.719 0.77-1.719 1.719 0 0.118 0.012 0.233 0.035 0.345l-0.002-0.011c0.226 0.891 0.355 1.915 0.355 2.968 0 6.952-5.636 12.588-12.588 12.588s-12.588-5.636-12.588-12.588c0-6.952 5.636-12.588 12.588-12.588 1.037 0 2.045 0.125 3.009 0.362l-0.086-0.018c0.117 0.029 0.252 0.045 0.39 0.045 0.808 0 1.485-0.558 1.668-1.309l0.002-0.012c0.031-0.121 0.048-0.259 0.048-0.402 0-0.8-0.555-1.471-1.302-1.648l-0.012-0.002c-1.122-0.281-2.409-0.442-3.734-0.442-7.506 0-13.803 5.175-15.519 12.151l-0.023 0.11c-0.274 1.117-0.431 2.4-0.432 3.72v0.001z"></path>
<path d="M24.125 4.21c-0.028 0.028-0.041 0.056-0.056 0.069-0.381 0.403-0.632 0.932-0.687 1.519l-0.001 0.010v0.275c0 0.069-0.013 0.123-0.013 0.192-0.235 2.348-2.2 4.166-4.59 4.166-0.164 0-0.325-0.009-0.485-0.025l0.020 0.002c-0.228-0.020-0.434-0.054-0.636-0.101l0.030 0.006c-0.136-0.028-0.252-0.062-0.364-0.103l0.018 0.006c-0.403-0.106-0.865-0.167-1.341-0.167-0.056 0-0.112 0.001-0.167 0.002l0.008-0c-1.537 0.031-2.927 0.632-3.974 1.599l0.004-0.004c-0.054 0.054-0.123 0.097-0.179 0.164-1.187 1.099-1.928 2.666-1.928 4.405 0 3.313 2.685 5.998 5.998 5.998 1.739 0 3.304-0.74 4.4-1.922l0.004-0.004c0.242-0.244 0.463-0.509 0.662-0.791l0.013-0.020c0.673-0.957 1.075-2.147 1.075-3.431 0-0.497-0.060-0.979-0.174-1.441l0.009 0.041c-0.029-0.087-0.058-0.198-0.081-0.311l-0.003-0.020c0-0.015-0.013-0.028-0.013-0.056-0.076-0.314-0.12-0.675-0.12-1.045 0-2.186 1.519-4.017 3.559-4.495l0.031-0.006c0.19-0.049 0.412-0.083 0.64-0.095l0.009-0 0.095-0.015c0.072-0.009 0.156-0.014 0.241-0.014 0.017 0 0.034 0 0.051 0.001l-0.003-0h0.028c0.622-0.061 1.171-0.334 1.583-0.744l-0 0c0.097-0.11 0.195-0.216 0.277-0.331 0.298-0.413 0.477-0.93 0.477-1.489 0-0.867-0.431-1.633-1.090-2.097l-0.008-0.005c-0.416-0.297-0.935-0.474-1.495-0.474-0.711 0-1.355 0.286-1.824 0.749l0-0z"></path>
</svg>
