<!-- Generated by IcoMoon.io -->
<svg version="1.1" xmlns="http://www.w3.org/2000/svg" viewBox="0 0 32 32">
<title>kndc</title>
<path fill="#fef5f6" d="M0.049 16.687h-0.049v-1.493c0.017 0 0.033 0 0.050 0 0.056 0.050 0.087 0.122 0.084 0.197 0.015 0.367 0.015 0.734 0 1.101 0.003 0.075-0.029 0.146-0.085 0.195z"></path>
<path fill="#abacac" d="M13.037 10.461c0.646 0.234 1.318 0.376 1.98 0.553 3.456 0.926 6.914 1.849 10.371 2.77 2.122 0.566 4.245 1.129 6.369 1.69 0.183 0.048 0.254 0.127 0.241 0.322-0.020 0.303-0.004 0.608-0.014 0.911-0.007 0.201-0.075 0.285-0.311 0.215-0.604-0.181-1.219-0.326-1.828-0.492-0.147-0.040-0.213-0.020-0.164 0.147 0.008 0.026 0.009 0.055 0.017 0.081 0.135 0.486 0.046 0.395 0.515 0.412 0.512 0.018 1.025 0.046 1.537 0.057 0.168 0.003 0.205 0.078 0.188 0.222-0.040 0.346-0.075 0.692-0.119 1.038-0.017 0.133-0.087 0.172-0.232 0.151-0.417-0.059-0.843 0-1.261-0.075-0.17-0.030-0.198 0.042-0.157 0.2 0.088 0.346 0.162 0.697 0.234 1.047 0.030 0.145 0.111 0.186 0.252 0.188 0.228 0.003 0.456 0.035 0.685 0.043 0.126 0.005 0.157 0.041 0.116 0.167-0.116 0.358-0.219 0.72-0.328 1.080-0.018 0.060-0.031 0.145-0.112 0.135-0.286-0.035-0.196 0.146-0.167 0.287 0.017 0.080 0.062 0.159 0.030 0.242-0.256 0.691-0.574 1.358-0.949 1.993-0.143-0.599-0.274-1.136-0.399-1.674-0.359-1.556-0.717-3.112-1.073-4.668-0.101-0.438-0.218-0.873-0.304-1.314-0.018-0.148-0.135-0.265-0.283-0.284-0.355-0.089-0.711-0.175-1.061-0.283-0.226-0.070-0.229 0.010-0.185 0.194 0.243 1.027 0.478 2.056 0.715 3.084 0.494 2.137 0.99 4.273 1.487 6.409 0.036 0.105 0.018 0.222-0.048 0.311-0.282 0.362-0.56 0.728-0.874 1.064-0.143 0.152-0.182 0.118-0.225-0.071-0.373-1.628-0.756-3.253-1.133-4.88-0.358-1.547-0.715-3.094-1.070-4.641-0.136-0.59-0.28-1.178-0.406-1.77-0.011-0.11-0.094-0.2-0.203-0.218-0.381-0.097-0.764-0.191-1.141-0.301-0.212-0.062-0.225 0-0.18 0.191 0.298 1.25 0.586 2.502 0.877 3.753 0.607 2.619 1.214 5.239 1.82 7.858 0.014 0.081 0.023 0.163 0.027 0.246-0.027 0.038-0.074 0.056-0.12 0.048-0.488-0.129-0.99-0.215-1.439-0.466-0.058-0.103-0.093-0.217-0.106-0.335-0.087-0.407-0.093-0.412-0.507-0.308-0.229 0.057-0.456 0.12-0.687 0.167-0.456-0.073-0.844-0.324-1.266-0.488-0.218-0.092-0.43-0.198-0.635-0.317-0.090-0.049-0.214-0.077-0.206-0.222 0.082-0.104 0.207-0.111 0.32-0.141 0.71-0.183 1.427-0.336 2.137-0.523 0.072-0.016 0.142-0.036 0.212-0.059 0.070-0.026 0.142-0.056 0.131-0.151-0.005-0.077-0.064-0.139-0.14-0.149-0.133-0.034-0.27-0.054-0.407-0.059-0.495 0.008-0.988-0.049-1.482-0.063-0.238-0.001-0.476-0.015-0.712-0.042-0.472-0.064-0.93 0.021-1.383 0.154-0.139 0.047-0.283 0.078-0.429 0.093-0.129-0.004-0.254-0.049-0.356-0.128-0.738-0.482-1.468-0.976-2.16-1.523-0.082-0.059-0.156-0.129-0.22-0.207-0.057-0.076-0.015-0.115 0.056-0.142 0.568-0.074 1.134 0.024 1.699 0.049 0.501 0.021 1.006 0.053 1.507 0.074 0.933 0.038 1.863 0.127 2.798 0.128 0.193 0 0.381 0.053 0.575 0.051 0.177-0.002 0.254-0.069 0.209-0.255-0.064-0.259-0.133-0.517-0.186-0.778-0.018-0.143-0.147-0.246-0.291-0.232-0.777-0.027-1.554-0.073-2.331-0.119-0.923-0.054-1.847-0.068-2.769-0.145-0.446-0.037-0.896-0.047-1.343-0.060-0.504-0.015-1.005-0.076-1.508-0.077-0.065-0.002-0.127-0.025-0.178-0.065-0.454-0.425-0.916-0.844-1.296-1.342-0.058-0.076-0.107-0.164 0.035-0.214 0.523-0.044 1.044 0.021 1.564 0.050 0.466 0.026 0.934 0.054 1.399 0.075 0.952 0.042 1.904 0.087 2.857 0.136 0.906 0.045 1.814 0.059 2.718 0.148 0.165 0.012 0.33 0.013 0.495 0.002 0.141-0.006 0.197-0.077 0.171-0.216-0.053-0.28-0.121-0.558-0.203-0.831-0.052-0.174-0.195-0.209-0.349-0.21-0.358-0.002-0.715-0.045-1.071-0.052-1.338-0.028-2.674-0.127-4.010-0.187-1.263-0.057-2.527-0.108-3.788-0.202-0.377-0.028-0.398-0.010-0.443 0.359 0.004 0.084-0.028 0.165-0.089 0.223-0.136-0.049-0.128-0.172-0.128-0.277 0-1.802-0.024-3.604 0.010-5.405 0.037-0.199 0.247-0.219 0.357-0.344 0.039-0.044 0.128-0.060 0.1-0.14-0.019-0.055-0.088-0.053-0.138-0.071-0.111-0.040-0.266 0-0.307-0.169-0.020-0.472-0.063-0.944 0.024-1.414 0.009-0.025 0.036-0.038 0.061-0.029 0.006 0.002 0.012 0.005 0.016 0.010z"></path>
<path fill="#ee1d55" d="M13.715 19.075c0.434 0.528 0.907 1.023 1.414 1.482 0.287 0.122 0.459 0.384 0.682 0.581 0.339 0.299 0.723 0.55 1.002 0.914 0.83 0.706 1.722 1.335 2.665 1.881 0.312 0.086 0.56 0.293 0.838 0.444 0.263 0.143 0.521 0.294 0.791 0.423 0.087 0.028 0.161 0.088 0.205 0.169 0.671 0.367 1.369 0.681 2.088 0.942 0.465 0.106 0.923 0.233 1.332 0.493 0.501 0.186 1.016 0.335 1.539 0.446 0.366 0.151 0.763 0.188 1.197 0.317-0.22 0.211-0.417 0.407-0.622 0.595-0.628 0.575-0.629 0.574-1.428 0.344-9.546-2.749-16.721-10.421-18.847-20.157-0.289-1.378-0.478-2.775-0.565-4.181-0.029-0.182 0.054-0.364 0.21-0.462 0.378-0.271 0.745-0.558 1.173-0.822 0.007 2.746 0.485 5.47 1.415 8.053v-0.278c0-2.772-0.002-5.544-0.005-8.316-0.001-0.203 0.051-0.319 0.241-0.398 0.379-0.157 0.749-0.334 1.123-0.503 0.046 0.1 0.060 0.212 0.042 0.32 0.002 4.126 0.002 8.252 0.002 12.378-0.009 0.082-0.001 0.165 0.024 0.244 0.391 0.796 0.854 1.554 1.381 2.267v-0.286c0-5.028-0.002-10.057-0.005-15.085 0-0.24 0.044-0.356 0.303-0.406 0.366-0.070 0.725-0.181 1.096-0.238 0.091 0.108 0.070 0.24 0.077 0.366 0.025 0.5-0.027 0.998-0.053 1.496 0.063 0.559 0.094 1.118-0.024 1.675-0.001 0.503-0.001 1.005-0.001 1.508 0.040 0.061 0.063 0.132 0.066 0.205 0.007 0.445 0.007 0.89 0 1.335-0.007 0.091-0.030 0.18-0.066 0.263l0.002 1.564c0.039 0.062 0.061 0.133 0.064 0.207 0.007 0.447 0.007 0.893 0 1.34-0.007 0.091-0.029 0.181-0.067 0.264l0.019 1.507c0.087 0.17 0.086 0.372-0.003 0.541-0.005 1.887-0.009 3.773-0.013 5.66 0.005 0.035 0.014 0.070 0.028 0.103 0.284 0.214 0.516 0.488 0.681 0.804z"></path>
<path fill="#ee1d55" d="M0.049 16.687l0.001-1.493c-0.039-0.701 0.378-1.215 0.72-1.76 0.082-0.131 0.16-0.265 0.239-0.398 0.11-0.347 0.347-0.619 0.556-0.902 0.124-0.148 0.157-0.353 0.084-0.532-0.066-0.195-0.174-0.387-0.121-0.608-0.015-0.1-0.040-0.198-0.073-0.293-0.266-0.588-0.157-1.132 0.155-1.67 0.215-0.371 0.381-0.771 0.65-1.178 0.988 5.274 3.136 9.964 6.492 14.081 3.36 4.122 7.519 7.167 12.47 9.199-0.681 0.239-1.377 0.43-2.085 0.574-0.092 0.010-0.184-0.013-0.261-0.065-0.38-0.181-0.76-0.362-1.14-0.545-0.284-0.051-0.512-0.224-0.757-0.357-0.73-0.397-1.429-0.846-2.129-1.292-0.492-0.354-1.004-0.68-1.482-1.054-0.106-0.102-0.25-0.162-0.327-0.295-0.009-0.014-0.018-0.044-0.025-0.044-0.024 0-0.016 0.008 0.001 0.028 0.028 0.037 0.045 0.080 0.050 0.125 0.012 0.948 0.012 1.895-0.002 2.841-0.007 0.218-0.029 0.436-0.066 0.651-0.429-0.040-0.838-0.175-1.255-0.27-0.173-0.040-0.131-0.174-0.131-0.286-0.001-1.325-0.005-2.651 0.004-3.977 0.010-0.173-0.066-0.339-0.203-0.445-0.395-0.34-0.775-0.698-1.165-1.053-0.075 0.094-0.040 0.188-0.040 0.274-0.003 1.556-0.003 3.111-0.002 4.667 0 0.303-0.002 0.306-0.29 0.181-0.302-0.131-0.598-0.278-0.902-0.403-0.171-0.071-0.215-0.178-0.215-0.359 0.007-1.869 0.002-3.737 0.008-5.606 0.008-0.163-0.051-0.323-0.163-0.443-0.402-0.449-0.788-0.912-1.218-1.413-0.007 0.146-0.015 0.241-0.015 0.336-0.001 2.099-0.003 4.198-0.006 6.296 0 0.062 0.111 0.218-0.093 0.203-0.019-0.137-0.024-0.275-0.013-0.413-0.001-2.004-0.004-4.009 0.004-6.013 0.011-0.286-0.088-0.565-0.276-0.779-0.367-0.447-0.708-0.914-1.022-1.4-0.122-0.245-0.264-0.481-0.424-0.703-0.006-0.007-0.010-0.015-0.016-0.022-0.074-0.084-0.091-0.257-0.224-0.237-0.104 0.016-0.113 0.172-0.155 0.27-0.196 0.43-0.388 0.861-0.567 1.299-0.18 0.48-0.368 0.956-0.524 1.444-0.065 0.201-0.139 0.399-0.192 0.604-0.186 0.629-0.352 1.262-0.505 1.9-0.022 0.091-0.012 0.208-0.139 0.242-0.387-0.456-0.688-0.97-1.004-1.474-0.072-0.116-0.027-0.21 0.001-0.313 0.506-1.869 1.218-3.676 2.123-5.389 0.091-0.137 0.092-0.315 0.002-0.453-0.227-0.398-0.427-0.811-0.638-1.218-0.060-0.084-0.101-0.18-0.119-0.282-0.026 0.107 0.107 0.175 0.070 0.282-0.981 1.706-1.784 3.509-2.397 5.38-0.175-0.268-0.245-0.544-0.34-0.805-0.46-1.273-0.454-1.273 0.103-2.51 0.528-1.183 1.133-2.329 1.813-3.431 0.098-0.133 0.112-0.31 0.036-0.456-0.187-0.427-0.354-0.863-0.548-1.339-0.836 1.244-1.581 2.547-2.231 3.898l-0.082-0.797z"></path>
<path fill="#ee1d55" d="M4.667 4.698c1.056 11.806 9.162 21.435 20.065 24.679-0.15 0.177-0.352 0.263-0.534 0.372-1.055 0.631-1.063 0.644-2.2 0.174-8.994-3.719-14.903-10.251-17.728-19.596-0.381-1.316-0.66-2.66-0.837-4.019-0.026-0.089-0.011-0.185 0.042-0.261 0.373-0.471 0.771-0.921 1.192-1.349z"></path>
<path fill="#abacac" d="M28.053 5.422c0.261 0.352 0.262 0.353-0.084 0.622-0.181 0.14-0.363 0.278-0.545 0.417-0.169 0.006-0.060 0.103-0.054 0.167 0.092 0.383 0.195 0.764 0.274 1.15 0.047 0.229 0.105 0.252 0.286 0.096 0.347-0.299 0.72-0.569 1.069-0.866 0.14-0.12 0.211-0.093 0.296 0.048 0.166 0.275 0.337 0.548 0.514 0.815 0.099 0.15 0.097 0.25-0.065 0.361-0.227 0.155-0.436 0.335-0.649 0.509-0.045 0.037-0.125 0.068-0.095 0.148 0.022 0.058 0.091 0.050 0.143 0.064 0.397 0.107 0.792 0.225 1.192 0.321 0.156 0.025 0.285 0.135 0.334 0.284 0.144 0.387 0.3 0.77 0.449 1.156 0.022 0.058 0.076 0.125 0.035 0.182-0.057 0.079-0.134 0.014-0.2-0.004-1.849-0.49-3.698-0.981-5.546-1.472-2.246-0.598-4.492-1.198-6.738-1.799-0.159-0.043-0.318-0.085-0.478-0.127-0.009-0.071 0.046-0.096 0.094-0.117 0.705-0.321 1.436-0.582 2.185-0.78 0.158 0.026 0.283 0.152 0.444 0.148-0.060-0.067-0.294 0.036-0.206-0.199 0.256-0.143 0.52-0.258 0.824-0.225 0.124 0.076 0.139 0.211 0.165 0.334 0.023 0.168 0.155 0.301 0.323 0.325 0.356 0.072 0.697 0.209 1.082 0.273-0.020-0.306-0.112-0.58-0.172-0.86-0.028-0.13-0.102-0.261-0.021-0.398 0.453-0.183 0.938-0.275 1.427-0.271 0.139 0.273 0.159 0.579 0.232 0.869 0.072 0.285 0.148 0.569 0.197 0.859 0.021 0.179 0.156 0.323 0.334 0.354 0.293 0.074 0.587 0.14 0.878 0.225 0.174 0.051 0.219-0.014 0.178-0.177-0.162-0.641-0.304-1.286-0.45-1.931-0.033-0.146-0.184-0.198-0.207-0.338 0.042-0.050 0.104-0.078 0.168-0.079 0.715-0.052 1.432-0.076 2.147-0.121 0.082 0.003 0.163 0.016 0.241 0.038z"></path>
<path fill="#abacac" d="M16.242 8.418c1.414 0.38 2.828 0.76 4.241 1.14 3.633 0.973 7.267 1.943 10.901 2.912 0.175 0.047 0.262 0.113 0.29 0.302 0.052 0.344 0.117 0.686 0.173 1.030 0.036 0.223 0.008 0.258-0.209 0.198-0.811-0.225-1.627-0.435-2.44-0.652-4.836-1.292-9.672-2.584-14.508-3.876-0.062-0.017-0.124-0.030-0.187-0.045-0.018-0.085 0.053-0.109 0.102-0.143 0.468-0.322 0.972-0.583 1.465-0.86 0.050-0.029 0.112-0.075 0.17-0.005z"></path>
<path fill="#ee1d55" d="M16.242 8.418c-0.599 0.301-1.179 0.637-1.738 1.008l-1.38 0.916c-0.073 0.011-0.099-0.032-0.098-0.094 0.014-0.524-0.036-1.049 0.026-1.572 3.28-2.232 7.017-3.701 10.938-4.3 0.861-0.134 1.728-0.213 2.597-0.273 0.119-0.006 0.234 0.043 0.312 0.132 0.406 0.374 0.781 0.778 1.152 1.186-0.286 0.11-0.588 0.062-0.881 0.079-0.551 0.033-1.104 0.044-1.653 0.115-0.125 0.147-0.307 0.108-0.463 0.125-0.241 0.026-0.484 0.129-0.73 0.022-0.474 0.059-0.944 0.147-1.407 0.262-0.438 0.19-0.906 0.301-1.383 0.33-0.283 0.047-0.561 0.123-0.829 0.226-0.053 0.062-0.139 0.087-0.217 0.063-0.785 0.231-1.554 0.515-2.301 0.85-0.67 0.262-1.32 0.571-1.947 0.924z"></path>
<path fill="#ee1d55" d="M13.159 5.296c1.557-0.931 3.203-1.706 4.913-2.311 1.612-0.58 3.271-1.018 4.959-1.308 0.088-0.024 0.182-0.016 0.265 0.023 0.632 0.324 1.241 0.692 1.821 1.101-0.541 0.079-1.042 0.147-1.541 0.226-3.63 0.574-7.11 1.864-10.236 3.795-0.078 0.048-0.159 0.090-0.238 0.135-0.12-0.011-0.076-0.106-0.076-0.166-0.004-0.421 0.002-0.843-0.005-1.264-0.017-0.101 0.041-0.199 0.138-0.231z"></path>
<path fill="#ee1d55" d="M13.107 2.104c1.512-0.808 3.092-1.48 4.722-2.010 0.279-0.092 0.559 0.029 0.835 0.072 0.738 0.115 1.464 0.291 2.173 0.526-0.924 0.234-1.796 0.478-2.654 0.768-1.703 0.575-3.352 1.297-4.929 2.157-0.064 0.035-0.132 0.062-0.198 0.093-0.067-0.5-0.017-1.002-0.026-1.503 0.003-0.047 0.033-0.088 0.077-0.104z"></path>
<path fill="#abacac" d="M14.872 29.398c0.94 0.592 1.897 1.153 2.864 1.699-0.021 0.223-0.042 0.445-0.064 0.668-0.055 0.074-0.063 0.18-0.205 0.181-0.347 0.004-0.693 0.030-1.040 0.052-0.163 0.010-0.253 0.001-0.202-0.221 0.081-0.356 0.112-0.723 0.171-1.085 0.025-0.15-0.014-0.21-0.171-0.17-0.372 0.095-0.744 0.188-1.117 0.278-0.112 0.013-0.195 0.11-0.19 0.222-0.019 0.246-0.075 0.489-0.103 0.734-0.016 0.138-0.076 0.2-0.213 0.185-0.363-0.040-0.725-0.079-1.088-0.122-0.082-0.010-0.136-0.056-0.105-0.153 0.004-0.009 0.006-0.017 0.008-0.026 0.041-0.431 0.041-0.431-0.355-0.36-0.081-0.36-0.017-0.725-0.036-1.087-0.005-0.1-0.001-0.201-0.001-0.302 0.009-0.066 0.060-0.117 0.125-0.128 0.521-0.16 1.051-0.285 1.588-0.375 0.045-0.007 0.091-0.003 0.134 0.011z"></path>
<path fill="#ababac" d="M13.002 2.083c0.001-0.615 0.002-1.23 0.003-1.845 0.874-0.182 1.767-0.262 2.659-0.238-0.53 0.351-1.060 0.703-1.591 1.054-0.237 0.157-0.466 0.327-0.714 0.463-0.232 0.127-0.365 0.288-0.326 0.562-0.007 0.035-0.017 0.035-0.032 0.004z"></path>
<path fill="#abacac" d="M1.528 10.994c0.294 0.59 0.287 1.136-0.217 1.624-0.113 0.13-0.214 0.27-0.302 0.417l-0.761 0.465c0.084-0.633 0.217-1.259 0.399-1.871 0.035-0.12 0.15-0.157 0.238-0.217 0.211-0.145 0.429-0.28 0.643-0.419z"></path>
<path fill="#ef4464" d="M13.159 5.296c-0.039 0.067-0.112 0.11-0.11 0.208 0.006 0.454 0.003 0.907 0.007 1.361 0 0.031 0.031 0.062 0.047 0.093l-0.1 0.129c0-0.601 0-1.202 0.001-1.803 0.049 0.041 0.102 0.021 0.155 0.013z"></path>
<path fill="#ef4263" d="M13.053 8.677c0 0.464-0.002 0.928 0 1.392 0.001 0.095-0.033 0.204 0.072 0.274l-0.087 0.119-0.017-0.003-0.017 0.003c0.001-0.603 0.002-1.207 0.002-1.81 0.018 0.002 0.035 0.011 0.046 0.026z"></path>
<path fill="#ef4263" d="M13.002 2.083c0.011 0.004 0.023 0.003 0.032-0.004l0.072 0.024c-0.109 0.227-0.044 0.468-0.052 0.702-0.011 0.301-0.001 0.603 0.001 0.905l-0.049 0.065c-0.001-0.564-0.002-1.128-0.004-1.692z"></path>
<path fill="#b1b2b2" d="M27.369 6.628c-0.094-0.081-0.036-0.198-0.077-0.297 0.108-0.011 0.060 0.117 0.131 0.13l-0.054 0.167z"></path>
<path fill="#ed1a47" d="M6.006 20.723c0.346 0.457 0.67 0.934 1.046 1.366 0.268 0.309 0.333 0.634 0.33 1.027-0.015 1.993-0.006 3.986-0.009 5.979 0 0.104 0.045 0.223-0.061 0.309-0.418-0.256-0.819-0.54-1.2-0.848-0.087-0.067-0.132-0.174-0.118-0.283 0.001-0.347-0.006-0.693-0.009-1.040-0.052-0.076-0.075-0.167-0.066-0.259-0.005-0.436-0.003-0.872-0.001-1.308 0.004-0.1 0.027-0.199 0.068-0.29-0-0.595-0.001-1.189-0.002-1.784-0.055-0.086-0.078-0.189-0.066-0.29 0-0.599-0.010-1.197 0.005-1.796 0.021-0.262-0.077-0.536 0.085-0.783z"></path>
<path fill="#abacac" d="M5.983 21.499c0 0.698 0 1.396 0 2.094-0.803 0.636-1.603 1.276-2.412 1.903-0.078 0.060-0.151 0.26-0.313 0.099 0.192-0.721 0.333-1.455 0.583-2.16 0.221-0.215 0.433-0.442 0.729-0.558 0.115-0.028 0.235-0.037 0.353-0.026-0.133-0.011-0.267-0.001-0.396 0.030-0.17 0.021-0.344 0.065-0.492-0.069 0.15-0.48 0.326-0.951 0.527-1.412 0.475-0.081 0.962-0.046 1.421 0.101z"></path>
<path fill="#abacac" d="M5.985 25.377c0 0.619 0 1.238 0 1.856-0.312 0.027-0.607 0.133-0.909 0.204-0.103 0.042-0.222 0.016-0.297-0.067-0.291-0.318-0.585-0.634-0.882-0.947-0.104-0.11-0.057-0.15 0.066-0.174 0.143-0.029 0.283-0.080 0.427-0.098 0.603-0.074 1.164-0.347 1.595-0.774z"></path>
<path fill="#c1a0a4" d="M13.059 29.844c0.001 0.479 0.001 0.957 0.002 1.436-0.053 0.136 0.039 0.293-0.062 0.421 0.003-1.207 0.007-2.415 0.010-3.622 0.009-0.029 0.023-0.034 0.043-0.009l0.329 0.263c-0.219 0.138-0.254 0.343-0.255 0.588-0.002 0.307 0.076 0.624-0.067 0.922z"></path>
<path fill="#ef3c60" d="M3.692 16.748c-0.032-0.092-0.113-0.167-0.1-0.317 0.083 0.087 0.135 0.198 0.15 0.317l-0.025-0.003-0.025 0.002z"></path>
<path fill="#fff" d="M13.715 19.075c-0.249-0.248-0.476-0.517-0.681-0.803 0.003-0.055 0.008-0.11 0.009-0.165 0.005-0.491 0.005-0.497 0.506-0.474 1.527 0.071 3.055 0.141 4.581 0.225 1.097 0.061 2.194 0.123 3.291 0.169 0.375 0.016 0.75 0.040 1.125 0.049 0.195 0.005 0.315 0.074 0.35 0.293 0.050 0.307 0.127 0.611 0.207 0.912 0.045 0.168 0.015 0.241-0.173 0.231-1.042-0.056-2.084-0.11-3.126-0.16-0.421-0.021-0.841-0.033-1.262-0.057-1.353-0.076-2.708-0.12-4.061-0.188-0.255-0.012-0.509-0.058-0.766-0.033z"></path>
<path fill="#fff" d="M16.813 22.053c-0.6-0.453-1.164-0.953-1.684-1.496 1.418 0.045 2.834 0.118 4.25 0.208 0.438 0.028 0.878 0.026 1.317 0.057 0.867 0.060 1.737 0.088 2.606 0.118 0.113-0.015 0.217 0.065 0.232 0.178 0.001 0.007 0.002 0.014 0.002 0.021 0.071 0.341 0.158 0.679 0.242 1.017 0.042 0.171-0.014 0.234-0.191 0.224-0.895-0.055-1.79-0.1-2.685-0.154-0.384-0.023-0.768-0.021-1.152-0.046-0.977-0.064-1.957-0.087-2.936-0.126z"></path>
<path fill="#fff" d="M16.079 13.75c-0.545 0.371-1.038 0.81-1.557 1.215-0.481 0.375-0.956 0.759-1.477 1.172 0-0.6 0.001-1.148 0-1.695 0-0.107 0.072-0.163 0.144-0.22 0.661-0.523 1.324-1.044 1.98-1.573 0.069-0.075 0.177-0.098 0.27-0.057 0.035 0.010 0.071 0.017 0.107 0.022 0.735 0.192 0.735 0.192 0.596 0.945-0.006 0.046-0.010 0.091-0.011 0.137-0.009 0.025-0.029 0.044-0.054 0.054z"></path>
<path fill="#fff" d="M18.131 16.463c-0.274-0.017-0.548-0.040-0.822-0.049-0.134-0.004-0.164-0.039-0.142-0.18 0.131-0.824 0.239-1.651 0.375-2.474 0.098-0.591 0.116-0.599 0.692-0.426 0.243 0.073 0.575 0.044 0.709 0.24 0.125 0.183-0.034 0.472-0.064 0.714-0.080 0.636-0.203 1.268-0.274 1.905-0.040 0.354-0.271 0.263-0.474 0.269z"></path>
<path fill="#fff" d="M21.313 24.97c-0.64-0.292-1.254-0.639-1.834-1.037 0.258-0.060 0.521-0.104 0.774-0.183 0.423-0.131 0.846-0.1 1.278-0.065 0.557 0.045 1.116 0.051 1.674 0.077 0.236 0.028 0.474 0.041 0.711 0.040 0.241-0.019 0.27 0.127 0.303 0.292 0.044 0.221-0.154 0.177-0.252 0.202-0.842 0.215-1.688 0.416-2.532 0.622-0.042 0.014-0.083 0.031-0.123 0.051z"></path>
<path fill="#fff" d="M21.701 14.438c-0.107 0.68-0.218 1.358-0.32 2.039-0.021 0.14-0.098 0.168-0.21 0.143-0.299-0.049-0.603-0.063-0.905-0.041-0.233 0.004-0.313-0.071-0.274-0.302 0.087-0.525 0.165-1.051 0.245-1.577 0.030-0.2 0.062-0.399 0.086-0.599 0.017-0.14 0.070-0.194 0.218-0.151 0.334 0.096 0.672 0.179 1.009 0.267 0.097 0.010 0.167 0.096 0.157 0.193-0.001 0.010-0.003 0.020-0.006 0.029z"></path>
<path fill="#fdfcfc" d="M24.733 26.405c-0.456-0.131-0.901-0.296-1.332-0.493 0.321-0.131 0.665-0.176 0.997-0.266 0.079-0.033 0.171 0.004 0.204 0.084 0.008 0.019 0.012 0.038 0.012 0.059 0.037 0.206 0.079 0.412 0.119 0.617z"></path>
<path fill="#f6f6f5" d="M15.776 15.774c0.052 0.567 0.020 0.593-0.613 0.506 0.188-0.188 0.393-0.357 0.613-0.506z"></path>
<path fill="#fbf1f0" d="M13.020 12.508c0.001-0.18 0.002-0.36 0.003-0.541 0.177 0.013 0.425 0.001 0.478 0.152 0.047 0.134-0.217 0.199-0.32 0.319-0.042 0.048-0.089 0.092-0.162 0.069z"></path>
<path fill="#b0b1b1" d="M16.079 13.75l0.053-0.055c-0.004 0.299-0.050 0.595-0.137 0.881-0.035-0.281 0.041-0.552 0.084-0.826z"></path>
<path fill="#b0b1b1" d="M16.427 16.341c-0.132 0.098-0.271 0.056-0.459 0.074 0.17-0.182 0.321-0.085 0.459-0.074z"></path>
<path fill="#b2b3b3" d="M22.547 16.982c-0.031-0.298-0.232-0.334-0.475-0.304 0.445-0.088 0.507-0.047 0.475 0.304z"></path>
<path fill="#b1b2b2" d="M22.231 15.519c-0.102-0.188-0.152-0.4-0.145-0.613 0.096 0.19 0.145 0.4 0.145 0.613z"></path>
<path fill="#b0b1b1" d="M14.003 16.237c-0.119 0.075-0.268 0.082-0.395 0.020 0.146-0.114 0.272-0.051 0.395-0.020z"></path>
<path fill="#b1b2b2" d="M25.193 15.215c0.182-0.016 0.364 0.024 0.523 0.114-0.162 0.020-0.308-0.026-0.523-0.114z"></path>
<path fill="#b1b2b2" d="M23.302 14.688c-0.201 0.002-0.399-0.045-0.577-0.138 0.202-0.015 0.404 0.033 0.577 0.138z"></path>
<path fill="#b1b2b2" d="M30.612 20.442l0.126 0.488c-0.142-0.134-0.13-0.311-0.126-0.488z"></path>
<path fill="#b5b6b6" d="M19.484 23.586h-0.365l-0.001-0.028h0.365l0.001 0.028z"></path>
<path fill="#b3b4b4" d="M20.041 23.636h-0.324l0-0.026h0.324l-0 0.026z"></path>
<path fill="#b4b4b5" d="M19.119 16.494c0.114-0.036 0.237-0.037 0.351-0.002-0.114 0.037-0.237 0.038-0.351 0.002z"></path>
<path fill="#b5b6b6" d="M17.003 16.401h-0.31l-0.001-0.028h0.315l-0.005 0.028z"></path>
<path fill="#b5b6b6" d="M14.579 16.288h-0.312c0.097-0.052 0.215-0.052 0.312 0z"></path>
<path fill="#b5b6b7" d="M13.372 16.21c-0.085 0.041-0.184 0.047-0.273 0.015 0.097-0.070 0.189-0.015 0.273-0.015z"></path>
<path fill="#ee365d" d="M11.858 16.738c0.148 0.046 0.163 0.187 0.238 0.285-0.148-0.046-0.163-0.187-0.238-0.285z"></path>
<path fill="#ee375e" d="M9.462 12.305l0.131 0.275c-0.108-0.044-0.165-0.163-0.131-0.275z"></path>
<path fill="#ee365e" d="M9.953 13.459c-0.072-0.069-0.114-0.164-0.113-0.264 0.086 0.058 0.13 0.161 0.113 0.264z"></path>
<path fill="#ee355d" d="M12.755 17.906c-0.099-0.024-0.176-0.102-0.2-0.201 0.095 0.032 0.168 0.107 0.2 0.201z"></path>
<path fill="#ef385e" d="M12.372 17.404c-0.086 0.001-0.12-0.047-0.134-0.124 0.095 0.001 0.106 0.070 0.134 0.124z"></path>
<path fill="#ef395e" d="M9.146 11.643c-0.064-0.121-0.133-0.176-0.093-0.273 0.087 0.060 0.085 0.147 0.093 0.273z"></path>
<path fill="#ee375d" d="M9.136 11.56c0.064 0.122 0.134 0.177 0.093 0.274-0.088-0.059-0.084-0.147-0.093-0.274z"></path>
<path fill="#fffdfd" d="M13.059 29.844c-0.004-0.419-0.002-0.838-0.014-1.258-0.007-0.258 0.186-0.22 0.336-0.253l1.491 1.064-1.813 0.446z"></path>
<path fill="#b4a9aa" d="M5.613 20.056c-0.155-0.003-0.311-0.006-0.466-0.009 0.056-0.123 0.112-0.246 0.18-0.395 0.123 0.113 0.221 0.25 0.286 0.404z"></path>
<path fill="#ee355c" d="M10.165 25.535l-0.642-0.646-0.022 0.021 0.615 0.673 0.049-0.048z"></path>
<path fill="#ee375e" d="M2.148 13.053l-0.17-0.498 0.054-0.020 0.176 0.49-0.060 0.028z"></path>
<path fill="#ee365d" d="M11.718 26.996c0.105 0.010 0.148 0.085 0.241 0.19-0.108-0.017-0.199-0.089-0.241-0.19z"></path>
<path fill="#ee345c" d="M12.281 27.464c0.125 0.006 0.181 0.096 0.277 0.226-0.119-0.035-0.219-0.116-0.277-0.225l0-0z"></path>
<path fill="#ee365e" d="M3.194 15.582c-0.13-0.055-0.107-0.182-0.136-0.285 0.098 0.070 0.11 0.181 0.136 0.285l-0 0z"></path>
<path fill="#ee375e" d="M12.28 27.464c-0.091-0.004-0.169-0.063-0.199-0.149 0.090 0.006 0.167 0.064 0.199 0.148l-0 0z"></path>
<path fill="#ef395e" d="M13.053 28.071c-0.013 0.007-0.028 0.010-0.043 0.009-0.059-0.036-0.131-0.060-0.137-0.152 0.103 0 0.137 0.078 0.181 0.144z"></path>
<path fill="#ef385e" d="M3.194 15.582c0.075 0.052 0.111 0.145 0.091 0.234-0.070-0.056-0.105-0.146-0.091-0.234l0-0z"></path>
<path fill="#fff" d="M24.325 5.763l1.192-0.147c0.108-0.018 0.21 0.055 0.227 0.163 0.001 0.004 0.001 0.008 0.002 0.012 0.166 0.731 0.343 1.459 0.512 2.19 0.030 0.129 0.015 0.217-0.164 0.164-0.376-0.11-0.757-0.203-1.135-0.307-0.096-0.026-0.2-0.052-0.224-0.174-0.122-0.638-0.322-1.258-0.41-1.902z"></path>
<path fill="#fffefe" d="M21.535 6.355c0.45-0.153 0.912-0.263 1.383-0.33 0.088 0.382 0.175 0.764 0.266 1.145 0.035 0.147 0.014 0.205-0.155 0.155-0.358-0.105-0.717-0.208-1.081-0.288-0.188-0.041-0.288-0.12-0.312-0.315-0.024-0.125-0.058-0.248-0.102-0.367z"></path>
<path fill="#b1b2b1" d="M20.49 6.644c0.072-0.020 0.131-0.090 0.217-0.063 0.023 0.168 0.223 0.058 0.282 0.198-0.177 0.009-0.352-0.038-0.499-0.136z"></path>
<path fill="#b1b1b1" d="M26.93 8.392c0.155-0.039 0.319 0.004 0.435 0.113l-0.435-0.113z"></path>
<path fill="#b1b2b2" d="M27.218 5.937c0.076 0.059 0.108 0.157 0.082 0.25-0.102-0.046-0.098-0.128-0.082-0.25z"></path>
<path fill="#b1b2b2" d="M27.15 5.694c0.058 0.035 0.085 0.078 0.061 0.13-0.001 0.003-0.038-0.003-0.039-0.009-0.011-0.040-0.015-0.081-0.022-0.121z"></path>
<path fill="#b1b2b2" d="M14.425 30.966c-0.132 0.131-0.32 0.072-0.476 0.139 0.137-0.111 0.304-0.125 0.476-0.139z"></path>
<path fill="#b6b6b7" d="M4.562 22.929c0.002-0.035 0.003-0.070 0.005-0.105h0.376c-0.122 0.064-0.263 0.034-0.381 0.105z"></path>
<path fill="#b2b4b3" d="M5.618 22.9c-0.144 0.040-0.296 0.043-0.442 0.010 0.144-0.040 0.296-0.043 0.442-0.010z"></path>
</svg>
