<!-- Generated by IcoMoon.io -->
<svg version="1.1" xmlns="http://www.w3.org/2000/svg" viewBox="0 0 32 32">
<title>ksm</title>
<path fill="#000" d="M0.036 0.036h31.927v31.927h-31.927v-31.927z"></path>
<path fill="#fff" d="M27.109 9.244c-0.377-0.297-0.827-0.704-1.647-0.805-0.769-0.102-1.553 0.414-2.083 0.755s-1.531 1.342-1.945 1.647-1.473 0.588-3.178 1.611-8.395 5.319-8.395 5.319l1.742 0.022-7.764 3.998h0.776l-1.117 0.849s0.987 0.261 1.814-0.261v0.239s9.244-3.643 11.029-2.699l-1.088 0.319c0.094 0 1.85 0.116 1.85 0.116 0.091 0.757 0.51 1.401 1.108 1.794l0.009 0.006c1.059 0.697 1.081 1.081 1.081 1.081s-0.551 0.225-0.551 0.508c0 0 0.813-0.247 1.567-0.225 0.512 0.020 0.996 0.101 1.457 0.236l-0.042-0.011s-0.058-0.305-0.791-0.508-1.459-1.001-1.814-1.437c-0.271-0.342-0.434-0.78-0.434-1.255 0-0.264 0.050-0.515 0.142-0.747l-0.005 0.014c0.254-0.66 1.139-1.023 2.968-1.966 2.155-1.117 2.649-1.945 2.953-2.59s0.755-1.93 1.009-2.532c0.319-0.776 0.711-1.19 1.038-1.437s1.778-0.791 1.778-0.791-1.11-0.965-1.466-1.248z"></path>
</svg>
