<!-- Generated by IcoMoon.io -->
<svg version="1.1" xmlns="http://www.w3.org/2000/svg" viewBox="0 0 32 32">
<title>lcc</title>
<path fill="#fff" d="M3.027 30.276l-3.027-8.722 5.745-6.648-2.777-7.909 6.049-6.997 9.080 1.733 2.804 8.059 8.363 1.615 3.013 8.735-6.031 6.974-8.499-1.647-5.613 6.53-9.107-1.724z"></path>
<path fill="#3ab54a" d="M16.336 22.72l-1.098 0.604c0.14 0.287 0.271 0.629 0.374 0.983l0.012 0.047c0.109 0.309 0.1 0.186-0.281 0.617-0.068 0.077-0.077 0.1-0.163 0.191l-1.143 1.302c-0.077 0.077-0.077 0.136-0.15 0.204l-0.154 0.177c-0.062 0.055-0.118 0.116-0.166 0.183l-0.002 0.003-0.34 0.372c-0.053 0.089-0.116 0.166-0.19 0.231l-0.001 0.001-1.103 1.266c-0.077 0.082-0.617 0.735-0.672 0.744l-6.58-1.266c0.020-0.062 0.064-0.112 0.121-0.14l0.001-0.001c0.041-0.045 0.036-0.091 0.104-0.168l0.086-0.082c0.014-0.016 0.026-0.034 0.036-0.053l0.001-0.001c0.046-0.056 0.094-0.106 0.144-0.153l0.001-0.001c0.050-0.054 0.064-0.095 0.118-0.15 0.031-0.017 0.057-0.040 0.077-0.067l0-0.001 1.638-1.91c0.054-0.035 0.098-0.082 0.126-0.139l0.001-0.002c0.039-0.059 0.088-0.109 0.143-0.149l0.002-0.001c0.091-0.1 0.032-0.086 0.109-0.163l0.531-0.599c0.040-0.061 0.086-0.113 0.14-0.158l0.001-0.001 0.79-0.908c0.322-0.454 0.268 0-0.245-1.57-0.181-0.558-0.404-1.125-0.576-1.683-0.349-1.121-0.835-2.269-1.166-3.372l2.074 0.399c0.131-0.146 0.257-0.304 0.375-0.469l0.011-0.016c0.158-0.118 0.26-0.304 0.26-0.515 0-0.030-0.002-0.059-0.006-0.088l0 0.003-3.176-0.626c-0.213 0.318-1.815 2.065-2.187 2.546l-0.331 0.381-2.496 2.886c-0.050 0.065-0.101 0.123-0.154 0.177l0-0c-0.159 0.177-0.095 0.254 0.082 0.708l0.708 2.037c0.109 0.327 0.245 0.676 0.354 1.012 0.227 0.676 0.454 1.325 0.694 2.019l0.703 2.033 1.997 0.386c0.672 0.136 1.361 0.254 1.997 0.39l0.998 0.191c0.594 0.109 2.723 0.554 3.022 0.554 0.034-0.074 0.081-0.136 0.14-0.185l0.001-0.001 2.813-3.263c0.272-0.272 0.862-1.016 1.162-1.361 0.073-0.077 0.1-0.118 0.163-0.195l0.989-1.153c-0.026-0.097-0.053-0.179-0.086-0.258l0.005 0.013-0.558-1.534c-0.034-0.078-0.065-0.172-0.088-0.269l-0.003-0.013z"></path>
<path fill="#fff" d="M10.718 4.737c-0.082 0.095-2.723 1.57-3.090 1.815-0.191 0.118-0.454 0.168-0.413 0.377l0.799 3.258c0.2 0.849 0.454 1.72 0.653 2.564 0.117 0.358 0.226 0.802 0.304 1.255l0.009 0.061c0.134 0.359 0.255 0.793 0.341 1.24l0.009 0.053 0.136 0.068h0.177l4.746 0.908c0.103 0.029 0.224 0.050 0.348 0.059l0.006 0c0.13-0.18 0.262-0.339 0.405-0.487l-0.001 0.001c0.141-0.181 0.281-0.304 0.408-0.495-0.082-0.313-0.168-0.604-0.259-0.908-0.030-0.059-0.048-0.129-0.048-0.203 0-0.093 0.028-0.18 0.076-0.252l-0.001 0.002 0.79-0.908c0.241-0.281 0.454-0.454 0.377-0.726s-0.699-2.723-0.83-3.018c-0.235 0.189-0.439 0.401-0.615 0.635l-0.007 0.009c-0.095 0.123-0.2 0.218-0.29 0.336-0.093 0.119-0.193 0.225-0.301 0.32l-0.003 0.002-0.908-3.521c-0.091-0.368-0.771-3.217-0.908-3.494z"></path>
<path fill="#02833d" d="M22.008 14.902l0.626-0.336c0.531-0.337 1.146-0.657 1.788-0.923l0.081-0.030c0.371 1.032 0.752 2.358 1.060 3.712l0.048 0.249c-0.455 0.302-0.996 0.617-1.554 0.903l-0.098 0.046c-0.277 0.145-0.54 0.304-0.826 0.454l-0.812 0.454c-0.050 0.103-0.115 0.19-0.194 0.263l-0.001 0.001-0.345 0.349c-0.029 0.055-0.061 0.103-0.097 0.147l0.001-0.002-1.538 1.747c-0.046 0.034-0.085 0.075-0.117 0.121l-0.001 0.002c-0.147 0.192-0.296 0.362-0.454 0.522l0.001-0.001-0.34 0.372c-0.113 0.195-0.313 0.331-0.454 0.531l6.63 1.266 0.254-0.309c0.077-0.104 0.077-0.050 0.145-0.145 0.134-0.182 0.268-0.341 0.411-0.493l-0.003 0.003 0.83-0.957c0.042-0.047 0.084-0.099 0.123-0.153l0.004-0.006c0.163-0.204 0.195-0.195 0.404-0.486 0.068-0.095 0.073-0.045 0.15-0.15l0.272-0.322c0.15-0.145 0.372-0.454 0.413-0.481l0.417-0.476c0.064-0.068 0.073-0.1 0.132-0.163l0.699-0.794c0.041-0.056 0.085-0.105 0.135-0.149l0.001-0.001c-0.136-0.504-0.876-2.559-1.098-3.176-0.181-0.517-0.368-1.062-0.567-1.593l-0.454-1.425c0.001-0.016 0.002-0.035 0.002-0.054s-0.001-0.038-0.002-0.057l0 0.002-0.068-0.1-6.584-1.266z"></path>
<path fill="#3ab54a" d="M9.33 15.347c-0.095-0.495-0.216-0.925-0.368-1.339l0.019 0.059c-0.437-0.041-0.835-0.114-1.22-0.22l0.049 0.011-0.145-0.050 0.504-0.558c0.041-0.047 0.076-0.101 0.103-0.159l0.002-0.004c0.038-0.038 0.078-0.073 0.12-0.107l0.003-0.002c0.097-0.070 0.174-0.162 0.225-0.268l0.002-0.004c0.003-0.001 0.007-0.001 0.012-0.001 0.027 0 0.049 0.018 0.056 0.042l0 0c-0.195-0.844-0.454-1.715-0.653-2.564l-0.812-3.258c0.062-0.189 0.217-0.332 0.409-0.376l0.004-0.001c0.363-0.222 3.009-1.697 3.090-1.815-0.12-0.165-0.205-0.363-0.239-0.578l-0.001-0.008c-0.195-0.594-0.454-1.202-0.626-1.815l6.589 1.257 0.858 2.446c0.254 0.803 0.563 1.634 0.844 2.432 0.15 0.413 0.281 0.826 0.427 1.239s0.059 0.268-0.145 0.526c-0.030 0.039-0.063 0.073-0.099 0.104l-0.001 0.001c-0.034 0.036-0.064 0.076-0.089 0.12l-0.002 0.003-0.181 0.204c-0.068 0.086-0.127 0.132-0.195 0.222s-0.123 0.132-0.195 0.222c-0.031 0.039-0.063 0.073-0.099 0.104l-0.001 0.001c-0.058 0.084-0.122 0.156-0.194 0.221l-0.001 0.001c-0.030 0.029-0.055 0.064-0.072 0.102l-0.001 0.002c-0.095 0.145-0.068 0.045-0.195 0.227s-0.054 0.027-0.195 0.222c-0.027 0.041-0.062 0.074-0.103 0.099l-0.001 0.001-0.259 0.345c-0.029-0.011-0.053-0.028-0.072-0.050l-0-0c0.054 0.286-0.136 0.454-0.377 0.726l-0.79 0.908c-0.047 0.070-0.075 0.157-0.075 0.25 0 0.074 0.018 0.144 0.049 0.206l-0.001-0.003c0.091 0.309 0.177 0.599 0.259 0.908 0.076-0.070 0.145-0.146 0.206-0.227l0.003-0.004 0.849-0.971c0.454-0.522 1.302-1.556 1.711-1.978 0.039-0.039 0.075-0.082 0.107-0.129l0.002-0.003 1.361-1.597c0.327-0.345 0.2-0.272-0.141-1.298l-1.184-3.403c-0.086-0.24-0.145-0.454-0.236-0.685-0.231-0.576-0.454-1.416-0.712-2.060-0.209-0.563-0.091-0.454-0.404-0.517l-7.342-1.416c-0.112-0.027-0.251-0.051-0.392-0.067l-0.016-0.002-2.332 2.723-0.077 0.1-2.8 3.222c-0.15 0.172 0 0.345 0.163 0.835l1.593 4.601c0.059 0.186 0.136 0.386 0.2 0.576l0.649 1.756c0.362 0.128 0.789 0.229 1.229 0.287l0.033 0.004z"></path>
<path fill="#3ab54a" d="M15.778 16.241c0.091 0.304 0.172 0.604 0.254 0.908 0.066 0.328 0.171 0.62 0.313 0.889l-0.009-0.018c0.513-0.254 0.957-0.476 1.438-0.749 0.867-0.49 2.001-1.084 2.832-1.579 0.286-0.172 1.216-0.64 1.402-0.794l-0.98-2.886 6.593 1.271 0.059 0.1c0.013 0.030 0.025 0.066 0.035 0.104l0.001 0.005 0.481 1.393c0.186 0.535 0.372 1.075 0.554 1.593 0.222 0.635 0.962 2.691 1.098 3.176-0.051 0.044-0.096 0.094-0.134 0.147l-0.002 0.003-0.672 0.794c-0.059 0.064-0.068 0.095-0.132 0.163l-0.436 0.476c-0.041 0.036-0.263 0.336-0.413 0.481l-0.272 0.322c-0.077 0.104-0.082 0.054-0.15 0.15-0.209 0.29-0.241 0.281-0.404 0.486-0.047 0.058-0.093 0.11-0.141 0.159l0-0-0.835 0.976c-0.14 0.149-0.274 0.308-0.398 0.476l-0.010 0.014c-0.068 0.095-0.068 0.041-0.145 0.145l-0.254 0.309-6.616-1.266c0.123-0.2 0.322-0.336 0.454-0.531l0.34-0.372c0.154-0.2 0.304-0.336 0.454-0.522 0.033-0.048 0.072-0.088 0.117-0.122l0.001-0.001 1.529-1.747c0.034-0.042 0.066-0.090 0.093-0.14l0.002-0.005 0.336-0.372c0.085-0.069 0.152-0.158 0.194-0.259l0.002-0.004-5.178 2.85c0.095 0.368 0.685 1.865 0.776 2.269l6.993 1.361c0.177 0.036 0.867 0.145 0.989 0.204 0.082-0.127 0.231-0.268 0.327-0.39l4.991-5.74-0.717-1.951c-0.213-0.531-0.808-2.314-0.998-2.877l-1.012-2.886-5.99-1.157c-0.663-0.136-1.361-0.241-1.992-0.39-0.038 0.071-0.080 0.132-0.128 0.187l0.001-0.001-2.269 2.6c-0.091 0.113-0.195 0.218-0.295 0.331l-1.788 2.060-0.313 0.354z"></path>
<path fill="#02833d" d="M15.238 23.324l-1.23 0.685c-0.127 0.077-0.263 0.154-0.399 0.227-0.272 0.145-0.549 0.309-0.817 0.454-0.247 0.156-0.531 0.297-0.83 0.407l-0.032 0.010c-0.29-0.758-1.393-5.178-1.534-5.404-0.192 0.183-0.368 0.378-0.527 0.587l-0.009 0.012c-0.109 0.118-0.177 0.191-0.281 0.313-0.043 0.059-0.089 0.111-0.14 0.158l-0.001 0.001c-0.045 0.038-0.085 0.078-0.121 0.121l-0.001 0.002c-0.217-0.518-0.408-1.133-0.542-1.769l-0.012-0.069c-0.083-0.253-0.164-0.575-0.227-0.903l-0.009-0.054c-0-0.008-0.001-0.018-0.001-0.028 0-0.165 0.064-0.315 0.169-0.426l-0 0c0.1-0.118 0.168-0.204 0.263-0.327l-2.074-0.399c0.331 1.116 0.817 2.269 1.166 3.372 0.172 0.558 0.395 1.125 0.576 1.683 0.513 1.57 0.567 1.134 0.245 1.57l-3.485 4.048c-0.030 0.019-0.055 0.042-0.077 0.068l-0 0.001c-0.039 0.056-0.077 0.105-0.119 0.151l0.001-0.001c-0.052 0.048-0.099 0.098-0.143 0.152l-0.002 0.003c-0.010 0.021-0.022 0.039-0.036 0.055l0-0-0.095 0.082c-0.068 0.077-0.041 0.1-0.104 0.168-0.055 0.033-0.097 0.081-0.122 0.139l-0.001 0.002 6.58 1.266c0.233-0.231 0.453-0.473 0.659-0.728l0.013-0.017 1.103-1.28c0.072-0.068 0.135-0.144 0.188-0.227l0.003-0.005 0.34-0.372c0.050-0.070 0.106-0.131 0.167-0.185l0.001-0.001 0.154-0.177c0.073-0.068 0.073-0.127 0.15-0.204l1.143-1.302c0.086-0.091 0.095-0.113 0.163-0.191 0.381-0.454 0.39-0.309 0.281-0.617-0.115-0.401-0.246-0.743-0.403-1.070l0.017 0.040z"></path>
<path fill="#fff" d="M22.008 14.902c-0.186 0.154-1.116 0.622-1.402 0.794-0.83 0.495-1.965 1.089-2.832 1.579-0.481 0.272-0.908 0.495-1.438 0.749-0.133-0.251-0.238-0.543-0.3-0.85l-0.004-0.021c-0.082-0.309-0.163-0.608-0.254-0.908l-0.526 0.622 1.874 5.4 5.178-2.85 0.812-0.454c0.286-0.15 0.549-0.309 0.826-0.454 0.656-0.331 1.196-0.646 1.717-0.989l-0.065 0.040c-0.348-1.598-0.723-2.92-1.167-4.209l0.078 0.262c-0.716 0.305-1.324 0.631-1.899 1.005l0.048-0.029z"></path>
<path fill="#fff" d="M8.944 17.325c-0.095 0.123-0.163 0.209-0.263 0.327-0.104 0.111-0.169 0.261-0.169 0.426 0 0.010 0 0.020 0.001 0.030l-0-0.001c0.072 0.381 0.154 0.701 0.253 1.014l-0.017-0.061c0.144 0.712 0.335 1.335 0.579 1.931l-0.025-0.070c0.038-0.045 0.078-0.085 0.121-0.121l0.002-0.001c0.051-0.048 0.097-0.1 0.139-0.156l0.002-0.003c0.104-0.123 0.172-0.195 0.281-0.313 0.168-0.221 0.343-0.416 0.533-0.597l0.002-0.002c0.141 0.227 1.243 4.647 1.534 5.404 0.331-0.121 0.615-0.261 0.881-0.429l-0.019 0.011c0.268-0.15 0.545-0.313 0.817-0.454 0.136-0.073 0.272-0.15 0.399-0.227l2.341-1.289c-0.043-0.091-0.082-0.198-0.111-0.31l-0.003-0.013-1.815-5.237-4.184-0.817c-0.177-0.047-0.387-0.084-0.603-0.103l-0.014-0.001c0.004 0.025 0.006 0.055 0.006 0.084 0 0.21-0.101 0.397-0.258 0.513l-0.002 0.001c-0.129 0.182-0.255 0.34-0.39 0.491l0.004-0.005z"></path>
<path fill="#02833d" d="M10.718 4.737l1.897-1.053c0.141 0.277 0.821 3.127 0.908 3.494l0.908 3.521c0.112-0.097 0.211-0.203 0.3-0.317l0.004-0.005c0.091-0.118 0.195-0.213 0.29-0.336 0.182-0.244 0.387-0.455 0.615-0.639l0.007-0.005c0.132 0.272 0.771 2.673 0.83 3.018 0.028 0.016 0.051 0.032 0.073 0.051l-0.001-0.001 0.241-0.345c0.043-0.025 0.078-0.059 0.104-0.099l0.001-0.001c0.141-0.195 0.1-0.086 0.195-0.222s0.1-0.082 0.195-0.227c0.011-0.044 0.037-0.080 0.072-0.104l0.001-0c0.071-0.067 0.136-0.139 0.192-0.218l0.003-0.004c0.045-0.022 0.080-0.059 0.099-0.103l0.001-0.001c0.061-0.082 0.125-0.155 0.195-0.222l0-0c0.073-0.091 0.127-0.136 0.195-0.222l0.181-0.204c0.026-0.047 0.057-0.087 0.091-0.123l-0 0c0.037-0.032 0.069-0.066 0.099-0.103l0.001-0.002c0.204-0.259 0.281-0.145 0.145-0.526s-0.277-0.826-0.427-1.239c-0.281-0.799-0.59-1.629-0.844-2.432l-0.839-2.437-6.611-1.284c0.191 0.604 0.454 1.212 0.626 1.815 0.034 0.223 0.119 0.421 0.243 0.589l-0.003-0.004z"></path>
<path fill="#128241" d="M8.98 14.067c-0.087-0.517-0.196-0.964-0.333-1.397l0.020 0.072c0-0.036-0.045-0.036-0.045-0.036-0.048 0.117-0.123 0.215-0.216 0.289l-0.001 0.001c-0.064 0.077-0.064 0.032-0.123 0.109-0.020 0.065-0.056 0.121-0.104 0.163l-0 0-0.49 0.545 0.145 0.050c0.336 0.094 0.734 0.168 1.143 0.207l0.028 0.002z"></path>
</svg>
