<!-- Generated by IcoMoon.io -->
<svg version="1.1" xmlns="http://www.w3.org/2000/svg" viewBox="0 0 32 32">
<title>leo</title>
<path d="M8.375 13.723h0.014l0.245 0.086 0.231 0.086 0.245 0.072 0.231 0.101 0.245 0.086 0.231 0.086 0.245 0.086 0.692 0.259 0.245 0.086 0.231 0.101 0.245 0.072 0.231 0.086 0.245 0.086 0.231 0.101 0.245 0.086 0.231 0.072 0.231 0.086 0.245 0.101 0.245 0.086v-3.373h-5.319l-0.231 0.115-0.548 0.288-0.562 0.303-0.562 0.274-0.533 0.288-0.562 0.303-0.562 0.274-0.548 0.303-0.562 0.288-0.548 0.274-0.548 0.303-0.504 0.259-0.058 8.259 0.562 0.389 0.548 0.389 0.548 0.375 0.562 0.404 0.548 0.389 0.562 0.389 0.245 0.187 0.317-0.404 0.533-0.721 0.058-0.072-0.058-0.043-0.533-0.389-1.124-0.778-0.548-0.389-0.562-0.404-0.144-0.087 0.043-6.688 0.101-0.058 0.562-0.274 0.548-0.274 1.124-0.548 0.533-0.288 0.562-0.274 0.562-0.259 0.548-0.288z"></path>
<path d="M17.917 29.477l-0.461 0.187-0.519 0.216-0.519 0.202-0.519 0.216-0.231 0.087-0.274-0.13-0.519-0.274-0.519-0.245-0.505-0.274-0.519-0.259-0.519-0.245-0.519-0.274-1.557-0.778-0.519-0.274-1.067-0.533v-6.746h-1.499v7.668l0.519 0.245 0.519 0.259 0.519 0.274 0.519 0.245 0.49 0.274 3.114 1.557 0.519 0.274 0.505 0.245 0.519 0.274 0.519 0.245 0.202 0.115 0.303-0.144 0.519-0.187 1.038-0.432 0.505-0.202 0.519-0.202-0.519-1.297z"></path>
<path d="M27.128 20.108l0.029 3.171-0.13 0.115-0.879 0.605-1.759 1.268-1.759 1.24-0.865 0.634-0.879 0.62-0.519 0.375-0.36-0.274-0.865-0.677-0.879-0.663-0.879-0.677-0.865-0.663-0.159-0.115v-3.416l0.159-0.144 0.865-0.923 0.879-0.908 2.595-2.724h-10.479l1.744 1.831 0.879 0.908 1.744 1.831 0.13 0.13v4.137l0.75 0.591 0.894 0.677 0.865 0.663 0.879 0.677 0.879 0.663 0.865 0.677 0.317 0.245 0.562-0.404 0.879-0.605 0.865-0.634 0.879-0.634 0.879-0.605 1.759-1.268 0.879-0.605 0.879-0.634 0.721-0.533 0.144-3.892-0.865-0.029z"></path>
<path d="M3.157 12.728h0.101l0.014-4.238 0.562-0.36 0.706-0.418 0.692-0.418 0.692-0.432 0.692-0.418 0.706-0.432 0.677-0.418 0.706-0.418 0.692-0.432 0.706-0.432h0.014l0.663 0.389 0.706 0.389 0.692 0.404 2.076 1.168 0.692 0.404 0.677 0.389 0.029-0.058 0.692-1.254-0.692-0.404-0.706-0.389-1.384-0.778-0.692-0.404-1.384-0.778-0.706-0.404-0.677-0.389-0.029-0.014-0.677 0.404-0.692 0.432-0.706 0.432-0.677 0.432-0.706 0.418-0.692 0.418-0.692 0.432-0.692 0.418-0.706 0.432-0.677 0.418-0.706 0.418-0.663 0.418-0.029 5.059h0.692z"></path>
<path d="M30.256 8.85l-0.721-0.577-0.36-0.303-0.721-0.577-0.375-0.288-0.721-0.577-0.375-0.303-0.274-0.202-0.101 0.115-0.36 0.447-0.36 0.461-0.101 0.115 0.101 0.101 0.721 0.605 0.75 0.605 0.36 0.317 0.36 0.303 0.375 0.303 0.173 0.144 0.014 6.818-0.187 0.13-0.375 0.231-0.721 0.461-0.75 0.461-1.802 1.153-0.375 0.231-1.081 0.692-0.375 0.231-0.36 0.231 0.36 0.577 0.375 0.577 0.058 0.101 0.303-0.187 0.36-0.216 0.36-0.231 0.375-0.216 0.36-0.245 0.36-0.216 0.36-0.231 0.36-0.216 0.36-0.231 0.375-0.216 0.375-0.245 0.36-0.216 0.36-0.231 0.375-0.216 0.36-0.231 0.36-0.216 0.36-0.245 0.36-0.216 0.36-0.231z"></path>
<path d="M18.364 12.915v2.941l0.115-0.043 0.49-0.187 0.49-0.202 0.476-0.187 0.98-0.404 0.476-0.187 0.49-0.202 0.49-0.187 0.476-0.202 0.49-0.187 0.476-0.202v-8.923l-0.548-0.346-1.124-0.634-0.548-0.346-1.124-0.634-0.548-0.332-0.562-0.332-0.548-0.332-0.562-0.317-0.562-0.332-0.548-0.332-0.548-0.317-0.562-0.317-0.303-0.173-0.259 0.144-0.562 0.303-0.562 0.288-0.533 0.317-0.562 0.303-0.562 0.288-0.562 0.317 1.124 0.634 0.346 0.216 0.216-0.115 0.533-0.288 0.562-0.303 0.562-0.288 0.216-0.115 0.346 0.202 0.562 0.317 0.548 0.317 0.548 0.332 0.562 0.332 0.562 0.317 0.548 0.332 0.562 0.332 0.548 0.317 0.562 0.317 0.562 0.346 0.548 0.317 0.187 0.101v6.573h-3.935z"></path>
<path d="M18.364 15.856l5.449-2.191-5.449-1.514z"></path>
<path d="M13.377 15.856v-3.647l-4.987 1.485 4.987 2.148z"></path>
</svg>
