<!-- Generated by IcoMoon.io -->
<svg version="1.1" xmlns="http://www.w3.org/2000/svg" viewBox="0 0 32 32">
<title>like</title>
<path fill="#28646e" d="M14.952 13.083c-0.003 0-0.006 0-0.009 0-0.251 0-0.454-0.203-0.454-0.454 0-0.139 0.062-0.263 0.161-0.347l0.001-0.001c0.757-0.641 1.405-1.38 1.931-2.204l0.023-0.039c0.376-0.659 0.985-0.999 1.621-0.913 0.239 0.016 0.428 0.214 0.428 0.456 0 0.252-0.204 0.457-0.457 0.457-0.033 0-0.066-0.004-0.097-0.010l0.003 0.001c-0.371-0.051-0.619 0.307-0.71 0.462-0.598 0.953-1.306 1.768-2.121 2.46l-0.015 0.012c-0.079 0.074-0.187 0.12-0.304 0.12v0zM7.284 20.791c-0.25-0.003-0.451-0.206-0.451-0.457 0-0.137 0.061-0.26 0.156-0.344l0.001-0c0.489-0.389 1.037-0.759 1.613-1.086l0.063-0.033c0.043-0.015 0.092-0.023 0.143-0.023 0.251 0 0.454 0.203 0.454 0.454 0 0.152-0.075 0.287-0.19 0.369l-0.001 0.001c-0.572 0.327-1.061 0.659-1.524 1.023l0.026-0.020c-0.078 0.066-0.18 0.106-0.291 0.107h-0z"></path>
<path fill="#28646e" d="M18.722 16.474c0.182 0.168 0.392 0.096 0.585-0.088 1.319-1.26 2.715-3.228 3.18-4.253 0.053-0.162 0.202-0.278 0.379-0.278 0.049 0 0.096 0.009 0.139 0.025l-0.003-0.001c0.254 0.101 0.251 0.534 0.021 1.012-0.833 1.683-1.878 3.123-3.123 4.362l-0.001 0.001c-0.070 0.064-0.115 0.156-0.115 0.258s0.044 0.194 0.114 0.257l0 0c0.147 0.131 0.387 0.123 0.609-0.104 0.697-0.69 1.337-1.434 1.916-2.226l0.036-0.052c0.073-0.138 0.215-0.231 0.379-0.231 0.021 0 0.041 0.001 0.061 0.004l-0.002-0c0.219 0.043 0.254 0.254 0.187 0.507-0.109 0.408-1.26 1.92-1.717 2.427-1.236 1.38-2.472 2.136-4.851 3.372-0.822 0.427-1.444 0.846-1.832 1.495-0.344 0.577-0.446 0.766-0.481 0.838s-0.054 0.156-0.054 0.245c0 0.225 0.128 0.421 0.315 0.517l0.003 0.002c0.071 0.035 0.155 0.055 0.243 0.055 0.223 0 0.416-0.13 0.506-0.319l0.001-0.003s0-0.021 0-0.029-0.016 0 0.433-0.748c0.338-0.54 0.815-0.964 1.382-1.228l0.020-0.008c2.387-1.087 3.362-1.944 4.745-3.327 0.624-0.703 1.197-1.481 1.698-2.308l0.040-0.071c0.665-1.121 0.315-2.080-0.286-2.243-0.032-0.010-0.056-0.039-0.056-0.074 0-0.007 0.001-0.013 0.003-0.020l-0 0.001c-0.001-0.003-0.001-0.007-0.001-0.011s0-0.007 0.001-0.011l-0 0c0.331-0.509 0.595-1.1 0.757-1.731l0.009-0.041c0.117-0.579-0.048-1.284-0.841-1.455-0.035-0.008-0.060-0.039-0.060-0.075 0-0.005 0.001-0.011 0.002-0.016l-0 0.001c0.051-0.184 0.101-0.417 0.134-0.569 0.026-0.096 0.041-0.207 0.041-0.321 0-0.582-0.384-1.073-0.913-1.236l-0.009-0.002c-0.085-0.019-0.183-0.030-0.284-0.030-0.295 0-0.567 0.096-0.788 0.257l0.004-0.003c-0.017 0.012-0.038 0.019-0.060 0.019-0.031 0-0.059-0.013-0.079-0.034l-0-0c-0.149-0.161-0.36-0.263-0.595-0.267h-0.001c-0.499 0-0.988 0.144-1.335 0.91-0.267 0.534-0.638 1.284-1.757 2.526-1.002 1.059-2.112 1.998-3.318 2.805l-0.070 0.044c-0.158 0.101-0.376 0.077-0.352-0.131 0.043-0.334 0.4-2.587 0.47-3.239 0.099-1.068-0.478-1.565-1.127-1.65-0.534-0.072-1.335 0.080-1.784 1.295-0.447 1.029-0.878 2.282-1.218 3.571l-0.043 0.191c-0.184 0.772-0.289 1.658-0.289 2.569 0 0.733 0.068 1.45 0.199 2.146l-0.011-0.072c0.005 0.024 0.007 0.052 0.007 0.080 0 0.085-0.024 0.164-0.064 0.232l0.001-0.002c-0.385 0.567-0.771 1.226-1.114 1.91l-0.047 0.103c-0.031 0.069-0.049 0.149-0.049 0.233 0 0.212 0.114 0.397 0.284 0.497l0.003 0.001c0.078 0.043 0.17 0.068 0.268 0.068 0.211 0 0.394-0.116 0.491-0.287l0.001-0.003 0.016-0.032c0.171-0.36 0.534-1.041 0.662-1.335 0.148-0.273 0.305-0.608 0.442-0.954l0.023-0.066c0.042-0.134 0.067-0.288 0.067-0.447s-0.024-0.313-0.070-0.458l0.003 0.011c-0.093-0.494-0.146-1.062-0.146-1.642 0-0.743 0.087-1.466 0.253-2.159l-0.013 0.063c0.438-1.696 0.895-3.089 1.426-4.445l-0.091 0.264c0.136-0.336 0.328-0.441 0.534-0.422s0.561 0.109 0.457 0.801c-0.19 1.226-0.457 2.782-0.534 3.308-0.043 0.267-0.091 0.857 0.382 1.132 0.371 0.214 0.78 0.096 1.228-0.206 1.448-0.989 2.712-2.070 3.848-3.273l0.010-0.011c1.151-1.292 1.517-2.064 1.813-2.761 0.085-0.172 0.259-0.287 0.46-0.287 0.051 0 0.1 0.007 0.147 0.021l-0.004-0.001c0.123 0.035 0.267 0.2 0.168 0.55-0.267 0.852-1.308 2.798-3.332 4.624-0.104 0.073-0.171 0.192-0.171 0.327 0 0.096 0.034 0.185 0.091 0.253l-0.001-0.001c0.069 0.076 0.169 0.124 0.279 0.124s0.21-0.048 0.279-0.123l0-0c1.373-1.212 2.487-2.683 3.271-4.34l0.035-0.082c0.135-0.277 0.27-0.615 0.382-0.963l0.016-0.057c0.044-0.206 0.225-0.359 0.442-0.359 0.012 0 0.023 0 0.035 0.001l-0.002-0c0.222 0.045 0.368 0.267 0.299 0.649-0.127 0.526-0.297 0.986-0.514 1.419l0.017-0.038c-0.582 1.239-1.816 2.897-3.145 4.32-0.073 0.069-0.118 0.166-0.118 0.274s0.045 0.205 0.118 0.273l0 0zM10.496 10.306c0.069-0.061 0.043-0.142 0.024-0.203-0.099-0.315-0.657-1.623-0.801-1.885-0.030-0.076-0.102-0.129-0.187-0.129-0.029 0-0.056 0.006-0.081 0.017l0.001-0.001c-0.205 0.107-0.381 0.237-0.534 0.39l-0 0c-0.178 0.138-0.329 0.299-0.452 0.481l-0.005 0.007c-0.016 0.027-0.025 0.060-0.025 0.095 0 0.074 0.041 0.138 0.101 0.171l0.001 0.001c0.24 0.182 1.466 0.905 1.762 1.041 0.061 0.029 0.136 0.067 0.206 0zM7.826 10.747c-0.152 0-0.216 0.064-0.235 0.168-0.004 0.051-0.007 0.11-0.007 0.17 0 0.176 0.021 0.348 0.060 0.512l-0.003-0.015c0.029 0.239 0.092 0.456 0.184 0.657l-0.006-0.014c0.035 0.062 0.1 0.103 0.175 0.103 0.034 0 0.065-0.008 0.093-0.023l-0.001 0.001c0.267-0.112 1.533-0.782 1.805-0.964 0.056-0.037 0.126-0.083 0.109-0.176v0zM20.588 21.894c-0.093 0-0.12 0.088-0.144 0.15-0.112 0.307-0.462 1.687-0.507 1.984-0.006 0.017-0.009 0.038-0.009 0.058 0 0.093 0.065 0.172 0.152 0.192l0.001 0c0.121 0.024 0.26 0.038 0.402 0.038 0.094 0 0.187-0.006 0.279-0.018l-0.011 0.001c0.237-0.003 0.463-0.043 0.675-0.114l-0.015 0.005c0.074-0.031 0.124-0.102 0.124-0.185 0-0.030-0.006-0.058-0.018-0.083l0 0.001c-0.083-0.288-0.614-1.602-0.766-1.898-0.032-0.059-0.069-0.134-0.163-0.128zM21.389 21.256c-0.045 0.083 0 0.147 0.051 0.198 0.206 0.267 1.201 1.274 1.431 1.466 0.037 0.039 0.088 0.063 0.145 0.063s0.109-0.024 0.145-0.063l0-0c0.145-0.161 0.266-0.346 0.358-0.547l0.005-0.013c0.106-0.18 0.189-0.389 0.235-0.611l0.002-0.014c0-0.107-0.027-0.192-0.174-0.232-0.288-0.080-1.693-0.31-2.021-0.328-0.067 0-0.15 0-0.192 0.069zM16.509 28.905c0 0.001 0 0.002 0 0.003 0 0.282-0.228 0.51-0.51 0.51s-0.51-0.228-0.51-0.51c0-0.282 0.228-0.51 0.51-0.51 0.001 0 0.002 0 0.003 0h-0c0.28 0 0.507 0.227 0.507 0.507v0zM16.509 3.097c0 0.282-0.228 0.51-0.51 0.51s-0.51-0.228-0.51-0.51c0-0.282 0.228-0.51 0.51-0.51 0.001 0 0.002 0 0.003 0h-0c0 0 0 0 0 0 0.28 0 0.507 0.227 0.507 0.507 0 0.001 0 0.002 0 0.003v-0zM19.83 28.334c0.011 0.039 0.017 0.083 0.017 0.129 0 0.28-0.227 0.507-0.507 0.507s-0.507-0.227-0.507-0.507c0-0.233 0.158-0.43 0.372-0.489l0.004-0.001c0.039-0.011 0.085-0.017 0.132-0.017 0.234 0 0.431 0.159 0.49 0.374l0.001 0.004zM13.155 3.404c0.011 0.040 0.018 0.086 0.018 0.134 0 0.281-0.228 0.509-0.509 0.509-0.234 0-0.431-0.157-0.49-0.372l-0.001-0.004c-0.011-0.040-0.018-0.086-0.018-0.134 0-0.281 0.228-0.509 0.509-0.509 0.234 0 0.431 0.157 0.49 0.372l0.001 0.004zM22.895 26.922c0.046 0.075 0.073 0.166 0.073 0.263 0 0.28-0.227 0.507-0.507 0.507-0.19 0-0.356-0.105-0.443-0.26l-0.001-0.003c-0.040-0.071-0.063-0.155-0.063-0.245 0-0.28 0.227-0.507 0.507-0.507 0.183 0 0.344 0.097 0.433 0.243l0.001 0.002zM9.989 4.571c0.045 0.074 0.071 0.163 0.071 0.259 0 0.28-0.227 0.508-0.508 0.508-0.185 0-0.347-0.099-0.435-0.246l-0.001-0.002c-0.040-0.071-0.063-0.155-0.063-0.245 0-0.28 0.227-0.507 0.507-0.507 0.183 0 0.344 0.097 0.433 0.243l0.001 0.002zM25.48 24.778c0.092 0.092 0.149 0.219 0.149 0.359 0 0.28-0.227 0.508-0.508 0.508-0.14 0-0.267-0.057-0.359-0.149v0c-0.092-0.092-0.149-0.219-0.149-0.359 0-0.28 0.227-0.508 0.508-0.508 0.14 0 0.267 0.057 0.359 0.149v0zM7.236 6.517c0.092 0.092 0.149 0.219 0.149 0.359 0 0.28-0.227 0.508-0.508 0.508-0.14 0-0.267-0.057-0.359-0.149v0c-0.092-0.092-0.149-0.219-0.149-0.359 0-0.28 0.227-0.508 0.508-0.508 0.14 0 0.267 0.057 0.359 0.149v0zM27.429 22.003c0.156 0.089 0.26 0.254 0.26 0.443 0 0.281-0.227 0.508-0.508 0.508-0.091 0-0.177-0.024-0.251-0.066l0.003 0.001c-0.153-0.089-0.255-0.253-0.255-0.441 0-0.281 0.228-0.508 0.508-0.508 0.093 0 0.181 0.025 0.256 0.069l-0.002-0.001zM5.073 9.11c0.158 0.088 0.263 0.254 0.263 0.444 0 0.28-0.227 0.507-0.507 0.507-0.097 0-0.188-0.027-0.265-0.074l0.002 0.001c-0.148-0.090-0.245-0.251-0.245-0.434 0-0.28 0.227-0.507 0.507-0.507 0.090 0 0.174 0.023 0.247 0.064l-0.003-0.001zM28.596 18.85c0.223 0.057 0.385 0.256 0.385 0.493 0 0.28-0.227 0.508-0.508 0.508-0.044 0-0.086-0.006-0.126-0.016l0.004 0.001h-0.016c-0.217-0.061-0.374-0.257-0.374-0.49 0-0.28 0.227-0.508 0.508-0.508 0.047 0 0.093 0.007 0.137 0.019l-0.004-0.001zM3.674 12.181c0.219 0.061 0.377 0.258 0.377 0.493 0 0.282-0.228 0.51-0.51 0.51-0.047 0-0.093-0.007-0.137-0.019l0.004 0.001c-0.204-0.070-0.348-0.26-0.348-0.483 0-0.282 0.228-0.51 0.51-0.51 0.037 0 0.073 0.004 0.108 0.011l-0.003-0.001zM28.905 15.486c0.28 0 0.507 0.227 0.507 0.507s-0.227 0.507-0.507 0.507c-0.28 0-0.507-0.227-0.507-0.507v0c0-0.28 0.227-0.507 0.507-0.507v0zM3.097 15.486c0.28 0 0.507 0.227 0.507 0.507s-0.227 0.507-0.507 0.507v0c-0.28 0-0.507-0.227-0.507-0.507s0.227-0.507 0.507-0.507v0zM28.334 12.162c0.032-0.007 0.069-0.011 0.106-0.011 0.28 0 0.507 0.227 0.507 0.507 0 0.223-0.143 0.412-0.343 0.48l-0.004 0.001h-0.013c-0.040 0.011-0.086 0.018-0.134 0.018-0.281 0-0.509-0.228-0.509-0.509 0-0.234 0.157-0.431 0.372-0.49l0.004-0.001zM3.391 18.832c0.048-0.017 0.103-0.026 0.161-0.026 0.28 0 0.507 0.227 0.507 0.507 0 0.242-0.17 0.445-0.398 0.495l-0.003 0.001c-0.040 0.011-0.086 0.018-0.134 0.018-0.28 0-0.508-0.227-0.508-0.508 0-0.233 0.157-0.429 0.371-0.489l0.004-0.001zM26.908 9.089c0.075-0.046 0.166-0.073 0.263-0.073 0.28 0 0.507 0.227 0.507 0.507 0 0.19-0.105 0.356-0.26 0.443l-0.003 0.001c-0.071 0.040-0.155 0.063-0.245 0.063-0.28 0-0.507-0.227-0.507-0.507 0-0.183 0.097-0.344 0.243-0.433l0.002-0.001zM4.571 22.012c0.074-0.045 0.163-0.071 0.259-0.071 0.28 0 0.507 0.227 0.507 0.507s-0.227 0.507-0.507 0.507c-0.189 0-0.355-0.104-0.442-0.258l-0.001-0.003c-0.041-0.072-0.066-0.158-0.066-0.25 0-0.186 0.099-0.348 0.248-0.437l0.002-0.001zM24.767 6.52c0.092-0.092 0.218-0.148 0.358-0.148 0.28 0 0.507 0.227 0.507 0.507s-0.227 0.507-0.507 0.507c-0.14 0-0.267-0.057-0.358-0.148v0c-0.091-0.092-0.148-0.219-0.148-0.359s0.056-0.267 0.148-0.359l-0 0zM6.517 24.767c0.092-0.092 0.218-0.148 0.358-0.148 0.28 0 0.507 0.227 0.507 0.507s-0.227 0.507-0.507 0.507c-0.14 0-0.267-0.057-0.358-0.148v0c-0.093-0.092-0.15-0.219-0.15-0.359s0.057-0.268 0.15-0.359l0-0zM22.003 4.571c0.089-0.152 0.253-0.253 0.439-0.253 0.28 0 0.507 0.227 0.507 0.507s-0.227 0.507-0.507 0.507c-0.093 0-0.18-0.025-0.255-0.068l0.002 0.001c-0.153-0.090-0.254-0.254-0.254-0.441 0-0.093 0.025-0.18 0.069-0.255l-0.001 0.002zM9.11 26.922c0.086-0.166 0.256-0.277 0.452-0.277 0.28 0 0.507 0.227 0.507 0.507 0 0.099-0.028 0.191-0.077 0.269l0.001-0.002c-0.090 0.148-0.251 0.245-0.434 0.245-0.28 0-0.507-0.227-0.507-0.507 0-0.090 0.023-0.174 0.064-0.247l-0.001 0.003zM18.85 3.404c0.055-0.225 0.255-0.39 0.494-0.39 0.28 0 0.508 0.227 0.508 0.508 0 0.042-0.005 0.082-0.015 0.121l0.001-0.003v0.029c-0.061 0.217-0.257 0.374-0.49 0.374-0.28 0-0.508-0.227-0.508-0.508 0-0.047 0.007-0.093 0.019-0.137l-0.001 0.004zM12.183 28.331c0.057-0.222 0.256-0.384 0.493-0.384 0.281 0 0.508 0.227 0.508 0.508 0 0.044-0.006 0.087-0.016 0.128l0.001-0.004c-0.061 0.217-0.257 0.374-0.49 0.374-0.28 0-0.508-0.227-0.508-0.508 0-0.047 0.007-0.093 0.019-0.137l-0.001 0.004z"></path>
<path fill="#28646e" d="M16.001 32v0c8.837 0 16.001-7.164 16.001-16.001s-7.164-16.001-16.001-16.001c-8.837 0-16.001 7.164-16.001 16.001 0 0.001 0 0.002 0 0.003v-0c0.012 8.832 7.169 15.988 16 15.999h0.001zM16.001 1.354c8.090 0 14.648 6.558 14.648 14.648s-6.558 14.648-14.648 14.648c-8.090 0-14.648-6.558-14.648-14.648v0c0.009-8.086 6.562-14.639 14.647-14.648h0.001z"></path>
</svg>
