<!-- Generated by IcoMoon.io -->
<svg version="1.1" xmlns="http://www.w3.org/2000/svg" viewBox="0 0 32 32">
<title>loom</title>
<path fill="#4bc0c8" d="M24.284 30.136l-21.864-15.348c-1.468-1.038-2.414-2.728-2.414-4.639s0.947-3.601 2.397-4.627l0.018-0.012 5.296-3.7 21.864 15.35c1.467 1.038 2.413 2.728 2.413 4.639s-0.946 3.601-2.395 4.627l-0.018 0.012zM7.714 4.278l-4.128 2.888c-0.945 0.667-1.554 1.754-1.554 2.984s0.609 2.317 1.543 2.976l0.011 0.008 20.704 14.534 4.128-2.886c0.944-0.668 1.552-1.755 1.552-2.984s-0.609-2.316-1.541-2.976l-0.011-0.008z"></path>
<path fill="#02819b" d="M7.694 27.654l-4.122-2.894c-0.944-0.668-1.552-1.755-1.552-2.984s0.609-2.316 1.541-2.976l0.011-0.008 10.67-7.46-1.76-1.232-10.064 7.036c-1.468 1.038-2.414 2.728-2.414 4.639s0.947 3.601 2.397 4.627l0.018 0.012 5.282 3.708 6.534-4.572-1.76-1.236z"></path>
<path fill="#02819b" d="M29.59 5.532l-5.284-3.708-6.54 4.576 1.76 1.236 4.778-3.336 4.124 2.894c0.944 0.668 1.552 1.755 1.552 2.984s-0.609 2.316-1.541 2.976l-0.011 0.008-10.672 7.454 1.76 1.236 10.066-7.042c1.468-1.038 2.414-2.728 2.414-4.639s-0.947-3.601-2.397-4.627l-0.018-0.012z"></path>
<path fill="#02819b" d="M3.676 16.25l8.315-5.818 1.159 1.657-8.315 5.818-1.159-1.657z"></path>
<path fill="#02819b" d="M27.352 13.9l-4.050 2.836 1.158 1.656 4.2-2.942c-0.44-0.508-0.874-1.028-1.308-1.55z"></path>
</svg>
