<!-- Generated by IcoMoon.io -->
<svg version="1.1" xmlns="http://www.w3.org/2000/svg" viewBox="0 0 32 32">
<title>lrg</title>
<path d="M16 32c-8.826 0-16-7.174-16-16s7.174-16 16-16 16 7.174 16 16-7.174 16-16 16v0 0zM16 1.342c-8.103 0-14.658 6.555-14.658 14.658s6.555 14.658 14.658 14.658 14.658-6.555 14.658-14.658-6.555-14.658-14.658-14.658v0 0z"></path>
<path d="M17.858 6.4c1.445 0.619 2.168 2.271 1.548 3.768l-4.594 11.252c-0.619 1.497-2.271 0.103-3.716-0.516s-2.168-0.206-1.548-1.703l4.594-11.252c0.568-1.445 2.219-2.168 3.716-1.548v0z"></path>
<path d="M19.819 23.277h-7.794c-1.548 0-2.839-1.239-2.839-2.839 0-0.361 0.052-0.723 0.206-1.084v0l2.065-4.903c0 0-0.155 3.097 3.148 3.148h5.213c1.548 0 2.839 1.239 2.839 2.839s-1.29 2.839-2.839 2.839v0z"></path>
</svg>
