<!-- Generated by IcoMoon.io -->
<svg version="1.1" xmlns="http://www.w3.org/2000/svg" viewBox="0 0 32 32">
<title>ltc</title>
<path fill="#fff" d="M30.268 16c0 7.88-6.388 14.268-14.268 14.268s-14.268-6.388-14.268-14.268c0-7.88 6.388-14.268 14.268-14.268s14.268 6.388 14.268 14.268z"></path>
<path fill="#345d9d" d="M16 0c-8.837 0-16 7.163-16 16s7.163 16 16 16c8.837 0 16-7.163 16-16v0 0c0-0.014 0-0.030 0-0.047 0-8.795-7.116-15.927-15.905-15.953h-0.003zM16.271 16.542l-1.666 5.617h8.91c0.005-0 0.010-0 0.016-0 0.243 0 0.441 0.193 0.449 0.433l0 0.001v0.147l-0.775 2.673c-0.069 0.248-0.292 0.427-0.557 0.427-0.008 0-0.017-0-0.025-0.001l0.001 0h-13.637l2.286-7.787-2.557 0.775 0.581-1.782 2.557-0.775 3.216-10.925c0.072-0.248 0.296-0.426 0.563-0.426 0.006 0 0.013 0 0.019 0l-0.001-0h3.448c0.005-0 0.010-0 0.016-0 0.243 0 0.441 0.193 0.449 0.433l0 0.001v0.147l-2.712 9.22 2.557-0.775-0.542 1.86z"></path>
</svg>
