<!-- Generated by IcoMoon.io -->
<svg version="1.1" xmlns="http://www.w3.org/2000/svg" viewBox="0 0 32 32">
<title>lto</title>
<path d="M18.987 2.933l-2.987 2.987 0.613 0.613c0.16 0.162 0.381 0.262 0.627 0.262s0.467-0.1 0.627-0.262l2.987-2.987-0.613-0.613c-0.16-0.162-0.381-0.262-0.627-0.262s-0.467 0.1-0.627 0.262l-0 0zM11.387 2.933l-0.72 0.613 3.12 2.987c0.155 0.16 0.373 0.26 0.613 0.26s0.458-0.1 0.613-0.26l0.614-0.614-3.013-2.987c-0.155-0.16-0.373-0.26-0.613-0.26s-0.458 0.1-0.613 0.26l-0 0zM21.813 6.853l-5.68 5.68 1.147 1.173c0.302 0.295 0.717 0.478 1.173 0.478s0.871-0.182 1.174-0.478l-0 0 5.68-5.707-1.147-1.147c-0.298-0.294-0.708-0.475-1.16-0.475s-0.862 0.181-1.16 0.475l0-0zM7.44 6.853l-1.147 1.147 5.68 5.68c0.296 0.308 0.713 0.5 1.173 0.5s0.877-0.192 1.173-0.499l0.001-0.001 1.147-1.147-5.68-5.68c-0.303-0.295-0.717-0.478-1.173-0.478s-0.871 0.182-1.174 0.478l0-0zM15.173 6.72l-0.587 0.613 1.227 1.227 1.227-1.227-0.613-0.613c-0.155-0.16-0.373-0.26-0.613-0.26s-0.458 0.1-0.613 0.26l-0 0zM25.84 12.4l-9.467 9.44 1.893 1.92c0.488 0.52 1.179 0.844 1.947 0.844s1.459-0.324 1.945-0.843l0.001-0.001 9.44-9.44-1.893-1.92c-0.488-0.52-1.179-0.844-1.947-0.844s-1.459 0.324-1.945 0.843l-0.001 0.001zM1.84 12.4l-1.84 1.893 9.44 9.467c0.488 0.52 1.179 0.844 1.947 0.844s1.459-0.324 1.945-0.843l0.001-0.001 1.92-1.92-9.44-9.44c-0.488-0.52-1.179-0.844-1.947-0.844s-1.459 0.324-1.945 0.843l-0.001 0.001zM14.56 14.053l-1.147 1.147 2.32 2.32 2.4-2.32-1.147-1.147c-0.3-0.302-0.715-0.489-1.173-0.489s-0.874 0.187-1.173 0.488l-0 0zM13.867 24.347l-1.92 1.893 3.867 3.867 3.84-3.867-1.893-1.893c-0.488-0.52-1.179-0.844-1.947-0.844s-1.459 0.324-1.945 0.843l-0.001 0.001z"></path>
</svg>
