<!-- Generated by IcoMoon.io -->
<svg version="1.1" xmlns="http://www.w3.org/2000/svg" viewBox="0 0 32 32">
<title>luna</title>
<path fill="#172852" d="M32 16c0 8.837-7.163 16-16 16s-16-7.163-16-16c0-8.837 7.163-16 16-16s16 7.163 16 16z"></path>
<path fill="#ffd83d" d="M12.888 7.15c1.874-0.701 3.982-0.702 5.891-0.126 2.485 0.771 4.582 2.646 5.678 5 0.302 0.67 0.592 1.37 0.621 2.115-1.397-0.81-2.928-1.334-4.462-1.813-2.454-0.885-5.024-1.499-7.347-2.715-0.541-0.323-1.23-0.654-1.378-1.328-0.059-0.582 0.557-0.907 0.997-1.133z"></path>
<path fill="#ffd83d" d="M7.232 12.814c0.542-1.472 1.432-2.838 2.64-3.851 0.307 2.526 1.382 4.968 3.158 6.805 2.13 2.213 5.163 3.571 8.25 3.52 1.226 0.038 2.424-0.245 3.619-0.474-1.176 4.25-5.834 7.070-10.149 6.392-2.605-0.333-5.010-1.875-6.461-4.053-1.637-2.406-2.050-5.602-1.058-8.339z"></path>
<path fill="#ff6f03" d="M20.616 12.326c1.534 0.478 3.066 1.003 4.462 1.813l0.094 0.050c0.13 0.974 0.224 1.968 0.051 2.944-0.702-0.298-1.272-0.821-1.867-1.283-1.146-0.954-2.315-2.045-2.741-3.523z"></path>
</svg>
