<!-- Generated by IcoMoon.io -->
<svg version="1.1" xmlns="http://www.w3.org/2000/svg" viewBox="0 0 32 32">
<title>mana</title>
<path fill="#000" d="M32 16c0 8.837-7.163 16-16 16s-16-7.163-16-16c0-8.837 7.163-16 16-16s16 7.163 16 16z"></path>
<path fill="#000" d="M11.336 10.4v12h10z"></path>
<path fill="#fff" d="M1.336 22.4h10v-12z"></path>
<path fill="#fc9965" d="M3.2 25.6c0.912 1.208 1.992 2.288 3.2 3.2h19.2c1.208-0.912 2.288-1.992 3.2-3.2h-25.6z"></path>
<path fill="#ff2d55" d="M6.4 28.8c2.672 2.008 6 3.2 9.6 3.2s6.928-1.192 9.6-3.2h-19.2z"></path>
<path fill="#000" d="M21.464 16.8v8.8h7.336z"></path>
<path fill="#ffbc5b" d="M21.464 22.4h-20.128c0.496 1.144 1.128 2.216 1.864 3.2h18.272v-3.2h-0.008z"></path>
<path fill="#fff" d="M14.136 25.6h7.328v-8.8z"></path>
<path fill="#ffc95b" d="M25.464 10.4c0 2.209-1.791 4-4 4s-4-1.791-4-4c0-2.209 1.791-4 4-4s4 1.791 4 4z"></path>
<path fill="#ffc95b" d="M13.336 6c0 1.105-0.895 2-2 2s-2-0.895-2-2c0-1.105 0.895-2 2-2s2 0.895 2 2z"></path>
</svg>
