<!-- Generated by IcoMoon.io -->
<svg version="1.1" xmlns="http://www.w3.org/2000/svg" viewBox="0 0 32 32">
<title>matic</title>
<path fill="#8247e5" d="M24.421 10.274c-0.589-0.337-1.347-0.337-2.021 0l-4.716 2.779-3.2 1.768-4.632 2.779c-0.589 0.337-1.347 0.337-2.021 0l-3.621-2.189c-0.589-0.337-1.011-1.011-1.011-1.768v-4.211c0-0.674 0.337-1.347 1.011-1.768l3.621-2.105c0.589-0.337 1.347-0.337 2.021 0l3.621 2.189c0.589 0.337 1.011 1.011 1.011 1.768v2.779l3.2-1.853v-2.863c0-0.674-0.337-1.347-1.011-1.768l-6.737-3.958c-0.589-0.337-1.347-0.337-2.021 0l-6.905 4.042c-0.674 0.337-1.011 1.011-1.011 1.684v7.916c0 0.674 0.337 1.347 1.011 1.768l6.821 3.958c0.589 0.337 1.347 0.337 2.021 0l4.632-2.695 3.2-1.853 4.632-2.695c0.589-0.337 1.347-0.337 2.021 0l3.621 2.105c0.589 0.337 1.011 1.011 1.011 1.768v4.211c0 0.674-0.337 1.347-1.011 1.768l-3.537 2.105c-0.589 0.337-1.347 0.337-2.021 0l-3.621-2.105c-0.589-0.337-1.011-1.011-1.011-1.768v-2.695l-3.2 1.853v2.779c0 0.674 0.337 1.347 1.011 1.768l6.821 3.958c0.589 0.337 1.347 0.337 2.021 0l6.821-3.958c0.589-0.337 1.011-1.011 1.011-1.768v-8c0-0.674-0.337-1.347-1.011-1.768l-6.821-3.958z"></path>
</svg>
