<!-- Generated by IcoMoon.io -->
<svg version="1.1" xmlns="http://www.w3.org/2000/svg" viewBox="0 0 32 32">
<title>mdt</title>
<path fill="#8acaff" d="M16.997 14.171l-2.078 3.574-9.766-5.61v8.478c-1.247-0.914-2.909-0.914-4.156 0v-9.268c1.538 1.164 3.74 0.831 4.862-0.707 0.457-0.582 0.707-1.33 0.707-2.078 0-0.125 0-0.249-0.042-0.416l8.478 4.904 0.914 0.54 1.081 0.582z"></path>
<path fill="#8acaff" d="M29.714 22.899c0.083 0.166 0.125 0.332 0.125 0.499h-3.117l1.538-0.914c0.54-0.249 1.164-0.083 1.455 0.416v0z"></path>
<path fill="#8acaff" d="M30.878 11.345v9.268c-1.247-0.914-2.909-0.914-4.156 0v-8.478l-9.725 5.61-2.078-3.574 1.039-0.582 0.914-0.54 8.478-4.904c0 0.125-0.042 0.249-0.042 0.416 0 1.912 1.579 3.491 3.491 3.491 0.748 0 1.496-0.249 2.078-0.707z"></path>
<path fill="#8acaff" d="M16.499 0.249v0c-0.042-0.042-0.042-0.042 0 0v0l-0.042-0.042c0 0 0 0-0.042 0 0 0 0 0-0.042 0v0c0 0 0 0-0.042 0v0h-0.166c-0.042 0-0.083 0-0.083 0-0.042 0-0.083 0-0.083 0s0 0-0.042 0h-0.083c-0.042 0-0.042 0-0.083 0v0 0 0h-0.125c0 0 0 0-0.042 0v0 0 0l-10.182 5.777c0.54 0.499 0.873 1.122 1.039 1.787l8.436-4.862v6.234c0 0.582 0.457 1.039 1.039 1.039s1.039-0.457 1.039-1.039v-6.234l8.436 4.862c0.166-0.707 0.499-1.33 1.039-1.787l-9.974-5.735z"></path>
<path fill="#8acaff" d="M29.839 23.397h-3.117l1.538-0.914c0.499-0.291 1.122-0.125 1.413 0.374 0.125 0.166 0.166 0.374 0.166 0.54z"></path>
<path fill="#8acaff" d="M25.392 24.187l-8.395 4.862v-6.234c0-0.582-0.457-1.039-1.039-1.039s-1.039 0.457-1.039 1.039v6.234l-8.436-4.862c-0.166 0.706-0.499 1.33-1.039 1.787l9.974 5.735c0 0 0 0 0.042 0h0.083c0 0 0 0 0.042 0h0.208c0.042 0 0.083 0 0.125 0h0.166c0.042 0 0.083 0 0.125 0 0 0 0 0 0.042 0v0h0.083c0.042 0 0.083-0.042 0.083-0.042s0 0 0.042 0h0.042c0 0 0 0 0.042 0v0l9.974-5.735c-0.582-0.457-0.956-1.081-1.122-1.745z"></path>
<path fill="#4187f7" d="M19.034 15.958c0 1.698-1.377 3.075-3.075 3.075s-3.075-1.377-3.075-3.075c0-1.698 1.377-3.075 3.075-3.075s3.075 1.377 3.075 3.075z"></path>
<path fill="#4187f7" d="M6.151 8.561c0 1.698-1.377 3.075-3.075 3.075s-3.075-1.377-3.075-3.075c0-1.698 1.377-3.075 3.075-3.075s3.075 1.377 3.075 3.075z"></path>
<path fill="#4187f7" d="M6.151 23.397c0 1.698-1.377 3.075-3.075 3.075s-3.075-1.377-3.075-3.075c0-1.698 1.377-3.075 3.075-3.075s3.075 1.377 3.075 3.075z"></path>
<path fill="#4187f7" d="M31.875 8.561c0 1.698-1.377 3.075-3.075 3.075s-3.075-1.377-3.075-3.075c0-1.698 1.377-3.075 3.075-3.075s3.075 1.377 3.075 3.075z"></path>
<path fill="#4187f7" d="M31.875 23.397c0 1.698-1.377 3.075-3.075 3.075s-3.075-1.377-3.075-3.075c0-1.698 1.377-3.075 3.075-3.075s3.075 1.377 3.075 3.075z"></path>
</svg>
