<!-- Generated by IcoMoon.io -->
<svg version="1.1" xmlns="http://www.w3.org/2000/svg" viewBox="0 0 32 32">
<title>meta</title>
<path d="M5.052 8.888v3.607c0 0 0 0 0 0.001 0 0.399-0.323 0.722-0.722 0.722-0 0-0 0-0.001 0h-3.607c-0 0-0 0-0 0-0.399 0-0.722-0.323-0.722-0.722 0-0 0-0 0-0.001v0-3.607c0-0 0-0 0-0.001 0-0.399 0.323-0.722 0.722-0.722 0 0 0 0 0.001 0h3.607c0 0 0 0 0 0 0.399 0 0.722 0.323 0.722 0.722 0 0 0 0 0 0.001v-0zM10.068 13.726h-3.607c-0 0-0 0-0 0-0.399 0-0.722 0.323-0.722 0.722 0 0 0 0 0 0.001v-0 8.679c0 0 0 0 0 0 0 0.399 0.323 0.722 0.722 0.722 0 0 0 0 0.001 0h3.607c0 0 0 0 0.001 0 0.399 0 0.722-0.323 0.722-0.722 0-0 0-0 0-0.001v0-8.679c0-0 0-0 0-0.001 0-0.399-0.323-0.722-0.722-0.722-0 0-0 0-0.001 0h0zM20.813 13.726h-2.722c-0 0-0 0-0 0-1.070 0-1.938-0.868-1.938-1.938 0-0 0-0 0-0.001v0-2.9c0-0 0-0 0-0.001 0-0.399-0.323-0.722-0.722-0.722-0 0-0 0-0.001 0h-3.607c-0 0-0 0-0.001 0-0.399 0-0.722 0.323-0.722 0.722 0 0 0 0 0 0.001v-0 3.607c0 0 0 0 0 0.001 0 0.399 0.323 0.722 0.722 0.722 0 0 0 0 0.001 0h1.323c0.066-0.010 0.142-0.015 0.219-0.015h1.18c0 0 0 0 0.001 0 1.070 0 1.938 0.868 1.938 1.938 0 0 0 0 0 0.001v-0 7.982c0 0 0 0 0 0 0 0.399 0.323 0.722 0.722 0.722 0 0 0 0 0.001 0h3.607c0 0 0 0 0 0 0.399 0 0.722-0.323 0.722-0.722 0-0 0-0 0-0.001v0-8.674c0-0 0-0 0-0.001 0-0.399-0.323-0.722-0.722-0.722-0 0-0 0-0.001 0h0zM31.257 13.726h-2.722c-0 0-0 0-0 0-1.070 0-1.938-0.868-1.938-1.938 0-0 0-0 0-0.001v0-2.9c0-0 0-0 0-0.001 0-0.399-0.323-0.722-0.722-0.722-0 0-0 0-0.001 0h-3.612c-0 0-0 0-0 0-0.399 0-0.722 0.323-0.722 0.722 0 0 0 0 0 0.001v-0 3.607c0 0 0 0 0 0.001 0 0.399 0.323 0.722 0.722 0.722 0 0 0 0 0.001 0h1.323c0.066-0.010 0.142-0.015 0.219-0.015h1.18c0 0 0 0 0 0 1.070 0 1.938 0.868 1.938 1.938 0 0 0 0 0 0.001v-0 7.982c0 0 0 0 0 0 0 0.399 0.323 0.722 0.722 0.722 0 0 0 0 0.001 0h3.607c0 0 0 0 0 0 0.399 0 0.722-0.323 0.722-0.722 0-0 0-0 0-0.001v0-8.674c0-0.003 0-0.007 0-0.010 0-0.393-0.319-0.712-0.712-0.712-0.002 0-0.004 0-0.005 0h0z"></path>
</svg>
