<!-- Generated by IcoMoon.io -->
<svg version="1.1" xmlns="http://www.w3.org/2000/svg" viewBox="0 0 32 32">
<title>miota</title>
<path d="M23.268 4.105c0.977 0 1.77-0.806 1.77-1.797s-0.794-1.796-1.77-1.796c-0.977 0.005-1.77 0.81-1.77 1.801s0.794 1.792 1.77 1.792zM23.79 8.774c0.829-0.007 1.499-0.68 1.499-1.51 0-0.004-0-0.008-0-0.012v0.001c0-0.837-0.671-1.522-1.499-1.522s-1.499 0.68-1.499 1.522 0.669 1.522 1.499 1.522zM27.905 9.37c0.824 0 1.495-0.68 1.495-1.518s-0.671-1.518-1.495-1.518-1.495 0.68-1.495 1.518 0.672 1.518 1.495 1.518zM27.411 13.364c0.707 0 1.279-0.581 1.279-1.297s-0.572-1.297-1.279-1.297-1.279 0.581-1.279 1.297 0.572 1.297 1.279 1.297zM30.706 14.66c0.712 0 1.288-0.585 1.288-1.306s-0.576-1.306-1.288-1.306c-0.712 0.005-1.288 0.584-1.288 1.297 0 0.003 0 0.006 0 0.009v-0c0 0.721 0.577 1.306 1.288 1.306zM23.27 12.824c0.725-0.004 1.311-0.593 1.311-1.318 0-0.003 0-0.005-0-0.008v0-0.003c0-0.733-0.585-1.329-1.311-1.329s-1.311 0.594-1.311 1.329c0 0.73 0.586 1.329 1.311 1.329zM22.083 16.003c0.608 0 1.098-0.499 1.098-1.112 0-0.003 0-0.006 0-0.009 0-0.606-0.489-1.098-1.094-1.103h-0.004c-0.608 0-1.098 0.499-1.098 1.112s0.49 1.112 1.098 1.112zM26.204 16.564c0.603-0.004 1.089-0.494 1.089-1.097 0-0.003 0-0.005-0-0.008v0-0.003c0-0.612-0.486-1.107-1.089-1.107s-1.089 0.495-1.089 1.107c-0 0.004-0 0.009-0 0.014 0 0.599 0.481 1.085 1.078 1.093h0.011zM29.49 17.855c0.608 0 1.098-0.499 1.098-1.116s-0.49-1.116-1.098-1.116-1.098 0.499-1.098 1.116c-0 0.003-0 0.008-0 0.012 0 0.606 0.488 1.098 1.092 1.105h0.001zM27.867 20.266c0.513 0 0.928-0.424 0.928-0.941s-0.415-0.941-0.928-0.941-0.928 0.424-0.928 0.941 0.415 0.941 0.928 0.941zM24.566 18.996c0.522 0 0.95-0.433 0.95-0.964s-0.424-0.964-0.95-0.964-0.95 0.433-0.95 0.964 0.428 0.964 0.95 0.964zM20.449 18.408c0.521-0.008 0.94-0.433 0.94-0.955s-0.418-0.946-0.938-0.955h-0.002c-0.521 0.008-0.94 0.433-0.94 0.955s0.418 0.946 0.938 0.955h0.001zM22.738 20.673c0.454 0 0.819-0.374 0.819-0.828 0-0.002 0-0.005 0-0.008 0-0.45-0.363-0.816-0.812-0.82h-0.007c-0.454 0-0.819 0.374-0.819 0.828-0 0.003-0 0.006-0 0.009 0 0.449 0.362 0.814 0.81 0.819h0.010zM26.038 21.965c0.454 0 0.828-0.374 0.828-0.837s-0.369-0.837-0.828-0.837c-0.462 0-0.837 0.375-0.837 0.837s0.375 0.837 0.837 0.837v0zM24.179 22.934c0.36 0 0.653-0.297 0.653-0.662 0-0.001 0-0.003 0-0.004 0-0.362-0.292-0.655-0.653-0.658h-0c-0.36 0-0.653 0.297-0.653 0.662 0 0 0 0.001 0 0.001 0 0.362 0.291 0.656 0.652 0.66h0zM22.418 23.453c0.326-0.002 0.59-0.267 0.59-0.594 0-0.001 0-0.003 0-0.004v0-0.002c0-0.333-0.266-0.599-0.59-0.599-0.326 0.002-0.59 0.267-0.59 0.594 0 0.001 0 0.003 0 0.004v-0 0.002c-0 0.003-0 0.007-0 0.010 0 0.322 0.258 0.583 0.578 0.589h0.001zM20.876 21.731c0.388 0 0.703-0.32 0.703-0.712s-0.315-0.712-0.703-0.712-0.703 0.32-0.703 0.712c0 0 0 0.001 0 0.001 0 0.39 0.314 0.706 0.702 0.71h0zM18.612 20.099c0.451 0 0.819-0.369 0.819-0.828s-0.365-0.828-0.819-0.828c-0.451 0-0.819 0.369-0.819 0.828 0 0 0 0.001 0 0.001 0 0.454 0.366 0.823 0.819 0.827h0zM25.324 30.474c0.973 0 1.761-0.801 1.761-1.788s-0.788-1.788-1.761-1.788-1.761 0.801-1.761 1.788 0.788 1.788 1.761 1.788zM20.85 28.211c0.81 0 1.468-0.667 1.468-1.49s-0.658-1.49-1.468-1.49-1.468 0.667-1.468 1.49 0.657 1.49 1.468 1.49zM18.294 31.487c0.819 0 1.481-0.671 1.481-1.504 0-0.828-0.662-1.504-1.481-1.504s-1.481 0.671-1.481 1.504c-0 0.003-0 0.008-0 0.012 0 0.82 0.662 1.486 1.48 1.492h0.001zM17.524 25.452c0.71-0.005 1.284-0.582 1.284-1.293 0-0.003 0-0.006-0-0.009v0c0-0.003 0-0.006 0-0.009 0-0.711-0.574-1.288-1.283-1.293h-0c-0.71 0.005-1.284 0.582-1.284 1.293 0 0.003 0 0.006 0 0.009v-0c0.001 0.717 0.577 1.302 1.284 1.302zM14.975 28.772c0.707 0 1.279-0.581 1.279-1.297s-0.572-1.297-1.279-1.297-1.279 0.581-1.279 1.297c-0 0.004-0 0.008-0 0.013 0 0.705 0.567 1.277 1.27 1.284h0.001zM12.227 31.025c0.707 0 1.275-0.581 1.275-1.293 0-0.716-0.572-1.293-1.275-1.293-0.707 0-1.275 0.581-1.275 1.293s0.572 1.293 1.275 1.293zM9.939 28.092c0.603-0.006 1.089-0.496 1.089-1.099 0-0.001 0-0.003 0-0.004v0c0-0.608-0.486-1.103-1.089-1.103-0.602 0.009-1.087 0.5-1.087 1.103s0.485 1.094 1.086 1.103h0.001zM12.692 25.829c0.603-0.004 1.089-0.494 1.089-1.097 0-0.002 0-0.005-0-0.007v0c0-0.612-0.486-1.103-1.089-1.103-0.603 0.008-1.089 0.499-1.089 1.103 0 0.603 0.483 1.093 1.084 1.103h0.001zM15.261 22.51c0.603-0.004 1.089-0.494 1.089-1.097 0-0.003 0-0.005-0-0.008v0-0.003c0-0.612-0.486-1.107-1.089-1.107-0.603 0.004-1.089 0.494-1.089 1.097 0 0.003 0 0.005 0 0.008v-0 0.003c0 0.612 0.486 1.107 1.089 1.107zM11.332 22.967c0.522 0 0.946-0.428 0.946-0.959s-0.424-0.959-0.946-0.959-0.946 0.428-0.946 0.959 0.424 0.959 0.946 0.959zM8.593 25.221c0.518-0.003 0.937-0.424 0.937-0.942 0-0.002 0-0.004 0-0.005v0-0.003c0-0.003 0-0.006 0-0.009 0-0.516-0.416-0.936-0.931-0.941h-0.006c-0.518 0.003-0.937 0.424-0.937 0.942 0 0.002 0 0.004 0 0.005v-0 0.003c0 0.002-0 0.004-0 0.006 0 0.519 0.419 0.94 0.937 0.943h0zM7.963 22.579c0.448-0.004 0.81-0.368 0.81-0.817 0-0.001 0-0.002 0-0.003v0c0-0.454-0.365-0.819-0.81-0.819s-0.81 0.369-0.81 0.819c0 0.454 0.365 0.819 0.81 0.819zM7.94 20.261c0.384-0.004 0.694-0.316 0.694-0.7 0-0.002 0-0.005-0-0.007v0c0-0.388-0.311-0.707-0.694-0.707s-0.694 0.315-0.694 0.707 0.311 0.707 0.694 0.707zM8.321 18.333c0.329 0 0.59-0.27 0.59-0.599s-0.266-0.599-0.59-0.599c-0.329 0-0.59 0.27-0.59 0.599s0.261 0.599 0.59 0.599zM10.683 18.011c0.388 0 0.703-0.32 0.703-0.712s-0.315-0.712-0.703-0.712-0.703 0.32-0.703 0.712c0 0.001 0 0.002 0 0.003 0 0.389 0.314 0.705 0.702 0.709h0zM13.275 17.001c0.451 0 0.819-0.374 0.819-0.828 0-0.002 0-0.005 0-0.008 0-0.45-0.363-0.816-0.812-0.82h-0.007c-0.451 0-0.819 0.374-0.819 0.828-0 0.002-0 0.004-0 0.006 0 0.452 0.364 0.818 0.815 0.822h0.004zM13.892 19.63c0.513-0.001 0.928-0.417 0.928-0.93s-0.416-0.93-0.93-0.93-0.93 0.416-0.93 0.93c0 0.513 0.415 0.929 0.928 0.93h0zM10.716 20.33c0.451 0 0.81-0.369 0.81-0.824s-0.365-0.824-0.81-0.824c-0.448 0.003-0.81 0.367-0.81 0.815 0 0.002 0 0.004 0 0.005v-0 0.004c-0 0.003-0 0.008-0 0.012 0 0.445 0.357 0.806 0.8 0.813h0.010zM1.756 19.108c0.968 0 1.756-0.797 1.756-1.779s-0.788-1.779-1.756-1.779-1.756 0.799-1.756 1.78 0.788 1.778 1.756 1.778zM5.742 15.931c0.833 0 1.504-0.685 1.504-1.527s-0.676-1.527-1.504-1.527c-0.832 0.006-1.504 0.681-1.504 1.514 0 0.004 0 0.007 0 0.011v-0.001 0.003c0 0.847 0.676 1.527 1.504 1.527zM4.187 12.014c0.828 0 1.495-0.68 1.495-1.518s-0.671-1.518-1.495-1.518c-0.827 0.006-1.495 0.677-1.495 1.505 0 0.004 0 0.007 0 0.011v-0.001 0.003c-0 0.005-0 0.010-0 0.015 0 0.825 0.664 1.494 1.486 1.503h0.001zM8.029 10.158c0.707 0 1.284-0.581 1.284-1.302s-0.576-1.302-1.284-1.302-1.284 0.581-1.284 1.302 0.577 1.302 1.284 1.302zM9.6 14.066c0.712 0 1.288-0.585 1.288-1.306s-0.576-1.306-1.288-1.306-1.288 0.585-1.288 1.306 0.576 1.306 1.288 1.306zM13.097 13.254c0.606-0.005 1.094-0.497 1.094-1.103 0-0.003 0-0.006-0-0.009v0c0-0.005 0-0.011 0-0.017 0-0.604-0.49-1.095-1.095-1.095-0.599 0-1.085 0.481-1.094 1.077v0.001c0 0.011 0 0.022 0 0.034v0c-0 0.004-0 0.008-0 0.013 0 0.603 0.485 1.092 1.086 1.1h0.001zM16.118 13.265c0.522 0 0.946-0.428 0.946-0.955s-0.424-0.955-0.946-0.955c-0.527 0-0.955 0.428-0.955 0.955s0.428 0.955 0.955 0.955v0zM18.614 13.839c0.436 0 0.797-0.36 0.797-0.806s-0.356-0.806-0.797-0.806c-0.441 0.004-0.797 0.362-0.797 0.804 0 0.001 0 0.002 0 0.003v-0c0.005 0.442 0.36 0.806 0.797 0.806zM18.939 10.898c0.384-0.003 0.694-0.315 0.694-0.699 0-0.001 0-0.003 0-0.004v0c0-0.388-0.311-0.703-0.694-0.703s-0.694 0.315-0.694 0.703c0 0.001 0 0.003 0 0.004 0 0.384 0.31 0.696 0.694 0.699h0zM17.019 9.935c0.441-0.001 0.797-0.359 0.797-0.8s-0.358-0.8-0.799-0.8-0.799 0.358-0.799 0.8c0 0.441 0.357 0.798 0.797 0.8h0zM14.552 9.352c0.518-0.004 0.937-0.426 0.937-0.945 0-0.002 0-0.004 0-0.005v0c0-0.527-0.419-0.95-0.937-0.95s-0.937 0.428-0.937 0.95c-0 0.002-0 0.005-0 0.008 0 0.518 0.417 0.938 0.934 0.942h0.003zM11.537 9.356c0.608 0 1.098-0.499 1.098-1.112s-0.49-1.112-1.098-1.112-1.098 0.499-1.098 1.112c0 0.001 0 0.003 0 0.004 0 0.609 0.49 1.103 1.098 1.108h0.001zM7.475 6.574c0.689 0 1.243-0.563 1.243-1.261s-0.558-1.261-1.243-1.261c-0.689 0-1.243 0.563-1.243 1.261s0.558 1.261 1.243 1.261zM10.971 5.81c0.608 0 1.098-0.499 1.098-1.112s-0.49-1.112-1.098-1.112-1.098 0.499-1.098 1.112 0.49 1.112 1.098 1.112zM13.99 5.824c0.522 0 0.946-0.428 0.946-0.959s-0.424-0.959-0.946-0.959c-0.523 0.003-0.946 0.428-0.946 0.951 0 0.002 0 0.004 0 0.005v-0 0.003c0 0.001 0 0.003 0 0.004 0 0.524 0.422 0.95 0.945 0.955h0zM16.468 6.395c0.442 0 0.797-0.36 0.797-0.806s-0.356-0.806-0.797-0.806c-0.445 0-0.806 0.361-0.806 0.806s0.361 0.806 0.806 0.806v0zM18.372 7.383c0.394-0.003 0.712-0.323 0.712-0.717 0-0.001 0-0.003 0-0.004v0c0-0.401-0.32-0.721-0.712-0.721s-0.712 0.324-0.712 0.721 0.32 0.721 0.712 0.721zM19.768 8.517c0.324-0.002 0.585-0.265 0.585-0.589 0-0.001 0-0.003 0-0.004v0-0.001c0-0.002 0-0.003 0-0.005 0-0.323-0.261-0.586-0.583-0.589h-0.002c-0.324 0.002-0.585 0.265-0.585 0.589 0 0.001 0 0.003 0 0.004v-0 0.001c-0 0.003-0 0.006-0 0.009 0 0.32 0.257 0.58 0.576 0.585h0.010z"></path>
</svg>
