<!-- Generated by IcoMoon.io -->
<svg version="1.1" xmlns="http://www.w3.org/2000/svg" viewBox="0 0 32 32">
<title>mkr</title>
<path fill="#000" d="M32 16c0 8.837-7.163 16-16 16s-16-7.163-16-16c0-8.837 7.163-16 16-16s16 7.163 16 16z"></path>
<path fill="#fff" d="M8.125 20.8v-7.531l5.711 4.298v3.233h1.458v-3.536c-0.001-0.276-0.133-0.521-0.337-0.676l-0.002-0.002-6.926-5.214c-0.14-0.105-0.317-0.168-0.509-0.168-0.47 0-0.851 0.38-0.853 0.849v8.747zM23.919 20.8v-7.531l-5.711 4.298v3.233h-1.458v-3.536c0.001-0.276 0.133-0.521 0.337-0.676l0.002-0.002 6.926-5.212c0.14-0.105 0.317-0.168 0.509-0.168 0.469 0 0.85 0.379 0.853 0.847v8.747z"></path>
</svg>
