<!-- Generated by IcoMoon.io -->
<svg version="1.1" xmlns="http://www.w3.org/2000/svg" viewBox="0 0 32 32">
<title>mln</title>
<path d="M34.801 21.16c0 6.762-5.888 12.244-13.151 12.244s-13.151-5.482-13.151-12.244c0-6.762 5.888-12.244 13.151-12.244s13.151 5.482 13.151 12.244z"></path>
<path d="M22.857 20.634c0 5.856-5.362 10.602-11.977 10.602s-11.977-4.747-11.977-10.602c0-5.856 5.362-10.602 11.977-10.602s11.977 4.747 11.977 10.602z"></path>
<path d="M30.241 6.083c0 6.928-6.328 12.544-14.135 12.544s-14.135-5.616-14.135-12.544c0-6.928 6.328-12.544 14.135-12.544s14.135 5.616 14.135 12.544z"></path>
</svg>
