<!-- Generated by IcoMoon.io -->
<svg version="1.1" xmlns="http://www.w3.org/2000/svg" viewBox="0 0 32 32">
<title>mns</title>
<path fill="#0007bc" d="M31.517 19.871c-2.137 8.571-10.817 13.788-19.392 11.65-8.571-2.137-13.783-10.821-11.646-19.392 2.133-8.571 10.817-13.787 19.383-11.65 8.575 2.138 13.792 10.821 11.654 19.392v0 0z"></path>
<path fill="#fff" d="M25.604 16.975v0l-0.2-0.321-3.217-5.096c-0.254-0.396-0.587-0.733-0.979-0.992-0.729-0.463-1.621-0.608-2.458-0.4-0.829 0.2-1.538 0.729-1.967 1.467-0.217 0.358-0.488 0.804-0.762 1.242l-0.875-1.35-0.033-0.046v-0.012c-0.296-0.396-0.667-0.729-1.092-0.979-0.637-0.346-1.375-0.463-2.096-0.338-0.692 0.137-1.325 0.488-1.813 1.004-0.137 0.154-0.258 0.321-0.358 0.5l-2.375 3.767-0.996 1.571c-0.454 0.725-0.612 1.6-0.438 2.438 0.162 0.837 0.667 1.571 1.388 2.029 0.492 0.308 1.058 0.471 1.637 0.467 1.137-0.004 2.192-0.583 2.796-1.546l0.758-1.2 0.733 1.142c0.196 0.283 0.429 0.546 0.683 0.775 0.071 0.063 0.142 0.125 0.217 0.179h0.008c0.050 0.038 0.1 0.071 0.158 0.108 0.492 0.317 1.067 0.488 1.654 0.488 0.621-0.004 1.229-0.183 1.746-0.525l0.063-0.042 0.058-0.038c0.283-0.2 0.538-0.446 0.746-0.725l0.863-1.342 0.738 1.167c0.613 0.958 1.667 1.538 2.804 1.538 0.575 0.004 1.142-0.158 1.633-0.462 1.479-0.925 1.921-2.967 0.975-4.467zM10.217 11.929c0.088-0.15 0.188-0.287 0.3-0.417 0.4-0.429 0.929-0.725 1.504-0.85 0.6-0.108 1.213-0.008 1.746 0.279 0.363 0.217 0.679 0.504 0.929 0.842l0.021 0.029 1.008 1.55c-0.471 0.704-0.867 1.283-0.867 1.296-0.371 0.567-0.938 0.979-1.592 1.15h-0.033c-0.683 0.2-1.412 0.121-2.042-0.217v0l-0.1-0.058-0.088-0.058-0.083-0.058-0.071-0.058-0.067-0.054-0.054-0.046-0.037-0.033-0.021-0.021-0.058-0.067-0.071-0.063-0.096-0.096-0.096-0.079-0.021-0.017-0.029-0.021-0.050-0.037-0.025-0.017h-0.012l-0.071-0.046-0.025-0.012h-0.021l-0.067-0.037-0.033-0.021-0.088-0.042-0.042-0.029-0.046-0.021-0.083-0.033h-0.004l-0.104-0.033-0.042-0.008-0.083-0.021h-0.042l-0.079-0.029h-0.517l-0.142 0.021h-0.012l-0.15 0.033 1.654-2.6zM11.346 20.1c-0.387 0.608-0.992 1.042-1.688 1.217-0.688 0.179-1.421 0.071-2.021-0.308-1.221-0.767-1.583-2.479-0.792-3.746l0.992-1.571c0.071-0.108 0.15-0.204 0.242-0.296 0.271-0.258 0.633-0.404 1.008-0.404h0.317l0.046 0.008h0.042l0.054 0.021h0.025l0.088 0.033 0.025 0.008 0.037 0.021h0.021l0.033 0.017 0.033 0.021h0.017l0.033 0.021 0.050 0.033h0.029l0.029 0.021 0.033 0.021h0.012l0.075 0.067h0.008l0.058 0.058 0.017 0.021 0.025 0.029 2.058 3.308-0.908 1.4zM18.188 20.225c-0.179 0.242-0.387 0.454-0.637 0.629l-0.046 0.033-0.058 0.038c-0.85 0.571-1.958 0.583-2.825 0.038l-0.133-0.092h-0.017c-0.058-0.046-0.121-0.092-0.179-0.146-0.221-0.2-0.421-0.425-0.592-0.671l-0.946-1.492-1.458-2.321 0.050 0.021 0.137 0.046 0.079 0.025 0.137 0.033 0.092 0.025 0.146 0.025 0.079 0.012 0.192 0.021h0.575l0.158-0.021h0.071c0.075-0.012 0.15-0.025 0.217-0.046v0c0.258-0.067 0.508-0.163 0.746-0.288h0.025c0.067-0.033 0.125-0.067 0.192-0.1 0.442-0.254 0.817-0.608 1.092-1.037 0 0 0.45-0.679 0.942-1.446v0c0.35-0.546 0.725-1.142 0.992-1.6 0.354-0.613 0.95-1.058 1.637-1.221 0.704-0.171 1.442-0.054 2.054 0.333 0.325 0.217 0.604 0.504 0.821 0.833l2.475 3.925c-0.071-0.033-0.142-0.058-0.217-0.083l-0.038-0.012c-0.071-0.025-0.146-0.046-0.217-0.067h-0.021c-0.071-0.021-0.146-0.033-0.217-0.046h-0.033c-0.071-0.012-0.15-0.021-0.217-0.029h-0.042c-0.075 0-0.15 0-0.217-0.008h-0.008c-0.071 0-0.15 0-0.217 0h-0.046c-0.071 0-0.146 0.008-0.217 0.025h-0.046c-0.075 0.012-0.15 0.025-0.229 0.046v0c-0.104 0.025-0.204 0.054-0.308 0.088-0.692 0.238-1.283 0.708-1.663 1.333l-0.9 1.413-1.167 1.783zM24.371 20.992c-1.221 0.767-2.921 0.35-3.712-0.913l-0.875-1.375 0.9-1.413 0.071-0.113c0.658-0.954 1.863-1.371 2.967-1.033v0l0.1 0.033h0.029l0.071 0.029 0.054 0.021 0.046 0.021 0.075 0.033h0.021c0.071 0.033 0.146 0.071 0.217 0.117s0.1 0.067 0.15 0.1l0.033 0.021c0.104 0.075 0.204 0.158 0.292 0.246l0.021 0.021c0.038 0.038 0.075 0.083 0.113 0.125l0.021 0.021 0.188 0.3c0.8 1.279 0.442 2.992-0.779 3.758v0z"></path>
</svg>
