<!-- Generated by IcoMoon.io -->
<svg version="1.1" xmlns="http://www.w3.org/2000/svg" viewBox="0 0 32 32">
<title>moac</title>
<path fill="#000" d="M32 16c0 8.837-7.163 16-16 16s-16-7.163-16-16c0-8.837 7.163-16 16-16s16 7.163 16 16z"></path>
<path fill="#fff" d="M28.405 17.715c-0.454 0.604-1.169 0.991-1.975 0.991-0.554 0-1.065-0.183-1.477-0.492l0.006 0.005c-0.604-0.454-0.991-1.169-0.991-1.975 0-0.554 0.183-1.065 0.492-1.477l-0.005 0.006c0.454-0.604 1.169-0.991 1.975-0.991 0.554 0 1.065 0.183 1.477 0.492l-0.006-0.005c0.193 0.145 0.359 0.311 0.499 0.498l0.005 0.006 0.693-0.496c-0.611-0.825-1.581-1.353-2.675-1.353-0.739 0-1.423 0.242-1.974 0.651l0.009-0.006c-0.825 0.611-1.353 1.581-1.353 2.675 0 0.739 0.242 1.423 0.651 1.974l-0.006-0.009c0.611 0.825 1.581 1.353 2.675 1.353 0.739 0 1.423-0.242 1.974-0.651l-0.009 0.006c0.273-0.202 0.507-0.436 0.702-0.7l0.006-0.009z"></path>
<path fill="#fff" d="M20.099 12.421l-0.48 0.998-2.846 6.142h0.928l0.658-1.422h3.462l0.659 1.422h0.933l-2.848-6.142zM18.763 17.294l1.336-2.88 1.333 2.88h-2.669z"></path>
<path fill="#fff" d="M6.278 16.251l-3.314-3.314v6.622h0.85v-4.568l2.464 2.464 0.6-0.602 1.862-1.862v4.568h0.85v-6.622l-3.312 3.314z"></path>
<path fill="#fff" d="M13.752 12.938c-1.834 0-3.32 1.486-3.32 3.32v0c0 1.834 1.486 3.32 3.32 3.32v0c1.834 0 3.32-1.486 3.32-3.32v0c0-1.834-1.486-3.32-3.32-3.32v0 0zM13.752 18.714c-0.001 0-0.002 0-0.003 0-1.36 0-2.463-1.102-2.464-2.462v-0c0-0.001 0-0.002 0-0.003 0-1.36 1.102-2.463 2.462-2.464h0c0 0 0.001 0 0.002 0 1.36 0 2.463 1.102 2.464 2.462v0c0 0.003 0 0.006 0 0.010 0 1.36-1.101 2.462-2.461 2.464h-0z"></path>
<path fill="#fff" d="M15.386 14.843c0 0.127-0.103 0.23-0.23 0.23s-0.23-0.103-0.23-0.23c0-0.127 0.103-0.23 0.23-0.23s0.23 0.103 0.23 0.23z"></path>
<path fill="#fff" d="M15.386 17.648c0 0.127-0.103 0.23-0.23 0.23s-0.23-0.103-0.23-0.23c0-0.127 0.103-0.23 0.23-0.23s0.23 0.103 0.23 0.23z"></path>
<path fill="#fff" d="M12.579 14.843c0 0.127-0.103 0.23-0.23 0.23s-0.23-0.103-0.23-0.23c0-0.127 0.103-0.23 0.23-0.23s0.23 0.103 0.23 0.23z"></path>
<path fill="#fff" d="M11.882 16.246c0 0.064-0.052 0.117-0.117 0.117s-0.117-0.052-0.117-0.117c0-0.064 0.052-0.117 0.117-0.117s0.117 0.052 0.117 0.117z"></path>
<path fill="#fff" d="M13.869 18.237c0 0.064-0.052 0.117-0.117 0.117s-0.117-0.052-0.117-0.117c0-0.064 0.052-0.117 0.117-0.117s0.117 0.052 0.117 0.117z"></path>
<path fill="#fff" d="M15.854 16.246c0 0.064-0.052 0.117-0.117 0.117s-0.117-0.052-0.117-0.117c0-0.064 0.052-0.117 0.117-0.117s0.117 0.052 0.117 0.117z"></path>
<path fill="#fff" d="M13.869 14.264c0 0.065-0.052 0.117-0.117 0.117s-0.117-0.052-0.117-0.117c0-0.065 0.052-0.117 0.117-0.117s0.117 0.052 0.117 0.117z"></path>
<path fill="#fff" d="M13.869 14.843c0 0.065-0.052 0.117-0.117 0.117s-0.117-0.052-0.117-0.117c0-0.065 0.052-0.117 0.117-0.117s0.117 0.052 0.117 0.117z"></path>
<path fill="#fff" d="M12.579 17.648c0 0.127-0.103 0.23-0.23 0.23s-0.23-0.103-0.23-0.23c0-0.127 0.103-0.23 0.23-0.23s0.23 0.103 0.23 0.23z"></path>
<path fill="#fff" d="M13.982 17.648c0 0.127-0.103 0.23-0.23 0.23s-0.23-0.103-0.23-0.23c0-0.127 0.103-0.23 0.23-0.23s0.23 0.103 0.23 0.23z"></path>
<path fill="#fff" d="M15.112 14.843h0.085v2.806h-0.085v-2.806z"></path>
<path fill="#fff" d="M12.349 14.829h2.806v0.029h-2.806v-0.029z"></path>
<path fill="#fff" d="M13.743 14.85l0.026-0.013 1.401 2.806-0.026 0.013-1.401-2.806z"></path>
<path fill="#fff" d="M12.338 17.642l1.403-2.806 0.026 0.013-1.403 2.806-0.026-0.013z"></path>
<path fill="#fff" d="M12.306 14.843h0.085v2.806h-0.085v-2.806z"></path>
<path fill="#fff" d="M12.349 17.634h2.806v0.029h-2.806v-0.029z"></path>
<path fill="#fff" d="M12.313 14.863l0.076-0.038 1.403 2.806-0.076 0.038-1.403-2.806z"></path>
<path fill="#fff" d="M13.715 17.63l1.403-2.806 0.076 0.038-1.403 2.806-0.076-0.038z"></path>
<path fill="#fff" d="M11.753 16.244l0.581-1.404 0.027 0.011-0.581 1.404-0.027-0.011z"></path>
<path fill="#fff" d="M12.336 17.656l-0.582-1.402 0.026-0.013 0.584 1.402-0.027 0.013z"></path>
<path fill="#fff" d="M13.738 17.648h0.029v0.586h-0.029v-0.586z"></path>
<path fill="#fff" d="M13.738 14.259h0.029v0.586h-0.029v-0.586z"></path>
<path fill="#fff" d="M12.345 14.83l1.403-0.581 0.011 0.027-1.403 0.581-0.011-0.027z"></path>
<path fill="#fff" d="M13.745 14.277l0.011-0.027 1.404 0.581-0.011 0.027-1.404-0.581z"></path>
<path fill="#fff" d="M15.142 14.848l0.027-0.011 0.582 1.404-0.027 0.011-0.582-1.404z"></path>
<path fill="#fff" d="M15.14 17.649l0.583-1.407 0.027 0.011-0.583 1.407-0.027-0.011z"></path>
<path fill="#fff" d="M13.744 18.225l1.408-0.586 0.011 0.027-1.408 0.586-0.011-0.027z"></path>
<path fill="#fff" d="M13.746 18.248l-1.406-0.586 0.010-0.026 1.408 0.586-0.011 0.026z"></path>
</svg>
