<!-- Generated by IcoMoon.io -->
<svg version="1.1" xmlns="http://www.w3.org/2000/svg" viewBox="0 0 32 32">
<title>mof</title>
<path fill="#6ea8f2" d="M10.544 1.021c1.159-1.186 3.162-1.366 4.51-0.399 1.335 0.879 1.889 2.709 1.307 4.191-0.34 0.927-1.096 1.653-1.992 2.047 0.27 1.392 0.557 2.78 0.829 4.171 1.615-0.115 3.249 0.655 4.177 1.982 1.071 1.477 1.125 3.563 0.2 5.125q2.62 2.451 5.229 4.912c0.85-0.695 2.045-0.953 3.087-0.573 1.199 0.416 2.061 1.629 2.046 2.899 0.012 1.129-0.66 2.222-1.663 2.736-0.621 0.334-1.357 0.409-2.045 0.283-1.145-0.226-2.111-1.159-2.372-2.297-0.183-0.702-0.056-1.443 0.223-2.102-1.749-1.641-3.493-3.289-5.248-4.923-1.202 1.161-3.017 1.641-4.625 1.151-0.877 2.391-1.698 4.802-2.575 7.194 0.328 0.505 0.597 1.069 0.615 1.682 0.030 0.918-0.413 1.843-1.167 2.373-0.679 0.489-1.584 0.663-2.389 0.417-1.029-0.279-1.841-1.199-1.996-2.252-0.11-0.536 0.033-1.077 0.197-1.585-0.35-0.251-0.698-0.504-1.048-0.754-0.427 0.232-0.895 0.425-1.39 0.397-1.008 0.023-1.961-0.688-2.267-1.642-0.307-0.869-0.036-1.895 0.64-2.516 0.626-0.602 1.589-0.808 2.408-0.528 0.918 0.295 1.612 1.187 1.64 2.155 0.034 0.432-0.096 0.852-0.236 1.254 0.327 0.223 0.646 0.457 0.972 0.681 0.416-0.319 0.893-0.576 1.419-0.65 0.55-0.111 1.101 0.046 1.623 0.207 0.81-2.307 1.639-4.606 2.452-6.913-1.379-0.85-2.316-2.416-2.256-4.055-0.048-1.962 1.331-3.803 3.178-4.419-0.261-1.386-0.556-2.765-0.819-4.15-1.156 0.021-2.315-0.496-3.007-1.432-1.068-1.357-0.912-3.479 0.342-4.665zM12.686 1.458c-1.149 0.153-1.995 1.388-1.728 2.515 0.182 0.935 1.054 1.699 2.017 1.69 0.934 0.061 1.842-0.598 2.099-1.493 0.291-0.897-0.111-1.959-0.926-2.433-0.43-0.277-0.962-0.348-1.461-0.279zM14.836 13.104c-1.335 0.319-2.245 1.769-1.962 3.111 0.205 1.246 1.387 2.234 2.653 2.207 1.237 0.034 2.401-0.903 2.65-2.112 0.255-1.070-0.228-2.273-1.161-2.857-0.634-0.418-1.448-0.545-2.18-0.348zM26.318 23.819c-0.777 0.258-1.293 1.151-1.070 1.949 0.176 0.779 0.977 1.355 1.773 1.258 0.852-0.073 1.559-0.892 1.475-1.75-0.021-1.044-1.203-1.84-2.179-1.457zM4.073 24.143c-0.878 0.26-1.107 1.547-0.37 2.094 0.68 0.62 1.906 0.131 1.984-0.784 0.152-0.855-0.806-1.648-1.614-1.31zM9.081 27.896c-0.392 0.111-0.723 0.41-0.883 0.783-0.355 0.78 0.206 1.786 1.061 1.876 0.788 0.14 1.59-0.544 1.555-1.346 0.042-0.876-0.902-1.578-1.733-1.314z"></path>
</svg>
