<!-- Generated by IcoMoon.io -->
<svg version="1.1" xmlns="http://www.w3.org/2000/svg" viewBox="0 0 32 32">
<title>mth</title>
<path fill="#0072ff" d="M21.447 22.183l-4.262 3.303v-9.97c0-0 0-0 0-0 0-1.772 0.846-3.347 2.157-4.342l0.014-0.010 4.199-3.159v9.872c0 0.001 0 0.002 0 0.002 0 1.744-0.82 3.297-2.095 4.294l-0.012 0.009zM10.601 22.189c-1.289-1.006-2.111-2.56-2.111-4.305v-9.872l4.199 3.164c1.323 1.005 2.168 2.578 2.168 4.349v9.968l-4.26-3.303zM29.778 27.375l-4.085 3.116v-21.283c0-0 0-0 0-0 0-1.867 0.884-3.527 2.256-4.585l0.014-0.010 4.086-3.136v21.297c-0 1.871-0.888 3.535-2.266 4.592l-0.014 0.010zM2.288 27.375c-1.394-1.066-2.285-2.729-2.288-4.6v-21.3l4.099 3.139c1.386 1.068 2.269 2.729 2.269 4.595 0 0 0 0 0 0v-0 21.283l-4.085-3.116z"></path>
</svg>
