<!-- Generated by IcoMoon.io -->
<svg version="1.1" xmlns="http://www.w3.org/2000/svg" viewBox="0 0 32 32">
<title>mtl</title>
<path d="M2.018 3.86c-1.118 0-2.018 0.905-2.018 2.018v20.233c0 1.113 0.9 2.018 2.018 2.018s2.018-0.905 2.018-2.018v-20.233c-0.005-1.113-0.905-2.018-2.018-2.018z"></path>
<path d="M29.993 3.86c-1.113 0-2.018 0.905-2.018 2.018v20.233c0 1.113 0.905 2.018 2.018 2.018s2.018-0.905 2.018-2.018v-20.233c0-1.113-0.905-2.018-2.018-2.018z"></path>
<path d="M11.341 8.067c-1.113 0-2.018 0.9-2.018 2.018v11.82c0 1.113 0.905 2.018 2.018 2.018s2.018-0.905 2.018-2.018v-11.82c0-1.113-0.905-2.018-2.018-2.018z"></path>
<path d="M20.67 11.464c-1.113 0-2.018 0.905-2.018 2.018v4.989c0 1.113 0.905 2.018 2.018 2.018s2.018-0.905 2.018-2.018v-4.989c-0.005-1.118-0.905-2.018-2.018-2.018z"></path>
</svg>
