<!-- Generated by IcoMoon.io -->
<svg version="1.1" xmlns="http://www.w3.org/2000/svg" viewBox="0 0 32 32">
<title>mwc</title>
<path d="M14.562 18.121l-5.285 5.285c-0.755 0.755-1.978 0.755-2.733 0l-5.969-6.005c-0.755-0.755-0.755-1.978 0-2.733l6.005-6.005c0.755-0.755 1.978-0.755 2.733 0l5.285 5.285c0.755 0.755 1.978 0.755 2.733 0l5.249-5.285c0.755-0.755 1.978-0.755 2.733 0l5.969 6.005c0.755 0.755 0.755 1.978 0 2.733l-5.969 6.005c-0.755 0.755-1.978 0.755-2.733 0l-5.285-5.285c-0.755-0.755-1.978-0.755-2.733 0z"></path>
</svg>
