<!-- Generated by IcoMoon.io -->
<svg version="1.1" xmlns="http://www.w3.org/2000/svg" viewBox="0 0 32 32">
<title>mxc</title>
<path fill="#09006e" d="M30.447 17.567c0 7.979-6.468 14.447-14.447 14.447s-14.447-6.468-14.447-14.447c0-7.979 6.468-14.447 14.447-14.447s14.447 6.468 14.447 14.447z"></path>
<path fill="#000" d="M15.184 17.799l9.599-16.626c0.647-1.121 2.080-1.505 3.201-0.858l-0.001-0c1.121 0.647 1.505 2.080 0.858 3.201l-9.599 16.626c-0.647 1.121-2.080 1.505-3.201 0.858l0.001 0c-1.121-0.647-1.505-2.080-0.858-3.201z"></path>
<path fill="#00ffd9" d="M20.632 25.364l-0.046-7.315-3.485 5.871h-2.385l-3.485-5.618v7.063h-4.931v-16.052h4.449l5.228 8.553 5.091-8.553h4.449l0.046 16.052h-4.93z"></path>
<path fill="#000" d="M15.726 16.861l6.796-11.77c0.412-0.706 1.166-1.172 2.029-1.172 0.431 0 0.835 0.117 1.182 0.32l-0.011-0.006c0.705 0.412 1.172 1.166 1.172 2.029 0 0.431-0.116 0.835-0.32 1.182l0.006-0.011-6.796 11.771c-0.413 0.706-1.167 1.172-2.029 1.172-0.431 0-0.835-0.116-1.182-0.32l0.011 0.006c-0.705-0.413-1.171-1.167-1.171-2.029 0-0.431 0.116-0.835 0.32-1.182l-0.006 0.011z"></path>
</svg>
