<!-- Generated by IcoMoon.io -->
<svg version="1.1" xmlns="http://www.w3.org/2000/svg" viewBox="0 0 32 32">
<title>nano</title>
<path fill="#4a90e2" d="M4.606 20.529c0 1.272-1.031 2.303-2.303 2.303s-2.303-1.031-2.303-2.303c0-1.272 1.031-2.303 2.303-2.303s2.303 1.031 2.303 2.303z"></path>
<path fill="#4a90e2" d="M29.745 9.111c-1.247 0-2.303 1.008-2.303 2.303 0 1.824-0.289 2.303-2.303 2.303h-0.192c-1.151 0.096-2.062 1.056-2.062 2.255v0.048c0 1.776-0.337 2.207-2.303 2.207-0.096 0-0.192 0-0.24 0.048-1.151 0.144-2.062 1.104-2.062 2.255 0 1.247 1.008 2.303 2.303 2.303 1.199 0 2.207-0.96 2.255-2.111v-0.192c0-1.631 0.527-2.255 2.255-2.303h0.048c1.199 0 2.207-0.96 2.255-2.159v-0.144c0-1.68 0.527-2.303 2.303-2.303 1.247 0 2.303-1.008 2.303-2.303 0-1.199-1.008-2.207-2.255-2.207zM16.216 13.717h-0.192c-2.014 0-2.303-0.479-2.303-2.303 0-1.247-1.008-2.303-2.303-2.303-1.247 0-2.303 1.008-2.303 2.303 0 1.824-0.289 2.255-2.303 2.255h-0.192c-1.151 0.096-2.062 1.056-2.062 2.255 0 1.247 1.008 2.303 2.303 2.303 1.199 0 2.207-0.96 2.255-2.111v-0.144c0-1.68 0.527-2.303 2.303-2.303s2.303 0.623 2.303 2.255c0 1.247 1.008 2.303 2.303 2.303s2.303-1.008 2.303-2.303c-0.048-1.151-0.96-2.111-2.111-2.207z"></path>
</svg>
