<!-- Generated by IcoMoon.io -->
<svg version="1.1" xmlns="http://www.w3.org/2000/svg" viewBox="0 0 32 32">
<title>nct</title>
<path fill="#8500ff" d="M3.474 8.806h16.012c2.396 0 4.346 1.95 4.346 4.346s-1.95 4.346-4.346 4.346h-8.664c-0.683 0-1.237 0.554-1.237 1.237s0.554 1.237 1.237 1.237h8.664c3.761 0 6.82-3.059 6.82-6.82s-3.060-6.82-6.82-6.82h-16.012c-0.683 0-1.237 0.554-1.237 1.237s0.554 1.237 1.237 1.237v0z"></path>
<path fill="#8500ff" d="M19.486 0.634h-6.211c-0.683 0-1.237 0.554-1.237 1.237s0.554 1.237 1.237 1.237v0h6.211c5.538 0 10.043 4.505 10.043 10.043s-4.505 10.043-10.043 10.043h-15.775c-0.004-0-0.009-0-0.014-0-0.683 0-1.237 0.554-1.237 1.237s0.554 1.237 1.237 1.237c0.005 0 0.010-0 0.015-0h15.775c6.902 0 12.518-5.615 12.518-12.518s-5.615-12.517-12.517-12.517z"></path>
<path fill="#8500ff" d="M12.312 13.151c-0.001-0.683-0.554-1.236-1.237-1.237h-3.016c-0.683 0.001-1.236 0.554-1.237 1.237v0c0 0.685 0.547 1.237 1 1.237h3.015c0.869 0 1.475-0.509 1.475-1.237zM8.396 28.892h-7.159c-0.004-0-0.009-0-0.014-0-0.683 0-1.237 0.554-1.237 1.237s0.554 1.237 1.237 1.237c0.005 0 0.010-0 0.015-0h7.158c0.004 0 0.009 0 0.014 0 0.683 0 1.237-0.554 1.237-1.237s-0.554-1.237-1.237-1.237c-0.005 0-0.010 0-0.015 0h0.001z"></path>
</svg>
