<!-- Generated by IcoMoon.io -->
<svg version="1.1" xmlns="http://www.w3.org/2000/svg" viewBox="0 0 32 32">
<title>near</title>
<path d="M25.671 1.636l-6.684 9.92c-0.462 0.676 0.427 1.493 1.067 0.924l6.578-5.724c0.178-0.142 0.427-0.036 0.427 0.213v17.884c0 0.249-0.32 0.356-0.462 0.178l-19.911-23.822c-0.64-0.782-1.564-1.209-2.596-1.209h-0.711c-1.849 0-3.378 1.529-3.378 3.413v25.173c0 1.884 1.529 3.413 3.413 3.413 1.173 0 2.276-0.604 2.916-1.636l6.684-9.92c0.462-0.676-0.427-1.493-1.067-0.924l-6.578 5.689c-0.178 0.142-0.427 0.036-0.427-0.213v-17.849c0-0.249 0.32-0.356 0.462-0.178l19.911 23.822c0.64 0.782 1.6 1.209 2.596 1.209h0.711c1.884 0 3.413-1.529 3.413-3.413v-25.173c0-1.884-1.529-3.413-3.413-3.413-1.209 0-2.311 0.604-2.951 1.636z"></path>
</svg>
