<!-- Generated by IcoMoon.io -->
<svg version="1.1" xmlns="http://www.w3.org/2000/svg" viewBox="0 0 32 32">
<title>nest</title>
<path fill="#000" d="M16 0c8.835 0 16 7.165 16 16s-7.165 16-16 16-16-7.165-16-16 7.165-16 16-16v0z"></path>
<path fill="#fff" d="M22.864 13.834c0.73-3.462-0.88-5.226-3.917-5.226-1.824 0-3.341 0.669-4.71 1.914l0.304-1.398c0 0-0.486-0.211-1.459-0.211-1.062 0-1.581 0.211-1.581 0.211l-2.925 13.738c0 0 0.426 0.211 1.488 0.211 0.973 0 1.549-0.211 1.549-0.211l2.106-9.846c1.062-1.216 2.522-1.946 3.859-1.946 1.946 0 2.611 0.973 2.25 2.675l-1.955 9.117c0 0 0.454 0.211 1.488 0.211 1.002 0 1.549-0.211 1.549-0.211l1.955-9.027z"></path>
</svg>
