<!-- Generated by IcoMoon.io -->
<svg version="1.1" xmlns="http://www.w3.org/2000/svg" viewBox="0 0 32 32">
<title>new</title>
<path fill="none" stroke="#000" stroke-linejoin="miter" stroke-linecap="butt" stroke-miterlimit="4" stroke-width="0.7619" d="M30.984 17.326q0.686 0.457-0.457 0.762c-0.305 0.102-0.305 0.152-0.305 0.305 0 0.406-0.051 0.559-0.914 0.711-0.012-0.001-0.027-0.002-0.042-0.002-0.208 0-0.386 0.125-0.465 0.303l-0.001 0.003c0.051 0.356-0.356 0.559-1.27 0.66-0.254 0.003-0.485 0.099-0.661 0.255l0.001-0.001c-0.152 0.356-0.66 0.508-1.625 0.508-0.023-0.002-0.050-0.002-0.077-0.002-0.255 0-0.492 0.077-0.69 0.208l0.005-0.003c-0.305 0.305-0.965 0.457-1.93 0.406-0.034-0.002-0.075-0.004-0.115-0.004-0.271 0-0.528 0.057-0.76 0.161l0.012-0.005c-0.417 0.202-0.907 0.32-1.424 0.32-0.233 0-0.46-0.024-0.68-0.069l0.022 0.004c-0.099-0.012-0.214-0.019-0.331-0.019-0.225 0-0.443 0.025-0.654 0.073l0.020-0.004c-0.378 0.133-0.814 0.21-1.267 0.21-0.325 0-0.642-0.040-0.944-0.114l0.027 0.006c-0.145-0.024-0.312-0.038-0.483-0.038s-0.338 0.014-0.5 0.041l0.018-0.002c-0.301 0.082-0.647 0.13-1.004 0.13-0.421 0-0.827-0.066-1.208-0.188l0.028 0.008c-0.175-0.055-0.376-0.087-0.584-0.087-0.135 0-0.266 0.013-0.393 0.039l0.013-0.002c-0.212 0.054-0.455 0.085-0.705 0.085-0.504 0-0.978-0.125-1.394-0.347l0.016 0.008c-0.229-0.098-0.496-0.154-0.777-0.154-0.031 0-0.061 0.001-0.091 0.002l0.004-0c-0.965 0.051-1.575-0.051-1.93-0.406-0.201-0.066-0.432-0.103-0.671-0.103-0.032 0-0.064 0.001-0.095 0.002l0.005-0c-0.965 0-1.524-0.203-1.625-0.508-0.175-0.155-0.406-0.251-0.66-0.254h-0.001c-0.914-0.102-1.371-0.305-1.321-0.61 0-0.152-0.152-0.254-0.508-0.305-0.864-0.152-1.168-0.406-0.914-0.711 0.102-0.102 0-0.254-0.305-0.305q-1.143-0.305-0.457-0.762c0.152-0.102 0.102-0.254-0.102-0.356q-0.914-0.381 0-0.762c0.203-0.102 0.254-0.254 0.102-0.356q-0.686-0.457 0.457-0.762 0.457-0.152 0.305-0.305c-0.254-0.305 0.051-0.559 0.914-0.711 0.012 0.001 0.027 0.002 0.042 0.002 0.208 0 0.386-0.125 0.465-0.303l0.001-0.003c-0.051-0.356 0.356-0.559 1.27-0.66 0.254-0.003 0.485-0.099 0.661-0.255l-0.001 0.001c0.152-0.356 0.66-0.508 1.625-0.559 0.023 0.002 0.050 0.002 0.077 0.002 0.255 0 0.492-0.077 0.69-0.208l-0.005 0.003c0.305-0.305 0.965-0.457 1.93-0.406 0.034 0.002 0.075 0.004 0.115 0.004 0.271 0 0.528-0.057 0.76-0.161l-0.012 0.005c0.417-0.202 0.907-0.32 1.424-0.32 0.233 0 0.46 0.024 0.68 0.069l-0.022-0.004c0.099 0.012 0.214 0.019 0.331 0.019 0.225 0 0.443-0.025 0.654-0.073l-0.020 0.004c0.378-0.133 0.814-0.21 1.267-0.21 0.325 0 0.642 0.040 0.944 0.114l-0.027-0.006c0.145 0.024 0.312 0.038 0.483 0.038s0.338-0.014 0.5-0.041l-0.018 0.002c0.301-0.082 0.647-0.13 1.004-0.13 0.421 0 0.827 0.066 1.208 0.188l-0.028-0.008c0.175 0.055 0.376 0.087 0.584 0.087 0.135 0 0.266-0.013 0.393-0.039l-0.013 0.002c0.212-0.054 0.455-0.085 0.705-0.085 0.504 0 0.978 0.125 1.394 0.347l-0.016-0.008c0.229 0.098 0.496 0.154 0.776 0.154 0.031 0 0.061-0.001 0.091-0.002l-0.004 0c0.965-0.051 1.575 0.051 1.93 0.406 0.193 0.129 0.43 0.206 0.685 0.206 0.027 0 0.054-0.001 0.080-0.003l-0.004 0c0.965 0 1.524 0.203 1.625 0.508 0.161 0.158 0.382 0.255 0.625 0.255 0.012 0 0.025-0 0.037-0.001l-0.002 0c0.711 0.051 1.117 0.254 1.321 0.61 0.080 0.182 0.259 0.306 0.466 0.306 0.015 0 0.029-0.001 0.044-0.002l-0.002 0c0.66 0 1.168 0.406 0.914 0.711-0.102 0.102 0 0.305 0.305 0.305 0.61 0 0.914 0.457 0.457 0.762-0.152 0.102-0.152 0.254 0.102 0.356q0.914 0.381 0 0.762c-0.178 0.051-0.229 0.203-0.102 0.305z"></path>
<path d="M14.908 5.389c0.598-0.215 1.018-0.777 1.018-1.438 0-0.030-0.001-0.061-0.003-0.090l0 0.004c-0.051-0.762-0.813-1.016-1.778-0.66-1.93 0.66-2.438 2.844-2.743 5.029-0.102 0.61-0.152 1.27-0.203 1.829-0.524 3.747-0.824 8.076-0.824 12.475 0 0.507 0.004 1.014 0.012 1.519l-0.001-0.076c0.051 0.813 0.305 1.727-0.356 2.59-1.117 0.102-0.813-0.559-1.829-0.203-1.6 0.554-1.219 2.692-0.076 2.585 0.401-0.009 0.77-0.141 1.072-0.359l-0.006 0.004c1.981-1.016 2.235-3.657 2.59-6.298 0.551-4.098 0.866-8.835 0.866-13.646 0-0.256-0.001-0.512-0.003-0.768l0 0.039v-0.046c0-0.864-0.152-2.286 0.406-2.59s0.965 0.457 1.829 0.102z"></path>
<path d="M22.349 3.322c-1.93 0.66-2.438 2.844-2.743 5.029-0.102 0.61-0.152 1.27-0.203 1.829-0.524 3.747-0.824 8.076-0.824 12.475 0 0.507 0.004 1.014 0.012 1.519l-0.001-0.076c0.051 0.813 0.305 1.727-0.356 2.59-1.117 0.152-0.813-0.559-1.829-0.203-1.575 0.559-1.219 2.692-0.051 2.59 0.401-0.009 0.77-0.141 1.072-0.359l-0.006 0.004c1.981-1.016 2.235-3.657 2.59-6.298 0.551-4.098 0.866-8.835 0.866-13.646 0-0.256-0.001-0.512-0.003-0.768l0 0.039v-0.051c0-0.864-0.152-2.286 0.406-2.59s0.965 0.406 1.829 0.051c0.598-0.215 1.018-0.777 1.018-1.438 0-0.030-0.001-0.061-0.003-0.090l0 0.004c-0.051-0.711-0.813-0.965-1.778-0.61z"></path>
</svg>
