<!-- Generated by IcoMoon.io -->
<svg version="1.1" xmlns="http://www.w3.org/2000/svg" viewBox="0 0 32 32">
<title>nexo</title>
<path fill="#3ca9e5" d="M8.385 2.142l15.843 9.143v9.326l-24.229-13.989 7.765-4.48c0.090-0.049 0.197-0.078 0.31-0.078s0.221 0.029 0.314 0.080l-0.003-0.002z"></path>
<path fill="#2853c3" d="M24.229 1.959l-8.078 4.663 8.078 4.663v-9.326z"></path>
<path fill="#1a4199" d="M24.229 1.959l7.771 4.48c0.185 0.114 0.308 0.313 0.313 0.541l0 0.001v18.286l-8.085-4.656v-18.651z"></path>
<path fill="#2853c3" d="M32.307 25.273l-7.765 4.48c-0.094 0.055-0.206 0.087-0.327 0.087s-0.233-0.032-0.33-0.089l0.003 0.002-15.837-9.143v-9.339z"></path>
<path fill="#60beff" d="M0 6.622v18.286c0 0.001 0 0.002 0 0.004 0 0.235 0.124 0.441 0.311 0.556l7.768 4.482v-18.678z"></path>
<path fill="#3ca9e5" d="M8.078 29.936l8.072-4.663-8.072-4.663v9.326z"></path>
</svg>
