<!-- Generated by IcoMoon.io -->
<svg version="1.1" xmlns="http://www.w3.org/2000/svg" viewBox="0 0 32 32">
<title>nmr</title>
<path fill="#050708" d="M30.045 21.397q0.001-5.399 0-10.798c0.015-0.368-0.17-0.734-0.466-0.951q-6.434-4.701-12.867-9.403c-0.194-0.153-0.441-0.245-0.71-0.245-0.077 0-0.152 0.008-0.225 0.022l0.007-0.001c-0.2 0.039-0.38 0.139-0.54 0.26q-6.388 4.669-12.776 9.337c-0.312 0.219-0.513 0.577-0.513 0.982 0 0.002 0 0.004 0 0.006v-0q-0.004 5.398 0 10.795c-0.006 0.39 0.197 0.768 0.517 0.988q6.388 4.667 12.773 9.335c0.407 0.348 1.046 0.376 1.467 0.036q6.413-4.683 12.821-9.37c0.322-0.217 0.53-0.602 0.512-0.992z"></path>
<path fill="#fff" d="M14.516 2.597c0.113-0.128 0.228-0.328 0.426-0.301 0.675 0.004 1.352-0.011 2.028 0.007 0.117 0.073 0.207 0.182 0.307 0.275q-0.004 1.045 0 2.091c-0.201 0.002-0.403 0.011-0.604-0.002-0.012-0.049-0.036-0.146-0.048-0.195 0-0.52 0.045-1.042 0.002-1.561q-0.744 0.001-1.488 0c-0.002 0.175-0.003 0.351-0.005 0.526-0.209 0-0.419 0-0.628-0.002 0.001-0.279-0.029-0.562 0.011-0.838z"></path>
<path fill="#fff" d="M12.832 3.447c0.228-0.009 0.457-0.009 0.686-0.003 0.003 0.964 0.007 1.928-0.002 2.891-0.218 0.005-0.436 0.005-0.653 0.003-0.072-0.96-0.015-1.928-0.031-2.891z"></path>
<path fill="#fff" d="M18.64 4.483c0.608-0.008 1.215-0.006 1.823-0.002 0.003 0.223 0.003 0.445 0 0.667-0.608 0.006-1.216 0.009-1.824-0.002-0.002-0.221-0.002-0.444 0-0.664z"></path>
<path fill="#fff" d="M14.953 4.812c0.245-0.006 0.491-0.005 0.736-0.005 0.235 0.457 0.529 0.883 0.72 1.361-0.225 0.011-0.451 0.011-0.676 0.011-0.268-0.452-0.526-0.909-0.78-1.368z"></path>
<path fill="#fff" d="M17.458 5.615c0.212-0.005 0.424-0.004 0.637-0.001 0.578 0.896 1.139 1.803 1.721 2.696 0 0.272 0 0.544-0.005 0.816-0.063-0.011-0.187-0.033-0.249-0.044-0.494-0.736-0.948-1.498-1.436-2.237-0.008 0.832 0.002 1.664-0.006 2.496q-0.332 0.006-0.665 0c-0.003-1.242-0.007-2.484 0.002-3.727z"></path>
<path fill="#fff" d="M20.094 6.119c0.226-0.005 0.453-0.005 0.679 0.002 0.002 0.213 0.002 0.427 0 0.64-0.226 0.006-0.453 0.006-0.678 0.002q-0.002-0.321 0-0.643z"></path>
<path fill="#fff" d="M8.925 6.329c0.178-0.003 0.357-0.002 0.535-0.001 0.476-0.032 0.951-0.023 1.427 0.005 0.002 0.207 0 0.414-0.002 0.62-0.704 0.423-1.38 0.892-2.095 1.296-0.211-0.080-0.371-0.248-0.543-0.389 0.467-0.285 0.925-0.585 1.397-0.862-0.239-0.012-0.478-0.011-0.717-0.013q-0.006-0.329-0.002-0.657z"></path>
<path fill="#fff" d="M14.557 6.575c0.219-0.006 0.438-0.006 0.656 0 0.006 0.22 0.006 0.438 0 0.658q-0.328 0.010-0.656 0.001-0.008-0.329 0-0.658z"></path>
<path fill="#fff" d="M11.347 7.217c0.35 0.531 0.69 1.069 1.045 1.597 0.354-0.534 0.696-1.076 1.054-1.608 0 0.352 0.023 0.708-0.007 1.059-0.324 0.556-0.7 1.081-1.049 1.622-0.344-0.532-0.708-1.052-1.034-1.594-0.037-0.357-0.010-0.717-0.009-1.076z"></path>
<path fill="#fff" d="M21.043 7.306q1.577-0.007 3.154 0.001c0 0.213 0 0.427-0.001 0.64q-1.576 0.004-3.153 0.001c-0.001-0.214-0.002-0.428 0-0.642z"></path>
<path fill="#fff" d="M15.478 8.139c0.211-0.004 0.424-0.004 0.636-0.002 0.011 0.933 0 1.866 0.006 2.8-0.098 0.094-0.196 0.189-0.292 0.284-0.729 0.008-1.457 0-2.185 0.004-0.096-0.092-0.194-0.18-0.281-0.279-0.037-0.286-0.010-0.577-0.011-0.864q0.304-0.002 0.61 0c0.006 0.165 0.005 0.329 0.002 0.494 0.501 0.056 1.006 0.016 1.51 0.028 0.003-0.822-0.005-1.644 0.005-2.465z"></path>
<path fill="#fff" d="M25.642 10.896q-0.010-1.056 0-2.113c0.22-0.005 0.44-0.006 0.662 0q0.011 1.056 0 2.114c-0.22 0.004-0.441 0.003-0.661 0z"></path>
<path fill="#fff" d="M22.503 9.315c0.416-0.004 0.834-0.069 1.248-0.002 0.271 0.884 0.504 1.781 0.773 2.666-0.213 0.002-0.427 0.002-0.64 0.002-0.203-0.687-0.377-1.381-0.587-2.066-0.117 0.002-0.234 0.003-0.351 0.004-0.174 0.692-0.384 1.372-0.564 2.061q-0.322 0.001-0.644-0.001c0.264-0.885 0.512-1.776 0.764-2.664z"></path>
<path fill="#fff" d="M4.718 9.652c0.959-0.006 1.918-0.008 2.876 0 0.006 0.22 0.006 0.44 0.001 0.66-0.96 0.009-1.919 0.006-2.878 0.001-0.003-0.22-0.003-0.442 0.001-0.662z"></path>
<path fill="#fff" d="M8.046 9.653c0.218-0.002 0.436-0.002 0.654 0 0.005 0.221 0.005 0.443 0 0.664-0.219 0.002-0.436 0.002-0.654 0-0.003-0.221-0.003-0.441 0-0.662z"></path>
<path fill="#fff" d="M10.455 9.68c0.214-0.002 0.428-0.001 0.642 0.002 0.006 0.512 0.003 1.025 0.003 1.538-0.217 0.002-0.434 0.002-0.65 0-0.002-0.512-0.009-1.027 0.005-1.54z"></path>
<path fill="#fff" d="M27.211 10.14c0.246-0.005 0.493-0.004 0.739-0.005 0.244 0.452 0.54 0.88 0.721 1.363-0.224 0.008-0.449 0.009-0.674 0.010-0.265-0.454-0.518-0.916-0.787-1.368z"></path>
<path fill="#fff" d="M17.509 10.688q0.32-0.002 0.64 0c0.005 0.702 0.001 1.404 0.001 2.106-0.215 0.002-0.428 0.002-0.643 0.002 0-0.703-0.001-1.406 0.001-2.109z"></path>
<path fill="#fff" d="M19.76 11.542q-0.004-0.329 0-0.66c0.215-0.003 0.432-0.003 0.648 0.002 0 0.22 0.002 0.439-0.002 0.658-0.215 0.001-0.432 0-0.647 0z"></path>
<path fill="#fff" d="M7.583 12.515c0.517-0.378 1.069-0.706 1.6-1.063 0.351 0.004 0.701 0 1.052 0.005-0.521 0.373-1.076 0.695-1.6 1.063 0.539 0.339 1.068 0.694 1.603 1.036-0.361 0.006-0.721 0.002-1.082 0.003-0.52-0.353-1.061-0.679-1.573-1.044z"></path>
<path fill="#fff" d="M25.643 11.902c0.221-0.005 0.442-0.006 0.664 0 0.005 0.221 0.005 0.441-0.002 0.662-0.22 0.005-0.441 0.004-0.662 0q-0.007-0.331 0-0.661z"></path>
<path fill="#fff" d="M2.945 11.993c1.104-0.006 2.21-0.009 3.315 0.002 0.002 0.209 0.002 0.419 0.003 0.628-0.494 0.324-0.988 0.649-1.495 0.949-0.215-0.078-0.377-0.256-0.56-0.386 0.273-0.173 0.551-0.34 0.816-0.524-0.693-0.003-1.386 0.004-2.080-0.004q-0.005-0.332 0-0.664z"></path>
<path fill="#fff" d="M12.398 12.633c0.956 0.004 1.912-0.005 2.868 0.004 0.010 0.087 0.015 0.188 0.015 0.29 0 0.128-0.009 0.254-0.026 0.378l0.002-0.014c-0.953 0.004-1.905 0.001-2.857 0.002q-0.003-0.331-0.002-0.659z"></path>
<path fill="#fff" d="M15.89 12.637c0.23-0.005 0.459-0.005 0.689 0.003q0.001 0.322-0.001 0.642c-0.229 0.006-0.459 0.006-0.688 0.002-0.002-0.216-0.002-0.432 0-0.648z"></path>
<path fill="#fff" d="M18.897 13.562c-0.030-0.227 0.203-0.343 0.322-0.499 0.281 0 0.561-0.002 0.842 0.004 0.006 0.211 0.006 0.423 0.003 0.635-0.177 0.003-0.356 0.003-0.533 0.006v1.506c0.825 0.006 1.651-0.003 2.476 0.005 0.002 0.214 0.002 0.428-0.003 0.64-0.929 0.006-1.86 0.001-2.789 0.003-0.119-0.155-0.346-0.272-0.317-0.497q-0.006-0.901 0-1.803z"></path>
<path fill="#fff" d="M22.027 13.362c0.228-0.008 0.457-0.008 0.685 0q0.004 0.327 0 0.654c-0.228 0.008-0.456 0.008-0.684 0-0.002-0.219-0.002-0.436 0-0.655z"></path>
<path fill="#fff" d="M24.201 13.362c0.962-0.013 1.923-0.004 2.884-0.005 0.002 0.222 0.002 0.445-0.001 0.666-0.961 0-1.922 0.008-2.883-0.004q-0.005-0.329 0-0.658z"></path>
<path fill="#fff" d="M10.879 14.129c0.539-0.001 1.077 0 1.616-0.001q0.007 0.336 0 0.672-0.807 0.001-1.614 0-0.014-0.336-0.001-0.671z"></path>
<path fill="#fff" d="M14.433 14.129c0.846-0.001 1.691 0 2.537-0.002 0.307-0.048 0.615 0.271 0.576 0.574q-0.003 0.932-0.001 1.865c-0.108 0.117-0.217 0.232-0.326 0.348-0.28 0-0.559 0-0.839-0.003q-0.004-0.32-0.001-0.639c0.175-0.002 0.35-0.004 0.525-0.006 0-0.489 0-0.979 0.002-1.468-0.821-0.073-1.649-0.012-2.473-0.034q-0.003-0.32 0-0.636z"></path>
<path fill="#fff" d="M8.473 14.326c0.413-0.002 0.825-0.005 1.239 0.002 0.25 0.893 0.519 1.781 0.755 2.679-0.208 0-0.416 0-0.623 0.002-0.212-0.689-0.376-1.391-0.595-2.077-0.118 0.007-0.236 0.016-0.353 0.025-0.156 0.691-0.38 1.364-0.551 2.051-0.214 0-0.428 0-0.64-0.002 0.254-0.893 0.508-1.787 0.768-2.679z"></path>
<path fill="#fff" d="M26.496 15.133c0.72-0.007 1.441-0.015 2.16 0.002 0.182 0.112 0.386 0.294 0.347 0.532 0 0.512-0.003 1.025 0 1.538-0.006 0.246 0.005 0.492-0.002 0.738 0.011 0.201-0.044 0.399-0.032 0.6-0.205 0-0.41 0-0.615-0.002 0.002-0.925 0-1.85 0.002-2.775-0.503-0.014-1.005-0.003-1.508-0.007-0.001 0.172-0.001 0.344-0.004 0.516q-0.317 0.005-0.634 0.003c-0.004-0.283-0.003-0.567-0.002-0.85 0.097-0.098 0.193-0.196 0.289-0.296z"></path>
<path fill="#fff" d="M6.007 15.159h0.669c0.002 0.703 0 1.405 0 2.107h-0.672c0.003-0.702 0.001-1.405 0.002-2.107z"></path>
<path fill="#fff" d="M3.908 15.746c0.22-0.003 0.439 0.003 0.658 0.018q0.004 0.312 0 0.625c-0.221 0.002-0.442 0.003-0.663 0-0.002-0.215-0.002-0.428 0.006-0.642z"></path>
<path fill="#fff" d="M11.767 19.597q-0.009-1.864-0.001-3.728c0.218-0.003 0.436-0.003 0.654 0.002 0.512 0.825 1.040 1.642 1.563 2.462 0.226 0.291 0.090 0.682 0.127 1.021-0.076 0-0.152 0.002-0.227 0.003-0.47-0.747-0.962-1.481-1.412-2.24-0.081 0.825-0.015 1.656-0.041 2.484-0.222 0.002-0.442 0.002-0.663-0.003z"></path>
<path fill="#fff" d="M14.672 16.347q0.333-0.007 0.666-0.002c0.003 0.543 0.002 1.086 0 1.629-0.223 0.004-0.445 0.004-0.667-0.002-0.004-0.542-0.005-1.084 0-1.626z"></path>
<path fill="#fff" d="M18.695 17.073c0.217-0.002 0.435-0.002 0.653 0q0.006 0.332 0 0.663-0.327 0.001-0.653 0-0.004-0.33 0-0.662z"></path>
<path fill="#fff" d="M20.811 17.102c0.676-0.009 1.352-0.004 2.029-0.002 0.027 0.198 0.044 0.399 0.025 0.599-0.064 0.13-0.217 0.078-0.332 0.090-0.576-0.017-1.154 0.033-1.726-0.032-0.004-0.219-0.004-0.437 0.003-0.655z"></path>
<path fill="#fff" d="M23.539 17.196c0.218-0.003 0.438-0.018 0.656 0.016 0.021 0.763 0.009 1.529 0.005 2.293q-0.33 0.006-0.66 0-0.011-1.154 0-2.308z"></path>
<path fill="#fff" d="M17.509 17.648c0.213 0 0.427-0.002 0.64 0 0.002 0.22 0.003 0.44 0 0.661q-0.32 0.005-0.64 0c-0.002-0.22-0.002-0.441 0-0.662z"></path>
<path fill="#fff" d="M7.251 18.117c0.76-0.082 1.527-0.017 2.291-0.041 0.019-0 0.042-0 0.065-0 0.184 0 0.367 0.010 0.546 0.029l-0.022-0.002c0.003 0.222 0.002 0.445 0 0.666-0.96-0.002-1.918 0.005-2.876-0.003-0.006-0.216-0.006-0.432-0.004-0.649z"></path>
<path fill="#fff" d="M2.946 18.608c0.104-0.102 0.209-0.204 0.314-0.306 0.278-0.002 0.555-0.002 0.832 0.003 0.003 0.21 0.003 0.42 0.002 0.63-0.173 0.004-0.344 0.005-0.517 0.006 0.004 0.5-0.002 1 0.004 1.501 0.817 0.002 1.635-0.006 2.452 0.004 0.004 0.207 0.004 0.412 0.002 0.619-0.203 0.001-0.406 0.002-0.608 0.002-0.725-0.007-1.452 0.012-2.176-0.009-0.121-0.069-0.243-0.182-0.298-0.31-0.019-0.713-0.002-1.427-0.006-2.141z"></path>
<path fill="#fff" d="M19.902 19.024c0.109-0.102 0.219-0.205 0.331-0.305 0.707 0.006 1.414 0 2.12 0.002 0.107 0.102 0.213 0.204 0.32 0.305q0.001 1.049 0 2.098c-0.215 0.002-0.431 0-0.645-0.006 0-0.588-0.005-1.176 0.002-1.764-0.496-0.001-0.99 0-1.485-0.001 0.001 0.179 0 0.358-0.004 0.537-0.212 0.003-0.424 0.003-0.636 0.002-0.007-0.29-0.005-0.58-0.004-0.87z"></path>
<path fill="#fff" d="M24.439 20.259c0.784-0.511 1.576-1.008 2.366-1.507 0.189 0.126 0.374 0.258 0.558 0.391q-0.853 0.544-1.706 1.085c0.835 0.009 1.67 0 2.506 0.005 0.002 0.222 0.002 0.445 0 0.666q-1.862 0.006-3.723 0c-0.003-0.214-0.003-0.428-0.002-0.64z"></path>
<path fill="#fff" d="M15.566 20.385c0.787-0.524 1.598-1.009 2.385-1.533 0.187 0.129 0.372 0.261 0.562 0.384-0.544 0.382-1.121 0.716-1.676 1.084 0.83 0.015 1.66-0.002 2.491 0.009 0.006 0.228 0.006 0.457 0 0.686-1.243 0.007-2.485 0.002-3.728 0.002-0.032-0.209-0.032-0.422-0.033-0.633z"></path>
<path fill="#fff" d="M7.4 19.82c0.345 0.528 0.692 1.056 1.033 1.585 0.366-0.523 0.694-1.072 1.057-1.598 0.007 0.356 0.002 0.712 0.005 1.068-0.361 0.529-0.692 1.080-1.063 1.602-0.344-0.524-0.677-1.056-1.035-1.571-0.004-0.362-0.007-0.725 0.004-1.087z"></path>
<path fill="#fff" d="M11.184 21.175c-0.008-0.226-0.009-0.452 0.004-0.677 0.217-0.002 0.436-0.002 0.653 0.016q0.007 0.33 0 0.661c-0.218 0.002-0.437 0.003-0.656 0z"></path>
<path fill="#fff" d="M14.26 21.501c0.22-0.002 0.441-0.003 0.662 0 0.006 0.82 0 1.641 0.003 2.462-0.156 0.006-0.313 0.014-0.47 0.028-0.050-0.010-0.15-0.027-0.2-0.036 0.005-0.817-0.004-1.635 0.005-2.453z"></path>
<path fill="#fff" d="M18.818 22.016c0.416-0.008 0.831-0.002 1.247-0.005q0.382 1.34 0.766 2.68c-0.215 0-0.429 0-0.643-0.005-0.182-0.683-0.38-1.361-0.566-2.043-0.116-0.007-0.232-0.012-0.348-0.018q-0.288 1.033-0.574 2.066c-0.215 0-0.428 0-0.642-0.003 0.261-0.889 0.521-1.778 0.761-2.672z"></path>
<path fill="#fff" d="M9.398 23.496c0.792-0.508 1.581-1.020 2.384-1.511 0.185 0.13 0.371 0.256 0.554 0.389-0.574 0.357-1.138 0.733-1.718 1.081 0.841 0.016 1.682-0.002 2.524 0.010 0.004 0.221 0.005 0.442-0.002 0.663-1.247 0.004-2.493 0.010-3.74-0.002-0.006-0.21-0.005-0.42-0.003-0.629z"></path>
<path fill="#fff" d="M15.936 22.147c0.016 0 0.034 0 0.053 0 0.226 0 0.448-0.015 0.665-0.045l-0.025 0.003c0.272 0.448 0.593 0.892 0.733 1.402-0.217 0.002-0.434 0.002-0.65 0.003q-0.383-0.685-0.776-1.364z"></path>
<path fill="#fff" d="M25.099 22.42c0.227-0.007 0.454-0.007 0.682-0.002q0.001 0.325 0 0.652c-0.227 0.006-0.454 0.006-0.681-0.004-0.004-0.216-0.004-0.43 0-0.646z"></path>
<path fill="#fff" d="M23.428 24.156c0.274-0.441 0.568-0.87 0.844-1.31 0.008 0.327 0.013 0.654 0.005 0.982 0.008 0.123-0.081 0.218-0.139 0.317-0.304 0.449-0.596 0.908-0.894 1.36-0.359-0.536-0.707-1.077-1.062-1.616-0.002-0.358-0.005-0.716 0.004-1.074 0.348 0.522 0.678 1.058 1.034 1.575 0.101-0.043 0.146-0.151 0.208-0.234z"></path>
<path fill="#fff" d="M6.543 23.522c0.582-0.019 1.164-0.010 1.747-0.006 0.003 0.215 0.017 0.432-0.011 0.647-0.578 0.028-1.158 0.015-1.736 0.004-0.002-0.215-0.002-0.43-0.001-0.645z"></path>
<path fill="#fff" d="M13.635 24.928c0.933-0.014 1.865 0 2.797-0.007q0.16 0.16 0.32 0.322c-0.004 0.712-0.002 1.426-0.002 2.14q-0.14 0.146-0.278 0.296c-0.299 0.006-0.597 0.007-0.896-0.002 0.004-0.202-0.022-0.408 0.027-0.605 0.169-0.018 0.338-0.011 0.508-0.013 0.002-0.499 0-0.998 0-1.497-0.826-0.005-1.653 0.011-2.479-0.008q-0.004-0.313 0-0.626z"></path>
<path fill="#fff" d="M9.154 25.165q0.327-0.005 0.654 0.002 0.005 0.327 0.001 0.655-0.329 0.005-0.656 0.001-0.004-0.329 0-0.658z"></path>
<path fill="#fff" d="M20.694 25.518c0.247-0.208 0.471 0.139 0.683 0.24 0 0.019 0 0.059 0 0.078-0.552 0.356-1.117 0.692-1.656 1.067l0.313-0.002q0.249 0 0.5 0.006c0.002 0.218 0.002 0.436-0.002 0.654-0.679 0.010-1.359 0.007-2.038 0.002-0.014-0.206-0.016-0.412-0.018-0.617 0.725-0.496 1.482-0.944 2.217-1.427z"></path>
<path fill="#fff" d="M10.38 26.123c0.882-0.003 1.765-0.008 2.646 0.002q0.002 0.325 0 0.652c-0.883 0.013-1.765 0.007-2.647 0.003-0.004-0.219-0.003-0.439 0-0.658z"></path>
<path fill="#fff" d="M12.73 27.798c0.248-0.002 0.497-0.003 0.746 0.002 0.23 0.457 0.536 0.879 0.712 1.362-0.223 0.012-0.445 0.012-0.667 0.014-0.272-0.454-0.526-0.919-0.791-1.377z"></path>
<path fill="#fff" d="M17.135 28.493c0.217-0.002 0.434 0.002 0.65 0.016 0.004 0.217 0.002 0.435-0.025 0.651q-0.311 0.001-0.62 0c-0.008-0.224-0.008-0.445-0.005-0.667z"></path>
<path fill="#fff" d="M15.622 30.652c0-0.507-0.011-1.014 0.008-1.521 0.219 0 0.438 0.012 0.656 0.032q0.004 0.744 0 1.489-0.332 0.005-0.664 0z"></path>
</svg>
