<!-- Generated by IcoMoon.io -->
<svg version="1.1" xmlns="http://www.w3.org/2000/svg" viewBox="0 0 32 32">
<title>noia</title>
<path d="M29.609 11.388c-1.708-0.911-3.758-0.911-5.352 0l-8.085 4.669 8.085 4.669c1.708 0.911 3.758 0.911 5.352 0 1.708-0.911 2.733-2.733 2.733-4.669s-1.025-3.758-2.733-4.669z"></path>
<path d="M2.733 11.388c-1.708 0.911-2.733 2.733-2.733 4.669s1.025 3.644 2.733 4.669c1.708 0.911 3.758 0.911 5.352 0l8.085-4.669-8.085-4.669c-1.708-0.911-3.758-0.911-5.352 0z"></path>
<path d="M11.502 29.381c0.911 1.708 2.733 2.619 4.669 2.619s3.758-1.025 4.669-2.619c0.911-1.708 0.911-3.644 0-5.352l-4.669-7.972-4.669 7.972c-0.911 1.708-0.911 3.644 0 5.352z"></path>
<path d="M20.84 2.619c-0.911-1.594-2.733-2.619-4.669-2.619s-3.758 1.025-4.669 2.619c-0.911 1.708-0.911 3.644 0 5.352l4.669 7.972 4.669-7.972c0.911-1.594 0.911-3.644 0-5.352z"></path>
</svg>
