<!-- Generated by IcoMoon.io -->
<svg version="1.1" xmlns="http://www.w3.org/2000/svg" viewBox="0 0 32 32">
<title>npxs</title>
<path fill="#181818" d="M32 16c0 8.837-7.163 16-16 16s-16-7.163-16-16c0-8.837 7.163-16 16-16s16 7.163 16 16z"></path>
<path fill="#f6d30c" d="M16.73 14.080l6.362-6.374 1.293 1.306-6.362 6.362zM7.603 23.194l6.374-6.374 1.293 1.306-6.362 6.362zM16.73 18.125l1.293-1.306 6.374 6.374-1.306 1.293zM7.603 9.011l1.306-1.306 6.362 6.362-1.293 1.306zM14.694 16.090l1.306-1.306 1.306 1.306-1.306 1.306z"></path>
</svg>
