<!-- Generated by IcoMoon.io -->
<svg version="1.1" xmlns="http://www.w3.org/2000/svg" viewBox="0 0 32 32">
<title>nu</title>
<path fill="#1e65f3" d="M24.473 5.676l-2.669 1.266c-0.011 0.006-0.028 0.017-0.033 0.028-0.011 0.011-0.017 0.022-0.022 0.039s-0.006 0.028-0.006 0.044c0 0.017 0.006 0.028 0.011 0.044l4.057 8.55c1.509 3.183 1.105 5.593-1.188 6.687-1.857 0.879-3.454 0.265-4.703-1.879l-4.808-10.131c-1.945-4.106-4.598-5.195-7.749-3.697-2.045 0.973-3.233 2.708-3.211 4.913 0 0.028-0.006 0.050-0.022 0.072s-0.039 0.033-0.066 0.039c-0.028 0.006-0.050 0.006-0.077-0.006-0.022-0.011-0.044-0.028-0.055-0.055l-1.050-2.211c-0.006-0.011-0.017-0.028-0.028-0.033-0.011-0.011-0.022-0.017-0.039-0.022-0.011-0.011-0.022-0.011-0.039-0.011s-0.028 0.006-0.044 0.011l-2.664 1.266c-0.028 0.011-0.050 0.033-0.055 0.066-0.011 0.028-0.011 0.061 0.006 0.088l7.367 15.536c0.011 0.028 0.039 0.050 0.066 0.061s0.061 0.011 0.088-0.006l2.669-1.266c0.011-0.006 0.028-0.017 0.033-0.028 0.011-0.011 0.017-0.022 0.022-0.039s0.006-0.028 0.006-0.044c0-0.017-0.006-0.028-0.011-0.044l-3.946-8.312c-1.608-3.393-1.304-5.847 1.155-7.013 1.89-0.895 3.36-0.293 4.681 2.006 0 0 0.006 0.006 0.006 0.011l4.759 10.026c1.835 3.869 4.687 5.195 7.693 3.769 2.327-1.105 3.294-2.763 3.233-4.952 0-0.028 0.006-0.050 0.022-0.072s0.039-0.033 0.066-0.039c0.028-0.006 0.050-0.006 0.077 0.006 0.022 0.011 0.044 0.028 0.055 0.055l1.061 2.233c0.006 0.011 0.017 0.028 0.028 0.033 0.011 0.011 0.022 0.017 0.039 0.022s0.028 0.006 0.044 0.006c0.017 0 0.028-0.006 0.044-0.011l2.669-1.266c0.011-0.006 0.028-0.017 0.033-0.028 0.011-0.011 0.017-0.022 0.022-0.039s0.006-0.028 0.006-0.044-0.006-0.028-0.011-0.044l-7.373-15.53c-0.011-0.028-0.039-0.050-0.066-0.061s-0.061-0.006-0.083 0.006z"></path>
</svg>
