<!-- Generated by IcoMoon.io -->
<svg version="1.1" xmlns="http://www.w3.org/2000/svg" viewBox="0 0 32 32">
<title>ocean</title>
<path d="M4.258 15.392c0 0 0 0.001 0 0.001 0 0.939-0.761 1.7-1.7 1.7s-1.7-0.761-1.7-1.7c0-0.939 0.761-1.7 1.7-1.7v0c0.939 0 1.7 0.761 1.7 1.699v0zM31.274 15.392c0 0 0 0.001 0 0.001 0 0.939-0.761 1.7-1.7 1.7s-1.7-0.761-1.7-1.7c0-0.939 0.761-1.7 1.7-1.7 0 0 0.001 0 0.001 0h-0c0.937 0.002 1.696 0.762 1.696 1.699v0zM17.766 22.1c0 0 0 0.001 0 0.001 0 0.939-0.761 1.7-1.7 1.7s-1.7-0.761-1.7-1.7c0-0.939 0.761-1.7 1.7-1.7 0 0 0.001 0 0.001 0h-0c0.938 0 1.699 0.761 1.7 1.699v0zM10.966 18.788c0 0.939-0.761 1.7-1.7 1.7s-1.7-0.761-1.7-1.7c0-0.939 0.761-1.7 1.7-1.7v0c0.939 0 1.7 0.761 1.7 1.7v0zM24.474 18.788c0 0.001 0 0.003 0 0.004 0 0.939-0.761 1.7-1.7 1.7s-1.7-0.761-1.7-1.7c0-0.939 0.761-1.7 1.7-1.7 0.001 0 0.002 0 0.004 0h-0c0.936 0.002 1.695 0.76 1.697 1.696v0zM3.706 20.538c-0.001 0.634-0.515 1.148-1.149 1.148s-1.149-0.514-1.149-1.149 0.514-1.149 1.149-1.149c0 0 0.001 0 0.001 0h-0c0.634 0 1.148 0.515 1.148 1.149 0 0 0 0.001 0 0.001v-0zM30.723 20.538c-0 0.634-0.515 1.148-1.149 1.148s-1.149-0.514-1.149-1.149 0.514-1.149 1.149-1.149c0 0 0.001 0 0.001 0h-0c0.634 0 1.148 0.515 1.149 1.149v0zM17.215 27.337c0 0 0 0.001 0 0.001 0 0.634-0.514 1.149-1.149 1.149s-1.149-0.514-1.149-1.149c0-0.634 0.514-1.149 1.149-1.149 0 0 0.001 0 0.001 0h-0c0.634 0.001 1.147 0.514 1.148 1.148v0zM10.415 23.936c0 0.634-0.514 1.149-1.149 1.149s-1.149-0.514-1.149-1.149c0-0.634 0.514-1.149 1.149-1.149 0 0 0.001 0 0.001 0h-0c0.634 0 1.148 0.514 1.148 1.148 0 0 0 0.001 0 0.001v-0zM23.924 23.936c0 0.001 0 0.002 0 0.003 0 0.634-0.514 1.149-1.149 1.149s-1.149-0.514-1.149-1.149c0-0.634 0.514-1.149 1.149-1.149 0.001 0 0.002 0 0.003 0h-0c0.632 0.002 1.144 0.514 1.145 1.146v0zM3.155 24.581c0 0.332-0.269 0.601-0.601 0.601s-0.601-0.269-0.601-0.601c0-0.332 0.269-0.601 0.601-0.601v0c0.332 0 0.601 0.269 0.601 0.601v0zM30.172 24.581c0 0.332-0.269 0.601-0.601 0.601s-0.601-0.269-0.601-0.601c0-0.332 0.269-0.601 0.601-0.601v0c0.332 0 0.601 0.269 0.601 0.601v0zM16.663 31.381c0 0.332-0.269 0.601-0.601 0.601s-0.601-0.269-0.601-0.601c0-0.332 0.269-0.601 0.601-0.601v0c0.332 0 0.601 0.269 0.601 0.601v0zM9.863 27.982c0 0.332-0.269 0.601-0.601 0.601s-0.601-0.269-0.601-0.601c0-0.332 0.269-0.601 0.601-0.601v0c0.332 0 0.601 0.269 0.601 0.601v0zM23.372 27.982c0 0.332-0.269 0.601-0.601 0.601s-0.601-0.269-0.601-0.601c0-0.332 0.269-0.601 0.601-0.601v0c0.332 0 0.601 0.269 0.601 0.601v0zM18.316 2.297c0 1.269-1.029 2.297-2.297 2.297s-2.297-1.029-2.297-2.297c0-1.269 1.029-2.297 2.297-2.297 0.001 0 0.001 0 0.002 0h-0c1.268 0.001 2.296 1.029 2.296 2.297v0zM18.316 9.094c0 1.269-1.029 2.297-2.297 2.297s-2.297-1.029-2.297-2.297c0-1.269 1.029-2.297 2.297-2.297 0 0 0.001 0 0.001 0h-0c1.268 0 2.297 1.029 2.297 2.297v0zM18.316 15.803c0 1.269-1.029 2.297-2.297 2.297s-2.297-1.029-2.297-2.297c0-1.269 1.029-2.297 2.297-2.297 0 0 0.001 0 0.001 0h-0c1.268 0.001 2.297 1.029 2.297 2.297 0 0.001 0 0.002 0 0.004v-0zM31.826 9.094c0 1.269-1.029 2.297-2.297 2.297s-2.297-1.029-2.297-2.297c0-1.269 1.029-2.297 2.297-2.297v0c1.269 0 2.297 1.029 2.297 2.297v0zM4.809 9.094c0 0.001 0 0.002 0 0.003 0 1.269-1.029 2.297-2.297 2.297s-2.297-1.029-2.297-2.297c0-1.269 1.029-2.297 2.297-2.297v0c0 0 0 0 0 0 1.268 0 2.296 1.027 2.297 2.294v0zM11.609 5.694c0 0.001 0 0.002 0 0.003 0 1.269-1.029 2.297-2.297 2.297s-2.297-1.029-2.297-2.297c0-1.268 1.027-2.296 2.294-2.297h0c1.269 0 2.297 1.029 2.297 2.297v0zM11.606 12.405c0 1.269-1.029 2.297-2.297 2.297s-2.297-1.029-2.297-2.297c0-1.269 1.029-2.297 2.297-2.297v0c1.269 0 2.297 1.029 2.297 2.297v0zM25.118 5.697c0 1.269-1.029 2.297-2.297 2.297s-2.297-1.029-2.297-2.297c0-1.269 1.029-2.297 2.297-2.297v0c1.269 0 2.297 1.029 2.297 2.297v0zM25.118 12.405c0 1.269-1.029 2.297-2.297 2.297s-2.297-1.029-2.297-2.297c0-1.269 1.029-2.297 2.297-2.297v0c1.269 0 2.297 1.029 2.297 2.297v0z"></path>
</svg>
