<!-- Generated by IcoMoon.io -->
<svg version="1.1" xmlns="http://www.w3.org/2000/svg" viewBox="0 0 32 32">
<title>ode</title>
<path fill="#1eb3de" d="M30.667 19.202l-5.545 5.541v-0.453c0-0.004 0-0.008 0-0.012 0-0.239-0.098-0.455-0.256-0.61l-0-0-0.658-0.64 5.135-5.135c0.483-0.484 0.781-1.152 0.781-1.89s-0.298-1.406-0.781-1.89l-11.47-11.473c-0.484-0.483-1.152-0.782-1.89-0.782s-1.406 0.299-1.89 0.782l-11.462 11.468c-0.483 0.484-0.781 1.152-0.781 1.89s0.298 1.406 0.781 1.89l11.472 11.472c0.484 0.483 1.151 0.782 1.889 0.782s1.405-0.299 1.889-0.782l4.276-4.276 0.221 0.16-0.026 2.346-3.114 3.072c-0.825 0.82-1.963 1.327-3.219 1.327s-2.393-0.507-3.219-1.327l0 0-11.475-11.46c-0.817-0.82-1.323-1.951-1.323-3.2s0.505-2.38 1.323-3.2l11.465-11.475c0.819-0.818 1.951-1.325 3.2-1.325s2.381 0.506 3.2 1.325l11.475 11.475c0.817 0.82 1.322 1.951 1.322 3.2s-0.505 2.38-1.322 3.2l0-0z"></path>
<path fill="#1eb3de" d="M24.878 23.668l-0.658-0.64-6.138-6.020c0.145-0.295 0.23-0.642 0.23-1.008 0-1.283-1.040-2.323-2.323-2.323s-2.323 1.040-2.323 2.323c0 1.283 1.040 2.323 2.323 2.323 0.302 0 0.59-0.058 0.854-0.162l-0.016 0.006 3.301 3.239 3.264 2.997c0.082 0.075 0.133 0.182 0.133 0.301 0 0.007-0 0.013-0 0.020l0-0.001-0.003 1.666v3.453l-0.048 0.699c-0.001 0.018-0.002 0.038-0.002 0.059 0 0.457 0.352 0.832 0.799 0.869l0.003 0h0.014c0.475-0.030 0.849-0.421 0.853-0.901v-6.259c0-0.003 0-0.006 0-0.010 0-0.247-0.101-0.471-0.264-0.632l-0-0z"></path>
<path fill="#1eb3de" d="M15.931 17.282c-0.678-0.036-1.215-0.595-1.215-1.278 0-0.707 0.573-1.28 1.28-1.28s1.279 0.572 1.28 1.278v0c0 0.001 0 0.002 0 0.003 0 0.068-0.005 0.135-0.015 0.201l0.001-0.007c-0.099 0.616-0.625 1.081-1.261 1.083h-0z"></path>
</svg>
