<!-- Generated by IcoMoon.io -->
<svg version="1.1" xmlns="http://www.w3.org/2000/svg" viewBox="0 0 32 32">
<title>ogn</title>
<path fill="#1a82ff" d="M16 0c8.837 0 16 7.163 16 16s-7.163 16-16 16-16-7.163-16-16 7.163-16 16-16z"></path>
<path fill="#fff" d="M21.85 22.588q-2.078 2.545-5.844 2.545t-5.845-2.545q-2.079-2.547-2.078-6.584t2.077-6.583q2.078-2.547 5.845-2.546t5.844 2.546 2.078 6.583-2.077 6.584z"></path>
<path fill="#1a82ff" d="M15.976 21.585q0.992 0 1.686-0.54t1.006-1.466 0.439-1.775 0.127-1.8q0-1.171-0.142-2.096l-5.695 5.935q0.79 1.742 2.579 1.743z"></path>
<path fill="#1a82ff" d="M16.033 10.424q-0.992 0-1.686 0.54t-1.006 1.466q-0.313 0.926-0.439 1.775-0.128 0.849-0.127 1.8 0 0.627 0.040 1.183l5.432-5.659q-0.791-1.104-2.214-1.104z"></path>
<path fill="#1a82ff" d="M8.525 21.662l-0.699-0.671 5.304-5.529 0.699 0.671-5.304 5.529zM18.518 15.893l-0.699-0.671 5.304-5.529 0.699 0.671-5.304 5.529z"></path>
</svg>
