<!-- Generated by IcoMoon.io -->
<svg version="1.1" xmlns="http://www.w3.org/2000/svg" viewBox="0 0 32 32">
<title>okb</title>
<path fill="#88bdf3" d="M23.245 7.245c0 4.001-3.244 7.245-7.245 7.245s-7.245-3.244-7.245-7.245c0-4.001 3.244-7.245 7.245-7.245s7.245 3.244 7.245 7.245z"></path>
<path fill="#3075ee" d="M23.245 24.755c0 4.001-3.244 7.245-7.245 7.245s-7.245-3.244-7.245-7.245c0-4.001 3.244-7.245 7.245-7.245s7.245 3.244 7.245 7.245z"></path>
<path fill="#5795f1" d="M32 16c0 4.001-3.244 7.245-7.245 7.245s-7.245-3.244-7.245-7.245c0-4.001 3.244-7.245 7.245-7.245s7.245 3.244 7.245 7.245z"></path>
<path fill="#205fec" d="M14.491 16c0 4.001-3.244 7.245-7.245 7.245s-7.245-3.244-7.245-7.245c0-4.001 3.244-7.245 7.245-7.245s7.245 3.244 7.245 7.245z"></path>
<path fill="#134bef" d="M14.294 14.294c-2.636-0.657-4.672-2.692-5.318-5.278l-0.011-0.050c2.631 0.666 4.662 2.698 5.317 5.278l0.011 0.050z"></path>
<path fill="#0932e8" d="M8.951 23.049c0.657-2.636 2.692-4.672 5.278-5.318l0.050-0.011c-0.666 2.631-2.698 4.662-5.278 5.317l-0.050 0.011z"></path>
<path fill="#164bea" d="M17.706 17.706c2.636 0.657 4.672 2.692 5.318 5.278l0.011 0.050c-2.631-0.666-4.662-2.698-5.317-5.278l-0.011-0.050z"></path>
<path fill="#3170f1" d="M23.049 8.951c-0.657 2.636-2.692 4.672-5.278 5.318l-0.050 0.011c0.666-2.631 2.698-4.662 5.278-5.317l0.050-0.011z"></path>
</svg>
