<!-- Generated by IcoMoon.io -->
<svg version="1.1" xmlns="http://www.w3.org/2000/svg" viewBox="0 0 32 32">
<title>om</title>
<path fill="#fff" d="M32 16c0 8.837-7.163 16-16 16s-16-7.163-16-16c0-8.837 7.163-16 16-16s16 7.163 16 16z"></path>
<path fill="none" stroke="#eb1a6b" stroke-linejoin="miter" stroke-linecap="butt" stroke-miterlimit="4" stroke-width="0.5278" d="M31.739 16c0 8.693-7.047 15.739-15.739 15.739s-15.739-7.047-15.739-15.739c0-8.693 7.047-15.739 15.739-15.739s15.739 7.047 15.739 15.739z"></path>
<path fill="#000" d="M19.935 18.947c0.419 0.3 0.632 0.482 0.869 0.632 1.438 0.956 3.002 1.051 4.022 0.087 1.082-1.051 1.169-2.37 0.664-3.721-0.537-1.533-1.801-2.457-3.326-2.22-0.687 0.119-1.501 0.632-1.888 1.201-0.956 1.383-1.288 3.153-2.876 4.077-0.213 0.119-0.15 0.806-0.15 1.233 0.032 3.002-2.157 5.31-5.31 5.61-2.489 0.237-6.21-1.77-6.179-4.559 1.319 0.601 2.576 1.438 3.99 1.738 1.169 0.269 2.576 0.15 3.753-0.237 1.533-0.514 2.252-1.983 2.070-3.303-0.182-1.138-0.632-1.438-2.939-1.833-0.15-0.664-0.3-1.383-0.45-2.189 0.237-0.032 0.419-0.087 0.601-0.087 1.051-0.087 2.189-0.119 2.276-1.588 0.087-1.169-1.019-2.552-2.307-2.426-1.256 0.119-2.426 0.782-3.872 1.288-0.269-0.419-0.719-1.106-1.138-1.801 1.833-2.157 4.828-2.576 7.016-0.988 2.007 1.438 2.189 3.753 0.419 6.447 0.514 0.482 1.019 0.956 1.738 1.651 0.237-0.719 0.363-1.233 0.537-1.707 0.237-0.687 0.419-1.438 0.806-2.070 0.956-1.651 2.283-2.789 4.346-2.552 2.007 0.237 3.034 1.43 3.8 3.295 0.838 2.181 0.498 3.824 0 5.073s-2.331 2.521-3.65 2.307c-1.738-0.269-2.726-1.375-2.821-3.358z"></path>
<path fill="#000" d="M14.151 7.459c2.758 1.92 5.191 1.651 7.648-0.032 0.45 0.719 0.838 1.32 1.233 1.92-2.916 2.283-7.656 1.114-8.881-1.888z"></path>
<path fill="#f01871" d="M16.34 6.353c0.537-0.664 0.956-1.138 1.47-1.738 0.601 0.632 0.988 1.051 1.47 1.588-0.45 0.514-0.869 0.956-1.406 1.533-0.514-0.45-0.964-0.877-1.533-1.383z"></path>
</svg>
