<!-- Generated by IcoMoon.io -->
<svg version="1.1" xmlns="http://www.w3.org/2000/svg" viewBox="0 0 32 32">
<title>omg</title>
<path d="M14.032 0.085c-6.911 0.938-12.474 6.141-13.745 12.859-0.796 4.239 0.077 8.491 2.505 12.127 0.848 1.259 2.967 3.391 4.188 4.201 1.863 1.22 3.764 2.017 5.961 2.492 1.516 0.321 4.65 0.321 6.166 0 3.134-0.668 5.665-1.978 7.9-4.085 2.364-2.248 3.931-4.971 4.625-8.042 1.208-5.318-0.27-10.727-4.008-14.696-2.197-2.312-5.383-4.072-8.543-4.676-1.323-0.257-3.854-0.347-5.049-0.18zM17.629 1.357c3.815 0.437 7.425 2.389 9.776 5.293 1.516 1.888 2.389 3.635 2.967 6.012 0.283 1.13 0.334 1.644 0.347 3.212 0 2.235-0.231 3.61-0.963 5.46-3.867 9.93-16.649 12.615-24.138 5.074-4.226-4.239-5.473-10.405-3.224-15.968 1.143-2.865 3.533-5.627 6.179-7.13 2.89-1.657 5.896-2.299 9.057-1.953z"></path>
<path d="M5.656 12.225c-1.67 0.604-2.736 2.672-2.351 4.599 0.193 0.963 0.411 1.413 1.015 2.043 0.796 0.861 1.31 1.053 2.711 1.053 1.118 0 1.285-0.039 1.901-0.373 1.143-0.642 1.773-1.657 1.914-3.096 0.18-1.978-0.963-3.828-2.646-4.303-0.655-0.18-1.914-0.141-2.544 0.077zM8.47 13.83c0.758 0.552 1.143 1.824 0.874 2.942-0.514 2.158-3.353 2.582-4.329 0.642-0.591-1.156-0.283-2.967 0.617-3.597 0.745-0.54 2.068-0.527 2.839 0.013z"></path>
<path d="M23.037 12.276c-2.415 0.963-3.096 4.522-1.272 6.68 0.989 1.182 3.327 1.4 4.368 0.398l0.283-0.27 0.039 0.36c0.039 0.321 0.077 0.347 0.681 0.347h0.642l0.039-2.030 0.039-2.017h-3.61v1.285h1.092c1.182 0 1.22 0.026 0.886 0.719-0.231 0.475-1.053 0.951-1.67 0.951-1.477 0-2.364-1.041-2.364-2.723 0.013-1.863 1.208-2.929 2.839-2.544 0.629 0.154 1.272 0.707 1.272 1.105 0 0.128 0.193 0.18 0.771 0.18h0.758l-0.18-0.578c-0.398-1.349-1.387-2.030-3.019-2.081-0.719-0.026-1.118 0.026-1.593 0.218z"></path>
<path d="M11.912 16.001v3.854h1.285l0.026-2.595 0.039-2.608 1.901 5.216 1.285-0.077 1.876-5.139 0.077 5.139 1.349 0.077-0.026-3.828-0.039-3.828h-1.786l-1.028 2.852c-0.565 1.58-1.066 2.826-1.105 2.762-0.051-0.051-0.514-1.272-1.028-2.723s-1.002-2.711-1.066-2.8c-0.077-0.090-0.437-0.154-0.938-0.154h-0.822v3.854z"></path>
</svg>
