<!-- Generated by IcoMoon.io -->
<svg version="1.1" xmlns="http://www.w3.org/2000/svg" viewBox="0 0 32 32">
<title>omni</title>
<path fill="#1c347a" d="M32.010 16.004c-0.009 8.834-7.17 15.992-16.004 15.996h-0c-8.846 0-16.062-7.197-16.005-16.1 0.058-8.847 7.274-15.91 16.025-15.9 8.674 0.010 15.966 7.026 15.985 16.004zM27.759 16.004c-0.009-6.48-5.249-11.732-11.722-11.763h-0.003c-6.453-0.018-11.779 5.234-11.779 11.745-0.010 6.532 5.299 11.705 11.629 11.772 0.025 0 0.055 0 0.085 0 6.499 0 11.77-5.258 11.791-11.753v-0.002z"></path>
<path fill="#1c347a" d="M25.362 1.319c1.773-0.018 3.547-0.018 5.32-0.018v5.338c-1.408-2.137-3.182-3.912-5.251-5.277l-0.068-0.042zM30.682 25.362v5.37h-5.32c2.142-1.419 3.918-3.211 5.277-5.3l0.043-0.070zM6.649 1.325c-2.151 1.395-3.936 3.165-5.306 5.234l-0.042 0.067v-5.291c0.113-0.037 4.975-0.049 5.348-0.010zM6.625 30.701h-5.291c-0.037-0.124-0.047-5.12-0.010-5.339 1.398 2.146 3.167 3.927 5.233 5.297l0.067 0.042z"></path>
</svg>
