<!-- Generated by IcoMoon.io -->
<svg version="1.1" xmlns="http://www.w3.org/2000/svg" viewBox="0 0 32 32">
<title>one</title>
<path d="M25.165 0c-0.002 0-0.003 0-0.005 0-3.815 0-6.908 3.087-6.918 6.9v7.652c-0.713 0.048-1.442 0.078-2.198 0.078s-1.481 0.030-2.198 0.073v-7.803c-0.063-3.776-3.138-6.813-6.923-6.813s-6.86 3.037-6.923 6.807l-0 0.006v18.286c0.063 3.776 3.138 6.813 6.923 6.813s6.86-3.037 6.923-6.807l0-0.006v-7.651c0.713-0.048 1.442-0.078 2.198-0.078s1.481-0.030 2.198-0.073v7.803c0.063 3.776 3.138 6.813 6.923 6.813s6.86-3.037 6.923-6.807l0-0.006v-18.286c-0.010-3.813-3.104-6.901-6.918-6.901-0.001 0-0.003 0-0.004 0h0zM6.922 2.827c0.001 0 0.001 0 0.002 0 2.252 0 4.078 1.822 4.084 4.073v8.103c-2.197 0.325-4.178 0.906-6.032 1.722l0.149-0.059c-0.871 0.387-1.621 0.842-2.305 1.379l0.023-0.017v-11.127c0.006-2.249 1.829-4.070 4.078-4.073h0zM11.008 25.187c0 2.257-1.829 4.086-4.086 4.086s-4.086-1.829-4.086-4.086v0-1.834c0-1.62 1.284-3.155 3.435-4.111 1.367-0.608 2.958-1.090 4.618-1.369l0.118-0.016v7.33zM25.165 29.26c-0.001 0-0.001 0-0.002 0-2.252 0-4.078-1.822-4.084-4.073v-8.103c2.197-0.325 4.178-0.906 6.032-1.722l-0.149 0.059c0.871-0.387 1.621-0.842 2.305-1.379l-0.023 0.017v11.127c-0.006 2.249-1.829 4.070-4.078 4.073h-0zM25.816 12.835c-1.367 0.608-2.958 1.090-4.618 1.369l-0.118 0.016v-7.319c0-2.257 1.829-4.086 4.086-4.086s4.086 1.829 4.086 4.086v0 1.834c0 1.613-1.284 3.148-3.435 4.1z"></path>
</svg>
