<!-- Generated by IcoMoon.io -->
<svg version="1.1" xmlns="http://www.w3.org/2000/svg" viewBox="0 0 32 32">
<title>orbs</title>
<path fill="#404a72" d="M9.176 20.414c-0.015 0.187-0.17 0.332-0.359 0.332-0.117 0-0.222-0.056-0.287-0.143l-0.001-0.001-5.176-4.821c-0.108-0.070-0.178-0.19-0.178-0.326 0-0.186 0.13-0.341 0.305-0.379l0.003-0 7.247-2.889c0.336-0.134 0.539 0.042 0.449 0.395z"></path>
<path fill="#556195" d="M4.894 24.995c-0.275 0.235-0.553 0.139-0.616-0.219l-1.412-7.835c-0.066-0.358 0.099-0.447 0.365-0.2l4.918 4.588c0.12 0.107 0.195 0.262 0.195 0.434 0 0.18-0.082 0.341-0.21 0.447l-0.001 0.001z"></path>
<path fill="#556195" d="M10.824 10.626c0.085 0.081 0.137 0.194 0.137 0.32 0 0.201-0.134 0.371-0.318 0.425l-0.003 0.001-7.202 2.882c-0.339 0.134-0.511-0.033-0.384-0.374l2.96-7.955c0.030-0.17 0.176-0.297 0.352-0.297 0.131 0 0.245 0.070 0.308 0.175l0.001 0.002z"></path>
<path fill="#556195" d="M3.275 23.664c0.066 0.358-0.045 0.4-0.235 0.096l-2.805-4.318c-0.087-0.147-0.138-0.324-0.138-0.512 0-0.214 0.066-0.412 0.178-0.576l-0.002 0.003 1.247-1.673c0.219-0.292 0.449-0.235 0.513 0.12z"></path>
<path fill="#556195" d="M2.395 13.391c-0.127 0.341-0.325 0.339-0.44 0l-0.953-2.873c-0.025-0.088-0.040-0.189-0.040-0.293 0-0.303 0.122-0.578 0.32-0.778l-0 0 3.405-3.085c0.268-0.235 0.386-0.165 0.259 0.176z"></path>
<path fill="#556195" d="M1.496 14.496c0.031 0.111 0.049 0.239 0.049 0.37 0 0.291-0.088 0.561-0.238 0.785l0.003-0.005-0.976 1.315c-0.219 0.292-0.365 0.235-0.329-0.127l0.466-4.548c0.035-0.362 0.162-0.376 0.275-0.031z"></path>
<path fill="#556195" d="M5.339 4.254c0.122 0.139 0 0.454-0.271 0.706l-1.539 1.381c-0.271 0.235-0.313 0.205-0.096-0.087l1.273-1.725c0.235-0.292 0.513-0.412 0.633-0.275z"></path>
<path fill="#556195" d="M15.002 28.461c-0.060 0.142-0.198 0.24-0.359 0.24-0.151 0-0.282-0.086-0.346-0.212l-0.001-0.002-4-5.826c-0.064-0.065-0.104-0.154-0.104-0.253 0-0.199 0.161-0.36 0.36-0.36 0.009 0 0.018 0 0.027 0.001l-0.001-0 8.045-0.831c0.36-0.038 0.506 0.188 0.322 0.504z"></path>
<path fill="#556195" d="M13.325 28.466c0.207 0.301 0.094 0.449-0.252 0.334l-7.529-2.565c-0.344-0.118-0.4-0.407-0.125-0.645l3.221-2.781c0.103-0.093 0.239-0.15 0.389-0.15 0.202 0 0.381 0.103 0.485 0.26l0.001 0.002z"></path>
<path fill="#6ecce0" d="M18.786 19.866c0.235 0.275 0.134 0.529-0.235 0.567l-8.165 0.842c-0.027 0.006-0.057 0.009-0.088 0.009-0.238 0-0.431-0.193-0.431-0.431 0-0.054 0.010-0.106 0.028-0.153l-0.001 0.003 2.042-7.948c0.092-0.351 0.36-0.414 0.595-0.139z"></path>
<path fill="#556195" d="M24.652 26.675c0.083 0.066 0.135 0.167 0.135 0.28 0 0.195-0.157 0.354-0.351 0.358h-0l-8.306 1.746c-0.355 0.075-0.496-0.12-0.313-0.435l3.918-6.699c0.073-0.153 0.226-0.257 0.403-0.257 0.149 0 0.28 0.073 0.361 0.185l0.001 0.001z"></path>
<path fill="#556195" d="M11.294 31.146c-0.129 0.062-0.28 0.099-0.439 0.099-0.242 0-0.465-0.084-0.641-0.225l0.002 0.002-3.864-3.405c-0.271-0.235-0.212-0.341 0.132-0.235l6.588 2.242c0.346 0.118 0.365 0.355 0.045 0.527z"></path>
<path fill="#556195" d="M20.249 31.471c-0.18 0.133-0.406 0.213-0.651 0.213-0.162 0-0.316-0.035-0.455-0.098l0.007 0.003-2.68-1.367c-0.325-0.167-0.299-0.362 0.056-0.438l7.155-1.506c0.355-0.075 0.416 0.052 0.136 0.282z"></path>
<path fill="#556195" d="M12.755 31.647c-0.365-0.016-0.398-0.172-0.078-0.344l1.44-0.781c0.177-0.086 0.384-0.136 0.604-0.136 0.207 0 0.404 0.045 0.582 0.125l-0.009-0.004 2.104 1.071c0.325 0.165 0.292 0.285-0.071 0.268z"></path>
<path fill="#556195" d="M25.988 28.228c0.12 0.139-0.042 0.395-0.362 0.567l-1.896 1.012c-0.322 0.172-0.355 0.122-0.073-0.108l1.6-1.308c0.282-0.231 0.612-0.304 0.732-0.162z"></path>
<path fill="#404a72" d="M21.195 19.781c-0.339 0.134-0.541-0.042-0.449-0.395l2.012-7.831c0.015-0.187 0.171-0.333 0.361-0.333 0.117 0 0.221 0.056 0.288 0.142l0.001 0.001 5.176 4.824c0.11 0.069 0.182 0.19 0.182 0.327 0 0.187-0.132 0.342-0.308 0.378l-0.002 0z"></path>
<path fill="#556195" d="M29.064 15.026c0.064 0.358-0.099 0.449-0.365 0.2l-4.92-4.588c-0.119-0.107-0.194-0.261-0.194-0.433 0-0.181 0.082-0.342 0.211-0.448l0.001-0.001 3.231-2.784c0.275-0.235 0.555-0.139 0.619 0.219z"></path>
<path fill="#556195" d="M25.911 26.045c-0.032 0.168-0.178 0.294-0.354 0.294-0.131 0-0.246-0.070-0.309-0.175l-0.001-0.002-4.151-4.821c-0.089-0.081-0.144-0.197-0.144-0.326 0-0.203 0.136-0.373 0.322-0.426l0.003-0.001 7.209-2.882c0.336-0.134 0.511 0.033 0.384 0.374z"></path>
<path fill="#556195" d="M31.685 12.525c0.087 0.147 0.138 0.325 0.138 0.514 0 0.213-0.065 0.41-0.176 0.574l0.002-0.004-1.249 1.673c-0.216 0.292-0.447 0.235-0.513-0.12l-1.24-6.859c-0.064-0.358 0.045-0.4 0.235-0.096z"></path>
<path fill="#556195" d="M30.922 21.449c0.025 0.088 0.040 0.189 0.040 0.293 0 0.303-0.122 0.578-0.32 0.778l0-0-3.405 3.085c-0.271 0.235-0.386 0.165-0.259-0.174l2.551-6.854c0.125-0.341 0.322-0.339 0.438 0z"></path>
<path fill="#556195" d="M31.449 19.68c-0.038 0.362-0.162 0.374-0.278 0.031l-0.746-2.24c-0.032-0.112-0.050-0.241-0.050-0.374 0-0.291 0.088-0.562 0.239-0.787l-0.003 0.005 0.979-1.311c0.216-0.292 0.365-0.235 0.327 0.127z"></path>
<path fill="#556195" d="M27.2 27.438c-0.219 0.294-0.494 0.416-0.616 0.275s0-0.454 0.271-0.706l1.532-1.388c0.268-0.235 0.313-0.205 0.096 0.087z"></path>
<path fill="#404a72" d="M21.633 9.306c0.064 0.065 0.104 0.154 0.104 0.253 0 0.199-0.161 0.36-0.36 0.36-0.009 0-0.018-0-0.027-0.001l0.001 0-8.045 0.831c-0.362 0.038-0.508-0.188-0.325-0.501l3.941-6.741c0.060-0.142 0.198-0.24 0.359-0.24 0.151 0 0.282 0.086 0.346 0.212l0.001 0.002z"></path>
<path fill="#556195" d="M23.294 9.158c-0.103 0.093-0.239 0.15-0.389 0.15-0.202 0-0.381-0.103-0.485-0.26l-0.001-0.002-3.831-5.544c-0.205-0.301-0.092-0.449 0.252-0.332l7.529 2.56c0.344 0.118 0.4 0.407 0.125 0.645z"></path>
<path fill="#556195" d="M19.976 19.212c-0.089 0.353-0.358 0.414-0.595 0.139l-6.242-7.247c-0.235-0.275-0.136-0.532 0.235-0.569l8.162-0.842c0.027-0.006 0.059-0.010 0.091-0.010 0.238 0 0.431 0.193 0.431 0.431 0 0.054-0.010 0.106-0.028 0.154l0.001-0.003z"></path>
<path fill="#556195" d="M12.188 10.042c-0.071 0.154-0.225 0.259-0.403 0.259-0.149 0-0.281-0.074-0.361-0.187l-0.001-0.001-4.151-4.819c-0.083-0.066-0.135-0.167-0.135-0.28 0-0.195 0.155-0.353 0.349-0.358h0l8.306-1.748c0.358-0.075 0.499 0.12 0.315 0.435z"></path>
<path fill="#556195" d="M18.838 2.334c-0.344-0.118-0.362-0.353-0.042-0.527l1.84-0.984c0.128-0.062 0.279-0.099 0.439-0.099 0.242 0 0.465 0.084 0.641 0.225l-0.002-0.002 3.854 3.405c0.273 0.235 0.214 0.341-0.129 0.235z"></path>
<path fill="#556195" d="M8.252 3.689c-0.355 0.075-0.416-0.042-0.134-0.278l3.555-2.915c0.181-0.133 0.407-0.213 0.653-0.213 0.162 0 0.317 0.035 0.456 0.098l-0.007-0.003 2.692 1.369c0.325 0.165 0.299 0.36-0.056 0.435z"></path>
<path fill="#556195" d="M17.807 1.445c-0.177 0.086-0.384 0.136-0.604 0.136-0.207 0-0.404-0.045-0.582-0.125l0.009 0.004-2.118-1.071c-0.306-0.165-0.275-0.285 0.089-0.271l4.567 0.212c0.36 0.024 0.398 0.172 0.078 0.344z"></path>
<path fill="#556195" d="M6.668 3.576c-0.282 0.235-0.612 0.304-0.732 0.165s0.042-0.398 0.362-0.567l1.896-1.014c0.32-0.172 0.353-0.122 0.073 0.108z"></path>
<path fill="#556195" d="M4.235 26.607c0.139-0.122 0.454 0 0.706 0.268l1.388 1.532c0.235 0.271 0.205 0.313-0.087 0.096l-1.727-1.282c-0.301-0.216-0.424-0.494-0.28-0.614z"></path>
<path fill="#556195" d="M28.205 5.958c0.141-0.122 0.398 0.042 0.567 0.362l1.014 1.896c0.169 0.322 0.122 0.353-0.108 0.073l-1.308-1.6c-0.231-0.282-0.304-0.612-0.165-0.732z"></path>
<path fill="#556195" d="M27.416 4.746c0.292 0.216 0.416 0.494 0.275 0.614s-0.454 0-0.706-0.268l-1.388-1.532c-0.235-0.271-0.205-0.313 0.087-0.096z"></path>
<path fill="#556195" d="M3.555 25.278c0.235 0.282 0.304 0.612 0.162 0.732s-0.395-0.042-0.567-0.362l-1.012-1.896c-0.172-0.322-0.122-0.353 0.108-0.073z"></path>
</svg>
