<!-- Generated by IcoMoon.io -->
<svg version="1.1" xmlns="http://www.w3.org/2000/svg" viewBox="0 0 32 32">
<title>oxt</title>
<path fill="#5f45ba" d="M8.555 4.622c-0.51 0.859-1.621 1.142-2.48 0.632s-1.142-1.621-0.632-2.48 1.621-1.142 2.48-0.632c0 0 0 0 0 0 0.859 0.51 1.142 1.621 0.632 2.48z"></path>
<path fill="#5f45ba" d="M2.378 3.819c-0.36 0.606-1.146 0.806-1.752 0.446s-0.806-1.144-0.446-1.752 1.146-0.806 1.752-0.446c0 0 0 0 0 0 0.608 0.362 0.808 1.146 0.446 1.752z"></path>
<path fill="#5f45ba" d="M19.574 30.011c6.63-0.779 11.963-6.2 12.398-13.099 0.49-7.763-5.408-14.453-13.171-14.941-0.91-0.058-1.824-0.026-2.728 0.093-1.866 0.152-3.442 0.864-3.442 0.864-1.277 0.624-2.101 1.667-2.101 3.062 0 1.814 1.47 3.286 3.285 3.286 0.304 0 1.354-0.333 1.603-0.419 0.954-0.333 1.965-0.47 2.973-0.405 2.682 0.17 4.949 1.712 6.163 3.899 0.704 1.267 1.029 2.709 0.936 4.155-0.264 4.184-3.869 7.363-8.054 7.099-2.472-0.157-4.592-1.48-5.861-3.398 0 0 0 0.002 0 0.002s0-0.002 0-0.002c-1.517-1.984-1.166-5.157-1.168-5.197-0.062-1.765-1.507-3.176-3.286-3.176-1.52 0-2.795 1.032-3.174 2.432-0.074 0.275-0.112 1.082-0.101 1.189-0.314 7.629 5.525 14.146 13.182 14.627 0.85 0.053 1.701 0.029 2.546-0.072z"></path>
<path fill="#5f45ba" d="M6.67 9.646c-0.662 1.115-2.102 1.482-3.216 0.819s-1.482-2.102-0.819-3.216 2.102-1.482 3.216-0.819c0 0 0 0 0 0 1.114 0.662 1.48 2.102 0.819 3.216z"></path>
</svg>
