<!-- Generated by IcoMoon.io -->
<svg version="1.1" xmlns="http://www.w3.org/2000/svg" viewBox="0 0 32 32">
<title>pasc</title>
<path fill="#f7931e" d="M32 16c0 8.837-7.163 16-16 16s-16-7.163-16-16c0-8.837 7.163-16 16-16v0c8.837 0 16 7.163 16 16v0zM22.516 7.75l0.234-1.125c0.010-0.032 0.015-0.069 0.015-0.108 0-0.217-0.176-0.393-0.392-0.393-0.006 0-0.011 0-0.017 0l0.001-0h-0.75c-0.295 0.013-0.538 0.22-0.605 0.496l-0.001 0.004-0.239 1.125h-1.75l0.239-1.125c0.010-0.032 0.015-0.069 0.015-0.108 0-0.217-0.176-0.393-0.392-0.393-0.006 0-0.011 0-0.017 0l0.001-0h-0.75c-0.295 0.013-0.538 0.22-0.605 0.496l-0.001 0.004-0.239 1.125h-9.761l-2.5 3h16.5c0.828 0 1.5 0.672 1.5 1.5v0 1.5c0 0.828-0.672 1.5-1.5 1.5v0h-7.703l0.637-3h-4l-2.922 13.75h4l1.648-7.75h1.875l-0.239 1.125c-0.010 0.032-0.015 0.069-0.015 0.108 0 0.217 0.176 0.392 0.393 0.392 0.006 0 0.011-0 0.017-0l-0.001 0h0.75c0.295-0.013 0.538-0.22 0.605-0.496l0.001-0.004 0.239-1.125h1.75l-0.239 1.125c-0.010 0.032-0.015 0.069-0.015 0.108 0 0.217 0.176 0.392 0.392 0.392 0.006 0 0.011-0 0.017-0l-0.001 0h0.75c0.295-0.013 0.538-0.22 0.605-0.496l0.001-0.004 0.239-1.125h3.715c1.657 0 3-1.343 3-3v0-4.5c0-1.657-1.343-3-3-3v0h-1.484z"></path>
</svg>
