<!-- Generated by IcoMoon.io -->
<svg version="1.1" xmlns="http://www.w3.org/2000/svg" viewBox="0 0 32 32">
<title>paxg</title>
<path fill="#efe812" d="M8.889 4.818c0.609-0.693 1.169-1.28 1.702-1.778-9.004-0.289-6.382 6.222-9.333 12.831-3.378 7.618 0.4 10.52 6.027 11.427-0.754-0.894-1.393-1.92-1.872-3.032l-0.030-0.080c-3.631-4.591-2.16-12.96 3.507-19.369z"></path>
<path fill="#ede70a" d="M30.556 12.933c-1.136 2.928-2.672 5.449-4.574 7.646l0.027-0.032c-1.556 1.882-3.381 3.472-5.43 4.733l-0.095 0.054c-2.261 1.453-5.022 2.317-7.984 2.317-0.059 0-0.118-0-0.176-0.001l0.009 0c-0.086 0.001-0.187 0.001-0.288 0.001-1.674 0-3.317-0.128-4.922-0.375l0.179 0.023c0.917 1.090 2.036 1.976 3.305 2.609l0.060 0.027c8.142 3.938 8.653-3.373 17.267-7.084 4.836-2.084 4.853-6.156 2.618-9.916z"></path>
<path fill="#ede70a" d="M20.484 5.333c1.262 0.225 2.39 0.64 3.413 1.219l-0.053-0.028c2.764 1.574 5.025 3.737 6.666 6.332l0.045 0.077c1.467-4.133 0.782-7.378-2.422-7.964-3.529-0.644-6.284-0.853-8.933-2.702-3.262-2.267-6.124-1.529-8.604 0.778l0.538 0.022c3.44 0.204 6.729 0.889 9.333 2.258z"></path>
<path fill="#dec21c" d="M8.889 4.818c-5.667 6.409-7.138 14.778-3.489 19.369-0.698-1.604-1.104-3.473-1.104-5.436 0-2.582 0.702-5 1.926-7.074l-0.035 0.065c3.071-5.12 9.236-7.342 14.298-6.409-2.622-1.387-5.911-2.053-9.333-2.258l-0.538-0.027c-0.551 0.507-1.111 1.076-1.724 1.769z"></path>
<path fill="#e5cb22" d="M23.844 6.516c-0.97-0.548-2.098-0.96-3.295-1.173l-0.065-0.010c3.449 1.813 5.738 4.889 5.738 9.751-0.043 4.304-2.302 8.070-5.688 10.219l-0.050 0.030c2.144-1.313 3.969-2.904 5.495-4.75l0.029-0.037c1.875-2.164 3.411-4.686 4.486-7.438l0.060-0.175c-1.686-2.675-3.946-4.842-6.619-6.369l-0.092-0.048z"></path>
<path fill="#cca727" d="M20.484 5.333c-5.062-0.933-11.227 1.289-14.298 6.387-1.193 2.010-1.897 4.431-1.897 7.017 0 1.969 0.409 3.842 1.146 5.54l-0.035-0.090c0.507 1.191 1.146 2.218 1.917 3.129l-0.015-0.018c1.425 0.224 3.069 0.352 4.743 0.352 0.101 0 0.203-0 0.304-0.001l-0.015 0c0.050 0.001 0.109 0.001 0.168 0.001 2.962 0 5.722-0.863 8.043-2.352l-0.059 0.036c3.437-2.178 5.695-5.945 5.738-10.243l0-0.006c0-4.862-2.289-7.938-5.738-9.751zM19.916 23.022c-1.286 0.837-2.859 1.335-4.549 1.335-2.944 0-5.536-1.512-7.040-3.801l-0.020-0.032c-2.516-3.88-1.271-8.889 2.502-11.556 4.222-3 9.636-1.818 11.609 2.498 1.924 4.204 1.396 9.062-2.502 11.556z"></path>
</svg>
