<!-- Generated by IcoMoon.io -->
<svg version="1.1" xmlns="http://www.w3.org/2000/svg" viewBox="0 0 32 32">
<title>pbtc</title>
<path fill="#f66" d="M4.688 4.688c-6.256 6.256-6.256 16.384 0 22.624l22.624-22.624c-6.24-6.256-16.384-6.256-22.624 0z"></path>
<path fill="#da5f5a" d="M27.312 27.312c-6.24-6.256-16.384-6.256-22.624 0l22.624-22.624c6.256 6.24 6.256 16.384 0 22.624z"></path>
<path fill="#fff4c7" d="M26.224 16c0 5.664-4.577 10.256-10.224 10.256s-10.224-4.592-10.224-10.256c0-5.664 4.577-10.256 10.224-10.256s10.224 4.592 10.224 10.256z"></path>
<path fill="#fff4c7" d="M27.312 27.312c-6.24 6.256-16.384 6.256-22.624 0 6.24-6.24 16.384-6.24 22.624 0z"></path>
<path fill="#f7931a" d="M24.736 16c0 4.825-3.911 8.736-8.736 8.736s-8.736-3.911-8.736-8.736c0-4.825 3.911-8.736 8.736-8.736s8.736 3.911 8.736 8.736z"></path>
<path fill="#fff" d="M18.272 14.896c-0.272 1.088-1.936 0.528-2.48 0.4l0.48-1.92c0.528 0.144 2.272 0.384 2 1.52zM17.968 17.984c-0.304 1.184-2.304 0.544-2.96 0.384l0.528-2.112c0.656 0.176 2.752 0.496 2.432 1.728zM20.16 14.912c0.176-1.168-0.72-1.792-1.92-2.208l0.4-1.568-0.96-0.24-0.384 1.536c-0.256-0.064-0.512-0.128-0.768-0.176l0.384-1.552-0.96-0.24-0.4 1.568c-0.208-0.048-0.416-0.096-0.608-0.144l-1.328-0.336-0.256 1.024c0 0 0.72 0.16 0.704 0.176 0.384 0.096 0.464 0.352 0.448 0.56l-0.448 1.792c0.032 0 0.064 0.016 0.096 0.032-0.032 0-0.064-0.016-0.096-0.032l-0.624 2.512c-0.048 0.112-0.176 0.288-0.432 0.224 0.016 0.016-0.704-0.176-0.704-0.176l-0.48 1.104 1.248 0.304c0.24 0.064 0.464 0.112 0.688 0.176l-0.4 1.6 0.96 0.24 0.4-1.584c0.256 0.064 0.512 0.144 0.768 0.192l-0.4 1.568 0.96 0.24 0.4-1.584c1.632 0.304 2.864 0.192 3.392-1.296 0.416-1.184-0.016-1.872-0.88-2.32 0.608-0.128 1.072-0.544 1.2-1.392v0z"></path>
</svg>
