<!-- Generated by IcoMoon.io -->
<svg version="1.1" xmlns="http://www.w3.org/2000/svg" viewBox="0 0 32 32">
<title>pcx</title>
<path d="M16 14.624c-0.32 0.096-0.64 0.288-0.896 0.512-0.224 0.224-0.384 0.544-0.48 0.864 0.096 0.32 0.288 0.64 0.512 0.896 0.256 0.224 0.544 0.416 0.864 0.512 0.32-0.096 0.64-0.288 0.896-0.512 0.224-0.224 0.416-0.544 0.512-0.864-0.096-0.32-0.288-0.64-0.512-0.896-0.256-0.256-0.544-0.416-0.896-0.512z"></path>
<path d="M16 0c-8.832 0-16 7.168-16 16s7.168 16 16 16 16-7.168 16-16-7.168-16-16-16zM23.68 20.512c-0.064 0.832-0.416 1.568-0.992 2.144-1.248 1.248-3.2 1.376-4.32 0.224l-0.544-0.512 1.024-1.024 0.512 0.512c0.256 0.224 0.576 0.384 0.928 0.352 1.024-0.032 1.856-0.832 1.952-1.856 0.032-0.384-0.096-0.768-0.352-1.056l-2.336-2.336-1.12 1.12c-0.064 0.064-0.128 0.096-0.192 0.16s-0.096 0.096-0.16 0.16l-1.12 1.12 1.376 1.376-1.024 1.024-1.312-1.376-2.336 2.336c-0.576 0.576-1.344 0.864-2.176 0.768-0.832-0.064-1.568-0.416-2.144-0.992-1.248-1.248-1.376-3.2-0.224-4.32l0.512-0.512 1.024 1.024-0.512 0.512c-0.224 0.256-0.384 0.576-0.352 0.928 0.032 1.024 0.832 1.856 1.856 1.952 0.384 0.032 0.768-0.096 1.056-0.352l2.336-2.336-1.12-1.12c-0.064-0.064-0.096-0.128-0.16-0.192s-0.096-0.096-0.16-0.16l-1.12-1.12-1.376 1.376-1.024-1.024 1.376-1.376-2.336-2.336c-0.576-0.576-0.864-1.344-0.768-2.176 0.064-0.832 0.416-1.568 0.992-2.144 1.248-1.248 3.2-1.376 4.32-0.224l0.512 0.512-1.024 1.024-0.512-0.512c-0.256-0.224-0.576-0.384-0.928-0.352-1.024 0.032-1.856 0.832-1.952 1.856-0.032 0.384 0.096 0.768 0.352 1.056l2.336 2.336 1.12-1.12c0.064-0.064 0.128-0.096 0.192-0.16s0.096-0.096 0.16-0.16l1.12-1.12-1.376-1.376 1.024-1.024 1.376 1.376 2.336-2.336c0.576-0.576 1.344-0.864 2.176-0.768 0.832 0.064 1.568 0.416 2.144 0.992 1.248 1.248 1.376 3.2 0.224 4.32l-0.512 0.544-1.024-1.024 0.512-0.512c0.224-0.256 0.384-0.576 0.352-0.928-0.032-1.024-0.832-1.856-1.856-1.952-0.384-0.032-0.768 0.096-1.056 0.352l-2.336 2.336 1.12 1.12c0.064 0.064 0.096 0.128 0.16 0.192s0.096 0.096 0.16 0.16l1.12 1.12 1.376-1.376 1.024 1.024-1.44 1.344 2.336 2.336c0.576 0.576 0.864 1.376 0.8 2.176z"></path>
</svg>
