<!-- Generated by IcoMoon.io -->
<svg version="1.1" xmlns="http://www.w3.org/2000/svg" viewBox="0 0 32 32">
<title>pearl</title>
<path fill="#000" d="M16 13.188c-1.55 0-2.813 1.262-2.813 2.813 0 0.519 0.419 0.938 0.938 0.938s0.938-0.419 0.938-0.938c0-0.519 0.419-0.938 0.938-0.938s0.938-0.419 0.938-0.938-0.419-0.938-0.938-0.938z"></path>
<path fill="#000" d="M29.738 17.663c1.394-1.044 2.262-2.688 2.262-4.475 0-2.412-1.575-4.537-3.844-5.313-0.313-3.362-3.125-6-6.531-6-0.319 0-0.644 0.025-0.981 0.087-1.238-1.256-2.9-1.962-4.644-1.962s-3.406 0.706-4.644 1.962c-0.344-0.056-0.669-0.087-0.981-0.087-3.438 0-6.281 2.681-6.594 6-2.231 0.775-3.781 2.9-3.781 5.313 0 1.8 0.863 3.45 2.237 4.487-1.488 0.863-2.237 1.875-2.237 3.012 0 0.025 0 0.050 0 0.081 0.063 6.2 7.213 11.231 16 11.231s15.938-5.031 16-11.238c0-0.025 0-0.050 0-0.081 0-1.137-0.762-2.156-2.262-3.019zM30.125 13.188c0 1.569-1.025 2.981-2.519 3.525-1.419-0.5-3.137-0.906-5.056-1.188-0.050-0.694-0.212-1.356-0.462-1.975l5.275-3.956c1.619 0.456 2.762 1.925 2.762 3.594zM20.656 3.862c0.35-0.075 0.669-0.112 0.969-0.112 2.438 0 4.438 1.888 4.663 4.3l-5.156 3.869c-0.675-0.844-1.55-1.519-2.556-1.95l2.081-6.106zM20.688 16c0 2.587-2.1 4.688-4.688 4.688s-4.688-2.1-4.688-4.688 2.1-4.688 4.688-4.688 4.688 2.1 4.688 4.688zM16 1.875c1.094 0 2.144 0.394 2.981 1.1l-2.225 6.506c-0.25-0.031-0.5-0.044-0.756-0.044s-0.506 0.012-0.756 0.044l-2.225-6.506c0.838-0.706 1.887-1.1 2.981-1.1zM10.375 3.75c0.3 0 0.613 0.038 0.969 0.112l2.081 6.1c-1.006 0.431-1.887 1.106-2.563 1.956l-5.213-3.875c0.237-2.369 2.306-4.294 4.725-4.294zM1.875 13.188c0-1.675 1.119-3.144 2.706-3.6l5.331 3.963c-0.25 0.619-0.406 1.281-0.456 1.975-1.938 0.287-3.662 0.694-5.088 1.2-1.481-0.531-2.494-1.95-2.494-3.537zM16 30.125c-6.031 0-11.194-2.594-13.213-6.125 3.55 1.775 9.188 2.313 13.213 2.313s9.663-0.544 13.212-2.313c-2.069 3.619-7.306 6.125-13.213 6.125zM16 24.438c-8.762 0-14.125-2.3-14.125-3.75 0-0.406 0.556-1.094 2.106-1.8 1.4-0.631 3.362-1.15 5.606-1.494 0.069 0.325 0.162 0.637 0.281 0.944-1.244 0.806-2.031 1.681-2.069 1.725-0.344 0.387-0.313 0.975 0.075 1.325s0.981 0.313 1.325-0.075c0.006-0.006 0.619-0.681 1.588-1.331 1.2 1.569 3.088 2.581 5.212 2.581s4.012-1.012 5.212-2.581c0.962 0.65 1.581 1.325 1.587 1.331 0.344 0.387 0.938 0.419 1.325 0.075s0.419-0.938 0.075-1.325c-0.038-0.044-0.825-0.913-2.069-1.725 0.119-0.306 0.212-0.619 0.281-0.944 5.25 0.8 7.712 2.363 7.712 3.288 0 1.438-5.288 3.756-14.125 3.756z"></path>
<path fill="#8a67ac" d="M30.125 13.188c0 1.569-1.025 2.981-2.519 3.525-1.419-0.5-3.137-0.906-5.056-1.188-0.050-0.694-0.212-1.356-0.462-1.975l5.275-3.956c1.619 0.456 2.762 1.925 2.762 3.594z"></path>
<path fill="#8a67ac" d="M20.656 3.862c0.35-0.075 0.669-0.112 0.969-0.112 2.438 0 4.438 1.888 4.663 4.3l-5.156 3.869c-0.675-0.844-1.55-1.519-2.556-1.95l2.081-6.106z"></path>
<path fill="#000" d="M20.688 16c0 2.589-2.099 4.688-4.688 4.688s-4.688-2.099-4.688-4.688c0-2.589 2.099-4.688 4.688-4.688s4.688 2.099 4.688 4.688z"></path>
<path fill="#8a67ac" d="M16 1.875c1.094 0 2.144 0.394 2.981 1.1l-2.225 6.506c-0.25-0.031-0.5-0.044-0.756-0.044s-0.506 0.012-0.756 0.044l-2.225-6.506c0.838-0.706 1.887-1.1 2.981-1.1z"></path>
<path fill="#8a67ac" d="M10.375 3.75c0.3 0 0.613 0.038 0.969 0.112l2.081 6.1c-1.006 0.431-1.887 1.106-2.563 1.956l-5.213-3.875c0.237-2.369 2.306-4.294 4.725-4.294z"></path>
<path fill="#8a67ac" d="M1.875 13.188c0-1.675 1.119-3.144 2.706-3.6l5.331 3.963c-0.25 0.619-0.406 1.281-0.456 1.975-1.938 0.287-3.662 0.694-5.088 1.2-1.481-0.531-2.494-1.95-2.494-3.537z"></path>
<path fill="#8c69af" d="M16 30.125c-6.031 0-11.194-2.594-13.213-6.125 3.55 1.775 9.188 2.313 13.213 2.313s9.663-0.544 13.212-2.313c-2.069 3.619-7.306 6.125-13.213 6.125z"></path>
<path fill="#b49ac9" d="M16 24.438c-8.762 0-14.125-2.3-14.125-3.75 0-0.406 0.556-1.094 2.106-1.8 1.4-0.631 3.362-1.15 5.606-1.494 0.069 0.325 0.162 0.637 0.281 0.944-1.244 0.806-2.031 1.681-2.069 1.725-0.344 0.387-0.313 0.975 0.075 1.325s0.981 0.313 1.325-0.075c0.006-0.006 0.619-0.681 1.588-1.331 1.2 1.569 3.088 2.581 5.212 2.581s4.012-1.012 5.212-2.581c0.962 0.65 1.581 1.325 1.587 1.331 0.344 0.387 0.938 0.419 1.325 0.075s0.419-0.938 0.075-1.325c-0.038-0.044-0.825-0.913-2.069-1.725 0.119-0.306 0.212-0.619 0.281-0.944 5.25 0.8 7.712 2.363 7.712 3.288 0 1.438-5.288 3.756-14.125 3.756z"></path>
<path fill="#e5e5e5" d="M20.681 16.006c0 2.589-2.099 4.688-4.688 4.688s-4.688-2.099-4.688-4.688c0-2.589 2.099-4.688 4.688-4.688s4.688 2.099 4.688 4.688z"></path>
<path fill="#000" d="M17.094 14.819c0 1.26-1.021 2.281-2.281 2.281s-2.281-1.021-2.281-2.281c0-1.26 1.021-2.281 2.281-2.281s2.281 1.021 2.281 2.281z"></path>
</svg>
