<!-- Generated by IcoMoon.io -->
<svg version="1.1" xmlns="http://www.w3.org/2000/svg" viewBox="0 0 32 32">
<title>perl</title>
<path fill="#000" d="M15.177 0.778v0.688c0.257-0.105 0.479-0.234 0.68-0.389l-0.007 0.005c-0.229 0-0.459-0.304-0.688-0.304z"></path>
<path fill="#b4e1ff" d="M15.99 0.828c-0.244 0-0.499-0.040-0.733-0.045h-0.075c-8.055 0.447-14.418 7.088-14.418 15.215 0 5.167 2.572 9.734 6.506 12.489l0.049 0.033c-0.948-0.861-1.541-2.098-1.541-3.474 0-0.006 0-0.011 0-0.017v0.001c0.017-2.598 2.119-4.7 4.715-4.717h0.002l0.942-0.030v-0.204c0-0.001 0-0.002 0-0.003 0-2.065 1.337-3.818 3.193-4.44l0.033-0.010c0.431-0.149 0.929-0.234 1.446-0.234 0.005 0 0.011 0 0.016 0h-0.001c0.001 0 0.003 0 0.005 0 1.891 0 3.521 1.12 4.261 2.733l0.012 0.029c2.512-1.74 4.136-4.607 4.136-7.853 0-4.916-3.725-8.962-8.507-9.47l-0.042-0.004z"></path>
<path fill="#90d595" d="M16.489 0.778c8.237 0.997 10.785 7.045 10.79 12.505 0 5.584-4.692 9.658-8.795 10.735-1.28 0.333-2.858 0.627-4.467 0.82l-0.18 0.018-0.623 0.075c-0.167 0.023-0.316 0.056-0.459 0.1l0.020-0.005c-0.9 0.27-1.611 0.918-1.962 1.755l-0.008 0.020c-0.145 0.341-0.229 0.738-0.229 1.154 0 0.003 0 0.006 0 0.008v-0c0 0.001 0 0.002 0 0.002 0 1.331 0.848 2.464 2.033 2.888l0.021 0.007c0.214 0.050 0.434 0.090 0.658 0.135 0.813 0.151 1.75 0.238 2.706 0.239h0.001c8.391-0.029 15.182-6.837 15.182-15.232 0-8.22-6.51-14.918-14.656-15.221l-0.028-0.001z"></path>
<path fill="#fff" d="M16.489 0.778c-0.165 0-0.324 0-0.499 0v0c-0.244 0-0.499 0-0.733 0 0.249 0 0.499 0.025 0.733 0.050 4.833 0.498 8.57 4.548 8.57 9.471 0 3.255-1.634 6.128-4.126 7.844l-0.032 0.021c-0.746-1.66-2.384-2.795-4.288-2.795-2.588 0-4.687 2.098-4.687 4.687 0 0.012 0 0.023 0 0.035v-0.002 0.199l-0.947 0.035c-2.598 0.006-4.702 2.113-4.702 4.712 0 1.379 0.593 2.62 1.537 3.482l0.004 0.003c0.299 0.209 0.603 0.399 0.917 0.588 1.265 0.767 2.732 1.369 4.293 1.726l0.1 0.019c-1.206-0.429-2.054-1.561-2.054-2.891 0-0 0-0.001 0-0.001v0c0-0.004-0-0.008-0-0.012 0-0.417 0.084-0.814 0.237-1.175l-0.007 0.020c0.361-0.855 1.072-1.502 1.948-1.769l0.022-0.006c0.119-0.034 0.268-0.065 0.419-0.087l0.020-0.002 0.623-0.070c1.796-0.216 3.374-0.512 4.915-0.9l-0.268 0.057c4.103-1.082 8.8-5.151 8.795-10.735 0-5.485-2.553-11.528-10.79-12.505z"></path>
<path fill="#000" d="M20.941 18.712v0l-0.548-0.548z"></path>
<path fill="#41474e" d="M15.995 0c-0.259 0-0.499 0-0.773 0h-0.030c-8.481 0.44-15.192 7.424-15.192 15.975 0 5.417 2.693 10.206 6.814 13.099l0.051 0.034c0.28 0.251 0.592 0.479 0.925 0.673l0.027 0.015c0.079 0.042 0.172 0.072 0.27 0.084l0.004 0c1.251 0.729 2.701 1.311 4.236 1.669l0.107 0.021c0.221 0.080 0.479 0.141 0.746 0.173l0.017 0.002c0.841 0.157 1.811 0.247 2.8 0.249h0.002c0.083 0.002 0.181 0.002 0.28 0.002 8.837 0 16-7.163 16-16s-7.163-16-16-16c-0.1 0-0.2 0.001-0.3 0.003l0.015-0zM10.012 29.163c-0.875-0.398-1.623-0.829-2.324-1.322l0.045 0.030c-0.74-0.719-1.2-1.725-1.2-2.837 0-2.184 1.77-3.954 3.954-3.954 0.005 0 0.009 0 0.014 0h-0.001c0.309 0 0.663 0 0.957-0.030 0.407-0.019 0.731-0.353 0.733-0.763v-0.2c0-0.001 0-0.002 0-0.003 0-2.17 1.759-3.929 3.929-3.929 1.587 0 2.955 0.942 3.575 2.297l0.010 0.025c0.121 0.266 0.385 0.448 0.692 0.448 0.111 0 0.216-0.024 0.31-0.066l-0.005 0.002c0.042-0.024 0.078-0.049 0.111-0.076l-0.002 0.001c2.724-1.87 4.488-4.968 4.488-8.478 0-1.744-0.436-3.387-1.204-4.825l0.027 0.055c2.034 2.638 2.373 5.893 2.373 7.733 0 5.086-4.238 8.945-8.227 9.972-1.441 0.365-3.204 0.679-5.003 0.876l-0.182 0.016c-1.87 0.275-3.29 1.865-3.296 3.789v0.001c0.008 0.433 0.085 0.844 0.218 1.23l-0.008-0.028zM1.536 16c0-0.003 0-0.008 0-0.012 0-7.782 6.148-14.129 13.852-14.447l0.029-0.001c4.667 0.205 8.373 4.039 8.373 8.737 0 2.694-1.218 5.104-3.134 6.708l-0.014 0.011c-0.994-1.45-2.642-2.389-4.509-2.389-2.82 0-5.14 2.142-5.421 4.889l-0.002 0.023h-0.239c-3.029 0-5.485 2.456-5.485 5.485v0c0 0.135 0 0.264 0.030 0.399-2.169-2.506-3.49-5.797-3.49-9.397 0-0.002 0-0.005 0-0.007v0zM15.995 30.459c-1.13-0.004-2.227-0.136-3.279-0.383l0.098 0.019c-0.875-0.338-1.484-1.173-1.484-2.149 0-1.149 0.843-2.101 1.945-2.271l0.013-0.002c2.060-0.225 3.893-0.555 5.68-0.998l-0.291 0.061c4.537-1.192 9.364-5.619 9.359-11.468 0.003-0.106 0.004-0.231 0.004-0.356 0-2.724-0.762-5.269-2.084-7.435l0.036 0.063c2.767 2.639 4.487 6.354 4.487 10.471 0 7.986-6.474 14.459-14.459 14.459v0z"></path>
</svg>
