<!-- Generated by IcoMoon.io -->
<svg version="1.1" xmlns="http://www.w3.org/2000/svg" viewBox="0 0 32 32">
<title>pivx</title>
<path fill="#5e4778" d="M15.987 0l-13.059 2.73v18.1c0 2.65 2.715 5.154 5.655 7.102 2.304 1.511 4.715 2.836 7.205 3.988l0.212 0.080 0.212-0.080c0.53-0.199 12.86-5.446 12.86-11.091v-18.1zM28.012 20.83c0 3.949-8.489 8.123-12.026 9.514l-0.172-0.066-0.066-0.027-0.119-0.053-0.066-0.027-0.119-0.053-0.040-0.013-0.146-0.066-0.040-0.013-0.159-0.066-0.027-0.013-0.172-0.066h-0.013l-0.199-0.080h-0.013c-1.761-0.782-4.053-1.935-6.066-3.286l-0.238-0.159-0.238-0.172-0.225-0.159-0.013-0.013-0.212-0.159-0.013-0.013-0.212-0.158-0.013-0.013-0.212-0.159-0.027-0.013-0.199-0.146-0.027-0.013-0.185-0.146-0.027-0.027-0.172-0.146-0.027-0.027-0.159-0.146-0.040-0.027-0.371-0.371-0.146-0.132-0.172-0.172-0.040-0.053-0.119-0.132-0.040-0.053-0.119-0.132-0.040-0.053-0.106-0.132-0.053-0.053-0.093-0.119-0.053-0.066-0.093-0.119-0.053-0.066-0.080-0.119-0.040-0.066-0.080-0.119-0.040-0.080c-0.027-0.040-0.040-0.080-0.066-0.106l-0.053-0.080c-0.022-0.030-0.040-0.066-0.052-0.103l-0.001-0.003-0.040-0.080c-0.013-0.040-0.040-0.066-0.053-0.106-0.012-0.031-0.025-0.057-0.041-0.082l0.001 0.002c-0.013-0.028-0.027-0.063-0.038-0.1l-0.002-0.006c-0.013-0.040-0.027-0.053-0.040-0.093-0.012-0.036-0.026-0.067-0.041-0.096l0.002 0.003c-0.014-0.027-0.024-0.058-0.027-0.092l-0-0.001c0-0.027-0.027-0.066-0.027-0.093-0.003-0.034-0.012-0.066-0.027-0.094l0.001 0.001c-0.013-0.027-0.013-0.053-0.027-0.093s-0.013-0.066-0.027-0.106c-0.009-0.021-0.013-0.046-0.013-0.072 0-0.003 0-0.006 0-0.009v0c0-0.027-0.013-0.066-0.013-0.106s-0.013-0.053-0.013-0.080c-0.004-0.044-0.014-0.084-0.028-0.123l0.001 0.003c-0.013-0.040 0-0.040 0-0.066v-17.302l11.961-1.921h0.106l11.96 1.921 0.013 17.133z"></path>
<path fill="#5e4778" d="M15.987 3.101l-10.926 1.749v15.516c0 3.591 7.721 7.394 10.926 8.653 1.867-0.729 5.258-2.319 7.761-4.227 0.185-0.146 0.384-0.292 0.556-0.437 0.861-0.702 1.576-1.444 2.040-2.2 0.358-0.583 0.569-1.179 0.569-1.776v-15.529zM10.716 11.329h6.37v1.325h-6.37v-1.325zM23.139 11.952c0 3.14-2.185 5.168-5.205 5.168h-4.185v6.625h-1.656v-8.123h5.616c2.252 0 3.722-1.365 3.722-3.67 0-2.279-1.47-3.604-3.695-3.604h-1.749l-4.185 0.013v-1.511h6.118c3.033 0 5.218 1.961 5.218 5.101z"></path>
<path fill="#5e4778" d="M15.987 0v1.776h0.053l11.96 1.921v17.119c0 3.949-8.489 8.123-12.026 9.514v1.656l0.212-0.080c0.53-0.199 12.86-5.446 12.86-11.091v-18.086z"></path>
<path fill="#5e4778" d="M17.92 17.106h-4.172v0.782c0.658 0.53 1.394 1.034 2.168 1.48l0.083 0.044c2.636 1.511 6.026 2.531 10.357 2.73 0.358-0.583 0.569-1.179 0.569-1.776v-15.516l-10.926-1.749-9.072 1.458c0.424 3.405 1.682 8.109 5.165 11.806v-0.742h5.616c2.252 0 3.722-1.365 3.722-3.67 0-2.279-1.47-3.604-3.695-3.604h-1.749l-4.185 0.013v-1.511h6.118c3.020 0 5.205 1.974 5.205 5.088 0 3.14-2.172 5.168-5.205 5.168zM15.987 11.329h1.085v1.325h-6.356v-1.325h5.271z"></path>
<path fill="#3d3144" d="M15.828 30.277l-0.066-0.027-0.119-0.040-0.066-0.027-0.119-0.053-0.040-0.013-0.146-0.066-0.040-0.013-0.159-0.066-0.027-0.013-0.172-0.080h-0.026l-0.199-0.080h-0.013c-1.748-0.782-4.040-1.935-6.053-3.299l-0.238-0.159-0.238-0.185-0.225-0.159-0.013-0.013-0.212-0.159-0.013-0.013-0.212-0.159-0.013-0.013-0.212-0.159-0.027-0.013-0.199-0.146-0.027-0.013-0.185-0.146-0.026-0.025-0.172-0.146-0.027-0.027-0.159-0.146-0.040-0.027-0.371-0.371-0.146-0.132-0.172-0.172-0.040-0.053-0.119-0.132-0.040-0.053-0.119-0.132-0.040-0.053-0.119-0.106-0.053-0.053-0.093-0.119-0.053-0.066-0.093-0.119-0.053-0.066-0.080-0.119-0.040-0.066-0.080-0.119-0.040-0.066c-0.027-0.040-0.040-0.080-0.066-0.106l-0.053-0.080-0.053-0.106-0.040-0.080c-0.013-0.040-0.040-0.066-0.053-0.106-0.012-0.031-0.025-0.057-0.041-0.082l0.001 0.002c-0.013-0.028-0.027-0.063-0.038-0.1l-0.002-0.006c-0.013-0.040-0.027-0.053-0.040-0.093-0.012-0.036-0.026-0.067-0.041-0.096l0.002 0.003c-0.016-0.027-0.026-0.058-0.027-0.093v-0c0-0.040-0.027-0.080-0.027-0.106-0.003-0.034-0.012-0.066-0.027-0.094l0.001 0.001c-0.013-0.027-0.013-0.053-0.027-0.093s-0.013-0.066-0.027-0.106c-0.009-0.021-0.013-0.046-0.013-0.072 0-0.003 0-0.006 0-0.009v0c0-0.027-0.013-0.066-0.013-0.106s-0.013-0.053-0.013-0.080c-0.004-0.044-0.014-0.084-0.028-0.123l0.001 0.003c-0.013-0.040 0-0.040 0-0.066v-17.302l12.013-1.921v-1.776l-13.059 2.73v18.1c0 2.65 2.715 5.154 5.655 7.102 2.304 1.511 4.715 2.836 7.205 3.988l0.212 0.080v-1.657l-0.172-0.066z"></path>
<path fill="#3d3144" d="M15.987 19.412c-0.857-0.49-1.593-0.994-2.285-1.55l0.033 0.026v5.856h-1.655v-7.38c-3.484-3.71-4.728-8.414-5.152-11.806l-1.868 0.292v15.516c0 3.591 7.721 7.394 10.926 8.653 1.867-0.729 5.258-2.319 7.761-4.227 0.185-0.146 0.384-0.292 0.556-0.437 0.861-0.702 1.576-1.444 2.040-2.2-4.331-0.225-7.708-1.246-10.357-2.743z"></path>
</svg>
