<svg xmlns="http://www.w3.org/2000/svg" viewBox="0 0 512 512">
    <path fill="#bf9101"
        d="M237 7v1c107.3 0 207 60.5 245 164 39.1 106.9-2.6 228.8-97 291.7-23 15.3-52.2 30.5-80 34.3 5.2 2 12.7-.8 18-2.1 16.1-4 32-9.6 47-16.7A250.5 250.5 0 0 0 503.6 319c31.6-114-27-240.3-134.6-289.7C325.5 9.3 283.7 7 237 7z" />
    <path fill="#d9a509"
        d="M460 385h-1c-16.2 29-41.6 55-69 73.7A251.6 251.6 0 0 1 239 504C89.7 497.4-23 354 6.2 208A248.6 248.6 0 0 1 254 9c37.5 0 77.1 11.5 110 29.3 14.5 7.8 27.1 18 41 26.7-5-10-21.5-17.7-31-23.1a249.6 249.6 0 0 0-106-33C130.3-1 6.1 105.7 0 245c-6.3 144.7 120.4 273.4 267 259.2 59.6-5.8 115.2-29.3 158-72.2 11.9-11.9 31-30.1 35-47z" />
    <path fill="#e9c34f"
        d="M234 9.4C175.5 17.1 123.1 35 79 76.1A248.4 248.4 0 0 0 26.8 147C-42.7 286.2 38.3 459 189 496.6c30.1 7.6 61.3 9.2 92 5.1A250.5 250.5 0 0 0 496 267c5.2-119.3-81-229.4-198-252.8-20.4-4-43.2-7.5-64-4.8z" />
    <path fill="#d7a301"
        d="M233 43.4c-46 6-88.4 19.6-124.6 50.3A214.1 214.1 0 0 0 61.1 153c-48 86.1-28.2 202 47.3 266.3A218.7 218.7 0 0 0 274 468.7a216 216 0 0 0 91-32.4c103-66.3 129.5-216.7 52-313.1A218.2 218.2 0 0 0 311 52a191.6 191.6 0 0 0-78-8.6z" />
    <path fill="#e9c34f"
        d="M240 51.4c-41.5 5.5-79.6 17-113.4 43A212.9 212.9 0 0 0 76.4 151c-53.4 85.8-32 201.5 46 265.3A211 211 0 0 0 285 460.7c28.5-4 55.5-15 80-29.9 19.5-12 36.7-27.9 50.8-45.8 70.2-89.2 54-226.3-38.8-293.6a210.3 210.3 0 0 0-65-32.1c-22.5-6.5-48.6-11-72-7.9z" />
    <path fill="#d9a505"
        d="M460 128c8.5 23.2 21.7 43.6 28.1 68a243 243 0 0 1-6.4 142c-5.7 16.4-15.8 30.9-21.7 47 12-10.3 18.8-33.3 23.7-48a250.2 250.2 0 0 0 1.6-156c-5.2-16.1-12-41.7-25.3-53z" />
    <path fill="#bf8f01"
        d="M249 153c3.3 14 15.5 29 22.9 41.4 8.3 14 14.7 30.2 25.1 42.6 1.4-7.2-5.2-15-8.8-21-8.8-14.9-17-30.1-25.8-45-3.4-5.7-6.8-16-13.4-18z" />
    <path fill="#d7a301"
        d="m248 154-31.9 57-13.1 25-2-2c-6.1 3.4-16.8-2.2-23-4-17.6-5.2-39.8-14.5-58-15v3c7.8 4.4 11.4 19.2 15.2 27l32 64c3.4 6.6 7.3 20.7 13.4 25 3.8 2.6 12 1 16.4 1 14 0 28-1 42-1 19.3 0 38.7 1 58 1 6.2 0 17 2 22.6-.6 7-3.3 12.7-22.5 16.2-29.4 10-20 19.2-40.2 29.5-60 4.9-9.6 12.8-20.4 14.7-31-3.5.5-9.5 1-10 5-9.5-1.7-20 3.2-29 6-14.8 4.5-30 7.8-45 12-3.1-10.6-11.4-20.5-16.9-30.2-9.5-16.7-17.8-39-31.1-52.8z" />
    <path fill="#bf8f01"
        d="M117 211c3.7 6 16 7.2 22.6 9 20 5.9 40.8 13 61.4 16-3.9-5.1-16-6.4-22-8.1-19.5-5.6-41.8-16-62-16.9z" />
    <path fill="#bf9101"
        d="M381 213c-14 29.5-29.1 58.7-43.8 88-4.1 8.4-9.7 28-17.6 33-7.9 5-29.3 1-38.6 1H179v1c35 0 70 1 105 1h27c3.3 0 8.5 1 11.4-1 8-5.6 13.5-25.3 17.8-34 14.6-29.1 31.3-58 43.8-88l-3-1z" />
    <path fill="#dfb123"
        d="M120 218c16.4 39.5 37.5 80.1 59 117h1c-3-10.7-9.8-21-14.8-31l-29-58c-3.6-7.2-8.3-25.3-16.2-28z" />
    <path fill="#e3b735" d="M221 334v1h28l-28-1z" />
    <path fill="#d9ad25" d="M179 336v1h72l-23-1h-49z" />
</svg>