<!-- Generated by IcoMoon.io -->
<svg version="1.1" xmlns="http://www.w3.org/2000/svg" viewBox="0 0 32 32">
<title>plu</title>
<path fill="#dec685" d="M14.569 18.584c-0.111-0.144-0.227-0.296-0.342-0.456-0.128-0.18-0.172-0.353-0.132-0.535 0.085-0.396 0.558-0.742 0.733-0.842l-0.216-0.389c-0.033 0.018-0.801 0.461-0.947 1.133-0.067 0.307 0.002 0.608 0.204 0.893 0.118 0.165 0.237 0.32 0.352 0.469 0.571 0.744 0.829 1.123 0.477 1.596-0.15 0.201-0.324 0.332-0.509 0.469-0.458 0.343-0.932 0.698-0.772 2.019l0.437-0.054c-0.129-1.064 0.175-1.292 0.597-1.607 0.193-0.144 0.41-0.307 0.6-0.561 0.571-0.765 0.059-1.431-0.482-2.136z"></path>
<path fill="#dec685" d="M14.584 16.469c-0.198 0.126-0.728 0.509-0.844 1.042-0.062 0.285 0.002 0.564 0.193 0.831 0.118 0.165 0.235 0.319 0.348 0.466 0.579 0.755 0.863 1.172 0.479 1.689-0.157 0.211-0.335 0.343-0.525 0.486-0.451 0.338-0.878 0.657-0.751 1.871l0.283-0.036c-0.11-1.043 0.219-1.29 0.634-1.601 0.19-0.142 0.402-0.301 0.585-0.544 0.536-0.719 0.065-1.333-0.481-2.044-0.111-0.146-0.229-0.298-0.343-0.459-0.142-0.2-0.19-0.394-0.146-0.597 0.083-0.381 0.491-0.713 0.705-0.852l-0.139-0.25zM13.349 23.028l-0.010-0.077c-0.167-1.367 0.348-1.751 0.801-2.091 0.18-0.134 0.352-0.263 0.494-0.455 0.306-0.41 0.123-0.719-0.477-1.501-0.121-0.155-0.239-0.312-0.353-0.471-0.216-0.302-0.289-0.625-0.217-0.955 0.149-0.685 0.898-1.135 0.984-1.184l0.069-0.039 0.291 0.525-0.065 0.038c-0.155 0.088-0.616 0.424-0.695 0.791-0.034 0.157 0.005 0.312 0.119 0.474 0.114 0.16 0.229 0.311 0.34 0.455 0.535 0.697 1.087 1.418 0.482 2.23-0.196 0.262-0.419 0.428-0.615 0.576-0.415 0.311-0.69 0.517-0.566 1.535l0.010 0.077-0.592 0.072zM9.294 9.262c-2.278-0.090-2.812 0.77-2.86 1.509-0.021 0.334 0.003 0.705 0.031 1.099 0.059 0.863 0.119 1.758-0.332 2.209-0.265 0.265-0.697 0.37-1.32 0.32l-0.034 0.445c0.11 0.008 0.214 0.013 0.316 0.013 0.595 0 1.038-0.152 1.347-0.461 0.595-0.595 0.525-1.637 0.463-2.556-0.026-0.378-0.049-0.734-0.031-1.040 0.051-0.787 0.858-1.156 2.404-1.092l0.016-0.446z"></path>
<path fill="#dec685" d="M4.861 14.774c0.695 0.043 1.192-0.098 1.526-0.432 0.569-0.571 0.5-1.594 0.44-2.497-0.026-0.379-0.049-0.737-0.031-1.050 0.052-0.824 0.862-1.217 2.407-1.168l0.011-0.291c-1.709-0.054-2.641 0.445-2.703 1.439-0.021 0.332 0.003 0.698 0.031 1.087 0.059 0.881 0.121 1.794-0.355 2.27-0.27 0.27-0.695 0.384-1.302 0.348l-0.025 0.293zM5.095 14.934c-0.103 0-0.209-0.003-0.322-0.013l-0.077-0.007 0.046-0.598 0.077 0.007c0.598 0.047 1.011-0.051 1.257-0.299 0.427-0.427 0.366-1.303 0.311-2.15-0.026-0.394-0.052-0.767-0.031-1.109 0.049-0.773 0.598-1.673 2.94-1.581l0.077 0.003-0.023 0.6-0.077-0.003c-1.493-0.060-2.276 0.283-2.324 1.020-0.020 0.301 0.005 0.656 0.031 1.030 0.064 0.935 0.134 1.997-0.484 2.616-0.325 0.327-0.785 0.484-1.401 0.484v0 0z"></path>
<path fill="#dec685" d="M12.661 16.755c-0.111-0.146-0.227-0.296-0.342-0.458-0.142-0.2-0.191-0.386-0.15-0.572 0.070-0.317 0.379-0.558 0.522-0.652 0.307 0.123 0.68 0.204 1.135 0.222v0.003c0.031 0 0.064 0 0.095-0.002 0.031 0.002 0.062 0.002 0.095 0.002v-0.003c1.264-0.049 1.903-0.598 2.227-1.138 0.302 0.123 1.169 0.567 1.13 1.642-0.020 0.53-0.463 1.035-0.893 1.524-0.61 0.697-1.303 1.486-0.726 2.423l0.374-0.235c-0.376-0.612 0.007-1.123 0.682-1.892 0.481-0.548 0.978-1.115 1.002-1.804 0.034-0.96-0.513-1.565-1.030-1.884 0.432-0.044 0.979-0.191 1.112-0.466 0.047-0.098 0.172-0.358-1.019-3.19-0.085-0.406-0.325-1.568-0.396-2.134 0.885-1.217 0.489-2.464-0.311-3.174-0.827-0.733-2.196-1.001-3.252-0.168-0.303-0.692-1.068-1.179-2.085-1.305-1.808-0.222-3.128 0.742-3.588 1.733-0.594 1.28-0.267 2.181 0.047 2.662-0.979 0.010-1.661 0.25-2.073 0.726-0.661 0.762-0.44 1.912-0.263 2.837 0.082 0.43 0.185 0.965 0.080 1.096-0.343 0.432-0.733 0.307-0.885 0.234-0.26-0.126-0.423-0.376-0.378-0.582l-0.43-0.095c-0.088 0.409 0.172 0.863 0.62 1.079 0.396 0.191 0.976 0.198 1.418-0.358 0.232-0.291 0.134-0.806 0.008-1.459-0.157-0.829-0.355-1.859 0.163-2.459 0.378-0.437 1.122-0.623 2.212-0.561l0.149-0.397c-0.011-0.008-1.045-0.86-0.268-2.533 0.562-1.213 2.019-1.619 3.136-1.481 0.773 0.095 1.655 0.486 1.815 1.3l0.373 0.113c0.665-0.684 1.912-0.932 2.911-0.046 0.605 0.536 1.019 1.535 0.227 2.598-2.026-0.314-3.542-0.044-4.5 0.809-0.582 0.517-0.834 1.138-0.944 1.607-0.047-0.038-0.098-0.069-0.152-0.095-0.15-0.069-0.455-0.142-0.814 0.128-0.356 0.268-0.502 0.67-0.41 1.13 0.108 0.548 0.53 1.102 0.948 1.414-0.2 0.195-0.404 0.456-0.473 0.772-0.067 0.307 0.002 0.608 0.204 0.893 0.118 0.165 0.237 0.321 0.352 0.469 0.571 0.744 0.829 1.123 0.477 1.596-0.15 0.201-0.325 0.332-0.51 0.469-0.458 0.343-0.932 0.698-0.772 2.019l0.437-0.054c-0.129-1.064 0.175-1.292 0.597-1.606 0.193-0.144 0.41-0.307 0.6-0.561 0.571-0.765 0.059-1.431-0.482-2.137-0.116-0.15-0.231-0.303-0.342-0.456-0.128-0.18-0.17-0.355-0.132-0.535 0.054-0.252 0.265-0.484 0.456-0.644 0.013 0.005 0.052-0.043 0.052-0.043 0.090-0.070 0.17-0.124 0.224-0.154v0l-0.216-0.389c-0.039 0.023-0.077 0.046-0.114 0.072-0.338-0.214-0.782-0.728-0.878-1.212-0.059-0.294 0.021-0.518 0.242-0.687 0.136-0.103 0.258-0.129 0.368-0.079 0.131 0.059 0.239 0.231 0.25 0.397l0.208-0.016 0.232-0.010c-0.002-0.011-0.029-1.154 0.881-1.959 0.862-0.762 2.263-0.993 4.163-0.695 0.11 0.754 0.399 2.104 0.412 2.168l0.020-0.005c0.479 1.141 0.971 2.471 0.991 2.772-0.139 0.121-0.724 0.231-0.976 0.229 0.064-0.25 0.065-0.427 0.065-0.433h-0.442c0 0.072-0.026 1.73-2.212 1.776-2.171-0.047-2.209-1.705-2.211-1.777l-0.219 0.002h-0.221c0 0.016 0.016 1.123 0.989 1.769-0.2 0.17-0.44 0.435-0.517 0.78-0.070 0.314 0.003 0.628 0.222 0.934 0.118 0.165 0.237 0.32 0.352 0.469 0.571 0.744 0.829 1.122 0.477 1.594-0.15 0.201-0.325 0.332-0.509 0.471-0.458 0.343-0.932 0.697-0.772 2.019l0.437-0.054c-0.129-1.064 0.175-1.292 0.597-1.607 0.193-0.144 0.41-0.307 0.6-0.561 0.569-0.767 0.057-1.432-0.482-2.137z"></path>
<path fill="#dec685" d="M11.348 13.155c0.023 0.258 0.16 1.104 0.952 1.627l0.085 0.057-0.079 0.067c-0.185 0.157-0.419 0.41-0.491 0.737-0.065 0.293 0.005 0.585 0.209 0.872 0.118 0.165 0.235 0.32 0.35 0.468 0.577 0.754 0.862 1.171 0.477 1.687-0.157 0.209-0.334 0.343-0.522 0.484-0.455 0.34-0.881 0.659-0.754 1.874l0.285-0.036c-0.11-1.043 0.219-1.292 0.634-1.601 0.19-0.142 0.402-0.301 0.584-0.544 0.535-0.718 0.065-1.331-0.479-2.042l0.060-0.049-0.062 0.047c-0.111-0.146-0.227-0.298-0.343-0.459-0.155-0.217-0.209-0.427-0.162-0.634 0.077-0.348 0.414-0.607 0.554-0.701l0.034-0.023 0.038 0.015c0.319 0.128 0.693 0.201 1.109 0.217l0.072 0.003h0.077l0.036-0.003c1.022-0.041 1.75-0.41 2.165-1.1l0.034-0.056 0.061 0.025c0.286 0.116 1.22 0.582 1.179 1.717-0.021 0.556-0.474 1.073-0.911 1.571-0.579 0.659-1.231 1.403-0.759 2.265l0.244-0.154c-0.337-0.626 0.072-1.171 0.728-1.918 0.473-0.538 0.96-1.094 0.984-1.755 0.038-1.020-0.607-1.576-0.994-1.815l-0.193-0.119 0.226-0.023c0.445-0.046 0.94-0.195 1.050-0.422 0.105-0.217-0.239-1.269-1.020-3.126-0.078-0.371-0.329-1.578-0.401-2.155l-0.005-0.029 0.018-0.026c0.857-1.177 0.466-2.391-0.301-3.071-0.787-0.697-2.121-0.978-3.153-0.165l-0.079 0.062-0.039-0.092c-0.293-0.669-1.050-1.14-2.023-1.259-1.771-0.217-3.059 0.723-3.507 1.689-0.564 1.217-0.289 2.078 0.041 2.588l0.077 0.118-0.141 0.002c-0.958 0.010-1.617 0.239-2.014 0.698-0.636 0.734-0.42 1.864-0.247 2.772 0.113 0.585 0.183 1.011 0.065 1.158-0.378 0.474-0.811 0.337-0.979 0.255-0.265-0.128-0.435-0.368-0.43-0.592l-0.283-0.062c-0.034 0.353 0.203 0.729 0.589 0.917 0.368 0.178 0.909 0.183 1.323-0.335 0.209-0.265 0.114-0.764-0.007-1.396-0.162-0.845-0.361-1.897 0.18-2.523 0.386-0.446 1.132-0.646 2.219-0.59l0.111-0.296c-0.195-0.188-0.96-1.055-0.247-2.588 0.579-1.249 2.072-1.665 3.215-1.524 0.785 0.096 1.681 0.492 1.872 1.315l0.285 0.087c0.698-0.685 1.965-0.921 2.984-0.016 0.625 0.554 1.061 1.594 0.237 2.703l-0.028 0.038-0.046-0.007c-2.005-0.311-3.498-0.046-4.436 0.79-0.577 0.513-0.819 1.135-0.919 1.566l-0.028 0.118-0.095-0.075c-0.049-0.038-0.093-0.065-0.136-0.087-0.134-0.062-0.409-0.128-0.734 0.119-0.332 0.25-0.468 0.625-0.383 1.053 0.11 0.554 0.541 1.086 0.919 1.367l0.074 0.054-0.065 0.064c-0.245 0.235-0.396 0.482-0.451 0.733-0.062 0.285 0.002 0.564 0.193 0.831 0.111 0.155 0.224 0.303 0.332 0.443l0.018 0.025c0.579 0.754 0.863 1.171 0.479 1.687-0.157 0.211-0.337 0.345-0.527 0.486-0.451 0.338-0.878 0.657-0.751 1.872l0.285-0.034c-0.11-1.045 0.221-1.292 0.636-1.601 0.191-0.144 0.404-0.302 0.584-0.544 0.536-0.719 0.065-1.333-0.481-2.044-0.114-0.149-0.229-0.299-0.343-0.458-0.142-0.198-0.19-0.394-0.146-0.595 0.062-0.285 0.298-0.531 0.482-0.688l0.033-0.028 0.005 0.002 0.007-0.007c0.065-0.054 0.126-0.098 0.18-0.132l-0.141-0.253c-0.015 0.010-0.028 0.018-0.043 0.028l-0.046 0.028-0.043-0.026c-0.371-0.234-0.816-0.77-0.912-1.261-0.064-0.322 0.028-0.579 0.271-0.764 0.16-0.121 0.311-0.152 0.446-0.088 0.136 0.062 0.249 0.217 0.285 0.384l0.298-0.016c0.010-0.278 0.105-1.235 0.908-1.943 0.878-0.777 2.299-1.015 4.225-0.713l0.057 0.010 0.008 0.056c0.093 0.636 0.311 1.689 0.394 2.088l0.007-0.002 0.025 0.059c0.468 1.117 0.976 2.477 0.997 2.796l0.003 0.039-0.029 0.025c-0.165 0.142-0.772 0.247-1.020 0.247h-0.105l0.023-0.095c0.028-0.111 0.047-0.224 0.059-0.337h-0.285c-0.028 0.35-0.267 1.733-2.286 1.776-2.011-0.043-2.258-1.428-2.289-1.776l-0.285-0.002zM11.441 21.198l-0.010-0.077c-0.167-1.367 0.348-1.751 0.803-2.090 0.181-0.136 0.35-0.263 0.494-0.455 0.306-0.41 0.124-0.719-0.476-1.501-0.114-0.149-0.234-0.306-0.353-0.473-0.231-0.324-0.309-0.657-0.234-0.996 0.074-0.324 0.281-0.58 0.468-0.755-0.93-0.677-0.942-1.766-0.942-1.777v-0.077l0.594-0.002 0.002 0.077c0 0.069 0.038 1.655 2.139 1.701 2.109-0.044 2.134-1.63 2.134-1.699v-0.077h0.595v0.077c0 0.002-0.002 0.141-0.046 0.353 0.258-0.018 0.656-0.105 0.796-0.185-0.052-0.325-0.456-1.447-0.955-2.646l-0.033 0.008-0.016-0.075c-0.072-0.337-0.301-1.432-0.404-2.118-1.849-0.281-3.21-0.051-4.044 0.685-0.883 0.778-0.857 1.887-0.855 1.898l0.002 0.077-0.59 0.034-0.007-0.077c-0.011-0.139-0.101-0.285-0.206-0.334-0.082-0.038-0.177-0.015-0.289 0.070-0.198 0.15-0.267 0.343-0.213 0.61 0.085 0.427 0.473 0.908 0.801 1.133 0.044-0.028 0.072-0.044 0.077-0.047l0.067-0.036 0.289 0.522-0.067 0.038c-0.059 0.034-0.141 0.090-0.214 0.149-0.016 0.023-0.039 0.043-0.065 0.054-0.139 0.119-0.363 0.343-0.417 0.589-0.034 0.159 0.005 0.314 0.119 0.474 0.113 0.159 0.227 0.307 0.337 0.45 0.538 0.701 1.091 1.423 0.486 2.235-0.193 0.26-0.415 0.425-0.61 0.572-0.42 0.314-0.693 0.518-0.571 1.539l0.010 0.077-0.59 0.074-0.010-0.077c-0.165-1.367 0.348-1.751 0.803-2.091 0.18-0.134 0.35-0.262 0.494-0.455 0.306-0.41 0.123-0.719-0.477-1.501l-0.018-0.025c-0.11-0.142-0.222-0.291-0.334-0.446-0.217-0.303-0.289-0.625-0.217-0.955 0.056-0.257 0.201-0.507 0.432-0.747-0.384-0.311-0.798-0.847-0.909-1.406-0.096-0.491 0.059-0.919 0.44-1.207 0.391-0.296 0.726-0.213 0.893-0.137 0.025 0.011 0.049 0.025 0.072 0.038 0.155-0.594 0.482-1.128 0.939-1.537 0.97-0.86 2.489-1.14 4.516-0.834 0.724-1.009 0.325-1.952-0.244-2.458-0.963-0.854-2.163-0.616-2.804 0.043l-0.033 0.033-0.463-0.139-0.008-0.046c-0.152-0.773-1.004-1.146-1.75-1.238-1.087-0.134-2.51 0.258-3.056 1.437-0.746 1.607 0.237 2.431 0.247 2.441l0.043 0.034-0.186 0.504-0.057-0.003c-1.066-0.064-1.789 0.118-2.15 0.535-0.494 0.571-0.301 1.581-0.146 2.394 0.129 0.672 0.231 1.202-0.025 1.521-0.471 0.59-1.089 0.584-1.511 0.378-0.479-0.231-0.757-0.721-0.661-1.166l0.016-0.075 0.582 0.128-0.016 0.075c-0.036 0.17 0.111 0.389 0.337 0.497 0.167 0.080 0.492 0.16 0.79-0.213 0.082-0.103-0.034-0.708-0.096-1.032-0.18-0.94-0.404-2.111 0.281-2.901 0.409-0.474 1.063-0.718 1.995-0.749-0.316-0.553-0.535-1.428 0.020-2.621 0.471-1.015 1.82-2.005 3.666-1.777 0.986 0.121 1.764 0.59 2.104 1.262 1.086-0.791 2.459-0.492 3.274 0.231 0.813 0.721 1.23 2.005 0.34 3.252 0.077 0.582 0.319 1.75 0.391 2.1 1.2 2.848 1.074 3.112 1.014 3.239-0.124 0.258-0.553 0.412-0.97 0.482 0.409 0.303 0.93 0.878 0.896 1.838-0.026 0.716-0.531 1.293-1.022 1.851-0.711 0.811-1.011 1.254-0.674 1.802l0.039 0.065-0.504 0.317-0.041-0.067c-0.607-0.986 0.105-1.799 0.734-2.515 0.42-0.479 0.854-0.975 0.873-1.475 0.034-0.95-0.661-1.383-1.022-1.542-0.312 0.486-0.939 1.045-2.181 1.114v0.003l-0.077 0.003h-0.267v-0.007c-0.388-0.021-0.739-0.093-1.048-0.209-0.139 0.098-0.397 0.312-0.456 0.582-0.036 0.164 0.008 0.33 0.137 0.512 0.114 0.16 0.231 0.311 0.34 0.455l-0.060 0.047 0.062-0.046c0.535 0.697 1.086 1.418 0.481 2.229-0.195 0.262-0.419 0.428-0.615 0.576-0.417 0.312-0.69 0.517-0.567 1.537l0.010 0.077-0.59 0.065z"></path>
<path fill="#dec685" d="M9 7.031c-0.321 0.414-0.325 0.94-0.013 1.342 0.196 0.252 0.469 0.389 0.741 0.389 0.113 0 0.226-0.025 0.332-0.074 0.455-0.209 0.563-0.379 0.854-0.839 0.146-0.227 0.343-0.54 0.664-0.983 0.247-0.34 0.51-0.52 0.787-0.531 0.448-0.016 0.824 0.406 0.827 0.41l0.334-0.291c-0.020-0.023-0.489-0.566-1.13-0.566-0.015 0-0.029 0-0.046 0.002-0.417 0.016-0.796 0.257-1.127 0.713-0.237 0.327-0.463 0.664-0.679 1.006-0.273 0.43-0.33 0.52-0.667 0.675-0.203 0.093-0.419-0.026-0.543-0.188-0.146-0.186-0.217-0.492 0.015-0.791l-0.348-0.275z"></path>
<path fill="#dec685" d="M9.015 7.141c-0.252 0.374-0.242 0.831 0.033 1.184 0.25 0.322 0.651 0.445 0.978 0.294 0.433-0.2 0.531-0.353 0.821-0.811 0.146-0.227 0.343-0.54 0.667-0.988 0.26-0.361 0.544-0.549 0.844-0.563 0.384-0.015 0.708 0.26 0.834 0.381l0.219-0.191c-0.136-0.139-0.523-0.484-1.020-0.484-0.013 0-0.026 0-0.041 0.002-0.394 0.015-0.752 0.244-1.068 0.682-0.329 0.456-0.53 0.772-0.675 1.001-0.278 0.437-0.343 0.54-0.7 0.703-0.24 0.11-0.494-0.026-0.636-0.209-0.191-0.237-0.203-0.572-0.031-0.824l-0.224-0.177zM9.726 8.84c-0.301 0-0.594-0.154-0.801-0.42-0.335-0.43-0.329-0.994 0.013-1.437l0.047-0.062 0.468 0.371-0.046 0.061c-0.204 0.263-0.142 0.533-0.015 0.697 0.105 0.136 0.286 0.239 0.45 0.164 0.316-0.146 0.363-0.222 0.633-0.646 0.147-0.232 0.35-0.549 0.682-1.009 0.345-0.477 0.744-0.728 1.185-0.746 0.015-0.002 0.031-0.002 0.047-0.002 0.68 0 1.169 0.569 1.189 0.594l0.049 0.059-0.45 0.391-0.051-0.057c-0.003-0.003-0.345-0.384-0.744-0.384h-0.021c-0.25 0.011-0.494 0.178-0.726 0.499-0.231 0.319-0.451 0.646-0.661 0.979-0.293 0.459-0.414 0.649-0.888 0.868-0.111 0.054-0.235 0.082-0.361 0.082v0zM22.302 25.105c1.082-0.32 1.606-1.65 1.272-3.288l-0.432 0.090c0.24 1.176 0.016 2.552-1.040 2.793-1.011 0.231-1.987-0.661-2.373-2.168-0.231-0.903-0.168-1.745 0.173-2.31 0.206-0.342 0.5-0.559 0.873-0.644 0.244-0.059 0.497-0.052 0.737 0.018l0.124-0.428c-0.312-0.092-0.643-0.1-0.958-0.026-0.186 0.043-0.365 0.114-0.53 0.214l-0.008-0.016c-1.21 0.628-2.559 0.94-3.921 0.911l-0.008 0.445c0.059 0.002 0.116 0.002 0.175 0.002 1.053 0 2.096-0.195 3.066-0.563-0.334 0.659-0.391 1.56-0.149 2.508 0.291 1.135 0.893 1.962 1.62 2.328-0.906 0.17-1.956 0.302-2.68 0.302-1.068 0-2.121-0.152-3.128-0.455l-0.124 0.427c1.056 0.316 2.152 0.474 3.254 0.473 1.181 0 3.087-0.322 4.058-0.61l-0.003-0.002z"></path>
<path fill="#dec685" d="M15.088 25.196c1.019 0.298 2.080 0.448 3.157 0.448 1.148 0 2.983-0.306 3.969-0.587l0.067-0.026c1.038-0.307 1.529-1.557 1.233-3.123l-0.28 0.059c0.222 1.194-0.029 2.561-1.114 2.809-1.055 0.239-2.067-0.675-2.464-2.225-0.235-0.921-0.17-1.784 0.181-2.368 0.217-0.361 0.528-0.59 0.922-0.68 0.231-0.054 0.471-0.054 0.701 0l0.082-0.28c-0.276-0.069-0.567-0.070-0.844-0.005-0.178 0.041-0.35 0.11-0.507 0.204l-0.072 0.044-0.011-0.021c-1.181 0.598-2.489 0.903-3.812 0.885l-0.005 0.291c1.078 0.011 2.132-0.175 3.135-0.558l0.186-0.072-0.090 0.178c-0.325 0.643-0.378 1.537-0.144 2.454 0.278 1.082 0.854 1.913 1.581 2.279l0.204 0.103-0.226 0.043c-1.015 0.19-2.023 0.304-2.695 0.304-1.042 0.002-2.077-0.146-3.077-0.437l-0.080 0.28zM18.245 25.799c-1.109 0.002-2.212-0.159-3.275-0.476l-0.074-0.021 0.168-0.576 0.075 0.021c0.999 0.299 2.046 0.451 3.105 0.451 0.607 0 1.532-0.1 2.458-0.263-0.679-0.427-1.208-1.239-1.472-2.271-0.227-0.888-0.2-1.728 0.075-2.391-0.993 0.353-2.041 0.523-3.095 0.502l-0.077-0.002 0.011-0.6 0.077 0.002c0.056 0.002 0.11 0.002 0.165 0.002 1.302 0 2.588-0.312 3.72-0.903l0.069-0.036 0.008 0.015c0.15-0.083 0.312-0.144 0.481-0.181 0.329-0.077 0.672-0.069 0.996 0.026l0.074 0.021-0.167 0.576-0.075-0.023c-0.227-0.065-0.468-0.072-0.698-0.018-0.353 0.082-0.63 0.286-0.824 0.61-0.33 0.549-0.391 1.369-0.165 2.25 0.374 1.465 1.315 2.333 2.279 2.113 1.007-0.229 1.215-1.562 0.983-2.703l-0.015-0.075 0.582-0.123 0.016 0.077c0.335 1.648-0.168 2.983-1.254 3.354l0.002 0.007-0.072 0.021c-0.976 0.291-2.893 0.615-4.081 0.615v0zM15.998 10.359l-1.032-0.44-0.173 0.002-1.728 0.757 0.175 0.409 1.643-0.718 0.945 0.402 0.17-0.412z"></path>
<path fill="#dec685" d="M13.166 10.717l0.114 0.267 1.601-0.7 0.904 0.384 0.111-0.268-0.947-0.404-0.141 0.002-1.643 0.719zM13.199 11.188l-0.235-0.551 1.83-0.793 0.19-0.002 0.015 0.007 1.102 0.469-0.231 0.553-0.986-0.419-1.684 0.736z"></path>
<path fill="#dec685" d="M14.659 11.207c0 0.203 0.173 0.368 0.386 0.368s0.386-0.165 0.386-0.368c0-0.203-0.173-0.368-0.386-0.368s-0.386 0.167-0.386 0.368z"></path>
<path fill="#dec685" d="M15.045 10.918c-0.17 0-0.309 0.131-0.309 0.291s0.137 0.291 0.309 0.291 0.309-0.131 0.309-0.291c0-0.16-0.139-0.291-0.309-0.291zM15.045 11.652c-0.255 0-0.463-0.2-0.463-0.445s0.208-0.445 0.463-0.445 0.464 0.2 0.464 0.445c0 0.245-0.209 0.445-0.464 0.445z"></path>
<path fill="#dec685" d="M23.056 15.817l-3.771 1.514 1.519-4.783c0.007 0 0.013 0.002 0.020 0.002 0.013 0 0.025-0.003 0.038-0.003l2.25 2.983c-0.039 0.070-0.061 0.149-0.061 0.229 0 0.020 0.003 0.039 0.005 0.059v0 0zM11.389 22.855c0.095 0.11 0.234 0.181 0.392 0.181 0.011 0 0.023-0.003 0.034-0.003l2.062 3.485c-0.741-0.146-1.465-0.368-2.16-0.666-1.28-0.548-2.443-1.334-3.427-2.319l3.099-0.679zM6.403 17.159c0.031 0.172 0.152 0.314 0.317 0.376l0.8 5.152c-0.683-0.834-1.239-1.758-1.658-2.76l-0.296-0.114-0.163 0.077c-0.353-1.035-0.556-2.116-0.6-3.21l1.601 0.479zM27.090 26.82c-1.426 1.447-3.118 2.602-4.986 3.399-1.929 0.827-4.008 1.251-6.107 1.248-2.118 0-4.171-0.42-6.107-1.248-1.867-0.798-3.561-1.954-4.986-3.399-1.342-1.356-2.428-2.943-3.207-4.686l3.849-1.82c0.569 1.29 1.369 2.466 2.361 3.467 1.040 1.055 2.274 1.898 3.637 2.481 1.406 0.602 2.922 0.912 4.451 0.909 0.919 0 1.831-0.11 2.709-0.325l-0.105-0.432c-1.36 0.332-2.772 0.401-4.157 0.201l-2.243-3.794c0.057-0.082 0.090-0.178 0.090-0.278 0-0.273-0.229-0.495-0.512-0.495-0.239 0-0.438 0.16-0.494 0.374l-3.251 0.711-0.872-5.63c0.152-0.085 0.257-0.244 0.257-0.427 0-0.273-0.229-0.494-0.512-0.494-0.144 0-0.275 0.059-0.368 0.152l-1.748-0.522c0-0.008-0.080-0.023-0.080-0.023h-0.361c0 1.338 0.221 2.644 0.652 3.89l-1.545 0.731c-0.533-1.481-0.804-3.046-0.803-4.621 0-0.332 0.011-0.664 0.034-0.989l-0.44-0.033c-0.025 0.335-0.036 0.68-0.036 1.022 0 1.656 0.283 3.274 0.842 4.811l-1.539 0.728c-0.662-1.771-1.001-3.646-0.997-5.538 0-2.114 0.41-4.165 1.217-6.096 0.775-1.858 1.9-3.547 3.316-4.977 1.406-1.428 3.077-2.567 4.92-3.355 1.905-0.814 3.954-1.233 6.026-1.23 2.090 0 4.117 0.414 6.026 1.231 1.843 0.788 3.514 1.928 4.92 3.355 1.416 1.429 2.543 3.12 3.316 4.976 0.808 1.931 1.22 4.003 1.217 6.096 0 1.854-0.32 3.666-0.945 5.391l-1.591-0.582c0.559-1.542 0.844-3.169 0.842-4.809 0-7.689-6.183-13.943-13.783-13.943-1.074 0-2.144 0.124-3.18 0.373l0.101 0.433c1.004-0.239 2.039-0.361 3.079-0.361 3.382 0 6.47 1.282 8.823 3.385l0.432 3.561c-0.172 0.080-0.283 0.252-0.285 0.441v0.003l-3.874 1.555c-0.082-0.051-0.175-0.077-0.271-0.077-0.018 0-0.034 0.003-0.051 0.005l-1.689-3.617c0.077-0.087 0.119-0.2 0.121-0.316 0-0.132-0.056-0.26-0.152-0.352l0.638-1.797c0.224 0.079 0.448 0.165 0.667 0.258 1.334 0.571 2.544 1.396 3.563 2.431l0.311-0.316c-1.058-1.074-2.315-1.933-3.702-2.526-0.829-0.355-1.697-0.61-2.585-0.762l-0.072 0.44c0.474 0.080 0.942 0.195 1.401 0.338l-0.638 1.797c-0.253 0.029-0.451 0.235-0.451 0.489 0 0.268 0.222 0.486 0.497 0.492l1.712 3.668c-0.051 0.077-0.078 0.168-0.080 0.262 0 0.106 0.036 0.204 0.095 0.286l-1.552 4.884c-0.245 0.036-0.435 0.239-0.435 0.487 0 0.273 0.229 0.494 0.512 0.494 0.27 0 0.487-0.203 0.507-0.459l3.805-1.527-0.71 3.615c-0.221 0.054-0.378 0.249-0.381 0.476 0 0.273 0.229 0.494 0.512 0.494 0.278 0 0.502-0.214 0.51-0.482l4.963-2.252c0.087 0.069 0.196 0.11 0.317 0.11 0.281 0 0.512-0.222 0.512-0.494 0-0.273-0.229-0.495-0.512-0.495-0.276 0-0.502 0.214-0.51 0.479l-4.964 2.253-0.011-0.010 0.723-3.679c0.221-0.054 0.378-0.25 0.381-0.476 0-0.273-0.229-0.494-0.512-0.494-0.031 0-0.061 0.003-0.090 0.008l-2.222-2.945c0.054-0.079 0.085-0.17 0.085-0.271 0-0.011-0.003-0.021-0.003-0.033l3.848-1.545c0.085 0.059 0.188 0.096 0.301 0.096 0.281 0 0.512-0.222 0.512-0.494 0-0.198-0.123-0.368-0.296-0.446l-0.374-3.087c2.575 2.546 4.022 6.019 4.018 9.641 0 1.602-0.273 3.167-0.814 4.657l-2.214-0.811-0.276 0.118c-0.425 0.96-0.986 1.856-1.663 2.659l0.335 0.289c0.661-0.782 1.213-1.648 1.645-2.577l4.006 1.468c-0.782 1.797-1.89 3.434-3.269 4.827v0 0zM31.917 16.19c0-2.173-0.422-4.282-1.251-6.269-0.796-1.91-1.956-3.648-3.411-5.118-1.447-1.468-3.166-2.639-5.059-3.45-1.959-0.839-4.067-1.271-6.197-1.267-2.147 0-4.233 0.427-6.197 1.267-1.895 0.811-3.614 1.982-5.059 3.45-1.455 1.47-2.615 3.208-3.411 5.118-0.832 1.985-1.257 4.117-1.254 6.269 0 2.008 0.371 3.972 1.084 5.829l0.047 0.096c0.804 1.871 1.952 3.573 3.385 5.020 1.465 1.486 3.207 2.673 5.125 3.494 1.983 0.85 4.121 1.287 6.279 1.284 2.176 0 4.289-0.432 6.279-1.284 1.92-0.821 3.659-2.008 5.125-3.494 1.475-1.49 2.649-3.251 3.455-5.185l0.013-0.028c0.695-1.831 1.050-3.774 1.048-5.733v0 0z"></path>
<path fill="#dec685" d="M20.85 12.659l-1.442 4.539 3.565-1.432v-0.008c0-0.075 0.016-0.149 0.047-0.221l-2.17-2.878zM19.162 17.463l1.588-4.995 0.087 0.003 0.062-0.005 2.306 3.056-0.025 0.044c-0.033 0.059-0.051 0.124-0.052 0.193 0 0.011 0.002 0.021 0.003 0.031l0.008 0.059-0.054 0.039-3.923 1.575zM5.563 19.73l0.358 0.139 0.013 0.029c0.376 0.899 0.868 1.745 1.467 2.515l-0.749-4.822c-0.154-0.072-0.268-0.208-0.312-0.371l-1.455-0.433c0.052 1.024 0.242 2.031 0.564 2.997l0.114-0.054zM7.641 22.956l-0.18-0.219c-0.682-0.832-1.241-1.758-1.658-2.749l-0.234-0.092-0.213 0.1-0.028-0.082c-0.355-1.043-0.559-2.131-0.605-3.231l-0.005-0.11 1.753 0.522 0.008 0.047c0.025 0.142 0.128 0.265 0.268 0.319l0.043 0.016 0.85 5.478zM8.446 23.577c0.957 0.93 2.075 1.678 3.301 2.203 0.633 0.271 1.297 0.481 1.974 0.626l-1.949-3.295c-0.154-0.002-0.301-0.064-0.41-0.173l-2.915 0.639zM14.031 26.627l-0.17-0.034c-0.746-0.147-1.475-0.371-2.175-0.67-1.288-0.551-2.461-1.344-3.452-2.335l-0.1-0.1 3.282-0.718 0.031 0.034c0.083 0.098 0.206 0.154 0.334 0.154l0.077-0.005 2.173 3.674zM1.8 22.173c0.772 1.707 1.841 3.262 3.159 4.593 1.418 1.439 3.104 2.588 4.961 3.383 1.92 0.822 3.988 1.246 6.076 1.241 2.106 0 4.152-0.419 6.076-1.241 1.858-0.795 3.543-1.944 4.961-3.383v0c1.354-1.367 2.445-2.969 3.22-4.729l-3.864-1.416c-0.43 0.911-0.976 1.761-1.625 2.53l-0.051 0.061-0.451-0.391 0.049-0.059c0.672-0.798 1.228-1.686 1.651-2.639l0.013-0.028 0.332-0.142 2.17 0.795c0.522-1.463 0.787-3.004 0.783-4.557 0-3.556-1.36-6.895-3.836-9.427l0.342 2.819c0.185 0.101 0.302 0.291 0.302 0.497 0 0.316-0.265 0.572-0.589 0.572-0.11 0-0.216-0.029-0.309-0.087l-3.758 1.509c-0.003 0.088-0.026 0.173-0.069 0.25l2.162 2.866c0.018-0.002 0.036-0.003 0.056-0.003 0.324 0 0.589 0.257 0.589 0.571 0 0.242-0.159 0.456-0.391 0.536l-0.688 3.504 4.801-2.18c0.038-0.293 0.289-0.509 0.584-0.505 0.325 0 0.589 0.257 0.589 0.572s-0.265 0.571-0.589 0.571c-0.116 0-0.227-0.033-0.325-0.096l-4.879 2.214c-0.033 0.285-0.285 0.507-0.584 0.507-0.324 0-0.589-0.257-0.589-0.572 0-0.242 0.159-0.456 0.391-0.536l0.674-3.431-3.632 1.459c-0.044 0.273-0.291 0.481-0.579 0.481-0.324 0-0.589-0.257-0.589-0.571 0-0.263 0.191-0.494 0.451-0.554l1.527-4.804c-0.108-0.17-0.116-0.386-0.018-0.564l-1.674-3.588c-0.293-0.031-0.525-0.276-0.525-0.567 0-0.273 0.2-0.504 0.471-0.558l0.595-1.678c-0.432-0.131-0.87-0.235-1.315-0.312l-0.075-0.013 0.098-0.592 0.077 0.013c0.894 0.152 1.768 0.41 2.603 0.767 1.396 0.597 2.662 1.46 3.727 2.543l0.054 0.054-0.42 0.425-0.056-0.056c-1.012-1.027-2.214-1.848-3.538-2.413-0.195-0.082-0.391-0.159-0.59-0.231l-0.595 1.679c0.173 0.196 0.188 0.486 0.033 0.697l1.645 3.524c0.098 0.007 0.195 0.023 0.281 0.069l3.794-1.522c0.016-0.18 0.118-0.338 0.276-0.433l-0.422-3.48c-2.425-2.158-5.532-3.347-8.751-3.347-1.035 0-2.065 0.121-3.061 0.358l-0.075 0.018-0.137-0.584 0.075-0.018c1.048-0.25 2.121-0.376 3.198-0.376 7.643 0 13.86 6.29 13.86 14.020 0 1.637-0.276 3.238-0.821 4.762l1.445 0.53c0.607-1.699 0.917-3.488 0.916-5.291 0-2.103-0.407-4.143-1.21-6.066-0.772-1.848-1.892-3.53-3.3-4.953-1.4-1.421-3.063-2.554-4.896-3.339-1.893-0.806-3.934-1.223-5.994-1.22-2.078 0-4.094 0.412-5.996 1.225-1.833 0.785-3.496 1.918-4.896 3.337-2.896 2.935-4.518 6.895-4.51 11.019 0 1.864 0.325 3.692 0.965 5.432l1.4-0.662c-0.548-1.53-0.826-3.144-0.824-4.771 0-0.343 0.011-0.688 0.036-1.027l0.005-0.077 0.594 0.044-0.005 0.077c-0.023 0.327-0.034 0.656-0.034 0.984 0 1.552 0.258 3.071 0.77 4.515l1.406-0.666c-0.42-1.239-0.636-2.541-0.634-3.849v-0.077h0.44c0.038 0.005 0.075 0.015 0.11 0.029l1.697 0.507c0.108-0.092 0.244-0.142 0.389-0.142 0.324 0 0.589 0.257 0.589 0.572 0 0.185-0.095 0.358-0.25 0.464l0.854 5.497 3.126-0.685c0.085-0.234 0.307-0.388 0.556-0.386 0.325 0 0.589 0.257 0.589 0.572 0 0.098-0.026 0.195-0.077 0.281l2.201 3.722c1.392 0.193 2.778 0.116 4.090-0.206l0.075-0.018 0.141 0.582-0.075 0.018c-0.893 0.219-1.808 0.329-2.729 0.327-1.555 0-3.063-0.307-4.482-0.914-1.372-0.587-2.615-1.434-3.661-2.497-0.981-0.989-1.774-2.147-2.345-3.417l-3.709 1.753zM15.997 31.545c-2.127 0-4.193-0.422-6.137-1.254-1.876-0.803-3.578-1.964-5.010-3.417-1.349-1.362-2.44-2.956-3.221-4.708l-0.031-0.069 3.99-1.887 0.031 0.072c0.564 1.282 1.36 2.448 2.345 3.444 1.032 1.048 2.26 1.885 3.612 2.464 1.396 0.598 2.901 0.906 4.421 0.903 0.886 0 1.768-0.103 2.616-0.306l-0.069-0.283c-1.346 0.319-2.741 0.381-4.109 0.185l-0.036-0.005-2.289-3.869 0.029-0.041c0.049-0.069 0.075-0.15 0.075-0.234 0-0.231-0.195-0.419-0.435-0.419-0.196-0.002-0.368 0.128-0.42 0.317l-0.011 0.046-3.378 0.739-0.894-5.764 0.047-0.026c0.132-0.070 0.216-0.208 0.217-0.358 0-0.231-0.195-0.417-0.433-0.417-0.118 0-0.231 0.046-0.314 0.129l-0.033 0.033-1.864-0.556-0.27 0.002c0.007 1.29 0.226 2.569 0.648 3.787l0.023 0.065-1.684 0.796-0.029-0.080c-0.536-1.491-0.809-3.063-0.806-4.647 0-0.306 0.010-0.615 0.029-0.919l-0.285-0.021c-0.021 0.312-0.031 0.626-0.031 0.939 0 1.645 0.283 3.256 0.839 4.784l0.025 0.065-1.679 0.795-0.029-0.078c-0.667-1.776-1.007-3.661-1.004-5.563 0-2.124 0.412-4.184 1.223-6.125 0.778-1.866 1.91-3.565 3.332-5.002 1.413-1.434 3.092-2.579 4.943-3.37 1.913-0.819 3.973-1.241 6.057-1.238 2.1 0 4.137 0.415 6.057 1.238 1.851 0.791 3.532 1.936 4.945 3.372 1.423 1.437 2.554 3.135 3.334 5.002 0.811 1.941 1.226 4.022 1.221 6.125 0.002 1.848-0.32 3.681-0.95 5.417l-0.026 0.074-1.737-0.636 0.026-0.072c0.556-1.532 0.839-3.151 0.837-4.781 0-7.646-6.148-13.866-13.706-13.866-1.043 0-2.082 0.119-3.087 0.353l0.065 0.283c0.991-0.231 2.005-0.345 3.022-0.345 3.269 0 6.42 1.21 8.876 3.404l0.021 0.020 0.442 3.645-0.049 0.025c-0.146 0.067-0.239 0.211-0.24 0.371v0.052l-0.049 0.023-3.91 1.57-0.033-0.020c-0.078-0.047-0.17-0.077-0.257-0.064l-0.056 0.008-0.039-0.049-1.71-3.663 0.033-0.038c0.065-0.074 0.101-0.167 0.103-0.265 0-0.113-0.047-0.219-0.128-0.296l-0.036-0.034 0.68-1.918 0.074 0.026c0.244 0.087 0.464 0.17 0.67 0.26 1.32 0.564 2.518 1.377 3.532 2.392l0.203-0.204c-1.040-1.043-2.27-1.876-3.623-2.454-0.8-0.342-1.635-0.592-2.492-0.744l-0.047 0.288c0.435 0.077 0.883 0.188 1.334 0.327l0.077 0.025-0.68 1.918-0.049 0.005c-0.217 0.026-0.383 0.203-0.383 0.412 0 0.224 0.19 0.41 0.422 0.415l0.047 0.002 1.75 3.749-0.023 0.036c-0.043 0.065-0.067 0.142-0.067 0.219 0 0.085 0.028 0.168 0.080 0.239l0.023 0.033-1.58 4.968-0.047 0.007c-0.209 0.031-0.368 0.208-0.368 0.41 0 0.231 0.195 0.417 0.435 0.417 0.224 0 0.414-0.17 0.43-0.388l0.003-0.047 0.044-0.018 3.937-1.581-0.747 3.803-0.047 0.011c-0.186 0.044-0.319 0.209-0.322 0.401 0 0.231 0.195 0.417 0.435 0.417 0.232 0 0.427-0.183 0.432-0.407l0.002-0.049 5.048-2.291 0.038 0.028c0.077 0.061 0.172 0.093 0.268 0.093 0.239 0 0.435-0.186 0.435-0.417s-0.195-0.417-0.435-0.417c-0.235 0-0.425 0.177-0.432 0.404l-0.002 0.047-0.044 0.020-5.007 2.273-0.082-0.059 0.005-0.056 0.733-3.728 0.047-0.011c0.186-0.044 0.319-0.209 0.322-0.401 0-0.229-0.195-0.417-0.433-0.417-0.026 0-0.051 0.003-0.077 0.007l-0.046 0.008-2.283-3.027 0.031-0.046c0.046-0.067 0.072-0.147 0.072-0.229-0.002-0.010-0.003-0.020-0.003-0.029l-0.003-0.056 0.051-0.021 3.887-1.56 0.034 0.025c0.075 0.054 0.163 0.082 0.257 0.082 0.239 0 0.435-0.188 0.435-0.417-0.003-0.164-0.101-0.311-0.25-0.376l-0.039-0.018-0.409-3.35 0.159 0.157c2.606 2.579 4.040 6.024 4.040 9.696 0 1.611-0.276 3.187-0.819 4.683l-0.026 0.074-1.804-0.662-0.049 0.136-0.146-0.052 0.049-0.137-0.309-0.114-0.219 0.095c-0.417 0.934-0.96 1.805-1.614 2.59l0.217 0.188c0.633-0.762 1.166-1.602 1.583-2.5l0.031-0.064 4.15 1.521-0.033 0.075c-0.785 1.807-1.898 3.452-3.285 4.852-1.432 1.454-3.133 2.615-5.010 3.417-1.939 0.832-4.027 1.259-6.137 1.256zM15.997 0.164c-2.137 0-4.212 0.423-6.166 1.261-1.885 0.806-3.596 1.974-5.035 3.434-1.45 1.462-2.603 3.192-3.395 5.092-0.827 1.977-1.251 4.098-1.248 6.24 0 1.985 0.363 3.936 1.079 5.802l0.044 0.090c0.801 1.862 1.944 3.558 3.37 5 1.459 1.48 3.19 2.662 5.1 3.478 1.974 0.845 4.099 1.28 6.248 1.277 2.167 0 4.268-0.43 6.248-1.277 1.91-0.818 3.643-1.998 5.1-3.478 1.468-1.483 2.636-3.234 3.439-5.161l0.015-0.031c0.688-1.822 1.042-3.753 1.040-5.699 0.003-2.142-0.42-4.263-1.246-6.24-0.793-1.9-1.946-3.63-3.395-5.093-1.439-1.46-3.149-2.628-5.035-3.434-1.946-0.836-4.044-1.264-6.165-1.261zM15.997 31.99c-2.186 0-4.31-0.433-6.308-1.29-1.928-0.824-3.677-2.018-5.151-3.511-1.439-1.454-2.593-3.166-3.401-5.044l-0.046-0.093c-0.721-1.869-1.091-3.857-1.091-5.862 0-2.185 0.423-4.304 1.259-6.3 0.8-1.918 1.962-3.664 3.426-5.141 1.454-1.475 3.18-2.652 5.084-3.467 1.969-0.844 4.088-1.277 6.228-1.274 2.157 0 4.253 0.428 6.228 1.272 1.903 0.814 3.63 1.992 5.084 3.467 1.463 1.478 2.626 3.223 3.427 5.143 0.834 1.995 1.262 4.137 1.257 6.3 0 1.975-0.353 3.913-1.051 5.759l-0.016 0.034c-0.809 1.943-1.988 3.71-3.47 5.206-1.472 1.495-3.221 2.687-5.151 3.511-1.993 0.855-4.14 1.295-6.308 1.29v0z"></path>
<path fill="#dec685" d="M26.324 11.778c0.584 1.396 0.883 2.897 0.88 4.412h0.442c0-1.591-0.307-3.133-0.914-4.585l-0.407 0.173z"></path>
<path fill="#dec685" d="M27.281 16.113h0.286c-0.007-1.513-0.304-3.009-0.878-4.407l-0.263 0.113c0.558 1.362 0.849 2.821 0.855 4.294v0 0zM27.721 16.267h-0.595v-0.077c0.003-1.504-0.294-2.994-0.873-4.382l-0.029-0.070 0.548-0.234 0.029 0.072c0.612 1.462 0.924 3.032 0.921 4.616v0.075zM5.645 23.512l0.173 0.209c0.018 0.021 0.168 0.214-0.011 0.366-0.039 0.038-0.092 0.059-0.146 0.061-0.118 0-0.213-0.113-0.214-0.113l-0.173-0.209 0.371-0.314zM5.689 22.788l-1.751 1.481 0.334 0.404 0.623-0.527 0.173 0.209c0.011 0.013 0.267 0.317 0.621 0.317 0.159 0 0.311-0.061 0.451-0.18 0.446-0.378 0.231-0.88 0.056-1.091l-0.507-0.615z"></path>
<path fill="#dec685" d="M5.381 23.836l0.124 0.15c0.020 0.023 0.088 0.085 0.154 0.085 0.020 0 0.051-0.005 0.096-0.043 0.113-0.096 0.039-0.213 0.002-0.26l-0.123-0.149-0.253 0.216zM5.661 24.226c-0.154 0-0.268-0.136-0.273-0.141l-0.222-0.268 0.489-0.414 0.222 0.27c0.11 0.134 0.146 0.334-0.021 0.474-0.054 0.047-0.123 0.077-0.195 0.078v0zM4.904 24.035l0.222 0.27c0.003 0.003 0.239 0.289 0.561 0.289 0.139 0 0.275-0.054 0.401-0.162 0.401-0.338 0.204-0.791 0.046-0.984l-0.458-0.554-1.632 1.382 0.235 0.285 0.625-0.525zM4.261 24.782l-0.433-0.523 1.869-1.581 0.558 0.675c0.193 0.232 0.427 0.782-0.065 1.199-0.155 0.132-0.324 0.198-0.5 0.198-0.397 0-0.679-0.343-0.68-0.345l-0.123-0.149-0.625 0.527zM8.413 25.504l-1.285 1.913 1.048 0.719 0.276-0.414-0.615-0.424 1.007-1.499-0.432-0.296z"></path>
<path fill="#dec685" d="M7.236 27.395l0.921 0.633 0.191-0.285-0.616-0.424 1.007-1.499-0.304-0.209-1.199 1.784zM8.197 28.244l-1.176-0.808 1.37-2.041 0.559 0.383-1.007 1.501 0.615 0.424-0.361 0.541zM11.888 28.996c-0.002 0.002-0.056 0.167-0.222 0.167-0.038 0-0.075-0.007-0.111-0.020-0.242-0.080-0.193-0.28-0.181-0.317l0.482-1.488-0.495-0.165-0.481 1.488c-0.002 0.007-0.219 0.71 0.523 0.955 0.105 0.034 0.204 0.052 0.299 0.052 0.409 0 0.625-0.334 0.682-0.51l0.481-1.488-0.495-0.163-0.481 1.49z"></path>
<path fill="#dec685" d="M11.408 27.273l-0.456 1.413c-0.008 0.026-0.19 0.638 0.474 0.858 0.096 0.031 0.19 0.049 0.275 0.049 0.363 0 0.556-0.299 0.608-0.456l0.458-1.414-0.348-0.116-0.458 1.416c-0.062 0.17-0.25 0.258-0.422 0.196-0.002-0.002-0.005-0.002-0.007-0.003-0.258-0.085-0.267-0.301-0.232-0.414l0.458-1.416-0.35-0.113zM11.701 29.747c-0.103 0-0.213-0.020-0.324-0.056-0.818-0.27-0.576-1.045-0.572-1.053l0.505-1.562 0.643 0.213-0.505 1.56c-0.015 0.047-0.033 0.165 0.132 0.221 0.028 0.010 0.057 0.015 0.087 0.016 0.103 0 0.142-0.1 0.149-0.114l0.505-1.56 0.643 0.213-0.505 1.56c-0.065 0.195-0.304 0.563-0.757 0.563v0zM14.932 28.542l0.528 0.016-0.056 1.808 0.522 0.016 0.056-1.81 0.531 0.016 0.016-0.499-1.583-0.049-0.015 0.5z"></path>
<path fill="#dec685" d="M15.485 30.293l0.366 0.011 0.056-1.81 0.531 0.016 0.011-0.343-1.428-0.046-0.010 0.345 0.528 0.016-0.056 1.81zM16.002 30.465l-0.675-0.021 0.056-1.808-0.528-0.016 0.020-0.652 1.738 0.054-0.021 0.652-0.531-0.016-0.057 1.808zM19.816 29.416c-0.031 0.008-0.064 0.013-0.095 0.015-0.172 0-0.222-0.162-0.227-0.18l-0.209-0.796c0-0.002-0.015-0.062 0.002-0.129 0.021-0.090 0.087-0.149 0.198-0.178 0.031-0.008 0.064-0.013 0.096-0.013 0.172 0 0.222 0.162 0.227 0.18l0.209 0.796c0.007 0.038 0.044 0.24-0.201 0.306v0 0zM20.31 28.177c-0.049-0.19-0.26-0.549-0.698-0.549-0.087 0.002-0.172 0.013-0.255 0.036-0.394 0.105-0.53 0.353-0.576 0.541-0.049 0.201-0.003 0.376-0.002 0.383l0.209 0.798c0.049 0.19 0.26 0.549 0.698 0.549 0.080 0 0.165-0.011 0.255-0.036 0.757-0.203 0.579-0.917 0.577-0.924l-0.209-0.798z"></path>
<path fill="#dec685" d="M19.579 28.21c-0.026 0-0.051 0.003-0.077 0.011-0.108 0.029-0.132 0.080-0.142 0.121-0.011 0.047-0.002 0.093-0.002 0.093l0.209 0.796c0.007 0.023 0.054 0.155 0.229 0.111 0.16-0.043 0.159-0.152 0.144-0.214l-0.208-0.796c-0.005-0.013-0.038-0.123-0.154-0.123v0zM19.72 29.508c-0.175 0-0.271-0.128-0.302-0.237l-0.209-0.798c-0.002-0.005-0.020-0.082 0.002-0.167 0.029-0.118 0.114-0.196 0.253-0.234 0.038-0.010 0.077-0.016 0.116-0.016 0.188 0 0.278 0.149 0.302 0.237l0.208 0.796c0.036 0.146-0.010 0.337-0.253 0.401-0.038 0.011-0.077 0.016-0.116 0.018v0 0zM19.612 27.704c-0.074 0-0.154 0.011-0.235 0.033-0.356 0.096-0.479 0.316-0.52 0.484-0.044 0.183-0.003 0.343-0.003 0.345l0.209 0.798c0.044 0.17 0.232 0.492 0.623 0.492 0.074 0 0.154-0.011 0.235-0.034 0.675-0.181 0.53-0.805 0.522-0.831l-0.209-0.796c-0.043-0.168-0.231-0.491-0.621-0.491v0zM19.686 30.012c-0.484 0-0.716-0.397-0.772-0.607l-0.209-0.798c-0.033-0.139-0.031-0.283 0.002-0.42 0.051-0.209 0.2-0.482 0.631-0.597 0.095-0.026 0.188-0.039 0.276-0.039 0.486 0 0.718 0.397 0.772 0.607l0.209 0.798c0.069 0.275 0.026 0.842-0.633 1.019-0.095 0.025-0.188 0.038-0.276 0.038v0 0zM23.195 25.986l0.582 0.961-1.071-0.659-0.417 0.258 1.194 1.97 0.445-0.275-0.582-0.961 1.071 0.659 0.417-0.258-1.194-1.972-0.445 0.276z"></path>
<path fill="#dec685" d="M22.395 26.571l1.114 1.84 0.314-0.193-0.708-1.169 1.302 0.801 0.311-0.193-1.114-1.84-0.314 0.193 0.708 1.169-1.302-0.801-0.311 0.193zM23.458 28.625l-1.274-2.104 0.522-0.324 0.839 0.517-0.456-0.754 0.576-0.356 1.274 2.104-0.522 0.324-0.839-0.517 0.456 0.754-0.576 0.356zM25.904 23.631c-0.314 0.358-0.332 0.772-0.046 1.029 0.087 0.078 0.204 0.118 0.347 0.118 0.196 0 0.419-0.072 0.615-0.137 0.157-0.051 0.304-0.1 0.401-0.1 0.023 0 0.056 0.003 0.072 0.016 0.108 0.096-0.038 0.27-0.043 0.276l-0.409 0.466 0.366 0.329 0.409-0.468c0.172-0.196 0.26-0.417 0.247-0.621-0.010-0.157-0.082-0.304-0.201-0.407-0.087-0.078-0.203-0.118-0.345-0.118-0.196 0-0.42 0.074-0.616 0.137-0.157 0.052-0.306 0.1-0.402 0.1-0.023 0-0.056-0.003-0.072-0.018-0.106-0.096 0.041-0.268 0.047-0.276l0.406-0.464-0.37-0.33-0.406 0.469z"></path>
<path fill="#dec685" d="M26.949 25.296l0.252 0.226 0.356-0.409c0.159-0.181 0.24-0.381 0.229-0.566-0.008-0.137-0.072-0.265-0.175-0.355-0.072-0.065-0.172-0.098-0.294-0.098-0.183 0-0.401 0.072-0.592 0.134-0.244 0.080-0.466 0.142-0.551 0.067-0.118-0.106-0.057-0.268 0.039-0.384l0.358-0.409-0.255-0.227-0.355 0.406c-0.283 0.324-0.306 0.693-0.054 0.919 0.074 0.065 0.172 0.098 0.296 0.098 0.183 0 0.399-0.070 0.589-0.132 0.244-0.080 0.464-0.142 0.549-0.067 0.119 0.106 0.056 0.273-0.034 0.383l-0.358 0.415zM27.216 25.741l-0.482-0.432 0.459-0.525c0.025-0.029 0.088-0.126 0.052-0.165 0 0.002-0.008 0-0.023 0-0.085 0-0.234 0.047-0.378 0.095-0.203 0.067-0.43 0.141-0.638 0.141-0.162 0-0.296-0.046-0.399-0.137-0.32-0.288-0.304-0.744 0.039-1.136l0.458-0.523 0.484 0.433-0.456 0.522c-0.026 0.031-0.092 0.128-0.057 0.167 0.002-0.002 0.010 0 0.023 0 0.087 0 0.234-0.049 0.379-0.096 0.203-0.067 0.432-0.142 0.641-0.142 0.162 0 0.296 0.046 0.397 0.137 0.137 0.123 0.216 0.283 0.226 0.459 0.013 0.224-0.082 0.464-0.267 0.675l-0.459 0.528z"></path>
</svg>
