<!-- Generated by IcoMoon.io -->
<svg version="1.1" xmlns="http://www.w3.org/2000/svg" viewBox="0 0 32 32">
<title>pnk</title>
<path fill="#45464d" opacity="0.7" d="M25.402 2.578l-16.055-0.717-9.347 11.675 6.551 15.608 16.214 0.982 9.232-13.129z"></path>
<path fill="#656569" d="M31.996 17.014l-9.145-9.275-2.408 17.794z"></path>
<path fill="#000" d="M6.234 14.927l16.618-7.188-2.408 17.794z"></path>
<path fill="#000" d="M22.852 7.739l-13.505-5.861-3.113 13.050z"></path>
<path fill="#000" d="M6.234 14.927l0.317 14.234 13.893-3.628z"></path>
<path fill="#757578" d="M22.852 7.739l2.55-5.145-16.055-0.717z"></path>
<path fill="#6c6d70" d="M25.402 2.594l6.594 14.42-9.145-9.275z"></path>
<path fill="#6c6d70" d="M31.996 17.014l-9.232 13.129-2.321-4.61z"></path>
<path fill="#55565a" d="M22.764 30.143l-16.214-0.982 13.893-3.628z"></path>
<path fill="#55565a" d="M9.347 1.877l-9.347 11.679 6.234 1.37z"></path>
<path fill="#656569" d="M0 13.556l6.551 15.604-0.317-14.234z"></path>
<path fill="#151a22" opacity="0.7" d="M21.148 10.19l-1.683 12.756-9.929-7.679z"></path>
<path fill="#151a22" opacity="0.7" d="M19.806 7.648l-9.279-4-1.952 8.408z"></path>
<path fill="#23262e" opacity="0.7" d="M17.453 24.875l-10.087-7.204 0.246 9.762z"></path>
<path fill="#23262e" opacity="0.7" d="M30.301 16.982l-6.871-6.978-1.814 13.418z"></path>
<path fill="#43444b" opacity="0.7" d="M19.818 26.448l1.497 2.863-10.004-0.642z"></path>
<path fill="#34363d" opacity="0.7" d="M28.958 20.147l-7.446 5.552 1.481 2.891z"></path>
<path fill="#34363d" opacity="0.7" d="M25.438 4.61l3.937 8.444-5.382-5.473z"></path>
<path fill="#36383f" opacity="0.7" d="M23.636 3.188l-1.655 3.030-7.798-3.414z"></path>
<path fill="#3b3c43" opacity="0.7" d="M8.024 4.562l-2.194 9.303-4.428-0.939z"></path>
<path fill="#45464d" opacity="0.7" d="M5.56 15.505l0.194 9.996-4.642-10.939z"></path>
</svg>
