<!-- Generated by IcoMoon.io -->
<svg version="1.1" xmlns="http://www.w3.org/2000/svg" viewBox="0 0 32 32">
<title>pnt</title>
<path fill="#fff" d="M10.64 2.24h11.2v11.2h-11.2v-11.2z"></path>
<path fill="#d95e59" d="M27.024 4.976l-22.048 22.048c6.096-6.080 15.968-6.080 22.048 0 2.832-2.816 4.576-6.72 4.576-11.040 0-4.288-1.744-8.192-4.576-11.008zM18.24 31.44c-0.368 0.048-0.736 0.096-1.12 0.128 0.368-0.032 0.752-0.080 1.12-0.128z"></path>
<path fill="#f66" d="M26.816 4.768c-0.064-0.064-0.144-0.128-0.208-0.208-0.16-0.16-0.336-0.304-0.512-0.448-0.032-0.032-0.080-0.064-0.112-0.096-0.096-0.080-0.192-0.16-0.288-0.24v0c-0.16-0.128-0.304-0.24-0.464-0.352-0.208-0.16-0.432-0.304-0.64-0.448-0.112-0.080-0.224-0.144-0.32-0.208-0.336-0.208-0.672-0.4-1.008-0.576-0.112-0.064-0.224-0.112-0.336-0.176-0.224-0.112-0.464-0.224-0.688-0.32-0.32-0.144-0.656-0.272-0.976-0.384-0.16-0.048-0.304-0.112-0.464-0.16-0.096-0.032-0.176-0.048-0.272-0.080-0.656-0.192-1.328-0.352-2.016-0.464-0.096-0.016-0.176-0.032-0.256-0.048-0.192-0.032-0.368-0.048-0.56-0.064s-0.368-0.032-0.56-0.048c-0.16-0.016-0.336-0.016-0.512-0.032-0.080 0-0.16 0-0.24 0-0.304-0.016-0.608 0-0.896 0-0.096 0-0.176 0-0.272 0.016-0.112 0-0.224 0.016-0.336 0.016s-0.24 0.016-0.352 0.032c-0.128 0.016-0.256 0.016-0.368 0.048-0.096 0.016-0.176 0.016-0.272 0.032-0.048 0-0.096 0.016-0.144 0.016-0.112 0.016-0.208 0.032-0.32 0.048-0.128 0.016-0.24 0.048-0.368 0.064-0.096 0.016-0.192 0.032-0.288 0.064-0.064 0.016-0.112 0.032-0.176 0.032-0.096 0.016-0.144 0.016-0.192 0.032-0.064 0.016-0.128 0.032-0.208 0.048s-0.144 0.032-0.224 0.064c-0.032 0-0.080 0.016-0.128 0.032-0.064 0.016-0.128 0.032-0.192 0.048-0.080 0.016-0.144 0.048-0.208 0.064-0.048 0.016-0.080 0.032-0.128 0.048-0.096 0.032-0.192 0.064-0.272 0.096-0.032 0-0.048 0.016-0.080 0.032-0.112 0.032-0.208 0.080-0.32 0.112-0.128 0.032-0.24 0.080-0.352 0.128-0.176 0.064-0.352 0.144-0.528 0.224v0c-0.176 0.080-0.352 0.16-0.512 0.24-0.096 0.048-0.192 0.096-0.288 0.144s-0.192 0.096-0.288 0.144c-2.72 1.456-4.96 3.696-6.416 6.416-0.048 0.096-0.096 0.192-0.144 0.288s-0.096 0.192-0.144 0.288c-0.080 0.176-0.16 0.336-0.24 0.512v0c-0.080 0.176-0.144 0.352-0.224 0.528-0.064 0.128-0.112 0.24-0.16 0.368-0.032 0.096-0.064 0.192-0.096 0.288-0.016 0.064-0.048 0.128-0.064 0.192-0.016 0.048-0.032 0.112-0.048 0.16-0.032 0.080-0.048 0.16-0.080 0.24-0.016 0.032-0.016 0.064-0.032 0.096-0.032 0.096-0.064 0.208-0.080 0.304 0 0.016 0 0.032-0.016 0.048-0.032 0.096-0.048 0.192-0.080 0.288-0.016 0.048-0.032 0.096-0.032 0.144-0.016 0.080-0.032 0.144-0.048 0.224-0.016 0.032-0.016 0.064-0.032 0.112-0.016 0.112-0.048 0.208-0.064 0.32-0.032 0.128-0.048 0.24-0.064 0.368s-0.048 0.24-0.064 0.368c-0.032 0.192-0.048 0.368-0.064 0.56s-0.032 0.368-0.048 0.56c-0.016 0.16-0.016 0.336-0.032 0.512 0 0.080 0 0.16 0 0.24-0.016 0.304 0 0.608 0 0.896 0 0.096 0 0.176 0.016 0.272 0 0.112 0.016 0.224 0.016 0.352 0 0.112 0.016 0.24 0.032 0.352s0.016 0.224 0.032 0.352c0 0.016 0 0.016 0 0.032 0.016 0.080 0.016 0.16 0.032 0.24 0.016 0.064 0.016 0.144 0.032 0.208 0 0.032 0.016 0.064 0.016 0.096 0.016 0.096 0.032 0.208 0.048 0.304 0 0.016 0 0.032 0 0.048 0.016 0.112 0.048 0.24 0.064 0.352 0.016 0.096 0.048 0.208 0.064 0.304 0.656 2.928 2.144 5.536 4.192 7.584l22.080-22.080c-0.064-0.080-0.144-0.144-0.208-0.208zM18.736 10.48c-1.504 1.536-3.968 1.536-5.504 0-1.52-1.52-1.52-4 0-5.504s4-1.52 5.504 0 1.52 4 0 5.504z"></path>
<path fill="#fff4c7" d="M27.024 27.040c-1.232 1.232-2.672 2.256-4.256 3.024-0.336 0.16-0.688 0.32-1.040 0.448-0.112 0.048-0.24 0.096-0.352 0.128-0.096 0.032-0.192 0.064-0.272 0.096-0.064 0.016-0.128 0.048-0.192 0.064-0.048 0.016-0.112 0.032-0.16 0.048-0.080 0.032-0.16 0.048-0.24 0.080-0.032 0.016-0.064 0.016-0.096 0.032-0.096 0.032-0.208 0.064-0.304 0.080-0.016 0-0.032 0-0.048 0.016-0.096 0.032-0.192 0.048-0.288 0.080-0.048 0.016-0.096 0.032-0.144 0.032-0.080 0.016-0.144 0.032-0.224 0.048-0.032 0.016-0.064 0.016-0.112 0.032-0.112 0.016-0.208 0.048-0.32 0.064-0.128 0.032-0.24 0.048-0.368 0.064s-0.24 0.048-0.368 0.064c-0.368 0.048-0.736 0.096-1.12 0.128-0.16 0.016-0.336 0.016-0.512 0.032-0.080 0-0.16 0-0.24 0-0.304 0.016-0.608 0-0.896 0-0.096 0-0.176 0-0.272-0.016-0.112 0-0.224-0.016-0.352-0.016-0.112 0-0.24-0.016-0.352-0.032s-0.224-0.016-0.352-0.032c-0.016 0-0.016 0-0.032 0-0.080-0.016-0.16-0.016-0.24-0.032-0.064-0.016-0.144-0.016-0.208-0.032-0.032 0-0.064-0.016-0.096-0.016-0.096-0.016-0.208-0.032-0.304-0.048-0.016 0-0.032 0-0.048 0-0.112-0.016-0.24-0.048-0.352-0.064-3.040-0.624-5.776-2.128-7.888-4.256 6.096-6.112 15.952-6.112 22.048-0.016z"></path>
<path fill="#016273" d="M14.624 6.352c-0.768 0.768-0.768 2 0 2.768s2 0.768 2.768 0c0.768-0.768 0.768-2 0-2.768-0.784-0.768-2.016-0.768-2.768 0z"></path>
</svg>
