<!-- Generated by IcoMoon.io -->
<svg version="1.1" xmlns="http://www.w3.org/2000/svg" viewBox="0 0 32 32">
<title>poe</title>
<path fill="#393534" d="M32 16c0 8.838-7.162 16-16 16s-16-7.162-16-16 7.162-16 16-16 16 7.162 16 16z"></path>
<path fill="#f2f2f2" d="M30.139 16.137c0 7.732-6.27 14.002-14.002 14.002s-14.002-6.27-14.002-14.002 6.27-14.002 14.002-14.002 14.002 6.27 14.002 14.002z"></path>
<path fill="#fff" d="M21.434 12.105l-10.053 10.28-0.22-4.141 6.064-6.139 2.513-2.609 1.627-0.536 1.181 0.309 1.106 0.92-1.332 1.531-0.886 0.385z"></path>
<path fill="#e1ded9" d="M22.347 12.393l-2.012 2.074h3.049l0.343-0.35c0.24-0.247 0.433-0.549 0.563-0.872 0.13-0.33 0.192-0.68 0.192-1.030 0-0.7-0.261-1.367-0.728-1.875l-1.387 1.442c0.076 0.082 0.11 0.199 0.11 0.309-0.007 0.11-0.055 0.22-0.13 0.302z"></path>
<path fill="#e1ded9" d="M14.080 21.12l-1.641 1.703h3.049l1.655-1.703h-3.063z"></path>
<path fill="#e1ded9" d="M14.904 20.257h3.049l1.82-1.888h-3.049l-1.82 1.888z"></path>
<path fill="#e1ded9" d="M22.553 15.484h-3.049l-1.95 2.012h3.049l1.95-2.012z"></path>
<path fill="#393534" d="M23.561 9.593c-0.316-0.33-0.694-0.591-1.106-0.769s-0.858-0.268-1.305-0.268-0.893 0.089-1.305 0.268-0.79 0.446-1.106 0.776l-7.897 8.158c-0.076 0.089-0.124 0.206-0.117 0.323v4.203l-2.177 2.273h1.195l1.614-1.669h4.038c0.055 0 0.11-0.007 0.165-0.034 0.048-0.021 0.096-0.062 0.13-0.103l7.863-8.144c0.639-0.666 0.996-1.566 0.989-2.5 0.007-0.467-0.082-0.927-0.254-1.353-0.158-0.446-0.412-0.831-0.728-1.161zM18.973 10.541l0.343-0.35c0.488-0.501 1.147-0.783 1.833-0.783s1.346 0.282 1.833 0.783c0.014 0.014 0.014 0.027 0.027 0.027 0.467 0.508 0.728 1.188 0.728 1.895-0.007 0.707-0.275 1.38-0.755 1.882l-0.343 0.35h-3.049l1.998-2.074c0.076-0.076 0.124-0.185 0.124-0.295s-0.034-0.22-0.11-0.302c-0.014-0.014-0.014-0.014-0.014-0.027-0.076-0.082-0.185-0.124-0.295-0.124s-0.22 0.048-0.295 0.124l-2.026 2.101v-3.207zM12.189 22.015l1.641-1.703h3.049l-1.641 1.703h-3.049zM16.975 17.051l1.95-2.026h3.049l-1.95 2.026h-3.049zM19.358 17.737l-1.82 1.888h-3.049l1.82-1.888h3.049zM16.357 13.246l1.95-2.026v3.207l-1.95 2.026v-3.207zM13.871 15.821l1.82-1.888v3.207l-1.82 1.888v-3.207zM11.55 18.232l1.669-1.717v3.207l-1.669 1.717z"></path>
</svg>
