<!-- Generated by IcoMoon.io -->
<svg version="1.1" xmlns="http://www.w3.org/2000/svg" viewBox="0 0 32 32">
<title>poly</title>
<path fill="#3f4b80" d="M27.204 9.262l-1.316-0.956 3.078-1.553-1.762 2.51z"></path>
<path fill="#313a62" d="M19.38 6.112l3.833 1.97 0.46 3.178-4.293-5.149z"></path>
<path fill="#3f4b80" d="M23.673 11.261l-0.611 2.704-3.682-7.853 4.293 5.149z"></path>
<path fill="#4b5897" d="M23.062 13.965l-5.868-7.407 2.193-0.431 3.675 7.838z"></path>
<path fill="#5161a4" d="M23.062 13.965l-6.364-2.488 0.496-4.919 5.868 7.407z"></path>
<path fill="#4b5897" d="M17.194 6.558l-0.496 4.919-6.558 0.92 7.054-5.839z"></path>
<path fill="#4b5897" d="M23.062 13.965l-7.018 1.906 0.654-4.394 6.364 2.488z"></path>
<path fill="#3f4b80" d="M16.043 15.871l7.018-1.906-3.164 1.474-3.854 0.431z"></path>
<path fill="#3f4b80" d="M12.167 16.532l3.876-0.662 0.065 1.323-3.941-0.662z"></path>
<path fill="#313a62" d="M16.108 17.194l-0.065-1.323 3.854-0.431-3.79 1.755z"></path>
<path fill="#3f4b80" d="M10.139 12.397l6.558-0.92-0.654 4.394-5.904-3.473z"></path>
<path fill="#4b5897" d="M10.139 12.397l5.904 3.473-3.876 0.662-2.028-4.135z"></path>
<path fill="#313a62" d="M10.139 12.397l2.028 4.135-1.956 1.431-0.072-5.566z"></path>
<path fill="#5161a4" d="M6.81 13.512l0.784 4.71-2.157-3.243 1.373-1.467z"></path>
<path fill="#313a62" d="M2.948 15.008l2.488-0.029 0.014 1.517-2.502-1.489z"></path>
<path fill="#3f4b80" d="M3.15 16.036l-0.201-1.028 2.502 1.489-2.301-0.46z"></path>
<path fill="#4b5897" d="M3.15 16.036l-1.424 1.258 1.222-2.287 0.201 1.028z"></path>
<path fill="#313a62" d="M1.726 17.294l-0.101 0.762-1.625-0.266 1.726-0.496z"></path>
<path fill="#5161a4" d="M1.726 17.294l1.424-1.258-1.524 2.021 0.101-0.762z"></path>
<path fill="#3f4b80" d="M5.436 14.979l2.157 3.243-2.143 0.424-0.014-3.667z"></path>
<path fill="#3f4b80" d="M6.069 21.062l-1.56 3.229-0.23-2.488 1.791-0.741z"></path>
<path fill="#1f243e" d="M4.279 21.803l0.23 2.488-0.899 0.431 0.669-2.92z"></path>
<path fill="#3f4b80" d="M4.509 24.291l0.237 1.215-1.855 0.381 1.618-1.596z"></path>
<path fill="#313a62" d="M3.61 24.723l0.899-0.431-1.618 1.596 0.719-1.165z"></path>
<path fill="#313a62" d="M5.451 18.646l2.143-0.424-3.315 3.581 1.172-3.157z"></path>
<path fill="#4b5897" d="M7.594 18.222l1.46 1.661-4.775 1.92 3.315-3.581z"></path>
<path fill="#4b5897" d="M6.81 13.512l3.329-1.115-2.546 5.825-0.784-4.71z"></path>
<path fill="#3f4b80" d="M7.594 18.222l2.546-5.825 0.072 5.566-2.618 0.259z"></path>
<path fill="#313a62" d="M9.053 19.883l-1.46-1.661 2.618-0.259-1.158 1.92z"></path>
<path fill="#4b5897" d="M19.898 15.439l3.085-0.022-1.97 3.006-1.115-2.984z"></path>
<path fill="#5161a4" d="M19.898 15.439l3.164-1.474-0.079 1.453-3.085 0.022z"></path>
<path fill="#3f4b80" d="M19.293 18.1l0.604-2.661 1.115 2.984-1.719-0.324z"></path>
<path fill="#4b5897" d="M18.553 19.495l0.741-1.395 1.719 0.324-2.459 1.071z"></path>
<path fill="#3f4b80" d="M17.057 20.494l0.467-2.287 1.769-0.108-2.236 2.395z"></path>
<path fill="#313a62" d="M17.057 20.494l2.236-2.395-0.741 1.395-1.496 1z"></path>
<path fill="#495692" d="M25.888 8.306l2.934-2.057 0.144 0.503-3.078 1.553z"></path>
<path fill="#5d6cac" d="M28.822 6.249l2.402-0.122-2.258 0.626-0.144-0.503z"></path>
<path fill="#4f60a3" d="M27.283 10.945l-1.338-0.942 4.523 0.007-3.186 0.935z"></path>
<path fill="#495692" d="M25.945 10.003l3.89-0.503 0.633 0.511-4.523-0.007z"></path>
<path fill="#3f4b80" d="M29.835 9.499l1.783-1.56-1.151 2.071-0.633-0.511z"></path>
<path fill="#4f60a3" d="M30.468 10.010l1.151-2.071 0.381 0.18-1.532 1.891z"></path>
<path fill="#313a62" d="M31.619 7.939l0.316-0.899 0.065 1.079-0.381-0.18z"></path>
<path fill="#313a62" d="M23.673 11.261l0.431 3.782-1.043-1.079 0.611-2.704z"></path>
<path fill="#3f4b80" d="M24.104 15.044l-0.431-3.782 3.61-0.316-3.178 4.099z"></path>
<path fill="#4b5897" d="M27.283 10.945l-3.61 0.316-0.46-3.178 4.070 2.862z"></path>
<path fill="#313a62" d="M27.204 9.262l0.582 0.525-1.841 0.216 1.258-0.741z"></path>
<path fill="#3f4b80" d="M23.213 8.083l3.991 1.179-1.258 0.741-2.733-1.92z"></path>
<path fill="#313a62" d="M23.213 8.083l2.675 0.223 1.316 0.956-3.991-1.179z"></path>
<path fill="#3f4b80" d="M27.117 16.928l0.165-5.983 1.438 1.172-1.604 4.811z"></path>
<path fill="#495692" d="M27.117 16.928l0.165-5.983-3.178 4.099 3.013 1.884z"></path>
<path fill="#313a62" d="M28.721 12.117l-0.46-1.496-0.978 0.324 1.438 1.172z"></path>
<path fill="#313a62" d="M28.915 16.101l-1.798 0.827 1.604-4.811 0.194 3.984z"></path>
</svg>
