<!-- Generated by IcoMoon.io -->
<svg version="1.1" xmlns="http://www.w3.org/2000/svg" viewBox="0 0 32 32">
<title>poocoin</title>
<path fill="#825c3c" d="M26.728 21.542c-0.505-0.854-1.196-1.65-1.859-2.27-0.476-0.087-0.948-0.177-1.384-0.371-0.317-0.141-0.598-0.407-0.663-0.75-0.126-0.681 0.533-1.059 1.132-1.049 0.425 0.004 0.656 0.126 1.218 0.31 0.191-0.166-0.025-1.168-0.068-1.398-0.303-1.687-1.82-2.695-3.013-3.759-1.034-0.923-2.213-1.831-2.948-3.005-0.721-1.15-1.132-2.494-1.132-3.852 0-1.168 0.306-2.324 0.876-3.341-1.092 0.263-2.126 0.706-3.099 1.25-1.874 1.733-3.204 3.942-4.468 6.151-0.346 0.555-0.533 1.214-0.562 1.859 0.004 0 0.011 0.004 0.014 0.004 0.559 0.144 1.222 0.346 1.535 0.872 0.418 0.692-0.306 1.463-1.020 1.297-0.587-0.137-1.132-0.35-1.69-0.526-1.51 0.151-2.75 1.398-3.283 2.768-0.368 1.034-0.259 2.126 0.332 3.038 0.216-0.007 0.429 0 0.645 0.014 0.634 0.050 1.427 0.18 1.986 0.497 0.494 0.281 0.793 0.868 0.422 1.38-0.537 0.739-1.351 0.123-1.993-0.029-0.058-0.014-0.115-0.025-0.173-0.032-2.688 0.699-3.409 3.993-2.025 6.119 0.414 0.638 0.948 1.186 1.517 1.686 0.422 0.371 1.211 1.189 1.762 1.294 2.047 0.389 4.18 0.541 6.191 0.577 3.207 0.054 6.418-0.27 9.557-0.926 0.296-0.061 0.591-0.13 0.887-0.205 0.277-0.072 0.717-0.778 0.894-1.005 1.47-1.895 1.632-4.541 0.414-6.598z"></path>
<path fill="#000" d="M29.827 19.986c-0.544-0.613-1.196-1.146-1.924-1.575 0.256-0.31 0.775-1.546 0.825-1.744 0.155-0.62 0.169-1.276 0.068-1.906-0.386-2.418-2.559-3.495-4.443-4.652-1.355-0.832-2.703-2.040-3.16-3.614-0.292-0.998-0.108-2.076 0.382-2.977 0.252-0.465 0.587-0.89 0.984-1.24 0.346-0.306 0.778-0.494 0.904-0.98 0.461-1.777-3.391-1.261-4.263-1.113-3.002 0.515-5.719 2.263-7.989 4.22-1.023 0.883-2.058 1.748-2.854 2.85-0.389 0.541-0.724 1.124-0.951 1.751-0.058 0.159-0.411 1.964-0.321 1.946-0.447 0.079-0.879 0.22-1.294 0.418-1.694 0.818-2.843 2.602-3.218 4.407-0.281 1.362-0.108 2.908 0.742 4.047-0.050-0.065-0.879 0.623-0.962 0.695-1.506 1.319-2.259 3.438-1.845 5.409 0.202 0.962 0.674 1.856 1.341 2.58 1.733 1.881 4.407 2.53 6.832 2.944 3.784 0.649 7.737 0.667 11.557 0.339 3.683-0.314 8.339-0.915 10.454-4.342 1.586-2.559 0.944-5.431-0.865-7.463zM29.867 24.919c-0.166 1.348-0.941 2.515-2.076 3.25-0.973 0.631-2.115 0.948-3.25 1.186-3.139 0.656-6.35 0.984-9.557 0.926-3.016-0.050-6.295-0.371-9.171-1.344-1.517-0.515-2.991-1.535-3.485-3.063-0.796-2.443 1.315-4.595 3.542-5.186 0.598-0.159 1.24-0.191 1.841-0.047 0.645 0.151 1.459 0.768 1.993 0.029 0.371-0.512 0.072-1.099-0.422-1.38-0.559-0.321-1.355-0.447-1.986-0.497-0.375-0.029-0.757-0.025-1.132 0.018-0.13 0.014-1.092 0.296-1.128 0.259-2.195-2.108 0.083-6.328 2.897-6.386 1.225-0.025 2.209 0.541 3.359 0.807 0.713 0.166 1.438-0.605 1.020-1.297-0.317-0.526-0.98-0.728-1.535-0.872-0.148-0.036-1.892-0.35-1.892-0.382-0.047-1.924 1.6-3.456 2.908-4.649 2.335-2.126 5.315-4.288 8.778-4.487-1.355 0.89-1.488 3.2-1.24 4.634 0.523 2.995 2.966 4.569 5.416 5.95 0.703 0.396 1.431 0.854 1.888 1.532 0.414 0.613 0.523 1.402 0.386 2.119-0.058 0.303-0.169 0.591-0.285 0.872-0.032 0.076-0.324 0.84-0.396 0.822-1.546-0.364-1.744-0.627-2.382-0.634-0.598-0.007-1.258 0.368-1.132 1.049 0.061 0.342 0.346 0.609 0.663 0.75 0.926 0.407 2 0.353 2.948 0.793 2.029 0.937 3.719 2.861 3.427 5.229z"></path>
<path fill="#000" d="M13.099 24.418c0.223 0.187 0.494 0.332 0.724 0.44 1.503 0.706 3.359 0.71 4.84-0.054 0.393-0.202 0.894-0.432 1.128-0.829 0.27-0.461 0.011-1.132-0.508-1.276-0.205-0.058-0.425-0.032-0.627 0.036-0.598 0.198-0.98 0.569-1.604 0.724-0.559 0.137-1.153 0.126-1.708-0.022-0.544-0.148-1.15-0.605-1.697-0.692-0.411-0.065-0.807 0.252-0.951 0.623-0.148 0.407 0.094 0.793 0.404 1.049z"></path>
<path fill="#000" d="M11.996 18.274c-0.061 0.814 0.486 1.69 1.391 1.622 0.847-0.065 1.373-0.98 1.207-1.769-0.22-1.052-1.582-1.532-2.299-0.641-0.18 0.223-0.277 0.505-0.299 0.789z"></path>
<path fill="#000" d="M17.932 18.274c-0.061 0.814 0.486 1.69 1.391 1.622 0.847-0.065 1.373-0.98 1.207-1.769-0.22-1.052-1.582-1.532-2.299-0.641-0.18 0.223-0.277 0.505-0.299 0.789z"></path>
<path fill="#6b4b32" d="M23.485 29.564c0.087-0.014 0.173-0.032 0.259-0.047-0.087 0.014-0.173 0.029-0.259 0.047z"></path>
<path fill="#6b4b32" d="M24.523 19.204c-0.007 0-0.014-0.004-0.022-0.004 0.007 0.004 0.014 0.004 0.022 0.004z"></path>
<path fill="#6b4b32" d="M22.933 29.661c0.090-0.014 0.18-0.032 0.274-0.047-0.090 0.014-0.18 0.029-0.274 0.047z"></path>
<path fill="#6b4b32" d="M22.858 18.277c0.014 0.040 0.032 0.076 0.050 0.115-0.022-0.036-0.036-0.076-0.050-0.115z"></path>
<path fill="#6b4b32" d="M22.825 18.159c0.007 0.040 0.018 0.079 0.032 0.119-0.014-0.040-0.025-0.079-0.032-0.119z"></path>
<path fill="#6b4b32" d="M22.908 18.396c0.018 0.036 0.043 0.072 0.065 0.105-0.022-0.032-0.043-0.068-0.065-0.105z"></path>
<path fill="#6b4b32" d="M24.112 17.11c-0.004 0-0.011 0-0.018 0 0.007 0 0.014 0 0.018 0z"></path>
<path fill="#6b4b32" d="M24.35 19.168c-0.011-0.004-0.025-0.007-0.040-0.007 0.011 0.004 0.025 0.007 0.040 0.007z"></path>
<path fill="#6b4b32" d="M24.043 17.106c-0.004 0-0.007 0-0.014 0 0.004 0 0.007 0 0.014 0z"></path>
<path fill="#6b4b32" d="M24.173 19.128c-0.014-0.004-0.032-0.007-0.047-0.011 0.014 0.004 0.032 0.007 0.047 0.011z"></path>
<path fill="#6b4b32" d="M24.029 29.459c0.072-0.014 0.144-0.029 0.216-0.043-0.072 0.014-0.144 0.029-0.216 0.043z"></path>
<path fill="#6b4b32" d="M23.056 18.602c-0.029-0.029-0.054-0.061-0.079-0.097 0.025 0.032 0.050 0.065 0.079 0.097z"></path>
<path fill="#6b4b32" d="M23.766 19.009c0.018 0.007 0.040 0.014 0.058 0.018-0.018-0.004-0.036-0.011-0.058-0.018z"></path>
<path fill="#6b4b32" d="M23.589 18.944c0.022 0.007 0.040 0.018 0.061 0.025-0.018-0.007-0.040-0.018-0.061-0.025z"></path>
<path fill="#6b4b32" d="M20.569 1.805c-0.717 0.040-1.409 0.169-2.083 0.36 0.133-0.036 0.267-0.072 0.404-0.104-0.569 1.016-0.876 2.173-0.876 3.341 0 1.359 0.414 2.703 1.132 3.852 0.735 1.178 1.917 2.087 2.948 3.005 1.193 1.063 2.71 2.072 3.013 3.759 0.040 0.231 0.256 1.232 0.068 1.398-0.299-0.097-0.505-0.18-0.695-0.234 0.368 0.105 0.796 0.306 1.856 0.555 0.072 0.018 0.364-0.746 0.396-0.822 0.115-0.285 0.227-0.569 0.285-0.872 0.141-0.721 0.029-1.506-0.386-2.119-0.458-0.681-1.186-1.139-1.888-1.532-2.447-1.38-4.894-2.955-5.416-5.953-0.245-1.434-0.108-3.744 1.243-4.634z"></path>
<path fill="#6b4b32" d="M23.942 19.067c0.018 0.004 0.036 0.011 0.054 0.014-0.018-0.004-0.036-0.011-0.054-0.014z"></path>
<path fill="#6b4b32" d="M23.373 18.847c0.036 0.018 0.072 0.036 0.108 0.054-0.036-0.018-0.072-0.036-0.108-0.054z"></path>
<path fill="#6b4b32" d="M23.157 18.695c0.029 0.025 0.061 0.050 0.094 0.072-0.032-0.022-0.065-0.047-0.094-0.072z"></path>
<path fill="#6b4b32" d="M23.15 18.688c-0.029-0.025-0.061-0.054-0.087-0.083 0.025 0.029 0.054 0.058 0.087 0.083z"></path>
<path fill="#6b4b32" d="M23.261 18.778c0.032 0.022 0.068 0.043 0.101 0.065-0.032-0.022-0.068-0.043-0.101-0.065z"></path>
<path fill="#6b4b32" d="M22.822 17.859c0.050-0.31 0.288-0.533 0.584-0.656-0.299 0.123-0.533 0.346-0.584 0.656z"></path>
<path fill="#6b4b32" d="M17.701 2.422c0.079-0.029 0.155-0.054 0.234-0.083-0.079 0.025-0.159 0.054-0.234 0.083z"></path>
<path fill="#6b4b32" d="M17.521 2.49c-0.065 0.025-0.13 0.047-0.195 0.076v0c0.065-0.025 0.13-0.050 0.195-0.076z"></path>
<path fill="#6b4b32" d="M17.604 30.241c0.047-0.004 0.097-0.004 0.148-0.007-0.050 0.004-0.101 0.007-0.148 0.007z"></path>
<path fill="#6b4b32" d="M19.503 30.112c0.058-0.004 0.119-0.011 0.177-0.014-0.058 0.004-0.119 0.011-0.177 0.014z"></path>
<path fill="#6b4b32" d="M18.4 2.191c-0.105 0.029-0.205 0.061-0.31 0.094 0.105-0.032 0.205-0.065 0.31-0.094z"></path>
<path fill="#6b4b32" d="M18.133 30.216c0.043-0.004 0.087-0.004 0.13-0.007-0.043 0-0.087 0.004-0.13 0.007z"></path>
<path fill="#6b4b32" d="M25.416 29.153c-0.133 0.036-0.267 0.068-0.4 0.097 0.133-0.032 0.267-0.065 0.4-0.097z"></path>
<path fill="#6b4b32" d="M17.092 30.263c0.040 0 0.079-0.004 0.123-0.004-0.040 0-0.083 0.004-0.123 0.004z"></path>
<path fill="#6b4b32" d="M26.436 19.694c-0.501-0.231-1.034-0.324-1.568-0.422 0.667 0.62 1.355 1.416 1.859 2.27 1.218 2.058 1.056 4.703-0.411 6.602-0.177 0.227-0.613 0.93-0.89 1.005 0.832-0.22 1.643-0.515 2.364-0.977 1.139-0.735 1.91-1.903 2.076-3.25 0.292-2.371-1.398-4.296-3.431-5.229z"></path>
<path fill="#6b4b32" d="M24.184 17.121c-0.004 0-0.007 0-0.011 0 0.004-0.004 0.007-0.004 0.011 0z"></path>
<path fill="#6b4b32" d="M24.966 29.261c-0.119 0.029-0.241 0.054-0.364 0.079 0.123-0.025 0.245-0.050 0.364-0.079z"></path>
<path fill="#6b4b32" d="M24.324 17.142c-0.011 0-0.018-0.004-0.029-0.007 0.011 0.004 0.018 0.007 0.029 0.007z"></path>
<path fill="#6b4b32" d="M20.007 30.061c0.076-0.007 0.148-0.014 0.223-0.022-0.076 0.007-0.151 0.014-0.223 0.022z"></path>
<path fill="#6b4b32" d="M24.476 17.178c-0.014-0.004-0.032-0.007-0.047-0.011 0.018 0.004 0.032 0.007 0.047 0.011z"></path>
<path fill="#6b4b32" d="M24.263 17.132c-0.007 0-0.018-0.004-0.025-0.004 0.007 0 0.018 0 0.025 0.004z"></path>
<path fill="#6b4b32" d="M24.425 17.164c-0.025-0.007-0.050-0.011-0.072-0.018 0.022 0.007 0.047 0.014 0.072 0.018z"></path>
<path fill="#6b4b32" d="M20.537 30.004c0.079-0.007 0.162-0.018 0.241-0.029-0.079 0.011-0.159 0.022-0.241 0.029z"></path>
<path fill="#6b4b32" d="M22.378 29.751c0.097-0.014 0.191-0.029 0.285-0.047-0.094 0.018-0.187 0.032-0.285 0.047z"></path>
<path fill="#6b4b32" d="M21.077 29.939c0.090-0.011 0.18-0.025 0.27-0.036-0.090 0.014-0.18 0.025-0.27 0.036z"></path>
<path fill="#6b4b32" d="M22.119 29.791c-0.137 0.022-0.274 0.040-0.414 0.061 0.141-0.018 0.277-0.040 0.414-0.061z"></path>
<path fill="#936747" d="M9.708 20.67c0.022-0.032 0.043-0.065 0.061-0.097-0.018 0.032-0.040 0.065-0.061 0.097-0.288 0.4-0.659 0.404-1.038 0.299 0.378 0.105 0.746 0.101 1.038-0.299z"></path>
<path fill="#936747" d="M11.326 9.459c1.261-2.209 2.595-4.418 4.468-6.151 0.119-0.068 0.241-0.133 0.364-0.198-1.629 0.858-3.092 2.025-4.364 3.182-1.308 1.193-2.955 2.724-2.908 4.649 0 0.032 1.658 0.328 1.877 0.378 0.029-0.645 0.216-1.304 0.562-1.859z"></path>
<path fill="#936747" d="M9.283 19.29c-0.029-0.014-0.058-0.032-0.086-0.047 0.029 0.014 0.058 0.029 0.086 0.047 0.018 0.011 0.032 0.022 0.050 0.032-0.014-0.011-0.032-0.022-0.050-0.032z"></path>
<path fill="#936747" d="M11.294 13.492c0.227 0.054 0.458 0.011 0.649-0.094-0.195 0.104-0.422 0.148-0.649 0.094-0.587-0.137-1.132-0.35-1.69-0.526 0.555 0.177 1.103 0.393 1.69 0.526z"></path>
<path fill="#936747" d="M16.4 2.987c-0.079 0.040-0.162 0.079-0.241 0.123 0.083-0.043 0.162-0.083 0.241-0.123z"></path>
<path fill="#936747" d="M10.969 11.377c0.166 0.047 0.335 0.101 0.501 0.169-0.166-0.072-0.335-0.126-0.501-0.169z"></path>
<path fill="#936747" d="M17.326 2.566v0c-0.004 0-0.007 0.004-0.014 0.004 0.004 0 0.011-0.004 0.014-0.004z"></path>
<path fill="#936747" d="M17.103 2.659c-0.061 0.025-0.123 0.050-0.18 0.076 0.061-0.025 0.119-0.050 0.18-0.076z"></path>
<path fill="#936747" d="M16.739 2.825c-0.065 0.032-0.133 0.061-0.202 0.094 0.068-0.032 0.133-0.065 0.202-0.094z"></path>
<path fill="#936747" d="M8.793 29.704c-0.548-0.105-1.341-0.923-1.762-1.294-0.566-0.501-1.099-1.049-1.517-1.686-1.387-2.126-0.667-5.42 2.022-6.115-0.551-0.097-1.128-0.058-1.668 0.083-2.227 0.591-4.335 2.742-3.542 5.186 0.497 1.524 1.968 2.544 3.485 3.063 1.553 0.526 3.229 0.861 4.915 1.067-0.645-0.083-1.294-0.18-1.932-0.303z"></path>
<path fill="#936747" d="M11.82 30.119c-0.231-0.022-0.458-0.043-0.688-0.068 0.231 0.025 0.461 0.047 0.688 0.068z"></path>
<path fill="#936747" d="M10.732 30.004c0.13 0.014 0.256 0.029 0.386 0.043-0.13-0.011-0.259-0.029-0.386-0.043z"></path>
<path fill="#936747" d="M15.773 30.288c0.043 0 0.086 0 0.133 0-0.047 0-0.090 0-0.133 0z"></path>
<path fill="#936747" d="M12.443 30.169c0.144 0.011 0.288 0.022 0.429 0.029-0.144-0.007-0.285-0.018-0.429-0.029z"></path>
<path fill="#936747" d="M6.166 18.807c0.162-0.018 0.324-0.029 0.487-0.032-0.587-0.912-0.699-2.004-0.332-3.038 0.533-1.373 1.769-2.616 3.283-2.768-0.53-0.166-1.070-0.296-1.668-0.285-2.811 0.058-5.092 4.274-2.897 6.386 0.036 0.032 0.998-0.245 1.128-0.263z"></path>
<path fill="#936747" d="M14.35 30.267c0.043 0 0.090 0.004 0.133 0.004-0.047 0-0.090-0.004-0.133-0.004z"></path>
<path fill="#936747" d="M11.935 30.13c0.104 0.007 0.213 0.018 0.317 0.025-0.104-0.007-0.213-0.018-0.317-0.025z"></path>
<path fill="#936747" d="M13.15 30.216c0.072 0.004 0.148 0.007 0.223 0.011-0.076-0.004-0.151-0.007-0.223-0.011z"></path>
<path fill="#936747" d="M13.766 30.245c0.047 0 0.094 0.004 0.141 0.007-0.047-0.004-0.094-0.004-0.141-0.007z"></path>
</svg>
