<!-- Generated by IcoMoon.io -->
<svg version="1.1" xmlns="http://www.w3.org/2000/svg" viewBox="0 0 32 32">
<title>powr</title>
<path fill="#05bca9" d="M31.675 15.681c-0.894-0.862-1.738-1.77-2.632-2.632-0.262-0.202-0.355-0.557-0.223-0.862 0.367-1.244 0.686-2.489 1.037-3.733 0.096-0.303 0.047-0.43-0.287-0.511-1.276-0.319-2.536-0.702-3.829-1.022-0.367-0.079-0.511-0.271-0.59-0.607-0.319-1.244-0.67-2.457-0.973-3.701-0.096-0.367-0.207-0.447-0.575-0.335-1.244 0.351-2.504 0.67-3.748 0.99-0.207 0.064-0.399 0.111-0.59-0.079-1.022-1.051-2.090-2.056-3.079-3.157v0c-0.113 0.003-0.225-0.008-0.335-0.032 0.006 0.085-0.037 0.166-0.111 0.207-0.958 0.941-1.914 1.882-2.856 2.839-0.181 0.221-0.485 0.3-0.75 0.192-1.244-0.351-2.489-0.67-3.733-1.022-0.351-0.096-0.494-0.032-0.59 0.335-0.319 1.244-0.686 2.489-1.005 3.733-0.033 0.261-0.234 0.47-0.494 0.511-1.26 0.319-2.489 0.67-3.748 0.973-0.415 0.096-0.526 0.239-0.399 0.67 0.367 1.229 0.654 2.489 1.005 3.733 0.113 0.265 0.035 0.571-0.192 0.75-0.941 0.909-1.851 1.851-2.792 2.76-0.255 0.239-0.239 0.383 0 0.622 0.926 0.909 1.819 1.834 2.743 2.743 0.228 0.169 0.314 0.471 0.207 0.734-0.351 1.229-0.654 2.457-1.022 3.686-0.128 0.43-0.064 0.607 0.399 0.718 1.244 0.303 2.457 0.67 3.701 0.973 0.367 0.079 0.511 0.271 0.59 0.607 0.319 1.26 0.67 2.489 0.99 3.748 0.079 0.319 0.192 0.399 0.511 0.303 1.229-0.351 2.472-0.638 3.701-0.99 0.326-0.123 0.695-0.019 0.909 0.255 0.877 0.909 1.77 1.787 2.649 2.696 0.271 0.287 0.43 0.303 0.718 0.015 0.877-0.926 1.802-1.802 2.696-2.728 0.201-0.265 0.553-0.362 0.862-0.239 1.229 0.367 2.457 0.67 3.686 1.022 0.351 0.096 0.494 0.032 0.59-0.335 0.303-1.229 0.686-2.457 0.99-3.686 0.079-0.367 0.255-0.511 0.607-0.59 1.244-0.303 2.457-0.654 3.701-0.958 0.367-0.079 0.479-0.223 0.367-0.607-0.351-1.244-0.67-2.521-1.022-3.78-0.113-0.265-0.035-0.571 0.192-0.75 0.909-0.877 1.802-1.802 2.728-2.679 0.333-0.317 0.301-0.477-0.003-0.781zM8.018 14.964c0 0.001 0 0.003 0 0.004-0.005 0.541-0.448 0.975-0.99 0.97h-0.99c-0.415 0-0.83 0-1.26 0.015-0.223 0-0.287-0.079-0.239-0.303 0.111-0.462 0.223-0.83 0.83-0.926 0.782-0.111 1.531-0.383 2.297-0.607 0.271-0.064 0.383-0.032 0.351 0.255-0.014 0.192 0.001 0.399 0.001 0.591zM7.97 23.667c-0.658-0.62-1.247-1.192-1.851-1.764 0.511-0.287 1.005-0.558 1.484-0.845 0.271-0.16 0.367-0.128 0.367 0.207-0.015 0.778 0 1.575 0 2.402zM6.2 21.568c-0.192 0.111-0.239 0.064-0.287-0.128-0.143-0.575-0.319-1.148-0.462-1.723-0.032-0.128-0.047-0.287 0.079-0.367 0.128-0.079 0.223 0.032 0.319 0.079 0.654 0.367 1.308 0.75 2.059 1.165-0.607 0.335-1.166 0.639-1.708 0.974zM4.987 13.017c-0.16 0.399-0.718 0.462-1.084 0.718v0c-0.367-0.941-0.367-0.941 0.271-1.595 0.447-0.447 0.894-0.877 1.34-1.324 0.041-0.026 0.083-0.046 0.128-0.064-0.225 0.798-0.369 1.563-0.655 2.265zM5.944 10.577c0.032-0.143 0.143-0.111 0.223-0.064 0.543 0.319 1.069 0.638 1.674 0.99v0c-0.862 0.494-1.644 0.941-2.536 1.42 0.224-0.846 0.431-1.596 0.639-2.345zM4.269 14.772c-0.175 0-0.175-0.175-0.207-0.287-0.175-0.526-0.143-0.558 0.814-0.958-0.090 0.367-0.175 0.67-0.248 0.958-0.024 0.175-0.182 0.302-0.358 0.287zM3.312 15.043c-0.607 0.16-1.212 0.303-1.819 0.447l-0.047-0.064 2.202-1.292c0.367 0.686 0.351 0.734-0.335 0.909zM3.775 15.171c0.415-0.096 0.287 0.335 0.367 0.511 0.079 0.175-0.032 0.255-0.223 0.255h-2.601c0-0.032-0.015-0.079-0.015-0.111 0.813-0.207 1.626-0.447 2.472-0.654zM4.4 16.68c0.159 0.603 0.317 1.206 0.498 1.856-1.21-0.589-1.054-0.257-0.498-1.856zM3.989 18.393c0.399-0.015 1.116 0.654 1.116 1.022v0c-0.102 0.271-0.319 0.526-0.526 0.814-0.015 0-0.032 0.015-0.047 0.015-0.16 0.032-0.941-0.926-0.909-1.101 0.015-0.032 0.015-0.064 0.032-0.096 0.11-0.224-0.017-0.639 0.334-0.654zM4.34 21.025c0.16-0.239 0.271-0.335 0.494-0.064 0.206 0.236 0.424 0.458 0.654 0.67 0.079 0.096 0.239 0.175 0.032 0.303-0.909 0.511-1.834 1.037-2.743 1.548-0.026-0.023-0.046-0.050-0.064-0.079 0.535-0.798 1.078-1.58 1.627-2.377zM5.227 19.813v0c0.143 0.511 0.271 1.022 0.415 1.563-1.037-0.734-1.069-0.83-0.415-1.563zM5.61 18.712c-0.175 0.271-0.367 0.16-0.43-0.064-0.223-0.766-0.43-1.531-0.622-2.297-0.079-0.255 0.143-0.192 0.271-0.192h2.536c-0.623 0.91-1.182 1.74-1.755 2.553zM7.874 13.831c-0.973 0.255-1.946 0.511-2.967 0.782v0c0.064-0.926 0.383-1.531 1.229-1.866 0.638-0.255 1.212-0.67 1.898-1.052v1.914c0.014 0.104-0.055 0.202-0.16 0.223zM8.018 8.933v2.377c-0.59-0.335-1.116-0.654-1.627-0.958-0.175-0.096-0.223-0.192-0.047-0.367 0.43-0.415 0.845-0.83 1.26-1.26 0.078-0.114 0.227-0.154 0.351-0.096 0.128 0.049 0.064 0.192 0.064 0.303zM6.247 9.587c0.16-1.133 0.239-1.212 1.069-0.958-0.367 0.335-0.734 0.654-1.069 0.958zM7.891 3.446c0.032 0.015 0.079 0.015 0.111 0.032v2.121c0 0.877 0 0.877-0.973 1.005 0.287-1.069 0.574-2.121 0.862-3.158zM6.837 7.258c0.064-0.415 0.383-0.367 0.654-0.479 0.462-0.192 0.558 0.015 0.511 0.415v0.192c0 0.862-0.43 1.18-1.229 0.894-0.096-0.032-0.16-0.064-0.143-0.16 0.064-0.288 0.16-0.575 0.207-0.862zM3.168 7.913c1.139-0.287 2.281-0.59 3.478-0.894-0.096 0.383-0.175 0.686-0.255 1.005-0.064 0.255-0.255 0.207-0.43 0.192-0.926-0.079-1.866-0.143-2.807-0.223 0.012-0.026 0.017-0.054 0.014-0.081zM5.976 8.454c0.223 0.015 0.271 0.096 0.223 0.319-0.287 1.308-0.271 1.308-1.404 0.638-0.59-0.351-1.197-0.702-1.851-1.084 1.071-0.095 2.060 0.081 3.033 0.128zM2.514 8.535c-0.015-0.047-0.015-0.079-0.032-0.128 0.047 0 0.079 0.015 0.128 0.015v0c0.958 0.558 1.93 1.133 2.919 1.691 0.096 0.064 0.239 0.096 0.079 0.271-0.654 0.67-1.292 1.356-1.93 2.042-0.061-0.020-0.12-0.046-0.175-0.079-0.334-1.276-0.653-2.536-0.988-3.812zM3.344 12.969c0.047 0.047 0.096 0.064 0.096 0.079 0.223 0.814 0.223 0.814-0.511 1.229-0.543 0.319-1.101 0.622-1.706 0.958 0.734-0.799 1.42-1.532 2.121-2.266zM0.76 16.159v0c1.022 0 2.026 0 3.047-0.015 0.271 0 0.383 0.047 0.271 0.367-0.16 0.43-0.143 1.116-0.43 1.26-0.335 0.175-0.798-0.351-1.197-0.558-0.575-0.303-1.133-0.654-1.706-0.973 0.005-0.027 0.012-0.054 0.015-0.081zM1.159 16.862l0.015-0.015c0.814 0.303 1.516 0.814 2.265 1.229 0.207 0.111 0.16 0.399-0.143 1.005-0.732-0.736-1.467-1.438-2.137-2.218zM3.455 19.685c0.047 0.015 0.096 0.015 0.111 0.032 0.83 0.798 0.83 0.798 0.175 1.738-0.351 0.511-0.718 1.005-1.069 1.499l-0.079-0.064 0.862-3.206zM2.482 23.944c1.116-0.638 2.121-1.212 3.143-1.787 0.128-0.079 0.192-0.064 0.239 0.096 0.239 0.909 0.479 1.802 0.75 2.807-1.42-0.398-2.713-0.749-4.132-1.116zM7.929 28.602c-0.032 0-0.064 0.015-0.096 0.015-0.287-1.037-0.558-2.074-0.845-3.143h-0.006c0.111-0.015 0.143-0.032 0.182-0.015 0.766 0.175 0.766 0.175 0.766 0.973v2.17zM7.955 25.348c-0.111 0.015-0.128 0.032-0.128 0.032-0.702-0.047-1.084-0.399-1.18-1.116-0.096-0.607-0.287-1.18-0.351-1.819 0.511 0.511 1.052 0.99 1.516 1.548 0.334 0.398 0.015 0.894 0.143 1.356zM8.018 17.692l-0.047 2.234c0 0.287-0.047 0.415-0.351 0.223-0.543-0.319-1.084-0.638-1.644-0.926-0.239-0.128-0.239-0.239-0.096-0.447 0.558-0.798 1.116-1.595 1.659-2.409 0.063-0.141 0.215-0.22 0.367-0.192 0.223 0.032 0.111 0.207 0.111 0.319 0.017 0.399 0 0.799 0 1.198zM21.737 10.162c-0.479-0.319-1.069-0.447-1.276-1.069-0.083-0.178-0.077-0.385 0.015-0.558 0.415-0.686 0.814-1.372 1.197-2.059 0.16-0.271 0.255-0.223 0.462-0.047 0.351 0.303 0.479 0.607 0.319 1.069-0.27 0.877-0.477 1.77-0.717 2.664zM23.732 22.19v0c0 1.324 0 1.324-1.324 1.212-0.638-0.047-1.292-0.111-1.93-0.16-0.16-0.015-0.287-0.032-0.335-0.223-0.047-0.192 0.128-0.207 0.239-0.271 1.005-0.558 1.994-1.116 2.983-1.691 0.303-0.175 0.399-0.096 0.367 0.239-0.017 0.303 0 0.59 0 0.894zM17.972 26.225c-0.543-0.399-1.165-0.702-1.787-1.069 0.575-0.319 1.101-0.622 1.644-0.941 0.093-0.072 0.227-0.058 0.303 0.032 0.702 0.702 1.42 1.404 2.153 2.138v0c-0.096 0.079-0.111 0.096-0.111 0.096-0.782 0.351-1.499 0.287-2.202-0.256zM18.626 26.896c-0.83 0.207-1.563 0.415-2.297 0.607-0.175 0.047-0.239 0-0.239-0.192v-1.914c0.877 0.509 1.659 0.972 2.536 1.499zM10.523 26.114c-0.223-0.064-0.111-0.192-0.047-0.303 0.415-0.718 0.845-1.436 1.292-2.217v0c0.462 0.973 0.894 1.866 1.308 2.76 0.16 0.319 0 0.43-0.255 0.367-0.767-0.175-1.532-0.399-2.298-0.607zM12.629 26.928c-1.052 0.702-1.084 0.686-2.010-0.543 0.685 0.191 1.324 0.351 2.010 0.543zM10.21 22.142c0.015-0.079 0.064-0.16 0.16-0.096 0.335 0.207 0.734 0.303 0.973 0.654s0.335 0.702 0.032 1.116c-0.364 0.534-0.689 1.095-0.973 1.674-0.239 0.462-0.43 0.43-0.702 0.064-0.111-0.16-0.335-0.239-0.287-0.494v0c0.262-0.972 0.518-1.946 0.796-2.919zM8.242 6.891c-0.003-0.013-0.005-0.027-0.005-0.040-0.014-0.175 0.118-0.329 0.293-0.343 0.351-0.064 0.702-0.16 1.052-0.255v0c0.042-0.008 0.086-0.008 0.128 0-0.029 0.019-0.053 0.047-0.064 0.079-0.447 0.43-0.894 0.877-1.404 1.372 0-0.303 0.015-0.558 0-0.814zM8.353 8.009c0.575-0.607 1.165-1.197 1.802-1.851v0c0.494 0.862 0.926 1.627 1.436 2.489-1.133-0.079-2.17-0.143-3.19-0.255-0.303-0.032-0.177-0.256-0.049-0.383zM13.792 5.759c0.59 0.462 1.292 0.798 2.010 1.212-0.575 0.335-1.084 0.622-1.595 0.926-0.128 0.079-0.223 0.128-0.351 0-0.702-0.718-1.42-1.42-2.17-2.17 0.767-0.303 1.404-0.511 2.106 0.032zM13.362 5.249v0c0.814-0.223 1.531-0.415 2.265-0.607 0.175-0.047 0.271-0.032 0.271 0.192v1.898c-0.862-0.495-1.659-0.973-2.536-1.484zM15.299 11.932c-0.16-0.192-0.415 0.015-0.607 0.064-0.798 0.192-0.782 0.207-1.197-0.511-0.351-0.638-0.702-1.276-1.084-1.898-0.143-0.255-0.128-0.383 0.143-0.494 0.16-0.064 0.303-0.143 0.447-0.207 0.335-0.143 0.638-0.526 0.958-0.462 0.367 0.079 0.59 0.511 0.877 0.782 0.887 0.894 1.764 1.802 2.674 2.664 0.343 0.315 0.554 0.748 0.59 1.212v0c-1.031-0.175-2.042-0.335-3.040-0.526 0-0.032-0.015-0.064 0-0.096 0.047-0.192 0.415-0.305 0.239-0.527zM8.257 9.906l0.006-0.16c0-1.133 0-1.133 1.101-1.052 0.702 0.047 1.42 0.128 2.121 0.175 0.16 0.015 0.297 0.015 0.344 0.207s-0.128 0.207-0.223 0.271l-3.015 1.723c-0.319 0.192-0.351 0.047-0.335-0.223 0.017-0.32 0-0.622 0-0.942zM9.262 10.975c0.845-0.415 1.627-0.894 2.425-1.372 0.303-0.192 0.415-0.096 0.558 0.175 0.383 0.734 0.798 1.452 1.229 2.153 0.175 0.287 0.128 0.367-0.192 0.447-1.516 0.383-3.031 0.798-4.546 1.212-0.335 0.096-0.462 0.064-0.415-0.303 0.015-0.223 0-0.462 0-0.83v0c-0.271-0.748 0.224-1.147 0.941-1.482zM8.274 15.601c0.015-0.207 0.047-0.43 0.047-0.638 0.015-1.005 0.015-1.005 0.958-1.26 1.229-0.319 2.457-0.638 3.686-0.99 0.494-0.143 0.973-0.207 1.499 0.047v0c-0.67 0.798-1.324 1.595-1.962 2.393-0.223-0.16-0.128-0.575-0.399-0.543-0.239 0.032-0.175 0.383-0.255 0.59-0.058 0.155-0.1 0.315-0.128 0.479 0 0.004-0.001 0.009-0.001 0.013-0.029 0.181-0.2 0.303-0.382 0.274-0.909-0.015-1.819-0.032-2.728-0.015-0.287 0-0.366-0.111-0.334-0.351zM11.671 5.439c-0.163 0.059-0.343-0.018-0.415-0.175-0.111-0.175 0.064-0.239 0.143-0.319 0.383-0.415 0.399-0.415 1.276 0.223-0.367 0.096-0.702 0.16-1.005 0.271zM11.31 4.658c-0.207 0.303-0.399 0.319-0.67 0.015-0.399-0.447-0.845-0.862-1.276-1.292 0.015-0.032 0.032-0.079 0.047-0.111 0.744 0.287 1.366 0.798 2.042 1.133 0.017 0.142-0.095 0.174-0.143 0.255zM11.911 6.301c0.607 0.59 1.197 1.18 1.851 1.819-0.298 0.197-0.607 0.379-0.926 0.543-0.445 0.201-0.97 0.019-1.197-0.415-0.415-0.734-0.83-1.452-1.244-2.185v0c0.909-0.367 0.909-0.352 1.516 0.238zM8.225 16.574c0-0.303 0.047-0.43 0.399-0.415 0.862 0.032 1.723 0.015 2.585 0.015 0.223 0 0.351 0.032 0.271 0.303-0.462 1.674-0.909 3.35-1.372 5.073-0.287-0.175-0.526-0.303-0.75-0.43-1.18-0.67-1.18-0.67-1.148-2.010 0.032-0.846 0.032-1.691 0.015-2.537zM12.039 23.546c-0.079-0.143-0.128-0.271 0.015-0.399 0.111-0.111 0.207 0 0.303 0.047 1.101 0.638 2.185 1.292 3.334 1.962-0.686 0.399-1.308 0.766-1.914 1.133-0.207 0.143-0.351 0.192-0.479-0.111-0.398-0.877-0.83-1.755-1.26-2.632zM11.735 22.509c-0.128-0.079-0.239-0.175-0.367-0.255-0.335-0.239-0.894-0.287-0.973-0.67-0.079-0.351 0.16-0.782 0.271-1.18 0.319-1.148 0.654-2.281 0.926-3.446 0.093-0.49 0.374-0.924 0.782-1.212 0.319 0.877 0.622 1.738 0.973 2.553 0.096 0.287 0.079 0.399-0.255 0.335-0.111-0.015-0.255-0.064-0.319 0.064s0.079 0.192 0.143 0.287c0.223 0.303 0.734 0.479 0.702 0.877-0.032 0.335-0.335 0.654-0.526 0.99-0.303 0.511-0.607 1.022-0.894 1.548-0.128 0.238-0.256 0.269-0.463 0.11zM13.617 18.489c-0.335-0.909-0.67-1.834-1.005-2.743-0.088-0.164-0.055-0.366 0.079-0.494 0.654-0.75 1.292-1.516 1.914-2.281 0.093-0.142 0.268-0.207 0.43-0.16 0.958 0.175 1.93 0.351 2.887 0.511 0.215 0.020 0.394 0.174 0.447 0.383 0.319 0.877 0.638 1.77 0.973 2.649 0.099 0.192 0.059 0.425-0.096 0.575-0.622 0.718-1.229 1.467-1.851 2.202-0.111 0.128-0.192 0.287-0.367 0.207v0c-1.052-0.175-2.059-0.351-3.079-0.526-0.204-0.035-0.268-0.163-0.332-0.321zM16.935 19.574c0 0.271-0.43 0.399-0.255 0.607s0.479 0.015 0.686-0.079c0.558-0.255 0.845-0.047 1.101 0.462 0.319 0.67 0.718 1.308 1.101 1.946 0.16 0.271 0.128 0.415-0.16 0.526-0.186 0.076-0.366 0.16-0.543 0.255-0.877 0.479-0.877 0.479-1.563-0.207-0.909-0.909-1.802-1.819-2.711-2.711-0.351-0.351-0.686-0.702-0.686-1.324 1.020 0.175 2.025 0.351 3.030 0.526zM20.302 26.704c0.164-0.061 0.347 0.006 0.43 0.16 0.096 0.16-0.079 0.223-0.16 0.319-0.383 0.415-0.383 0.415-1.26-0.223 0.367-0.096 0.686-0.16 0.99-0.256zM20.095 25.923c-0.511-0.59-1.084-1.116-1.644-1.659-0.223-0.223-0.207-0.319 0.079-0.447 0.351-0.16 0.622-0.479 1.069-0.383v0c0.383-0.096 0.575 0.128 0.75 0.462 0.351 0.654 0.718 1.292 1.101 1.93 0.111 0.207 0.096 0.287-0.143 0.383-0.479 0.191-0.846 0.143-1.212-0.287zM22.716 21.153c-0.83 0.415-1.627 0.909-2.425 1.372-0.255 0.143-0.383 0.16-0.543-0.128-0.399-0.766-0.83-1.516-1.276-2.249-0.16-0.255-0.064-0.335 0.175-0.399 1.563-0.399 3.111-0.798 4.658-1.229 0.303-0.079 0.399-0.032 0.367 0.271-0.015 0.239 0 0.494 0 0.877h-0.006c0.271 0.75-0.218 1.15-0.951 1.485zM23.715 16.591c-0.015 0.192-0.047 0.399-0.047 0.59-0.015 1.005-0.015 0.99-1.005 1.26-1.197 0.319-2.393 0.638-3.59 0.973-0.511 0.143-1.022 0.255-1.548-0.047l1.978-2.361c0.223 0.143 0.111 0.575 0.383 0.526 0.271-0.047 0.223-0.415 0.287-0.638 0.207-0.718 0.207-0.718 0.941-0.718s1.484 0.015 2.234 0c0.32 0 0.399 0.127 0.367 0.415zM20.365 15.362c-0.111 0.447-0.351 0.734-0.734 1.037-0.367-0.99-0.702-1.93-1.052-2.871v0c0.223-0.16 0.565 0.128 0.638-0.143 0.079-0.207-0.239-0.351-0.399-0.511-0.526-0.543-0.526-0.526-0.143-1.197 0.367-0.622 0.75-1.212 1.069-1.851 0.192-0.383 0.383-0.351 0.67-0.128 0.092 0.074 0.188 0.143 0.287 0.207 0.287 0.223 0.814 0.287 0.894 0.622s-0.143 0.734-0.239 1.101c-0.317 1.246-0.685 2.49-0.988 3.734zM21.466 6.030c0.207 0.047 0.111 0.192 0.047 0.303-0.415 0.718-0.83 1.436-1.292 2.217v0c-0.479-0.973-0.894-1.882-1.308-2.76-0.143-0.303-0.015-0.43 0.255-0.367 0.767 0.177 1.532 0.399 2.298 0.607zM19.376 5.2c1.148-0.702 0.702-0.862 2.042 0.558-0.75-0.191-1.372-0.366-2.042-0.558zM19.95 8.55c0.064 0.128 0.143 0.271 0.015 0.415-0.16 0.175-0.271 0-0.383-0.064-1.084-0.622-2.153-1.26-3.286-1.93 0.718-0.415 1.388-0.798 2.026-1.18 0.207-0.128 0.287-0.047 0.367 0.128 0.415 0.877 0.845 1.755 1.26 2.632zM22.231 5.982c-0.223 0-0.128-0.175-0.064-0.287 0.399-0.686 0.798-1.356 1.197-2.042 0.044 0.003 0.087 0.014 0.128 0.032v0c-0.201 0.75-0.383 1.531-0.638 2.281-0.113 0.366-0.399 0.015-0.623 0.015zM23.029 3.733c-0.383 0.67-0.782 1.34-1.165 2.010-0.43-0.447-0.814-0.862-1.229-1.292 0.909-0.526 1.834-1.148 2.824-1.627-0.015 0.366-0.27 0.622-0.43 0.909zM20.18 3.478c0.845-0.239 1.691-0.447 2.553-0.67l0.047 0.096h-0.006c-0.759 0.43-1.516 0.926-2.29 1.324-0.319 0.16-0.526-0.255-0.654-0.511s0.223-0.209 0.351-0.239zM19.28 3.686c0.351 0.111 0.526 0.447 0.782 0.654 0.013 0.045 0 0.093-0.032 0.128-0.338 0.228-0.696 0.425-1.069 0.59-0.271 0.096-0.926-0.702-0.845-0.99 0-0.047 0.079-0.096 0.128-0.111 0.334-0.096 0.668-0.177 1.036-0.271zM19.073 3.446c-0.009 0.008-0.015 0.019-0.015 0.032-1.052 0.367-1.069 0.367-1.548-0.638-0.255-0.543-0.511-1.069-0.782-1.659 0.399 0.159 2.090 1.818 2.345 2.265zM16.154 0.894c0.047 0 0.079-0.015 0.128-0.015 0.43 0.909 0.862 1.819 1.292 2.696 0.079 0.16 0.096 0.255-0.111 0.335-1.244 0.494-1.308 0.462-1.308-0.845v-2.171zM16.441 4.658c0.558 0.175 1.116 0.319 1.674 0.462 0.128 0.032 0.255 0.064 0.287 0.223 0.015 0.096-0.047 0.143-0.128 0.192-0.702 0.399-1.388 0.814-2.153 1.26v-1.897c-0.015-0.256 0.081-0.32 0.32-0.239zM16.4 7.306c1.022 0.622 2.042 1.229 3.079 1.819 0.255 0.143 0.271 0.255 0.128 0.494-0.462 0.734-0.877 1.484-1.308 2.234-0.111 0.207-0.192 0.303-0.415 0.079-1.229-1.212-2.457-2.409-3.748-3.669h-0.006c0.638-0.367 1.165-0.654 1.681-0.973 0.179-0.123 0.417-0.117 0.59 0.015zM13.082 3.271c0.902-0.926 1.796-1.851 2.69-2.775 0.047 0.032 0.079 0.064 0.128 0.096l0.006 3.366c0 0.239-0.096 0.303-0.303 0.239-0.862-0.239-1.738-0.479-2.649-0.734 0.037-0.069 0.079-0.133 0.128-0.192zM12.883 3.733c0.798 0.207 1.612 0.415 2.409 0.638v0.111c-0.638 0.175-1.292 0.351-1.946 0.543-0.543 0.128-0.862-0.335-1.276-0.526-0.032-0.015-0.047-0.096-0.047-0.128 0.015-0.175 0.685-0.685 0.86-0.638zM12.325 3.541c-0.479 0.782-0.526 0.798-1.212 0.383-0.59-0.367-1.244-0.67-1.787-1.116 1.043 0.128 2.001 0.543 2.999 0.734zM9.055 3.382c0.543 0.543 1.101 1.084 1.612 1.659 0.271 0.319-0.175 0.383-0.271 0.558-0.079 0.143-0.192 0.16-0.287-0.015-0.399-0.702-0.798-1.388-1.197-2.089 0.049-0.033 0.096-0.081 0.143-0.113zM8.242 4.977c-0.032-0.67-0.015-1.324-0.015-1.994 0.033-0.004 0.067-0.014 0.096-0.032v0c0.511 0.894 1.022 1.787 1.531 2.696 0.111 0.175 0.079 0.271-0.128 0.303-0.015 0-0.032 0.015-0.047 0.015-0.447 0.111-1.005 0.447-1.308 0.287-0.352-0.191-0.113-0.828-0.128-1.275zM8.178 23.386c0.079-0.83 0.015-1.674 0.015-2.617 0.622 0.367 1.148 0.67 1.674 0.973 0.175 0.111 0.128 0.239 0.079 0.383-0.255 0.926-0.494 1.851-0.766 2.871-0.461-0.509-1.083-0.781-1.004-1.61zM8.242 24.439v0c0.255 0.255 0.494 0.494 0.734 0.718 0.143 0.128 0.096 0.255 0.047 0.399-0.064 0.223-0.223 0.064-0.319 0.047-0.605-0.128-0.67-0.256-0.462-1.165zM8.193 28.619c-0.015 0-0.032-0.015-0.047-0.015v0c0-0.941 0-1.866-0.015-2.792 0.047-0.015 0.079-0.047 0.096-0.047 0.702 0.143 0.686 0.16 0.511 0.83-0.177 0.668-0.367 1.354-0.544 2.025zM8.481 28.491c0.207-0.75 0.399-1.516 0.622-2.265 0.128-0.462 0.447-0.079 0.638-0.064 0.319 0.047 0.096 0.255 0.032 0.367-0.335 0.59-0.67 1.165-1.022 1.755-0.063 0.095-0.079 0.221-0.27 0.206v0zM8.496 29.272c0.543-0.958 1.084-1.93 1.627-2.903 0.494 0.399 0.862 0.845 1.292 1.292-0.99 0.558-1.898 1.165-2.887 1.644l-0.032-0.032zM9.215 29.304v0c0 0 0 0 0 0 0.686-0.558 1.467-0.958 2.234-1.356 0.415-0.192 0.511 0.367 0.926 0.59-1.165 0.271-2.123 0.639-3.159 0.766zM12.74 28.442v0c-0.16-0.015-0.814-0.575-0.814-0.686-0.010-0.032-0.005-0.068 0.015-0.096 0.064-0.128 1.069-0.607 1.212-0.59 0.526 0.064 0.494 0.59 0.718 0.909 0.064 0.096-0.015 0.175-0.096 0.192-0.349 0.096-0.7 0.192-1.036 0.271zM13.856 27.262c0.543 0.143 1.005 0.271 1.516 0.399-1.037 0.526-1.228 0.479-1.516-0.399zM13.059 28.938c-0.223-0.192-0.207-0.271 0.096-0.351 0.877-0.239 0.877-0.255 1.26 0.558 0.303 0.654 0.622 1.308 0.926 1.962-0.766-0.75-1.531-1.468-2.281-2.17zM15.802 30.182v1.084c-0.032 0-0.047 0.015-0.079 0.015v0c-0.43-0.894-0.862-1.802-1.308-2.696-0.111-0.239-0.079-0.319 0.192-0.399 1.212-0.351 1.212-0.367 1.212 0.909 0 0.369-0.017 0.719-0.017 1.087zM15.866 26.433c0 1.133 0 1.133-1.084 0.845-0.319-0.079-0.638-0.175-0.958-0.255-0.128-0.032-0.223-0.096-0.239-0.223-0.015-0.128 0.096-0.16 0.175-0.207 0.59-0.351 1.197-0.686 1.787-1.052 0.303-0.192 0.335-0.047 0.319 0.207v0.685zM15.618 24.822c-1.037-0.622-2.074-1.229-3.126-1.834-0.192-0.111-0.255-0.207-0.128-0.415 0.511-0.845 0.99-1.691 1.516-2.585v0c1.276 1.276 2.498 2.504 3.748 3.733 0.143 0.143 0.16 0.207-0.032 0.319-0.479 0.255-0.941 0.543-1.42 0.814-0.175 0.101-0.396 0.090-0.558-0.032zM18.834 28.921c-0.862 0.909-1.738 1.802-2.6 2.711l-0.143-0.096c0-1.133 0-2.265-0.015-3.414 0-0.223 0.111-0.239 0.287-0.192 0.814 0.223 1.627 0.462 2.441 0.67 0.334 0.082 0.142 0.21 0.031 0.321zM19.041 28.412c-0.782-0.207-1.58-0.43-2.361-0.638 0.013-0.036 0.018-0.074 0.015-0.111v0c0.654-0.175 1.33-0.383 1.994-0.526 0.511-0.111 0.814 0.335 1.229 0.526 0.020 0.040 0.031 0.083 0.032 0.128-0.033 0.206-0.703 0.668-0.91 0.621zM22.503 29.336v0c-0.941-0.255-1.882-0.494-2.824-0.75 0.335-0.718 0.526-0.782 1.165-0.399l1.723 1.005c-0.028 0.046-0.049 0.095-0.064 0.145zM22.637 28.97c-0.718-0.43-1.42-0.862-2.217-1.324v0c0.137-0.111 0.233-0.16 0.287-0.239 0.207-0.287 0.367-0.255 0.607 0 0.351 0.399 0.75 0.75 1.116 1.133 0.111 0.11 0.287 0.191 0.207 0.43zM22.917 28.714c-0.543-0.526-1.052-1.052-1.548-1.58-0.303-0.351 0.128-0.43 0.255-0.59 0.175-0.271 0.255 0.015 0.319 0.128l0.909 1.58c0.116 0.127 0.142 0.31 0.065 0.462zM23.747 29.145c-0.032 0.015-0.047 0.015-0.079 0.032-0.511-0.877-1.015-1.77-1.531-2.664-0.111-0.192-0.096-0.287 0.143-0.335 0.479-0.111 0.958-0.255 1.467-0.383v3.35zM22.535 25.81c0.399-0.383 0.83-0.798 1.212-1.18 0.049 1.054-0.064 1.165-1.212 1.18zM23.619 24.168c-0.558 0.607-1.133 1.229-1.755 1.898-0.526-0.926-0.958-1.706-1.467-2.568 1.116 0.096 2.138 0.16 3.143 0.255 0.351 0.032 0.224 0.255 0.079 0.415zM23.77 12.076c-0.015 1.148-0.015 2.281-0.015 3.43 0.015 0.335-0.064 0.494-0.462 0.479-0.845-0.047-1.691-0.015-2.536-0.015-0.207 0-0.319-0.015-0.255-0.271 0.462-1.69 0.924-3.38 1.386-5.101 0.572 0.317 1.097 0.62 1.612 0.954 0.188 0.104 0.296 0.312 0.27 0.526zM23.811 8.982c-0.096 0.75-0.015 1.516-0.015 2.377-0.622-0.351-1.142-0.67-1.674-0.958 0 0-0.001 0-0.001-0.001-0.11-0.049-0.159-0.177-0.11-0.287 0.271-0.958 0.526-1.93 0.798-2.951 0.604 0.494 1.115 0.941 1.004 1.819zM23.715 7.817v0c-0.265-0.319-0.462-0.575-0.686-0.814-0.106-0.105-0.132-0.266-0.064-0.399 0.079-0.192 0.223-0.096 0.335-0.079 0.59 0.113 0.639 0.256 0.415 1.293zM23.61 6.35c-0.175-0.079-0.59 0.079-0.479-0.367 0.207-0.798 0.43-1.58 0.638-2.377h0.073c0 0.83 0 1.644-0.009 2.472 0 0.145 0.064 0.416-0.223 0.273zM30.734 15.235c-0.015 0.015-0.015 0.047-0.032 0.064v0c-0.734-0.415-1.484-0.782-2.17-1.244-0.351-0.255 0.079-0.622 0.079-0.926 0.719 0.702 1.421 1.403 2.122 2.106zM24.050 16.814c0.223-0.462 0.543-0.798 1.18-0.59v0c0.613 0 1.26 0.015 1.93 0 0.255 0 0.303 0.096 0.255 0.335-0.096 0.447-0.239 0.75-0.782 0.845-0.766 0.143-1.531 0.383-2.297 0.607-0.271 0.079-0.415 0.032-0.367-0.271 0.049-0.303-0.079-0.622 0.081-0.926zM24.018 8.454c0.654 0.638 1.244 1.197 1.851 1.787-0.526 0.303-1.037 0.59-1.548 0.877-0.207 0.111-0.303 0.096-0.303-0.16v-2.504zM25.789 10.577c0.192-0.111 0.239-0.047 0.287 0.143 0.143 0.575 0.319 1.148 0.462 1.723 0.056 0.127 0.023 0.275-0.079 0.367-0.128 0.079-0.207-0.047-0.303-0.096-0.67-0.367-1.34-0.75-2.058-1.165v0c0.608-0.351 1.151-0.654 1.692-0.973zM27.422 9.668c0.558-0.319 1.116-0.622 1.674-0.941 0.032-0.015 0.064 0 0.207 0h-0.006c-0.607 0.877-1.165 1.691-1.7 2.489-0.111 0.175-0.175 0.175-0.335 0.032-1.004-0.927-1.020-0.91 0.16-1.58zM26.794 13.495c0.223 0.75 0.415 1.499 0.607 2.249 0.079 0.255-0.111 0.223-0.255 0.223h-2.536c0.638-0.909 1.197-1.723 1.723-2.553 0.206-0.285 0.381-0.174 0.461 0.081zM27.161 18.584c-0.015-0.367 0.143-0.686 0.223-1.005 0.032-0.143 0.16-0.192 0.303-0.207 0.192-0.015 0.192 0.143 0.223 0.255 0.192 0.543 0.096 0.671-0.749 0.958zM24.018 18.489c0.271-0.494 1.116-0.399 1.706-0.59 0.447-0.143 0.894-0.239 1.404-0.367-0.111 0.415-0.207 0.75-0.287 1.101-0.038 0.163-0.151 0.298-0.303 0.367-0.367 0.192-0.718 0.399-1.084 0.607-0.462 0.271-0.941 0.526-1.452 0.814l0.015-1.932zM26.682 19.206c-0.223 0.845-0.43 1.595-0.638 2.345-0.064 0.223-0.207 0.096-0.303 0.032-0.511-0.287-1.005-0.59-1.595-0.941 0.862-0.494 1.642-0.941 2.536-1.436zM26.906 19.334c0.064-0.255 0.894-0.894 1.116-0.877 0.044 0.009 0.082 0.031 0.111 0.064 0.239 0.271 0.207 0.958-0.047 1.212-0.447 0.447-0.894 0.894-1.34 1.324-0.096 0.079-0.175 0.207-0.367 0.16 0.175-0.654 0.351-1.276 0.527-1.883zM28.204 17.771c-0.015-0.175-0.239-0.447 0.047-0.543 0.732-0.223 1.463-0.445 2.258-0.479-0.702 0.383-1.388 0.781-2.083 1.164-0.159 0.097-0.207-0.031-0.223-0.142zM28.213 16.957c-0.399 0.096-0.287-0.319-0.351-0.511-0.096-0.271 0.16-0.223 0.303-0.223h2.568c0.004 0.024 0.015 0.046 0.032 0.064-0.845 0.223-1.691 0.462-2.553 0.67zM27.623 15.601c-0.192-0.734-0.351-1.34-0.543-2.042 1.086 0.558 1.086 0.558 0.543 2.042zM27.974 13.767c-0.312-0.151-0.611-0.326-0.894-0.526-0.013-0.009-0.024-0.018-0.036-0.028-0.202-0.17-0.229-0.471-0.059-0.675 0.096-0.143 0.192-0.271 0.271-0.415 0.143-0.303 0.287-0.239 0.462-0.032 0.223 0.271 0.526 0.479 0.702 0.75v0c-0.079 0.303-0.143 0.558-0.223 0.845-0.032 0.113-0.111 0.145-0.224 0.081zM28.517 12.458c-0.047-0.015-0.096-0.015-0.111-0.032-0.845-0.766-0.845-0.766-0.207-1.691 0.351-0.494 0.686-0.99 1.037-1.484 0.047 0.015 0.096 0.047 0.143 0.064-0.287 1.037-0.558 2.091-0.862 3.143zM29.506 8.199c-1.165 0.654-2.234 1.26-3.334 1.882-0.271-0.99-0.526-1.962-0.798-2.999 1.386 0.367 2.695 0.735 4.131 1.118zM25.199 7.434c0.192 0.718 0.383 1.452 0.575 2.185-0.024 0.019-0.051 0.036-0.079 0.047-0.511-0.511-1.022-1.022-1.531-1.516-0.111-0.128-0.175-1.165-0.079-1.292 0.024-0.038 0.067-0.063 0.111-0.064 0.366-0.079 0.908 0.271 1.004 0.639zM24.040 5.854c0.064-0.798 0.015-1.595 0.015-2.393h0.090c0.271 0.99 0.526 1.978 0.789 2.967 0.064 0.239-0.015 0.271-0.255 0.223-0.462-0.079-0.686-0.255-0.639-0.798zM23.971 15.601v-1.244l0.032-2.185c0-0.271 0.064-0.367 0.335-0.207 0.543 0.335 1.101 0.654 1.674 0.958 0.223 0.111 0.223 0.223 0.096 0.415-0.558 0.798-1.116 1.595-1.659 2.409-0.096 0.16-0.223 0.255-0.399 0.192-0.175-0.065-0.079-0.225-0.079-0.337zM23.954 23.195v-2.377c0.613 0.351 1.116 0.67 1.644 0.973 0.192 0.111 0.207 0.207 0.047 0.367-0.415 0.399-0.83 0.814-1.229 1.229-0.083 0.108-0.216 0.163-0.351 0.143-0.191-0.064-0.111-0.224-0.111-0.335zM25.757 22.381c-0.287 1.484-0.192 1.308-1.084 1.148 0.303-0.43 0.686-0.734 1.084-1.148zM24.098 28.682c-0.032 0-0.079-0.015-0.111-0.015 0-0.814 0.015-1.644-0.015-2.457-0.015-0.367 0.079-0.558 0.462-0.59 0.178-0.031 0.355-0.073 0.526-0.128-0.303 1.101-0.573 2.153-0.862 3.19zM24.704 25.301c-0.845 0.207-0.702 0.239-0.718-0.543v0c0-0.75 0.128-0.973 0.622-0.926 0.255 0.015 0.622-0.143 0.75 0.175 0.127 0.319-0.367 1.212-0.654 1.293zM28.835 24.215c-1.148 0.303-2.281 0.607-3.494 0.941 0.096-0.383 0.175-0.718 0.255-1.037 0.064-0.255 0.271-0.192 0.447-0.175 0.926 0.064 1.834 0.128 2.76 0.207 0.017 0.017 0.017 0.049 0.032 0.064v0zM26.107 23.705c-0.255-0.015-0.367-0.079-0.287-0.399 0.319-1.212 0.303-1.212 1.388-0.575l1.914 1.197c-1.052-0.078-2.041-0.159-3.015-0.223zM29.57 23.849c-1.148-0.686-2.202-1.308-3.207-1.898v0c0.718-0.718 1.404-1.42 2.138-2.121 0.334 1.292 0.685 2.6 1.069 4.020zM28.596 19.095c-0.019-0.019-0.035-0.041-0.047-0.064-0.239-0.782-0.255-0.782 0.479-1.18 0.558-0.303 1.133-0.607 1.691-0.909l0.064 0.047c-0.735 0.703-1.452 1.404-2.186 2.106zM31.165 15.969h-2.999c-0.223 0-0.351-0.015-0.255-0.303 0.128-0.399 0.223-0.798 0.319-1.197 0.047-0.192 0.111-0.255 0.303-0.143 0.894 0.526 1.787 1.022 2.679 1.531-0.013 0.038-0.029 0.077-0.047 0.113z"></path>
<path fill="#05bca9" d="M18.083 4.817c-0.494-0.015-0.926-0.223-1.404-0.335 0.831-0.589 1.229-0.478 1.404 0.335zM26.459 10.88c0.096 0.079 0.207 0.16 0.303 0.255 0.543 0.543 0.543 0.543 0.047 1.18-0.175-0.192-0.16-0.447-0.239-0.654-0.068-0.236-0.122-0.475-0.16-0.718 0.013-0.023 0.028-0.045 0.049-0.063zM8.455 29.336c0.015-0.015 0.032-0.047 0.047-0.064l0.032 0.032zM2.514 8.535c-0.015-0.047-0.015-0.079-0.032-0.128 0.047 0 0.079 0.015 0.128 0.015-0.032 0.032-0.058 0.081-0.096 0.113z"></path>
</svg>
