<!-- Generated by IcoMoon.io -->
<svg version="1.1" xmlns="http://www.w3.org/2000/svg" viewBox="0 0 32 32">
<title>ppc</title>
<path fill="#3cb054" d="M32 16c0 8.837-7.163 16-16 16s-16-7.163-16-16c0-8.837 7.163-16 16-16s16 7.163 16 16z"></path>
<path fill="#fff" d="M18.175 24.495c-0.285 0.025-0.51 0.030-0.648 0.030-4.508 0.010-8.168-3.66-8.168-8.17 0-0.035 0-0.073 0-0.108v-8.775c2.735-0.043 9.488 0.553 13.21 5.732 0.965 1.34 1.532 2.985 1.532 4.76 0 1.065-0.205 2.085-0.578 3.017l-0.003-0.003c-0.238 0.633-0.872 1.938-2.53 2.768-0.267 0.133-0.54 0.245-0.808 0.337 1.19-4.553-0.365-11.145-7.27-14.315 4.19 2.6 7.503 9.148 5.26 14.725z"></path>
</svg>
