<!-- Generated by IcoMoon.io -->
<svg version="1.1" xmlns="http://www.w3.org/2000/svg" viewBox="0 0 32 32">
<title>pre</title>
<path fill="#fff" d="M2.032 1.91h27.936v27.936h-27.936v-27.936z"></path>
<path fill="#2d8eff" d="M11.5 19.698h2.987c0.897-0.001 1.746-0.207 2.503-0.574l-0.034 0.015c0.753-0.375 1.39-0.87 1.914-1.466l0.006-0.007c0.513-0.608 0.927-1.319 1.204-2.096l0.015-0.048c0.283-0.734 0.447-1.583 0.447-2.47 0-0.003 0-0.006 0-0.009v0c0-0.006 0-0.013 0-0.020 0-0.858-0.176-1.675-0.493-2.417l0.015 0.040c-0.331-0.808-0.765-1.504-1.298-2.111l0.007 0.009c-0.543-0.617-1.193-1.125-1.924-1.497l-0.037-0.017c-0.706-0.371-1.542-0.589-2.43-0.589-0.017 0-0.034 0-0.052 0l0.003-0h-7.863v19.088h5.079zM11.5 11.053h2.54c0.368 0.024 0.693 0.191 0.923 0.446l0.001 0.001c0.304 0.379 0.488 0.865 0.488 1.394 0 0.078-0.004 0.155-0.012 0.23l0.001-0.009c0.008 0.071 0.013 0.153 0.013 0.237 0 0.498-0.169 0.957-0.454 1.322l0.004-0.005c-0.2 0.26-0.505 0.431-0.851 0.447l-0.003 0h-2.651z"></path>
<path fill="#2d8eff" d="M0 1.839v28.323c0 1.015 0.823 1.839 1.839 1.839v0h28.323c1.015 0 1.839-0.823 1.839-1.839v0-28.323c0-1.016-0.823-1.839-1.839-1.839h-28.323c-1.016 0-1.839 0.823-1.839 1.839v0zM26.413 28.251h-20.846c-1.016 0-1.839-0.823-1.839-1.839v0-20.846c0-1.016 0.823-1.839 1.839-1.839v0h20.846c1.015 0 1.839 0.823 1.839 1.839v20.846c-0.011 1.007-0.83 1.818-1.839 1.818-0 0-0 0-0 0v0z"></path>
<path fill="#2d8eff" d="M13.745 21.943h11.774v3.616h-11.774v-3.616z"></path>
</svg>
