<!-- Generated by IcoMoon.io -->
<svg version="1.1" xmlns="http://www.w3.org/2000/svg" viewBox="0 0 32 32">
<title>pro</title>
<path fill="#38a6fa" d="M27.649 26.583c-0.028 0.629-0.545 1.129-1.178 1.129-0.002 0-0.005 0-0.007-0h-17.379c-0.655-0.003-1.185-0.535-1.185-1.191 0 0 0 0 0 0v0-0.395c0.069-0.672 0.27-1.284 0.576-1.829l-0.012 0.024c0.846-1.58 2.426-2.709 4.683-3.498l6.941-2.314c1.13-0.428 2.103-1.020 2.945-1.759l-0.011 0.009c1.813-1.525 2.964-3.785 2.991-6.315l0-0.005 0.508 0.339c0.67 0.465 1.109 1.223 1.128 2.085l0 0.003v13.712zM21.725 10.388c0 0.022 0.001 0.048 0.001 0.075 0 1.202-0.522 2.282-1.351 3.025l-0.004 0.003c-0.455 0.397-0.976 0.736-1.539 0.999l-0.041 0.017-6.941 2.314c-4.119 1.354-6.151 3.724-7.11 5.473-0.153 0.279-0.305 0.614-0.433 0.96l-0.018 0.055c0 0.056-0.056 0.056-0.056 0.113v-10.495c0.030-0.862 0.465-1.617 1.12-2.082l0.008-0.006 9.48-6.207c0.312-0.197 0.693-0.314 1.1-0.314s0.788 0.117 1.109 0.32l-0.009-0.005 4.683 3.104v2.652zM31.938 26.357v-13.43c-0.040-2.34-1.228-4.394-3.023-5.627l-0.024-0.015-2.821-1.862v-4.232c0 0 0 0 0 0 0-0.656-0.53-1.187-1.185-1.191h-1.862c-0.009-0-0.019-0-0.029-0-0.639 0-1.157 0.518-1.157 1.157 0 0.010 0 0.020 0 0.030l-0-0.001v1.411l-2.37-1.58c-0.981-0.64-2.181-1.021-3.47-1.021s-2.49 0.381-3.495 1.036l0.025-0.015-9.48 6.207c-1.838 1.232-3.035 3.296-3.047 5.641v13.432c-0.003 0.066-0.004 0.144-0.004 0.223 0 1.135 0.339 2.19 0.92 3.071l-0.013-0.021c0.472 0.73 1.123 1.308 1.891 1.681l0.028 0.012c0.824 0.4 1.784 0.663 2.797 0.732l0.024 0.001h20.709c1.036-0.035 2.002-0.302 2.858-0.751l-0.036 0.017c0.814-0.384 1.482-0.962 1.964-1.676l0.011-0.017c0.499-0.87 0.793-1.914 0.793-3.025 0-0.067-0.001-0.134-0.003-0.201l0 0.010z"></path>
</svg>
