<!-- Generated by IcoMoon.io -->
<svg version="1.1" xmlns="http://www.w3.org/2000/svg" viewBox="0 0 32 32">
<title>prom</title>
<path fill="#020202" d="M14.553 31.934h3.025c-2.718-4.362-5.414-8.745-8.132-13.107-0.416-0.658-0.526-1.271-0.219-2.060 0.153-0.373 0.46-0.723 0.745-0.986-0.088-0.11-0.175-0.241-0.263-0.373-0.438-0.679-0.745-1.425-0.942-2.214-2.74 1.337-3.353 4.033-1.775 6.707l7.562 12.033zM13.392 22.334c1.775 0.197 3.419 0.197 5.173 0 2.148-0.241 4.077-0.745 5.26-1.534 1.249-0.811 2.082-2.104 2.082-3.616 0-1.753-1.074-3.112-2.542-3.901-0.131 0.658-0.351 1.271-0.636 1.819-0.153 0.307-0.329 0.592-0.548 0.855 0.329 0.351 0.636 0.789 0.636 1.205 0 0.701-0.789 1.468-1.381 1.797-0.679 0.373-1.666 0.614-2.433 0.701-1.008 0.11-2.016 0.153-3.025 0.175-0.526 0-1.096-0.022-1.622-0.066-0.899-0.044-1.863-0.11-2.74-0.351l1.775 2.915z"></path>
<path fill="#ea7437" d="M16.088 0c2.718 4.449 1.775 7.101 1.403 8.767-0.57 2.586 2.696 3.441 2.937 0.438 0.066-0.701 0.022-1.512-0.022-2.279 3.353 5.392 1.162 10.258-4.318 10.258-4.603 0-7.189-4.208-5.37-8.395-0.197 2.214 1.359 2.937 1.096 1.907-0.066-0.263-0.197-0.701-0.307-1.6-0.416-4.296 4.866-5.392 4.581-9.096z"></path>
</svg>
