<!-- Generated by IcoMoon.io -->
<svg version="1.1" xmlns="http://www.w3.org/2000/svg" viewBox="0 0 32 32">
<title>prq</title>
<path fill="#005cc7" d="M6.755 21.697v3.48h3.48v-0.887h4.844v7.71c-8.051-0.478-14.669-7.096-15.079-15.147h7.71v4.776l-0.955 0.068z"></path>
<path fill="#005cc7" d="M21.629 24.29v0.887h3.48v-3.48h-0.887v-4.776h7.71c-0.409 8.051-7.096 14.601-15.147 15.079v-7.71h4.844z"></path>
<path fill="#005cc7" d="M15.079 7.846h6.618v-1.023h3.548v3.889h-3.48v-1.092h-6.618v7.232l7.505 0.068v4.776h-0.887v0.819h-11.531v-0.887h-0.819v-11.326h0.887v-3.48h-3.48v3.48h0.887v4.776h-7.71c0.409-8.119 7.096-14.669 15.079-15.079v7.846z"></path>
</svg>
