<!-- Generated by IcoMoon.io -->
<svg version="1.1" xmlns="http://www.w3.org/2000/svg" viewBox="0 0 32 32">
<title>ptoy</title>
<path fill="#000" d="M9.935 7.265v2.14c0 1.358-1.098 2.447-2.447 2.447h-4.735c-1.516-0.009-2.753 1.237-2.753 2.754v4.037c0 1.516 1.237 2.753 2.753 2.753h4.735c1.358 0 2.447 1.107 2.447 2.447v4.735c0 1.516 1.237 2.753 2.754 2.753h4.037c1.516 0 2.753-1.237 2.753-2.753v-4.735c0-1.358 1.098-2.447 2.447-2.447h2.14c-7.777 0-14.13-6.354-14.13-14.13z"></path>
<path fill="#42b34f" d="M29.414 18.642v-4.037c0-1.516-1.237-2.753-2.753-2.753h-4.735c-1.358 0-2.447-1.098-2.447-2.447v-4.735c0-1.516-1.237-2.753-2.753-2.753h-4.037c-1.516 0-2.753 1.237-2.753 2.753v2.595c0 7.777 6.363 14.13 14.13 14.13h2.595c1.516 0 2.753-1.237 2.753-2.753z"></path>
<path fill="#42b34f" d="M22.354 8.288s-0.921-9.609 9.646-7.265c-0.195 2.828 0.065 9.786-9.646 7.265z"></path>
</svg>
