<!-- Generated by IcoMoon.io -->
<svg version="1.1" xmlns="http://www.w3.org/2000/svg" viewBox="0 0 32 32">
<title>qnt</title>
<path d="M7.938 1.898l8.121 9.515 5.451-3.207c0 0-6.577-8.795-8.33-8.173-1.649 0.628-5.242 1.865-5.242 1.865z"></path>
<path d="M21.713 8.206c0 0 1.237-2.173 1.852-5.072 0 0 6.171 2.48 3.802 8.69l-5.654-3.619z"></path>
<path d="M27.367 11.832l0.517 6.518 2.362-0.308c0 0 0.615-0.209 0.517-1.341-0.105-1.243-0.308-3.828-0.308-3.828s0.105-0.622-1.335-0.825c-1.754-0.321-1.754-0.216-1.754-0.216z"></path>
<path d="M27.877 18.349l-4.731 3.828 2.16 4.241c0 0 0.517 1.656 2.055-0.209 1.44-1.865 2.055-2.173 1.95-3.311-0.092-1.139-0.406-3.828-1.433-4.548z"></path>
<path d="M23.048 22.171l-6.479-2.899-5.654 11.485c0 0-0.412 0.825 1.027 0.929 1.44 0.209 3.802 0.726 5.039-0.517 1.237-1.132 6.066-8.998 6.066-8.998z"></path>
<path d="M16.569 19.174l-0.615-7.656-13.984 0.936c0 0-0.825 0.105-0.72 1.656 0.105 2.068 0.308 4.345 0.308 4.345s-0.105 0.929 1.747 1.034c1.852 0.098 13.062 0.098 13.265-0.314z"></path>
</svg>
