<!-- Generated by IcoMoon.io -->
<svg version="1.1" xmlns="http://www.w3.org/2000/svg" viewBox="0 0 32 32">
<title>qtum</title>
<path fill="#2e9ad0" d="M19.398 29.553h-8.797l-7.098-5.201-2.705-8.401 2.7-8.401 7.098-5.201h8.803l7.098 5.201 2.7 8.401-2.7 8.401-0.099 0.099-6.999 5.103zM10.799 28.948h8.401l6.801-4.998 2.601-8-2.601-8-6.801-4.998h-8.401l-6.796 4.998-2.601 8 2.601 8 6.796 4.998z"></path>
<path fill="#2e9ad0" d="M30.202 28.151l-4.102-3.7-4.003-1.501-7.098 0.902-7.197-0.902-4.003 1.501-0.198-0.599 4.096-1.6h0.105l7.197 1.001 7.203-1.001 0.099 0.099 4.201 1.6 4.096 3.799z"></path>
<path fill="#2e9ad0" d="M19.2 29.85l-4.201-5.801-4.399 5.801-3.2-7.098 0.599-0.303 2.799 6.202 4.201-5.702 4.102 5.702 2.799-6.202 3.799-7.599 0.902 9.297h-0.599l-0.704-7.098-2.799 5.702z"></path>
<path fill="#2e9ad0" d="M1.199 15.648h27.799v0.599h-27.799z"></path>
<path fill="#2e9ad0" d="M25.699 17.050l-3.497-6.9-3.002 6.499-4.201-7.5-4.3 7.5-3.002-6.499-3.497 6.9-0.803-9.199 0.605-0.099 0.599 7.197 3.095-6.097 3.002 6.499 4.3-7.401 4.102 7.401 3.101-6.499 3.095 5.999 0.5-7.098h0.605z"></path>
<path fill="#2e9ad0" d="M21.9 9.649l-2.799-6.301-4.102 5.801-4.201-5.801-2.799 6.301-0.5-0.297 3.101-7.203 4.399 5.9 4.201-5.9 3.299 7.203zM26.001 24.148l-0.704-7.098-3.095 6.202-3.101-6.604-4.102 7.5-4.3-7.5-3.002 6.604-3.095-6.202-0.599 7.098h-0.605l0.803-9.297 3.497 6.999 3.002-6.499 4.3 7.5 4.201-7.5 3.002 6.598 3.497-7.098 0.902 9.297z"></path>
<path fill="#2e9ad0" d="M22.202 9.853l-7.302-1.001-7.203 1.001-4.096-1.804 0.198-0.599 4.003 1.699 7.098-0.896 7.302 0.896 3.898-1.699 0.303 0.599z"></path>
<path fill="#2e9ad0" d="M11.898 29.251c0 0.662-0.537 1.199-1.199 1.199s-1.199-0.537-1.199-1.199c0-0.662 0.537-1.199 1.199-1.199s1.199 0.537 1.199 1.199z"></path>
<path fill="#2e9ad0" d="M20.3 29.251c0 0.662-0.537 1.199-1.199 1.199s-1.199-0.537-1.199-1.199c0-0.662 0.537-1.199 1.199-1.199s1.199 0.537 1.199 1.199z"></path>
<path fill="#2e9ad0" d="M11.898 2.749c0 0.662-0.537 1.199-1.199 1.199s-1.199-0.537-1.199-1.199c0-0.662 0.537-1.199 1.199-1.199s1.199 0.537 1.199 1.199z"></path>
<path fill="#2e9ad0" d="M20.3 2.749c0 0.662-0.537 1.199-1.199 1.199s-1.199-0.537-1.199-1.199c0-0.662 0.537-1.199 1.199-1.199s1.199 0.537 1.199 1.199z"></path>
<path fill="#2e9ad0" d="M27.299 7.753c0 0.662-0.537 1.199-1.199 1.199s-1.199-0.537-1.199-1.199c0-0.662 0.537-1.199 1.199-1.199s1.199 0.537 1.199 1.199z"></path>
<path fill="#2e9ad0" d="M4.899 7.753c0 0.662-0.537 1.199-1.199 1.199s-1.199-0.537-1.199-1.199c0-0.662 0.537-1.199 1.199-1.199s1.199 0.537 1.199 1.199z"></path>
<path fill="#2e9ad0" d="M4.899 24.253c0 0.662-0.537 1.199-1.199 1.199s-1.199-0.537-1.199-1.199c0-0.662 0.537-1.199 1.199-1.199s1.199 0.537 1.199 1.199z"></path>
<path fill="#2e9ad0" d="M2.397 15.951c0 0.662-0.537 1.199-1.199 1.199s-1.199-0.537-1.199-1.199c0-0.662 0.537-1.199 1.199-1.199s1.199 0.537 1.199 1.199z"></path>
<path fill="#2e9ad0" d="M30.097 15.951c0 0.662-0.537 1.199-1.199 1.199s-1.199-0.537-1.199-1.199c0-0.662 0.537-1.199 1.199-1.199s1.199 0.537 1.199 1.199z"></path>
<path fill="#2e9ad0" d="M26.7 15.951c0 0.662-0.537 1.199-1.199 1.199s-1.199-0.537-1.199-1.199c0-0.662 0.537-1.199 1.199-1.199s1.199 0.537 1.199 1.199z"></path>
<path fill="#2e9ad0" d="M5.597 15.951c0 0.662-0.537 1.199-1.199 1.199s-1.199-0.537-1.199-1.199c0-0.662 0.537-1.199 1.199-1.199s1.199 0.537 1.199 1.199z"></path>
<path fill="#2e9ad0" d="M11.898 15.951c0 0.662-0.537 1.199-1.199 1.199s-1.199-0.537-1.199-1.199c0-0.662 0.537-1.199 1.199-1.199s1.199 0.537 1.199 1.199z"></path>
<path fill="#2e9ad0" d="M20.3 15.951c0 0.662-0.537 1.199-1.199 1.199s-1.199-0.537-1.199-1.199c0-0.662 0.537-1.199 1.199-1.199s1.199 0.537 1.199 1.199z"></path>
<path fill="#2e9ad0" d="M15.192 7.368c0.653 0.106 1.097 0.722 0.991 1.375s-0.722 1.097-1.375 0.991c-0.653-0.106-1.097-0.722-0.991-1.375s0.722-1.097 1.375-0.991z"></path>
<path fill="#2e9ad0" d="M8.896 9.551c0 0.662-0.537 1.199-1.199 1.199s-1.199-0.537-1.199-1.199c0-0.662 0.537-1.199 1.199-1.199s1.199 0.537 1.199 1.199z"></path>
<path fill="#2e9ad0" d="M23.401 9.551c0 0.662-0.537 1.199-1.199 1.199s-1.199-0.537-1.199-1.199c0-0.662 0.537-1.199 1.199-1.199s1.199 0.537 1.199 1.199z"></path>
<path fill="#2e9ad0" d="M16.198 23.549c0 0.662-0.537 1.199-1.199 1.199s-1.199-0.537-1.199-1.199c0-0.662 0.537-1.199 1.199-1.199s1.199 0.537 1.199 1.199z"></path>
<path fill="#2e9ad0" d="M8.896 22.548c0 0.662-0.537 1.199-1.199 1.199s-1.199-0.537-1.199-1.199c0-0.662 0.537-1.199 1.199-1.199s1.199 0.537 1.199 1.199z"></path>
<path fill="#2e9ad0" d="M23.401 22.548c0 0.662-0.537 1.199-1.199 1.199s-1.199-0.537-1.199-1.199c0-0.662 0.537-1.199 1.199-1.199s1.199 0.537 1.199 1.199z"></path>
<path fill="#2e9ad0" d="M32 27.953c0 0.884-0.716 1.6-1.6 1.6s-1.6-0.716-1.6-1.6c0-0.884 0.716-1.6 1.6-1.6s1.6 0.716 1.6 1.6z"></path>
</svg>
