<!-- Generated by IcoMoon.io -->
<svg version="1.1" xmlns="http://www.w3.org/2000/svg" viewBox="0 0 32 32">
<title>ramp</title>
<path fill="#00b5d1" d="M20.189 18.483l-4.24 2.473-4.24-2.473v-4.956l4.24-2.483 4.24 2.483z"></path>
<path fill="#0d285a" d="M16 0l-13.779 8.005v15.99l13.779 8.005 13.779-8.005v-15.99l-13.779-8.005zM9.287 19.876v-7.793l6.662-3.886 6.662 3.886v7.793l-6.662 3.886-6.662-3.886zM9.287 24.368v-2.705l9.014 5.269-2.302 1.343-6.713-3.907zM26.549 22.138l-6.713 3.907-2.382-1.393 6.683-3.907v-9.529l-8.177-4.775-8.177 4.775v12.275l-2.322-1.353v-12.275l10.549-6.127 10.539 6.127v12.275z"></path>
</svg>
