<!-- Generated by IcoMoon.io -->
<svg version="1.1" xmlns="http://www.w3.org/2000/svg" viewBox="0 0 32 32">
<title>rdd</title>
<path fill="#7cc245" d="M13.28 28.096l-2.036-4.229-3.647 5.744c0.243 0.156 0.561 0.341 0.885 0.515l0.087 0.043c0.326 0.179 0.747 0.382 1.177 0.565l0.102 0.039c1.27 0.545 2.742 0.941 4.282 1.118l0.074 0.007c0.312 0.035 0.627 0.060 0.943 0.077l-1.867-3.879z"></path>
<path fill="#fccb32" d="M31.418 11.724c-0.132-0.474-0.249-0.832-0.379-1.184l0.035 0.108-12.803 11.307 0.128 1.267 0.853 8.444c0.668-0.138 1.22-0.287 1.76-0.464l-0.113 0.032c6.44-2.068 11.102-8.106 11.102-15.233 0-1.482-0.206-2.914-0.582-4.276z"></path>
<path fill="#ee3f26" d="M9.298 24.531l2.482 5.157 8.62-7.613-1.562-15.468z"></path>
<path fill="#cf3627" d="M10.387 23.966l8.219-15.439 0.059 0.587 0.88-1.653-0.001-0.008-15.478 4.853 6.125 12.727 0.372-0.7z"></path>
<path fill="#2591d4" d="M17.754 0.098c-0.526-0.062-1.135-0.097-1.753-0.098h-0.001c-5.707 0-10.713 2.99-13.545 7.487-0.673 1.054-1.249 2.267-1.667 3.552l-0.032 0.113 4.248 1.632 13.605-4.266 1.46-7.992c-0.652-0.18-1.439-0.331-2.243-0.422l-0.073-0.007z"></path>
<path fill="#f47f22" d="M28.103 5.542c-1.537-1.772-3.431-3.191-5.575-4.154l-0.102-0.041c-0.652-0.297-1.436-0.577-2.246-0.795l-0.111-0.026-1.46 7.992-0.004 0.008 1.346 13.324 11.467-10.127c-0.676-2.391-1.818-4.462-3.331-6.201l0.017 0.019z"></path>
<path fill="#4caa4c" d="M10.387 23.966l-5.382-11.182-4.248-1.632c-0.48 1.446-0.757 3.111-0.757 4.84 0 0.003 0 0.005 0 0.008v-0c0 5.685 2.967 10.674 7.435 13.512 0.296 0.193 0.667 0.411 1.047 0.615l0.088 0.043 2.732-4.303-0.915-1.9z"></path>
<path fill="#7cc245" d="M12.525 28.409l-1.224-2.542-2.732 4.302c0.326 0.179 0.747 0.382 1.177 0.565l0.102 0.039c1.27 0.545 2.742 0.941 4.282 1.118l0.074 0.007-1.679-3.489z"></path>
<path fill="#f47f22" d="M28.103 5.542c-1.537-1.772-3.431-3.191-5.575-4.154l-0.102-0.041-3.818 7.171 9.494-2.977zM18.606 8.527l1.345 13.324 11.467-10.127c-0.676-2.391-1.818-4.461-3.33-6.201l0.017 0.019-9.498 2.985z"></path>
<path fill="#ee3f26" d="M10.387 23.966l2.138 4.442 7.425-6.557-1.345-13.324z"></path>
<path fill="#1e85ca" d="M18.605 8.52l-0.851-8.422c-0.526-0.061-1.136-0.097-1.754-0.098h-0.001c-5.707 0-10.713 2.99-13.545 7.487l2.55 5.297 13.6-4.264z"></path>
<path fill="#cf3627" d="M18.605 8.52l-13.6 4.264 5.382 11.182 8.219-15.439z"></path>
<path fill="#35a9e1" d="M18.609 8.519l3.818-7.172c-1.363-0.616-2.943-1.057-4.601-1.243l-0.072-0.007 0.851 8.422 0.005-0.001z"></path>
<path fill="#f05048" d="M12.525 28.409l1.679 3.488c0.59 0.067 1.188 0.103 1.796 0.103 1.709 0 3.354-0.271 4.898-0.767l-0.948-9.381-7.425 6.557z"></path>
<path fill="#fccb32" d="M19.951 21.851l0.948 9.382c6.44-2.068 11.102-8.106 11.102-15.233 0-1.482-0.206-2.914-0.582-4.276l-11.467 10.127z"></path>
<path fill="#7cc245" d="M9.849 30.773c1.27 0.545 2.742 0.941 4.282 1.118l0.074 0.007-1.679-3.488-2.676 2.363z"></path>
<path fill="#0161ad" d="M2.455 7.487c-1.248 1.95-2.094 4.273-2.362 6.769l-0.006 0.070 4.917-1.542-2.55-5.297z"></path>
<path fill="#4caa4c" d="M5.005 12.784l-4.917 1.542c-0.055 0.502-0.087 1.084-0.087 1.674v0c0 5.685 2.967 10.674 7.435 13.512l2.952-5.546-5.382-11.182z"></path>
<path fill="#51b34b" d="M10.387 23.966l-2.952 5.546c0.687 0.446 1.48 0.868 2.31 1.221l0.104 0.039 2.676-2.364-2.138-4.442z"></path>
<path fill="#444344" d="M18.942 3.518l-0.382 1.122c3.333 1.805 6.564 5.016 8.318 7.814l1.148-0.346c-1.877-3.059-5.423-6.608-9.084-8.59z"></path>
<path fill="#ee3f26" d="M24.501 0.919c-2.146 0-4.012 1.175-5.003 2.916-0.115 0.195-0.23 0.428-0.329 0.668l-0.014 0.038c-0.025 0.063-0.044 0.127-0.066 0.192-0.020 0.058-0.043 0.115-0.060 0.174 3.001 1.747 5.863 4.57 7.578 7.131 0.026-0.010 0.052-0.017 0.077-0.028 0.223-0.093 0.405-0.183 0.581-0.282l-0.027 0.014c0.137-0.075 0.271-0.153 0.401-0.237 1.578-1.027 2.624-2.802 2.624-4.825 0-3.181-2.579-5.761-5.761-5.761z"></path>
<path fill="#c03225" d="M19.089 4.732c-0.020 0.058-0.043 0.115-0.060 0.174 3.001 1.747 5.863 4.57 7.578 7.131 0.026-0.010 0.052-0.017 0.077-0.028 0.223-0.093 0.405-0.183 0.581-0.282l-0.027 0.014c-1.821-2.548-4.941-5.366-8.148-7.009z"></path>
</svg>
