<!-- Generated by IcoMoon.io -->
<svg version="1.1" xmlns="http://www.w3.org/2000/svg" viewBox="0 0 32 32">
<title>ren</title>
<path fill="#000" d="M32 16c0 8.837-7.163 16-16 16s-16-7.163-16-16c0-8.837 7.163-16 16-16s16 7.163 16 16z"></path>
<path fill="#fff" d="M9 9.3l1.7-0.9 0.2 0.4 6.2-3.6-0.4-0.3-0.5-0.3-0.2-0.1-10.2 5.9v0.2l2.9-1.6zM9 13.1l4.9-2.9 0.2 0.4 6.3-3.6-0.5-0.3-0.5-0.2-0.2-0.1-13.4 7.7v0.2l2.9-1.6zM9 14.9l6.5-3.7 0.2 0.3 6.3-3.6-0.5-0.2-0.5-0.3-0.2-0.1-15 8.6v0.3l2.9-1.7zM9 16.7l8.1-4.6 0.2 0.3 6.3-3.5-1-0.6-0.2-0.1-16.6 9.6v0.2l2.9-1.6zM9 18.6l9.7-5.6 0.2 0.4 6.3-3.6-0.5-0.3-0.4-0.2-0.3-0.2-18.2 10.5v0.3l2.9-1.7zM25.8 10.2l-0.2-0.2-19.8 11.5v0.2l2.9-1.6 0.3 0.4 9.7-5.7 0.2 0.4 7.3-4.1v-0.7zM7.1 22.9l1.6-1 0.2 0.4 9.8-5.6 0.2 0.4 7.3-4.2v-1.3l-19.4 11.1zM18.7 18.6l0.2 0.4 7.3-4.3v-1.3l-17.8 10.3 0.3 0.1 1.6-1 0.3 0.4zM10.3 24.7l1.7-0.9 0.2 0.4 6.5-3.8 0.2 0.4 7.3-4.2v-1.3l-16.2 9.3zM11.9 25.6l1.7-0.9 0.2 0.4 4.9-2.8 0.2 0.4 7.3-4.2v-1.4l-14.6 8.4zM13.2 26.4l0.3 0.2 1.7-1 0.2 0.4 3.3-1.9 0.2 0.4 7.3-4.2v-1.3zM15.1 27.5l1.6-1 0.3 0.4 1.7-0.9 0.2 0.4 7.3-4.2v-1.4l-11.3 6.6zM18.8 6.1l-0.5-0.3-0.5-0.2-0.2-0.2-11.8 6.8v0.3l2.9-1.7 0.3 0.4 3.3-1.9 0.2 0.4z"></path>
</svg>
