<!-- Generated by IcoMoon.io -->
<svg version="1.1" xmlns="http://www.w3.org/2000/svg" viewBox="0 0 32 32">
<title>rep</title>
<path fill="#0e0e21" d="M32 16c0 8.837-7.163 16-16 16s-16-7.163-16-16c0-8.837 7.163-16 16-16s16 7.163 16 16z"></path>
<path fill="#fff" d="M24.933 19.733l-1.9-3.233c-0.067-0.133-0.233-0.167-0.333-0.067l-1.233 0.8c-0.1 0.067-0.133 0.233-0.067 0.333l1.1 1.833c0.033 0.067 0 0.133-0.033 0.167l-6.4 4.133c-0.033 0.033-0.1 0.033-0.133 0l-6.333-4.133c-0.067-0.033-0.067-0.1-0.033-0.167l1.1-1.833c0.067-0.1 0.033-0.267-0.067-0.333l-1.233-0.8c-0.133-0.067-0.267-0.033-0.333 0.067l-1.9 3.233c-0.133 0.233-0.067 0.533 0.167 0.667l8.5 5.533c0.167 0.1 0.367 0.1 0.533 0l8.5-5.533c0.167-0.167 0.233-0.467 0.1-0.667z"></path>
<path fill="#2ae7a8" d="M10.3 14.7l1.233 0.8c0.133 0.067 0.267 0.033 0.333-0.067l4-6.8c0.033-0.067 0.167-0.067 0.2 0l4 6.8c0.067 0.133 0.233 0.167 0.333 0.067l1.233-0.8c0.1-0.067 0.133-0.233 0.067-0.333l-4.7-8.133c-0.1-0.167-0.233-0.233-0.433-0.233h-1.133c-0.167 0-0.333 0.1-0.433 0.233l-4.767 8.133c-0.067 0.1-0.033 0.267 0.067 0.333z"></path>
</svg>
