<!-- Generated by IcoMoon.io -->
<svg version="1.1" xmlns="http://www.w3.org/2000/svg" viewBox="0 0 32 32">
<title>req</title>
<path fill="#008c62" d="M21.14 17.999l8.039-8.014c0.58-0.578 0.94-1.378 0.94-2.262 0-0.003 0-0.005 0-0.008v0l0.014-6.477c-0.001-0.346-0.137-0.66-0.359-0.892l0 0.001-15.421 15.387c-0.584 0.579-0.946 1.382-0.946 2.269s0.362 1.69 0.946 2.269l0 0 10.873 10.839c0.579 0.576 1.377 0.932 2.258 0.932 1.768 0 3.202-1.433 3.202-3.202 0-0.887-0.361-1.69-0.943-2.269l-0-0z"></path>
<path fill="#00e6a0" d="M28.875 0h-24.222c-1.959 0-3.404 1.48-3.404 3.5v25.271c-0 0.012-0 0.027-0 0.041 0 1.776 1.44 3.216 3.216 3.216 0.015 0 0.030-0 0.046-0l-0.002 0c0.016 0 0.036 0 0.055 0 1.769 0 3.202-1.434 3.202-3.202 0-0.019-0-0.039-0-0.058l0 0.003v-22.536h16.113l5.901-5.871c-0.224-0.225-0.534-0.363-0.876-0.363-0.010 0-0.019 0-0.029 0l0.001-0z"></path>
</svg>
