<!-- Generated by IcoMoon.io -->
<svg version="1.1" xmlns="http://www.w3.org/2000/svg" viewBox="0 0 32 32">
<title>rif</title>
<path fill="#149dd9" d="M7.527 11.081h7.23c0.043-0.003 0.078-0.038 0.081-0.081l0-0v-2.338c-0.003-0.043-0.038-0.078-0.081-0.081l-0-0h-7.23c-0.043 0.003-0.078 0.038-0.081 0.081l-0 0v2.338c-0 0.001-0 0.002-0 0.003 0 0.043 0.035 0.078 0.078 0.078 0.001 0 0.002-0 0.003-0h-0zM12.419 6.797h2.338c0.043-0.003 0.078-0.038 0.081-0.081l0-0v-2.338c-0.003-0.043-0.038-0.078-0.081-0.081l-0-0h-2.338c-0.043 0.003-0.078 0.038-0.081 0.081l-0 0v2.338c0.003 0.043 0.038 0.078 0.081 0.081l0 0zM2.419 17.162h-2.338c-0.043 0.003-0.078 0.038-0.081 0.081l-0 0v2.338c0.003 0.043 0.038 0.078 0.081 0.081l0 0h2.338c0.043-0.003 0.078-0.038 0.081-0.081l0-0v-2.338c-0.003-0.043-0.038-0.078-0.081-0.081l-0-0zM11 17.162h-2.338c-0.043 0.003-0.078 0.038-0.081 0.081l-0 0v7.23c0.003 0.043 0.038 0.078 0.081 0.081l0 0h2.338c0.043-0.003 0.078-0.038 0.081-0.081l0-0v-7.23c-0.003-0.043-0.038-0.078-0.081-0.081l-0-0zM25.297 14.824h2.338c0.043-0.003 0.078-0.038 0.081-0.081l0-0v-2.338c-0.003-0.043-0.038-0.078-0.081-0.081l-0-0h-2.338c-0.043 0.003-0.078 0.038-0.081 0.081l-0 0v2.338c-0 0.003-0.001 0.007-0.001 0.010 0 0.040 0.032 0.072 0.072 0.072 0.004 0 0.007-0 0.011-0.001l-0 0zM21 14.824h2.338c0.043-0.003 0.078-0.038 0.081-0.081l0-0v-7.23c-0.003-0.043-0.038-0.078-0.081-0.081l-0-0h-2.338c-0.043 0.003-0.078 0.038-0.081 0.081l-0 0v7.23c-0 0.001-0 0.002-0 0.003 0 0.043 0.035 0.078 0.078 0.078 0.001 0 0.002-0 0.003-0h-0zM12.419 2.5h2.338c0.043-0.003 0.078-0.038 0.081-0.081l0-0v-2.338c-0.003-0.043-0.038-0.078-0.081-0.081l-0-0h-2.338c-0.043 0.003-0.078 0.038-0.081 0.081l-0 0v2.338c-0 0.001-0 0.002-0 0.003 0 0.043 0.035 0.078 0.078 0.078 0.001 0 0.002-0 0.003-0h-0zM6.716 17.162h-2.338c-0.043 0.003-0.078 0.038-0.081 0.081l-0 0v2.338c0.003 0.043 0.038 0.078 0.081 0.081l0 0h2.338c0.043-0.003 0.078-0.038 0.081-0.081l0-0v-2.338c-0.008-0.041-0.040-0.074-0.080-0.081l-0.001-0zM24.486 20.919h-7.23c-0.043 0.003-0.078 0.038-0.081 0.081l-0 0v2.338c0.003 0.043 0.038 0.078 0.081 0.081l0 0h7.23c0.043-0.003 0.078-0.038 0.081-0.081l0-0v-2.338c-0.003-0.044-0.037-0.078-0.081-0.081h-0zM29.419 16.662h-10.243c-0.043 0.003-0.078 0.038-0.081 0.081l-0 0v2.27c0.003 0.043 0.038 0.078 0.081 0.081l0 0h10.243c0.043-0.003 0.078-0.038 0.081-0.081l0-0v-2.27c0-0.001 0-0.002 0-0.003 0-0.043-0.035-0.078-0.078-0.078-0.001 0-0.002 0-0.003 0h0zM19.581 25.203h-2.338c-0.043 0.003-0.078 0.038-0.081 0.081l-0 0v2.338c0.003 0.043 0.038 0.078 0.081 0.081l0 0h2.338c0.043-0.003 0.078-0.038 0.081-0.081l0-0v-2.338c0-0.001 0-0.002 0-0.003 0-0.043-0.035-0.078-0.078-0.078-0.001 0-0.002 0-0.003 0h0zM12.905 12.986c-0.003-0.043-0.038-0.078-0.081-0.081l-0-0h-10.243c-0.043 0.003-0.078 0.038-0.081 0.081l-0 0v2.27c0.003 0.043 0.038 0.078 0.081 0.081l0 0h10.243c0.043-0.003 0.078-0.038 0.081-0.081l0-0v-2.27zM31.919 12.338h-2.338c-0.043 0.003-0.078 0.038-0.081 0.081l-0 0v2.338c0.003 0.043 0.038 0.078 0.081 0.081l0 0h2.338c0.043-0.003 0.078-0.038 0.081-0.081l0-0v-2.338c0-0.003 0.001-0.007 0.001-0.010 0-0.040-0.032-0.072-0.072-0.072-0.004 0-0.007 0-0.011 0.001l0-0zM15.257 19.095h-2.27c-0.043 0.003-0.078 0.038-0.081 0.081l-0 0v10.243c0.003 0.043 0.038 0.078 0.081 0.081l0 0h2.27c0.043-0.003 0.078-0.038 0.081-0.081l0-0v-10.243c-0.003-0.043-0.038-0.078-0.081-0.081l-0-0zM19.095 12.838v-10.257c-0.003-0.043-0.038-0.078-0.081-0.081l-0-0h-2.27c-0.043 0.003-0.078 0.038-0.081 0.081l-0 0v10.257c0.003 0.043 0.038 0.078 0.081 0.081l0 0h2.27c0.043-0.003 0.078-0.038 0.081-0.081l0-0zM19.581 29.5h-2.338c-0.043 0.003-0.078 0.038-0.081 0.081l-0 0v2.338c0.003 0.043 0.038 0.078 0.081 0.081l0 0h2.338c0.043-0.003 0.078-0.038 0.081-0.081l0-0v-2.338c0-0.003 0.001-0.007 0.001-0.010 0-0.040-0.032-0.072-0.072-0.072-0.004 0-0.007 0-0.011 0.001l0-0z"></path>
</svg>
