<!-- Generated by IcoMoon.io -->
<svg version="1.1" xmlns="http://www.w3.org/2000/svg" viewBox="0 0 16 32">
<title>rise</title>
<path fill="#8352a1" d="M5.041 2.472c0 1.365-1.107 2.472-2.472 2.472s-2.472-1.107-2.472-2.472c0-1.365 1.107-2.472 2.472-2.472s2.472 1.107 2.472 2.472z"></path>
<path fill="#3e99d3" d="M16.121 29.403c0 1.365-1.107 2.472-2.472 2.472s-2.472-1.107-2.472-2.472c0-1.365 1.107-2.472 2.472-2.472s2.472 1.107 2.472 2.472z"></path>
<path fill="#e53c54" d="M1.027 9.5l11.597-8.96c0.962-0.744 2.345-0.566 3.089 0.396l0.113 0.146c0.744 0.962 0.566 2.345-0.396 3.089l-11.597 8.96c-0.962 0.744-2.345 0.566-3.089-0.396l-0.113-0.146c-0.744-0.962-0.566-2.345 0.396-3.089z"></path>
<path fill="#f49352" d="M1.025 18.534l11.597-8.96c0.962-0.744 2.345-0.566 3.089 0.396l0.113 0.146c0.744 0.962 0.566 2.345-0.396 3.089l-11.597 8.96c-0.962 0.744-2.345 0.566-3.089-0.396l-0.113-0.146c-0.744-0.962-0.566-2.345 0.396-3.089z"></path>
<path fill="#3ebb90" d="M0.856 27.909l11.597-8.96c0.962-0.744 2.345-0.566 3.089 0.396l0.113 0.146c0.744 0.962 0.566 2.345-0.396 3.089l-11.597 8.96c-0.962 0.744-2.345 0.566-3.089-0.396l-0.113-0.146c-0.744-0.962-0.566-2.345 0.396-3.089z"></path>
</svg>
