<!-- Generated by IcoMoon.io -->
<svg version="1.1" xmlns="http://www.w3.org/2000/svg" viewBox="0 0 32 32">
<title>rose</title>
<path fill="#0089db" d="M28.75 6.35c-2.425-3.1-5.975-5.075-9.9-5.075-7.6 0-13.175 7.075-13.175 14.725 0 5.325 3.55 9.325 7.475 9.325 0.375 0 0.725-0.025 1.1-0.1-2.65-1.925-4.325-5.425-4.325-9.225 0-6.050 4.1-10.775 8.925-10.775 5.275 0 8.925 5.225 8.925 10.775-0.025 4.1-1.475 8.175-4.050 11.175-2.25 2.625-5.15 4.275-8.35 4.8 0 0 0.275 0.025 0.625 0.025 8.825 0 16-7.175 16-16 0-3.625-1.2-6.975-3.25-9.65zM26.325 16c0-5.325-3.55-9.325-7.475-9.325-0.375 0-0.725 0.025-1.1 0.1 2.65 1.925 4.325 5.425 4.325 9.225 0 6.050-4.1 10.775-8.925 10.775-5.275 0-8.925-5.225-8.925-10.775 0.025-4.1 1.475-8.175 4.050-11.175 2.25-2.625 5.15-4.275 8.35-4.8 0 0-0.275-0.025-0.625-0.025-8.825 0-16 7.175-16 16 0 3.625 1.2 6.975 3.25 9.65 2.425 3.1 5.975 5.050 9.9 5.050 7.6 0.025 13.175-7.050 13.175-14.7z"></path>
</svg>
