<!-- Generated by IcoMoon.io -->
<svg version="1.1" xmlns="http://www.w3.org/2000/svg" viewBox="0 0 32 32">
<title>rsr</title>
<path fill="#000" d="M16.001 32c8.813 0 16-7.187 16-16 0-8.811-7.187-16-16-16-8.811 0-16 7.189-16 16-0.002 8.813 7.187 16 16 16z"></path>
<path fill="#fff" d="M11.897 7.707h2.304c0.088 0 0.158 0.072 0.158 0.16v3.366c0 0.090 0.072 0.16 0.16 0.16h2.958c0.088 0 0.16-0.070 0.16-0.16v-3.366c0-0.088 0.070-0.16 0.16-0.16h2.302c0.088 0 0.16 0.072 0.16 0.16v3.366c0 0.090 0.070 0.16 0.16 0.16h2.816c0.090 0 0.16 0.072 0.16 0.16v2.298c0 0.090-0.070 0.16-0.16 0.16h-2.816c-0.090 0-0.16 0.072-0.16 0.16v3.576c0 0.088 0.070 0.16 0.16 0.16h2.816c0.090 0 0.16 0.070 0.16 0.16v2.298c0 0.088-0.070 0.16-0.16 0.16h-2.816c-0.090 0-0.16 0.072-0.16 0.16v3.366c0 0.088-0.072 0.16-0.16 0.16h-2.302c-0.090 0-0.16-0.072-0.16-0.16v-3.366c0-0.090-0.072-0.16-0.16-0.16h-2.957c-0.088 0-0.16 0.072-0.16 0.16v3.366c0 0.088-0.070 0.16-0.158 0.16h-2.304c-0.088 0-0.16-0.072-0.16-0.16v-3.366c0-0.090-0.070-0.16-0.16-0.16h-2.816c-0.090 0-0.16-0.072-0.16-0.16v-2.298c0-0.090 0.070-0.16 0.16-0.16h2.816c0.090 0 0.16-0.072 0.16-0.16v-3.576c0-0.088-0.070-0.16-0.16-0.16h-2.816c-0.090 0-0.16-0.070-0.16-0.16v-2.298c0-0.088 0.070-0.16 0.16-0.16h2.816c0.090 0 0.16-0.070 0.16-0.16v-3.366c-0.003-0.088 0.070-0.16 0.158-0.16v0zM17.639 17.748v-3.578c0-0.088-0.072-0.16-0.16-0.16h-2.958c-0.088 0-0.16 0.072-0.16 0.16v3.576c0 0.088 0.072 0.16 0.16 0.16h2.958c0.088 0.002 0.16-0.072 0.16-0.158z"></path>
</svg>
