<!-- Generated by IcoMoon.io -->
<svg version="1.1" xmlns="http://www.w3.org/2000/svg" viewBox="0 0 32 32">
<title>rsv</title>
<path fill="#000" d="M16 0c8.837 0 16 7.163 16 16s-7.163 16-16 16-16-7.163-16-16 7.163-16 16-16v0z"></path>
<path fill="#fff" d="M8.315 13.062c0 0.12 0.12 0.24 0.24 0.24h2.91v1.479h-2.91c-0.12 0-0.24 0.12-0.24 0.24v2.439c0 0.12 0.12 0.24 0.24 0.24h2.91v5.839c0 0.12 0.080 0.2 0.199 0.2h2.791c0.12 0 0.199-0.080 0.199-0.2v-5.517c0-0.12 0.080-0.2 0.199-0.2h2.234c0.080 0 0.159 0.040 0.199 0.12l2.472 5.719c0.040 0.080 0.12 0.12 0.199 0.12h2.991c0.159 0 0.24-0.16 0.199-0.28l-2.472-5.599c-0.040-0.12 0-0.24 0.12-0.28 1.196-0.44 1.954-1.52 1.954-2.96v-3.6c0-1.84-1.515-3.359-3.35-3.359h-7.736c-0.12 0-0.199 0.080-0.199 0.2v2.48h-2.91c-0.12 0-0.24 0.12-0.24 0.24v2.44z"></path>
<path fill="#000" d="M14.655 10.941c0-0.12 0.080-0.2 0.199-0.2h3.749c0.518 0 0.957 0.44 0.957 0.96v2.16c0 0.52-0.439 0.96-0.957 0.96h-3.749c-0.12 0-0.199-0.080-0.199-0.2v-3.679z"></path>
</svg>
