<!-- Generated by IcoMoon.io -->
<svg version="1.1" xmlns="http://www.w3.org/2000/svg" viewBox="0 0 32 32">
<title>ruff</title>
<path fill="#09cbcd" d="M16.41 19.46c0.202 1.447 0.030 3.040 1.292 4.339 0.737 0.758 0.448 1.927-0.327 2.59-0.371 0.33-0.862 0.531-1.401 0.531-0.521 0-0.998-0.189-1.366-0.501l0.003 0.003c-0.83-0.696-1.159-1.892-0.399-2.678 1.248-1.303 1.134-2.873 1.282-4.427 0.037-0.38 0.232-0.886-0.397-1.041-0.573-0.141-1.006-0.87-1.753-0.248-1.22 1.013-2.752 1.623-3.267 3.411-0.315 1.088-1.598 1.433-2.616 1.025-0.808-0.3-1.373-1.065-1.373-1.961 0-0.121 0.010-0.24 0.030-0.356l-0.002 0.012c0.204-1.113 1.217-2.048 2.335-1.762 1.667 0.424 2.91-0.408 4.271-1.004 0.29-0.128 0.865-0.232 0.677-0.626-0.315-0.647 0.257-1.591-0.596-1.98-1.338-0.61-2.565-1.53-4.248-1.055-1.159 0.325-2.17-0.522-2.402-1.644-0.029-0.135-0.046-0.29-0.046-0.449 0-0.984 0.647-1.817 1.538-2.097l0.016-0.004c1.081-0.304 2.319 0.218 2.592 1.366 0.427 1.721 1.997 2.145 3.105 3.093 0.077 0.065 0.267 0.121 0.308 0.081 0.505-0.485 1.141-0.777 1.693-1.178 0.359-0.262 0.086-0.872 0.044-1.322-0.1-1.141-0.199-2.238-1.104-3.177-0.814-0.844-0.601-2.066 0.232-2.797 0.371-0.334 0.864-0.539 1.406-0.539 0.564 0 1.076 0.222 1.454 0.584l-0.001-0.001c0.805 0.751 0.96 1.948 0.158 2.813-0.717 0.772-0.946 1.623-1.060 2.604-0.216 1.779-0.026 2.154 1.598 2.896 0.153 0.072 0.285 0.132 0.417 0.023 1.097-0.911 2.63-1.317 3.082-2.966 0.226-0.927 1.049-1.604 2.030-1.604 0.169 0 0.333 0.020 0.491 0.058l-0.014-0.003c0.085 0.020 0.154 0.040 0.223 0.065l-0.014-0.004c1.013 0.334 1.623 1.503 1.37 2.623-0.193 0.937-1.011 1.632-1.992 1.632-0.14 0-0.276-0.014-0.408-0.041l0.013 0.002c-0.065-0.014-0.13-0.030-0.192-0.049-1.704-0.515-2.919 0.515-4.195 1.18-0.638 0.329-0.255 1.338-0.508 2.017-0.141 0.383 0.519 0.464 0.842 0.612 1.347 0.638 2.62 1.357 4.278 0.928 1.064-0.278 2.041 0.696 2.189 1.769 0.019 0.105 0.030 0.227 0.030 0.351 0 0.898-0.579 1.661-1.384 1.936l-0.014 0.004c-1.037 0.366-2.252-0.030-2.565-1.159-0.515-1.855-2.119-2.458-3.423-3.411-0.693-0.494-1.973 0.506-1.934 1.537z"></path>
<path fill="#09cbcd" d="M17.347 0l11.826 6.813c-2.010 1.551-2.402 1.579-4.406 0.42q-2.901-1.681-5.797-3.348c-1.811-1.043-2.057-1.616-1.623-3.884z"></path>
<path fill="#09cbcd" d="M2.692 25.231c1.491-1.333 2.845-1.542 4.478-0.427 1.781 1.215 3.71 2.194 5.591 3.281 1.943 1.127 2.119 1.519 1.737 3.965z"></path>
<path fill="#09cbcd" d="M2.734 6.803l11.78-6.803c0.438 2.293 0.213 2.817-1.623 3.877-1.901 1.104-3.875 2.103-5.69 3.334-1.612 1.097-2.973 0.951-4.466-0.408z"></path>
<path fill="#09cbcd" d="M29.141 25.166l-11.75 6.866c-0.48-2.191-0.213-2.815 1.584-3.856 1.936-1.12 3.942-2.145 5.797-3.39 1.561-1.057 2.889-0.953 4.369 0.38z"></path>
<path fill="#08cbcd" d="M1.391 9.162c1.927 0.552 2.681 1.686 2.551 3.631-0.158 2.187-0.035 4.406-0.037 6.592 0 2.115-0.32 2.551-2.507 3.307z"></path>
<path fill="#08cbcd" d="M30.467 22.725c-2.282-0.928-2.479-1.203-2.479-3.492v-7.406c0-0.001 0-0.002 0-0.003 0-1.254 0.899-2.298 2.087-2.524l0.016-0.003c0.663-0.132 0.464 0.369 0.464 0.642 0.019 1.927 0 3.854 0 5.781v6.713c-0.021 0.111-0.052 0.209-0.092 0.302l0.004-0.009z"></path>
</svg>
