<!-- Generated by IcoMoon.io -->
<svg version="1.1" xmlns="http://www.w3.org/2000/svg" viewBox="0 0 32 32">
<title>rvn</title>
<path fill="#384182" d="M14.726 25.949l-8.401 6.032 5.333-24.543zM14.896 25.893l5.116 0.066-8.156-18.426zM20.493 25.487l3.917-14.518-1.482-1.812zM18.605 2.728l-6.447 4.342 9.421-3.049zM17.794 2.728l-4.002 0.132-0.585 1.671z"></path>
<path fill="#f79534" d="M22.645 8.599l-10.317-1.416 9.298-2.926zM20.201 3.143l0.566-1.539-2.973-1.293zM21.060 1.454l0.67 2.417 3.965-1.048z"></path>
<path fill="#f0513a" d="M20.238 25.864l-8.269-18.501 10.78 1.51zM18.294 2.728l-5.097 1.992-1.227 2.266zM15.132 1.218l-1.274 1.407 4.229-0.104zM17.359 0.123l-2.020 0.935 4.606 2.030zM19.663 0h-2.171l3.36 1.303zM20.918 1.727l-0.519 1.548 1.038 0.5z"></path>
</svg>
