<!-- Generated by IcoMoon.io -->
<svg version="1.1" xmlns="http://www.w3.org/2000/svg" viewBox="0 0 30 32">
<title>sbd</title>
<path fill="#165098" d="M3.632 3.602c-1.388 1.163-2.821 2.596-3.404 4.344-0.672 2.060 0.268 4.165 1.165 6 0.895 1.879 1.879 3.716 2.73 5.64 0.672 1.522 1.612 3.312 1.388 5.016-0.178 1.21-0.583 2.373-0.806 3.582-0.179 0.806 0.583 0 0.85-0.223 1.567-1.344 3.268-2.866 3.895-4.926 0.312-1.029 0.134-1.971-0.223-2.955-0.357-0.94-0.761-1.835-1.165-2.777-0.85-1.882-1.745-3.761-2.643-5.643-0.357-0.672-0.717-1.388-1.029-2.105-0.312-0.761-0.493-1.567-0.538-2.417-0.045-0.672-0.045-1.299 0.045-1.971 0.045-0.493 0.178-0.94 0.223-1.433 0.047-0.265-0.176-0.357-0.489-0.131zM24.138 3.602c-1.388 1.165-2.821 2.599-3.404 4.344-0.672 2.060 0.268 4.165 1.165 6 0.895 1.882 1.882 3.716 2.732 5.643 0.672 1.522 1.612 3.312 1.388 5.016-0.178 1.21-0.583 2.373-0.806 3.582-0.178 0.806 0.583 0 0.851-0.223 1.567-1.344 3.268-2.866 3.895-4.926 0.312-1.029 0.134-1.971-0.223-2.955-0.357-0.94-0.761-1.835-1.165-2.777-0.851-1.882-1.745-3.761-2.643-5.643-0.357-0.672-0.717-1.388-1.029-2.105q-0.469-1.142-0.538-2.417c-0.045-0.672-0.045-1.299 0.045-1.971 0.045-0.493 0.178-0.94 0.223-1.434 0.047-0.268-0.176-0.359-0.491-0.134z"></path>
<path fill="#5c9dd5" d="M13.572 0.198c-1.567 1.3-3.268 2.866-4.21 4.701-0.672 1.299-0.761 2.643-0.404 3.984 0.449 1.612 1.073 3.223 1.745 4.79 1.299 3 3 5.821 4.254 8.866 0.448 1.073 0.94 2.283 1.029 3.493 0.090 1.478-0.404 3.045-0.806 4.433-0.090 0.404-0.357 0.94-0.312 1.344 0.045 0.312 0.223 0.178 0.404 0.045 0.805-0.623 1.521-1.253 2.194-1.927l-0 0c1.835-1.745 3.939-4.076 3.761-6.806-0.090-1.121-0.627-2.194-1.073-3.223-0.493-1.207-1.029-2.37-1.567-3.535-0.984-2.194-2.016-4.344-3.089-6.493-0.357-0.761-0.806-1.478-1.073-2.239-0.404-1.029-0.583-2.105-0.627-3.178-0.045-0.806 0-1.656 0.090-2.462 0.045-0.538 0.223-1.029 0.223-1.567 0.134-0.493-0.134-0.538-0.538-0.226z"></path>
</svg>
