<!-- Generated by IcoMoon.io -->
<svg version="1.1" xmlns="http://www.w3.org/2000/svg" viewBox="0 0 32 32">
<title>sc</title>
<path fill="#20ee82" d="M20.802 15.998v4.8h-4.803c-2.651 0-4.8-2.149-4.8-4.8s2.149-4.8 4.8-4.8c2.651 0 4.8 2.149 4.8 4.8v0zM16.062 7.999c-0.071-0.002-0.154-0.004-0.238-0.004-4.42 0-8.003 3.583-8.003 8.003 0 4.336 3.449 7.867 7.753 7.999l0.012 0h8.411v-7.904c0-4.411-3.524-8.063-7.936-8.094z"></path>
<path fill="#7f8c8d" d="M27.312 4.686c-2.895-2.895-6.895-4.686-11.313-4.686-3.284 0-6.338 0.99-8.878 2.687l0.058-0.037c0.174 0.191 0.326 0.407 0.451 0.64l0.008 0.017c2.353-1.565 5.244-2.497 8.353-2.497 4.197 0 7.997 1.698 10.75 4.445l-0-0c5.924 5.916 5.924 15.555 0 21.479s-15.563 5.924-21.487 0c-2.744-2.753-4.44-6.551-4.44-10.745 0-3.111 0.933-6.004 2.535-8.414l-0.035 0.056c-0.25-0.133-0.466-0.285-0.66-0.462l0.003 0.002c-4.875 7.366-2.851 17.295 4.514 22.17s17.295 2.851 22.17-4.514c1.665-2.484 2.657-5.541 2.657-8.829 0-4.418-1.791-8.418-4.686-11.313v0z"></path>
<path fill="#20ee82" d="M3.679 3.672c0.29-0.291 0.691-0.471 1.134-0.471 0.884 0 1.6 0.716 1.6 1.6s-0.716 1.6-1.6 1.6c-0.44 0-0.839-0.178-1.128-0.466l-0.005-0.005c-0.288-0.289-0.466-0.688-0.466-1.129s0.178-0.839 0.466-1.129l-0 0z"></path>
</svg>
