<!-- Generated by IcoMoon.io -->
<svg version="1.1" xmlns="http://www.w3.org/2000/svg" viewBox="0 0 32 32">
<title>scrt</title>
<path fill="#1b1b1b" stroke="#fff" stroke-linejoin="miter" stroke-linecap="butt" stroke-miterlimit="4" stroke-width="1.0492" d="M31.475 16c0 8.547-6.929 15.475-15.475 15.475s-15.475-6.929-15.475-15.475c0-8.547 6.929-15.475 15.475-15.475s15.475 6.929 15.475 15.475z"></path>
<path fill="#fff" d="M20.538 11.462c0.21 0.21 0.551 0.184 0.708-0.052 0.157-0.184 0.131-0.472-0.052-0.63-1.731-1.652-3.279-2.492-5.849-2.361-2.702 0.131-5.089 1.548-4.931 4.538 0.131 2.649 2.702 3.62 4.957 4.485 1.731 0.656 3.252 1.233 3.331 2.466 0.079 1.364-1.311 2.177-2.518 2.256-2.282 0.131-3.62-0.682-5.115-2.125-0.184-0.184-0.472-0.184-0.656-0.026-0.21 0.184-0.21 0.498-0.026 0.708 1.679 1.679 3.41 2.518 5.928 2.387 2.518-0.184 5.613-1.6 5.456-4.59-0.131-2.597-2.597-3.567-4.826-4.407-1.836-0.708-3.541-1.364-3.62-2.859-0.052-1.075 1.233-1.862 2.151-1.915 2.23-0.105 3.62 0.682 5.062 2.125zM20.826 18.57c0 1.154-0.63 2.151-1.574 2.728l-0.052-0.026c0.341-0.472 0.393-1.075 0.393-1.652 0-1.705-1.862-2.361-3.829-3.069-2.177-0.787-4.459-1.6-4.459-3.908 0-1.049 0.472-2.177 1.39-2.702l0.026 0.052c-0.236 0.498-0.341 1.049-0.341 1.6 0 1.889 2.072 2.649 4.171 3.436 2.151 0.787 4.275 1.574 4.275 3.541z"></path>
<path fill="none" stroke="#fff" stroke-linejoin="miter" stroke-linecap="round" stroke-miterlimit="4" stroke-width="0.5246" d="M15.869 28.328c6.872 0 12.459-5.587 12.459-12.459s-5.587-12.459-12.459-12.459-12.459 5.587-12.459 12.459 5.587 12.459 12.459 12.459z"></path>
</svg>
