<!-- Generated by IcoMoon.io -->
<svg version="1.1" xmlns="http://www.w3.org/2000/svg" viewBox="0 0 32 32">
<title>seele</title>
<path d="M19.482 15.786c0 1.921-1.557 3.478-3.478 3.478s-3.478-1.557-3.478-3.478c0-1.921 1.557-3.478 3.478-3.478s3.478 1.557 3.478 3.478z"></path>
<path d="M3.85 21.252c0.582-0.394 0.96-1.052 0.96-1.798 0-0.206-0.029-0.405-0.083-0.594l0.004 0.015c-0.263-0.925-0.414-1.988-0.414-3.086 0-5.311 3.538-9.795 8.386-11.224l0.083-0.021c0.877-0.287 1.5-1.098 1.5-2.054 0-1.191-0.966-2.157-2.157-2.157-0.194 0-0.382 0.026-0.561 0.074l0.015-0.003c-6.742 1.991-11.578 8.126-11.578 15.392 0 1.504 0.207 2.959 0.594 4.339l-0.027-0.113c0.258 0.924 1.092 1.59 2.082 1.59 0.446 0 0.86-0.135 1.204-0.367l-0.008 0.005z"></path>
<path d="M17.252 2.367c0 0.002 0 0.004 0 0.006 0 0.998 0.68 1.836 1.602 2.078l0.015 0.003c5.108 1.325 8.819 5.894 8.819 11.33 0 0.924-0.107 1.824-0.31 2.686l0.016-0.079c-0.032 0.14-0.051 0.301-0.051 0.466 0 1.19 0.965 2.155 2.155 2.155 0.715 0 1.348-0.348 1.74-0.883l0.004-0.006c0.164-0.224 0.288-0.488 0.356-0.774l0.003-0.015c0.251-1.063 0.395-2.282 0.395-3.536 0-7.432-5.060-13.683-11.923-15.494l-0.112-0.025c-0.164-0.045-0.353-0.071-0.548-0.071-1.002 0-1.845 0.681-2.092 1.605l-0.003 0.015c-0.042 0.16-0.065 0.344-0.065 0.533 0 0.002 0 0.004 0 0.006v-0z"></path>
<path d="M27.29 23.523c-0.342-0.248-0.77-0.396-1.233-0.396-0.611 0-1.162 0.259-1.548 0.673l-0.001 0.001c-2.136 2.259-5.153 3.665-8.499 3.665-3.109 0-5.934-1.214-8.028-3.193l0.005 0.005c-0.058-0.056-0.117-0.111-0.174-0.168-0.376-0.366-0.889-0.592-1.456-0.592-0.435 0-0.839 0.133-1.174 0.361l0.007-0.005-0.092 0.061c-0.57 0.381-0.941 1.022-0.941 1.75 0 0.432 0.13 0.833 0.354 1.167l-0.005-0.008c0.080 0.122 0.168 0.229 0.265 0.325l0 0c2.888 2.852 6.858 4.613 11.24 4.613 4.455 0 8.484-1.82 11.385-4.758l0.002-0.002c0.093-0.095 0.185-0.191 0.278-0.288 0.355-0.376 0.572-0.885 0.572-1.444 0-0.604-0.254-1.148-0.66-1.532l-0.001-0.001c-0.064-0.060-0.132-0.117-0.204-0.17l-0.006-0.004z"></path>
</svg>
