<!-- Generated by IcoMoon.io -->
<svg version="1.1" xmlns="http://www.w3.org/2000/svg" viewBox="0 0 32 32">
<title>sfi</title>
<path d="M14.132 23.858c0.040-8.080 0.040-8.080-0.4-8.12-1.88-0.28-3.080-0.72-4.4-1.56-1.8-1.16-2.88-2.72-3.36-4.72-0.32-1.36-0.2-2.56 0.4-4.32 0.6-1.8 0.6-2.4 0.080-3.4l-0.4-0.76 1.6-0.56c1.8-0.6 1.76-0.64 2.24 0.4s0.4 2.56-0.12 4.24c-0.56 1.68-0.68 2.44-0.52 3.48 0.28 2 1.6 3.32 3.92 3.88 1.24 0.32 4.44 0.32 5.52 0 1.12-0.32 2.2-0.92 2.76-1.52 1.24-1.36 1.48-3.16 0.68-5.52-0.64-2.2-0.6-4.080 0.16-5.080 0.24-0.32 0.24-0.32 1.48 0.040 2.32 0.6 2.16 0.48 1.68 1.24-0.56 0.88-0.52 1.6 0.080 3.68 0.72 2.36 0.64 3.84-0.24 5.76-0.6 1.36-2.080 2.8-3.56 3.48-1.16 0.52-3.12 1.16-3.68 1.16-0.68 0-0.72 0.080-0.64 0.76 0.080 0.32 0.12 3.92 0.12 8.040v7.44h-3.44l0.040-8.040zM6.052 27.818v-1.52h6.24v3.040h-6.24v-1.52zM19.332 27.818v-1.52h6.24v3.040h-6.24v-1.52zM6.052 22.818v-1.52h6.24v3.040h-6.24v-1.52zM19.332 22.818v-1.52h6.24v3.040h-6.24v-1.52zM6.052 17.818v-1.52h6.24v3.040h-6.24v-1.52zM19.332 17.818v-1.52h6.24v3.040h-6.24v-1.52zM17.212 10.738c-0.36-0.72-0.84-1.84-1.080-2.52l-0.44-1.2-0.2 0.8c-0.28 1-1.76 4.12-1.96 4.12-0.080 0-0.76-0.32-1.52-0.68l-1.36-0.68 3.68-6.88h2.8l1.84 3.4c1 1.88 1.8 3.44 1.8 3.44-0.080 0.080-2.76 1.48-2.8 1.48-0.080 0.040-0.4-0.56-0.76-1.28v0z"></path>
</svg>
