<!-- Generated by IcoMoon.io -->
<svg version="1.1" xmlns="http://www.w3.org/2000/svg" viewBox="0 0 32 32">
<title>sfp</title>
<path d="M30.171 18.743v2.286c0 6.4-9.326 10.057-12.16 10.971v0l-1.006 0.366v-3.931l0.549-0.183c4.48-1.646 8.96-4.48 8.96-7.223v0-2.286h3.657zM16 0l3.84 1.189v4.023l-3.84-1.189-0.274 0.091v9.051h4.023v3.749h-4.023v15.36l-1.097-0.366c-0.457-0.183-1.28-0.457-2.286-0.914v0l-0.457-0.183v-29.623l4.114-1.189zM10.789 1.646v4.023l-5.211 1.554v5.943h5.211v17.28l-1.189-0.549c-3.566-1.829-7.771-4.846-7.771-9.143v0-2.011h3.749v2.011c0 0.914 0.457 1.829 1.371 2.743v0-6.583h-5.12v-12.617l8.96-2.651zM20.937 1.554l9.143 2.834v12.617h-5.394v5.486c0 0-1.189 1.554-3.749 2.834 0-0.731 0-11.794 0-18.56v-5.211zM24.777 6.674v6.491h1.646v-5.943l-1.646-0.549z"></path>
</svg>
