<!-- Generated by IcoMoon.io -->
<svg version="1.1" xmlns="http://www.w3.org/2000/svg" viewBox="0 0 32 32">
<title>shib</title>
<path fill="#f00500" d="M23.339 2.815c-0.823 0.823-1.578 1.716-2.248 2.667l-0.212-0.069c-1.223-0.399-2.49-0.646-3.767-0.73-0.385-0.030-1.819-0.030-2.288 0-1.415 0.094-2.5 0.306-3.732 0.735-0.049 0.020-0.094 0.035-0.138 0.049-0.695-0.947-1.469-1.834-2.322-2.648 4.092-2.096 8.88-2.347 13.165-0.695 0.459 0.173 0.907 0.375 1.346 0.592l0.197 0.099z"></path>
<path fill="#f00500" d="M30.972 21.517c-0.621 1.77-1.553 3.412-2.761 4.842-0.656 0.769-1.381 1.474-2.16 2.115-1.824 1.469-3.954 2.52-6.227 3.072-2.515 0.606-5.138 0.606-7.652 0-2.278-0.552-4.403-1.602-6.227-3.072-0.779-0.641-1.504-1.346-2.16-2.115-3.476-4.107-4.531-9.748-2.761-14.831 0.335-0.942 0.754-1.849 1.257-2.712 0.232-0.394 0.518-0.838 0.656-1.021 0.473 2.036 1.055 3.826 1.272 4.472-0.015 0.034-0.035 0.074-0.054 0.108-1.149 2.327-1.77 4.571-1.918 6.957 0 0.030-0.005 0.064-0.005 0.094-0.039 0.715-0.020 1.055 0.099 1.504 0.37 1.405 1.509 2.953 3.294 4.472 2.924 2.485 6.888 4.28 9.891 4.487 3.131 0.212 7.751-1.617 10.828-4.29 0.483-0.429 0.937-0.883 1.361-1.366 0.306-0.355 0.759-0.966 0.725-0.966-0.010 0 0-0.010 0.020-0.020 0.015-0.010 0.030-0.025 0.020-0.035-0.005-0.005 0.005-0.020 0.020-0.025s0.025-0.015 0.020-0.025 0-0.020 0.020-0.025 0.020-0.020 0.015-0.030c-0.005-0.010 0-0.020 0.010-0.020s0.020-0.015 0.020-0.025 0.010-0.025 0.020-0.025 0.020-0.010 0.020-0.020c0.015-0.039 0.039-0.079 0.064-0.113 0.074-0.113 0.37-0.641 0.409-0.73 0.281-0.636 0.459-1.203 0.542-1.77 0.039-0.271 0.064-0.769 0.044-0.888-0.005-0.020-0.005-0.054-0.010-0.108-0.010-0.099-0.015-0.247-0.025-0.394-0.010-0.222-0.030-0.532-0.044-0.685-0.212-2.239-0.784-4.068-1.869-6.006-0.044-0.074-0.084-0.148-0.108-0.207-0.010-0.015-0.015-0.030-0.020-0.039v0c0.153-0.459 0.779-2.377 1.277-4.571l0.010 0.010 0.074 0.099c0.128 0.173 0.468 0.685 0.621 0.932 0.695 1.134 1.238 2.352 1.622 3.624 0.892 3.062 0.818 6.326-0.227 9.344z"></path>
<path fill="#000" d="M24.572 15.625c-0.015 0.079-0.247 0.316-0.478 0.488-0.68 0.498-1.898 0.961-3.136 1.183-0.705 0.128-1.41 0.148-1.622 0.044-0.138-0.069-0.158-0.123-0.108-0.301 0.104-0.37 0.439-0.774 0.961-1.154 0.266-0.192 1.346-0.848 1.849-1.124 0.828-0.454 1.499-0.725 1.953-0.789 0.143-0.020 0.316-0.025 0.37 0 0.089 0.034 0.187 0.296 0.227 0.611 0.020 0.168 0.010 0.907-0.015 1.040z"></path>
<path fill="#000" d="M12.955 17.257c-0.030 0.059-0.178 0.123-0.345 0.148s-0.68 0.010-0.971-0.025c-1.045-0.138-2.155-0.459-2.963-0.853-0.454-0.222-0.779-0.444-1.021-0.685l-0.138-0.143-0.015-0.187c-0.025-0.325-0.020-0.838 0.020-1.021 0.025-0.153 0.079-0.301 0.153-0.434 0.039-0.049 0.039-0.049 0.217-0.049 0.217 0 0.399 0.034 0.695 0.128 0.606 0.187 1.509 0.641 2.608 1.302 0.907 0.542 1.247 0.809 1.509 1.173 0.178 0.227 0.296 0.547 0.251 0.646z"></path>
<path fill="#000" d="M19.937 24.121c0 0.015-0.059 0.251-0.133 0.532s-0.133 0.508-0.133 0.518c-0.054 0.005-0.104 0.010-0.158 0.005h-0.158l-0.217 0.513c-0.118 0.281-0.227 0.542-0.242 0.582l-0.030 0.069-0.207-0.335v-1.366l-0.039 0.010c-0.084 0.020-0.68 0.099-0.942 0.123-1.080 0.108-2.165 0.084-3.239-0.069-0.173-0.025-0.32-0.044-0.325-0.039s0 0.32 0.010 0.71l0.015 0.7-0.084 0.128c-0.044 0.069-0.089 0.128-0.089 0.133-0.015 0.015-0.064-0.064-0.178-0.291-0.123-0.237-0.212-0.488-0.276-0.749l-0.034-0.143-0.153 0.010-0.153 0.015-0.039-0.182c-0.020-0.099-0.044-0.251-0.054-0.335l-0.015-0.158-0.128-0.113c-0.074-0.064-0.148-0.128-0.163-0.138-0.025-0.020-0.034-0.054-0.034-0.084v-0.059l1.233 0.010 0.039 0.128 0.212 0.010c0.118 0.005 0.493 0.015 0.828 0.025l0.616 0.015 0.158-0.247 0.163-0.247h0.207l-0.010-1.026-0.271-0.118c-0.873-0.385-1.386-0.823-1.578-1.356-0.039-0.108-0.039-0.148-0.049-0.641-0.005-0.488-0.005-0.532 0.030-0.641 0.069-0.247 0.261-0.439 0.508-0.503 0.084-0.025 0.306-0.025 1.469-0.025l1.371 0.005 0.153 0.074c0.182 0.089 0.266 0.153 0.37 0.291 0.118 0.158 0.153 0.281 0.153 0.582 0 0.429-0.030 0.799-0.074 0.947-0.064 0.202-0.163 0.394-0.286 0.567-0.247 0.316-0.695 0.631-1.104 0.774l-0.118 0.044 0.010 1.035 0.217 0.020 0.148 0.222 0.143 0.222h0.661c0.365 0 0.685 0.005 0.715 0.010 0.049 0.010 0.059 0.005 0.108-0.079l0.059-0.089h0.567c0.424-0.020 0.552-0.010 0.552 0.005z"></path>
<path fill="#000" d="M17.334 25.536c-0.094 0.054-0.158 0.079-0.173 0.069-0.015-0.005-0.084-0.064-0.158-0.118l-0.133-0.108-0.138 0.148c-0.301 0.325-0.311 0.34-0.399 0.345-0.138 0.015-0.168-0.010-0.335-0.261-0.089-0.128-0.158-0.237-0.158-0.237s-0.064-0.010-0.138-0.015l-0.138-0.015-0.128 0.266-0.113-0.035c-0.089-0.030-0.178-0.064-0.261-0.104l-0.148-0.074v-0.281l2.623 0.010 0.005 0.133c0.005 0.158 0.010 0.153-0.207 0.276z"></path>
<path fill="#fff" d="M29.66 19.52c-0.005-0.020-0.005-0.054-0.010-0.108-1.183-0.128-4.561-0.207-7.697 2.381 0 0-1.011-4.635-5.744-4.635s-6.489 4.635-6.489 4.635c-2.653-2.855-6.203-2.648-7.485-2.46 0 0.030-0.005 0.064-0.005 0.094-0.039 0.715-0.020 1.055 0.099 1.504 0.37 1.405 1.509 2.953 3.294 4.472 2.924 2.485 6.888 4.28 9.891 4.487 3.131 0.212 7.751-1.617 10.828-4.29 0.483-0.429 0.937-0.883 1.361-1.366 0.306-0.355 0.759-0.966 0.725-0.966-0.010 0 0-0.010 0.020-0.020 0.015-0.010 0.030-0.025 0.020-0.035-0.005-0.005 0.005-0.020 0.020-0.025s0.025-0.015 0.020-0.025 0-0.020 0.020-0.025 0.020-0.020 0.015-0.030c-0.005-0.010 0-0.020 0.010-0.020s0.020-0.015 0.020-0.025 0.010-0.025 0.020-0.025 0.020-0.010 0.020-0.020c0.015-0.039 0.039-0.079 0.064-0.113 0.074-0.113 0.37-0.641 0.409-0.73 0.281-0.636 0.459-1.203 0.542-1.77 0.030-0.271 0.054-0.769 0.035-0.888zM17.334 25.536c-0.094 0.054-0.158 0.079-0.173 0.069-0.015-0.005-0.084-0.064-0.158-0.118l-0.133-0.108-0.138 0.148c-0.301 0.325-0.311 0.34-0.399 0.345-0.138 0.015-0.168-0.010-0.335-0.261-0.089-0.128-0.158-0.237-0.158-0.237s-0.064-0.010-0.138-0.015l-0.138-0.015-0.128 0.266-0.113-0.035c-0.089-0.030-0.178-0.064-0.261-0.104l-0.148-0.074v-0.281l2.623 0.010 0.005 0.133c0.005 0.158 0.010 0.153-0.207 0.276zM19.799 24.648c-0.074 0.281-0.133 0.508-0.133 0.518-0.054 0.005-0.104 0.010-0.158 0.005h-0.158l-0.212 0.518c-0.118 0.281-0.227 0.542-0.242 0.582l-0.030 0.069-0.207-0.335v-1.366l-0.039 0.010c-0.084 0.020-0.68 0.099-0.942 0.123-1.080 0.108-2.165 0.084-3.239-0.069-0.173-0.025-0.32-0.044-0.325-0.039s0 0.32 0.010 0.71l0.015 0.7-0.084 0.128c-0.044 0.069-0.089 0.128-0.089 0.133-0.015 0.015-0.064-0.064-0.178-0.291-0.123-0.237-0.212-0.488-0.276-0.749l-0.034-0.143-0.153 0.010-0.153 0.015-0.039-0.182c-0.020-0.099-0.044-0.251-0.054-0.335l-0.015-0.158-0.128-0.113c-0.074-0.064-0.148-0.128-0.163-0.138-0.025-0.020-0.034-0.054-0.034-0.084v-0.059l1.233 0.010 0.039 0.128 0.212 0.010c0.118 0.005 0.493 0.015 0.828 0.025l0.616 0.015 0.158-0.247 0.163-0.247h0.207l-0.010-1.026-0.271-0.118c-0.873-0.385-1.386-0.823-1.578-1.356-0.039-0.108-0.039-0.148-0.049-0.641-0.005-0.488-0.005-0.532 0.030-0.641 0.069-0.247 0.261-0.439 0.508-0.503 0.084-0.025 0.306-0.025 1.469-0.025l1.371 0.005 0.153 0.074c0.182 0.089 0.266 0.153 0.37 0.291 0.118 0.158 0.153 0.281 0.153 0.582 0 0.429-0.030 0.799-0.074 0.947-0.064 0.202-0.163 0.394-0.286 0.567-0.247 0.316-0.695 0.631-1.104 0.774l-0.118 0.044 0.010 1.035 0.217 0.020 0.148 0.222 0.143 0.222h0.661c0.365 0 0.685 0.005 0.715 0.010 0.049 0.010 0.059 0.005 0.108-0.079l0.059-0.089h0.567c0.439 0 0.567 0.005 0.567 0.020-0.015-0.005-0.079 0.237-0.153 0.513z"></path>
<path fill="#ffa409" d="M29.621 19.017c-0.010-0.222-0.030-0.532-0.044-0.685-0.212-2.239-0.784-4.068-1.869-6.006-0.044-0.074-0.084-0.148-0.108-0.207-0.010-0.015-0.015-0.030-0.020-0.039v0c0.153-0.459 0.779-2.377 1.277-4.571 0.675-2.978 1.104-6.459-0.207-7.504 0 0-2.268-0.168-5.305 2.81-0.823 0.823-1.578 1.716-2.248 2.668l-0.212-0.069c-1.223-0.399-2.49-0.646-3.767-0.73-0.385-0.030-1.819-0.030-2.288 0-1.415 0.094-2.5 0.306-3.732 0.735-0.049 0.020-0.094 0.035-0.138 0.049-0.695-0.947-1.469-1.834-2.322-2.648-3.161-2.993-5.512-2.82-5.512-2.82-1.39 1.080-0.917 4.719-0.197 7.795 0.473 2.036 1.055 3.826 1.272 4.472-0.015 0.034-0.035 0.074-0.054 0.108-1.149 2.327-1.77 4.571-1.918 6.957 1.287-0.187 4.832-0.399 7.49 2.46 0 0 1.755-4.635 6.489-4.635s5.744 4.635 5.744 4.635c3.136-2.589 6.513-2.505 7.697-2.381-0.005-0.099-0.015-0.247-0.025-0.394zM5.13 10.408c0 0-1.844-4.61-1.371-7.243 0 0 0 0 0 0 0.079-0.444 0.227-0.833 0.459-1.129 0 0 2.091 0.207 5.463 3.954 0 0-0.641 0.311-1.499 0.971 0 0-0.005 0.005-0.010 0.005-0.932 0.715-2.125 1.849-3.042 3.442v0zM12.955 17.257c-0.030 0.059-0.178 0.123-0.345 0.148s-0.68 0.010-0.971-0.025c-1.045-0.138-2.155-0.459-2.963-0.853-0.454-0.222-0.779-0.444-1.021-0.685l-0.138-0.143-0.015-0.187c-0.025-0.325-0.020-0.838 0.020-1.021 0.025-0.153 0.079-0.301 0.153-0.434 0.039-0.049 0.039-0.049 0.217-0.049 0.217 0 0.399 0.034 0.695 0.128 0.606 0.187 1.509 0.641 2.608 1.302 0.907 0.542 1.247 0.809 1.509 1.173 0.178 0.227 0.296 0.547 0.251 0.646zM24.572 15.625c-0.015 0.079-0.247 0.316-0.478 0.488-0.68 0.498-1.898 0.961-3.136 1.183-0.705 0.128-1.41 0.148-1.622 0.044-0.138-0.069-0.158-0.123-0.108-0.301 0.104-0.37 0.439-0.774 0.961-1.154 0.266-0.192 1.346-0.848 1.849-1.124 0.828-0.454 1.499-0.725 1.953-0.789 0.143-0.020 0.316-0.025 0.37 0 0.089 0.034 0.187 0.296 0.227 0.611 0.020 0.168 0.010 0.907-0.015 1.040zM23.754 6.962l-0.010-0.005c-0.828-0.661-1.45-0.971-1.45-0.971 3.259-3.747 5.276-3.954 5.276-3.954 0.222 0.301 0.365 0.685 0.444 1.129 0 0 0 0 0 0 0.459 2.633-1.321 7.248-1.321 7.248-0.745-1.326-1.745-2.5-2.939-3.447v0z"></path>
<path fill="#ff9300" d="M28.019 3.16c-0.385-0.049-2.204-0.059-4.265 3.802l-0.010-0.005c-0.828-0.661-1.45-0.971-1.45-0.971 3.259-3.747 5.276-3.954 5.276-3.954 0.227 0.301 0.37 0.685 0.449 1.129z"></path>
<path fill="#ff8300" d="M26.697 10.408c-0.749-1.331-1.745-2.5-2.944-3.447 2.061-3.861 3.875-3.851 4.265-3.802 0 0 0 0 0 0 0.459 2.638-1.321 7.248-1.321 7.248z"></path>
<path fill="#ff8300" d="M28.093 3.175c-0.025-0.005-0.049-0.010-0.074-0.015l0.074 0.015z"></path>
<path fill="#ff9300" d="M9.681 5.986c0 0-0.641 0.311-1.499 0.971 0 0-0.005 0.005-0.010 0.005-2.135-3.866-4.014-3.851-4.418-3.802 0.079-0.444 0.227-0.833 0.459-1.129 0.005 0 2.096 0.207 5.468 3.954z"></path>
<path fill="#ff8300" d="M8.178 6.962c-0.937 0.72-2.13 1.849-3.047 3.447 0 0-1.844-4.61-1.371-7.248 0 0 0 0 0 0 0.399-0.049 2.283-0.059 4.418 3.802z"></path>
<path fill="#ff8300" d="M3.76 3.16c-0.025 0.005-0.054 0.010-0.079 0.015l0.079-0.015z"></path>
<path fill="#fff" d="M21.707 12.967c0 0-1.578 0.099-1.381-1.134s1.43-1.381 1.775-1.331 1.726 0.542 1.479 1.578-0.592 0.838-0.789 0.888-1.085 0-1.085 0z"></path>
<path fill="#fff" d="M10.071 12.967c0 0-1.578 0.099-1.381-1.134s1.43-1.381 1.775-1.331 1.726 0.542 1.479 1.578-0.592 0.838-0.789 0.888-1.085 0-1.085 0z"></path>
</svg>
