<!-- Generated by IcoMoon.io -->
<svg version="1.1" xmlns="http://www.w3.org/2000/svg" viewBox="0 0 32 32">
<title>ship</title>
<path fill="#ec672f" d="M31.486 19.87c-1.797 7.004-8.054 12.098-15.501 12.098-8.825 0-15.98-7.154-15.98-15.98s7.154-15.98 15.98-15.98c1.369 0 2.697 0.172 3.965 0.496l-0.111-0.024c7.021 1.763 12.137 8.019 12.137 15.47 0 1.393-0.179 2.744-0.515 4.031l0.025-0.111z"></path>
<path fill="#fff" d="M9.618 14.729h5.73v4.522c-0.882 0.296-1.509 1.111-1.518 2.074v0.001c0 1.197 0.971 2.168 2.168 2.168s2.168-0.971 2.168-2.168v0c-0.005-0.956-0.618-1.768-1.471-2.071l-0.015-0.005v-4.522h5.668c0.187-0.002 0.339-0.153 0.341-0.341v-0.744c-0.002-0.187-0.153-0.339-0.341-0.341h-5.823v-7.899h5.823c0.187-0.002 0.339-0.153 0.341-0.341v-0.728c-0.002-0.187-0.153-0.339-0.341-0.341h-12.731c-0.181 0.010-0.324 0.158-0.325 0.341v0.744c0.002 0.187 0.153 0.339 0.341 0.341h5.638v7.899h-5.653c-0.187 0.002-0.339 0.153-0.341 0.341v0.744c-0 0.005-0 0.011-0 0.017 0 0.171 0.139 0.31 0.31 0.31 0.011 0 0.022-0.001 0.033-0.002l-0.001 0zM17.036 21.373c0 0.565-0.458 1.022-1.022 1.022s-1.022-0.458-1.022-1.022c0-0.565 0.458-1.022 1.022-1.022v0c0.003-0 0.006-0 0.009-0 0.559 0 1.013 0.453 1.013 1.013 0 0.003 0 0.007-0 0.010v-0z"></path>
<path fill="#fff" d="M20.985 16.525v0l-0.031-0.031c-0.040-0.038-0.095-0.061-0.155-0.061s-0.114 0.023-0.155 0.061l0-0-0.558 0.558c-0.053 0.046-0.088 0.111-0.093 0.185l-0 0.001c-0.001 0.006-0.001 0.013-0.001 0.020 0 0.039 0.012 0.075 0.032 0.105l-0-0.001c0 0.017 0.014 0.031 0.031 0.031v0l0.031 0.031c0.889 1.003 1.438 2.325 1.456 3.775l0 0.004c0 3.062-2.482 5.544-5.544 5.544s-5.544-2.482-5.544-5.544v0c0-1.425 0.589-2.664 1.456-3.779l0.031-0.031c0-0.017 0.014-0.031 0.031-0.031v0c0.031-0.031 0.031-0.062 0.031-0.124 0-0.002 0-0.004 0-0.006 0-0.074-0.036-0.139-0.092-0.179l-0.001-0-0.558-0.558c-0.040-0.039-0.095-0.063-0.155-0.063s-0.115 0.024-0.155 0.063l-0.031 0.031c-1.222 1.154-1.983 2.785-1.983 4.594 0 0.040 0 0.080 0.001 0.12l-0-0.006c0 0.004 0 0.008 0 0.012 0 3.853 3.118 6.977 6.968 6.988h0.001c3.851-0.011 6.969-3.135 6.969-6.988 0-0.004 0-0.009 0-0.013v0.001c0.001-0.034 0.001-0.074 0.001-0.114 0-1.809-0.761-3.44-1.98-4.591l-0.003-0.003z"></path>
</svg>
