<!-- Generated by IcoMoon.io -->
<svg version="1.1" xmlns="http://www.w3.org/2000/svg" viewBox="0 0 32 32">
<title>sky</title>
<path fill="#0072ff" d="M27.676 12.89l-7 15.142h-2.796l7.367-15.94c0.865 0.139 1.68 0.408 2.429 0.798zM15.429 3.995l-10.768 23.298c-2.747-1.268-4.66-4.047-4.66-7.282 0-4.432 3.58-8.021 7.999-8.021 0-4.239 3.28-7.699 7.43-7.994zM24.001 11.989l-7.416 16.043h-3.029l9.312-20.143c0.717 1.201 1.134 2.599 1.134 4.1zM26.757 27.535l4.75-10.271c0.314 0.86 0.493 1.784 0.493 2.751 0 3.45-2.182 6.39-5.243 7.519zM28.854 13.643c0.663 0.511 1.25 1.116 1.725 1.81l-5.799 12.538c-0.255 0.027-0.52 0.040-0.78 0.040h-1.797l6.65-14.389zM16.029 3.968c1.134 0.004 2.209 0.246 3.186 0.681l-10.809 23.383h-0.408c-1.004 0-1.963-0.193-2.846-0.533l10.876-23.531zM22.236 6.966l-9.738 21.066h-3.267l10.656-23.051c0.905 0.506 1.703 1.183 2.348 1.985z"></path>
</svg>
