<!-- Generated by IcoMoon.io -->
<svg version="1.1" xmlns="http://www.w3.org/2000/svg" viewBox="0 0 32 32">
<title>slp</title>
<path fill="#0b4431" d="M15.72 31.9c-0.020 0-0.020 0-0.040 0-6.68-0.020-9.88-3.22-11.4-5.88-1.4-2.48-1.94-5.2-1.56-8.080 0.3-2.4 1.26-4.92 2.78-7.24 0.96-1.48 2.22-2.98 3.56-4.2 0.98-0.9 1.78-1.48 2.42-1.74-0.2-0.82-0.32-2.12-0.36-2.56v-0.080c-0.020-1.020 1.12-1.48 1.5-1.64 0.72-0.3 1.58-0.46 2.4-0.48s1.64 0.040 2.32 0.2c0.42 0.1 1.68 0.38 1.7 1.46l0.060 1.84c0 0.34-0.020 0.64-0.060 0.92 3.58 1.26 6.62 5.040 7.86 7.080v0c0.5 0.82 1.72 3.040 2.26 5.82 0.64 3.34 0.1 6.32-1.62 8.9-3.54 5.26-9.88 5.68-11.82 5.68zM12.16 6.82c-0.8 0.44-3.12 2.38-4.84 5.060-1.7 2.62-4.12 7.82-1.14 13.080 1.76 3.12 5.060 4.78 9.52 4.8 0.020 0 0.020 0 0.040 0 1.66 0 7.080-0.36 9.98-4.72 3.42-5.12 0.040-11.22-0.68-12.38v0c-0.62-1.020-1.88-2.68-3.44-4.080l-6.54-1-4.96 0.98 2.62-1.48c-0.1-0.040-0.2-0.080-0.3-0.14-0.1-0.040-0.2-0.080-0.26-0.12zM18.14 6.78l2.46 0.96c-0.66-0.48-1.34-0.9-2.060-1.18-0.1 0.060-0.2 0.12-0.32 0.18-0.020 0.020-0.040 0.040-0.080 0.040zM12.34 6.74v0zM13.3 2.54c0.1 0.82 0.22 1.66 0.3 1.9 0.16 0.44 0.42 0.72 0.82 0.88l0.8 0.32 0.68-0.38c0.36-0.2 0.6-0.5 0.62-0.52l0.080-0.12 0.040-0.020c0.060-0.080 0.26-0.4 0.24-1.020v-1.26c-0.38-0.1-1.040-0.18-1.82-0.16-0.74 0.020-1.4 0.22-1.76 0.38z"></path>
<path fill="#77baa1" d="M26.6 25.62c-3.28 4.94-9.36 5.2-10.92 5.2-1.96 0-7.58-0.24-10.46-5.34-2.76-4.88-1.46-10.14 1.18-14.2 2.060-3.18 5.020-5.58 5.78-5.62 0.14 0 0.36 0.14 0.7 0.3 0.48 0.22 1.22 0.5 2.38 0.4 1.34-0.12 2.060-0.36 2.48-0.58 0.48-0.24 0.6-0.44 0.8-0.36 3.44 1.16 6.36 4.94 7.42 6.66 1.14 1.88 4.26 8.12 0.64 13.54z"></path>
<path fill="#f3acbb" d="M7.020 14.86c0 0-1.5 3.66-1.18 6.4 0.3 2.64 2.080 6.56 6.44 7.52s7.18-0.16 9.6-1.24c2.4-1.080 4.060-3.34 4.3-5.48s0.26-5.26-0.94-7.8z"></path>
<path fill="#89b772" d="M17.66 8.14c-0.14 0.5-2.42 0.98-3.46 0.7-1.020-0.28-1.1-0.94-1.34-2.88 0.48 0.22 1.22 0.5 2.38 0.4 1.34-0.12 2.060-0.36 2.48-0.58 0.040 0.5 0.080 1.88-0.060 2.36z"></path>
<path fill="#f08fa2" d="M12.24 26.5c-0.12-0.28-0.14-0.58-0.1-0.88 0.14-1.080 0.9-3.94 4.84-6.1 4.94-2.72 7.54-0.42 7.54-0.42s1.56 1.38 0.38 4.66c-1.18 3.26-6.96 4.46-6.96 4.46s-4.6 1.060-5.7-1.72z"></path>
<path fill="#f08fa2" d="M7.48 20.52c-0.32 0-0.34-1.26 0.060-1.82 0.64-0.9 1.74-0.060 1.74-0.060s-0.96 1.88-1.8 1.88z"></path>
<path fill="#f8d0d9" d="M25.24 14.26c0-0.48-4.080-0.86-9.12-0.86s-9.12 0.98-9.12 1.46 4.080 1.32 9.12 1.32 9.12-1.44 9.12-1.92z"></path>
<path fill="#dd8843" d="M12.18 2.1c0 0 0.34 2.1 0.48 2.7 0.12 0.5 0.9 1.58 2.34 1.74 1.54 0.16 2.42-1.18 2.42-1.18s0.62-0.58 0.58-1.82-0.060-1.84-0.060-1.84-3.24 0.3-5.76 0.4z"></path>
<path fill="#ebb646" d="M17.94 1.7c0-0.3-1.34-0.66-2.9-0.62-1.58 0.040-2.88 0.72-2.86 1.020 0 0.3 1.34 0.76 2.9 0.72 1.58-0.040 2.86-0.82 2.86-1.12z"></path>
<path fill="#fff" d="M7.76 15.44c-0.16-0.040-0.28-0.14-0.38-0.28-0.28-0.44-0.68-1.6 0.92-3.82 2.080-2.92 3.2-1.94 3.2-1.94s1.38 0.7-0.12 3.16c-0.020 0.020-0.020 0.040-0.040 0.060-0.14 0.34-1.62 3.36-3.58 2.82z"></path>
<path fill="#fff" d="M22.6 27.22c-0.34-0.060-0.56-0.36-0.5-0.7 0.080-0.42 0.32-1.060 1.020-1.68 1.080-0.96 1.86-0.1 2.040 0.14 0.040 0.060 0.060 0.12 0.080 0.18 0.040 0.2 0.020 0.6-0.52 1.2-0.62 0.68-1.38 1-2.12 0.86z"></path>
<path fill="#a5d4c1" d="M27.6 18.36c0.2 0.52-1.28-1.42-1.48-1.44-0.3-0.040-1.82 3.64-2.2 3.74-0.48 0.12-4.38-2.72-5.22-2.64-1.5 0.1-4.58 4.62-4.98 4.7-0.48 0.080-3.92-4.040-5.16-4.2-0.42-0.060-3.32 3.46-3.56 3.2-0.12-0.12-0.4-2.92-0.36-3.7 0.040-0.5 0.38 1.96 0.52 1.96 0.24 0.020 2.9-2.64 3.46-2.6 0.5 0.040 4.44 3.54 4.82 3.46s4.2-3.84 5.020-3.96c0.64-0.080 4.040 2.38 4.96 2.22 0.56-0.080 2.28-3.12 2.58-3.2 0.26-0.020 1.38 1.9 1.6 2.46z"></path>
</svg>
