<!-- Generated by IcoMoon.io -->
<svg version="1.1" xmlns="http://www.w3.org/2000/svg" viewBox="0 0 32 32">
<title>snow</title>
<path fill="#000" d="M16 32c8.8 0 16-7.2 16-16s-7.2-16-16-16c-8.8 0-16 7.2-16 16s7.2 16 16 16z"></path>
<path fill="#000" d="M16 32c8.8 0 16-7.2 16-16s-7.2-16-16-16c-8.8 0-16 7.2-16 16s7.2 16 16 16z"></path>
<path fill="#fff" d="M25.6 21.467l-1.867-1.067 1.467-0.4c0.4-0.133 0.667-0.533 0.533-0.933s-0.533-0.667-0.8-0.533l-1.6 0.4c-0.8 0.267-1.6 0.133-2.267-0.267s-1.067-1.067-1.067-1.867v-0.267c0-0.8 0.4-1.467 1.067-1.867s1.467-0.533 2.267-0.267c1.867 0.533 1.733 0.533 1.867 0.533 0.267 0 0.533-0.267 0.667-0.533 0.133-0.4-0.133-0.8-0.533-0.933l-1.467-0.4 1.733-1.067c0.4-0.133 0.4-0.667 0.267-0.933-0.133-0.4-0.667-0.4-0.933-0.267l-1.867 1.067 0.4-1.467c0.133-0.4-0.133-0.8-0.533-0.933s-0.8 0.133-0.8 0.533l-0.4 1.733c-0.133 0.8-0.667 1.333-1.333 1.733s-1.467 0.4-2.133 0l-0.133-0.133c-0.667-0.4-1.067-1.067-1.067-1.867s0.267-1.6 0.933-2.133l1.2-1.2c0.267-0.267 0.267-0.667 0-1.067-0.267-0.267-0.667-0.267-0.933 0l-1.067 1.067v-2.133c0-0.4-0.267-0.667-0.667-0.667s-0.667 0.267-0.667 0.667v2.267l-1.067-1.067c-0.267-0.267-0.667-0.267-0.933 0s-0.267 0.667 0 1.067l0.667 1.067c0.533 0.533 0.933 1.333 0.933 2.133s-0.4 1.467-1.067 1.867l-0.133 0.133c-0.667 0.4-1.467 0.4-2.133 0s-1.2-1.067-1.333-1.733l-0.667-1.733c-0.133-0.4-0.533-0.667-0.933-0.533-0.267 0.133-0.533 0.533-0.4 0.933l0.4 1.467-1.867-1.067c-0.4-0.267-0.8-0.133-1.067 0.267-0.133 0.267 0 0.8 0.267 0.933l1.867 1.067-1.467 0.4c-0.4 0.133-0.667 0.533-0.533 0.933 0.133 0.267 0.4 0.533 0.667 0.533 0.133 0 0 0 1.867-0.533 0.8-0.267 1.6-0.133 2.267 0.267s1.067 1.067 1.067 1.867v0.267c0 0.8-0.4 1.467-1.067 1.867s-1.467 0.533-2.267 0.267l-1.6-0.267c-0.4-0.133-0.8 0.133-0.8 0.533-0.133 0.4 0.133 0.8 0.533 0.933l1.467 0.4-1.867 1.067c-0.667 0.4-0.4 1.333 0.4 1.333 0.267 0 0.133 0 2.267-1.2l-0.4 1.467c-0.133 0.4 0.133 0.8 0.533 0.933s0.8-0.133 0.8-0.533l0.4-1.733c0.133-0.8 0.667-1.333 1.333-1.733s1.467-0.4 2.133 0l0.133 0.133c0.667 0.4 1.067 1.067 1.067 1.867s-0.267 1.6-0.933 2.133l-1.067 1.067c-0.267 0.267-0.267 0.667 0 1.067 0.267 0.267 0.667 0.267 0.933 0l1.067-1.067v2.267c0 0.4 0.267 0.667 0.667 0.667s0.667-0.267 0.667-0.667v-2.267l1.067 1.067c0.133 0.133 0.267 0.267 0.533 0.267 0.667 0 0.933-0.8 0.533-1.2l-1.2-1.2c-0.533-0.533-0.933-1.333-0.933-2.133s0.4-1.467 1.067-1.867l0.133-0.133c0.667-0.4 1.467-0.4 2.133 0s1.2 1.067 1.333 1.733l0.4 1.733c0.133 0.267 0.4 0.533 0.667 0.533 0.4 0 0.8-0.4 0.667-0.933l-0.4-1.467 1.867 1.067c0.4 0.133 0.8 0.133 0.933-0.267 0.533-0.4 0.533-0.8 0.133-1.067zM18.4 16.8c0 0.8-0.4 1.6-1.2 2s-1.6 0.4-2.4 0c-0.667-0.4-1.2-1.2-1.2-2v0c0-0.8 0.4-1.6 1.2-2s1.6-0.4 2.4 0c0.8 0.267 1.2 1.067 1.2 2v0z"></path>
</svg>
