<!-- Generated by IcoMoon.io -->
<svg version="1.1" xmlns="http://www.w3.org/2000/svg" viewBox="0 0 32 32">
<title>snx</title>
<path fill="#000" d="M31.997 15.998c0 8.836-7.163 15.998-15.998 15.998s-15.998-7.163-15.998-15.998c0-8.836 7.163-15.998 15.998-15.998s15.998 7.163 15.998 15.998z"></path>
<path fill="#00d1ff" d="M10.729 12.021c-0.128-0.159-0.322-0.247-0.529-0.247h-4.273c-0.035 0-0.066-0.013-0.093-0.035-0.022-0.022-0.035-0.049-0.035-0.079v-2.88c0-0.031 0.013-0.057 0.035-0.079 0.026-0.026 0.057-0.040 0.093-0.035h4.516c1.138 0 2.121 0.467 2.95 1.398l1.098 1.341-2.139 2.606-1.623-1.989zM18.622 10.050c0.825-0.922 1.812-1.385 2.963-1.385h4.502c0.031-0.004 0.062 0.009 0.084 0.026 0.022 0.022 0.031 0.053 0.026 0.088v2.88c0 0.031-0.009 0.057-0.026 0.079-0.022 0.026-0.053 0.040-0.084 0.035h-4.273c-0.203-0.004-0.397 0.088-0.529 0.247l-3.148 3.832 3.162 3.858c0.128 0.146 0.317 0.234 0.512 0.229h4.273c0.031-0.004 0.066 0.013 0.084 0.035 0.018 0.026 0.031 0.062 0.026 0.093v2.88c0 0.031-0.009 0.057-0.026 0.079-0.022 0.026-0.053 0.040-0.084 0.035h-4.498c-1.151 0-2.13-0.467-2.95-1.398l-2.619-3.197-2.619 3.197c-0.825 0.93-1.812 1.398-2.963 1.398h-4.507c-0.031 0.004-0.066-0.013-0.084-0.035-0.022-0.026-0.031-0.062-0.026-0.093v-2.88c0-0.031 0.009-0.057 0.026-0.079 0.022-0.026 0.053-0.040 0.084-0.035h4.273c0.203 0 0.397-0.093 0.529-0.247l7.893-9.644z"></path>
</svg>
