<!-- Generated by IcoMoon.io -->
<svg version="1.1" xmlns="http://www.w3.org/2000/svg" viewBox="0 0 32 32">
<title>sol</title>
<path d="M5.194 22.585c0.193-0.193 0.458-0.306 0.74-0.306h25.52c0.466 0 0.7 0.563 0.37 0.892l-5.041 5.041c-0.193 0.193-0.458 0.306-0.74 0.306h-25.52c-0.466 0-0.7-0.563-0.37-0.892l5.041-5.041z"></path>
<path d="M5.194 3.763c0.201-0.193 0.466-0.306 0.74-0.306h25.52c0.466 0 0.7 0.563 0.37 0.892l-5.041 5.041c-0.193 0.193-0.458 0.306-0.74 0.306h-25.52c-0.466 0-0.7-0.563-0.37-0.892l5.041-5.041z"></path>
<path d="M26.782 13.114c-0.193-0.193-0.458-0.306-0.74-0.306h-25.52c-0.466 0-0.7 0.563-0.37 0.892l5.041 5.041c0.193 0.193 0.458 0.306 0.74 0.306h25.52c0.466 0 0.699-0.563 0.37-0.892l-5.041-5.041z"></path>
</svg>
