<!-- Generated by IcoMoon.io -->
<svg version="1.1" xmlns="http://www.w3.org/2000/svg" viewBox="0 0 32 32">
<title>soul</title>
<path fill="#88c6de" d="M26.577 1.516h-21.187c-2.964 0-5.389 2.493-5.389 5.592v18.594c0 1.617 1.92 2.392 2.964 1.179v0c1.28-1.482 3.503-1.448 4.749 0.034l1.651 1.92c0.674 0.775 1.853 0.775 2.526 0l1.718-1.954c1.28-1.448 3.469-1.448 4.749 0l1.718 1.987c0.674 0.775 1.853 0.775 2.526 0l1.718-1.987c1.28-1.448 3.469-1.448 4.749 0l0.034 0.034c1.044 1.213 2.964 0.438 2.964-1.179v-18.627c-0.101-3.099-2.493-5.592-5.491-5.592z"></path>
<path fill="#6ca2cb" d="M26.577 2.627h-21.187c-2.964 0-5.389 2.493-5.389 5.592v18.594c0 1.617 1.92 2.392 2.964 1.179v0c1.28-1.482 3.503-1.448 4.749 0.034l1.651 1.92c0.674 0.775 1.853 0.775 2.526 0l1.718-1.954c1.28-1.448 3.469-1.448 4.749 0l1.718 1.987c0.674 0.775 1.853 0.775 2.526 0l1.718-1.987c1.28-1.448 3.469-1.448 4.749 0l0.034 0.034c1.044 1.213 2.964 0.438 2.964-1.179v-18.627c-0.101-3.099-2.493-5.592-5.491-5.592z"></path>
<path fill="#fff" d="M13.171 11.992c0 1.805-1.463 3.267-3.267 3.267s-3.267-1.463-3.267-3.267c0-1.805 1.463-3.267 3.267-3.267s3.267 1.463 3.267 3.267z"></path>
<path fill="#fff" d="M25.364 11.992c0 1.805-1.463 3.267-3.267 3.267s-3.267-1.463-3.267-3.267c0-1.805 1.463-3.267 3.267-3.267s3.267 1.463 3.267 3.267z"></path>
<path fill="#000" opacity="0.5" d="M24.691 11.992c0 1.432-1.161 2.594-2.594 2.594s-2.594-1.161-2.594-2.594c0-1.432 1.161-2.594 2.594-2.594s2.594 1.161 2.594 2.594z"></path>
<path fill="#000" opacity="0.5" d="M24.152 11.992c0 1.135-0.92 2.055-2.055 2.055s-2.055-0.92-2.055-2.055c0-1.135 0.92-2.055 2.055-2.055s2.055 0.92 2.055 2.055z"></path>
<path fill="#000" opacity="0.5" d="M23.377 11.992c0 0.707-0.573 1.28-1.28 1.28s-1.28-0.573-1.28-1.28c0-0.707 0.573-1.28 1.28-1.28s1.28 0.573 1.28 1.28z"></path>
<path fill="#000" opacity="0.5" d="M12.497 11.992c0 1.432-1.161 2.594-2.594 2.594s-2.594-1.161-2.594-2.594c0-1.432 1.161-2.594 2.594-2.594s2.594 1.161 2.594 2.594z"></path>
<path fill="#000" opacity="0.5" d="M11.958 11.992c0 1.135-0.92 2.055-2.055 2.055s-2.055-0.92-2.055-2.055c0-1.135 0.92-2.055 2.055-2.055s2.055 0.92 2.055 2.055z"></path>
<path fill="#000" opacity="0.5" d="M11.183 11.992c0 0.707-0.573 1.28-1.28 1.28s-1.28-0.573-1.28-1.28c0-0.707 0.573-1.28 1.28-1.28s1.28 0.573 1.28 1.28z"></path>
<path fill="#fff" opacity="0.5" d="M12.261 10.274c0 0.409-0.332 0.741-0.741 0.741s-0.741-0.332-0.741-0.741c0-0.409 0.332-0.741 0.741-0.741s0.741 0.332 0.741 0.741z"></path>
<path fill="#fff" opacity="0.5" d="M24.455 10.274c0 0.409-0.332 0.741-0.741 0.741s-0.741-0.332-0.741-0.741c0-0.409 0.332-0.741 0.741-0.741s0.741 0.332 0.741 0.741z"></path>
</svg>
