<!-- Generated by IcoMoon.io -->
<svg version="1.1" xmlns="http://www.w3.org/2000/svg" viewBox="0 0 32 32">
<title>srm</title>
<path d="M16 26.355c-4.856 0-8.8-3.944-8.8-8.8 0-4.721 7.966-13.059 8.304-13.408l0.417-0.439 0.428 0.428c0.349 0.349 8.451 8.687 8.451 13.408 0 4.868-3.944 8.811-8.8 8.811v0zM15.932 5.408c-0.699 0.755-2.163 2.389-3.617 4.304-2.58 3.403-3.944 6.107-3.944 7.831 0 4.203 3.425 7.628 7.628 7.628s7.628-3.425 7.628-7.628c0-1.724-1.386-4.428-4.011-7.831-1.476-1.904-2.975-3.549-3.684-4.304z"></path>
<path d="M16 29.172c-6.411 0-11.617-5.217-11.617-11.617 0-6.265 8.744-15.008 9.116-15.369 0.225-0.225 0.608-0.225 0.834 0s0.225 0.608 0 0.834c-0.090 0.090-8.766 8.766-8.766 14.535 0 5.758 4.687 10.445 10.445 10.445s10.445-4.687 10.445-10.445c0-2.366-1.532-5.634-4.439-9.476-2.231-2.941-4.473-5.172-4.496-5.194-0.237-0.225-0.237-0.597 0-0.834 0.225-0.237 0.597-0.237 0.834 0 0.383 0.372 9.284 9.228 9.284 15.504-0.023 6.4-5.228 11.617-11.639 11.617v0z"></path>
<path d="M16 31.989c-7.797 0-14.141-6.344-14.141-14.141 0-3.223 1.623-7.189 4.811-11.775 2.355-3.38 4.665-5.792 4.766-5.893 0.225-0.237 0.597-0.237 0.834-0.011s0.237 0.597 0.011 0.834c-0.023 0.023-2.355 2.456-4.654 5.758-3.008 4.316-4.597 8.146-4.597 11.087 0 7.144 5.814 12.969 12.969 12.969s12.969-5.814 12.969-12.969c0-2.941-1.6-6.772-4.631-11.087-2.321-3.301-4.676-5.735-4.699-5.758-0.225-0.237-0.225-0.608 0.011-0.834s0.608-0.225 0.834 0.011c0.394 0.406 9.656 10.028 9.656 17.668 0 7.797-6.344 14.141-14.141 14.141z"></path>
</svg>
