<!-- Generated by IcoMoon.io -->
<svg version="1.1" xmlns="http://www.w3.org/2000/svg" viewBox="0 0 32 32">
<title>steem</title>
<path fill="#171fc9" d="M16.003 0c-8.838 0-16.003 7.165-16.003 16.003s7.165 16.003 16.003 16.003 16.003-7.165 16.003-16.003-7.165-16.003-16.003-16.003zM12.001 21.532l-0.152 0.152c-0.314 0.314-0.65 0.612-0.996 0.888l-0.401 0.314c-0.027 0.022-0.060 0.032-0.092 0.032-0.027 0-0.054-0.005-0.076-0.022-0.054-0.032-0.081-0.092-0.065-0.157l0.157-0.709c0.173-0.769 0.135-1.576-0.108-2.329l-0.087-0.26c-0.097-0.303-0.217-0.601-0.341-0.894v0l-1.847-4.359-0.2-0.596c-0.060-0.184-0.103-0.374-0.125-0.569l-0.032-0.298c-0.092-0.839 0.195-1.663 0.791-2.258l0.152-0.152c0.314-0.314 0.65-0.612 0.996-0.888l0.401-0.314c0.049-0.038 0.114-0.043 0.168-0.011s0.081 0.092 0.065 0.157l-0.157 0.709c-0.173 0.769-0.135 1.576 0.108 2.329l0.087 0.26c0.097 0.303 0.217 0.601 0.341 0.894l1.852 4.359 0.2 0.596c0.060 0.184 0.103 0.374 0.125 0.569l0.033 0.298c0.087 0.834-0.2 1.663-0.796 2.258zM18.25 22.962l-0.195 0.195c-0.395 0.395-0.818 0.774-1.256 1.116l-0.52 0.412c-0.027 0.022-0.065 0.032-0.097 0.032-0.027 0-0.060-0.011-0.087-0.027-0.060-0.038-0.087-0.103-0.070-0.168l0.206-0.915c0.217-0.975 0.168-1.993-0.141-2.941l-0.108-0.33c-0.125-0.384-0.271-0.764-0.433-1.132v0l-2.334-5.497-0.249-0.747c-0.076-0.227-0.13-0.471-0.157-0.709l-0.043-0.379c-0.119-1.051 0.244-2.080 0.986-2.832l0.195-0.195c0.395-0.395 0.818-0.774 1.256-1.116l0.52-0.412c0.054-0.043 0.125-0.049 0.184-0.011s0.087 0.103 0.070 0.168l-0.206 0.915c-0.217 0.975-0.168 1.993 0.141 2.941l0.108 0.33c0.125 0.379 0.271 0.764 0.433 1.132l2.334 5.502 0.249 0.747c0.076 0.227 0.13 0.471 0.157 0.709l0.043 0.379c0.119 1.051-0.244 2.085-0.986 2.832zM23.579 21.532l-0.152 0.152c-0.314 0.314-0.65 0.612-0.996 0.888l-0.401 0.314c-0.027 0.022-0.060 0.032-0.092 0.032-0.027 0-0.054-0.005-0.076-0.022-0.054-0.032-0.081-0.092-0.065-0.157l0.157-0.709c0.173-0.769 0.135-1.576-0.108-2.329l-0.087-0.26c-0.097-0.303-0.217-0.601-0.341-0.894v0l-1.852-4.359-0.2-0.596c-0.060-0.184-0.103-0.374-0.125-0.569l-0.032-0.298c-0.092-0.839 0.195-1.663 0.791-2.258l0.152-0.152c0.314-0.314 0.65-0.612 0.996-0.888l0.401-0.314c0.049-0.038 0.114-0.043 0.168-0.011s0.081 0.092 0.065 0.157l-0.157 0.709c-0.173 0.769-0.135 1.576 0.108 2.329l0.087 0.26c0.097 0.303 0.217 0.601 0.341 0.894l1.852 4.359 0.2 0.596c0.060 0.184 0.103 0.374 0.125 0.569l0.032 0.298c0.092 0.834-0.195 1.663-0.791 2.258z"></path>
</svg>
