<!-- Generated by IcoMoon.io -->
<svg version="1.1" xmlns="http://www.w3.org/2000/svg" viewBox="0 0 32 32">
<title>storj</title>
<path fill="#2683ff" d="M4.552 21.762c-0.483 0-0.875 0.392-0.875 0.875s0.392 0.875 0.875 0.875c0.483 0 0.875-0.392 0.875-0.875v0c0-0.155-0.042-0.296-0.113-0.437-0.157-0.263-0.439-0.436-0.762-0.437h-0zM16.914 2.724c0-0.483-0.392-0.875-0.875-0.875s-0.875 0.392-0.875 0.875c0 0.483 0.392 0.875 0.875 0.875v0c0.482-0.003 0.872-0.393 0.875-0.875v-0zM27.584 10.316c0.483 0 0.875-0.392 0.875-0.875s-0.392-0.875-0.875-0.875c-0.483 0-0.875 0.392-0.875 0.875v0c0.001 0.156 0.042 0.302 0.115 0.428l-0.002-0.004c0.151 0.271 0.436 0.451 0.762 0.452h0zM4.96 8.637c-0.423-0.24-0.946-0.099-1.185 0.325s-0.099 0.946 0.325 1.185 0.946 0.099 1.185-0.325c0.24-0.409 0.099-0.946-0.325-1.185zM27.936 21.931c-0.127-0.085-0.282-0.113-0.437-0.127-0.004-0-0.008-0-0.012-0-0.483 0-0.875 0.392-0.875 0.875s0.392 0.875 0.875 0.875c0.004 0 0.008-0 0.012-0h-0.001c0.31 0 0.592-0.169 0.762-0.437 0.24-0.409 0.099-0.946-0.325-1.185zM15.164 29.227c-0.042 0.395 0.198 0.776 0.564 0.917 0.085 0.028 0.184 0.056 0.268 0.056 0.447-0.001 0.819-0.32 0.902-0.742l0.001-0.006c0.005-0.036 0.008-0.077 0.008-0.119 0-0.481-0.39-0.87-0.87-0.87-0.433 0-0.792 0.316-0.859 0.73l-0.001 0.005c-0.007 0.007-0.012 0.017-0.014 0.028l-0 0z"></path>
<path fill="#2683ff" d="M28.797 20.322c-0.091-0.054-0.198-0.106-0.309-0.15l-0.016-0.005v-8.171c0.127-0.042 0.254-0.113 0.381-0.169 1.312-0.734 1.792-2.399 1.058-3.712s-2.399-1.792-3.712-1.058c-0.113 0.056-0.212 0.127-0.31 0.198l-7.197-4.163c0.014-0.127 0.028-0.24 0.028-0.367-0-1.51-1.227-2.724-2.723-2.724s-2.752 1.242-2.752 2.738c0 0.127 0.014 0.24 0.028 0.367l-7.141 4.135c-0.459-0.362-1.045-0.581-1.683-0.581-1.507 0-2.728 1.221-2.728 2.728 0 0.891 0.427 1.682 1.088 2.18l0.007 0.005c0.099 0.071 0.198 0.141 0.31 0.212 0.105 0.066 0.227 0.123 0.355 0.166l0.012 0.004v8.157c-1.397 0.564-2.075 2.146-1.51 3.542s2.145 2.075 3.542 1.51c0.127-0.042 0.24-0.113 0.353-0.169 0.113-0.071 0.226-0.141 0.339-0.226l7.070 4.079c-0.24 1.482 0.776 2.879 2.258 3.119s2.879-0.776 3.119-2.258c0.028-0.155 0.028-0.296 0.028-0.452-0.002-0.141-0.012-0.278-0.030-0.413l0.002 0.018 7.028-4.050c0.113 0.085 0.226 0.169 0.353 0.24 1.312 0.734 2.978 0.268 3.712-1.044 0.705-1.313 0.282-2.921-0.96-3.684zM29.291 23.737c-0.579 0.988-1.863 1.327-2.851 0.748-0.79-0.466-1.185-1.383-0.974-2.272l-3.302-1.933c-0.668 0.677-1.596 1.097-2.622 1.097-0.494 0-0.966-0.097-1.396-0.274l0.025 0.009c-0.494 0.155-1.552 0.254-1.552 0.254v5.814c1.157 0.353 1.792 1.581 1.44 2.738s-1.581 1.792-2.738 1.44c-0.014 0-0.028-0.014-0.042-0.014-0.099-0.028-0.184-0.071-0.268-0.113-1.087-0.536-1.51-1.863-0.974-2.935 0.268-0.536 0.748-0.931 1.312-1.115v-5.927c-0.483-0.15-0.885-0.308-1.273-0.491l0.060 0.025c-0.258 0.054-0.555 0.085-0.858 0.085-1.047 0-2.009-0.367-2.762-0.98l0.008 0.006-3.937 2.272c0.036 0.146 0.057 0.314 0.057 0.487 0 1.158-0.938 2.096-2.096 2.096s-2.096-0.938-2.096-2.096c0-0.985 0.679-1.811 1.594-2.036l0.014-0.003c0.677-0.169 1.397 0.028 1.92 0.508l3.683-2.131c-1.242-1.75-1.044-4.149 0.48-5.673l-4.192-2.399c-0.832 0.79-2.145 0.748-2.935-0.099-0.35-0.371-0.566-0.873-0.566-1.426 0-0.601 0.255-1.143 0.663-1.523l0.001-0.001c0.847-0.79 2.145-0.748 2.935 0.099 0.48 0.508 0.663 1.214 0.508 1.891l4.643 2.667c0.572-0.313 1.249-0.505 1.971-0.522l0.005-0c0.649-0.536 2.313-1.086 2.313-1.086v-6.351c-1.030-0.31-1.609-1.397-1.298-2.427s1.398-1.595 2.428-1.284 1.609 1.397 1.298 2.427c-0.191 0.625-0.673 1.107-1.285 1.295l-0.014 0.004v6.224s3.048 0.762 4.008 1.905l4.939-2.808c-0.254-1.129 0.437-2.258 1.567-2.512s2.258 0.437 2.512 1.567-0.437 2.258-1.567 2.512c-0.139 0.033-0.298 0.051-0.462 0.051-0.559 0-1.068-0.218-1.444-0.575l0.001 0.001-4.883 2.766c0.141 0.296 0.268 0.592 0.353 0.903 1.51 1.030 2.046 3.006 1.242 4.657l3.232 1.877c0.368-0.343 0.863-0.554 1.407-0.554 0.387 0 0.748 0.106 1.058 0.291l-0.009-0.005c0.974 0.579 1.312 1.849 0.72 2.851z"></path>
<path fill="#2683ff" d="M20.188 15.721c-0.014-0.113-0.028-0.212-0.042-0.325-0.016-0.089-0.036-0.164-0.060-0.238l0.004 0.012c0-0.028-0.014-0.056-0.014-0.085-0.028-0.085-0.056-0.184-0.085-0.268v-0.014c-0.19-0.494-0.463-0.916-0.806-1.271l0.001 0.001c-0.085-0.085-0.155-0.155-0.254-0.24l-0.014-0.014c-0.085-0.071-0.169-0.141-0.268-0.198l-0.014-0.014c-0.085-0.056-0.184-0.127-0.268-0.169l-0.014-0.014c-0.077-0.046-0.17-0.093-0.265-0.135l-0.017-0.007-0.028-0.014c-0.099-0.042-0.198-0.085-0.31-0.127l-0.014-0.014c-0.113-0.028-0.212-0.071-0.325-0.085h-0.014c-0.093-0.023-0.209-0.043-0.326-0.055l-0.012-0.001h-0.014c-0.147-0.022-0.318-0.035-0.491-0.035-0.464 0-0.906 0.090-1.311 0.255l0.023-0.008-0.071 0.056c-0.085 0.028-0.226 0.099-0.31 0.141-0.041 0.027-0.087 0.051-0.137 0.069l-0.005 0.001c-0.042 0.014-0.113 0.071-0.155 0.099s-0.141 0.099-0.198 0.141l-0.042 0.028c-0.085 0.056-0.155 0.127-0.24 0.198l-0.071 0.071c-0.085 0.085-0.155 0.155-0.226 0.24-0.153-0.027-0.329-0.042-0.508-0.042h-0c-0.056 0-0.099 0-0.141 0.014-0.649 0.028-1.27 0.296-1.75 0.734-0.24 0.212-0.437 0.48-0.592 0.762l-0.015 0.029c-0.038 0.070-0.076 0.154-0.108 0.24l-0.005 0.014c-0.014 0.028-0.014 0.042-0.028 0.071-0.027 0.063-0.051 0.139-0.069 0.216l-0.002 0.009c-0.014 0.028-0.014 0.071-0.028 0.099-0.014 0.071-0.028 0.141-0.042 0.226 0 0.028-0.014 0.056-0.014 0.099-0.009 0.081-0.015 0.175-0.015 0.27 0 0.019 0 0.038 0.001 0.057l-0-0.003c-0 0.013-0.001 0.029-0.001 0.045 0 0.079 0.005 0.156 0.016 0.232l-0.001-0.009c0 0.028 0.014 0.056 0.014 0.099 0.014 0.056 0.014 0.113 0.028 0.169s0.014 0.071 0.028 0.113c0.015 0.037 0.025 0.081 0.028 0.126l0 0.001c0 0.042 0.028 0.085 0.042 0.127 0.013 0.039 0.028 0.071 0.044 0.102l-0.002-0.004c0.018 0.036 0.037 0.083 0.053 0.131l0.003 0.010c0.014 0.028 0.028 0.042 0.028 0.071 0.205 0.472 0.536 0.857 0.95 1.123l0.010 0.006c0.212 0.127 0.423 0.24 0.649 0.31 0.074 0.027 0.164 0.051 0.256 0.069l0.012 0.002 0.028 0.014 0.254 0.042 0.056 0.014c0.099 0.014 0.198 0.014 0.31 0.014 0.381 0 0.748-0.071 1.087-0.226 0.085 0.056 0.155 0.113 0.24 0.169l0.028 0.014c0.071 0.042 0.155 0.085 0.24 0.127h0.014c0.48 0.25 1.049 0.397 1.652 0.397 0.341 0 0.671-0.047 0.984-0.135l-0.026 0.006h0.014c0.139-0.030 0.262-0.074 0.376-0.131l-0.009 0.004 0.381-0.169c0.347 0.272 0.789 0.437 1.27 0.437h0c0.099 0 0.184-0.014 0.282-0.014l0.071-0.014c0.105-0.016 0.196-0.035 0.284-0.060l-0.016 0.004c0.1-0.031 0.184-0.064 0.265-0.104l-0.011 0.005 0.042-0.014c0.085-0.042 0.155-0.085 0.24-0.127 0.353-0.226 0.621-0.564 0.776-0.946 0.056-0.127 0.085-0.254 0.113-0.381v-0.042c0.014-0.056 0.014-0.113 0.028-0.169 0-0.071 0.014-0.141 0.014-0.212 0-0.931-0.579-1.736-1.44-2.004z"></path>
</svg>
