<!-- Generated by IcoMoon.io -->
<svg version="1.1" xmlns="http://www.w3.org/2000/svg" viewBox="0 0 32 32">
<title>strax</title>
<path d="M2.173 11.701l14.001 8.822c0.004 0.003 0.010 0.005 0.015 0.005s0.011-0.002 0.015-0.005l-0 0 14.283-9.022c0.008-0.005 0.013-0.013 0.013-0.023 0-0.006-0.002-0.011-0.005-0.016l0 0c-0.002-0.003-0.005-0.006-0.008-0.008l-0-0-14.152-9.019c-0.004-0.003-0.010-0.005-0.015-0.005s-0.011 0.002-0.015 0.005l0-0-14.132 9.217c-0.007 0.005-0.012 0.014-0.012 0.023 0 0.007 0.003 0.014 0.007 0.019l-0-0c0.001 0.002 0.003 0.005 0.005 0.006v0zM16.174 30.868c-0 0-0.001 0-0.001 0-0.194 0-0.375-0.058-0.527-0.157l0.004 0.002-14.994-9.656c-0.004-0.005-0.007-0.012-0.007-0.019s0.003-0.014 0.007-0.019l-0 0 0.638-0.993c0.005-0.005 0.012-0.007 0.019-0.007s0.014 0.003 0.019 0.007l-0-0 14.835 9.554c0.004 0.003 0.010 0.005 0.015 0.005s0.011-0.002 0.015-0.005l-0 0 14.059-9.034c0.312-0.202 0.516-0.548 0.516-0.942 0-0.001 0-0.002 0-0.003v0-2.224c-0.001-0.015-0.014-0.027-0.030-0.027-0 0-0 0-0.001 0h0c-0.005 0-0.009 0.001-0.013 0.003l0-0-14.199 9.043c-0.147 0.095-0.327 0.151-0.52 0.151s-0.373-0.056-0.524-0.154l0.004 0.002-14.349-9.129c-0.69-0.437-1.141-1.197-1.141-2.061 0-0 0-0.001 0-0.001v0-3.112c0-0.001 0-0.002 0-0.002 0-0.261 0.104-0.498 0.272-0.672l-0 0 0.048-0.039 0.276-0.189 15.237-9.93c0.138-0.080 0.303-0.127 0.48-0.127 0.193 0 0.373 0.056 0.524 0.154l-0.004-0.002 14.715 9.374c0.273 0.175 0.451 0.477 0.451 0.82s-0.178 0.645-0.447 0.818l-0.004 0.002-14.841 9.371c-0.146 0.093-0.325 0.148-0.516 0.148s-0.369-0.055-0.52-0.15l0.004 0.002-14.397-9.064c-0.004-0.002-0.009-0.004-0.014-0.004-0.010 0-0.019 0.005-0.024 0.013l-0 0c-0.002 0.004-0.003 0.008-0.003 0.012 0 0.001 0 0.002 0 0.002v-0 2.572c0 0.001 0 0.003 0 0.005 0 0.425 0.22 0.798 0.553 1.012l0.005 0.003 14.203 9.027c0.004 0.003 0.010 0.005 0.015 0.005s0.011-0.002 0.015-0.005l-0 0 14.486-9.242c0.147-0.096 0.328-0.153 0.521-0.153 0.249 0 0.476 0.094 0.648 0.249l-0.001-0.001c0.192 0.183 0.312 0.441 0.312 0.727 0 0.010-0 0.020-0 0.031l0-0.002v2.73c0 0.002 0 0.005 0 0.007 0 0.828-0.428 1.557-1.074 1.977l-0.009 0.006-14.219 9.136c-0.147 0.093-0.325 0.148-0.516 0.15h-0z"></path>
</svg>
