<!-- Generated by IcoMoon.io -->
<svg version="1.1" xmlns="http://www.w3.org/2000/svg" viewBox="0 0 32 32">
<title>strong</title>
<path fill="#0e67ae" d="M6.341 6.767h13.295c0.040 0 0.074 0.011 0.102 0.034l5.409 3.977c0.080 0.057 0.091 0.165 0.034 0.244-0.034 0.045-0.085 0.068-0.142 0.068h-14.040c-0.097 0-0.176 0.080-0.176 0.176v5.097c0 0.097 0.080 0.176 0.176 0.176v0h8.949c0.097 0 0.176 0.080 0.176 0.176v3.716c0 0.097-0.080 0.176-0.176 0.176h-13.67c-0.097 0-0.176-0.080-0.176-0.176 0 0 0 0 0 0l0.063-13.483c0-0.102 0.074-0.176 0.176-0.182-0.006 0 0 0 0 0z"></path>
<path fill="#0e67ae" d="M25.506 25.614h-13.835c-0.040 0-0.074-0.011-0.102-0.034l-5.085-3.761c-0.080-0.057-0.091-0.165-0.034-0.244 0.034-0.045 0.085-0.068 0.142-0.068h14.261c0.097 0 0.176-0.080 0.176-0.176 0 0 0 0 0 0v-5.528c0-0.097-0.080-0.176-0.176-0.176h-8.818c-0.097 0-0.176-0.080-0.176-0.17 0 0 0 0 0 0v-3.278c0-0.097 0.080-0.176 0.17-0.176 0 0 0 0 0 0h13.54c0.097 0 0.176 0.080 0.176 0.176 0 0 0 0 0 0l-0.063 13.267c-0.006 0.097-0.080 0.17-0.176 0.17z"></path>
<path fill="none" stroke="#0e67ae" stroke-linejoin="miter" stroke-linecap="butt" stroke-miterlimit="10" stroke-width="1.4773" d="M31.261 16c0 8.429-6.833 15.261-15.261 15.261s-15.261-6.833-15.261-15.261c0-8.429 6.833-15.261 15.261-15.261s15.261 6.833 15.261 15.261z"></path>
</svg>
