<!-- Generated by IcoMoon.io -->
<svg version="1.1" xmlns="http://www.w3.org/2000/svg" viewBox="0 0 32 32">
<title>sushi</title>
<path fill="#000" d="M6.667 3.067l24.8 16.933-6.133 9.067-24.8-17.067 6.133-8.933z"></path>
<path fill="#000" d="M31.467 20c-2.133 3.067-9.333 1.867-16.133-2.933-6.933-4.667-10.667-10.933-8.667-14 2.133-3.067 9.333-1.867 16.133 2.933 6.933 4.533 10.667 10.933 8.667 14z"></path>
<path fill="#000" d="M25.333 28.933c-2.133 3.067-9.333 1.867-16.133-2.933s-10.667-10.933-8.533-14.133c2.133-3.067 9.333-1.867 16.133 2.933s10.533 11.067 8.533 14.133z"></path>
<path fill="#0e0f23" d="M31.467 20c0 0 0 0 0 0l-6.133 9.067c-2.133 3.067-9.333 1.733-16.133-2.933-1.333-0.933-2.533-1.867-3.733-2.933 0.933-0.133 2.133-0.667 3.333-2 2.133-2.267 3.2-2.8 4.133-2.667 0.933 0 2 0.933 3.733 3.2s4.133 2.933 5.6 1.733c0.133-0.133 0.267-0.133 0.4-0.267 1.2-0.933 1.6-1.333 3.867-5.6 0.533-1.067 2.4-2.8 4.933-2 0.667 1.733 0.667 3.2 0 4.4z"></path>
<path fill="#fff" d="M30.533 19.467c1.733-2.667-2-8.267-8.267-12.667s-12.8-5.733-14.667-3.067c-1.867 2.667 1.867 8.267 8.267 12.667 6.267 4.4 12.8 5.733 14.667 3.067zM24.667 15.467c-0.933 1.333-4.133 0.667-7.333-1.467-3.067-2.133-4.933-4.933-4-6.267s4.133-0.667 7.333 1.467c3.067 2.133 4.933 4.933 4 6.267z"></path>
<path fill="#fff" d="M6.133 6.133c0-0.133-0.133-0.267-0.267-0.133s-0.267 0.133-0.267 0.267c0.133 0.4 0.267 0.667 0.267 0.933 0 0.133 0.133 0.267 0.267 0.133 0.133 0 0.267-0.133 0.133-0.267 0-0.267 0-0.533-0.133-0.933z"></path>
<path fill="#fff" d="M6.8 8.267c0-0.133-0.133-0.267-0.267-0.133s-0.133 0.133-0.133 0.267c1.467 3.333 4.533 6.933 8.533 9.6 0.133 0.133 0.267 0 0.4 0 0.133-0.133 0-0.267 0-0.4-4.133-2.667-7.067-6.133-8.533-9.333z"></path>
<path fill="#fff" d="M22.933 21.333c-0.133 0-0.267 0-0.267 0.133s0 0.267 0.133 0.267c0.4 0.133 0.933 0.267 1.333 0.4 0.133 0 0.267 0 0.267-0.133s0-0.267-0.133-0.267c-0.4-0.133-0.933-0.267-1.333-0.4z"></path>
<path fill="#fff" d="M25.333 21.867c-0.133 0-0.267 0.133-0.267 0.267s0.133 0.267 0.267 0.267c1.067 0.133 2.267 0.267 3.2 0.133 0.133 0 0.267-0.133 0.267-0.267s-0.133-0.267-0.267-0.267c-1.067 0.133-2.133 0-3.2-0.133z"></path>
</svg>
