<!-- Generated by IcoMoon.io -->
<svg version="1.1" xmlns="http://www.w3.org/2000/svg" viewBox="0 0 32 32">
<title>suter</title>
<path fill="#242328" d="M7.329 12.697v0c-0.314-0.312-0.509-0.745-0.509-1.223s0.195-0.911 0.509-1.223l0-0 9.724-9.745c0.316-0.31 0.75-0.502 1.228-0.502s0.912 0.191 1.229 0.502l-0-0c0.31 0.316 0.502 0.75 0.502 1.228s-0.191 0.912-0.502 1.229l-9.734 9.734c-0.312 0.315-0.745 0.509-1.223 0.509s-0.911-0.195-1.223-0.509l-0-0z"></path>
<path fill="#242328" d="M24.898 19.314v0c0.315 0.314 0.51 0.748 0.51 1.228s-0.195 0.914-0.51 1.228l-0 0-9.724 9.734c-0.317 0.335-0.765 0.544-1.262 0.544-0.958 0-1.734-0.776-1.734-1.734 0-0.494 0.207-0.94 0.538-1.256l0.001-0.001 9.734-9.745c0.314-0.312 0.746-0.505 1.223-0.505s0.91 0.193 1.223 0.505l-0-0zM6.699 21.378v0c-0.31-0.316-0.502-0.75-0.502-1.228s0.191-0.912 0.502-1.229l6.193-6.193c0.312-0.315 0.745-0.509 1.223-0.509s0.911 0.195 1.223 0.509l0 0c0.31 0.316 0.502 0.75 0.502 1.228s-0.191 0.912-0.502 1.229l-6.193 6.193c-0.314 0.312-0.746 0.505-1.223 0.505s-0.91-0.193-1.223-0.505l0 0z"></path>
<path fill="#a573ff" d="M25.528 10.622v0c0.312 0.314 0.505 0.746 0.505 1.223s-0.193 0.91-0.505 1.223l-6.194 6.194c-0.317 0.332-0.762 0.539-1.257 0.539-0.958 0-1.734-0.776-1.734-1.734 0-0.497 0.209-0.945 0.543-1.261l0.001-0.001 6.194-6.194c0.312-0.315 0.745-0.509 1.223-0.509s0.911 0.195 1.223 0.509l0 0z"></path>
</svg>
