<!-- Generated by IcoMoon.io -->
<svg version="1.1" xmlns="http://www.w3.org/2000/svg" viewBox="0 0 32 32">
<title>swt</title>
<path fill="#efd96f" d="M0 0h32v32h-32z"></path>
<path fill="#333" d="M22.768 11.712c-3.648 0-6.656 2.928-9.376 5.36-0.784-0.688-1.664-1.536-2.336-2.336-0.064-0.080-0.16-0.096-0.208-0.064-0.064 0.048-0.080 0.144-0.016 0.208 0.624 0.768 1.456 1.696 2.24 2.48-1.456 1.376-3.68 3.040-5.472 3.040-3.616 0-3.632-5.008-0.464-5.952 0.144-0.032 0.144-0.208 0-0.16-4.144 1.024-3.92 6.864 0.544 6.864 2.128 0 4.080-1.424 6.048-3.104 2.128 1.92 4.816 3.488 8.272 3.488 8.768 0 8.512-9.824 0.768-9.824zM21.936 20.784c-2.768-0.016-5.456-1.232-7.808-3.072 2.672-2.32 5.376-4.976 8.56-4.976 6.208 0 6.368 8.096-0.752 8.048z"></path>
<path fill="#333" d="M9.92 13.776c0 0.495-0.401 0.896-0.896 0.896s-0.896-0.401-0.896-0.896c0-0.495 0.401-0.896 0.896-0.896s0.896 0.401 0.896 0.896z"></path>
</svg>
