<!-- Generated by IcoMoon.io -->
<svg version="1.1" xmlns="http://www.w3.org/2000/svg" viewBox="0 0 32 32">
<title>sxp</title>
<path fill="#000" d="M31.999 16c0 8.836-7.163 16-16 16s-16-7.163-16-16c0-8.836 7.163-16 16-16s16 7.163 16 16z"></path>
<path fill="#fff" d="M15.42 5.772c-0.966 0.114-1.813 0.552-2.445 1.199l-0.001 0.001c-0.49 0.486-0.955 0.984-1.452 1.474-0.249 0.255-0.5 0.503-0.751 0.755s-0.529 0.519-0.79 0.784-0.478 0.496-0.72 0.742c-0.378 0.378-0.755 0.755-1.133 1.137-0.29 0.299-0.573 0.608-0.859 0.907-0.169 0.179-0.351 0.344-0.51 0.532-0.632 0.767-1.016 1.759-1.016 2.841v0c0 0.061 0 0.124 0.004 0.184 0.015 0.625 0.181 1.209 0.465 1.719l-0.010-0.019c0.179 0.345 0.366 0.64 0.575 0.918l-0.012-0.017c0.14 0.197 0.242 0.194 0.427 0.042 0.036-0.030 0.068-0.061 0.098-0.095l0.001-0.001c0.182-0.192 0.36-0.382 0.545-0.573 0.261-0.274 0.529-0.548 0.79-0.825s0.544-0.583 0.818-0.869c0.131-0.14 0.27-0.27 0.401-0.408 0.28-0.296 0.554-0.601 0.834-0.894s0.564-0.567 0.838-0.853 0.611-0.637 0.92-0.955 0.57-0.586 0.857-0.879c0.373-0.386 0.736-0.781 1.105-1.166 0.229-0.236 0.465-0.462 0.694-0.694 0.318-0.318 0.614-0.637 0.927-0.955s0.544-0.532 0.812-0.806q0.897-0.906 1.791-1.823c0.038-0.037 0.073-0.077 0.106-0.118l0.002-0.003c0.147-0.185 0.159-0.226-0.022-0.357-0.258-0.205-0.548-0.395-0.854-0.558l-0.031-0.015c-0.516-0.247-1.122-0.392-1.762-0.392-0 0-0 0-0 0h-0.030c-0.215 0-0.426 0.014-0.633 0.041l0.024-0.003-0.003-0.003zM20.69 9.692h-0.038c-0.549 0-1.041 0.246-1.37 0.634l-0.002 0.003c-0.031 0.034-0.062 0.065-0.094 0.094l-0.001 0.001-0.974 0.955c-0.318 0.319-0.662 0.666-0.997 1-0.277 0.277-0.554 0.548-0.828 0.825s-0.567 0.586-0.863 0.876-0.611 0.593-0.917 0.892l-1.086 1.095-2.019 2.019q-1.338 1.343-2.672 2.681c-0.172 0.169-0.175 0.191 0 0.372 0.427 0.432 0.86 0.86 1.274 1.295 0.249 0.264 0.58 0.447 0.952 0.511l0.010 0.001c0.135 0.028 0.29 0.045 0.45 0.045 0.213 0 0.419-0.029 0.614-0.084l-0.016 0.004c0.268-0.068 0.499-0.195 0.689-0.367l-0.001 0.001 1.057-1.021c0.248-0.238 0.5-0.474 0.745-0.716 0.49-0.485 0.974-0.974 1.465-1.456 0.398-0.392 0.806-0.78 1.21-1.172l1.658-1.616c0.516-0.507 1.035-1.016 1.557-1.522 0.062-0.091 0.166-0.151 0.283-0.151 0.144 0 0.267 0.089 0.317 0.216l0.001 0.002c0.255 0.368 0.407 0.824 0.407 1.316 0 0 0 0 0 0.001v-0c-0 0.085-0.005 0.169-0.013 0.251l0.001-0.010c-0.046 0.494-0.249 0.934-0.558 1.276l0.002-0.002c-0.382 0.411-0.79 0.799-1.187 1.194-0.283 0.28-0.573 0.554-0.857 0.837-0.366 0.363-0.726 0.733-1.092 1.096-0.054 0.060-0.105 0.124-0.162 0.181l-0.36 0.373c-0.27 0.27-0.544 0.532-0.809 0.802s-0.569 0.586-0.852 0.881c-0.025 0.029-0.054 0.047-0.079 0.073-0.319 0.296-0.612 0.593-0.914 0.892-0.143 0.14-0.28 0.283-0.42 0.423-0.242 0.245-0.49 0.485-0.723 0.736-0.143 0.149-0.143 0.242 0.026 0.36 0.257 0.199 0.545 0.386 0.849 0.547l0.033 0.016c0.538 0.249 1.168 0.395 1.832 0.395 0.222 0 0.44-0.016 0.653-0.048l-0.024 0.003c0.867-0.106 1.633-0.473 2.233-1.019l-0.003 0.003c0.471-0.414 0.892-0.879 1.331-1.324 0.318-0.319 0.637-0.659 0.977-0.987l0.92-0.927c0.28-0.283 0.557-0.567 0.841-0.847s0.637-0.614 0.955-0.93 0.637-0.637 0.955-0.974c0.247-0.251 0.477-0.522 0.687-0.807l0.014-0.021c0.381-0.568 0.639-1.248 0.721-1.982l0.002-0.021c0.021-0.161 0.032-0.347 0.032-0.535s-0.012-0.374-0.035-0.557l0.002 0.022c-0.103-0.669-0.339-1.268-0.683-1.791l0.010 0.017c-0.259-0.389-0.553-0.726-0.886-1.020l-0.005-0.005c-0.882-0.876-1.761-1.758-2.624-2.652-0.369-0.409-0.9-0.665-1.491-0.666h-0.012l-0.095 0.013z"></path>
</svg>
