<!-- Generated by IcoMoon.io -->
<svg version="1.1" xmlns="http://www.w3.org/2000/svg" viewBox="0 0 32 32">
<title>sys</title>
<path fill="#008dd0" d="M28.972 12.328c-1.583-1.498-3.819-2.746-6.72-3.538h-0.017c-6.903-1.878-9.362 2.564-3.773 5.365 6.346 3.175 7.227 8.375 3.646 11.626-0.913 0.827-3.878 2.376-6.605 2.747-4.332 0.601-9.139-0.32-13.046-1.561 2.023 1.584 4.409 2.814 7.003 3.548l0.145 0.035c6.091 1.677 13.448 0.442 18.324-3.797 4.91-4.275 5.38-10.334 1.044-14.425zM22.255 8.791l0.063 0.018z"></path>
<path fill="#008dd0" d="M8.982 2.306s0 0 0 0c2.317-0.971 5.010-1.535 7.834-1.535 4.791 0 9.203 1.623 12.715 4.35l-0.047-0.035c-7.294-2.32-12.954-2.118-16.667-0.625l-0.055 0.022c-4.585 1.875-6.174 5.714-4.178 9.185 1.075 1.871 2.969 3.27 4.891 4.23 5.081 2.545 3.519 6.442-1.983 5.729-0.695-0.094-1.307-0.223-1.902-0.393l0.094 0.023c-10.803-2.95-12.384-12.124-5.673-17.958 1.419-1.216 3.063-2.225 4.852-2.951l0.119-0.043z"></path>
</svg>
