<!-- Generated by IcoMoon.io -->
<svg version="1.1" xmlns="http://www.w3.org/2000/svg" viewBox="0 0 32 32">
<title>tau</title>
<path fill="#a02870" d="M3.365 12.285l-3.365 3.364h6.729z"></path>
<path fill="#80286c" d="M6.728 16.352h-6.727l3.363 3.364 3.364-3.364z"></path>
<path fill="#c42c79" d="M11.292 11.788l-3.364-3.364v6.728z"></path>
<path fill="#a02870" d="M7.225 15.152v-6.728l-3.364 3.364z"></path>
<path fill="#c42c79" d="M11.789 11.291l3.364-3.364h-6.729z"></path>
<path fill="#fff" d="M8.073 7.576v0-0.001z"></path>
<path fill="#e4327f" d="M11.789 3.861l-3.365 3.364h6.729z"></path>
<path fill="#0a8b4b" d="M19.716 3.364l-3.364-3.364v6.728z"></path>
<path fill="#e4327f" d="M15.649 6.728v-6.728l-3.364 3.364z"></path>
<path fill="#632a69" d="M11.292 20.212l-3.364-3.364v6.728z"></path>
<path fill="#80286c" d="M3.861 20.212l3.364 3.364v-6.727z"></path>
<path fill="#167b55" d="M20.212 11.291l3.364-3.364h-6.728z"></path>
<path fill="#0a8b4b" d="M16.848 7.225h6.728l-3.364-3.364z"></path>
<path fill="#402863" d="M15.153 24.775h-6.729l3.364 3.364 3.365-3.364z"></path>
<path fill="#632a69" d="M11.789 20.709l-3.364 3.364h6.727z"></path>
<path fill="#fff" d="M24.424 15.503v0 0z"></path>
<path fill="#21695e" d="M28.14 11.788l-3.364-3.364v6.727z"></path>
<path fill="#167b55" d="M20.709 11.788l3.364 3.364v-6.728z"></path>
<path fill="#402863" d="M12.285 28.636l3.364 3.364v-6.728z"></path>
<path fill="#223160" d="M16.352 25.272v6.727l3.364-3.364zM20.212 28.14l3.364-3.364h-6.729z"></path>
<path fill="#1e4561" d="M20.212 20.709l-3.364 3.364h6.727z"></path>
<path fill="#245661" d="M24.776 16.848v6.728l3.364-3.364z"></path>
<path fill="#fff" d="M20.709 20.212l3.364 3.364v-6.728z"></path>
<path fill="#1e4561" d="M28.636 19.716l3.364-3.364h-6.728z"></path>
<path fill="#245661" d="M28.636 12.285l-3.365 3.364h6.729z"></path>
</svg>
