<!-- Generated by IcoMoon.io -->
<svg version="1.1" xmlns="http://www.w3.org/2000/svg" viewBox="0 0 32 32">
<title>tch</title>
<path d="M0 7.055c-0.084-2.489 1.846-4.575 4.312-4.661 0.045-0.002 0.098-0.003 0.152-0.003 1.404 0 2.657 0.651 3.472 1.667l0.007 0.009c-1.047 0.428-4.123 2.053-5.614 6.79-1.358-0.76-2.274-2.169-2.329-3.795l-0-0.007zM3.177 10.711h8.421c-0.37-2.267-1.595-4.196-3.326-5.48l-0.023-0.016c-0.193-0.142-0.358-0.252-0.486-0.332-2.007 1.485-3.575 3.454-4.548 5.737l-0.034 0.091zM20.503 10.711h8.169c-0.976-2.301-2.476-4.216-4.357-5.66l-0.033-0.024c-0.122 0.078-0.274 0.179-0.446 0.307-1.724 1.276-2.936 3.158-3.323 5.326l-0.008 0.051zM9.865 17.45c1.149-1.456 1.843-3.318 1.843-5.342 0-0.143-0.004-0.286-0.010-0.428l0.001 0.020h-8.889c-0.436 1.288-0.687 2.771-0.687 4.312 0 0.899 0.086 1.778 0.249 2.63l-0.014-0.087c3.263-0.049 4.549-2.185 4.549-2.185l0.868 1.007c-1.438 1.842-3.621 2.313-5.133 2.395q0.156 0.564 0.365 1.108c3.387-0.119 5.533-1.732 6.861-3.43zM12.878 13.648c-0.384 2.194-1.202 3.824-2.214 5.041 0.568 0.713 2.185 2.253 5.566 2.195 0 0 2.654 0.24 5.182-2.080-1.008-1.214-1.822-2.843-2.212-5.038 0 0-1.083-6.494 3.781-9.617-1.749-1.061-3.833-1.749-6.064-1.904l-0.043-0.002v5.229h-1.577v-5.247c-2.298 0.103-4.423 0.757-6.274 1.83l0.066-0.035c4.877 3.122 3.788 9.628 3.788 9.628zM28.248 2.466c-0.226-0.040-0.487-0.063-0.753-0.063-1.373 0-2.602 0.613-3.43 1.58l-0.005 0.006c3.967 2.175 5.114 5.477 5.534 6.854 1.234-0.641 2.119-1.809 2.359-3.199l0.004-0.026c0.408-2.434-1.252-4.741-3.708-5.152zM24.382 17.127l0.937-0.997s1.162 1.989 4.227 2.128c0.116-0.674 0.182-1.451 0.182-2.243 0-0.001 0-0.002 0-0.003v0c0-0.003 0-0.007 0-0.011 0-1.537-0.252-3.016-0.716-4.397l0.028 0.097h-8.649c-0.010 0.157-0.016 0.341-0.016 0.526 0 2.024 0.694 3.886 1.857 5.361l-0.014-0.018c1.291 1.652 3.356 3.225 6.586 3.415 0.162-0.399 0.329-0.905 0.466-1.422l0.021-0.095c-1.497-0.108-3.534-0.605-4.909-2.339zM15.254 23.65v-0.985c-1.787-0.173-3.746-0.965-5.716-2.844-2.147 1.802-4.699 2.253-5.957 2.364 1.648 3.238 4.438 5.696 7.827 6.874l0.097 0.029c0.918-0.403 1.695-0.97 2.328-1.669l0.005-0.006c0.879-0.988 1.417-2.297 1.417-3.732 0-0.011-0-0.022-0-0.033v0.002zM13.705 29.634c0.667 0.113 1.436 0.178 2.22 0.178 0.887 0 1.756-0.083 2.597-0.241l-0.087 0.014c-0.969-1.041-1.768-2.257-2.341-3.592l-0.031-0.082c-0.596 1.436-1.391 2.669-2.367 3.733l0.008-0.009zM16.885 22.661v1.015c-0 0.010-0 0.023-0 0.035 0 1.376 0.514 2.632 1.361 3.586l-0.005-0.006c0.648 0.721 1.441 1.297 2.335 1.687l0.044 0.017c3.331-1.233 5.995-3.608 7.571-6.641l0.036-0.077c-1.296-0.147-3.558-0.631-5.523-2.206-0.818 0.688-3.006 2.307-5.819 2.59z"></path>
</svg>
