<!-- Generated by IcoMoon.io -->
<svg version="1.1" xmlns="http://www.w3.org/2000/svg" viewBox="0 0 32 32">
<title>tera</title>
<path d="M31.876 28.647v0s0 0 0 0v-0.016c0-0.003 0-0.007 0-0.011s-0-0.007-0-0.011l0 0-15.59-25.648c-0.073-0.112-0.198-0.185-0.34-0.185-0.082 0-0.159 0.025-0.223 0.067l0.002-0.001c-0.048 0.030-0.089 0.068-0.121 0.112l-0.001 0.001-0.021 0.034q-1.566 2.586-3.152 5.16c-0.1 0.143-0.16 0.32-0.16 0.512s0.060 0.369 0.162 0.515l-0.002-0.003q2.097 3.412 4.181 6.826c0.109 0.154 0.174 0.347 0.174 0.554s-0.065 0.4-0.176 0.557l0.002-0.003c-2.29 3.766-4.71 7.725-7.021 11.507-0.030 0.056-0.048 0.122-0.048 0.192 0 0.155 0.086 0.29 0.212 0.359l0.002 0.001c0.055 0.030 0.12 0.048 0.189 0.048 0 0 0.001 0 0.001 0h6.715c0.001 0 0.002 0 0.003 0 0.154 0 0.288-0.086 0.356-0.212l0.001-0.002 0.23-0.386 3.113-5.115c0.070-0.127 0.203-0.212 0.356-0.212 0.072 0 0.14 0.019 0.199 0.052l-0.002-0.001c0.057 0.031 0.105 0.074 0.139 0.126l0.001 0.001 3.369 5.493c0.071 0.127 0.204 0.211 0.357 0.212h0.188c0.014 0.001 0.031 0.002 0.048 0.002s0.033-0.001 0.050-0.002l-0.002 0h6.432c0 0 0 0 0 0 0.224 0 0.406-0.181 0.407-0.404v-0c-0.004-0.044-0.014-0.084-0.030-0.122l0.001 0.003z"></path>
<path d="M13.977 17.362l0.225-0.37c0.089-0.127 0.142-0.284 0.142-0.454s-0.053-0.327-0.144-0.456l0.002 0.003-1.38-2.237-1.587-2.557c-0.072-0.117-0.2-0.194-0.346-0.194-0.080 0-0.154 0.023-0.217 0.063l0.002-0.001c-0.061 0.037-0.111 0.088-0.144 0.149l-0.001 0.002-10.481 17.309c-0.030 0.055-0.048 0.121-0.048 0.191 0 0.154 0.086 0.289 0.212 0.358l0.002 0.001c0.054 0.032 0.119 0.050 0.188 0.050 0.002 0 0.004 0 0.006-0h6.156c0.153-0 0.286-0.085 0.356-0.209l0.001-0.002 0.235-0.391c0.010-0.013 0.019-0.028 0.028-0.043l0.001-0.002 0.264-0.423c2.192-3.636 4.292-7.109 6.49-10.727 0.012-0.017 0.025-0.036 0.036-0.055l0.001-0.003z"></path>
</svg>
