<!-- Generated by IcoMoon.io -->
<svg version="1.1" xmlns="http://www.w3.org/2000/svg" viewBox="0 0 32 32">
<title>tern</title>
<path fill="#1b2d45" d="M32 16c0 8.837-7.163 16-16 16s-16-7.163-16-16c0-8.837 7.163-16 16-16s16 7.163 16 16z"></path>
<path fill="#719cd0" d="M25.056 14.702v-3.928l-9.056-5.24-4.679 2.708 3.704 2.167-0.919 0.589-3.739-2.203-3.423 1.985 0.014 10.473 4.693 2.687v-4.251l0.898 0.519v4.244l3.507 2.027 9.007-5.261v-5.457l-3.648 2.139v-1.038zM11.623 13.475l0.498-0.274 3.69 2.132 3.928-2.196 0.589 0.337v0.589l-3.718 2.16v4.419l-0.61 0.414-0.477-0.337v-4.23l-3.9-2.28zM13.615 18.595l-3.858-2.125v4.23l-1.003-0.568-0.021-8.263 1.543-0.919 0.947 0.589-1.508 0.912 0.007 2.792 3.886 2.28v1.073zM23.239 19.030v1.143l-7.267 4.181-1.529-0.905v-1.087l1.557 0.877 2.497-1.445v-4.496l0.94-0.603 0.028 4.524zM19.718 10.943l-3.879 2.245-0.863-0.533 3.788-2.238-3.725-2.153 0.961-0.561 7.211 4.181v1.74l-1.010 0.596v-1.789z"></path>
</svg>
