<!-- Generated by IcoMoon.io -->
<svg version="1.1" xmlns="http://www.w3.org/2000/svg" viewBox="0 0 32 32">
<title>tfuel</title>
<path fill="#000" d="M16 0c8.835 0 16 7.165 16 16s-7.165 16-16 16-16-7.165-16-16 7.165-16 16-16v0z"></path>
<path fill="#fff" d="M22.144 11.104c-0.202 0.24-0.189 0.771-0.512 0.608 0 0-2.25-0.861-0.864-3.392 0.374-0.586 0.762-0.624 0.704-2.048 0.346 0.525 1.478 1.578 1.568 3.232 0.090 1.104-0.57 1.251-0.896 1.6v0z"></path>
<path fill="#fff" d="M20.352 15.040c0.554-0.186 1.45-0.48 1.504-2.368 0.854 1.309 3.754 3.146 2.368 8.768-0.563 2.192-2.662 3.258-4.64 4.064-1.235 0.525-2.496 1.402-3.008 2.72 0 0-9.347-1.181-9.056-10.464 0.234-4.816 4.746-6.656 6.656-10.176 1.018-2.221 0.672-4.448 0.672-4.448s5.952 3.702 3.264 9.408c-0.874 2.016 1.213 2.698 2.24 2.496v0z"></path>
<path fill="#000" d="M11.168 16.704v3.104h3.296v3.296h3.104v-3.296h3.296v-3.104z"></path>
</svg>
