<!-- Generated by IcoMoon.io -->
<svg version="1.1" xmlns="http://www.w3.org/2000/svg" viewBox="0 0 32 32">
<title>thr</title>
<path d="M19.475 16.018c0 5.378-4.36 9.738-9.738 9.738s-9.738-4.36-9.738-9.738c0-5.378 4.36-9.738 9.738-9.738s9.738 4.36 9.738 9.738z"></path>
<path d="M9.34 18.582c0 0.403-0.327 0.73-0.73 0.73s-0.73-0.327-0.73-0.73c0-0.403 0.327-0.73 0.73-0.73s0.73 0.327 0.73 0.73z"></path>
<path d="M11.495 18.582c0 0.403-0.327 0.73-0.73 0.73s-0.73-0.327-0.73-0.73c0-0.403 0.327-0.73 0.73-0.73s0.73 0.327 0.73 0.73z"></path>
<path d="M13.649 18.582c0 0.403-0.327 0.73-0.73 0.73s-0.73-0.327-0.73-0.73c0-0.403 0.327-0.73 0.73-0.73s0.73 0.327 0.73 0.73z"></path>
<path d="M15.806 18.582c0 0.403-0.327 0.73-0.73 0.73s-0.73-0.327-0.73-0.73c0-0.403 0.327-0.73 0.73-0.73s0.73 0.327 0.73 0.73z"></path>
<path d="M17.962 18.582c0 0.403-0.327 0.73-0.73 0.73s-0.73-0.327-0.73-0.73c0-0.403 0.327-0.73 0.73-0.73s0.73 0.327 0.73 0.73z"></path>
<path d="M20.117 18.582c0 0.403-0.327 0.73-0.73 0.73s-0.73-0.327-0.73-0.73c0-0.403 0.327-0.73 0.73-0.73s0.73 0.327 0.73 0.73z"></path>
<path d="M22.273 18.582c0 0.403-0.327 0.73-0.73 0.73s-0.73-0.327-0.73-0.73c0-0.403 0.327-0.73 0.73-0.73s0.73 0.327 0.73 0.73z"></path>
<path d="M24.428 18.582c0 0.403-0.327 0.73-0.73 0.73s-0.73-0.327-0.73-0.73c0-0.403 0.327-0.73 0.73-0.73s0.73 0.327 0.73 0.73z"></path>
<path d="M26.582 18.582c0 0.403-0.327 0.73-0.73 0.73s-0.73-0.327-0.73-0.73c0-0.403 0.327-0.73 0.73-0.73s0.73 0.327 0.73 0.73z"></path>
<path d="M27.556 20.767c0 0.277-0.225 0.502-0.502 0.502s-0.502-0.225-0.502-0.502c0-0.277 0.225-0.502 0.502-0.502s0.502 0.225 0.502 0.502z"></path>
<path d="M25.328 20.767c0 0.277-0.225 0.502-0.502 0.502s-0.502-0.225-0.502-0.502c0-0.277 0.225-0.502 0.502-0.502s0.502 0.225 0.502 0.502z"></path>
<path d="M23.101 20.767c0 0.277-0.225 0.502-0.502 0.502s-0.502-0.225-0.502-0.502c0-0.277 0.225-0.502 0.502-0.502s0.502 0.225 0.502 0.502z"></path>
<path d="M20.875 20.767c0 0.277-0.225 0.502-0.502 0.502s-0.502-0.225-0.502-0.502c0-0.277 0.225-0.502 0.502-0.502s0.502 0.225 0.502 0.502z"></path>
<path d="M18.647 20.767c0 0.277-0.225 0.502-0.502 0.502s-0.502-0.225-0.502-0.502c0-0.277 0.225-0.502 0.502-0.502s0.502 0.225 0.502 0.502z"></path>
<path d="M16.419 20.767c0 0.277-0.225 0.502-0.502 0.502s-0.502-0.225-0.502-0.502c0-0.277 0.225-0.502 0.502-0.502s0.502 0.225 0.502 0.502z"></path>
<path d="M14.192 20.767c0 0.277-0.225 0.502-0.502 0.502s-0.502-0.225-0.502-0.502c0-0.277 0.225-0.502 0.502-0.502s0.502 0.225 0.502 0.502z"></path>
<path d="M11.964 20.767c0 0.277-0.225 0.502-0.502 0.502s-0.502-0.225-0.502-0.502c0-0.277 0.225-0.502 0.502-0.502s0.502 0.225 0.502 0.502z"></path>
<path d="M9.738 20.767c0 0.277-0.225 0.502-0.502 0.502s-0.502-0.225-0.502-0.502c0-0.277 0.225-0.502 0.502-0.502s0.502 0.225 0.502 0.502z"></path>
<path d="M28.724 22.303c0 0.269-0.218 0.487-0.487 0.487s-0.487-0.218-0.487-0.487c0-0.269 0.218-0.487 0.487-0.487s0.487 0.218 0.487 0.487z"></path>
<path d="M26.464 22.303c0 0.269-0.218 0.487-0.487 0.487s-0.487-0.218-0.487-0.487c0-0.269 0.218-0.487 0.487-0.487s0.487 0.218 0.487 0.487z"></path>
<path d="M24.205 22.303c0 0.269-0.218 0.487-0.487 0.487s-0.487-0.218-0.487-0.487c0-0.269 0.218-0.487 0.487-0.487s0.487 0.218 0.487 0.487z"></path>
<path d="M21.947 22.303c0 0.269-0.218 0.487-0.487 0.487s-0.487-0.218-0.487-0.487c0-0.269 0.218-0.487 0.487-0.487s0.487 0.218 0.487 0.487z"></path>
<path d="M19.687 22.303c0 0.269-0.218 0.487-0.487 0.487s-0.487-0.218-0.487-0.487c0-0.269 0.218-0.487 0.487-0.487s0.487 0.218 0.487 0.487z"></path>
<path d="M17.428 22.303c0 0.269-0.218 0.487-0.487 0.487s-0.487-0.218-0.487-0.487c0-0.269 0.218-0.487 0.487-0.487s0.487 0.218 0.487 0.487z"></path>
<path d="M15.17 22.303c0 0.269-0.218 0.487-0.487 0.487s-0.487-0.218-0.487-0.487c0-0.269 0.218-0.487 0.487-0.487s0.487 0.218 0.487 0.487z"></path>
<path d="M12.911 22.303c0 0.269-0.218 0.487-0.487 0.487s-0.487-0.218-0.487-0.487c0-0.269 0.218-0.487 0.487-0.487s0.487 0.218 0.487 0.487z"></path>
<path d="M10.651 22.303c0 0.269-0.218 0.487-0.487 0.487s-0.487-0.218-0.487-0.487c0-0.269 0.218-0.487 0.487-0.487s0.487 0.218 0.487 0.487z"></path>
<path d="M30.183 23.852c0 0.206-0.167 0.372-0.372 0.372s-0.372-0.167-0.372-0.372c0-0.206 0.167-0.372 0.372-0.372s0.372 0.167 0.372 0.372z"></path>
<path d="M27.894 23.852c0 0.206-0.167 0.372-0.372 0.372s-0.372-0.167-0.372-0.372c0-0.206 0.167-0.372 0.372-0.372s0.372 0.167 0.372 0.372z"></path>
<path d="M25.605 23.852c0 0.206-0.167 0.372-0.372 0.372s-0.372-0.167-0.372-0.372c0-0.206 0.167-0.372 0.372-0.372s0.372 0.167 0.372 0.372z"></path>
<path d="M23.317 23.852c0 0.206-0.167 0.372-0.372 0.372s-0.372-0.167-0.372-0.372c0-0.206 0.167-0.372 0.372-0.372s0.372 0.167 0.372 0.372z"></path>
<path d="M21.027 23.852c0 0.206-0.167 0.372-0.372 0.372s-0.372-0.167-0.372-0.372c0-0.206 0.167-0.372 0.372-0.372s0.372 0.167 0.372 0.372z"></path>
<path d="M18.738 23.852c0 0.206-0.167 0.372-0.372 0.372s-0.372-0.167-0.372-0.372c0-0.206 0.167-0.372 0.372-0.372s0.372 0.167 0.372 0.372z"></path>
<path d="M16.449 23.852c0 0.206-0.167 0.372-0.372 0.372s-0.372-0.167-0.372-0.372c0-0.206 0.167-0.372 0.372-0.372s0.372 0.167 0.372 0.372z"></path>
<path d="M14.161 23.852c0 0.206-0.167 0.372-0.372 0.372s-0.372-0.167-0.372-0.372c0-0.206 0.167-0.372 0.372-0.372s0.372 0.167 0.372 0.372z"></path>
<path d="M11.871 23.852c0 0.206-0.167 0.372-0.372 0.372s-0.372-0.167-0.372-0.372c0-0.206 0.167-0.372 0.372-0.372s0.372 0.167 0.372 0.372z"></path>
<path d="M31.93 25.232c0 0.158-0.128 0.286-0.286 0.286s-0.286-0.128-0.286-0.286c0-0.158 0.128-0.286 0.286-0.286s0.286 0.128 0.286 0.286z"></path>
<path d="M29.622 25.232c0 0.158-0.128 0.286-0.286 0.286s-0.286-0.128-0.286-0.286c0-0.158 0.128-0.286 0.286-0.286s0.286 0.128 0.286 0.286z"></path>
<path d="M27.314 25.232c0 0.158-0.128 0.286-0.286 0.286s-0.286-0.128-0.286-0.286c0-0.158 0.128-0.286 0.286-0.286s0.286 0.128 0.286 0.286z"></path>
<path d="M25.006 25.232c0 0.158-0.128 0.286-0.286 0.286s-0.286-0.128-0.286-0.286c0-0.158 0.128-0.286 0.286-0.286s0.286 0.128 0.286 0.286z"></path>
<path d="M22.699 25.232c0 0.158-0.128 0.286-0.286 0.286s-0.286-0.128-0.286-0.286c0-0.158 0.128-0.286 0.286-0.286s0.286 0.128 0.286 0.286z"></path>
<path d="M20.39 25.232c0 0.158-0.128 0.286-0.286 0.286s-0.286-0.128-0.286-0.286c0-0.158 0.128-0.286 0.286-0.286s0.286 0.128 0.286 0.286z"></path>
<path d="M18.083 25.232c0 0.158-0.128 0.286-0.286 0.286s-0.286-0.128-0.286-0.286c0-0.158 0.128-0.286 0.286-0.286s0.286 0.128 0.286 0.286z"></path>
<path d="M15.776 25.232c0 0.158-0.128 0.286-0.286 0.286s-0.286-0.128-0.286-0.286c0-0.158 0.128-0.286 0.286-0.286s0.286 0.128 0.286 0.286z"></path>
<path d="M13.467 25.232c0 0.158-0.128 0.286-0.286 0.286s-0.286-0.128-0.286-0.286c0-0.158 0.128-0.286 0.286-0.286s0.286 0.128 0.286 0.286z"></path>
<path d="M8.063 16.52c0 0.277-0.225 0.502-0.502 0.502s-0.502-0.225-0.502-0.502c0-0.277 0.225-0.502 0.502-0.502s0.502 0.225 0.502 0.502z"></path>
<path d="M10.289 16.52c0 0.277-0.225 0.502-0.502 0.502s-0.502-0.225-0.502-0.502c0-0.277 0.225-0.502 0.502-0.502s0.502 0.225 0.502 0.502z"></path>
<path d="M12.517 16.52c0 0.277-0.225 0.502-0.502 0.502s-0.502-0.225-0.502-0.502c0-0.277 0.225-0.502 0.502-0.502s0.502 0.225 0.502 0.502z"></path>
<path d="M14.744 16.52c0 0.277-0.225 0.502-0.502 0.502s-0.502-0.225-0.502-0.502c0-0.277 0.225-0.502 0.502-0.502s0.502 0.225 0.502 0.502z"></path>
<path d="M16.972 16.52c0 0.277-0.225 0.502-0.502 0.502s-0.502-0.225-0.502-0.502c0-0.277 0.225-0.502 0.502-0.502s0.502 0.225 0.502 0.502z"></path>
<path d="M19.2 16.52c0 0.277-0.225 0.502-0.502 0.502s-0.502-0.225-0.502-0.502c0-0.277 0.225-0.502 0.502-0.502s0.502 0.225 0.502 0.502z"></path>
<path d="M21.427 16.52c0 0.277-0.225 0.502-0.502 0.502s-0.502-0.225-0.502-0.502c0-0.277 0.225-0.502 0.502-0.502s0.502 0.225 0.502 0.502z"></path>
<path d="M23.655 16.52c0 0.277-0.225 0.502-0.502 0.502s-0.502-0.225-0.502-0.502c0-0.277 0.225-0.502 0.502-0.502s0.502 0.225 0.502 0.502z"></path>
<path d="M25.881 16.52c0 0.277-0.225 0.502-0.502 0.502s-0.502-0.225-0.502-0.502c0-0.277 0.225-0.502 0.502-0.502s0.502 0.225 0.502 0.502z"></path>
<path d="M6.865 14.985c0 0.269-0.218 0.487-0.487 0.487s-0.487-0.218-0.487-0.487c0-0.269 0.218-0.487 0.487-0.487s0.487 0.218 0.487 0.487z"></path>
<path d="M9.124 14.985c0 0.269-0.218 0.487-0.487 0.487s-0.487-0.218-0.487-0.487c0-0.269 0.218-0.487 0.487-0.487s0.487 0.218 0.487 0.487z"></path>
<path d="M11.384 14.985c0 0.269-0.218 0.487-0.487 0.487s-0.487-0.218-0.487-0.487c0-0.269 0.218-0.487 0.487-0.487s0.487 0.218 0.487 0.487z"></path>
<path d="M13.642 14.985c0 0.269-0.218 0.487-0.487 0.487s-0.487-0.218-0.487-0.487c0-0.269 0.218-0.487 0.487-0.487s0.487 0.218 0.487 0.487z"></path>
<path d="M15.901 14.985c0 0.269-0.218 0.487-0.487 0.487s-0.487-0.218-0.487-0.487c0-0.269 0.218-0.487 0.487-0.487s0.487 0.218 0.487 0.487z"></path>
<path d="M18.159 14.985c0 0.269-0.218 0.487-0.487 0.487s-0.487-0.218-0.487-0.487c0-0.269 0.218-0.487 0.487-0.487s0.487 0.218 0.487 0.487z"></path>
<path d="M20.419 14.985c0 0.269-0.218 0.487-0.487 0.487s-0.487-0.218-0.487-0.487c0-0.269 0.218-0.487 0.487-0.487s0.487 0.218 0.487 0.487z"></path>
<path d="M22.678 14.985c0 0.269-0.218 0.487-0.487 0.487s-0.487-0.218-0.487-0.487c0-0.269 0.218-0.487 0.487-0.487s0.487 0.218 0.487 0.487z"></path>
<path d="M24.936 14.985c0 0.269-0.218 0.487-0.487 0.487s-0.487-0.218-0.487-0.487c0-0.269 0.218-0.487 0.487-0.487s0.487 0.218 0.487 0.487z"></path>
<path d="M5.175 13.435c0 0.206-0.167 0.372-0.372 0.372s-0.372-0.167-0.372-0.372c0-0.206 0.167-0.372 0.372-0.372s0.372 0.167 0.372 0.372z"></path>
<path d="M7.465 13.435c0 0.206-0.167 0.372-0.372 0.372s-0.372-0.167-0.372-0.372c0-0.206 0.167-0.372 0.372-0.372s0.372 0.167 0.372 0.372z"></path>
<path d="M9.754 13.435c0 0.206-0.167 0.372-0.372 0.372s-0.372-0.167-0.372-0.372c0-0.206 0.167-0.372 0.372-0.372s0.372 0.167 0.372 0.372z"></path>
<path d="M12.042 13.435c0 0.206-0.167 0.372-0.372 0.372s-0.372-0.167-0.372-0.372c0-0.206 0.167-0.372 0.372-0.372s0.372 0.167 0.372 0.372z"></path>
<path d="M14.331 13.435c0 0.206-0.167 0.372-0.372 0.372s-0.372-0.167-0.372-0.372c0-0.206 0.167-0.372 0.372-0.372s0.372 0.167 0.372 0.372z"></path>
<path d="M16.621 13.435c0 0.206-0.167 0.372-0.372 0.372s-0.372-0.167-0.372-0.372c0-0.206 0.167-0.372 0.372-0.372s0.372 0.167 0.372 0.372z"></path>
<path d="M18.91 13.435c0 0.206-0.167 0.372-0.372 0.372s-0.372-0.167-0.372-0.372c0-0.206 0.167-0.372 0.372-0.372s0.372 0.167 0.372 0.372z"></path>
<path d="M21.198 13.435c0 0.206-0.167 0.372-0.372 0.372s-0.372-0.167-0.372-0.372c0-0.206 0.167-0.372 0.372-0.372s0.372 0.167 0.372 0.372z"></path>
<path d="M23.487 13.435c0 0.206-0.167 0.372-0.372 0.372s-0.372-0.167-0.372-0.372c0-0.206 0.167-0.372 0.372-0.372s0.372 0.167 0.372 0.372z"></path>
<path d="M3.255 12.055c0 0.158-0.128 0.286-0.286 0.286s-0.286-0.128-0.286-0.286c0-0.158 0.128-0.286 0.286-0.286s0.286 0.128 0.286 0.286z"></path>
<path d="M5.563 12.055c0 0.158-0.128 0.286-0.286 0.286s-0.286-0.128-0.286-0.286c0-0.158 0.128-0.286 0.286-0.286s0.286 0.128 0.286 0.286z"></path>
<path d="M7.87 12.055c0 0.158-0.128 0.286-0.286 0.286s-0.286-0.128-0.286-0.286c0-0.158 0.128-0.286 0.286-0.286s0.286 0.128 0.286 0.286z"></path>
<path d="M10.179 12.055c0 0.158-0.128 0.286-0.286 0.286s-0.286-0.128-0.286-0.286c0-0.158 0.128-0.286 0.286-0.286s0.286 0.128 0.286 0.286z"></path>
<path d="M12.486 12.055c0 0.158-0.128 0.286-0.286 0.286s-0.286-0.128-0.286-0.286c0-0.158 0.128-0.286 0.286-0.286s0.286 0.128 0.286 0.286z"></path>
<path d="M14.795 12.055c0 0.158-0.128 0.286-0.286 0.286s-0.286-0.128-0.286-0.286c0-0.158 0.128-0.286 0.286-0.286s0.286 0.128 0.286 0.286z"></path>
<path d="M17.102 12.055c0 0.158-0.128 0.286-0.286 0.286s-0.286-0.128-0.286-0.286c0-0.158 0.128-0.286 0.286-0.286s0.286 0.128 0.286 0.286z"></path>
<path d="M19.409 12.055c0 0.158-0.128 0.286-0.286 0.286s-0.286-0.128-0.286-0.286c0-0.158 0.128-0.286 0.286-0.286s0.286 0.128 0.286 0.286z"></path>
<path d="M21.718 12.055c0 0.158-0.128 0.286-0.286 0.286s-0.286-0.128-0.286-0.286c0-0.158 0.128-0.286 0.286-0.286s0.286 0.128 0.286 0.286z"></path>
</svg>
