<!-- Generated by IcoMoon.io -->
<svg version="1.1" xmlns="http://www.w3.org/2000/svg" viewBox="0 0 32 32">
<title>tkn</title>
<path d="M11.090 4.576l6.558 3.761c0.272 0.149 0.438 0.438 0.438 0.754v12.432c0 0.035-0.018 0.079-0.053 0.096l-7.11 4.033c-0.053 0.026-0.114 0.009-0.149-0.044 0 0 0 0 0 0-0.009-0.018-0.018-0.035-0.018-0.053l0.009-20.787c0-0.114 0.096-0.21 0.21-0.21 0.044-0.009 0.079 0 0.114 0.018zM10.775 3.77c-0.158-0.088-0.351-0.035-0.438 0.123-0.026 0.053-0.044 0.105-0.044 0.158l-0.035 21.778c0 0.158 0.079 0.298 0.219 0.377l7.61 4.366c0.158 0.088 0.351 0.035 0.438-0.123 0.026-0.053 0.044-0.105 0.044-0.158v-21.427c0-0.386-0.21-0.745-0.544-0.938l-7.25-4.156zM22.724 6.163v22.996c0 0.386-0.21 0.745-0.544 0.938l-3.042 1.736c-0.333 0.193-0.745 0.193-1.078 0l-8.267-4.778c-0.333-0.193-0.544-0.544-0.544-0.929v-23.575c0-0.395 0.219-0.763 0.57-0.947l2.727-1.473c0.333-0.175 0.736-0.175 1.061 0.018l8.583 5.085c0.333 0.193 0.535 0.544 0.535 0.929z"></path>
</svg>
