<!-- Generated by IcoMoon.io -->
<svg version="1.1" xmlns="http://www.w3.org/2000/svg" viewBox="0 0 32 32">
<title>tor</title>
<path fill="#000" d="M9.517 0h13.024c5.256 0 9.517 4.261 9.517 9.517v12.967c0 5.256-4.261 9.517-9.517 9.517h-13.024c-5.256 0-9.517-4.261-9.517-9.517v-12.967c0-5.256 4.261-9.517 9.517-9.517z"></path>
<path fill="#2cc981" d="M9.517 0h13.024c5.256 0 9.517 4.261 9.517 9.517v12.967c0 5.256-4.261 9.517-9.517 9.517h-13.024c-5.256 0-9.517-4.261-9.517-9.517v-12.967c0-5.256 4.261-9.517 9.517-9.517z"></path>
<path fill="#fff" d="M21.76 4.963l5.158 5.334h-10.468zM10.816 15.841l-5.515-5.496 5.348-5.334 16.302 16.34-5.401 5.325-5.334-5.325-5.372 5.363-5.41-5.401z"></path>
</svg>
