<!-- Generated by IcoMoon.io -->
<svg version="1.1" xmlns="http://www.w3.org/2000/svg" viewBox="0 0 32 32">
<title>torn</title>
<path fill="#94febf" d="M23.52 6.88c4.56 0.4 8.16 4.080 8.4 8.64-0.24-7.52-6.48-13.52-14.080-13.28-4.48 0.16-8.64 2.4-11.040 6.16 0.4-4.56 4.080-8.16 8.64-8.4-7.6 0.32-13.44 6.8-13.12 14.4 0.16 4.32 2.4 8.32 6 10.72-4.56-0.4-8.080-4.080-8.32-8.64 0.16 7.52 6.48 13.52 14 13.36 4.48-0.080 8.56-2.4 11.040-6.080-0.4 4.48-4.080 8-8.56 8.24 7.52-0.24 13.44-6.56 13.2-14.16-0.16-4.4-2.4-8.56-6.16-10.96zM15.92 21.76c-1.52 0-2.96-0.56-4-1.68-2.24-2.24-2.16-5.84 0-8s5.84-2.16 8 0 2.16 5.84 0 8c-1.040 1.12-2.48 1.68-4 1.68z"></path>
</svg>
