<!-- Generated by IcoMoon.io -->
<svg version="1.1" xmlns="http://www.w3.org/2000/svg" viewBox="0 0 32 32">
<title>trac</title>
<path fill="#000" d="M22.048 21.161l6.065 5.161v-0.129c0.516-0.645 1.032-1.419 1.548-2.194v0l-6.839-4c-0.258 0.387-0.516 0.774-0.774 1.161z"></path>
<path fill="#000" d="M23.854 16h7.871v0.129c0 0.774-0.129 1.548-0.258 2.323v0.516c-0.129 0.774-0.387 1.548-0.645 2.323v0.129l-7.484-2.71c0.387-0.774 0.516-1.677 0.516-2.71v0z"></path>
<path fill="#000" d="M29.79 8c0.387 0.774 0.774 1.548 1.032 2.323l0.129 0.129v0.129c0.258 0.774 0.516 1.548 0.645 2.323v0.129l-7.742 1.419c-0.258-1.419-0.774-2.71-1.677-3.742l6.065-5.161v0.129c0.516 0.774 1.032 1.548 1.548 2.323v0 0 0z"></path>
<path fill="#000" d="M17.403 8.129c-0.516-0.129-0.903-0.129-1.419-0.129v-8c0.903 0 1.806 0.129 2.71 0.258v0 0c0.903 0.129 1.677 0.387 2.581 0.645v0 0c0.774 0.258 1.677 0.645 2.452 1.161v0 0 0c0.774 0.387 1.419 0.903 2.194 1.548h0.129l-5.032 6.065c-0.645-0.645-1.548-1.032-2.323-1.419-0.387 0-0.903-0.129-1.29-0.129v0z"></path>
<path fill="#1d2667" d="M15.983 0v8c-4.387 0-8 3.613-8 8s3.613 8 8 8c2.323 0 4.645-1.032 6.065-2.839l6.065 5.161c-2.968 3.613-7.484 5.677-12.129 5.677-8.774 0-15.871-7.097-15.871-16s6.968-16 15.871-16zM23.467 18.71l7.484 2.71c-0.258 0.903-0.774 1.677-1.161 2.581l-6.839-4c0.129-0.387 0.387-0.774 0.516-1.29zM31.596 13.161c0.129 0.903 0.258 1.806 0.258 2.839h-7.871c0-0.516 0-0.903-0.129-1.419l7.742-1.419zM26.177 3.742c0.645 0.645 1.419 1.29 1.935 1.935l-6.065 5.161c-0.258-0.387-0.645-0.645-1.032-1.032l5.161-6.065z"></path>
</svg>
