<!-- Generated by IcoMoon.io -->
<svg version="1.1" xmlns="http://www.w3.org/2000/svg" viewBox="0 0 32 32">
<title>trx</title>
<path fill="#ff060a" d="M30.775 9.64c-1.5-1.385-3.575-3.5-5.265-5l-0.1-0.070c-0.158-0.128-0.342-0.233-0.542-0.306l-0.013-0.004c-4.075-0.76-23.040-4.305-23.41-4.26-0.109 0.016-0.208 0.055-0.293 0.112l0.003-0.002-0.095 0.075c-0.114 0.115-0.203 0.256-0.258 0.412l-0.002 0.008-0.025 0.065v0.41c2.135 5.945 10.565 25.42 12.225 29.99 0.1 0.31 0.29 0.9 0.645 0.93h0.080c0.19 0 1-1.070 1-1.070s14.48-17.56 15.945-19.43c0.18-0.217 0.345-0.459 0.488-0.716l0.012-0.024c0.012-0.064 0.019-0.137 0.019-0.211 0-0.362-0.16-0.687-0.412-0.908l-0.001-0.001zM18.44 11.685l6.18-5.125 3.625 3.34zM16.040 11.35l-10.64-8.72 17.215 3.175zM17 13.635l10.89-1.755-12.45 15zM3.955 3.5l11.195 9.5-1.62 13.89z"></path>
</svg>
