<!-- Generated by IcoMoon.io -->
<svg version="1.1" xmlns="http://www.w3.org/2000/svg" viewBox="0 0 32 32">
<title>tt</title>
<path fill="#ffe81c" d="M16 0c8.837 0 16 7.163 16 16s-7.163 16-16 16-16-7.163-16-16 7.163-16 16-16z"></path>
<path fill="#3f3f3f" d="M26.397 8.679l-1.883 6.115h-4.732l-0.73 0.557-2.565 10.614h-7.127l1.333-3.963 0.101-0.387-2.916 2.213 4.037-5.867 0.95-3.167h-6.448l1.865-6.115h8.703l3.309-2.119-1.349 2.119h7.453z"></path>
<path fill="#ffe81c" d="M23.857 13.879l1.339-4.117h-5.957l-1.642 2.686 3.748 1.414 2.512 0.017z"></path>
<path fill="#ffe81c" d="M10.842 20.714l8.487-6.432-3.748-1.576 0.229-0.372 2.238-3.508 0.017-0.035-6.431 4.121 3.366 1.757-4.159 6.045z"></path>
<path fill="#ffe81c" d="M15.603 24.772l1.9-7.257-5.644 4.396-0.915 2.857 4.659 0.004z"></path>
<path fill="#ffe81c" d="M9.253 13.026l5.091-3.25-5.459-0.014-1.264 4.096 3.636 0.021-2.004-0.853z"></path>
</svg>
