<!-- Generated by IcoMoon.io -->
<svg version="1.1" xmlns="http://www.w3.org/2000/svg" viewBox="0 0 32 32">
<title>ttt</title>
<path fill="#5569ff" d="M10.385 30.37h18.989l2.747-4.921h-18.959z"></path>
<path fill="#5569ff" d="M28.77 19.502h-5.525l-2.747 4.891h5.494z"></path>
<path fill="#5c00e9" d="M28.77 18.445l-9.479-16.785h-5.525l9.509 16.785z"></path>
<path fill="#00bfe9" d="M0 24.936l2.747 4.86 9.509-16.785-2.777-4.86z"></path>
<path fill="#00bfe9" d="M9.479 29.796l2.777-4.86-2.777-4.891-2.747 4.891z"></path>
<path fill="#5c00e9" d="M10.415 7.608l2.747 4.891h5.525l-2.777-4.891z"></path>
<path fill="#243269" d="M32.121 24.392l-2.445-4.317-2.445 4.317z"></path>
<path fill="#243269" d="M19.592 23.849l2.747-4.86-2.747-4.891-2.777 4.891z"></path>
<path fill="#243269" d="M10.385 19.502l2.777 4.891h5.525l-2.777-4.891z"></path>
<path fill="#243269" d="M13.162 13.555l-2.777 4.891h5.525l2.747-4.891z"></path>
<path fill="#243269" d="M3.653 30.37h4.921l-2.445-4.347z"></path>
<path fill="#243269" d="M12.86 2.204l-2.475 4.347h4.921z"></path>
</svg>
