<!-- Generated by IcoMoon.io -->
<svg version="1.1" xmlns="http://www.w3.org/2000/svg" viewBox="0 0 32 32">
<title>tusd</title>
<path fill="#002868" d="M16 32v0c-8.8 0-16-7.2-16-16v0c0-8.8 7.2-16 16-16v0c8.8 0 16 7.2 16 16v0c0 8.8-7.2 16-16 16z"></path>
<path fill="#fff" d="M24.064 25.6h-16.128c-0.845 0-1.536-0.691-1.536-1.536v-16.128c0-0.845 0.691-1.536 1.536-1.536h16.128c0.845 0 1.536 0.691 1.536 1.536v16.128c0 0.845-0.691 1.536-1.536 1.536z"></path>
<path fill="#002868" d="M10.147 23.667c-0.051 0-0.092-0.046-0.092-0.097v-2.58c0-0.051-0.041-0.097-0.092-0.097h-0.911c-0.051 0-0.097-0.041-0.097-0.092v-0.499c0-0.051 0.046-0.097 0.097-0.097h2.803c0.051 0 0.097 0.045 0.097 0.097v0.499c0 0.051-0.046 0.092-0.097 0.092h-0.906c-0.051 0-0.097 0.045-0.097 0.097v2.58c0 0.051-0.041 0.097-0.092 0.097h-0.616z"></path>
<path fill="#002868" d="M14.751 20.304c0-0.051 0.041-0.097 0.092-0.097h0.611c0.051 0 0.097 0.045 0.097 0.097v1.761c0 1.043-0.59 1.649-1.526 1.649-0.931 0-1.516-0.605-1.516-1.649v-1.761c0-0.051 0.041-0.097 0.092-0.097h0.611c0.051 0 0.097 0.045 0.097 0.097v1.786c0 0.514 0.264 0.88 0.723 0.88s0.723-0.366 0.723-0.88v-1.786z"></path>
<path fill="#002868" d="M18.353 21.337c-0.081 0-0.107-0.031-0.138-0.092-0.107-0.25-0.341-0.407-0.697-0.407-0.321 0-0.59 0.112-0.59 0.326 0 0.234 0.25 0.331 0.799 0.397 0.835 0.097 1.313 0.351 1.313 1.012 0 0.743-0.652 1.135-1.485 1.135-0.723 0-1.343-0.351-1.44-1.089-0.010-0.071 0.026-0.097 0.097-0.097h0.56c0.071 0 0.112 0.031 0.132 0.086 0.076 0.244 0.336 0.433 0.712 0.433 0.331 0 0.621-0.122 0.621-0.381 0-0.31-0.305-0.366-0.916-0.443-0.702-0.092-1.19-0.295-1.19-0.941s0.555-1.109 1.425-1.109c0.783 0 1.328 0.422 1.44 1.053 0.015 0.071-0.005 0.117-0.081 0.117h-0.561z"></path>
<path fill="#002868" d="M19.732 23.667c-0.051 0-0.092-0.046-0.092-0.097v-3.267c0-0.051 0.041-0.097 0.092-0.097h1.384c1.028 0 1.827 0.707 1.827 1.74 0 1.018-0.788 1.72-1.827 1.72h-1.384zM21.116 22.98c0.555 0 0.987-0.438 0.987-1.043s-0.433-1.043-0.992-1.043h-0.575c-0.051 0-0.092 0.045-0.092 0.097v1.898c0 0.051 0.041 0.092 0.092 0.092h0.58z"></path>
<path fill="#002868" d="M25.088 18.304h-18.176c-0.141 0-0.256-0.115-0.256-0.256v-10.112c0-0.704 0.576-1.28 1.28-1.28h16.128c0.704 0 1.28 0.576 1.28 1.28v10.112c0 0.141-0.115 0.256-0.256 0.256z"></path>
<path fill="#fff" d="M16.943 16.228h-1.664c-0.106 0-0.192-0.086-0.192-0.192v-7.040c0-0.106 0.086-0.192 0.192-0.192h1.664c0.106 0 0.192 0.086 0.192 0.192v7.040c0 0.106-0.086 0.192-0.192 0.192z"></path>
<path fill="#fff" d="M19.776 10.852h-7.552c-0.106 0-0.192-0.086-0.192-0.192v-1.664c0-0.106 0.086-0.192 0.192-0.192h7.552c0.106 0 0.192 0.086 0.192 0.192v1.664c0 0.106-0.086 0.192-0.192 0.192z"></path>
</svg>
