<!-- Generated by IcoMoon.io -->
<svg version="1.1" xmlns="http://www.w3.org/2000/svg" viewBox="0 0 32 32">
<title>uma</title>
<path fill="#ff4a4a" d="M20.505 19.991h-1.355c-0.251 0-0.464-0.201-0.464-0.464v-3.564l-2.372 1.481c-0.201 0.125-0.452 0.125-0.653 0l-2.359-1.481v3.564c0 0.251-0.201 0.464-0.464 0.464h-1.343c-0.251 0-0.464-0.201-0.464-0.464v0-6.877c0-0.339 0.276-0.615 0.615-0.615 0.126 0 0.238 0.038 0.339 0.113l3.74 2.573c0.151 0.113 0.364 0.113 0.515 0l3.74-2.573c0.276-0.188 0.665-0.113 0.853 0.163 0.075 0.1 0.1 0.226 0.113 0.339v6.877c0.013 0.251-0.188 0.464-0.439 0.464 0 0 0 0 0 0z"></path>
<path fill="#ff4a4a" d="M9.010 19.978h-8.408c-0.339 0-0.615-0.276-0.615-0.615 0 0 0 0 0 0v-6.915c0.013-0.264 0.213-0.464 0.477-0.464h1.355c0.251 0 0.464 0.201 0.464 0.464v0 5.258h5.095v-5.258c0-0.251 0.201-0.464 0.464-0.464h1.318c0.251 0 0.464 0.201 0.464 0.464v6.915c0 0.339-0.276 0.615-0.615 0.615v0z"></path>
<path fill="#ff4a4a" d="M22.99 11.984h8.408c0.339 0 0.615 0.276 0.615 0.615v6.915c0 0.251-0.201 0.464-0.452 0.464 0 0 0 0 0 0h-1.355c-0.251 0-0.464-0.201-0.464-0.464 0 0 0 0 0 0v-4.957c0-0.163-0.138-0.301-0.301-0.301v0h-4.48c-0.163 0-0.301 0.138-0.301 0.301 0 0 0 0 0 0v4.957c0 0.251-0.201 0.464-0.464 0.464h-1.355c-0.251 0-0.464-0.201-0.464-0.464 0 0 0 0 0 0v-6.915c0-0.339 0.276-0.615 0.615-0.615 0 0 0 0 0 0v0z"></path>
<path fill="#ff4a4a" d="M26.516 15.711h1.343c0.251 0 0.464 0.201 0.464 0.464v1.368c0 0.251-0.201 0.464-0.464 0.464h-1.343c-0.251 0-0.464-0.201-0.464-0.464v-1.38c0-0.251 0.213-0.452 0.464-0.452z"></path>
</svg>
