<!-- Generated by IcoMoon.io -->
<svg version="1.1" xmlns="http://www.w3.org/2000/svg" viewBox="0 0 32 32">
<title>uqc</title>
<path fill="#e85c50" d="M10.608 0.663c0.027 0.011 0.044 0.033 0.038 0.060 0 0.055 0 0.104 0 0.159v19.348c0 0.066-0.005 0.126-0.005 0.192 0.027 0.055 0.077 0.027 0.11 0.027 3.474 0 6.948 0 10.427 0.005 0.11 0 0.159-0.027 0.142-0.142 0-0.038 0-0.071 0-0.11 0-6.444 0-12.882 0-19.326 0-0.066-0.038-0.153 0.044-0.203 0.027-0.022 0.071-0.016 0.093 0.011 0 0 0 0.005 0.005 0.005 0.027 0.038 0.055 0.077 0.077 0.121 0.395 0.784 0.8 1.573 1.189 2.356 0.323 0.658 0.652 1.315 0.975 1.967 0.362 0.723 0.729 1.452 1.090 2.175 0.329 0.652 0.652 1.31 0.975 1.962 0.29 0.592 0.592 1.173 0.877 1.764 0.044 0.088 0.11 0.159 0.137 0.252 0.016 0.11 0.016 0.225 0.011 0.334v18.849c0 0.055 0 0.104 0 0.159 0 0.208 0 0.208 0.203 0.247 0.027 0.005 0.049 0.016 0.071 0.038-0.137 0.066-0.279 0.088-0.427 0.121-0.647 0.153-1.299 0.252-1.962 0.301-0.307 0.022-0.614 0.027-0.921 0.033-1.584 0.027-3.173 0.016-4.756 0.016-2.751 0-5.507 0-8.263-0.005-0.055 0-0.115 0.016-0.17-0.016 0.016-0.011 0.033-0.027 0.055-0.033 0.099-0.022 0.197-0.027 0.301-0.022h10.077c0.088 0.005 0.181 0 0.268-0.011 0.082-0.038 0.049-0.11 0.055-0.17 0-2.236 0-4.477 0-6.712v-3.501c-0.005-0.071 0-0.142 0.005-0.214-0.082 0.258-0.219 0.499-0.34 0.745-0.444 0.926-0.877 1.858-1.321 2.789-0.241 0.51-0.482 1.014-0.723 1.523-0.033 0.071-0.066 0.148-0.142 0.186-0.077 0.022-0.159 0.027-0.236 0.022h-5.184c-0.071 0.005-0.137 0-0.208-0.016-0.104-0.033-0.137-0.126-0.175-0.214-0.301-0.641-0.608-1.282-0.91-1.929-0.329-0.696-0.658-1.386-0.986-2.082-0.159-0.329-0.307-0.663-0.482-1.008 0 0.093 0 0.17 0 0.247 0 3.364 0 6.723 0 10.088 0 0.104 0.027 0.214-0.049 0.307-0.055 0-0.104 0.011-0.159 0.011-0.784 0-1.567 0-2.351 0-0.203 0-0.4-0.011-0.603-0.016-0.038 0-0.077 0.005-0.104-0.022 0.038-0.033 0.082-0.016 0.121-0.016 0.959 0 1.918 0 2.877 0 0.038 0 0.071-0.005 0.082 0-0.953 0-1.929 0-2.91 0-0.055 0-0.115-0.022-0.17 0.022-0.241 0.011-0.488-0.022-0.729-0.049-0.471-0.044-0.931-0.142-1.392-0.219-0.016-0.005-0.027-0.011-0.044-0.022 0.055-0.121 0.049-0.247 0.049-0.373 0-6.323 0-12.647 0-18.97-0.005-0.11 0-0.225 0.011-0.334 0.027-0.115 0.071-0.225 0.126-0.323 0.329-0.652 0.658-1.304 0.981-1.962 1.195-2.449 2.427-4.877 3.638-7.315 0.153-0.307 0.307-0.603 0.455-0.91 0.022-0.049 0.038-0.153 0.137-0.066 0 6.049 0 12.099 0 18.148 0 0.471 0 0.942 0 1.419 0-6.471 0-12.937 0-19.408-0.005-0.104-0.038-0.197 0.016-0.29z"></path>
<path fill="#cf3339" d="M5.288 11.299c0 6.499 0 12.997 0 19.49 0 0.055 0 0.104 0 0.159 0.005 0.077-0.044 0.088-0.099 0.093-0.784-0.181-1.545-0.422-2.258-0.789-0.395-0.203-0.778-0.416-1.118-0.696-0.942-0.773-1.6-1.721-1.742-2.964 0-0.044 0-0.082 0-0.126-0.016-0.055-0.022-0.115-0.011-0.175 0-8.433 0-16.86 0-25.293-0.005-0.060 0-0.115 0.011-0.175 0.077 0.005 0.093 0.071 0.115 0.121 0.29 0.592 0.581 1.178 0.877 1.764 0.356 0.707 0.712 1.408 1.063 2.121 0.329 0.658 0.663 1.315 0.986 1.978 0.203 0.416 0.416 0.827 0.619 1.238 0.192 0.378 0.384 0.756 0.57 1.14 0.219 0.46 0.449 0.915 0.685 1.364 0.104 0.192 0.181 0.395 0.279 0.592 0.033 0.044 0.038 0.104 0.022 0.159z"></path>
<path fill="#cf3339" d="M27.069 30.915c-0.077-0.005-0.148 0.005-0.219 0.027-0.060 0.011-0.104-0.005-0.104-0.082 0-0.038 0-0.071 0-0.11v-19.512c-0.049-0.088 0.016-0.153 0.049-0.219 0.526-1.025 1.047-2.055 1.562-3.090 0.011-0.022 0.027-0.049 0.044-0.071 0.005-0.011 0.011-0.022 0.016-0.033 0.011-0.016 0.016-0.033 0.027-0.049s0.011-0.022 0.016-0.033c0.016-0.033 0.033-0.071 0.049-0.104 0.005-0.011 0.016-0.027 0.022-0.038 0.274-0.515 0.526-1.041 0.789-1.567 0.142-0.274 0.274-0.548 0.411-0.827 0.126-0.247 0.247-0.488 0.367-0.734 0.011-0.016 0.016-0.033 0.027-0.044 0.405-0.789 0.789-1.589 1.195-2.373 0.17-0.323 0.334-0.652 0.504-0.975 0.027-0.060 0.049-0.131 0.137-0.148 0.033 0.066 0.016 0.131 0.016 0.197 0 5.008 0 10.016 0 15.019 0 3.326 0 6.652 0 9.978 0.005 0.066 0.005 0.126-0.011 0.192 0.022 0.23-0.066 0.438-0.121 0.652-0.175 0.679-0.548 1.244-1.008 1.759-0.345 0.4-0.745 0.756-1.189 1.047-0.559 0.367-1.162 0.669-1.792 0.899-0.252 0.088-0.521 0.175-0.789 0.241z"></path>
<path fill="#e33936" d="M5.288 11.299c-0.011-0.055-0.027-0.104-0.060-0.148-0.148-0.312-0.312-0.614-0.455-0.926-0.142-0.301-0.318-0.586-0.449-0.893-0.121-0.285-0.29-0.542-0.411-0.822-0.153-0.356-0.367-0.679-0.51-1.041-0.055-0.142-0.148-0.269-0.214-0.405-0.104-0.208-0.186-0.427-0.301-0.63-0.225-0.395-0.405-0.816-0.614-1.216-0.137-0.263-0.279-0.521-0.4-0.795-0.131-0.296-0.307-0.57-0.433-0.866-0.153-0.362-0.367-0.69-0.521-1.052-0.071-0.175-0.186-0.334-0.263-0.51-0.175-0.384-0.4-0.745-0.592-1.134v25.414c0 0.066 0 0.126 0 0.192-0.055-0.175-0.038-0.356-0.038-0.537-0.005-2.247-0.005-4.499 0-6.745v-18.044c0.005-0.159 0-0.318-0.016-0.477 0.049-0.016 0.104-0.022 0.153-0.011 3.414 0 6.833 0 10.247 0h0.093c0.115 0 0.071 0.060 0.038 0.11l-2.077 4.137c-0.433 0.866-0.866 1.726-1.293 2.592-0.159 0.318-0.307 0.641-0.466 0.959-0.438 0.877-0.877 1.753-1.315 2.63l-0.104 0.219z"></path>
<path fill="#e33936" d="M28.4 7.896c-0.005 0.044-0.022 0.082-0.044 0.115-0.345 0.696-0.69 1.397-1.047 2.088-0.17 0.329-0.334 0.658-0.504 0.992-0.027 0.044-0.049 0.093-0.060 0.148-0.060 0-0.077-0.055-0.093-0.093-0.071-0.137-0.126-0.279-0.197-0.416-0.082-0.164-0.175-0.329-0.258-0.493-0.153-0.301-0.312-0.603-0.455-0.91-0.148-0.323-0.334-0.625-0.477-0.953-0.153-0.351-0.356-0.674-0.504-1.025-0.082-0.192-0.197-0.373-0.29-0.564-0.148-0.296-0.307-0.592-0.444-0.893-0.159-0.345-0.356-0.674-0.504-1.025-0.082-0.192-0.203-0.373-0.29-0.564-0.164-0.367-0.373-0.712-0.532-1.085-0.082-0.192-0.197-0.373-0.29-0.564-0.301-0.608-0.608-1.211-0.91-1.819-0.033-0.049-0.055-0.104-0.066-0.159l0.027-0.016c2.077-0.005 4.153 0 6.236 0 1.381 0 2.756 0 4.137 0 0.055 0 0.115-0.016 0.17 0.016 0.005 0.044 0.055 0.082 0.005 0.131-0.153 0.181-0.225 0.405-0.329 0.608-0.526 1.019-1.036 2.049-1.551 3.079v0c-0.131 0.241-0.258 0.488-0.373 0.734-0.142 0.274-0.279 0.548-0.416 0.827-0.274 0.526-0.526 1.069-0.805 1.589v0c-0.027 0.038-0.049 0.082-0.066 0.126v0c-0.022 0.016-0.016 0.049-0.033 0.066v0c-0.027 0.011-0.022 0.044-0.038 0.060z"></path>
<path fill="#e34c37" d="M30.121 4.488c0.082-0.285 0.236-0.542 0.378-0.8 0.049-0.088 0.082-0.181 0.126-0.274 0.192-0.373 0.373-0.745 0.559-1.118 0.148-0.29 0.285-0.586 0.438-0.877 0.104-0.192 0.192-0.384 0.29-0.581 0.022-0.044 0.038-0.077 0.093-0.044 0 1.030 0 2.060 0 3.085 0 7.332 0 14.663 0 21.995 0 0.142 0.011 0.285-0.027 0.427 0-0.055-0.005-0.104-0.005-0.159v-25.189c-0.049 0.005-0.055 0.044-0.066 0.077-0.055 0.104-0.104 0.208-0.159 0.312-0.521 1.003-1.025 2.011-1.529 3.025-0.027 0.044-0.044 0.099-0.099 0.121z"></path>
<path fill="#e9654c" d="M21.43 0.668c-0.066 0.011-0.11 0.071-0.099 0.137 0 0 0 0.005 0 0.005 0 0.044 0 0.082 0 0.126 0 6.433 0 12.871 0 19.304 0 0.252 0.027 0.23-0.23 0.23-3.419 0-6.844 0-10.263 0-0.066 0-0.148 0.038-0.203-0.044 0.055 0.022 0.115 0.027 0.17 0.022h10.334c0.022 0 0.044 0 0.066 0 0.077 0.005 0.11-0.022 0.104-0.099-0.005-0.049 0-0.093 0-0.142v-19.331c0-0.038 0-0.071 0-0.11-0.011-0.093 0.038-0.126 0.121-0.121v0.022z"></path>
<path fill="#e7563d" d="M10.537 0.767c0-0.044 0.038-0.104-0.055-0.093-0.044 0-0.088 0-0.126 0h-10.356c0.044-0.060 0.11-0.027 0.159-0.027 0.729-0.005 1.452 0 2.175 0 2.685 0 5.375 0 8.060 0 0.066 0 0.137-0.022 0.203 0.027 0 2.208 0 4.416 0 6.619v13.112c-0.049-0.022-0.027-0.060-0.033-0.088 0-0.038 0-0.071 0-0.11 0-6.405 0-12.816 0-19.227 0.005-0.077 0.033-0.153-0.027-0.214z"></path>
<path fill="#e85c50" d="M21.43 0.668c0-0.005 0-0.016 0-0.022 0.060-0.005 0.115-0.011 0.175-0.011 3.408 0 6.811 0 10.219 0 0.060 0 0.126-0.027 0.175 0.027l-10.57 0.005z"></path>
<path fill="#cf3339" d="M21.331 31.353c-0.071 0-0.137 0-0.208 0h-10.329c-0.066 0-0.126-0.005-0.192-0.005-0.011-0.066 0-0.126 0.033-0.186 0.274-0.575 0.542-1.151 0.816-1.726 0.542-1.134 1.074-2.274 1.616-3.403 0.016-0.044 0.044-0.088 0.077-0.115h5.666c0.137 0.241 0.247 0.493 0.362 0.74 0.219 0.477 0.449 0.948 0.674 1.425 0.482 1.014 0.964 2.033 1.441 3.047 0.044 0.071 0.060 0.148 0.044 0.225z"></path>
<path fill="#e33937" d="M13.151 25.918c-0.022 0.093-0.055 0.181-0.104 0.268-0.263 0.548-0.531 1.096-0.789 1.644-0.175 0.373-0.351 0.745-0.526 1.118-0.203 0.433-0.405 0.86-0.614 1.288-0.153 0.318-0.301 0.641-0.449 0.964-0.022 0.049-0.038 0.099-0.060 0.148l-0.038 0.011c0-0.071 0-0.137 0-0.208v-10.575c0.049 0.033 0.088 0.082 0.104 0.137 0.104 0.23 0.208 0.466 0.318 0.69 0.17 0.356 0.345 0.707 0.51 1.058 0.29 0.625 0.586 1.244 0.882 1.863 0.175 0.367 0.345 0.74 0.526 1.107 0.077 0.164 0.132 0.34 0.241 0.488z"></path>
<path fill="#e33937" d="M21.331 31.353c-0.038-0.192-0.148-0.351-0.219-0.526-0.093-0.225-0.203-0.438-0.312-0.663-0.247-0.515-0.499-1.030-0.74-1.545-0.197-0.416-0.395-0.833-0.592-1.249-0.214-0.438-0.411-0.882-0.619-1.321-0.022-0.044-0.038-0.088-0.038-0.137 0.318-0.669 0.641-1.337 0.953-2.011 0.186-0.395 0.373-0.784 0.559-1.178 0.208-0.438 0.411-0.871 0.619-1.304 0.11-0.23 0.214-0.46 0.318-0.69 0.016-0.055 0.049-0.11 0.099-0.148v0.164c0 3.474 0 6.953 0 10.427 0.005 0.066 0.027 0.131-0.027 0.181z"></path>
<path fill="#e75840" d="M7.348 31.331c0.033-0.044 0.088-0.038 0.131-0.038h2.975c0.022 0 0.044 0.005 0.066 0.011-0.060 0.022-0.121 0.027-0.181 0.016h-2.849c-0.044 0.005-0.093 0.011-0.142 0.011v0z"></path>
<path fill="#e04437" d="M28.526 7.638c0.005-0.038 0.016-0.071 0.038-0.104 0.236-0.471 0.471-0.942 0.707-1.414 0.011-0.033 0.027-0.055 0.055-0.077 0.011-0.016 0.022-0.016 0.033 0-0.241 0.488-0.488 0.97-0.729 1.458-0.027 0.049-0.044 0.115-0.104 0.137z"></path>
<path fill="#e24837" d="M29.353 6.049h-0.033c0.066-0.197 0.181-0.378 0.268-0.57 0.044-0.088 0.071-0.186 0.142-0.258 0.011-0.016 0.022-0.016 0.033 0l-0.411 0.827z"></path>
<path fill="#e34c37" d="M29.77 5.222h-0.033c0.104-0.258 0.214-0.51 0.384-0.734 0.005 0.033-0.005 0.066-0.016 0.093-0.131 0.203-0.225 0.427-0.334 0.641z"></path>
<path fill="#e04437" d="M28.466 7.764c-0.011-0.055 0.016-0.104 0.066-0.126-0.005 0.049-0.027 0.099-0.066 0.126z"></path>
<path fill="#e04437" d="M28.433 7.836c-0.005-0.027 0.011-0.049 0.033-0.066 0 0.027-0.011 0.049-0.033 0.066z"></path>
<path fill="#e04437" d="M28.4 7.896c-0.005-0.027 0.011-0.049 0.033-0.066 0 0.027-0.011 0.049-0.033 0.066z"></path>
</svg>
