<!-- Generated by IcoMoon.io -->
<svg version="1.1" xmlns="http://www.w3.org/2000/svg" viewBox="0 0 32 32">
<title>usdc</title>
<path fill="#2775ca" d="M16 32c8.867 0 16-7.133 16-16s-7.133-16-16-16-16 7.133-16 16 7.133 16 16 16z"></path>
<path fill="#fff" d="M20.4 18.533c0-2.333-1.4-3.133-4.2-3.467-2-0.267-2.4-0.8-2.4-1.733s0.667-1.533 2-1.533c1.2 0 1.867 0.4 2.2 1.4 0.067 0.2 0.267 0.333 0.467 0.333h1.067c0.267 0 0.467-0.2 0.467-0.467v-0.067c-0.267-1.467-1.467-2.6-3-2.733v-1.6c0-0.267-0.2-0.467-0.533-0.533h-1c-0.267 0-0.467 0.2-0.533 0.533v1.533c-2 0.267-3.267 1.6-3.267 3.267 0 2.2 1.333 3.067 4.133 3.4 1.867 0.333 2.467 0.733 2.467 1.8s-0.933 1.8-2.2 1.8c-1.733 0-2.333-0.733-2.533-1.733-0.067-0.267-0.267-0.4-0.467-0.4h-1.133c-0.267 0-0.467 0.2-0.467 0.467v0.067c0.267 1.667 1.333 2.867 3.533 3.2v1.6c0 0.267 0.2 0.467 0.533 0.533h1c0.267 0 0.467-0.2 0.533-0.533v-1.6c2-0.333 3.333-1.733 3.333-3.533z"></path>
<path fill="#fff" d="M12.6 25.533c-5.2-1.867-7.867-7.667-5.933-12.8 1-2.8 3.2-4.933 5.933-5.933 0.267-0.133 0.4-0.333 0.4-0.667v-0.933c0-0.267-0.133-0.467-0.4-0.533-0.067 0-0.2 0-0.267 0.067-6.333 2-9.8 8.733-7.8 15.067 1.2 3.733 4.067 6.6 7.8 7.8 0.267 0.133 0.533 0 0.6-0.267 0.067-0.067 0.067-0.133 0.067-0.267v-0.933c0-0.2-0.2-0.467-0.4-0.6zM19.667 4.733c-0.267-0.133-0.533 0-0.6 0.267-0.067 0.067-0.067 0.133-0.067 0.267v0.933c0 0.267 0.2 0.533 0.4 0.667 5.2 1.867 7.867 7.667 5.933 12.8-1 2.8-3.2 4.933-5.933 5.933-0.267 0.133-0.4 0.333-0.4 0.667v0.933c0 0.267 0.133 0.467 0.4 0.533 0.067 0 0.2 0 0.267-0.067 6.333-2 9.8-8.733 7.8-15.067-1.2-3.8-4.133-6.667-7.8-7.867z"></path>
</svg>
