<!-- Generated by IcoMoon.io -->
<svg version="1.1" xmlns="http://www.w3.org/2000/svg" viewBox="0 0 32 32">
<title>usdp</title>
<path fill="#0293d6" d="M7.273 27.38c1.864 2.116 4.52 3.497 7.499 3.678l0.030 0.001c1.785-0.098 3.373-0.865 4.533-2.052l0.001-0.001c2.207-1.901 4.634-3.757 7.166-5.47l0.278-0.177 1.455-0.599c0.599-0.257 1.626-0.856 2.567-1.968 1.027-1.369 1.198-2.824 1.198-3.337-0.123-1.702-0.681-3.253-1.562-4.569l0.021 0.034c-4.704 8.267-13.231 13.887-23.111 14.456l-0.076 0.003z"></path>
<path fill="#ebe638" d="M10.524 3.080c1.248-1.317 3.010-2.137 4.962-2.139h0c0.089-0.006 0.193-0.010 0.297-0.010 1.136 0 2.172 0.426 2.959 1.126l-0.004-0.004c2.334 1.671 5.236 2.69 8.373 2.738l0.012 0c0.77 0.086 2.31 0.342 3.337 1.626 0.77 1.027 0.856 2.139 0.856 2.652-0.075 1.405-0.383 2.717-0.885 3.929l0.029-0.079-19.936-9.84z"></path>
<path fill="#bad147" d="M7.273 27.38c-0.77-0.086-1.797-0.342-2.995-0.856s-2.652-1.112-3.594-2.738c-0.599-1.027-0.684-2.053-0.684-2.738 0.023-1.908 0.494-3.701 1.314-5.285l-0.031 0.066c0.768-1.817 1.339-3.926 1.614-6.128l0.012-0.118 0.428-1.711c0.257-0.856 0.428-1.711 1.027-2.567l0.941-1.027c1.227-0.782 2.722-1.247 4.326-1.247 0.315 0 0.625 0.018 0.93 0.053l-0.037-0.003c-3.013 4.263-4.816 9.569-4.816 15.295 0 3.229 0.573 6.325 1.624 9.19l-0.059-0.185z"></path>
<path fill="#78b650" d="M10.524 3.080c-0.086 0 4.62 0.257 7.529 1.283l2.396 1.027c-0.941-0.086-6.93-0.342-11.465 4.193-5.733 5.818-3.85 13.775-3.765 14.203-1.181-1.476-1.895-3.37-1.895-5.43 0-0.167 0.005-0.332 0.014-0.496l-0.001 0.023c0.243-5.934 2.969-11.186 7.16-14.779l0.028-0.023z"></path>
<path fill="#2f8260" d="M21.989 24.214c1.334-2.38 2.119-5.222 2.119-8.248 0-4.008-1.378-7.695-3.686-10.611l0.027 0.036c2.574 0.441 4.807 1.667 6.499 3.419l0.003 0.003c1.027 0.856 2.31 2.139 3.508 4.107-1.764 4.602-4.682 8.43-8.407 11.248l-0.063 0.046z"></path>
<path fill="#085229" d="M24.727 9.155c-1.369-2.31-3.337-3.337-4.192-3.765-0.684-0.171-7.102-1.198-11.979 3.508-3.936 3.765-4.192 8.642-4.192 9.583 0.020 3.371 1.176 6.467 3.104 8.93l-0.024-0.032c1.158 0.234 2.488 0.367 3.85 0.367s2.693-0.134 3.98-0.389l-0.129 0.021c1.283-0.257 4.278-0.77 6.845-2.995 0.342-0.342 4.107-3.85 4.364-9.412 0-0.941 0-3.337-1.626-5.818zM21.647 21.561c-1.553 1.686-3.772 2.738-6.236 2.738-0.004 0-0.007 0-0.011 0h0.001c-0.513 0-3.936-0.086-6.332-2.909-0.342-0.428-2.053-2.481-1.968-5.561 0.171-4.107 3.422-6.503 4.107-7.016 0.599-0.428 2.053-1.369 4.192-1.455 0.513-0.086 2.31-0.171 4.107 0.856 3.936 2.139 4.107 7.273 4.107 7.615 0 0.941 0 3.508-1.968 5.733z"></path>
</svg>
