<!-- Generated by IcoMoon.io -->
<svg version="1.1" xmlns="http://www.w3.org/2000/svg" viewBox="0 0 32 32">
<title>usdt</title>
<path fill="#50af95" d="M5.867 2.214l-5.842 12.271c-0.015 0.030-0.024 0.066-0.024 0.104 0 0.068 0.029 0.13 0.075 0.173l0 0 15.778 15.119c0.043 0.041 0.102 0.067 0.167 0.067s0.123-0.026 0.167-0.067l-0 0 15.778-15.118c0.046-0.043 0.075-0.105 0.075-0.173 0-0.038-0.009-0.074-0.025-0.106l0.001 0.001-5.842-12.271c-0.038-0.082-0.12-0.138-0.215-0.138-0 0-0 0-0.001 0h-19.875c-0.001 0-0.002-0-0.003-0-0.094 0-0.176 0.055-0.214 0.135l-0.001 0.001z"></path>
<path fill="#fff" d="M18.047 15.745v0c-0.113 0.008-0.699 0.043-2.004 0.043-1.038 0-1.776-0.031-2.034-0.043v0c-4.013-0.177-7.008-0.875-7.008-1.711s2.995-1.534 7.008-1.713v2.729c0.262 0.019 1.014 0.063 2.052 0.063 1.246 0 1.87-0.052 1.982-0.062v-2.728c4.004 0.178 6.993 0.877 6.993 1.711s-2.988 1.533-6.993 1.71v0zM18.047 12.040v-2.442h5.588v-3.724h-15.215v3.724h5.587v2.441c-4.541 0.209-7.957 1.108-7.957 2.186s3.415 1.977 7.957 2.186v7.825h4.038v-7.828c4.531-0.209 7.941-1.107 7.941-2.184s-3.407-1.976-7.941-2.185v0zM18.047 12.040v0z"></path>
</svg>
