<!-- Generated by IcoMoon.io -->
<svg version="1.1" xmlns="http://www.w3.org/2000/svg" viewBox="0 0 32 32">
<title>veil</title>
<path d="M27.051 10.779v0l4.988-8.641c-1.244 0.155-2.462 0.531-3.589 1.088-0.959 1.879-0.985 3.77-2.138 5.454-4.055 5.96-10.87 7.812-16.842 3.9-3.433-2.241-5.493-8.045-5.882-9.354-1.127-0.557-2.345-0.933-3.589-1.088 1.658 2.876 3.33 5.765 4.988 8.641 6.076 2.138 10.118 9.509 10.999 15.158 0.777-6.517 5.377-12.632 11.064-15.158z"></path>
<path d="M27.051 10.779c-8.304 2.254-13.228 10.792-11.025 19.109v0l11.025-19.109z"></path>
<path d="M4.988 10.779l11.025 19.109c2.202-8.317-2.721-16.842-11.025-19.109z"></path>
<path d="M26.623 8.758c1.036-1.671 1.671-3.563 1.84-5.532-2.708 1.347-4.781 3.718-5.739 6.581-2.151 6.439-11.245 6.439-13.396 0-0.972-2.863-3.032-5.234-5.739-6.568 0.583 6.866 6.62 11.958 13.487 11.375 3.925-0.337 7.462-2.5 9.548-5.856v0z"></path>
</svg>
