<!-- Generated by IcoMoon.io -->
<svg version="1.1" xmlns="http://www.w3.org/2000/svg" viewBox="0 0 32 32">
<title>vet</title>
<path fill="#000" d="M13.757 29.744l-13.686-27.877c-0.222-0.445 0.112-0.971 0.605-0.971h4.742c0.254 0 0.493 0.144 0.605 0.366l9.995 20.224c0.891 1.814 3.469 1.814 4.36 0l9.963-20.208c0.112-0.222 0.35-0.366 0.605-0.366h0.589c0.35 0 0.573 0.366 0.414 0.669l-13.83 28.163c-0.891 1.813-3.47 1.813-4.362 0z"></path>
<path fill="#fff" opacity="0.1" d="M13.757 29.744l-7.734-28.466c-0.112-0.238-0.366-0.366-0.573-0.366h-4.758c-0.525 0-0.827 0.525-0.621 0.971z"></path>
<path fill="#fff" opacity="0.1" d="M16.017 21.501l-15.947-19.634c-0.19-0.461 0.096-0.923 0.541-0.971h4.822c0.27 0.016 0.477 0.19 0.573 0.366z"></path>
</svg>
