<!-- Generated by IcoMoon.io -->
<svg version="1.1" xmlns="http://www.w3.org/2000/svg" viewBox="0 0 32 32">
<title>vsp</title>
<path fill="#4138ac" d="M16 0c-8.836 0-16 7.164-16 16s7.164 16 16 16c8.833-0.011 15.989-7.169 16-16 0-8.836-7.164-16-16-16z"></path>
<path fill="#4138ac" d="M32 16c0 8.837-7.163 16-16 16s-16-7.163-16-16c0-8.837 7.163-16 16-16s16 7.163 16 16z"></path>
<path fill="#fff" d="M20.88 8.962l-3.758 11.609-3.761-11.609h-7.121l1.109 3.141h3.301l4.765 13.492h3.414l5.874-16.633h-3.822z"></path>
</svg>
