<!-- Generated by IcoMoon.io -->
<svg version="1.1" xmlns="http://www.w3.org/2000/svg" viewBox="0 0 32 32">
<title>vsys</title>
<path fill="#ff8836" d="M0.286 3.088h9.162c0.002-0 0.004-0 0.005-0 0.049 0 0.096 0.013 0.136 0.034l-0.002-0.001c0.042 0.023 0.076 0.056 0.1 0.094l0.001 0.001 11.155 17.836c0.029 0.043 0.046 0.095 0.046 0.152s-0.017 0.109-0.046 0.153l0.001-0.001-4.564 7.281c-0.025 0.040-0.059 0.072-0.1 0.095l-0.001 0.001c-0.040 0.022-0.087 0.035-0.138 0.035s-0.098-0.013-0.139-0.036l0.001 0.001c-0.042-0.023-0.076-0.056-0.1-0.094l-0.001-0.001-15.759-25.117c-0.026-0.040-0.043-0.088-0.045-0.14l-0-0.001c-0-0.004-0-0.008-0-0.012 0-0.049 0.013-0.095 0.035-0.135l-0.001 0.001c0.026-0.045 0.062-0.081 0.105-0.106l0.001-0.001c0.041-0.025 0.090-0.039 0.143-0.039 0.001 0 0.002 0 0.003 0h-0zM19.492 3.088h12.272c0.001 0 0.002 0 0.003 0 0.053 0 0.102 0.015 0.145 0.040l-0.001-0.001c0.038 0.027 0.069 0.063 0.089 0.105l0.001 0.002c0.021 0.039 0.034 0.086 0.034 0.135 0 0.004-0 0.008-0 0.011l0-0.001c0 0.002 0 0.004 0 0.007 0 0.049-0.013 0.095-0.035 0.135l0.001-0.001-6.131 9.791c-0.025 0.040-0.059 0.072-0.1 0.095l-0.001 0.001c-0.040 0.022-0.087 0.035-0.138 0.035s-0.098-0.013-0.139-0.036l0.001 0.001c-0.042-0.023-0.076-0.056-0.1-0.094l-0.001-0.001-6.136-9.791c-0.026-0.040-0.043-0.088-0.045-0.14l-0-0.001c-0-0.004-0-0.008-0-0.012 0-0.049 0.013-0.095 0.035-0.135l-0.001 0.001c0.026-0.045 0.062-0.081 0.105-0.106l0.001-0.001c0.040-0.024 0.088-0.039 0.14-0.039h0z"></path>
</svg>
