<!-- Generated by IcoMoon.io -->
<svg version="1.1" xmlns="http://www.w3.org/2000/svg" viewBox="0 0 32 32">
<title>vtc</title>
<path fill="#048657" d="M27.114 4.596q-0.138-0.133-0.279-0.26l-11.051 15.462-4.223-5.441h-6.873l-1.932 2.222h3.594l8.58 11.2q0.43 0.408 0.853 0.408t0.809-0.408l13.567-18.954q-0.118-0.243-0.243-0.482c1.231 2.275 1.93 4.885 1.93 7.66 0 8.838-7.096 16.004-15.849 16.004s-15.848-7.165-15.848-16.004 7.097-16.004 15.849-16.004c4.33 0 8.255 1.754 11.116 4.596z"></path>
<path fill="#fff" d="M2.757 16.579l1.932-2.222h6.873l4.223 5.441 11.051-15.462q0.987 0.894 1.842 2.041c0.534 0.71 1.028 1.512 1.443 2.36l0.039 0.088-13.567 18.953q-0.385 0.408-0.809 0.408t-0.853-0.408l-8.58-11.2z"></path>
</svg>
