<!-- Generated by IcoMoon.io -->
<svg version="1.1" xmlns="http://www.w3.org/2000/svg" viewBox="0 0 32 32">
<title>wbtc</title>
<path fill="#5a5564" d="M26.093 6.716l-0.879 0.879c2.021 2.204 3.259 5.154 3.259 8.394s-1.238 6.19-3.268 8.403l0.008-0.009 0.879 0.879c2.248-2.432 3.626-5.697 3.626-9.283s-1.378-6.851-3.634-9.292l0.008 0.009z"></path>
<path fill="#5a5564" d="M7.615 6.792c2.204-2.021 5.154-3.259 8.394-3.259s6.19 1.238 8.403 3.268l-0.009-0.008 0.879-0.879c-2.432-2.248-5.697-3.626-9.283-3.626s-6.851 1.378-9.292 3.635l0.009-0.008z"></path>
<path fill="#5a5564" d="M6.792 24.391c-2.018-2.204-3.255-5.152-3.255-8.39s1.237-6.186 3.264-8.399l-0.008 0.009-0.879-0.879c-2.248 2.432-3.626 5.697-3.626 9.283s1.378 6.851 3.635 9.292l-0.008-0.009z"></path>
<path fill="#5a5564" d="M24.391 25.202c-2.204 2.021-5.154 3.259-8.394 3.259s-6.19-1.238-8.403-3.268l0.009 0.008-0.879 0.879c2.432 2.248 5.697 3.626 9.283 3.626s6.851-1.378 9.292-3.634l-0.009 0.008z"></path>
<path fill="#f09242" d="M21.547 13.068c-0.176-1.833-1.757-2.448-3.758-2.636v-2.525h-1.546v2.478c-0.407 0-0.823 0-1.236 0v-2.478h-1.535v2.542h-3.137v1.655s1.142-0.021 1.125 0c0.026-0.003 0.057-0.005 0.087-0.005 0.401 0 0.733 0.295 0.791 0.68l0.001 0.004v6.959c-0.009 0.151-0.080 0.285-0.187 0.377l-0.001 0.001c-0.094 0.085-0.22 0.136-0.357 0.136-0.014 0-0.029-0.001-0.043-0.002l0.002 0c0.021 0.018-1.125 0-1.125 0l-0.293 1.848h3.107v2.583h1.546v-2.545h1.236v2.533h1.549v-2.554c2.612-0.158 4.434-0.802 4.663-3.248 0.184-1.968-0.741-2.847-2.22-3.201 0.899-0.442 1.456-1.262 1.33-2.604zM19.38 18.569c0 1.921-3.292 1.702-4.34 1.702v-3.409c1.049 0.003 4.34-0.299 4.34 1.707zM18.662 13.765c0 1.757-2.747 1.543-3.62 1.543v-3.099c0.873 0 3.62-0.275 3.62 1.555z"></path>
<path fill="#282138" d="M15.997 32c-8.835-0.002-15.997-7.164-15.997-16 0-8.837 7.163-16 16-16 8.836 0 15.998 7.162 16 15.997v0c0 0.001 0 0.002 0 0.003 0 8.837-7.163 16-16 16-0.001 0-0.002 0-0.003 0h0zM15.997 1.248c-8.138 0.007-14.732 6.605-14.732 14.744 0 8.143 6.601 14.744 14.744 14.744 8.141 0 14.74-6.598 14.744-14.737v-0c0-0.002 0-0.004 0-0.006 0-8.143-6.601-14.744-14.744-14.744-0.004 0-0.008 0-0.012 0h0.001z"></path>
</svg>
