<!-- Generated by IcoMoon.io -->
<svg version="1.1" xmlns="http://www.w3.org/2000/svg" viewBox="0 0 32 32">
<title>wicc</title>
<path fill="#0432a9" d="M31.405 15.36h-0.036l-1.14-5.507c0.19-0.072 0.324-0.252 0.324-0.464 0-0.272-0.22-0.493-0.492-0.495h-0c-0.092 0-0.178 0.026-0.251 0.071l0.002-0.001-4.487-5.306c0.093-0.089 0.151-0.214 0.151-0.353 0-0.27-0.219-0.488-0.488-0.488-0.131 0-0.249 0.051-0.337 0.135l0-0c-0.039 0.037-0.071 0.080-0.096 0.127l-0.001 0.003-4.513-2.045c0.017-0.046 0.027-0.1 0.027-0.156v-0c-0.001-0.273-0.222-0.493-0.495-0.493-0.245 0-0.448 0.178-0.488 0.412l-0 0.003h-2.745c-0.091-0.077-0.21-0.124-0.34-0.124s-0.248 0.047-0.34 0.124l0.001-0.001h-2.75c-0.031-0.245-0.239-0.433-0.49-0.433-0.273 0-0.494 0.221-0.494 0.494 0 0.034 0.003 0.067 0.010 0.099l-0.001-0.003c0.004 0.029 0.010 0.056 0.019 0.081l-0.001-0.003-4.505 2.045c-0.083-0.159-0.246-0.265-0.434-0.265-0.27 0-0.488 0.219-0.488 0.488 0 0.082 0.020 0.158 0.055 0.226l-0.001-0.003c0.027 0.050 0.059 0.093 0.097 0.13l0 0-4.506 5.29c-0.071-0.044-0.157-0.070-0.249-0.070v0c-0.272 0.002-0.492 0.223-0.492 0.495 0 0.212 0.133 0.392 0.32 0.463l0.003 0.001-1.119 5.525h-0.036c-0.335 0.014-0.601 0.289-0.601 0.626s0.266 0.612 0.599 0.626l0.001 0h0.036l1.126 5.513c-0.19 0.072-0.324 0.252-0.324 0.464 0 0.272 0.22 0.493 0.492 0.495h0c0.092-0.001 0.178-0.027 0.251-0.071l-0.002 0.001 4.501 5.302c-0.093 0.089-0.151 0.214-0.151 0.353 0 0.27 0.219 0.488 0.488 0.488 0.188 0 0.351-0.106 0.433-0.262l0.001-0.003 4.51 2.046c-0.017 0.046-0.026 0.1-0.027 0.156v0c0.001 0.273 0.222 0.493 0.495 0.493 0.245 0 0.448-0.178 0.488-0.412l0-0.003h2.745c0.091 0.076 0.21 0.123 0.34 0.123s0.248-0.046 0.34-0.124l-0.001 0.001h2.745c0.040 0.237 0.243 0.415 0.488 0.415 0.273 0 0.494-0.221 0.495-0.493v-0c-0-0.056-0.010-0.11-0.028-0.159l0.001 0.003 4.514-2.050c0.083 0.158 0.246 0.265 0.434 0.265 0.27 0 0.488-0.219 0.488-0.488 0-0.139-0.058-0.264-0.151-0.353l-0-0 4.49-5.276c0.071 0.043 0.157 0.069 0.249 0.070h0c0.272-0.002 0.492-0.223 0.492-0.495 0-0.212-0.133-0.392-0.32-0.463l-0.003-0.001 1.139-5.542h0.036c0.335-0.014 0.601-0.289 0.601-0.626s-0.266-0.612-0.599-0.626l-0.001-0zM30.021 9.884l0.505 4.060-1.607-3.37c0.145-0.109 0.238-0.281 0.238-0.475 0-0.073-0.013-0.143-0.037-0.207l0.001 0.004 0.519-0.24c0.083 0.129 0.221 0.216 0.379 0.229l0.002 0zM27.821 20.427l-0.109-4.056c0.162-0.013 0.294-0.123 0.34-0.271l0.001-0.003h0.81c0 0.020 0.009 0.039 0.014 0.060s0.013 0.045 0.021 0.067v0.013c0.064 0.159 0.188 0.282 0.343 0.344l0.004 0.001-0.422 2.883-0.764 1.395zM28.040 21.198v0zM3.932 20.857l-0.764-1.395-0.417-2.884c0.204-0.081 0.352-0.262 0.384-0.482l0-0.003h0.827c0.013 0.027 0.026 0.051 0.040 0.073l-0.001-0.002c0.058 0.107 0.162 0.183 0.285 0.201l0.002 0-0.109 4.060zM3.963 21.193v0-0.008zM4.182 11.546l0.109 4.060c-0.125 0.017-0.23 0.093-0.286 0.199l-0.001 0.002c-0.014 0.020-0.027 0.044-0.038 0.068l-0.001 0.003h-0.822c-0.032-0.223-0.18-0.404-0.38-0.483l-0.004-0.001 0.422-2.888 0.764-1.395zM3.963 10.775v0zM28.068 11.117l0.764 1.395 0.422 2.883c-0.16 0.063-0.284 0.186-0.346 0.341l-0.001 0.004v0.013c-0.007 0.018-0.014 0.040-0.020 0.063l-0.001 0.004c-0.005 0.016-0.010 0.036-0.014 0.057l-0 0.003h-0.804c-0.046-0.152-0.179-0.262-0.34-0.274l-0.001-0 0.109-4.056zM28.037 10.781h0.005v0.008zM28.146 10.98l0.183-0.32c0.065 0.026 0.14 0.041 0.218 0.043h0.019l0.209 1.42zM30.393 15.895h-0.294c-0.032-0.188-0.144-0.344-0.299-0.435l-0.003-0.002c-0.010-0.006-0.023-0.013-0.036-0.020l-0.003-0.001c-0.012-0.007-0.026-0.014-0.040-0.020l-0.003-0.001c-0.072-0.034-0.157-0.053-0.246-0.053h-0.034l-0.347-2.369 1.445 2.639c-0.075 0.066-0.128 0.156-0.147 0.257l-0 0.003zM30.537 16.348l-1.442 2.639 0.347-2.369h0.034c0.089-0.001 0.174-0.020 0.25-0.055l-0.004 0.002c0.014 0 0.028-0.014 0.041-0.021 0.015-0.007 0.028-0.014 0.040-0.022l-0.002 0.001c0.157-0.093 0.269-0.25 0.301-0.433l0.001-0.004h0.294c0.018 0.104 0.068 0.193 0.139 0.261l0 0zM27.833 11.139l0.008-0.288c0.027-0.002 0.052-0.007 0.076-0.014l-0.003 0.001 0.045 0.082zM27.943 10.094v0.009c-0.037-0.015-0.081-0.023-0.126-0.023-0 0-0.001 0-0.001 0h0c-0.033 0-0.064 0.005-0.094 0.014l0.002-0.001v-0.020l-0.118-0.26 0.357 0.126c-0.016 0.045-0.027 0.098-0.030 0.152l-0 0.002zM27.709 10.837l-0.014 0.546-1.602 2.787-1.586-1.785c0.053-0.065 0.086-0.149 0.086-0.241v-0c0-0 0-0 0-0.001 0-0.039-0.006-0.076-0.017-0.111l0.001 0.003 2.902-1.37c0.050 0.080 0.126 0.14 0.216 0.169l0.003 0.001zM22.456 24.179l0.212-0.074-0.19 0.546c-0.017-0.003-0.037-0.005-0.058-0.005h-0c-0.001 0-0.001 0-0.002 0-0.026 0-0.051 0.003-0.075 0.008l0.002-0c0.075-0.098 0.121-0.221 0.121-0.356 0-0.041-0.004-0.081-0.012-0.119l0.001 0.004zM22.39 23.996c-0.052-0.095-0.126-0.173-0.216-0.227l-0.003-0.002 1.518-3.779 0.159-0.028c0.034 0.095 0.101 0.172 0.187 0.217l0.002 0.001-1.297 3.685zM22.029 25.036l-0.874 0.161 0.364-0.4c0.093 0.063 0.208 0.1 0.332 0.1 0.079 0 0.155-0.015 0.225-0.043l-0.004 0.001c-0.025 0.047-0.040 0.103-0.043 0.162l-0 0.001-0.007 0.015zM16.382 26.209l4.324-0.796-2.512 2.773-1.88-1.747c0.042-0.061 0.067-0.137 0.068-0.218v-0c-0.004-0.004-0.007-0.008-0.010-0.013l-0-0zM16.358 26.083c-0.023-0.065-0.060-0.12-0.109-0.162l-0-0 0.939-1.536h4.073c0.019 0.107 0.063 0.201 0.126 0.28l-0.001-0.001-0.526 0.587zM15.703 26.434l-1.88 1.747-2.512-2.773 4.324 0.796v0.007c-0 0.006-0.001 0.013-0.001 0.020 0 0.073 0.020 0.142 0.055 0.2l-0.001-0.002zM15.66 26.083l-4.492-0.829-0.532-0.587c0.063-0.077 0.107-0.171 0.125-0.275l0.001-0.004h4.073l0.925 1.529c-0.049 0.043-0.087 0.097-0.108 0.159l-0.001 0.003zM9.981 25.017c-0.002-0.060-0.018-0.115-0.044-0.165l0.001 0.002c0.065 0.027 0.141 0.042 0.221 0.042 0.124 0 0.239-0.037 0.334-0.101l-0.002 0.001 0.364 0.4-0.874-0.161zM9.67 24.651c-0.020-0.005-0.043-0.007-0.067-0.007s-0.047 0.003-0.069 0.008l0.002-0-0.19-0.546 0.212 0.074c-0.007 0.033-0.011 0.070-0.011 0.109v0c-0 0.003-0 0.007-0 0.011 0 0.131 0.041 0.252 0.111 0.351l-0.001-0.002zM9.623 23.996l-0.359-0.126-1.291-3.696c0.088-0.047 0.155-0.123 0.188-0.216l0.001-0.003 0.159 0.028 1.518 3.779c-0.095 0.056-0.171 0.135-0.223 0.228l-0.002 0.003zM9.557 7.797l-0.212 0.074 0.19-0.546c0.009 0 0.019 0.001 0.029 0.001s0.020-0 0.030-0.001l-0.001 0c0.027-0.001 0.053-0.004 0.079-0.008l-0.004 0c-0.078 0.111-0.124 0.249-0.124 0.398 0 0.026 0.001 0.053 0.004 0.078l-0-0.003zM9.623 7.98c0.053 0.095 0.127 0.172 0.216 0.227l0.003 0.002-1.518 3.779-0.159 0.028c-0.033-0.096-0.1-0.172-0.187-0.217l-0.002-0.001 1.295-3.696zM9.989 6.935l0.874-0.161-0.364 0.4c-0.093-0.063-0.208-0.101-0.331-0.101-0.080 0-0.156 0.016-0.225 0.044l0.004-0.001c0.025-0.047 0.040-0.103 0.043-0.162l0-0.001 0.007-0.015zM15.634 5.767l-4.324 0.796 2.512-2.773 1.88 1.747c-0.042 0.061-0.068 0.137-0.068 0.218 0 0 0 0 0 0v0s-0.009 0.008-0.009 0.010zM15.658 5.893c0.023 0.065 0.061 0.119 0.109 0.162l0 0-0.94 1.534h-4.073c-0.018-0.107-0.063-0.202-0.126-0.28l0.001 0.001 0.532-0.587zM16.313 5.542l1.88-1.747 2.512 2.773-4.323-0.796v-0.007c0-0 0-0.001 0-0.001 0-0.084-0.027-0.161-0.073-0.224l0.001 0.001zM16.356 5.893l4.492 0.829 0.532 0.587c-0.064 0.078-0.108 0.173-0.125 0.278l-0 0.003h-4.073l-0.939-1.536c0.048-0.043 0.085-0.096 0.108-0.157l0.001-0.003zM22.035 6.959c0.002 0.060 0.018 0.115 0.044 0.165l-0.001-0.002c-0.066-0.027-0.142-0.043-0.221-0.043-0.123 0-0.238 0.038-0.333 0.102l0.002-0.001-0.364-0.4 0.874 0.161zM22.346 7.325c0.022 0.004 0.048 0.007 0.074 0.008l0.001 0c0.009 0.001 0.019 0.001 0.029 0.001s0.020-0 0.030-0.001l-0.001 0 0.19 0.546-0.212-0.074c0.007-0.035 0.012-0.075 0.012-0.116 0-0.134-0.046-0.258-0.122-0.357l0.001 0.001zM22.393 7.98l0.359 0.126 1.291 3.696c-0.089 0.046-0.156 0.123-0.188 0.216l-0.001 0.003-0.159-0.028-1.525-3.779c0.092-0.058 0.166-0.138 0.217-0.232l0.002-0.003zM25.392 15.388c-0.057-0.022-0.124-0.035-0.193-0.035-0.053 0-0.104 0.007-0.153 0.021l0.004-0.001-0.604-1.502-0.127-1.355c0.042-0.012 0.078-0.028 0.111-0.050l-0.002 0.001 1.598 1.816zM26.169 14.445l1.18 1.337-0.037 0.088h-1.513c-0.026-0.156-0.109-0.289-0.226-0.38l-0.001-0.001zM24.7 15.617c-0.027-0.009-0.059-0.015-0.091-0.015h-0l-0.095-1.020 0.351 0.874c-0.067 0.043-0.122 0.096-0.166 0.159l-0.001 0.002zM24.863 16.52l-0.351 0.874 0.095-1.020c0.033-0.002 0.065-0.007 0.095-0.016l-0.003 0.001c0.044 0.064 0.097 0.118 0.159 0.16l0.002 0.001zM24.355 14.182l0.137 1.435c-0.122 0.035-0.217 0.126-0.257 0.243l-0.001 0.003h-2.704c-0.014-0.042-0.034-0.078-0.060-0.11l0.001 0.001 2.324-2.961zM15.574 15.53c-0.088 0.086-0.149 0.198-0.172 0.324l-0.001 0.004-4.213 0.005c-0.036-0.073-0.091-0.131-0.16-0.169l-0.002-0.001 1.541-4.048c0.029 0.008 0.063 0.013 0.098 0.013 0.053 0 0.103-0.011 0.148-0.030l-0.002 0.001zM12.976 11.489c0.036-0.048 0.060-0.107 0.070-0.17l0-0.002h5.917c0.010 0.066 0.034 0.124 0.071 0.174l-0.001-0.001-2.78 3.921c-0.073-0.034-0.159-0.055-0.249-0.055h-0.008c-0.090 0-0.176 0.020-0.253 0.056l0.004-0.002zM11.186 16.115h4.213c0.023 0.129 0.085 0.242 0.172 0.328l0 0-2.763 3.907c-0.043-0.019-0.093-0.030-0.145-0.030-0.035 0-0.069 0.005-0.101 0.014l0.003-0.001-1.541-4.041c0.071-0.041 0.126-0.102 0.161-0.174l0.001-0.002zM15.749 16.562c0.073 0.033 0.159 0.053 0.249 0.055h0.008c0.090-0.001 0.176-0.021 0.253-0.056l-0.004 0.002 2.773 3.915c-0.036 0.048-0.061 0.107-0.070 0.171l-0 0.002h-5.915c-0.009-0.066-0.034-0.124-0.071-0.174l0.001 0.001zM16.431 16.442c0.088-0.086 0.149-0.198 0.172-0.324l0.001-0.004h4.195c0.032 0.086 0.090 0.157 0.165 0.202l0.002 0.001-1.529 4.016c-0.030-0.009-0.064-0.014-0.1-0.014-0.052 0-0.102 0.011-0.147 0.031l0.002-0.001zM20.8 15.857l-4.199-0.005c-0.023-0.13-0.085-0.242-0.172-0.328l-0-0 2.762-3.908c0.043 0.019 0.094 0.030 0.147 0.030 0.037 0 0.072-0.005 0.106-0.015l-0.003 0.001 1.529 4.016c-0.079 0.047-0.139 0.12-0.169 0.207l-0.001 0.003zM19.343 10.876c-0 0-0 0-0.001 0-0.049 0-0.096 0.010-0.14 0.027l0.003-0.001-1.904-3.113h3.948c0.023 0.129 0.083 0.241 0.169 0.328l-0-0-1.966 2.774c-0.030-0.009-0.064-0.014-0.099-0.014-0.004 0-0.007 0-0.011 0h0.001zM19.104 10.961c-0.075 0.058-0.126 0.143-0.142 0.239l-0 0.002h-5.919c-0.016-0.099-0.067-0.183-0.141-0.241l-0.001-0.001 1.945-3.167h2.312zM12.802 10.903c-0.040-0.017-0.086-0.026-0.134-0.026-0.041 0-0.080 0.007-0.116 0.019l0.003-0.001-1.96-2.774c0.086-0.086 0.147-0.199 0.169-0.324l0.001-0.004h3.948zM12.463 11.594l-1.541 4.051c-0.023-0.006-0.049-0.009-0.076-0.009-0.002 0-0.003 0-0.005 0h0c-0 0-0 0-0 0-0.074 0-0.144 0.021-0.202 0.058l0.002-0.001-2.373-3.031 0.235-0.585 3.795-0.692c0.029 0.088 0.086 0.161 0.16 0.209l0.002 0.001zM10.836 16.336c0.030-0 0.060-0.004 0.088-0.009l-0.003 0 1.542 4.051c-0.077 0.048-0.135 0.12-0.163 0.206l-0.001 0.003-3.795-0.692-0.235-0.585 2.368-3.031c0.057 0.035 0.125 0.056 0.198 0.058h0zM12.55 21.078c0.034 0.011 0.073 0.018 0.113 0.018 0.048 0 0.095-0.009 0.137-0.026l-0.002 0.001 1.904 3.11h-3.948c-0.022-0.129-0.082-0.242-0.169-0.328l-0-0zM12.9 21.012c0.074-0.059 0.126-0.143 0.142-0.239l0-0.002h5.919c0.016 0.099 0.068 0.183 0.141 0.241l0.001 0.001-1.945 3.167h-2.314zM19.207 21.071c0.040 0.016 0.086 0.025 0.135 0.025 0.040 0 0.079-0.006 0.116-0.018l-0.003 0.001 1.966 2.774c-0.086 0.086-0.147 0.198-0.169 0.324l-0.001 0.004h-3.948zM19.549 20.38l1.529-4.017c0.027 0.007 0.058 0.011 0.090 0.011 0.083 0 0.16-0.027 0.222-0.072l-0.001 0.001 2.355 3.008-0.236 0.584-3.799 0.692c-0.029-0.089-0.088-0.161-0.163-0.208l-0.002-0.001zM21.167 15.6c-0 0-0.001 0-0.002 0-0.031 0-0.061 0.004-0.089 0.011l0.002-0.001-1.529-4.017c0.077-0.048 0.134-0.12 0.163-0.206l0.001-0.003 3.795 0.692 0.235 0.585-2.358 3.009c-0.062-0.045-0.14-0.072-0.223-0.072-0 0-0 0-0 0h0zM23.938 12.418l-0.049 0.062-0.144-0.358 0.082 0.015v0.010c0 0.105 0.042 0.2 0.109 0.27l-0-0zM23.938 12.607l0.093-0.119c0.048 0.026 0.105 0.042 0.165 0.045l0.001 0 0.088 0.94zM23.454 11.939l-3.721-0.674c-0-0.1-0.039-0.191-0.102-0.259l0 0 1.957-2.77c0.077 0.039 0.168 0.061 0.264 0.061 0.046 0 0.091-0.005 0.134-0.015l-0.004 0.001zM17.038 7.59h-2.064l0.903-1.471c0.038 0.017 0.082 0.026 0.129 0.026s0.091-0.010 0.131-0.027l-0.002 0.001zM10.026 8.284c0.039 0.009 0.085 0.015 0.131 0.015 0.096 0 0.186-0.023 0.267-0.063l-0.003 0.002 1.957 2.77c-0.063 0.068-0.101 0.159-0.102 0.259v0l-3.724 0.674zM8.18 12.136l0.082-0.015-0.144 0.358-0.049-0.062c0.068-0.069 0.109-0.164 0.109-0.269 0-0.001 0-0.002 0-0.003v0c0.001-0.003 0.002-0.005 0.002-0.009v-0zM7.973 12.485l0.094 0.119-0.348 0.864 0.088-0.94c0.061-0.002 0.118-0.018 0.168-0.044l-0.002 0.001zM8.211 12.789l2.336 2.973c-0.024 0.027-0.045 0.057-0.061 0.091l-0.001 0.002h-2.737c-0.038-0.11-0.121-0.196-0.227-0.236l-0.003-0.001 0.135-1.444zM7.556 13.87l-0.604 1.502c-0.045-0.013-0.096-0.020-0.149-0.020-0.069 0-0.136 0.013-0.197 0.036l0.004-0.001-0.635-1.104 1.598-1.816c0.031 0.020 0.068 0.037 0.106 0.048l0.003 0.001zM7.394 15.6h-0.015c-0.003-0-0.006-0-0.010-0-0.026 0-0.051 0.003-0.075 0.009l0.002-0c-0.043-0.061-0.095-0.113-0.154-0.154l-0.002-0.001 0.351-0.874zM7.489 17.391l-0.351-0.874c0.061-0.043 0.114-0.094 0.156-0.153l0.001-0.002c0.025 0.005 0.053 0.009 0.083 0.009h0.015zM6.428 15.485c-0.118 0.092-0.201 0.225-0.227 0.378l-0 0.004h-1.493c-0.011-0.037-0.026-0.069-0.045-0.099l0.001 0.001 1.172-1.332zM4.577 15.685c-0.045-0.037-0.099-0.064-0.158-0.077l-0.002-0-0.096-3.813 1.45 2.538zM4.417 16.365c0.062-0.014 0.116-0.041 0.161-0.078l-0.001 0.001 1.194 1.351-1.45 2.539zM4.661 16.197c0.018-0.028 0.032-0.060 0.043-0.094l0.001-0.003 1.495 0.007c0.027 0.156 0.109 0.289 0.226 0.38l0.001 0.001-0.594 1.042zM6.611 16.585c0.058 0.021 0.124 0.034 0.194 0.034 0.053 0 0.104-0.007 0.152-0.021l-0.004 0.001 0.606 1.503 0.127 1.355c-0.042 0.011-0.078 0.028-0.11 0.050l0.001-0.001-1.597-1.816zM7.651 17.787l-0.135-1.444c0.108-0.042 0.191-0.127 0.229-0.234l0.001-0.003h2.74c0.018 0.035 0.039 0.066 0.063 0.093l-0-0-2.332 2.985zM8.068 19.552l0.049-0.062 0.144 0.358-0.082-0.015v-0.010c-0.001-0.104-0.042-0.198-0.109-0.267l0 0zM8.068 19.363l-0.095 0.119c-0.048-0.026-0.105-0.042-0.165-0.045l-0.001-0-0.088-0.94zM8.552 20.025l3.722 0.672c0.001 0.1 0.039 0.191 0.102 0.259l-0-0-1.959 2.78c-0.076-0.039-0.167-0.062-0.262-0.062-0.047 0-0.092 0.005-0.136 0.016l0.004-0.001zM14.969 24.378h2.069l-0.903 1.471c-0.038-0.017-0.082-0.027-0.129-0.027s-0.091 0.010-0.131 0.028l0.002-0.001zM21.981 23.684c-0.040-0.010-0.085-0.015-0.132-0.015-0.096 0-0.186 0.023-0.266 0.064l0.003-0.002-1.957-2.77c0.062-0.068 0.101-0.159 0.102-0.259v-0l3.721-0.674zM23.822 19.832l-0.082 0.015 0.145-0.353 0.049 0.062c-0.068 0.069-0.109 0.163-0.109 0.268 0 0.002 0 0.003 0 0.005v-0c-0 0.002-0 0.004-0 0.007s0 0.005 0 0.007l-0-0zM24.028 19.482l-0.093-0.119 0.348-0.866-0.088 0.94c-0.062 0.003-0.12 0.021-0.17 0.050l0.002-0.001zM23.79 19.178l-2.323-2.96c0.024-0.031 0.044-0.067 0.058-0.106l0.001-0.003h2.701c0.041 0.119 0.136 0.21 0.255 0.245l0.003 0.001-0.13 1.434zM24.446 18.097l0.604-1.502c0.044 0.012 0.096 0.020 0.148 0.020 0.069 0 0.136-0.012 0.198-0.035l-0.004 0.001 0.635 1.104-1.598 1.816c-0.031-0.022-0.068-0.039-0.107-0.049l-0.002-0zM25.573 16.483c0.118-0.093 0.2-0.225 0.227-0.378l0.001-0.004 1.51-0.007 0.037 0.088-1.178 1.346zM27.429 16.27c0.042 0.037 0.092 0.065 0.148 0.081l0.003 0.001 0.096 3.823-1.449-2.536zM27.58 15.614c-0.059 0.016-0.109 0.044-0.151 0.082l0-0-1.201-1.364 1.45-2.538zM27.522 10.205l-1.404-0.917 1.221 0.429 0.007 0.013 0.2 0.452c-0.007 0.010-0.015 0.016-0.022 0.025zM27.449 10.321c-0.017 0.041-0.027 0.090-0.027 0.14 0 0.032 0.004 0.062 0.011 0.092l-0.001-0.003-2.901 1.38c-0.066-0.106-0.182-0.175-0.314-0.175-0.023 0-0.046 0.002-0.068 0.006l0.002-0-1.255-3.604 2.693 0.943zM22.815 7.918l-0.218-0.641c0.038-0.021 0.072-0.047 0.1-0.076l0-0 2.228 1.467zM22.522 6.567c-0.033-0.011-0.072-0.018-0.112-0.018-0.070 0-0.136 0.020-0.191 0.055l0.002-0.001-2.814-3.473c0.031-0.035 0.057-0.077 0.075-0.122l0.001-0.003 4.805 0.664c0.005 0.104 0.045 0.198 0.11 0.27l-0-0-0.167 0.236zM24.312 3.524l-4.805-0.671c0-0 0-0 0-0 0-0.175-0.107-0.325-0.259-0.389l-0.003-0.001 0.062-0.259 0.024-0.075 4.259 0.995 0.727 0.39zM19.288 3.219l2.824 3.473c-0.029 0.033-0.052 0.072-0.068 0.114l-0.001 0.003-1.043-0.192-2.687-2.949 0.511-0.477c0.070 0.056 0.159 0.090 0.257 0.090 0.076 0 0.146-0.020 0.207-0.056l-0.002 0.001zM19.113 2.438h-0.024c-0.133 0.001-0.252 0.065-0.327 0.163l-0.001 0.001-1.942-1.055 2.371 0.555zM18.228 3.566l-0.58-0.638h1.028c0.010 0.061 0.032 0.116 0.063 0.164l-0.001-0.002zM18.097 3.689l-1.876 1.759c-0.059-0.048-0.135-0.077-0.218-0.077s-0.159 0.029-0.219 0.077l0.001-0-1.88-1.761 0.688-0.764h2.818zM13.772 3.566l-0.509-0.473c0.030-0.046 0.052-0.101 0.062-0.16l0-0.002h1.026zM12.91 3.279c0.098-0.001 0.188-0.035 0.259-0.091l-0.001 0.001 0.511 0.477-2.687 2.949-1.041 0.192c-0.016-0.045-0.040-0.084-0.069-0.117l0 0 2.825-3.468c0.058 0.034 0.128 0.055 0.203 0.057h0.001zM12.808 2.101l2.373-0.555-1.941 1.052c-0.076-0.099-0.194-0.163-0.327-0.164h-0.025zM12.488 2.857v0l-4.805 0.671v-0.015l0.727-0.39 4.259-0.993 0.019 0.079 0.062 0.259c-0.154 0.065-0.261 0.214-0.261 0.389 0 0.001 0 0.002 0 0.003v-0zM7.711 3.675l4.805-0.664c0.020 0.048 0.045 0.089 0.077 0.125l-0-0.001-2.814 3.472c-0.054-0.034-0.119-0.054-0.19-0.054-0.040 0-0.078 0.006-0.114 0.018l0.003-0.001-1.865-2.628c0.061-0.072 0.099-0.166 0.1-0.268v-0zM9.185 7.926l-2.113 0.747 2.236-1.465c0.029 0.030 0.062 0.055 0.098 0.075l0.002 0.001zM9.103 8.159l-1.255 3.604c-0.020-0.004-0.042-0.006-0.065-0.006-0.132 0-0.248 0.069-0.314 0.174l-0.001 0.002-2.901-1.38c0.006-0.026 0.010-0.056 0.011-0.087v-0c-0-0.051-0.010-0.1-0.028-0.145l0.001 0.003 1.857-1.218zM4.478 10.212l-0.023-0.023 0.2-0.452 0.007-0.013 1.221-0.429zM4.517 10.675l2.909 1.365c-0.010 0.032-0.016 0.070-0.016 0.109 0 0 0 0 0 0.001v-0c0 0.092 0.033 0.176 0.087 0.242l-0.001-0.001-1.581 1.787-1.602-2.787-0.014-0.546c0.093-0.030 0.169-0.092 0.217-0.172l0.001-0.002zM4.281 10.075v0.020c-0.027-0.008-0.059-0.013-0.092-0.013v0c-0 0-0.001 0-0.001 0-0.045 0-0.088 0.008-0.128 0.024l0.002-0.001v-0.008c-0-0.057-0.008-0.112-0.023-0.165l0.001 0.004 0.357-0.126zM4.172 11.142l-0.126-0.218 0.045-0.082c0.021 0.006 0.046 0.011 0.072 0.013l0.002 0zM2.534 15.358c-0.309 0.001-0.563 0.232-0.603 0.53l-0 0.003h-0.315c-0.017-0.107-0.069-0.199-0.143-0.267l-0-0 1.445-2.639-0.347 2.369c-0.005 0.001-0.011 0.001-0.017 0.001s-0.012-0-0.018-0.001l0.001 0zM2.915 18.99l-1.443-2.643c0.074-0.069 0.126-0.161 0.143-0.265l0-0.003h0.315c0.038 0.304 0.294 0.536 0.605 0.537h0.034zM3.232 12.128l0.209-1.42h0.019c0.079-0.001 0.154-0.017 0.223-0.044l-0.004 0.001 0.183 0.32zM2.971 12.599l-1.622 2.949c-0.014-0.007-0.028-0.011-0.044-0.016l0.109-1.038 1.835-3.823zM1.351 16.426l1.622 2.949 0.284 1.931-1.835-3.823-0.109-1.038c0.010-0.007 0.022-0.014 0.034-0.018l0.001-0zM3.233 19.847l0.629 1.143-0.183 0.32c-0.064-0.027-0.139-0.043-0.217-0.043-0 0-0.001 0-0.001 0h-0.018zM4.174 20.829l-0.008 0.288c-0.027 0.001-0.052 0.006-0.075 0.014l0.002-0.001-0.045-0.082zM4.065 21.878v-0.008c0.038 0.014 0.081 0.022 0.126 0.023h0c0.033-0.001 0.065-0.007 0.094-0.016l-0.003 0.001v0.020l0.118 0.26-0.36-0.126c0.014-0.046 0.022-0.099 0.024-0.153l0-0.001zM4.299 21.133l0.014-0.546 1.602-2.787 1.577 1.785c-0.051 0.064-0.082 0.146-0.082 0.236 0 0.040 0.006 0.078 0.018 0.114l-0.001-0.003-2.906 1.373c-0.049-0.080-0.126-0.14-0.216-0.166l-0.003-0.001zM4.478 21.769l1.404 0.917-1.219-0.429-0.007-0.013-0.2-0.455c0.008-0.008 0.021-0.020 0.021-0.020zM4.55 21.653c0.017-0.042 0.027-0.091 0.027-0.142v-0c-0-0.031-0.004-0.061-0.011-0.090l0.001 0.003 2.903-1.383c0.067 0.106 0.184 0.175 0.316 0.175 0.023 0 0.045-0.002 0.066-0.006l-0.002 0 1.255 3.604-2.692-0.945zM9.184 24.056l0.218 0.641c-0.039 0.021-0.072 0.046-0.1 0.076l-0 0-2.229-1.476zM9.48 25.409c0.033 0.011 0.071 0.017 0.111 0.017 0.070 0 0.136-0.020 0.192-0.054l-0.002 0.001 2.814 3.473c-0.032 0.035-0.057 0.077-0.075 0.122l-0.001 0.003-4.805-0.664c-0.004-0.104-0.045-0.198-0.11-0.27l0 0 0.169-0.241zM7.69 28.442l4.805 0.671c0 0.175 0.107 0.325 0.259 0.389l0.003 0.001-0.062 0.259-0.019 0.079-4.259-0.995-0.727-0.394zM12.714 28.749l-2.829-3.465c0.029-0.033 0.052-0.072 0.068-0.114l0.001-0.003 1.043 0.192 2.687 2.949-0.511 0.471c-0.070-0.056-0.159-0.090-0.256-0.090-0.076 0-0.147 0.021-0.207 0.056l0.002-0.001zM12.894 29.536h0.024c0.133-0.002 0.251-0.065 0.327-0.163l0.001-0.001 1.935 1.052-2.374-0.554zM13.779 28.408l0.58 0.638h-1.034c-0.010-0.061-0.032-0.116-0.063-0.164l0.001 0.002zM13.91 28.285l1.877-1.761c0.059 0.047 0.136 0.076 0.218 0.076s0.159-0.029 0.219-0.077l-0.001 0.001 1.877 1.761-0.688 0.764h-2.818zM18.235 28.408l0.508 0.477c-0.031 0.046-0.053 0.101-0.062 0.16l-0 0.002h-1.031zM19.095 28.694c-0 0-0 0-0.001 0-0.098 0-0.187 0.034-0.258 0.091l0.001-0.001-0.511-0.477 2.687-2.949 1.043-0.192c0.017 0.045 0.041 0.084 0.069 0.117l-0-0.001-2.823 3.47c-0.060-0.037-0.132-0.059-0.21-0.059-0.001 0-0.001 0-0.002 0h0zM19.198 29.871l-2.379 0.555 1.937-1.052c0.077 0.098 0.195 0.162 0.327 0.164h0.029zM19.518 29.116v0l4.805-0.671v0.015l-0.733 0.39-4.259 0.995-0.019-0.079-0.062-0.259c0.155-0.065 0.262-0.215 0.262-0.39 0-0.001 0-0.001 0-0.002v0zM24.296 28.298l-4.805 0.664c-0.019-0.048-0.045-0.089-0.077-0.125l0 0 2.814-3.473c0.054 0.033 0.12 0.053 0.191 0.053 0.040 0 0.078-0.006 0.113-0.018l-0.003 0.001 1.87 2.631c-0.064 0.071-0.105 0.163-0.109 0.266l-0 0.001zM22.822 24.047l2.109-0.749-2.236 1.463c-0.028-0.030-0.062-0.056-0.098-0.075l-0.002-0.001zM22.903 23.813l1.255-3.604c0.019 0.004 0.042 0.006 0.064 0.006 0.132 0 0.249-0.069 0.315-0.173l0.001-0.002 2.904 1.382c-0.007 0.027-0.011 0.058-0.011 0.089 0 0.050 0.010 0.099 0.028 0.143l-0.001-0.003-1.857 1.218zM27.522 21.769l0.023 0.023-0.2 0.452-0.007 0.013-1.221 0.429zM27.483 21.306l-2.902-1.374c0.010-0.033 0.016-0.071 0.016-0.11 0-0.092-0.033-0.176-0.087-0.241l0 0.001 1.576-1.787 1.602 2.793 0.014 0.546c-0.093 0.029-0.169 0.089-0.217 0.169l-0.001 0.002zM27.72 21.905v-0.027c0.027 0.007 0.059 0.012 0.091 0.013l0.001 0c0.046-0.001 0.089-0.009 0.13-0.024l-0.003 0.001v0.008c0.001 0.056 0.010 0.11 0.024 0.161l-0.001-0.004-0.357 0.126zM27.829 20.838l0.126 0.218-0.045 0.082c-0.022-0.007-0.047-0.012-0.073-0.013l-0.001-0zM28.77 19.855l-0.209 1.42h-0.019c-0 0-0 0-0 0-0.079 0-0.154 0.016-0.222 0.044l0.004-0.001-0.183-0.32zM29.030 19.383l1.622-2.949c0.014 0.007 0.028 0.011 0.044 0.016l-0.109 1.038-1.835 3.823zM30.654 15.543l-1.622-2.949-0.285-1.93 1.835 3.823 0.109 1.038c-0.009 0.010-0.022 0.017-0.037 0.019h-0zM29.628 9.071v0l0.011 0.010 0.019 0.022c-0.058 0.078-0.093 0.177-0.093 0.283 0 0.041 0.005 0.081 0.015 0.119l-0.001-0.003-0.534 0.235c-0.111-0.157-0.292-0.259-0.497-0.259-0 0-0 0-0 0v0c-0 0-0.001 0-0.001 0-0.058 0-0.114 0.010-0.166 0.027l0.004-0.001-2.422-4.454 3.188 3.361zM27.32 6.265l-1.622-1.704-0.295-0.546zM25.119 3.841l0.133 0.254-0.177-0.186c0.015-0.020 0.030-0.042 0.042-0.066l0.001-0.003zM25.508 4.57l2.683 5.024c-0.064 0.046-0.117 0.103-0.158 0.168l-0.001 0.002-0.311-0.109-0.218-0.079-2.512-5.561zM24.723 4.096c0.045-0.001 0.088-0.008 0.129-0.022l-0.003 0.001 2.389 5.41h-0.015l-1.765-0.624-2.692-1.758c0.022-0.046 0.034-0.101 0.034-0.158 0-0.105-0.042-0.2-0.111-0.27l0 0 1.857-2.621c0.052 0.025 0.113 0.040 0.178 0.042h0zM24.453 3.331c-0.024 0.019-0.046 0.040-0.065 0.064l-0.001 0.001-0.262-0.141zM24.107 3.081l-0.536-0.126-1.234-0.665zM19.515 1.365c0.022 0.004 0.047 0.006 0.072 0.006 0.139 0 0.263-0.062 0.347-0.16l0.001-0.001 0.546 0.245 2.548 1.368-3.66-0.857zM19.097 1.007c0.030 0.103 0.089 0.19 0.168 0.254l0.001 0.001 0.031 0.027h0.009c0.017 0.011 0.038 0.022 0.059 0.033l0.004 0.002-0.14 0.607-2.168-0.505-0.519-0.138v-0.016zM17.655 0.959l-1.136 0.098c-0.012-0.037-0.026-0.069-0.044-0.099l0.001 0.002zM16.465 1.52l2.227 1.201c-0.007 0.018-0.013 0.040-0.016 0.062l-0 0.002h-1.153l-1.101-1.201c0.015-0.017 0.029-0.036 0.042-0.056l0.001-0.002zM15.708 1.693c0.083 0.054 0.184 0.087 0.293 0.087s0.21-0.032 0.295-0.088l-0.002 0.001 0.991 1.092h-2.567zM15.581 1.584l-1.101 1.201h-1.155c-0.004-0.024-0.009-0.046-0.017-0.067l0.001 0.002 2.227-1.201c0.015 0.022 0.029 0.040 0.043 0.058l-0.001-0.001zM15.527 0.965c-0.016 0.027-0.031 0.059-0.042 0.093l-0.001 0.004-1.136-0.098zM12.697 1.293h0.009l0.031-0.027c0.080-0.064 0.139-0.151 0.168-0.251l0.001-0.004 2.552 0.264v0.016l-0.519 0.138-2.168 0.503-0.14-0.607c0.025-0.012 0.045-0.023 0.064-0.035l-0.003 0.002zM12.069 1.212c0.084 0.098 0.208 0.159 0.346 0.159 0.026 0 0.052-0.002 0.076-0.006l-0.003 0 0.144 0.601-3.66 0.855 2.548-1.366zM9.667 2.286l-1.233 0.664-0.536 0.126zM7.878 3.247l-0.262 0.141c-0.020-0.024-0.041-0.045-0.065-0.064l-0.001-0.001zM7.28 4.096c0.066-0.001 0.127-0.016 0.183-0.042l-0.003 0.001 1.857 2.621c-0.068 0.069-0.111 0.165-0.111 0.27 0 0.057 0.013 0.112 0.035 0.161l-0.001-0.002-2.697 1.755-1.765 0.624h-0.015l2.39-5.407c0.037 0.012 0.080 0.020 0.125 0.021h0zM6.886 3.84c0.013 0.027 0.026 0.051 0.042 0.073l-0.001-0.002-0.177 0.185zM7.014 4.019l-2.512 5.561-0.218 0.079-0.311 0.109c-0.043-0.067-0.096-0.124-0.158-0.169l-0.002-0.001 2.683-5.024zM6.594 4.019l-0.295 0.546-1.622 1.703zM2.335 9.065l0.011-0.010 0.499-0.643 3.188-3.362-2.421 4.457c-0.048-0.017-0.104-0.026-0.162-0.026-0 0-0.001 0-0.001 0h0c-0.001 0-0.002 0-0.003 0-0.205 0-0.386 0.101-0.495 0.257l-0.001 0.002-0.546-0.253c0.008-0.032 0.013-0.070 0.014-0.108v-0.001c0-0 0-0 0-0 0-0.107-0.035-0.207-0.094-0.287l0.001 0.001zM1.966 9.864c0.161-0.013 0.299-0.101 0.38-0.228l0.001-0.002 0.54 0.259c-0.023 0.060-0.036 0.13-0.036 0.203 0 0.194 0.093 0.366 0.236 0.474l0.002 0.001-1.612 3.373zM1.604 11.26l-0.328 3.11-0.458 0.96zM1.216 14.908l-0.062 0.589c-0.001 0-0.002 0-0.003 0-0.047 0-0.092 0.008-0.134 0.023l0.003-0.001c-0.021-0.020-0.043-0.039-0.067-0.056l-0.002-0.001zM1.019 16.443c0.040 0.013 0.086 0.021 0.134 0.022h0l0.062 0.589-0.266-0.552c0.026-0.018 0.048-0.036 0.070-0.054l-0.001 0.001zM0.815 16.632l0.458 0.96 0.328 3.11zM1.966 22.093l-0.49-4.066 1.607 3.37c-0.145 0.109-0.238 0.281-0.238 0.475 0 0.073 0.013 0.143 0.037 0.207l-0.001-0.004-0.534 0.247c-0.082-0.129-0.22-0.215-0.379-0.226l-0.002-0zM2.359 22.905v0l-0.011-0.010-0.019-0.022c0.058-0.079 0.093-0.179 0.093-0.286v-0c-0.001-0.039-0.006-0.077-0.015-0.113l0.001 0.004 0.546-0.242c0.112 0.157 0.292 0.258 0.497 0.259h0c0.058-0.001 0.114-0.011 0.167-0.027l-0.004 0.001 2.421 4.457-3.188-3.357zM4.682 25.705l1.622 1.704 0.295 0.546zM6.881 28.134l-0.137-0.257 0.177 0.186c-0.015 0.020-0.029 0.043-0.040 0.067l-0.001 0.002zM6.492 27.405l-2.683-5.024c0.063-0.047 0.116-0.103 0.158-0.168l0.002-0.003 0.311 0.109 0.218 0.079 2.512 5.561zM7.276 27.878c-0.001 0-0.001 0-0.002 0-0.044 0-0.087 0.008-0.126 0.022l0.003-0.001-2.385-5.41h0.015l1.765 0.624 2.692 1.758c-0.022 0.047-0.034 0.101-0.034 0.158 0 0.105 0.042 0.2 0.111 0.27l-0-0-1.857 2.621c-0.052-0.026-0.113-0.042-0.178-0.044h-0zM7.546 28.649c0.024-0.020 0.045-0.041 0.065-0.064l0.001-0.001 0.262 0.141zM7.892 28.899l0.536 0.126 1.234 0.665zM12.484 30.61c-0.022-0.004-0.048-0.006-0.074-0.006-0.138 0-0.262 0.062-0.345 0.16l-0.001 0.001-0.546-0.245-2.545-1.368 3.66 0.857zM12.902 30.968c-0.029-0.104-0.089-0.191-0.168-0.254l-0.001-0.001-0.031-0.027h-0.009c-0.018-0.013-0.039-0.024-0.061-0.034l-0.002-0.001 0.14-0.607 2.168 0.508 0.519 0.138v0.016zM14.344 31.016l1.136-0.098c0.012 0.037 0.027 0.069 0.044 0.099l-0.001-0.003zM15.529 30.451l-2.227-1.201c0.007-0.018 0.013-0.040 0.016-0.062l0-0.002h1.152l1.106 1.211c-0.016 0.016-0.030 0.034-0.044 0.053l-0.001 0.001zM16.286 30.277c-0.082-0.055-0.184-0.088-0.293-0.088s-0.21 0.033-0.295 0.089l0.002-0.001-0.991-1.092h2.567zM16.414 30.392l1.101-1.209h1.161c0.004 0.024 0.010 0.046 0.017 0.067l-0.001-0.002-2.227 1.201c-0.012-0.020-0.025-0.037-0.039-0.053l0.001 0.001zM16.467 31.011c0.016-0.027 0.030-0.059 0.041-0.092l0.001-0.004 1.136 0.098zM19.297 30.683h-0.009l-0.031 0.027c-0.081 0.064-0.14 0.151-0.168 0.251l-0.001 0.003-2.552-0.264v-0.016l0.519-0.138 2.167-0.508 0.14 0.607c-0.023 0.011-0.043 0.023-0.062 0.036l0.002-0.001zM19.925 30.764c-0.083-0.099-0.207-0.161-0.346-0.161-0.026 0-0.052 0.002-0.076 0.006l0.003-0-0.144-0.601 3.66-0.857-2.544 1.366zM22.328 29.69l1.234-0.665 0.536-0.126zM24.117 28.725l0.262-0.141c0.020 0.023 0.042 0.045 0.065 0.064l0.001 0.001zM24.714 27.877c-0.001 0-0.001 0-0.002 0-0.065 0-0.126 0.015-0.181 0.041l0.002-0.001-1.857-2.621c0.068-0.069 0.111-0.165 0.111-0.27 0-0.057-0.013-0.112-0.035-0.161l0.001 0.002 2.693-1.758 1.769-0.62h0.015l-2.385 5.407c-0.037-0.013-0.081-0.020-0.125-0.021h-0zM25.109 28.133c-0.012-0.027-0.026-0.050-0.041-0.072l0.001 0.001 0.177-0.186zM24.974 27.955l2.512-5.561 0.218-0.079 0.311-0.109c0.043 0.067 0.096 0.123 0.158 0.169l0.002 0.001-2.683 5.024zM25.394 27.955l0.295-0.546 1.622-1.704zM29.629 22.922l-0.011 0.010-0.479 0.63-3.176 3.359 2.421-4.457c0.048 0.016 0.104 0.025 0.162 0.026h0.001c0.205-0.001 0.385-0.102 0.496-0.257l0.001-0.002 0.535 0.268c-0.009 0.035-0.014 0.074-0.014 0.115 0 0.107 0.035 0.205 0.094 0.285l-0.001-0.001zM30.012 22.123c-0.161 0.012-0.299 0.1-0.38 0.228l-0.001 0.002-0.52-0.272c0.023-0.060 0.036-0.13 0.036-0.203 0-0.194-0.093-0.366-0.236-0.474l-0.002-0.001 1.607-3.371zM30.388 20.713l0.328-3.11 0.458-0.96zM30.84 16.473c0.048-0.001 0.094-0.009 0.138-0.023l-0.003 0.001c0.021 0.019 0.043 0.038 0.067 0.055l0.002 0.002-0.265 0.555zM30.778 14.914l0.265 0.555c-0.026 0.018-0.048 0.037-0.069 0.057l0-0c-0.039-0.014-0.084-0.022-0.131-0.022-0.001 0-0.002 0-0.004 0h0zM30.72 14.374l-0.328-3.11 0.79 4.070z"></path>
</svg>
