<!-- Generated by IcoMoon.io -->
<svg version="1.1" xmlns="http://www.w3.org/2000/svg" viewBox="0 0 32 32">
<title>wtc</title>
<path fill="#8400fd" d="M8.635 19.581l-7.619 2.286-0.254-14.476 7.619-1.778z"></path>
<path fill="#fff" d="M1.524 22.375c-0.33 0-0.635-0.102-0.914-0.279-0.381-0.254-0.61-0.66-0.61-1.092v-13.156c0-0.635 0.483-1.168 1.143-1.321l6.222-1.397c0.483-0.102 0.99-0.025 1.397 0.254s0.635 0.711 0.635 1.168v12.775c0 0.635-0.483 1.219-1.168 1.397l-6.273 1.6c-0.152 0.025-0.279 0.051-0.432 0.051zM7.086 6.679c-0.076 0-0.178 0-0.254 0.025l-4.825 1.219c-0.432 0.102-0.762 0.508-0.762 0.965v11.429c0 0.305 0.152 0.61 0.406 0.787s0.559 0.254 0.864 0.152l4.876-1.397c0.457-0.127 0.787-0.559 0.787-1.041v-11.073c0-0.33-0.152-0.635-0.406-0.838-0.229-0.152-0.457-0.229-0.686-0.229z"></path>
<path fill="#02ffdb" d="M13.968 24.406l-7.619 2.286-0.254-14.476 7.619-1.778z"></path>
<path fill="#fff" d="M7.035 26.921c-0.305 0-0.61-0.102-0.864-0.279-0.356-0.254-0.584-0.635-0.584-1.067v-12.724c0-0.61 0.457-1.143 1.092-1.27l5.892-1.346c0.457-0.102 0.94 0 1.321 0.254 0.381 0.279 0.584 0.686 0.584 1.117v12.368c0 0.635-0.457 1.194-1.117 1.346l-5.943 1.549c-0.127 0.025-0.254 0.051-0.381 0.051zM12.419 11.251c-0.076 0-0.178 0-0.254 0.025l-4.825 1.219c-0.432 0.102-0.762 0.508-0.762 0.965v11.429c0 0.305 0.152 0.61 0.406 0.787s0.559 0.254 0.864 0.152l4.876-1.397c0.457-0.127 0.787-0.559 0.787-1.041v-11.073c0-0.33-0.152-0.635-0.406-0.838-0.229-0.152-0.457-0.229-0.686-0.229z"></path>
<path fill="#8400fd" d="M19.81 19.835l-7.619 2.286-0.254-14.476 7.619-1.778z"></path>
<path fill="#fff" d="M12.876 22.375c-0.305 0-0.61-0.102-0.864-0.279-0.356-0.254-0.584-0.635-0.584-1.067v-12.775c0-0.61 0.457-1.143 1.092-1.27l5.867-1.346c0.457-0.102 0.94 0 1.321 0.254 0.381 0.279 0.584 0.686 0.584 1.117v12.394c0 0.635-0.457 1.194-1.117 1.346l-5.917 1.549c-0.127 0.051-0.254 0.076-0.381 0.076zM18.26 6.679c-0.076 0-0.178 0-0.254 0.025l-4.851 1.219c-0.432 0.102-0.762 0.508-0.762 0.965v11.429c0 0.305 0.152 0.61 0.406 0.787s0.584 0.254 0.889 0.152l4.851-1.397c0.457-0.127 0.787-0.559 0.787-1.041v-11.073c0-0.33-0.152-0.635-0.406-0.838-0.203-0.152-0.432-0.229-0.66-0.229z"></path>
<path fill="#02ffdb" d="M25.651 24.406l-7.619 2.286-0.254-14.476 7.619-1.778z"></path>
<path fill="#fff" d="M18.54 26.946c-0.33 0-0.635-0.102-0.914-0.279-0.381-0.254-0.61-0.66-0.61-1.092v-13.156c0-0.635 0.483-1.168 1.143-1.321l6.222-1.397c0.483-0.102 0.99-0.025 1.397 0.254s0.635 0.711 0.635 1.143v12.775c0 0.635-0.483 1.219-1.168 1.397l-6.273 1.6c-0.152 0.051-0.279 0.076-0.432 0.076zM24.102 11.251c-0.076 0-0.178 0-0.254 0.025l-4.825 1.219c-0.432 0.102-0.762 0.508-0.762 0.965v11.429c0 0.305 0.152 0.61 0.406 0.787s0.559 0.254 0.863 0.152l4.876-1.397c0.457-0.127 0.787-0.559 0.787-1.041v-11.073c0-0.33-0.152-0.635-0.406-0.838-0.229-0.152-0.457-0.229-0.686-0.229z"></path>
<path fill="#8400fd" d="M31.492 19.581l-7.619 2.286-0.254-14.476 7.619-1.778z"></path>
<path fill="#fff" d="M24.127 22.375c-0.33 0-0.635-0.102-0.914-0.279-0.381-0.254-0.61-0.66-0.61-1.092v-13.156c0-0.635 0.483-1.168 1.143-1.321l6.222-1.397c0.483-0.102 0.99-0.025 1.397 0.254s0.635 0.711 0.635 1.143v12.775c0 0.635-0.483 1.219-1.168 1.397l-6.273 1.6c-0.152 0.051-0.279 0.076-0.432 0.076zM29.689 6.679c-0.076 0-0.178 0-0.254 0.025l-4.825 1.219c-0.432 0.102-0.762 0.508-0.762 0.965v11.429c0 0.305 0.152 0.61 0.406 0.787s0.559 0.254 0.863 0.152l4.876-1.397c0.457-0.127 0.787-0.559 0.787-1.041v-11.073c0-0.33-0.152-0.635-0.406-0.838-0.229-0.152-0.457-0.229-0.686-0.229z"></path>
</svg>
