<!-- Generated by IcoMoon.io -->
<svg version="1.1" xmlns="http://www.w3.org/2000/svg" viewBox="0 0 32 32">
<title>xaut</title>
<path fill="#000" d="M5.862 2.233l-5.836 12.257c-0.017 0.031-0.026 0.067-0.026 0.106 0 0.066 0.028 0.126 0.073 0.167l0 0 15.755 15.104c0.044 0.039 0.102 0.063 0.165 0.063s0.122-0.024 0.165-0.064l-0 0 15.764-15.104c0.045-0.042 0.073-0.102 0.073-0.168 0-0.039-0.009-0.075-0.026-0.107l0.001 0.001-5.836-12.257c-0.031-0.083-0.11-0.142-0.202-0.142-0.002 0-0.005 0-0.007 0h-19.854c-0.093 0.003-0.173 0.060-0.209 0.14l-0.001 0.002z"></path>
<path fill="#fff" d="M18.025 15.744v0c-0.113 0.009-0.698 0.047-1.999 0.047-1.037 0-1.773-0.028-2.037-0.047v0c-4.007-0.179-6.996-0.877-6.996-1.707s2.989-1.537 6.996-1.716v2.725c0.261 0.019 1.009 0.066 2.046 0.066 1.244 0 1.867-0.056 1.98-0.066v-2.725c3.997 0.179 6.986 0.877 6.986 1.706s-2.98 1.537-6.977 1.716zM18.025 12.048v-2.442h5.582v-3.724h-15.198v3.724h5.581v2.442c-4.535 0.209-7.948 1.103-7.948 2.187s3.413 1.971 7.948 2.187v7.816h4.036v-7.816c4.526-0.209 7.929-1.103 7.929-2.178s-3.404-1.99-7.929-2.196v0z"></path>
</svg>
