<!-- Generated by IcoMoon.io -->
<svg version="1.1" xmlns="http://www.w3.org/2000/svg" viewBox="0 0 32 32">
<title>xcm</title>
<path fill="#32407b" d="M16.098 0c8.862 0 16.098 7.188 16.098 16s-7.237 16-16.098 16c-8.911 0-16.098-7.138-16.098-16s7.188-16 16.098-16z"></path>
<path fill="#32407b" d="M16.098 2.462c7.532 0 13.637 6.055 13.637 13.538s-6.154 13.588-13.637 13.588c-7.532 0-13.637-6.105-13.637-13.588s6.105-13.538 13.637-13.538z"></path>
<path fill="#fff" d="M16.098 29.834c-7.68 0-13.932-6.203-13.932-13.834s6.252-13.834 13.932-13.834c7.68 0 13.932 6.203 13.932 13.834s-6.302 13.834-13.932 13.834zM16.098 2.757c-7.335 0-13.292 5.957-13.292 13.243s5.957 13.243 13.292 13.243c7.335 0 13.292-5.957 13.292-13.243s-5.957-13.243-13.292-13.243z"></path>
<path fill="#fff" d="M21.957 21.514h-11.815c-0.148 0-0.295-0.148-0.295-0.295v-10.338c0-1.723 1.378-3.102 3.151-3.102h6.154c1.723 0 3.151 1.378 3.151 3.102v10.338c-0.049 0.148-0.148 0.295-0.345 0.295v0zM10.486 20.923h11.175v-9.994c0-1.378-1.132-2.511-2.511-2.511h-6.154c-1.378 0-2.511 1.132-2.511 2.511 0 0 0 9.994 0 9.994z"></path>
<path fill="#fff" d="M12.948 19.692c-0.689 0-1.231-0.542-1.231-1.231 0 0 0 0 0 0 0-0.689 0.542-1.231 1.231-1.231 0 0 0 0 0 0 0.689 0 1.231 0.542 1.231 1.231 0 0 0 0 0 0 0 0.689-0.591 1.231-1.231 1.231zM12.948 17.822c-0.345 0-0.64 0.295-0.64 0.64s0.295 0.64 0.64 0.64 0.64-0.295 0.64-0.64c-0.049-0.394-0.295-0.64-0.64-0.64v0zM19.249 19.692c-0.689 0-1.231-0.542-1.231-1.231 0 0 0 0 0 0 0-0.689 0.542-1.231 1.231-1.231 0 0 0 0 0 0 0.689 0 1.231 0.542 1.231 1.231 0 0 0 0 0 0 0 0.689-0.542 1.231-1.231 1.231zM19.249 17.822c-0.345 0-0.64 0.295-0.64 0.64s0.295 0.64 0.64 0.64c0.345 0 0.64-0.295 0.64-0.64 0-0.394-0.295-0.64-0.64-0.64v0zM17.871 9.994h-3.594c-0.148 0-0.295-0.148-0.295-0.295s0.148-0.295 0.295-0.295h3.594c0.148 0 0.295 0.148 0.295 0.295s-0.098 0.295-0.295 0.295zM21.809 24.369c-0.098 0-0.197-0.049-0.246-0.098l-1.92-2.708c-0.098-0.148-0.049-0.295 0.098-0.394s0.295-0.049 0.394 0.098l1.92 2.708c0.098 0.148 0.049 0.295-0.098 0.394 0 0-0.098 0-0.148 0zM10.338 24.369c-0.049 0-0.098 0-0.197-0.049-0.148-0.098-0.148-0.295-0.098-0.394l1.92-2.708c0.098-0.148 0.295-0.197 0.394-0.098s0.197 0.295 0.098 0.394l-1.92 2.708c0 0.098-0.098 0.148-0.197 0.148v0z"></path>
<path fill="#fff" d="M10.831 23.729c-0.049 0-0.098 0-0.197-0.049-0.148-0.098-0.148-0.295-0.098-0.394l1.428-2.018c0.098-0.148 0.295-0.197 0.394-0.098s0.197 0.295 0.098 0.394l-1.428 2.018c0 0.098-0.098 0.148-0.197 0.148zM21.957 12.258h-11.815c-0.148 0-0.295-0.148-0.295-0.295s0.148-0.295 0.295-0.295h11.815c0.148 0 0.295 0.148 0.295 0.295s-0.098 0.295-0.295 0.295zM21.957 16.049h-11.815c-0.148 0-0.295-0.148-0.295-0.295s0.148-0.295 0.295-0.295h11.815c0.148 0 0.295 0.148 0.295 0.295s-0.098 0.295-0.295 0.295z"></path>
<path fill="#fff" d="M12.948 16.049c-0.098 0-0.148 0-0.197-0.098-0.148-0.098-0.148-0.295-0.049-0.394l1.378-1.526c0.098-0.098 0.295-0.148 0.394 0 0.098 0.098 0.148 0.295 0 0.394l-1.378 1.526c0 0.049-0.098 0.098-0.148 0.098zM14.72 16.049c-0.098 0-0.148 0-0.197-0.098-0.098-0.098-0.148-0.295 0-0.394l2.757-3.102c0.098-0.098 0.295-0.148 0.394 0 0.098 0.098 0.148 0.295 0 0.394l-2.757 3.102c-0.049 0.049-0.098 0.098-0.197 0.098zM20.382 22.449h-8.615c-0.148 0-0.295-0.148-0.295-0.295s0.148-0.295 0.295-0.295h8.615c0.148 0 0.295 0.148 0.295 0.295s-0.098 0.295-0.295 0.295zM21.317 23.729h-10.486c-0.148 0-0.295-0.148-0.295-0.295s0.148-0.295 0.295-0.295h10.486c0.148 0 0.295 0.148 0.295 0.295 0.049 0.148-0.098 0.295-0.295 0.295z"></path>
<path fill="#fff" d="M16.098 28.012c-6.695 0-12.111-5.366-12.111-12.012 0-6.597 5.415-12.012 12.062-12.012s12.062 5.366 12.062 12.012-5.366 12.012-12.012 12.012zM16.098 4.578c-6.351 0-11.471 5.12-11.471 11.422s5.169 11.422 11.471 11.422c6.302 0 11.471-5.12 11.471-11.422s-5.169-11.422-11.471-11.422z"></path>
</svg>
