<!-- Generated by IcoMoon.io -->
<svg version="1.1" xmlns="http://www.w3.org/2000/svg" viewBox="0 0 32 32">
<title>xcp</title>
<path fill="#ec1550" d="M32 17.173l-4.657 4.66h-4.425c-0.5 0.001-0.905 0.406-0.906 0.906v2.656c-0.005 0.291-0.242 0.524-0.533 0.524-0 0-0 0-0 0h-3.379c-0 0-0 0-0 0-0.295 0-0.533-0.239-0.533-0.533 0-0 0-0 0-0v0-6.452l2.766-2.766c0.095-0.090 0.224-0.145 0.366-0.145 0.147 0 0.279 0.059 0.376 0.155l1.221 1.221h3.2l2.064-2.063v-2.708l-2.115-2.124h-2.845l-11.309 11.309h-6.591l-4.698-4.694v-6.334l4.703-4.702h6.428l2.787 2.787c0.092 0.096 0.149 0.226 0.149 0.37s-0.057 0.274-0.149 0.37l0-0-2.369 2.361c-0.096 0.111-0.238 0.18-0.395 0.18-0.131 0-0.251-0.048-0.342-0.128l0.001 0.001c-0.013-0.011-0.026-0.024-0.039-0.036l-1.477-1.472h-2.758l-2.104 2.104v2.667l2.098 2.101h2.921l11.311-11.309h6.517l4.72 4.72v6.373z"></path>
</svg>
