<!-- Generated by IcoMoon.io -->
<svg version="1.1" xmlns="http://www.w3.org/2000/svg" viewBox="0 0 32 32">
<title>xec</title>
<path fill="#fff" d="M18.137 12.477l-3.964 2.283c-0.099 0.057-0.164 0.163-0.164 0.283 0 0.001 0 0.002 0 0.004v-0 1.915c0 0.001 0 0.002 0 0.003 0 0.118 0.066 0.22 0.162 0.273l0.002 0.001 1.66 0.957c0.045 0.029 0.099 0.046 0.158 0.046s0.113-0.017 0.159-0.047l-0.001 0.001 6.85-3.945c1.163-0.672 1.163-2.61 0-3.283l-6.156-3.545c-0.243-0.149-0.537-0.237-0.851-0.237s-0.608 0.088-0.858 0.241l0.007-0.004-6.155 3.546c-0.518 0.293-0.861 0.84-0.861 1.468 0 0.004 0 0.008 0 0.012v-0.001c0 2.375 0.010 4.739 0 7.103-0 0.004-0 0.009-0 0.014 0 0.625 0.341 1.171 0.848 1.461l0.008 0.004 6.155 3.556c0.244 0.144 0.538 0.23 0.851 0.23s0.607-0.085 0.859-0.234l-0.008 0.004 6.161-3.556c0.509-0.291 0.846-0.831 0.846-1.449 0-0.010-0-0.021-0-0.031l0 0.002v-3.087l-7.328 4.24c-0.151 0.091-0.334 0.145-0.53 0.145s-0.379-0.054-0.535-0.148l0.005 0.003-3.272-1.896c-0.319-0.181-0.53-0.518-0.53-0.905 0-0.004 0-0.009 0-0.013v0.001-3.78c0-0.001 0-0.003 0-0.005 0-0.383 0.206-0.718 0.514-0.9l0.005-0.003c1.091-0.633 2.191-1.264 3.283-1.896 0.152-0.091 0.335-0.144 0.53-0.144s0.378 0.054 0.535 0.147l-0.005-0.003 1.625 0.928c0.041 0.026 0.067 0.070 0.067 0.121 0 0.053-0.029 0.099-0.072 0.124l-0.001 0z"></path>
<path fill="#fff" d="M16 4.665c-6.26 0-11.335 5.075-11.335 11.335s5.075 11.335 11.335 11.335c6.26 0 11.335-5.075 11.335-11.335v0c0-6.26-5.075-11.335-11.335-11.335v0zM18.137 12.232l-1.625-0.928c-0.152-0.091-0.335-0.144-0.53-0.144s-0.378 0.054-0.535 0.147l0.005-0.003c-1.091 0.633-2.191 1.264-3.283 1.896-0.312 0.185-0.519 0.52-0.519 0.903 0 0.002 0 0.003 0 0.005v-0 3.78c-0 0.004-0 0.008-0 0.013 0 0.387 0.211 0.724 0.525 0.902l0.005 0.003 3.271 1.896c0.152 0.091 0.334 0.145 0.53 0.145s0.378-0.054 0.535-0.148l-0.005 0.003 7.328-4.24v3.087c0 0.010 0 0.021 0 0.033 0 0.616-0.335 1.154-0.832 1.441l-0.008 0.004-6.155 3.556c-0.244 0.144-0.538 0.23-0.851 0.23s-0.607-0.085-0.859-0.234l0.008 0.004-6.156-3.556c-0.518-0.293-0.861-0.84-0.861-1.468 0-0.004 0-0.008 0-0.012v0.001c0.010-2.364 0-4.729 0-7.102-0-0.004-0-0.009-0-0.014 0-0.625 0.341-1.171 0.848-1.461l0.008-0.004 6.155-3.546c0.243-0.149 0.537-0.237 0.851-0.237s0.608 0.088 0.858 0.241l-0.007-0.004 6.161 3.546c1.163 0.672 1.163 2.61 0 3.283l-6.85 3.944c-0.045 0.029-0.099 0.046-0.158 0.046s-0.113-0.017-0.159-0.047l0.001 0.001-1.66-0.957c-0.098-0.053-0.164-0.156-0.164-0.273 0-0.001 0-0.002 0-0.003v0-1.915c0-0.001-0-0.002-0-0.003 0-0.12 0.065-0.226 0.162-0.282l0.002-0.001 3.964-2.283c0.042-0.025 0.070-0.071 0.070-0.123s-0.028-0.097-0.069-0.122l-0.001-0z"></path>
<path fill="#000" d="M16 0c-8.837 0-16 7.163-16 16s7.163 16 16 16c8.837 0 16-7.163 16-16v0c0-8.837-7.163-16-16-16v0zM18.137 12.232l-1.625-0.928c-0.152-0.091-0.335-0.144-0.53-0.144s-0.378 0.054-0.535 0.147l0.005-0.003c-1.091 0.633-2.191 1.264-3.283 1.896-0.312 0.185-0.519 0.52-0.519 0.903 0 0.002 0 0.003 0 0.005v-0 3.78c-0 0.004-0 0.008-0 0.013 0 0.387 0.211 0.724 0.525 0.902l0.005 0.003 3.271 1.896c0.152 0.091 0.334 0.145 0.53 0.145s0.378-0.054 0.535-0.148l-0.005 0.003 7.328-4.24v3.087c0 0.010 0 0.021 0 0.033 0 0.616-0.335 1.154-0.832 1.441l-0.008 0.004-6.155 3.556c-0.244 0.144-0.538 0.23-0.851 0.23s-0.607-0.085-0.859-0.234l0.008 0.004-6.156-3.556c-0.518-0.293-0.861-0.84-0.861-1.468 0-0.004 0-0.008 0-0.012v0.001c0.010-2.364 0-4.729 0-7.102-0-0.004-0-0.009-0-0.014 0-0.625 0.341-1.171 0.848-1.461l0.008-0.004 6.155-3.546c0.243-0.149 0.537-0.237 0.851-0.237s0.608 0.088 0.858 0.241l-0.007-0.004 6.161 3.546c1.163 0.672 1.163 2.61 0 3.283l-6.85 3.944c-0.045 0.029-0.099 0.046-0.158 0.046s-0.113-0.017-0.159-0.047l0.001 0.001-1.66-0.957c-0.098-0.053-0.164-0.156-0.164-0.273 0-0.001 0-0.002 0-0.003v0-1.915c0-0.001-0-0.002-0-0.003 0-0.12 0.065-0.226 0.162-0.282l0.002-0.001 3.964-2.283c0.042-0.025 0.070-0.071 0.070-0.123s-0.028-0.097-0.069-0.122l-0.001-0z"></path>
</svg>
