<!-- Generated by IcoMoon.io -->
<svg version="1.1" xmlns="http://www.w3.org/2000/svg" viewBox="0 0 32 32">
<title>xem</title>
<path fill="#000" d="M16.008 31.885l-0.183-0.092c-7.148-4.185-12.556-11.089-14.755-19.337-0.351-1.298-0.611-2.627-0.794-3.971-0.168-1.344-0.26-2.704-0.275-4.063 0-0.229-0.031-0.199 0.183-0.306 2.688-1.527 5.529-2.642 8.538-3.345 1.115-0.26 2.23-0.458 3.36-0.596 1.558-0.183 3.116-0.26 4.689-0.229 0.886 0.015 1.757 0.076 2.627 0.168 4.384 0.473 8.493 1.787 12.342 3.941 0.061 0.031 0.107 0.061 0.168 0.092s0.092 0.076 0.092 0.153v0.229c-0.015 0.794-0.046 1.573-0.107 2.368-0.092 1.13-0.244 2.245-0.458 3.36-0.458 2.398-1.176 4.705-2.169 6.919-1.573 3.528-3.727 6.675-6.446 9.424-1.955 1.986-4.139 3.696-6.553 5.117-0.092 0.061-0.168 0.107-0.26 0.168zM1.466 5.201v0.183c0 1.115 0.076 2.245 0.214 3.345 0.122 1.008 0.29 2.001 0.519 2.994 0.046 0.168 0.092 0.336 0.168 0.504 1.375 2.917 4.552 4.475 7.698 3.758 2.398-0.55 4.353-2.398 5.010-4.766 0.183-0.657 0.244-1.329 0.275-2.001 0.015-0.443 0.061-0.886 0.137-1.329 0.519-2.688 2.306-4.903 4.827-5.957 0.137-0.061 0.29-0.107 0.428-0.168 0.015-0.015 0.046-0.015 0.046-0.046-0.397-0.137-2.765-0.382-4.185-0.412-3.055-0.061-6.049 0.336-8.966 1.222-2.169 0.657-4.216 1.543-6.171 2.673zM23.996 23.5c0.076-0.046 0.122-0.107 0.153-0.153 0.611-0.764 1.191-1.558 1.726-2.383 1.909-2.963 3.253-6.156 4.002-9.608 0.26-1.176 0.428-2.352 0.535-3.544 0.076-0.81 0.107-1.619 0.107-2.444 0-0.061 0-0.107-0.015-0.168l-0.229-0.137c-0.626-0.351-1.268-0.687-1.909-0.993-0.947-0.443-1.894-0.84-2.887-1.161-1.207-0.382-2.429-0.428-3.651-0.122-3.498 0.84-5.743 4.277-5.071 7.805 0.367 1.955 1.421 3.483 3.101 4.552 0.107 0.076 0.229 0.137 0.336 0.214 1.237 0.748 2.2 1.772 2.887 3.040 0.733 1.329 1.054 2.765 0.962 4.277 0.015 0.26-0.015 0.535-0.046 0.825zM16.008 30.327c0.061-0.031 0.137-0.076 0.199-0.122 1.925-1.13 3.696-2.474 5.316-4.002 0.107-0.092 0.183-0.214 0.244-0.336 0.107-0.199 0.214-0.412 0.305-0.611 0.764-1.589 0.932-3.238 0.428-4.949-0.993-3.299-4.17-5.193-7.362-4.796-0.916 0.107-1.757 0.397-2.551 0.855-1.512 0.855-3.131 1.207-4.873 1.039-0.855-0.076-1.665-0.305-2.444-0.642-0.611-0.275-1.191-0.611-1.711-1.023-0.031-0.031-0.076-0.046-0.153-0.092 0.015 0.076 0.031 0.122 0.046 0.153 0.687 1.741 1.527 3.391 2.52 4.964 1.085 1.695 2.322 3.269 3.727 4.705s2.948 2.719 4.613 3.834c0.764 0.489 1.482 0.932 1.695 1.023z"></path>
<path fill="#f7a800" d="M1.466 5.201c1.955-1.13 4.002-2.016 6.156-2.658 2.933-0.871 5.911-1.283 8.966-1.222 1.421 0.031 3.788 0.26 4.185 0.412 0.015 0.031-0.015 0.046-0.046 0.046-0.137 0.061-0.29 0.107-0.428 0.168-2.52 1.054-4.307 3.269-4.827 5.957-0.076 0.443-0.122 0.886-0.137 1.329-0.015 0.672-0.076 1.344-0.275 2.001-0.672 2.368-2.612 4.216-5.010 4.766-3.147 0.718-6.324-0.84-7.698-3.758-0.076-0.168-0.137-0.336-0.168-0.504-0.229-0.993-0.397-1.986-0.519-2.994-0.137-1.115-0.214-2.23-0.214-3.345 0.015-0.076 0.015-0.122 0.015-0.199z"></path>
<path fill="#67b2e8" d="M23.996 23.5c0.031-0.29 0.061-0.55 0.076-0.825 0.076-1.512-0.244-2.948-0.962-4.277-0.687-1.268-1.65-2.276-2.887-3.040-0.107-0.076-0.229-0.137-0.336-0.214-1.695-1.069-2.734-2.581-3.101-4.552-0.657-3.544 1.573-6.965 5.071-7.805 1.237-0.29 2.444-0.26 3.651 0.122 0.993 0.305 1.94 0.718 2.887 1.161 0.657 0.306 1.283 0.642 1.909 0.993 0.076 0.046 0.137 0.076 0.229 0.137 0 0.061 0.015 0.107 0.015 0.168 0 0.81-0.046 1.634-0.107 2.444-0.107 1.191-0.29 2.383-0.535 3.544-0.748 3.452-2.077 6.644-4.002 9.608-0.535 0.825-1.115 1.619-1.726 2.383-0.061 0.046-0.092 0.107-0.183 0.153z"></path>
<path fill="#00c4b3" d="M16.008 30.327c-0.229-0.092-0.932-0.519-1.68-1.023-1.665-1.115-3.208-2.398-4.613-3.834s-2.658-3.009-3.727-4.705c-1.008-1.573-1.848-3.223-2.52-4.964-0.015-0.046-0.031-0.076-0.046-0.153 0.076 0.046 0.107 0.061 0.153 0.092 0.535 0.412 1.1 0.764 1.711 1.023 0.779 0.336 1.589 0.565 2.444 0.642 1.726 0.168 3.345-0.183 4.873-1.039 0.794-0.443 1.65-0.733 2.551-0.855 3.192-0.397 6.369 1.497 7.362 4.796 0.504 1.695 0.351 3.345-0.428 4.949-0.107 0.214-0.199 0.412-0.305 0.611-0.061 0.122-0.137 0.244-0.244 0.336-1.619 1.527-3.391 2.872-5.316 4.002-0.076 0.046-0.153 0.092-0.214 0.122z"></path>
</svg>
