<!-- Generated by IcoMoon.io -->
<svg version="1.1" xmlns="http://www.w3.org/2000/svg" viewBox="0 0 32 32">
<title>xlm</title>
<path d="M27.525 5.988l-22.494 11.458c-0.060-0.435-0.095-0.938-0.095-1.449v-0c0.008-6.125 4.975-11.086 11.101-11.086 1.988 0 3.854 0.523 5.468 1.438l-0.055-0.029 2.538-1.294c-2.205-1.616-4.972-2.586-7.965-2.586-7.489 0-13.559 6.071-13.559 13.559 0 0.001 0 0.001 0 0.001v-0q0 0.518 0.039 1.032c0.004 0.056 0.007 0.121 0.007 0.186 0 0.954-0.541 1.781-1.333 2.191l-0.014 0.006-1.165 0.594v2.77l32.049-16.331v-2.769z"></path>
<path d="M32.049 9.22l-32.049 16.323v2.767l27.024-13.77c0.060 0.438 0.095 0.944 0.095 1.459v0c-0.004 6.128-4.973 11.094-11.101 11.094-1.995 0-3.866-0.526-5.484-1.447l0.055 0.029-0.136 0.072-2.395 1.22c2.205 1.617 4.972 2.587 7.966 2.587 7.487 0 13.557-6.068 13.559-13.555v-0c0-0.348-0.014-0.697-0.039-1.041-0.004-0.056-0.007-0.121-0.007-0.186 0-0.953 0.54-1.78 1.332-2.191l0.014-0.006 1.166-0.594z"></path>
</svg>
