<!-- Generated by IcoMoon.io -->
<svg version="1.1" xmlns="http://www.w3.org/2000/svg" viewBox="0 0 32 32">
<title>xmr</title>
<path fill="#fff" d="M31.996 15.998c0 8.835-7.162 15.998-15.998 15.998s-15.998-7.163-15.998-15.998 7.162-15.998 15.998-15.998 15.998 7.162 15.998 15.998z"></path>
<path fill="#f26822" d="M15.998 0c-8.833 0-16.007 7.173-15.996 15.998 0.002 1.766 0.284 3.464 0.812 5.053h4.786v-13.458l10.398 10.398 10.397-10.398v13.459h4.787c0.529-1.589 0.809-3.287 0.812-5.053 0.015-8.834-7.163-15.996-15.997-15.996z"></path>
<path fill="#4d4d4d" d="M13.607 20.38l-4.538-4.538v8.469l-6.743 0.001c2.808 4.607 7.883 7.689 13.672 7.689s10.864-3.082 13.672-7.689h-6.745v-8.469l-6.928 6.928-2.39-2.39z"></path>
</svg>
