<!-- Generated by IcoMoon.io -->
<svg version="1.1" xmlns="http://www.w3.org/2000/svg" viewBox="0 0 32 32">
<title>xmx</title>
<path fill="#f03" d="M16 19.045v0h0.049l14.71-7.176v2.075l-11.85 5.77 11.83 2.909v1.939l-14.439-3.569-14.788 7.215v-2.027zM16 11.016l14.759-7.195v2.075l-29.304 14.284v-2.075l11.908-5.818-11.908-2.899v-1.939zM1.455 0l14.72 3.588v1.939l-14.72-3.588zM1.455 5.663v-1.939l14.739 3.607v1.939zM1.455 22.148l29.304-14.303v2.075l-29.304 14.264zM30.739 28.267l-14.739-3.607v-1.939l14.72 3.598zM16 28.373v-1.939l14.759 3.627v1.939z"></path>
</svg>
