<!-- Generated by IcoMoon.io -->
<svg version="1.1" xmlns="http://www.w3.org/2000/svg" viewBox="0 0 32 32">
<title>xmy</title>
<path fill="#0f6089" d="M31.996 15.679c0.003 0.109 0.004 0.215 0.004 0.323 0 0.007 0 0.016 0 0.025 0 2.68-0.662 5.206-1.832 7.422l0.042-0.087-8.724 3.521 0.018-0.040z"></path>
<path fill="#078fa4" d="M31.996 15.676l-10.49 11.168 9.745-15.695c0.444 1.347 0.714 2.9 0.745 4.511l0 0.015z"></path>
<path fill="#00aaa6" d="M31.25 11.149l-9.771 15.737-1.168-20.31 9.797 3.666 1.142 0.908z"></path>
<path fill="#00aaa6" d="M31.25 11.149l-1.142-0.908 0.956 0.357c0.067 0.182 0.13 0.367 0.187 0.551z"></path>
<path fill="#1eaae2" d="M31.063 10.598l-9.442-9.581c4.408 1.69 7.815 5.141 9.406 9.47l0.036 0.111zM21.621 1.017l9.442 9.581-0.956-0.357-8.98-7.133 0.492-2.091h0.001z"></path>
<path fill="#0c7392" d="M21.486 26.883l8.723-3.523c-2.213 4.206-6.127 7.263-10.802 8.279l-0.106 0.019 2.094-4.572z"></path>
<path fill="#1eaae2" d="M30.108 10.241l-9.797-3.666 0.817-3.468 8.98 7.133z"></path>
<path fill="#abcf3a" d="M21.62 1.017l-0.493 2.091-3.85-3.057c1.593 0.127 3.069 0.47 4.451 1.002l-0.108-0.037z"></path>
<path fill="#cd1685" d="M21.479 26.886l0.026-0.042-0.018 0.040-0.009 0.003z"></path>
<path fill="#8f9990" d="M21.488 26.883l-0.093 0.203-11.312-8.252 0.146-0.13 10.082-12.128 1.168 20.31 0.009-0.003z"></path>
<path fill="#cd1685" d="M21.395 27.086l-2.094 4.572c-0.987 0.218-2.12 0.342-3.282 0.342-0.006 0-0.012 0-0.017 0h0.001c-0.442 0-0.874-0.018-1.303-0.052l-9.953-8.653 0.29 0.063z"></path>
<path fill="#ec1076" d="M21.395 27.086l-16.359-3.726 5.047-4.527 11.312 8.252z"></path>
<path fill="#abcf3a" d="M21.128 3.108l-0.817 3.468-3.034-6.524 3.851 3.057z"></path>
<path fill="#e0e224" d="M17.277 0.051l3.033 6.524-11.141-5.049c1.992-0.963 4.333-1.526 6.804-1.526 0.009 0 0.019 0 0.028 0h-0.001c0.43 0 0.855 0.018 1.277 0.051z"></path>
<path fill="#f9a516" d="M20.311 6.575l-10.082 12.128-4.384-5.407 14.466-6.721z"></path>
<path fill="#fdcd11" d="M20.311 6.575l-14.466 6.721 3.324-11.768 11.142 5.047z"></path>
<path fill="#cd1685" d="M14.758 32l-0.108-0.057 0.047 0.004z"></path>
<path fill="#b9204a" d="M4.746 23.294l9.951 8.653-0.047-0.004-11.070-5.857 1.096-2.854zM3.58 26.087l11.070 5.857c-4.485-0.386-8.395-2.574-11.047-5.828l-0.023-0.029z"></path>
<path fill="#f05b28" d="M5.845 13.297l4.384 5.407-0.146 0.13-7.758-0.163 3.52-5.373z"></path>
<path fill="#f05b28" d="M10.082 18.833l-5.047 4.527-2.711-4.69 7.758 0.163z"></path>
<path fill="#fdcd11" d="M9.169 1.528l-3.324 11.769-3.52 5.373 0.013-0.113-2.311-3.432c0.321-6.020 3.971-11.153 9.142-13.597z"></path>
<path fill="#ab1f25" d="M2.325 18.67l2.711 4.69-0.29-0.066-2.421-4.625zM4.746 23.294l-0.070-0.063-1.096 2.855c-0.652-0.796-1.247-1.69-1.748-2.639l-0.042-0.087 0.535-4.689z"></path>
<path fill="#cb0010" d="M0.023 15.125l2.314 3.432-0.013 0.113-0.535 4.689-1.767-8.234z"></path>
<path fill="#cb0010" d="M0.026 15.125l1.767 8.234c-1.13-2.131-1.794-4.659-1.794-7.341 0-0.006 0-0.012 0-0.018v0.001c0-0.293 0.007-0.584 0.026-0.875z"></path>
<path fill="#fff" d="M24.986 18.703l0.728-3.069c0.28-0.751 0.442-1.618 0.442-2.523 0-0.024-0-0.049-0-0.073l0 0.004c-0-0.611-0.236-1.168-0.622-1.582l0.001 0.001-0.109-0.117c-0.746-0.804-2.083-1.262-3.182-1.262h-0.384c-0.001 0-0.002 0-0.002 0-1.037 0-1.981 0.401-2.685 1.056l0.002-0.002-0.908 0.846-0.155-0.356c-0.086-0.195-0.199-0.363-0.338-0.505l0 0c-0.721-0.732-1.724-1.185-2.832-1.185-0.001 0-0.002 0-0.003 0h0c-0 0-0 0-0.001 0-0.823 0-1.588 0.25-2.223 0.677l0.014-0.009-0.895 0.647v-0.063c-0-0.612-0.496-1.108-1.108-1.108h-9.705l-0.877 3.216 8.037 0.146-1.181 6.347c-0.201 0.864 0.346 1.715 1.23 1.822 0.054 0.007 0.117 0.011 0.18 0.011 0.656 0 1.212-0.433 1.395-1.030l0.003-0.010 2.198-6.791c0.237-0.792 1.306-1.296 2.127-1.188 0.833 0.112 1.469 0.818 1.469 1.673 0 0.164-0.023 0.322-0.067 0.472l0.003-0.012-1.158 5.045c-0.043 0.147-0.068 0.315-0.068 0.49 0 0.991 0.803 1.794 1.794 1.794 0 0 0 0 0.001 0h-0c0.766 0 1.155-0.485 1.404-1.209l2.206-6.557c0.256-0.743 1.165-1.185 1.938-1.038 0.737 0.144 1.285 0.785 1.285 1.554 0 0.162-0.024 0.319-0.070 0.466l0.003-0.011-1.17 4.305c-0.053 0.168-0.084 0.362-0.084 0.563 0 1.064 0.862 1.926 1.926 1.926 0 0 0 0 0 0v0l7.556-0.146 0.877-3.215z"></path>
</svg>
