<!-- Generated by IcoMoon.io -->
<svg version="1.1" xmlns="http://www.w3.org/2000/svg" viewBox="0 0 32 32">
<title>xor</title>
<path fill="#e3242d" d="M6.213 15.979v-2.632h8.463v-2.703h-8.463v-2.618h19.559v2.632h-8.463v2.703h8.463v2.632h-8.463l8.506 12.653c3.765-2.93 6.185-7.501 6.185-12.639 0-8.846-7.161-16.007-15.993-16.007-8.846 0-16.007 7.161-16.007 16.007 0 5.138 2.42 9.709 6.185 12.639l8.506-12.653c0-0.014-8.478-0.014-8.478-0.014z"></path>
<path fill="#e3242d" d="M8.379 30.075c2.264 1.231 4.854 1.925 7.614 1.925s5.35-0.694 7.614-1.925l-7.614-11.351-7.614 11.351z"></path>
</svg>
