<!-- Generated by IcoMoon.io -->
<svg version="1.1" xmlns="http://www.w3.org/2000/svg" viewBox="0 0 32 32">
<title>xpr</title>
<path d="M9.854 10.988c-0.053 0.445-0.106 0.911-0.138 1.377v0c-0.805 0.562-1.558 1.134-2.257 1.706v0c-0.36 0.297-0.71 0.593-1.038 0.901v0c-2.585-2.638-3.687-5.012-2.977-6.23v0c0.625-1.081 2.723-1.388 5.669-0.805v0c0.117-0.509 0.233-0.996 0.371-1.462v0c-3.571-0.721-6.294-0.244-7.322 1.526v0c-0.276 0.466-0.413 0.996-0.413 1.558v0 0.053c0.021 2.511 2.49 5.87 6.612 9.038v0c0.424 0.328 0.879 0.657 1.346 0.985v0c0.085 1.028 0.212 2.013 0.371 2.935v0c0.074 0.413 0.148 0.816 0.233 1.208v0c-3.571 0.922-6.167 0.689-6.877-0.53v0c-0.625-1.081 0.159-3.062 2.13-5.319v0l-1.028-1.081c-2.437 2.755-3.412 5.372-2.384 7.152v0c0.721 1.25 2.278 1.844 4.376 1.844v0c2.109 0 4.758-0.604 7.661-1.78v0c0.074-0.032 0.148-0.064 0.233-0.095v0c0.509-0.212 1.017-0.434 1.536-0.678v0c0.021-0.011 0.042-0.021 0.064-0.032v0c0.922 0.424 1.833 0.805 2.734 1.134v0c0.392 0.148 0.784 0.276 1.166 0.403v0c-0.985 3.56-2.49 5.701-3.899 5.701v0c-1.25 0-2.575-1.674-3.539-4.535v0c-0.487 0.17-0.964 0.318-1.441 0.445v0c1.166 3.454 2.935 5.573 4.98 5.573 2.977 0 5.351-4.472 6.167-10.988v0c0.053-0.445 0.095-0.911 0.138-1.367v0c0.837-0.583 1.621-1.187 2.352-1.801v0c0.042-0.032 0.085-0.064 0.127-0.106v0c0.276-0.233 0.54-0.466 0.805-0.71v0c2.596 2.628 3.698 5.012 2.988 6.23v0c-0.583 1.007-2.501 1.346-5.128 0.911v0c-0.18-0.032-0.35-0.064-0.53-0.095v0c-0.117 0.498-0.233 0.975-0.371 1.441v0c0.223 0.042 0.445 0.085 0.657 0.117v0c0.837 0.138 1.611 0.212 2.321 0.212v0c2.13 0 3.645-0.625 4.344-1.833v0c0.932-1.611 0.254-3.952-1.918-6.58v0c-1.123-1.367-2.585-2.744-4.281-4.058v0c-0.434-0.339-0.89-0.668-1.346-0.996v0c-0.085-1.028-0.212-2.013-0.381-2.946v0c-0.074-0.413-0.148-0.816-0.233-1.208v0c0.604-0.159 1.187-0.286 1.748-0.381v0c2.628-0.434 4.546-0.095 5.128 0.911v0c0.615 1.060-0.138 2.999-2.045 5.213v0c0.371 0.36 0.71 0.721 1.028 1.070v0c0.138-0.148 0.265-0.307 0.381-0.456v0c2.162-2.628 2.85-4.97 1.918-6.58v0c-0.932-1.611-3.295-2.193-6.654-1.632v0c-1.558 0.254-3.264 0.752-5.033 1.43v0c-0.074 0.032-0.138 0.053-0.212 0.085v0c-0.593 0.233-1.187 0.487-1.78 0.763v0c-0.053 0.021-0.106 0.053-0.159 0.074v0c-0.932-0.434-1.854-0.827-2.744-1.155v0c-0.392-0.148-0.784-0.276-1.166-0.403v0c0.985-3.55 2.49-5.69 3.899-5.69v0c1.25 0 2.585 1.685 3.55 4.546v0c0.487-0.159 0.964-0.307 1.441-0.445v0c-1.197-3.423-2.967-5.552-5.023-5.552v0c-2.967 0-5.351 4.472-6.156 10.988v0zM19.327 10.448c-0.021-0.021-0.053-0.032-0.074-0.042v0c-0.498-0.286-1.007-0.562-1.494-0.826v0c0.042-0.021 0.085-0.042 0.127-0.053v0c0.604-0.254 1.208-0.487 1.791-0.689v0c0.201-0.074 0.403-0.138 0.593-0.201v0c0.085 0.392 0.159 0.784 0.233 1.197v0c0.085 0.477 0.148 0.964 0.212 1.462v0c-0.456-0.286-0.922-0.572-1.388-0.848v0zM11.518 9.886c0.074-0.434 0.148-0.848 0.244-1.25v0c0.392 0.127 0.784 0.254 1.187 0.413v0c0.434 0.159 0.879 0.339 1.335 0.53v0c-0.498 0.265-1.007 0.54-1.505 0.826v0c-0.021 0.011-0.042 0.021-0.064 0.042v0c-0.477 0.275-0.943 0.562-1.399 0.848v0c0.064-0.487 0.127-0.954 0.201-1.409v0zM13.521 20.313c-0.36-0.201-0.71-0.413-1.049-0.625v0c-0.466-0.286-0.911-0.572-1.346-0.869v0c-0.064-0.901-0.095-1.844-0.095-2.819v0c0-0.509 0.011-1.007 0.032-1.494v0c0.021-0.456 0.042-0.89 0.074-1.325v0c0.752-0.509 1.547-1.007 2.384-1.494v0c0.318-0.191 0.646-0.371 0.964-0.54v0c0.509-0.275 1.017-0.53 1.526-0.784v0c0.816 0.392 1.642 0.837 2.49 1.325v0c0.36 0.212 0.71 0.413 1.049 0.625v0c0.466 0.286 0.911 0.572 1.346 0.869v0c0.064 0.901 0.095 1.844 0.095 2.819v0c0 0.509-0.011 1.007-0.032 1.494v0c-0.021 0.445-0.042 0.89-0.074 1.325v0c-0.752 0.509-1.547 1.007-2.384 1.494v0c-0.223 0.127-0.434 0.254-0.657 0.371v0c-0.562 0.318-1.123 0.604-1.674 0.879v0c-0.053 0.021-0.106 0.053-0.159 0.074v0c-0.826-0.403-1.664-0.848-2.49-1.325v0zM8.286 16.678c-0.275-0.223-0.53-0.456-0.784-0.678v0c0.35-0.307 0.71-0.625 1.091-0.932v0c0.318-0.254 0.646-0.519 0.996-0.774v0c-0.021 0.424-0.032 0.858-0.032 1.293v0c0 0.138 0 0.275 0 0.413v0c0 0.583 0.011 1.144 0.032 1.706v0c-0.456-0.339-0.901-0.678-1.303-1.028v0zM22.474 16.424c0-0.138 0-0.276 0-0.424v0c0-0.583-0.011-1.144-0.032-1.706v0c0.456 0.339 0.89 0.689 1.303 1.028v0c0.265 0.223 0.53 0.456 0.773 0.678v0c-0.276 0.244-0.562 0.498-0.858 0.742v0c-0.042 0.032-0.085 0.074-0.127 0.106v0c-0.35 0.286-0.721 0.583-1.102 0.869v0c0.021-0.424 0.042-0.858 0.042-1.293v0zM11.528 22.167c-0.085-0.477-0.148-0.964-0.212-1.462v0c0.456 0.286 0.911 0.562 1.388 0.837v0c0.021 0.021 0.053 0.032 0.074 0.042v0c0.498 0.286 0.996 0.562 1.505 0.826v0c0 0-0.011 0-0.011 0.011v0c-0.53 0.223-1.049 0.424-1.558 0.615v0c-0.074 0.032-0.148 0.053-0.223 0.085v0c-0.244 0.085-0.487 0.17-0.731 0.244v0c-0.085-0.381-0.159-0.784-0.233-1.197v0zM19.083 22.951c-0.445-0.17-0.89-0.339-1.346-0.53v0c0.064-0.032 0.127-0.064 0.191-0.095v0c0.434-0.233 0.869-0.477 1.314-0.721v0c0.127-0.074 0.254-0.148 0.371-0.223v0c0.371-0.223 0.731-0.445 1.091-0.668v0c-0.064 0.477-0.127 0.954-0.201 1.399v0c-0.074 0.434-0.159 0.848-0.244 1.261v0c-0.381-0.138-0.773-0.276-1.176-0.424v0zM14.103 16v0c0-1.049 0.858-1.907 1.907-1.907v0c1.049 0 1.907 0.858 1.907 1.907v0c0 1.049-0.858 1.907-1.907 1.907v0c-1.049 0-1.907-0.858-1.907-1.907z"></path>
</svg>
