<!-- Generated by IcoMoon.io -->
<svg version="1.1" xmlns="http://www.w3.org/2000/svg" viewBox="0 0 32 32">
<title>xsr</title>
<path fill="#383b4a" d="M16 0c8.835 0 16 7.165 16 16s-7.165 16-16 16-16-7.165-16-16 7.165-16 16-16z"></path>
<path fill="#fff" d="M24.97 16.976l-0.653 0.653c-7.418-7.386-15.645-3.28-17.61-2.125 0.074-0.226 0.195-0.419 0.352-0.576l0-0 7.93-7.93c0.262-0.262 0.624-0.425 1.024-0.425s0.762 0.162 1.024 0.425l7.93 7.93c0.264 0.262 0.428 0.625 0.428 1.026 0 0.399-0.162 0.761-0.424 1.022l-0 0z"></path>
<path fill="#fff" d="M18.835 23.11l-1.795 1.795c-0.262 0.262-0.624 0.425-1.024 0.425s-0.762-0.162-1.024-0.425l-1.715-1.715c2.758-1.952 5.117-0.41 5.558-0.080z"></path>
<path fill="#fff" d="M23.914 18.032l-2.048 2.048c-6.086-5.645-12.192-2.010-13.107-1.408l-0.451-0.451c0.006-0.003 0.012-0.008 0.016-0.013l0-0c7.974-6.394 14.915-0.755 15.59-0.176z"></path>
<path fill="#fff" d="M11.427 21.344l-0.493-0.493c4.733-4.314 9.933-0.643 10.435-0.272l-2.093 2.093c-3.747-3.606-7.222-1.722-7.85-1.328z"></path>
</svg>
