<!-- Generated by IcoMoon.io -->
<svg version="1.1" xmlns="http://www.w3.org/2000/svg" viewBox="0 0 32 32">
<title>xtz</title>
<path fill="#2c7df7" d="M19.429 32q-3.425 0-5-1.65c-0.94-0.901-1.535-2.155-1.57-3.549l-0-0.006c-0.001-0.020-0.001-0.044-0.001-0.068 0-0.405 0.102-0.786 0.282-1.119l-0.006 0.012c0.182-0.314 0.436-0.568 0.74-0.745l0.010-0.005c0.34-0.173 0.742-0.275 1.168-0.275s0.827 0.102 1.182 0.282l-0.015-0.007c0.313 0.182 0.566 0.436 0.741 0.741l0.005 0.010c0.18 0.321 0.286 0.705 0.286 1.113 0 0.022-0 0.044-0.001 0.066l0-0.003c0.001 0.028 0.002 0.061 0.002 0.093 0 0.48-0.15 0.924-0.407 1.289l0.005-0.007c-0.232 0.324-0.558 0.567-0.937 0.692l-0.013 0.004c0.369 0.467 0.888 0.802 1.483 0.932l0.017 0.003c0.612 0.184 1.315 0.292 2.043 0.295h0.002c0.012 0 0.026 0 0.040 0 0.945 0 1.823-0.288 2.551-0.78l-0.016 0.010c0.779-0.555 1.366-1.334 1.671-2.243l0.009-0.032c0.349-0.97 0.551-2.088 0.551-3.254 0-0.053-0-0.106-0.001-0.159l0 0.008c0.002-0.071 0.003-0.154 0.003-0.238 0-1.187-0.221-2.322-0.625-3.366l0.022 0.064c-0.334-0.921-0.939-1.677-1.719-2.19l-0.016-0.010c-0.699-0.449-1.552-0.715-2.467-0.715-0.011 0-0.023 0-0.034 0h0.002c-0.812 0.071-1.55 0.335-2.184 0.746l0.018-0.011-1.605 0.805v-0.805l7.215-9.679h-10v10.044c-0.002 0.042-0.003 0.091-0.003 0.14 0 0.71 0.206 1.372 0.561 1.93l-0.009-0.015c0.347 0.492 0.913 0.809 1.553 0.809 0.045 0 0.089-0.002 0.133-0.005l-0.006 0c0.629-0.013 1.205-0.231 1.666-0.59l-0.006 0.005c0.542-0.4 1.003-0.873 1.377-1.411l0.013-0.020c0.036-0.099 0.098-0.181 0.179-0.239l0.001-0.001c0.064-0.056 0.149-0.090 0.241-0.090h0c0.181 0.017 0.343 0.090 0.471 0.201l-0.001-0.001c0.158 0.176 0.255 0.41 0.255 0.667 0 0.004-0 0.009-0 0.013v-0.001c-0.022 0.192-0.054 0.362-0.096 0.527l0.006-0.027c-0.368 0.877-0.958 1.599-1.7 2.119l-0.016 0.010c-0.668 0.458-1.494 0.731-2.384 0.731-0.008 0-0.015-0-0.023-0h0.001q-3.248 0-4.5-1.28c-0.774-0.848-1.248-1.982-1.248-3.226 0-0.096 0.003-0.192 0.008-0.287l-0.001 0.013v-10.019h-5.086v-1.866h5.11v-4.255l-1.17-1.171v-0.954h3.395l1.275 0.66v5.72l13.21-0.040 1.315 1.32-8.1 8.139c0.447-0.186 0.966-0.317 1.508-0.368l0.022-0.002c1.095 0.049 2.108 0.357 2.993 0.862l-0.033-0.017c1.064 0.513 1.93 1.291 2.535 2.251l0.015 0.025c0.525 0.785 0.923 1.704 1.14 2.692l0.010 0.053c0.163 0.702 0.263 1.511 0.275 2.342l0 0.009c0 0.010 0 0.023 0 0.035 0 1.573-0.369 3.059-1.026 4.377l0.026-0.057c-0.641 1.318-1.682 2.359-2.962 2.983l-0.038 0.017c-1.252 0.631-2.728 1-4.291 1-0.010 0-0.021-0-0.031-0h0.002z"></path>
</svg>
