<!-- Generated by IcoMoon.io -->
<svg version="1.1" xmlns="http://www.w3.org/2000/svg" viewBox="0 0 32 32">
<title>xwc</title>
<path fill="#40506b" d="M21.943 13.486v1.981h5.486c-0.076-0.533-0.076-1.448-0.305-1.981h-5.181z"></path>
<path fill="#40506b" d="M27.429 16.762h-6.476v1.981h6.171c0.229-0.61 0.229-1.448 0.305-1.981z"></path>
<path fill="#40506b" d="M4.419 18.667h6.171v-1.981h-6.476c0.076 0.61 0.076 1.448 0.305 1.981z"></path>
<path fill="#40506b" d="M4.419 13.486c-0.076 0.533-0.229 1.371-0.305 1.981h5.486v-1.981h-5.181z"></path>
<path fill="#40506b" d="M15.695 15.771c-0.305 1.143-0.686 2.286-0.99 3.429s-0.686 2.286-1.067 3.429h-2.667c-0.305-0.686-0.61-1.371-0.914-2.286-0.305-0.838-0.686-1.829-0.99-2.895-0.305-0.99-0.686-2.133-1.067-3.352s-0.686-2.286-0.99-3.581h3.581c0.076 0.533 0.305 1.143 0.381 1.752 0.152 0.686 0.305 1.295 0.457 1.981s0.305 1.371 0.457 2.057c0.152 0.686 0.381 1.371 0.533 1.981 0.229-0.686 0.381-1.371 0.61-2.057s0.381-1.371 0.533-2.057c0.152-0.686 0.305-1.371 0.457-1.981 0.152-0.686 0.305-1.219 0.457-1.752h2.514c0.076 0.533 0.305 1.143 0.457 1.752 0.152 0.686 0.305 1.295 0.457 1.981s0.305 1.371 0.533 2.057c0.152 0.686 0.381 1.371 0.61 2.057 0.152-0.686 0.381-1.295 0.533-1.981s0.381-1.371 0.533-2.057c0.152-0.686 0.305-1.371 0.457-1.981 0.152-0.686 0.305-1.219 0.381-1.752h3.581c-0.305 1.219-0.686 2.362-0.99 3.581-0.381 1.219-0.686 2.286-1.067 3.352-0.305 0.99-0.686 1.981-0.99 2.895-0.305 0.838-0.61 1.676-0.914 2.286h-2.667c-0.381-1.143-0.762-2.286-1.143-3.429s-0.686-2.21-1.067-3.429z"></path>
<path fill="#40506b" d="M16 32c-8.838 0-16-7.162-16-16s7.162-16 16-16 16 7.162 16 16-7.162 16-16 16zM16 2.286c-7.543 0-13.714 6.171-13.714 13.714s6.171 13.714 13.714 13.714 13.714-6.171 13.714-13.714-6.171-13.714-13.714-13.714z"></path>
</svg>
