<!-- Generated by IcoMoon.io -->
<svg version="1.1" xmlns="http://www.w3.org/2000/svg" viewBox="0 0 32 32">
<title>xyo</title>
<path fill="#8c91c7" d="M23.959 2.073l-16.017 0.075-7.942 13.911 8.075 13.836 16.017-0.075 7.942-13.911zM23.080 28.087l-14.010 0.066-7.063-12.104 6.947-12.17 14.010-0.066 7.063 12.104z"></path>
<path fill="#8c91c7" d="M25.459 13.148h-0.928l-1.716-8.953-9.708 3.067v-0.854l9.6-3.009 0.771 0.356z"></path>
<path fill="#8c91c7" d="M10.52 5.72l-0.605 0.381-1.575-2.429h0.854z"></path>
<path fill="#8c91c7" d="M10.686 9.782h0.804v12.021h-0.804z"></path>
<path fill="#8c91c7" d="M8.555 27.88l0.481 0.837 1.045-1.973-0.531-0.605z"></path>
<path fill="#8c91c7" d="M23.121 28.692l-0.232 0.025-9.567-3.283 0.207-0.68 9.152 3.051 1.907-9.186h0.796z"></path>
<path fill="#8c91c7" d="M30.292 16.332h-2.321l0.050-0.821 2.288-0.008z"></path>
<path fill="#8c91c7" d="M13.364 23.403l9.923-5.687-0.531-0.638-9.741 5.679z"></path>
<path fill="#8c91c7" d="M8.895 22.814l-7.387-6.483 0.116-0.995 7.693-6.831 0.431 0.663-7.519 6.815 7.196 6.276z"></path>
<path fill="#8c91c7" d="M23.038 14.939l-10.114-5.894 0.39-0.696 10.081 5.878z"></path>
<path fill="#f43b7b" d="M25.384 12.875c-1.691 0-3.067 1.376-3.067 3.067s1.376 3.067 3.067 3.067 3.067-1.376 3.067-3.067-1.368-3.067-3.067-3.067zM25.384 18.213c-1.252 0-2.263-1.011-2.263-2.263s1.011-2.263 2.263-2.263 2.263 1.011 2.263 2.263-1.011 2.263-2.263 2.263z"></path>
<path fill="#5aa2da" d="M11.241 5.223c-1.36 0-2.462 1.103-2.462 2.462s1.103 2.462 2.462 2.462 2.462-1.103 2.462-2.462c-0.008-1.368-1.103-2.462-2.462-2.462zM11.241 9.418c-0.962 0-1.741-0.779-1.741-1.741s0.779-1.741 1.741-1.741 1.741 0.779 1.741 1.741-0.779 1.741-1.741 1.741z"></path>
<path fill="#f66f4d" d="M11.067 21.438c-1.575 0-2.86 1.277-2.86 2.86s1.277 2.86 2.86 2.86c1.575 0 2.86-1.277 2.86-2.86s-1.277-2.86-2.86-2.86zM11.067 26.33c-1.127 0-2.031-0.912-2.031-2.031 0-1.127 0.912-2.031 2.031-2.031 1.127 0 2.031 0.912 2.031 2.031 0.008 1.119-0.904 2.031-2.031 2.031z"></path>
</svg>
