<!-- Generated by IcoMoon.io -->
<svg version="1.1" xmlns="http://www.w3.org/2000/svg" viewBox="0 0 32 32">
<title>yfi</title>
<path fill="#006ae3" d="M16 0c8.835 0 16 7.165 16 16s-7.165 16-16 16-16-7.165-16-16 7.165-16 16-16z"></path>
<path fill="#fff" d="M15.341 22.746v-13.312h1.45v13.312h-1.45z"></path>
<path fill="#fff" d="M22.72 13.869l-4.477 1.187-0.998-4.646 1.331-0.301 0.525 2.202s1.21-1.984-0.403-4.038c-0.95-1.056-1.402-1.101-2.467-1.267-0.938-0.134-3.117 0.182-3.766 2.726-0.275 1.638 0.035 2.851 2.147 4.438l-0.118 1.766s-2.358-1.661-2.966-2.826c-0.47-0.922-1.277-2.742 0.179-5.277 0.784-1.267 2.33-2.483 5.053-2.355 1.37 0.058 4.714 1.731 4.195 5.642-0.090 0.733-0.47 1.709-0.47 1.709l1.837-0.41 0.4 1.45z"></path>
<path fill="#fff" d="M20.163 24.285c-0.819 1.245-2.397 2.419-5.114 2.221-1.37-0.093-4.666-1.856-4.045-5.75 0.109-0.73 0.515-1.693 0.515-1.693l-1.846 0.358-0.362-1.456 4.509-1.069 0.877 4.672-1.341 0.266-0.467-2.218s-1.261 1.949 0.294 4.048c0.922 1.082 1.37 1.136 2.435 1.331 0.931 0.16 3.12-0.102 3.837-2.627 0.317-1.629 0.038-2.851-2.029-4.496l0.166-1.763s2.314 1.722 2.89 2.902c0.442 0.938 1.2 2.781-0.32 5.274z"></path>
</svg>
