<!-- Generated by IcoMoon.io -->
<svg version="1.1" xmlns="http://www.w3.org/2000/svg" viewBox="0 0 32 32">
<title>zb</title>
<path fill="#e6201a" d="M16 32c-8.823 0-16-7.177-16-16s7.177-16 16-16 16 7.177 16 16-7.177 16-16 16zM16 2.591c-7.397 0-13.409 6.012-13.409 13.409s6.012 13.409 13.409 13.409 13.409-6.012 13.409-13.409-6.012-13.409-13.409-13.409z"></path>
<path fill="#e6201a" d="M23.475 10.637c-0.57-1.321-1.814-2.15-3.251-2.15l-8.499-0.078c-1.399 0-2.63 0.79-3.187 2.072-0.582 1.308-0.337 2.785 0.648 3.835l1.166 1.257 1.763-1.905-1.024-1.114c-0.402-0.44-0.246-0.893-0.182-1.037 0.065-0.155 0.298-0.531 0.817-0.531h0.013l8.472 0.078c0.582 0 0.829 0.453 0.893 0.596 0.078 0.169 0.207 0.609-0.155 0.997l-4.197 4.561c-0.233 0.246-0.518 0.285-0.66 0.285-0.273 0-0.531-0.116-0.713-0.324l-0.713-0.764-1.763 1.905 0.57 0.609c0.673 0.726 1.632 1.153 2.618 1.153 0.972 0 1.917-0.415 2.565-1.128l4.197-4.561c0.947-1.012 1.18-2.463 0.623-3.758z"></path>
<path fill="#e6201a" d="M22.982 17.452l-1.192-1.295-2.034 2.203 1.024 1.114c0.273 0.298 0.195 0.622 0.116 0.79-0.051 0.116-0.246 0.479-0.713 0.479l-8.472 0.078c-0.428 0-0.596-0.285-0.648-0.415-0.065-0.129-0.169-0.479 0.142-0.817l4.275-4.625c0.155-0.169 0.349-0.259 0.57-0.259 0.116 0 0.337 0.026 0.518 0.22l0.881 0.959 2.034-2.203-0.713-0.777c-0.7-0.751-1.684-1.192-2.707-1.192-1.050 0-2.047 0.44-2.76 1.217l-4.275 4.625c-1.037 1.114-1.295 2.669-0.686 4.055 0.596 1.348 1.892 2.19 3.369 2.19l8.499-0.078c1.503-0.013 2.824-0.881 3.42-2.28 0.608-1.373 0.362-2.902-0.649-3.99z"></path>
</svg>
