<!-- Generated by IcoMoon.io -->
<svg version="1.1" xmlns="http://www.w3.org/2000/svg" viewBox="0 0 23 32">
<title>zil</title>
<path fill="#49c1bf" d="M22.606 13.223l-4.608 2.055-12.225 6.222 12.225 5.878v-9.715l4.608-2.077v14.353l-4.608 2.055-18-8.615v-4.579l12.46-6.112-12.46-5.988v-4.645l4.681-2.055 17.926 8.629v4.593z"></path>
<path fill="#077a8f" d="M-0.002 2.055l18 8.629 4.608-2.055-17.926-8.629-4.681 2.055z"></path>
<path fill="#298e97" d="M17.998 10.664l4.608-2.055v4.593l-4.608 2.055v-4.593z"></path>
<path fill="#49c1bf" d="M-0.002 2.059v4.645l12.46 5.988-12.46 6.112v4.579l18 8.615v-4.608l-12.225-5.885 12.225-6.222v-4.593l-18-8.629z"></path>
<path fill="#298e97" d="M17.998 31.962l4.608-2.055v-14.353l-4.608 2.077v14.331z"></path>
</svg>
