<!-- Generated by IcoMoon.io -->
<svg version="1.1" xmlns="http://www.w3.org/2000/svg" viewBox="0 0 32 32">
<title>zlw</title>
<path fill="#fff" d="M31.771 16c0 8.837-7.112 16-15.886 16s-15.886-7.163-15.886-16c0-8.837 7.112-16 15.886-16s15.886 7.163 15.886 16z"></path>
<path fill="#f9c910" d="M31.886 16c0 8.8-7.2 16-15.886 16-8.8 0-16-7.2-16-16 0-8.914 7.2-16 15.886-16 8.8 0 16 7.2 16 16zM15.886 1.829c-7.657 0-14.057 6.514-14.057 14.171s6.4 14.057 14.057 14.057c7.657 0 14.057-6.4 14.057-14.057 0.114-7.771-6.4-14.171-14.057-14.171z"></path>
<path fill="#f9c910" d="M5.714 21.714c-2.057-3.543-2.057-8.571 0.343-12.229l4 4c0 0-0.686 1.6-0.343 3.314l-1.371 1.6c-0.8-2.171-0.229-4.571-0.229-4.571l-1.486-1.257c-1.486 4.229 0.343 7.657 0.343 7.657l-1.257 1.486z"></path>
<path fill="#f9c910" d="M26.171 10.057c2.057 3.543 2.057 8.571-0.343 12.229l-4-4c0 0 0.686-1.6 0.343-3.314l1.371-1.6c0.8 2.171 0.229 4.571 0.229 4.571l1.486 1.486c1.486-4.229-0.343-7.657-0.343-7.657l1.257-1.714z"></path>
<path fill="#ed1c24" d="M25.257 8.571l-10.971 13.486c0 0 3.771 1.371 6.743-2.286l3.771 3.771c-3.429 4.571-12.571 6.4-18.171-0.343l10.971-13.486c0 0-4-1.371-6.743 2.286l-3.771-3.886c4.343-5.486 13.943-5.257 18.171 0.457zM9.6 8.229l1.257 1.257c4.914-3.657 9.486-0.343 9.486-0.343l-11.314 13.943c4 3.771 9.829 3.543 13.257 0.457l-1.257-1.257c-5.257 3.771-9.6 0.457-9.6 0.457l11.429-13.943c-2.971-3.086-8.8-4.229-13.257-0.571z"></path>
</svg>
