<!-- Generated by IcoMoon.io -->
<svg version="1.1" xmlns="http://www.w3.org/2000/svg" viewBox="0 0 32 32">
<title>zrx</title>
<path d="M24.717 21.536c1.155 1.552 2.346 3.14 3.537 4.728-2.382 2.815-5.342 4.62-8.915 5.378-3.97 0.83-7.724 0.217-11.369-1.805 3.248-2.418 6.424-4.8 9.636-7.182 0.722 0.686 1.408 1.371 2.093 2.021 0.758 0.722 0.469 0.758 1.444 0.217 1.335-0.758 2.454-1.805 3.32-3.068 0.036-0.072 0.108-0.144 0.144-0.217-0.036 0 0 0 0.108-0.072zM10.533 24.712c-0.902 0.686-1.732 1.299-2.563 1.949-0.614 0.469-1.227 0.902-1.841 1.371-0.253 0.217-0.433 0.217-0.722-0.036-2.743-2.454-4.475-5.486-5.125-9.095-0.65-3.645-0.072-7.11 1.66-10.394 0.036-0.072 0.108-0.18 0.144-0.253 0-0.036 0.036-0.036 0.108-0.072 2.382 3.14 4.8 6.28 7.182 9.42-0.072 0.108-0.108 0.18-0.18 0.253-0.722 0.758-1.444 1.516-2.202 2.238-0.217 0.217-0.253 0.397-0.108 0.65 0.758 1.444 1.805 2.635 3.104 3.609 0.18 0.108 0.325 0.217 0.541 0.361zM23.995 2.299c-1.155 0.83-2.31 1.66-3.465 2.454-1.985 1.408-3.97 2.851-5.919 4.259-0.253 0.18-0.433 0.217-0.65-0.036-0.65-0.686-1.335-1.299-1.985-1.985-0.18-0.18-0.361-0.217-0.614-0.108-1.552 0.794-2.779 1.913-3.79 3.32-0.072 0.072-0.144 0.18-0.217 0.289-0.577-0.758-1.119-1.444-1.66-2.165-0.577-0.758-1.119-1.516-1.66-2.238-0.18-0.253-0.217-0.433 0.036-0.686 2.779-3.068 6.208-4.872 10.322-5.305 3.248-0.361 6.352 0.289 9.239 1.841 0.108 0.072 0.217 0.108 0.325 0.18 0 0.108 0 0.144 0.036 0.18zM29.878 23.954c-0.758-0.974-1.444-1.877-2.129-2.779-1.588-2.093-3.176-4.223-4.8-6.316-0.217-0.289-0.217-0.469 0.036-0.722 0.686-0.686 1.335-1.371 2.021-2.057 0.18-0.18 0.253-0.361 0.108-0.614-0.794-1.516-1.877-2.779-3.284-3.79-0.108-0.072-0.217-0.18-0.361-0.253 0.108-0.108 0.217-0.18 0.289-0.253 1.371-1.047 2.743-2.057 4.114-3.104 0.217-0.18 0.397-0.253 0.65 0 3.429 3.104 5.269 6.966 5.45 11.621 0.072 2.707-0.541 5.269-1.768 7.687-0.108 0.144-0.217 0.325-0.325 0.577z"></path>
</svg>
