<?xml version="1.0" standalone="no"?>
<!DOCTYPE svg PUBLIC "-//W3C//DTD SVG 20010904//EN"
 "http://www.w3.org/TR/2001/REC-SVG-20010904/DTD/svg10.dtd">
<svg version="1.0" xmlns="http://www.w3.org/2000/svg"
 width="984.000000pt" height="984.000000pt" viewBox="0 0 984.000000 984.000000"
 preserveAspectRatio="xMidYMid meet">
<metadata>
Created by potrace 1.14, written by Peter Selinger 2001-2017
</metadata>
<g transform="translate(0.000000,984.000000) scale(0.100000,-0.100000)"
fill="#000000" stroke="none">
<path d="M9061 8747 c-6 -6 -11 -8 -11 -4 0 10 -136 -41 -220 -83 -96 -48
-247 -151 -375 -254 -124 -100 -365 -342 -365 -366 0 -6 -3 -10 -7 -10 -5 0
-19 -17 -33 -38 -14 -20 -33 -46 -42 -56 -10 -11 -20 -28 -24 -38 -3 -10 -10
-18 -15 -18 -5 0 -9 -6 -9 -12 -1 -25 -47 -71 -61 -62 -8 5 -18 9 -24 11 -5 1
-35 11 -66 22 -31 11 -67 22 -80 25 -21 5 -100 24 -184 44 -47 12 -310 5 -310
-8 0 -1 -9 -3 -20 -4 -31 -5 -149 -52 -199 -80 -25 -14 -67 -38 -93 -53 -27
-14 -49 -30 -51 -35 -2 -4 -8 -8 -14 -8 -6 0 -35 -16 -64 -35 -29 -19 -55 -35
-59 -35 -3 0 -62 -56 -130 -125 -108 -108 -157 -146 -210 -159 -13 -4 -41 -15
-92 -37 -23 -11 -49 -19 -57 -19 -9 0 -16 -4 -16 -10 0 -5 -8 -10 -17 -10 -10
0 -29 -6 -43 -13 -79 -41 -78 -41 -288 29 -108 37 -201 67 -206 69 -6 1 -18 5
-26 8 -49 20 -94 26 -102 14 -4 -6 -8 -8 -8 -3 0 6 -5 5 -12 -2 -7 -7 -18 -12
-25 -12 -36 0 -99 -109 -82 -142 7 -12 6 -18 -1 -18 -6 0 -1 -18 11 -40 13
-22 26 -40 30 -40 4 0 14 -6 21 -13 7 -7 96 -82 198 -166 102 -85 197 -165
212 -179 l27 -24 -41 -77 c-23 -42 -50 -88 -60 -103 -11 -16 -16 -28 -13 -28
3 0 -2 -12 -13 -27 -11 -16 -23 -38 -26 -50 -4 -13 -12 -23 -18 -23 -6 0 -8
-3 -5 -7 4 -3 3 -11 -2 -17 -5 -6 -20 -31 -34 -56 -13 -25 -37 -67 -52 -95
-15 -27 -32 -56 -37 -62 -6 -7 -7 -13 -2 -13 5 0 5 -4 -1 -8 -5 -4 -19 -25
-31 -47 -36 -69 -96 -179 -114 -210 -9 -16 -41 -75 -70 -130 -29 -55 -64 -119
-77 -142 -14 -24 -22 -43 -19 -43 3 0 -2 -9 -12 -20 -9 -12 -15 -23 -14 -27 2
-3 0 -9 -5 -12 -4 -3 -21 -31 -37 -61 -15 -30 -58 -111 -94 -180 -36 -69 -70
-132 -76 -140 -6 -8 -29 -51 -51 -95 -22 -44 -43 -82 -48 -83 -4 -2 -5 -7 -2
-12 3 -4 -2 -13 -10 -20 -8 -7 -15 -17 -15 -22 0 -5 -16 -37 -36 -71 -20 -34
-36 -64 -36 -67 1 -9 -82 -155 -90 -158 -4 -2 -8 -7 -8 -12 0 -11 -99 -170
-116 -188 -8 -7 -14 -19 -14 -27 0 -7 -3 -15 -7 -17 -12 -5 -93 -125 -93 -136
0 -6 -4 -12 -8 -14 -4 -1 -23 -25 -42 -53 -19 -27 -37 -52 -40 -55 -3 -3 -30
-39 -60 -80 -30 -41 -57 -77 -60 -80 -3 -3 -28 -34 -55 -70 -27 -36 -53 -68
-57 -71 -4 -3 -19 -20 -32 -38 -86 -116 -361 -394 -520 -526 -26 -22 -53 -44
-59 -50 -40 -34 -106 -85 -112 -85 -3 0 -11 -5 -18 -10 -46 -39 -61 -50 -68
-50 -4 0 -14 -6 -21 -13 -60 -60 -482 -275 -593 -301 -5 -2 -22 -8 -36 -14
-25 -10 -95 -30 -129 -37 -8 -2 -16 -4 -17 -5 -3 -3 -3 -3 -58 -15 -22 -4 -47
-10 -55 -12 -8 -2 -26 -5 -40 -8 -14 -2 -36 -6 -50 -9 -112 -21 -231 -30 -415
-29 -147 1 -210 5 -305 18 -19 2 -55 7 -80 10 -25 3 -53 8 -63 11 -11 4 -29 7
-40 9 -12 1 -33 5 -47 9 -14 3 -36 8 -50 10 -33 7 -166 42 -210 56 -19 6 -43
13 -53 15 -25 6 -136 44 -172 60 -16 7 -41 16 -55 20 -79 24 -452 196 -482
223 -10 8 -18 12 -18 8 0 -4 -15 1 -32 12 -18 11 -49 29 -68 40 -19 11 -63 36
-98 56 l-63 36 -80 -40 -79 -40 0 -43 c0 -33 30 -173 63 -292 11 -40 51 -152
57 -160 4 -5 13 -27 20 -48 31 -96 198 -404 250 -459 11 -12 20 -27 20 -34 0
-7 3 -14 7 -16 5 -1 35 -37 68 -78 68 -86 248 -267 323 -325 29 -22 52 -43 52
-47 0 -5 6 -8 13 -8 7 0 23 -10 37 -22 33 -31 167 -118 180 -118 5 0 10 -4 10
-9 0 -5 8 -11 17 -15 10 -3 34 -15 53 -27 40 -25 303 -157 370 -187 55 -24
211 -77 288 -98 99 -27 176 -46 197 -49 11 -1 27 -5 35 -8 8 -4 33 -9 55 -11
22 -3 69 -10 105 -16 38 -6 277 -10 570 -9 525 0 504 -1 703 45 37 8 79 18 95
21 41 8 57 11 57 13 0 1 9 3 20 5 11 2 74 18 140 36 66 17 127 32 135 34 8 1
22 5 30 8 17 7 155 47 179 52 9 2 30 8 46 14 125 43 152 52 166 56 17 3 240
80 274 94 11 4 110 44 220 87 110 43 203 82 206 87 3 5 9 8 13 8 9 -1 36 9
106 41 36 16 67 30 70 30 3 0 23 10 45 21 22 12 42 21 45 22 14 1 331 162 377
192 29 18 54 33 56 33 6 0 226 135 242 148 6 4 28 19 50 32 22 13 43 29 47 34
4 6 8 7 8 2 0 -5 8 -1 19 8 10 9 44 34 74 54 94 63 212 145 217 151 3 3 59 46
125 95 107 80 292 229 305 245 3 4 19 17 35 30 110 84 531 497 644 631 35 41
68 80 75 85 6 6 29 33 51 60 21 28 42 52 45 55 3 3 19 23 35 45 16 22 35 47
42 55 7 8 26 33 42 55 17 22 34 45 39 50 4 6 23 33 42 60 19 28 37 52 42 53 4
2 8 10 8 18 0 8 5 14 10 14 6 0 10 7 10 15 0 8 5 15 10 15 6 0 10 4 10 9 0 6
20 39 45 75 25 37 45 69 45 73 0 3 6 14 14 22 8 9 26 39 42 66 15 28 38 68 51
90 34 57 156 302 188 377 15 34 37 83 47 108 11 25 24 54 28 65 10 25 71 196
74 210 10 41 20 72 25 80 3 6 6 15 7 20 2 6 18 70 37 143 20 73 35 136 34 140
0 4 144 80 321 170 l322 162 40 80 40 80 -87 43 c-70 35 -94 42 -115 36 -16
-4 -30 -4 -33 1 -3 4 -21 4 -40 0 -34 -8 -39 -5 -82 38 -43 45 -49 59 -120
272 -41 124 -77 232 -78 240 -2 8 -17 76 -34 150 -30 132 -72 285 -90 325 -5
11 -23 50 -39 87 -48 105 -119 206 -209 296 -46 45 -87 82 -91 82 -5 0 -21 10
-36 23 -14 13 -51 36 -82 52 -65 34 -69 39 -49 58 8 9 15 18 15 22 0 5 35 59
128 198 14 20 29 37 34 37 4 0 8 7 8 15 0 8 5 15 10 15 6 0 10 6 10 14 0 8 3
16 8 18 4 2 30 30 57 63 71 84 198 210 280 278 91 75 86 71 120 93 17 10 33
22 36 27 3 5 10 8 15 8 5 -1 41 6 79 15 97 22 110 24 200 23 86 0 101 -1 155
-13 76 -17 128 -38 249 -101 29 -16 39 -16 70 -5 65 22 116 89 106 138 -11 57
-218 199 -345 236 -65 20 -330 22 -349 3z"/>
</g>
</svg>
